<svg width="20" height="20" viewBox="0 0 20 20" fill="none" xmlns="http://www.w3.org/2000/svg">
<g id="Football Team A Shirt" clip-path="url(#clip0_8739_143247)">
<path id="Exclude" fill-rule="evenodd" clip-rule="evenodd" d="M15.4832 0.308984L18.3809 1.75781H18.3805C19.3793 2.25781 19.9996 3.26133 19.9996 4.37773V8.87812C19.9996 9.15234 19.7773 9.375 19.5027 9.375H16.9813C16.707 9.375 16.4844 9.59726 16.4844 9.87187V19.5023C16.4844 19.7766 16.2621 19.9992 15.9875 19.9992H4.0125C3.73828 19.9992 3.51563 19.7769 3.51563 19.5023V9.87148C3.51563 9.59726 3.29336 9.37461 3.01875 9.37461H0.496875C0.222656 9.37461 0 9.15234 0 8.87773V4.37773C0 3.26172 0.620313 2.25781 1.61953 1.75781L4.51641 0.308984C4.92149 0.107031 5.37461 0 5.82656 0H14.1734C14.6254 0 15.0785 0.107031 15.4832 0.308984ZM8.24209 2.34365H11.7577V3.51553H8.24209V2.34365Z" fill="#0790FF"/>
</g>
<defs>
<clipPath id="clip0_8739_143247">
<rect width="20" height="20" fill="white"/>
</clipPath>
</defs>
</svg>
