<svg width="20" height="20" viewBox="0 0 20 20" fill="none" xmlns="http://www.w3.org/2000/svg">
<path d="M14 9.99998C14 10.1183 13.9818 10.2247 13.9453 10.3193C13.9052 10.414 13.8432 10.5046 13.7594 10.5914L8.22021 16.3812C8.08533 16.527 7.91947 16.6 7.72262 16.6C7.59138 16.6 7.47291 16.5645 7.36719 16.4935C7.25783 16.4265 7.17216 16.3358 7.11019 16.2215C7.04457 16.1071 7.01176 15.979 7.01176 15.8371C7.01176 15.6281 7.08285 15.4448 7.22502 15.2871L12.2994 9.99998L7.22502 4.71879C7.08285 4.56109 7.01176 4.37775 7.01176 4.16879C7.01176 4.02291 7.04457 3.89281 7.11019 3.77847C7.17216 3.66019 7.25783 3.56754 7.36719 3.50051C7.47291 3.43349 7.59138 3.39998 7.72262 3.39998C7.91947 3.39998 8.08534 3.47291 8.22022 3.61879L13.7594 9.40858C13.8432 9.49532 13.9052 9.586 13.9453 9.68062C13.9818 9.77919 14 9.88564 14 9.99998Z" fill="white" fill-opacity="0.22"/>
</svg>
