<svg width="12" height="6" viewBox="0 0 12 6" fill="none" xmlns="http://www.w3.org/2000/svg">
<path id="&#244;&#128;&#175;&#182;" d="M5.99689 6C5.88923 6 5.78985 5.98232 5.69876 5.94695C5.60766 5.90766 5.5207 5.84872 5.43789 5.77014L0.704968 1.17878C0.568322 1.04519 0.499999 0.884086 0.499999 0.69548C0.499999 0.565814 0.533125 0.449901 0.599378 0.34774C0.66149 0.24165 0.746376 0.15717 0.854036 0.0943016C0.961697 0.031433 1.08385 -1.06668e-06 1.2205 -1.09313e-06C1.41511 -1.1308e-06 1.58903 0.0726903 1.74223 0.218074L5.99689 4.3556L10.2516 0.218072C10.4048 0.0726886 10.5807 -2.90491e-06 10.7795 -2.94338e-06C10.912 -2.96903e-06 11.0321 0.0314311 11.1397 0.0942996C11.2516 0.157168 11.3385 0.241648 11.4006 0.347738C11.4669 0.449899 11.5 0.565812 11.5 0.695478C11.5 0.884084 11.4296 1.04518 11.2888 1.17878L6.5559 5.77014C6.47308 5.84872 6.38613 5.90766 6.29503 5.94695C6.20393 5.98232 6.10455 6 5.99689 6Z" fill="white"/>
</svg>
