<svg width="52" height="52" viewBox="0 0 52 52" fill="none" xmlns="http://www.w3.org/2000/svg">
<g id="Subtract">
<path id="Subtract_2" fill-rule="evenodd" clip-rule="evenodd" d="M44.3848 7.61536C54.5384 17.7692 54.5384 34.2317 44.3848 44.3855C34.2311 54.5394 17.7689 54.5394 7.61522 44.3855C-2.53841 34.2317 -2.53841 17.7692 7.61522 7.61535C17.7689 -2.53845 34.2311 -2.53845 44.3848 7.61536ZM39.9274 27.1516C40.2322 26.8468 40.4034 26.4334 40.4034 26.0023C40.4034 25.5713 40.2322 25.1579 39.9274 24.8531C39.6226 24.5483 39.2092 24.377 38.7782 24.377H19.9907L25.1323 19.0694C25.2809 18.9161 25.3977 18.7351 25.4763 18.5366C25.5548 18.3381 25.5935 18.1261 25.5901 17.9127C25.5868 17.6993 25.5414 17.4886 25.4566 17.2927C25.3718 17.0968 25.2492 16.9196 25.0959 16.771C24.9426 16.6225 24.7616 16.5057 24.5631 16.4271C24.3646 16.3486 24.1526 16.3099 23.9392 16.3132C23.7258 16.3166 23.5151 16.362 23.3193 16.4468C23.1234 16.5316 22.9461 16.6542 22.7976 16.8075L14.9863 24.8717C14.6927 25.1749 14.5286 25.5804 14.5286 26.0024C14.5286 26.4244 14.6927 26.8298 14.9863 27.133L22.7976 35.1976C23.0976 35.5072 23.5082 35.685 23.9393 35.6918C24.3703 35.6986 24.7864 35.5339 25.096 35.2339C25.4056 34.934 25.5834 34.5233 25.5902 34.0923C25.597 33.6612 25.4323 33.2451 25.1323 32.9355L19.9907 27.6276H38.7782C39.2092 27.6276 39.6226 27.4564 39.9274 27.1516Z" fill="white" fill-opacity="0.2"/>
</g>
</svg>
