<svg width="36" height="36" viewBox="0 0 36 36" fill="none" xmlns="http://www.w3.org/2000/svg">
<g id="Glyph">
<path id="Vector" d="M18.0011 0.0839844C14.4576 0.0839844 10.9936 1.13478 8.04718 3.10349C5.1008 5.0722 2.80438 7.8704 1.44831 11.1442C0.0922357 14.4181 -0.262574 18.0205 0.428744 21.496C1.12006 24.9715 2.82646 28.164 5.33215 30.6696C7.83784 33.1753 11.0303 34.8817 14.5058 35.5731C17.9813 36.2644 21.5837 35.9096 24.8576 34.5535C28.1314 33.1974 30.9296 30.901 32.8983 27.9546C34.867 25.0082 35.9178 21.5442 35.9178 18.0007C35.9134 13.2502 34.0243 8.6956 30.6653 5.33653C27.3062 1.97746 22.7516 0.0883972 18.0011 0.0839844ZM23.8845 22.1173C24.1186 22.3517 24.25 22.6694 24.25 23.0007C24.25 23.3319 24.1186 23.6496 23.8845 23.884C23.6501 24.1181 23.3324 24.2496 23.0011 24.2496C22.6699 24.2496 22.3522 24.1181 22.1178 23.884L18.0011 19.7673L13.8845 23.884C13.6501 24.1181 13.3324 24.2496 13.0011 24.2496C12.6699 24.2496 12.3522 24.1181 12.1178 23.884C11.8837 23.6496 11.7522 23.3319 11.7522 23.0007C11.7522 22.6694 11.8837 22.3517 12.1178 22.1173L16.2345 18.0007L12.1178 13.884C11.897 13.647 11.7768 13.3336 11.7825 13.0098C11.7882 12.6859 11.9194 12.377 12.1484 12.1479C12.3775 11.9189 12.6864 11.7877 13.0103 11.782C13.3341 11.7763 13.6475 11.8965 13.8845 12.1173L18.0011 16.234L22.1178 12.1173C22.3548 11.8965 22.6682 11.7763 22.992 11.782C23.3159 11.7877 23.6248 11.9189 23.8539 12.1479C24.0829 12.377 24.2141 12.6859 24.2198 13.0098C24.2255 13.3336 24.1053 13.647 23.8845 13.884L19.7678 18.0007L23.8845 22.1173Z" fill="white"/>
</g>
</svg>
