<svg width="20" height="22" viewBox="0 0 20 22" fill="none" xmlns="http://www.w3.org/2000/svg">
<g id="ICON" clip-path="url(#clip0_3559_162561)">
<path id="Vector" d="M0.714286 3.85658H10.8156C11.1348 5.08516 12.2442 5.99944 13.5714 5.99944C14.8987 5.99944 16.008 5.08516 16.3272 3.85658H19.2857C19.6799 3.85658 20 3.5365 20 3.1423C20 2.7481 19.6799 2.42801 19.2857 2.42801H16.3272C16.008 1.19944 14.8987 0.285156 13.5714 0.285156C12.2442 0.285156 11.1348 1.19944 10.8156 2.42801H0.714286C0.320089 2.42801 0 2.7481 0 3.1423C0 3.5365 0.320089 3.85658 0.714286 3.85658ZM13.5714 1.71373C14.3594 1.71373 15 2.35435 15 3.1423C15 3.93025 14.3594 4.57087 13.5714 4.57087C12.7835 4.57087 12.1429 3.93025 12.1429 3.1423C12.1429 2.35435 12.7835 1.71373 13.5714 1.71373ZM19.2857 18.1423H16.3272C16.008 16.9137 14.8987 15.9994 13.5714 15.9994C12.2442 15.9994 11.1348 16.9137 10.8156 18.1423H0.714286C0.320089 18.1423 0 18.4624 0 18.8566C0 19.2508 0.320089 19.5709 0.714286 19.5709H10.8156C11.1348 20.7994 12.2442 21.7137 13.5714 21.7137C14.8987 21.7137 16.008 20.7994 16.3272 19.5709H19.2857C19.6799 19.5709 20 19.2508 20 18.8566C20 18.4624 19.6799 18.1423 19.2857 18.1423ZM13.5714 20.2852C12.7835 20.2852 12.1429 19.6445 12.1429 18.8566C12.1429 18.0686 12.7835 17.428 13.5714 17.428C14.3594 17.428 15 18.0686 15 18.8566C15 19.6445 14.3594 20.2852 13.5714 20.2852ZM19.2857 10.2852H8.47009C8.15089 9.05658 7.04152 8.1423 5.71429 8.1423C4.38705 8.1423 3.27768 9.05658 2.95848 10.2852H0.714286C0.320089 10.2852 0 10.6052 0 10.9994C0 11.3936 0.320089 11.7137 0.714286 11.7137H2.95848C3.27768 12.9423 4.38705 13.8566 5.71429 13.8566C7.04152 13.8566 8.15089 12.9423 8.47009 11.7137H19.2857C19.6799 11.7137 20 11.3936 20 10.9994C20 10.6052 19.6799 10.2852 19.2857 10.2852ZM5.71429 12.428C4.92634 12.428 4.28571 11.7874 4.28571 10.9994C4.28571 10.2115 4.92634 9.57087 5.71429 9.57087C6.50223 9.57087 7.14286 10.2115 7.14286 10.9994C7.14286 11.7874 6.50223 12.428 5.71429 12.428Z" fill="white"/>
</g>
<defs>
<clipPath id="clip0_3559_162561">
<rect width="20" height="21.4286" fill="white" transform="translate(0 0.285156)"/>
</clipPath>
</defs>
</svg>
