<svg width="22" height="22" viewBox="0 0 22 22" fill="none" xmlns="http://www.w3.org/2000/svg">
<path d="M1.1626 6.2855H3.57724C5.07765 6.2855 6.2855 5.07765 6.2855 3.57724V1.1626C6.2855 0.484948 5.73944 -0.0611111 5.06179 -0.0611111C4.38414 -0.0611111 3.83808 0.484948 3.83808 1.1626V3.57724C3.83808 3.72235 3.72235 3.83808 3.57724 3.83808H1.1626C0.484948 3.83808 -0.0611111 4.38414 -0.0611111 5.06179C-0.0611111 5.73944 0.484948 6.2855 1.1626 6.2855Z" fill="white" stroke="white" stroke-width="0.122222"/>
<path d="M3.83808 20.8372C3.83808 21.5148 4.38413 22.0609 5.06179 22.0609C5.73944 22.0609 6.2855 21.5148 6.2855 20.8372V18.4225C6.2855 16.9221 5.07765 15.7143 3.57724 15.7143H1.1626C0.484948 15.7143 -0.0611111 16.2603 -0.0611111 16.938C-0.0611111 17.6156 0.484948 18.1617 1.1626 18.1617H3.57724C3.72235 18.1617 3.83808 18.2774 3.83808 18.4225V20.8372Z" fill="white" stroke="white" stroke-width="0.122222"/>
<path d="M15.7162 20.8372C15.7162 21.5148 16.2623 22.0609 16.9399 22.0609C17.6176 22.0609 18.1637 21.5148 18.1637 20.8372V18.4225C18.1637 18.2774 18.2794 18.1617 18.4245 18.1617H20.8391C21.5168 18.1617 22.0628 17.6156 22.0628 16.938C22.0628 16.2603 21.5168 15.7143 20.8391 15.7143H18.4245C16.9241 15.7143 15.7162 16.9221 15.7162 18.4225V20.8372Z" fill="white" stroke="white" stroke-width="0.122222"/>
<path d="M18.4245 6.2855H20.8391C21.5168 6.2855 22.0628 5.73944 22.0628 5.06179C22.0628 4.38413 21.5168 3.83808 20.8391 3.83808H18.4245C18.2794 3.83808 18.1637 3.72235 18.1637 3.57724V1.1626C18.1637 0.484948 17.6176 -0.0611111 16.9399 -0.0611111C16.2623 -0.0611111 15.7162 0.484948 15.7162 1.1626V3.57724C15.7162 5.07765 16.9241 6.2855 18.4245 6.2855Z" fill="white" stroke="white" stroke-width="0.122222"/>
</svg>
