<svg width="18" height="18" viewBox="0 0 18 18" fill="none" xmlns="http://www.w3.org/2000/svg">
<g id="Frame" clip-path="url(#clip0_2837_144175)">
<g id="fullscreen">
<path id="Vector" d="M-0.05 3.96585C-0.05 4.5203 0.396776 4.96707 0.951219 4.96707C1.50566 4.96707 1.95244 4.5203 1.95244 3.96585V2.09268C1.95244 2.01786 2.01786 1.95244 2.09268 1.95244H3.96585C4.5203 1.95244 4.96707 1.50566 4.96707 0.951219C4.96707 0.396776 4.5203 -0.05 3.96585 -0.05H2.09268C0.908971 -0.05 -0.05 0.908971 -0.05 2.09268V3.96585Z" fill="white" stroke="white" stroke-width="0.1"/>
<path id="Vector_2" d="M2.09268 18.0501H3.96585C4.5203 18.0501 4.96707 17.6033 4.96707 17.0489C4.96707 16.4944 4.5203 16.0476 3.96585 16.0476H2.09268C2.01786 16.0476 1.95244 15.9822 1.95244 15.9074V14.0342C1.95244 13.4798 1.50566 13.033 0.951219 13.033C0.396776 13.033 -0.05 13.4798 -0.05 14.0342V15.9074C-0.05 17.0911 0.908971 18.0501 2.09268 18.0501Z" fill="white" stroke="white" stroke-width="0.1"/>
<path id="Vector_3" d="M14.0333 18.0501H15.9064C17.0901 18.0501 18.0491 17.0911 18.0491 15.9074V14.0342C18.0491 13.4798 17.6023 13.033 17.0479 13.033C16.4934 13.033 16.0467 13.4798 16.0467 14.0342V15.9074C16.0467 15.9822 15.9812 16.0476 15.9064 16.0476H14.0333C13.4788 16.0476 13.032 16.4944 13.032 17.0489C13.032 17.6033 13.4788 18.0501 14.0333 18.0501Z" fill="white" stroke="white" stroke-width="0.1"/>
<path id="Vector_4" d="M16.0467 3.96585C16.0467 4.5203 16.4934 4.96707 17.0479 4.96707C17.6023 4.96707 18.0491 4.5203 18.0491 3.96585V2.09268C18.0491 0.908971 17.0901 -0.05 15.9064 -0.05H14.0333C13.4788 -0.05 13.032 0.396776 13.032 0.951219C13.032 1.50566 13.4788 1.95244 14.0333 1.95244H15.9064C15.9812 1.95244 16.0467 2.01786 16.0467 2.09268V3.96585Z" fill="white" stroke="white" stroke-width="0.1"/>
</g>
</g>
<defs>
<clipPath id="clip0_2837_144175">
<rect width="18" height="18" fill="white"/>
</clipPath>
</defs>
</svg>
