<svg width="22" height="22" viewBox="0 0 22 22" fill="none" xmlns="http://www.w3.org/2000/svg">
<path id="Vector" d="M20.1222 14.8812L19.5679 14.5417V14.5417L20.1222 14.8812ZM19.1263 16.5076L19.6806 16.847L19.1263 16.5076ZM1.87656 7.11757L1.32223 6.77813H1.32223L1.87656 7.11757ZM2.87248 5.49117L3.4268 5.83061H3.4268L2.87248 5.49117ZM5.59336 4.80377L5.90413 4.23288L5.90413 4.23288L5.59336 4.80377ZM2.60562 9.68296L2.29485 10.2539H2.29485L2.60562 9.68296ZM16.4054 17.195L16.0946 17.7659L16.0946 17.7659L16.4054 17.195ZM19.3931 12.3158L19.0824 12.8867L19.3931 12.3158ZM2.87247 16.5076L2.31815 16.847H2.31815L2.87247 16.5076ZM1.87656 14.8812L2.43089 14.5417H2.43089L1.87656 14.8812ZM19.1263 5.49118L19.6806 5.15175V5.15174L19.1263 5.49118ZM20.1222 7.11758L19.5679 7.45702V7.45702L20.1222 7.11758ZM19.3931 9.68298L19.7039 10.2539L19.3931 9.68298ZM16.4054 4.80379L16.7162 5.37468L16.7162 5.37468L16.4054 4.80379ZM2.60562 12.3158L2.91639 12.8867H2.91639L2.60562 12.3158ZM5.59336 17.195L5.28259 16.6241L5.28259 16.6241L5.59336 17.195ZM16.2995 4.86142L15.9887 4.29053V4.29053L16.2995 4.86142ZM5.69924 4.86141L5.38847 5.43231L5.38847 5.43231L5.69924 4.86141ZM16.2995 17.1373L16.6103 16.5664L16.6103 16.5664L16.2995 17.1373ZM5.69924 17.1373L6.01001 17.7082L6.01001 17.7082L5.69924 17.1373ZM10.0035 2.25937H11.9953V0.959375H10.0035V2.25937ZM11.9953 19.7394H10.0035V21.0394H11.9953V19.7394ZM10.0035 19.7394C9.22583 19.7394 8.66164 19.1541 8.66164 18.5114H7.36164C7.36164 19.9431 8.58099 21.0394 10.0035 21.0394V19.7394ZM13.3371 18.5114C13.3371 19.1541 12.7729 19.7394 11.9953 19.7394V21.0394C13.4178 21.0394 14.6371 19.9431 14.6371 18.5114H13.3371ZM11.9953 2.25937C12.7729 2.25937 13.3371 2.84467 13.3371 3.48738H14.6371C14.6371 2.05569 13.4178 0.959375 11.9953 0.959375V2.25937ZM10.0035 0.959375C8.58099 0.959375 7.36164 2.05569 7.36164 3.48738H8.66164C8.66164 2.84468 9.22583 2.25937 10.0035 2.25937V0.959375ZM19.5679 14.5417L18.5719 16.1681L19.6806 16.847L20.6765 15.2206L19.5679 14.5417ZM2.43089 7.45701L3.4268 5.83061L2.31815 5.15173L1.32223 6.77813L2.43089 7.45701ZM3.4268 5.83061C3.78743 5.24169 4.61914 5.01352 5.28259 5.37467L5.90413 4.23288C4.66223 3.55684 3.05758 3.94419 2.31815 5.15173L3.4268 5.83061ZM2.91639 9.11207C2.27322 8.76195 2.08521 8.02153 2.43089 7.45701L1.32223 6.77813C0.567864 8.01007 1.03267 9.56678 2.29485 10.2539L2.91639 9.11207ZM18.5719 16.1681C18.2113 16.757 17.3796 16.9852 16.7162 16.6241L16.0946 17.7659C17.3365 18.4419 18.9412 18.0546 19.6806 16.847L18.5719 16.1681ZM20.6765 15.2206C21.4309 13.9887 20.9661 12.432 19.7039 11.7449L19.0824 12.8867C19.7255 13.2368 19.9135 13.9772 19.5679 14.5417L20.6765 15.2206ZM3.4268 16.1681L2.43089 14.5417L1.32223 15.2206L2.31815 16.847L3.4268 16.1681ZM18.5719 5.83062L19.5679 7.45702L20.6765 6.77814L19.6806 5.15175L18.5719 5.83062ZM19.5679 7.45702C19.9135 8.02155 19.7255 8.76196 19.0824 9.11208L19.7039 10.2539C20.9661 9.5668 21.4309 8.01008 20.6765 6.77814L19.5679 7.45702ZM16.7162 5.37468C17.3796 5.01353 18.2113 5.2417 18.5719 5.83062L19.6806 5.15174C18.9412 3.9442 17.3365 3.55686 16.0946 4.23289L16.7162 5.37468ZM2.43089 14.5417C2.08521 13.9772 2.27322 13.2368 2.91639 12.8867L2.29485 11.7449C1.03267 12.432 0.567863 13.9887 1.32223 15.2206L2.43089 14.5417ZM2.31815 16.847C3.05758 18.0546 4.66223 18.4419 5.90413 17.7659L5.28259 16.6241C4.61914 16.9852 3.78743 16.7571 3.4268 16.1681L2.31815 16.847ZM16.6103 5.43232L16.7162 5.37468L16.0946 4.23289L15.9887 4.29053L16.6103 5.43232ZM5.28259 5.37467L5.38847 5.43231L6.01001 4.29052L5.90413 4.23288L5.28259 5.37467ZM16.7162 16.6241L16.6103 16.5664L15.9887 17.7082L16.0946 17.7659L16.7162 16.6241ZM5.38847 16.5664L5.28259 16.6241L5.90413 17.7659L6.01001 17.7082L5.38847 16.5664ZM2.29485 10.2539C2.8855 10.5754 2.8855 11.4234 2.29485 11.7449L2.91639 12.8867C4.41166 12.0727 4.41166 9.92603 2.91639 9.11207L2.29485 10.2539ZM6.01001 17.7082C6.61935 17.3765 7.36164 17.8176 7.36164 18.5114H8.66164C8.66164 16.8313 6.86406 15.7632 5.38847 16.5664L6.01001 17.7082ZM14.6371 18.5114C14.6371 17.8176 15.3794 17.3765 15.9888 17.7082L16.6103 16.5664C15.1347 15.7632 13.3371 16.8313 13.3371 18.5114H14.6371ZM19.7039 11.7449C19.1133 11.4234 19.1133 10.5754 19.7039 10.2539L19.0824 9.11208C17.5871 9.92603 17.5871 12.0727 19.0824 12.8867L19.7039 11.7449ZM5.38847 5.43231C6.86406 6.23556 8.66164 5.16743 8.66164 3.48738H7.36164C7.36164 4.18114 6.61935 4.62221 6.01001 4.29052L5.38847 5.43231ZM15.9887 4.29053C15.3794 4.62222 14.6371 4.18115 14.6371 3.48738H13.3371C13.3371 5.16743 15.1347 6.23557 16.6103 5.43232L15.9887 4.29053ZM13.4794 10.9994C13.4794 12.369 12.3691 13.4794 10.9994 13.4794V14.7794C13.087 14.7794 14.7794 13.087 14.7794 10.9994H13.4794ZM10.9994 13.4794C9.62972 13.4794 8.51938 12.369 8.51938 10.9994H7.21938C7.21938 13.087 8.91175 14.7794 10.9994 14.7794V13.4794ZM8.51938 10.9994C8.51938 9.62971 9.62972 8.51938 10.9994 8.51938V7.21938C8.91175 7.21938 7.21938 8.91174 7.21938 10.9994H8.51938ZM10.9994 8.51938C12.3691 8.51938 13.4794 9.62971 13.4794 10.9994H14.7794C14.7794 8.91174 13.087 7.21938 10.9994 7.21938V8.51938Z" fill="white"/>
</svg>
