<svg width="52" height="53" viewBox="0 0 52 53" fill="none" xmlns="http://www.w3.org/2000/svg">
<g id="Property 1=Variant2">
<path id="Subtract" fill-rule="evenodd" clip-rule="evenodd" d="M44.3848 7.61634C54.5384 17.7701 54.5384 34.2327 44.3848 44.3865C34.2311 54.5403 17.7689 54.5403 7.61522 44.3865C-2.53841 34.2327 -2.53841 17.7701 7.61522 7.61633C17.7689 -2.53748 34.2311 -2.53747 44.3848 7.61634ZM39.9274 27.1525C40.2322 26.8477 40.4034 26.4343 40.4034 26.0033C40.4034 25.5722 40.2322 25.1588 39.9274 24.8541C39.6226 24.5493 39.2092 24.378 38.7782 24.378H19.9907L25.1323 19.0704C25.2809 18.9171 25.3977 18.736 25.4763 18.5376C25.5548 18.3391 25.5935 18.1271 25.5901 17.9137C25.5868 17.7003 25.5414 17.4896 25.4566 17.2937C25.3718 17.0978 25.2492 16.9205 25.0959 16.772C24.9426 16.6235 24.7616 16.5066 24.5631 16.4281C24.3646 16.3495 24.1526 16.3108 23.9392 16.3142C23.7258 16.3176 23.5151 16.363 23.3193 16.4478C23.1234 16.5326 22.9461 16.6551 22.7976 16.8084L14.9863 24.8727C14.6927 25.1759 14.5286 25.5813 14.5286 26.0033C14.5286 26.4253 14.6927 26.8308 14.9863 27.134L22.7976 35.1985C23.0976 35.5082 23.5082 35.6859 23.9393 35.6928C24.3703 35.6996 24.7864 35.5349 25.096 35.2349C25.4056 34.9349 25.5834 34.5243 25.5902 34.0932C25.597 33.6622 25.4323 33.2461 25.1323 32.9365L19.9907 27.6286H38.7782C39.2092 27.6286 39.6226 27.4573 39.9274 27.1525Z" fill="white"/>
</g>
</svg>
