<svg width="16" height="16" viewBox="0 0 16 16" fill="none" xmlns="http://www.w3.org/2000/svg">
<g id="LhmDwc.tif">
<g id="Group">
<path id="Vector" d="M8.43038 15.3326H7.57115C7.53393 15.3245 7.49752 15.3116 7.4603 15.3091C6.31304 15.2283 5.23939 14.8998 4.26041 14.3004C2.36071 13.1364 1.19078 11.4578 0.780583 9.2624C0.729612 8.98737 0.703721 8.70829 0.666504 8.43083C0.666504 8.14446 0.666504 7.8581 0.666504 7.57174C0.675404 7.52078 0.685922 7.47063 0.693203 7.41966C0.739321 7.10418 0.765211 6.78385 0.833173 6.47322C1.21587 4.71218 2.12041 3.26986 3.5549 2.18347C5.33972 0.83094 7.34946 0.382793 9.54043 0.839838C11.2945 1.20547 12.7209 2.12442 13.8115 3.54247C14.9895 5.07296 15.4798 6.8162 15.2954 8.73498C15.1457 10.2897 14.5421 11.6617 13.5065 12.8338C12.3706 14.1184 10.9555 14.9184 9.26454 15.2194C8.98864 15.2687 8.7087 15.2962 8.43038 15.3334V15.3326Z" fill="#DE173E"/>
<path id="Vector_2" d="M6.77254 9.47031C6.81461 9.43067 6.85263 9.39589 6.88904 9.35949C8.22968 8.0199 9.56951 6.68032 10.9101 5.34073C11.203 5.0479 11.5412 4.98804 11.856 5.16924C12.2564 5.39978 12.3519 5.92316 12.0566 6.27828C12.0202 6.32196 11.9797 6.36322 11.9393 6.40366C10.4215 7.90989 8.90364 9.41611 7.38581 10.9223C7.0193 11.2855 6.63418 11.292 6.25068 10.9426C5.46345 10.2259 4.67703 9.50833 3.88899 8.79324C3.68592 8.6088 3.57265 8.38958 3.60582 8.10969C3.67216 7.558 4.30648 7.28297 4.74176 7.63162C5.04273 7.87268 5.31863 8.14529 5.60423 8.40576C5.96751 8.73661 6.32916 9.06989 6.69163 9.40155C6.7159 9.42339 6.74179 9.44443 6.77173 9.47031H6.77254Z" fill="#1D2023"/>
</g>
</g>
</svg>
