<?xml version="1.0" encoding="utf-8"?>
<!-- Generator: Adobe Illustrator 28.0.0, SVG Export Plug-In . SVG Version: 6.00 Build 0)  -->
<svg version="1.1" id="Layer_1" xmlns="http://www.w3.org/2000/svg" xmlns:xlink="http://www.w3.org/1999/xlink" x="0px" y="0px"
	 viewBox="0 0 40 40" style="enable-background:new 0 0 40 40;" xml:space="preserve">
<style type="text/css">
	.st0{fill:#FFFFFF;}
</style>
<path class="st0" d="M6,32.9l-0.5-0.1L5,32.3l0-0.4v-4.2c0-4,1.6-7.8,4.4-10.6c2.8-2.8,6.6-4.4,10.6-4.4h0.3V7.9l0.3-0.5l0.5-0.3
	l0.6,0.1l12.8,11.4h0l0.2,0.1l0.2,0.4l0,0.5l-0.2,0.4l-0.2,0.2L21.9,31.5l-0.6,0.1l-0.6-0.2l-0.3-0.5l0-0.3v-5.9h-1.5c0,0,0,0,0,0
	c-2.4,0-4.7,0.7-6.8,1.9c-2,1.3-3.7,3.1-4.8,5.2l-0.5,0.9l-0.5,0.3L6,32.9z M20,14.7c-3.5,0-6.7,1.4-9.2,3.8C8.4,21,7,24.2,7,27.7
	v0.7c1.1-1.4,2.5-2.7,4-3.6c2.4-1.5,5.1-2.2,7.8-2.2h3.5v5.8l10.2-9l-3.1-2.8h0l-7-6.3v4.4H20z"/>
</svg>
