<svg width="21" height="20" viewBox="0 0 21 20" fill="none" xmlns="http://www.w3.org/2000/svg">
<g id="Star">
<path id="Star_2" d="M15.9184 12.3201C15.6594 12.5711 15.5404 12.9341 15.5994 13.2901L16.4884 18.2101C16.5634 18.6271 16.3874 19.0491 16.0384 19.2901C15.6964 19.5401 15.2414 19.5701 14.8684 19.3701L10.4394 17.0601C10.2854 16.9781 10.1144 16.9341 9.93939 16.9291H9.66839C9.57439 16.9431 9.48239 16.9731 9.39839 17.0191L4.96839 19.3401C4.74939 19.4501 4.50139 19.4891 4.25839 19.4501C3.66639 19.3381 3.27139 18.7741 3.36839 18.1791L4.25839 13.2591C4.31739 12.9001 4.19839 12.5351 3.93939 12.2801L0.328388 8.7801C0.0263875 8.4871 -0.0786125 8.0471 0.0593875 7.6501C0.193388 7.2541 0.535388 6.9651 0.948388 6.9001L5.91839 6.1791C6.29639 6.1401 6.62839 5.9101 6.79839 5.5701L8.98839 1.0801C9.04039 0.980099 9.10739 0.888099 9.18839 0.810099L9.27839 0.740099C9.32539 0.688099 9.37939 0.645099 9.43939 0.610099L9.54839 0.570099L9.71839 0.500099H10.1394C10.5154 0.539099 10.8464 0.764099 11.0194 1.1001L13.2384 5.5701C13.3984 5.8971 13.7094 6.1241 14.0684 6.1791L19.0384 6.9001C19.4584 6.9601 19.8094 7.2501 19.9484 7.6501C20.0794 8.0511 19.9664 8.4911 19.6584 8.7801L15.9184 12.3201Z" fill="white"/>
</g>
</svg>
