<svg width="393" height="148" viewBox="0 0 393 148" fill="none" xmlns="http://www.w3.org/2000/svg">
<g clip-path="url(#clip0_865_65361)">
<g filter="url(#filter0_b_865_65361)">
<rect width="393" height="173" fill="black" fill-opacity="0.75"/>
</g>
<rect x="393" y="131.253" width="393" height="131.253" transform="rotate(180 393 131.253)" fill="url(#paint0_linear_865_65361)"/>
<mask id="mask0_865_65361" style="mask-type:alpha" maskUnits="userSpaceOnUse" x="0" y="0" width="393" height="214">
<rect x="393" y="214" width="393" height="214" transform="rotate(180 393 214)" fill="url(#paint1_linear_865_65361)"/>
</mask>
<g mask="url(#mask0_865_65361)">
<g filter="url(#filter1_f_865_65361)">
<path d="M159 65.1161C159 23.5737 222.576 -10.1031 301 -10.1031C379.424 -10.1031 443 23.5737 443 65.1161C443 106.658 379.424 65.116 301 65.116C222.576 65.116 159 106.658 159 65.1161Z" fill="#0790FF" fill-opacity="0.55"/>
</g>
<g filter="url(#filter2_f_865_65361)">
<ellipse cx="86" cy="25.2193" rx="145" ry="44.2337" transform="rotate(180 86 25.2193)" fill="url(#paint2_linear_865_65361)"/>
</g>
</g>
</g>
<defs>
<filter id="filter0_b_865_65361" x="-55" y="-55" width="503" height="283" filterUnits="userSpaceOnUse" color-interpolation-filters="sRGB">
<feFlood flood-opacity="0" result="BackgroundImageFix"/>
<feGaussianBlur in="BackgroundImageFix" stdDeviation="27.5"/>
<feComposite in2="SourceAlpha" operator="in" result="effect1_backgroundBlur_865_65361"/>
<feBlend mode="normal" in="SourceGraphic" in2="effect1_backgroundBlur_865_65361" result="shape"/>
</filter>
<filter id="filter1_f_865_65361" x="60" y="-109.103" width="482" height="291.682" filterUnits="userSpaceOnUse" color-interpolation-filters="sRGB">
<feFlood flood-opacity="0" result="BackgroundImageFix"/>
<feBlend mode="normal" in="SourceGraphic" in2="BackgroundImageFix" result="shape"/>
<feGaussianBlur stdDeviation="49.5" result="effect1_foregroundBlur_865_65361"/>
</filter>
<filter id="filter2_f_865_65361" x="-158" y="-118.014" width="488" height="286.467" filterUnits="userSpaceOnUse" color-interpolation-filters="sRGB">
<feFlood flood-opacity="0" result="BackgroundImageFix"/>
<feBlend mode="normal" in="SourceGraphic" in2="BackgroundImageFix" result="shape"/>
<feGaussianBlur stdDeviation="49.5" result="effect1_foregroundBlur_865_65361"/>
</filter>
<linearGradient id="paint0_linear_865_65361" x1="582.5" y1="154.216" x2="550.17" y2="270.744" gradientUnits="userSpaceOnUse">
<stop stop-opacity="0"/>
<stop offset="1" stop-color="#0B0808"/>
</linearGradient>
<linearGradient id="paint1_linear_865_65361" x1="440.306" y1="214" x2="573.694" y2="501.196" gradientUnits="userSpaceOnUse">
<stop stop-color="#0D0D0D"/>
<stop offset="1" stop-color="#262525"/>
</linearGradient>
<linearGradient id="paint2_linear_865_65361" x1="86" y1="-19.0144" x2="86" y2="69.453" gradientUnits="userSpaceOnUse">
<stop stop-color="#DE173E" stop-opacity="0.58"/>
<stop offset="1" stop-color="#DE173E" stop-opacity="0"/>
</linearGradient>
<clipPath id="clip0_865_65361">
<rect width="393" height="148" fill="white"/>
</clipPath>
</defs>
</svg>
