<svg width="34" height="35" viewBox="0 0 34 35" fill="none" xmlns="http://www.w3.org/2000/svg">
<g filter="url(#filter0_b_7775_257363)">
<g clip-path="url(#clip0_7775_257363)">
<path d="M16.2003 28.145C15.2503 28.055 14.5103 27.385 14.3503 26.465C14.1903 25.525 14.7403 24.595 15.6703 24.255C15.8803 24.165 16.1203 24.125 16.3803 24.125C17.0903 24.125 17.7603 24.495 18.1303 25.085C18.1603 25.135 18.1803 25.165 18.2003 25.195C18.2003 25.195 18.2303 25.185 18.2603 25.175C20.1103 24.835 21.5403 24.095 22.6903 22.905C23.1403 22.455 23.5503 21.905 23.9503 21.235C23.7503 21.235 23.5703 21.195 23.3803 21.145C22.3103 20.875 21.5303 19.975 21.4303 18.905C21.4203 18.775 21.4203 18.655 21.4203 18.525V16.345C21.4303 15.115 22.2603 14.105 23.4703 13.825C23.6703 13.795 23.8503 13.765 24.0303 13.765C24.1803 13.765 24.3303 13.775 24.4803 13.805C24.1203 12.765 23.5703 11.855 22.7903 11.055C21.3803 9.58498 19.6603 8.76498 17.6803 8.60498C17.4303 8.57498 17.2003 8.57498 16.9603 8.57498C12.9803 8.57498 10.3403 11.235 9.49027 13.795C9.64027 13.765 9.79027 13.755 9.95027 13.755C10.4903 13.755 10.9703 13.915 11.4403 14.235C12.1703 14.745 12.5503 15.455 12.5503 16.295V18.645C12.5503 19.985 11.6003 21.045 10.2403 21.235C10.1303 21.265 10.0203 21.265 9.91027 21.265C8.63027 21.265 7.46027 20.265 7.32027 19.045C7.28027 18.625 7.28027 18.205 7.28027 17.785V17.385C7.28027 16.805 7.28027 16.235 7.32027 15.655C7.47027 13.615 8.20027 11.825 9.48027 10.315C10.4203 9.22498 11.4903 8.38498 12.6703 7.82498C13.6803 7.32498 14.7703 7.02498 15.8803 6.92498C16.2903 6.88498 16.6103 6.85498 16.9403 6.85498C18.3603 6.85498 19.6903 7.12498 20.8903 7.67498C22.8503 8.55498 24.3703 9.90498 25.3903 11.675C27.3703 15.115 27.1603 19.745 24.8803 22.975C24.0903 24.095 23.0503 25.025 21.8503 25.695C21.1803 26.075 20.4703 26.375 19.7303 26.595C19.3703 26.705 19.0003 26.775 18.6203 26.845L18.2903 26.895C17.9403 27.655 17.2103 28.135 16.3803 28.135H16.1903L16.2003 28.145ZM9.88027 15.485C9.79027 15.485 9.71027 15.485 9.65027 15.505C9.24027 15.605 8.99027 15.935 8.99027 16.385V18.185C8.99027 18.365 8.99027 18.545 9.00027 18.725C9.04027 19.095 9.23027 19.335 9.61027 19.475C9.69027 19.505 9.78027 19.525 9.89027 19.525C10.3503 19.525 10.7403 19.165 10.7603 18.715V16.835C10.7603 16.675 10.7603 16.505 10.7603 16.345C10.7603 16.325 10.7403 16.305 10.7403 16.285C10.7203 15.835 10.3303 15.485 9.87027 15.485H9.88027ZM23.1203 18.635C23.1303 19.115 23.5203 19.495 23.9903 19.495C24.4903 19.495 24.8903 19.125 24.8903 18.655V16.295C24.8903 15.945 24.6503 15.625 24.3003 15.505C24.2203 15.475 24.1203 15.455 24.0103 15.455C23.5403 15.455 23.1403 15.835 23.1203 16.275V18.635Z" fill="white"/>
</g>
</g>
<defs>
<filter id="filter0_b_7775_257363" x="-22" y="-21.5" width="78" height="78" filterUnits="userSpaceOnUse" color-interpolation-filters="sRGB">
<feFlood flood-opacity="0" result="BackgroundImageFix"/>
<feGaussianBlur in="BackgroundImageFix" stdDeviation="11"/>
<feComposite in2="SourceAlpha" operator="in" result="effect1_backgroundBlur_7775_257363"/>
<feBlend mode="normal" in="SourceGraphic" in2="effect1_backgroundBlur_7775_257363" result="shape"/>
</filter>
<clipPath id="clip0_7775_257363">
<rect width="19.5" height="21.29" fill="white" transform="translate(7.25 6.85498)"/>
</clipPath>
</defs>
</svg>
