<svg width="20" height="20" viewBox="0 0 20 20" fill="none" xmlns="http://www.w3.org/2000/svg">
<g id="Frame 48098157">
<path id="Chevron" d="M14 10.0016C14 10.1198 13.9818 10.2263 13.9453 10.3209C13.9052 10.4155 13.8432 10.5062 13.7594 10.593L8.22021 16.3827C8.08533 16.5286 7.91947 16.6016 7.72262 16.6016C7.59138 16.6016 7.47291 16.5661 7.36719 16.4951C7.25783 16.4281 7.17216 16.3374 7.11019 16.2231C7.04457 16.1087 7.01176 15.9806 7.01176 15.8387C7.01176 15.6297 7.08285 15.4464 7.22502 15.2887L12.2994 10.0016L7.22502 4.72038C7.08285 4.56267 7.01176 4.37934 7.01176 4.17038C7.01176 4.0245 7.04457 3.89439 7.11019 3.78006C7.17216 3.66178 7.25783 3.56912 7.36719 3.5021C7.47291 3.43507 7.59138 3.40156 7.72262 3.40156C7.91947 3.40156 8.08534 3.4745 8.22022 3.62038L13.7594 9.41016C13.8432 9.4969 13.9052 9.58758 13.9453 9.68221C13.9818 9.78077 14 9.88723 14 10.0016Z" fill="white" fill-opacity="0.22"/>
</g>
</svg>
