<svg width="54" height="54" viewBox="0 0 54 54" fill="none" xmlns="http://www.w3.org/2000/svg">
<path fill-rule="evenodd" clip-rule="evenodd" d="M27 8.99988C17.0589 8.99988 9 17.0587 9 26.9998C9 36.941 17.0589 44.9998 27 44.9998C36.9412 44.9998 45 36.941 45 26.9998C45 17.0587 36.9412 8.99988 27 8.99988ZM4.5 26.9998C4.5 14.5735 14.5736 4.49988 27 4.49988C39.4263 4.49988 49.5 14.5735 49.5 26.9998C49.5 39.4263 39.4263 49.4998 27 49.4998C14.5736 49.4998 4.5 39.4263 4.5 26.9998Z" fill="#DE173E"/>
<path fill-rule="evenodd" clip-rule="evenodd" d="M23.625 36C23.625 34.1361 25.1361 32.625 27 32.625H27.0225C28.8864 32.625 30.3975 34.1361 30.3975 36V36.0225C30.3975 37.8864 28.8864 39.3975 27.0225 39.3975H27C25.1361 39.3975 23.625 37.8864 23.625 36.0225V36Z" fill="#DE173E"/>
<path fill-rule="evenodd" clip-rule="evenodd" d="M27 29.25C25.7573 29.25 24.75 28.2427 24.75 27V18C24.75 16.7574 25.7573 15.75 27 15.75C28.2427 15.75 29.25 16.7574 29.25 18V27C29.25 28.2427 28.2427 29.25 27 29.25Z" fill="#DE173E"/>
</svg>
