<svg width="22" height="22" viewBox="0 0 22 22" fill="none" xmlns="http://www.w3.org/2000/svg">
<g id="Frame">
<g clip-path="url(#clip0_3974_36847)">
<path id="Vector" d="M11.0329 0.00313078C4.95603 0.00313078 0.00626157 4.92159 0 10.9703C0 13.9226 1.13647 16.6933 3.20905 18.7722C5.28163 20.8541 8.04298 22 10.9859 22H10.9922C13.9382 22 16.7059 20.8573 18.7816 18.7816C20.8573 16.7059 22 13.9414 22 10.9953C22 4.94037 17.0878 0.00939235 11.0329 0V0.00313078ZM11.0047 6.32105H11.0798C12.9082 6.36488 14.364 7.88644 14.3233 9.71482C14.2826 11.5432 12.8268 12.974 11.0078 12.974H10.9546C10.0592 12.9583 9.22642 12.5983 8.60966 11.9565C7.98976 11.3115 7.6579 10.4568 7.67981 9.55202C7.72051 7.7706 9.21389 6.32105 11.0078 6.32105H11.0047ZM17.2162 18.3746C17.1849 18.4904 16.9031 18.6876 16.5775 18.9193C14.9244 20.0808 12.9896 20.6976 10.9797 20.6976C8.86011 20.6976 6.84076 20.0214 5.14388 18.7409C4.80262 18.4841 4.75566 18.3276 4.90907 17.9488C5.77629 15.7854 7.86765 14.3484 10.2377 14.2858C10.3284 14.2858 10.4192 14.2858 10.5069 14.2858H10.9577C11.0767 14.2858 11.1957 14.2826 11.3115 14.2826C13.9414 14.2826 15.7729 15.3659 16.9094 17.595C17.069 17.9049 17.2475 18.2587 17.2162 18.3808V18.3746Z" fill="white"/>
</g>
</g>
<defs>
<clipPath id="clip0_3974_36847">
<rect width="22" height="22" rx="11" fill="white"/>
</clipPath>
</defs>
</svg>
