<svg width="26" height="26" viewBox="0 0 26 26" fill="none" xmlns="http://www.w3.org/2000/svg">
<g clip-path="url(#clip0_6844_92004)">
<path fill-rule="evenodd" clip-rule="evenodd" d="M12.8581 20.1197C11.5662 20.1197 9.84803 19.9723 7.75067 19.6813C6.83939 19.5548 6.00894 19.098 5.41312 18.3946C4.82424 17.699 4.5 16.8094 4.5 15.8898C4.5 15.1831 4.69029 14.4899 5.05102 13.8857C5.14708 13.725 5.24038 13.5735 5.32306 13.44C5.51889 13.1227 5.70364 12.8234 5.86345 12.5038C6.1027 12.0244 6.21401 11.6272 6.21401 11.2535V9.19173C6.21355 5.52722 9.19402 2.54675 12.8581 2.54675C16.5221 2.54675 19.5026 5.52722 19.5026 9.19126V11.2531C19.5026 11.6267 19.6139 12.0244 19.8531 12.5034C20.0125 12.8225 20.1968 13.1209 20.3917 13.4373C20.4711 13.5661 20.5686 13.7236 20.6651 13.8857C21.0254 14.4899 21.2161 15.1831 21.2161 15.8898C21.2161 16.8099 20.8919 17.6994 20.303 18.3946C19.7072 19.098 18.8772 19.5552 17.9655 19.6813C15.8686 19.9723 14.1499 20.1197 12.8581 20.1197ZM12.8581 3.84C9.90762 3.84 7.50726 6.24036 7.50726 9.19126V11.2531C7.50726 11.8346 7.35253 12.4156 7.02044 13.0812C6.83292 13.4567 6.59598 13.8409 6.38675 14.1795L6.37752 14.1943C6.30084 14.319 6.22787 14.4368 6.16182 14.5481C5.92072 14.9522 5.79325 15.4159 5.79325 15.8898C5.79325 16.5055 6.00848 17.0981 6.39969 17.5581C6.79135 18.0191 7.33406 18.3179 7.92849 18.4006C9.32981 18.595 11.3228 18.8264 12.8581 18.8264C14.3933 18.8264 16.3863 18.5945 17.7876 18.4006C18.3821 18.3183 18.9248 18.0191 19.3164 17.5581C19.7076 17.0981 19.9229 16.5055 19.9229 15.8898C19.9229 15.4159 19.7954 14.9522 19.5543 14.5481C19.4892 14.4391 19.4176 14.3227 19.3423 14.2007L19.3294 14.18C19.1201 13.8414 18.8832 13.4571 18.6957 13.0816C18.3636 12.4161 18.2089 11.8355 18.2089 11.2535V9.19173C18.2089 6.24128 15.8085 3.84046 12.8576 3.84046L12.8581 3.84Z" fill="white"/>
<path fill-rule="evenodd" clip-rule="evenodd" d="M12.8574 23.5468C11.7776 23.5468 10.7753 23.0091 10.1772 22.1089C9.97997 21.812 10.0608 21.4101 10.3578 21.2124C10.4645 21.1418 10.5878 21.1044 10.7153 21.1044C10.9328 21.1044 11.1342 21.2124 11.2543 21.393C11.6127 21.932 12.2122 22.2535 12.8579 22.2535C13.5036 22.2535 14.1031 21.932 14.4615 21.393C14.5816 21.2124 14.7835 21.1044 15.0005 21.1044C15.128 21.1044 15.2513 21.1418 15.358 21.2124C15.655 21.4101 15.7358 21.812 15.5386 22.1089C14.94 23.0091 13.9378 23.5468 12.8579 23.5468H12.8574Z" fill="white"/>
</g>
<defs>
<clipPath id="clip0_6844_92004">
<rect width="16.7157" height="21" fill="white" transform="translate(4.5 2.54675)"/>
</clipPath>
</defs>
</svg>
