<svg width="27" height="26" viewBox="0 0 27 26" fill="none" xmlns="http://www.w3.org/2000/svg">
<g id="fi_9307921">
<g id="Group">
<path id="Vector" d="M9.32031 6.23047C8.87615 6.23047 8.50781 5.86214 8.50781 5.41797V2.16797C8.50781 1.7238 8.87615 1.35547 9.32031 1.35547C9.76448 1.35547 10.1328 1.7238 10.1328 2.16797V5.41797C10.1328 5.86214 9.76448 6.23047 9.32031 6.23047Z" fill="#969696"/>
<path id="Vector_2" d="M17.9844 6.23047C17.5402 6.23047 17.1719 5.86214 17.1719 5.41797V2.16797C17.1719 1.7238 17.5402 1.35547 17.9844 1.35547C18.4285 1.35547 18.7969 1.7238 18.7969 2.16797V5.41797C18.7969 5.86214 18.4285 6.23047 17.9844 6.23047Z" fill="#969696"/>
<path id="Vector_3" d="M9.86068 15.7114C9.71984 15.7114 9.57901 15.6789 9.44901 15.6248C9.30818 15.5706 9.19984 15.4948 9.09151 15.3973C8.89651 15.1914 8.77734 14.9206 8.77734 14.6281C8.77734 14.4873 8.80984 14.3464 8.86401 14.2164C8.91818 14.0864 8.99401 13.9673 9.09151 13.8589C9.19984 13.7614 9.30818 13.6856 9.44901 13.6314C9.83901 13.4689 10.3265 13.5556 10.6298 13.8589C10.8248 14.0648 10.944 14.3464 10.944 14.6281C10.944 14.6931 10.9332 14.7689 10.9223 14.8448C10.9115 14.9098 10.8898 14.9748 10.8573 15.0398C10.8357 15.1048 10.8032 15.1698 10.7598 15.2348C10.7273 15.2889 10.6732 15.3431 10.6298 15.3973C10.424 15.5923 10.1423 15.7114 9.86068 15.7114Z" fill="#969696"/>
<path id="Vector_4" d="M13.6536 15.7084C13.5128 15.7084 13.372 15.6759 13.242 15.6218C13.1011 15.5676 12.9928 15.4918 12.8845 15.3943C12.6895 15.1884 12.5703 14.9176 12.5703 14.6251C12.5703 14.4843 12.6028 14.3434 12.657 14.2134C12.7111 14.0834 12.787 13.9643 12.8845 13.8559C12.9928 13.7584 13.1011 13.6826 13.242 13.6284C13.632 13.4551 14.1195 13.5526 14.4228 13.8559C14.6178 14.0618 14.737 14.3434 14.737 14.6251C14.737 14.6901 14.7261 14.7659 14.7153 14.8418C14.7045 14.9068 14.6828 14.9718 14.6503 15.0368C14.6286 15.1018 14.5961 15.1668 14.5528 15.2318C14.5203 15.2859 14.4661 15.3401 14.4228 15.3943C14.217 15.5893 13.9353 15.7084 13.6536 15.7084Z" fill="#969696"/>
<path id="Vector_5" d="M17.4427 15.7084C17.3019 15.7084 17.161 15.6759 17.031 15.6218C16.8902 15.5676 16.7819 15.4918 16.6735 15.3943C16.6302 15.3401 16.5869 15.2859 16.5435 15.2318C16.5002 15.1668 16.4677 15.1018 16.446 15.0368C16.4135 14.9718 16.3919 14.9068 16.381 14.8418C16.3702 14.7659 16.3594 14.6901 16.3594 14.6251C16.3594 14.3434 16.4785 14.0618 16.6735 13.8559C16.7819 13.7584 16.8902 13.6826 17.031 13.6284C17.4319 13.4551 17.9085 13.5526 18.2119 13.8559C18.4069 14.0618 18.526 14.3434 18.526 14.6251C18.526 14.6901 18.5152 14.7659 18.5044 14.8418C18.4935 14.9068 18.4719 14.9718 18.4394 15.0368C18.4177 15.1018 18.3852 15.1668 18.3419 15.2318C18.3094 15.2859 18.2552 15.3401 18.2119 15.3943C18.006 15.5893 17.7244 15.7084 17.4427 15.7084Z" fill="#969696"/>
<path id="Vector_6" d="M9.86068 19.5007C9.71984 19.5007 9.57901 19.4683 9.44901 19.4141C9.31901 19.3599 9.19984 19.284 9.09151 19.1865C8.89651 18.9807 8.77734 18.699 8.77734 18.4173C8.77734 18.2765 8.80984 18.1357 8.86401 18.0057C8.91818 17.8648 8.99401 17.7458 9.09151 17.6483C9.49234 17.2474 10.229 17.2474 10.6298 17.6483C10.8248 17.8541 10.944 18.1357 10.944 18.4173C10.944 18.699 10.8248 18.9807 10.6298 19.1865C10.424 19.3815 10.1423 19.5007 9.86068 19.5007Z" fill="#969696"/>
<path id="Vector_7" d="M13.6536 19.5007C13.372 19.5007 13.0903 19.3815 12.8845 19.1865C12.6895 18.9807 12.5703 18.699 12.5703 18.4173C12.5703 18.2765 12.6028 18.1357 12.657 18.0057C12.7111 17.8648 12.787 17.7458 12.8845 17.6483C13.2853 17.2474 14.022 17.2474 14.4228 17.6483C14.5203 17.7458 14.5961 17.8648 14.6503 18.0057C14.7045 18.1357 14.737 18.2765 14.737 18.4173C14.737 18.699 14.6178 18.9807 14.4228 19.1865C14.217 19.3815 13.9353 19.5007 13.6536 19.5007Z" fill="#969696"/>
<path id="Vector_8" d="M17.4427 19.4997C17.161 19.4997 16.8794 19.3805 16.6735 19.1855C16.576 19.088 16.5002 18.9688 16.446 18.828C16.3919 18.698 16.3594 18.5572 16.3594 18.4163C16.3594 18.2755 16.3919 18.1347 16.446 18.0047C16.5002 17.8638 16.576 17.7447 16.6735 17.6472C16.9227 17.398 17.3019 17.2788 17.6485 17.3547C17.7244 17.3655 17.7894 17.3872 17.8544 17.4197C17.9194 17.4413 17.9844 17.4738 18.0494 17.5172C18.1035 17.5497 18.1577 17.6038 18.2119 17.6472C18.4069 17.853 18.526 18.1347 18.526 18.4163C18.526 18.698 18.4069 18.9797 18.2119 19.1855C18.006 19.3805 17.7244 19.4997 17.4427 19.4997Z" fill="#969696"/>
<path id="Vector_9" d="M22.862 10.6602H4.44531C4.00115 10.6602 3.63281 10.2918 3.63281 9.84766C3.63281 9.40349 4.00115 9.03516 4.44531 9.03516H22.862C23.3061 9.03516 23.6745 9.40349 23.6745 9.84766C23.6745 10.2918 23.3061 10.6602 22.862 10.6602Z" fill="#969696"/>
<path id="Vector_10" d="M17.9857 24.6471H9.31901C5.36484 24.6471 3.08984 22.3721 3.08984 18.418V9.20964C3.08984 5.25547 5.36484 2.98047 9.31901 2.98047H17.9857C21.9398 2.98047 24.2148 5.25547 24.2148 9.20964V18.418C24.2148 22.3721 21.9398 24.6471 17.9857 24.6471ZM9.31901 4.60547C6.22068 4.60547 4.71484 6.1113 4.71484 9.20964V18.418C4.71484 21.5163 6.22068 23.0221 9.31901 23.0221H17.9857C21.084 23.0221 22.5898 21.5163 22.5898 18.418V9.20964C22.5898 6.1113 21.084 4.60547 17.9857 4.60547H9.31901Z" fill="#969696"/>
</g>
</g>
</svg>
