<svg width="51" height="50" viewBox="0 0 51 50" fill="none" xmlns="http://www.w3.org/2000/svg">
<g id="fi_10401230">
<g id="Group">
<path id="Vector" fill-rule="evenodd" clip-rule="evenodd" d="M19.644 8.95152L19.0421 11.3645C18.8857 11.986 18.3271 12.4216 17.6876 12.4216C17.6862 12.4216 12.0153 12.4216 12.0153 12.4216C8.53261 12.4216 5.58058 14.9897 5.10021 18.4388C5.09881 18.4444 5.09881 18.45 5.09741 18.4556C4.30285 24.6864 4.30284 30.9047 5.11695 37.1132C5.11835 37.1174 5.11836 37.1216 5.11836 37.1244C5.60013 40.5638 8.541 43.1234 12.0139 43.1234C18.9723 43.143 31.9283 43.143 38.8909 43.143C42.3749 43.143 45.3256 40.5764 45.8074 37.1258C45.8074 37.1202 45.8088 37.1146 45.8088 37.109C46.6019 30.8894 46.6034 24.6711 45.7878 18.4528C45.7878 18.4486 45.7878 18.4458 45.7864 18.4416C45.3075 15.0022 42.3652 12.4426 38.8937 12.4412C37.8938 12.4216 36.8731 12.4216 36.0129 12.4216C35.3719 12.4216 34.8133 11.986 34.6569 11.3645L34.0551 8.95152C33.7437 7.7087 32.6265 6.83594 31.3446 6.83594C29.2081 6.83594 24.491 6.83594 22.3544 6.83594C21.0725 6.83594 19.9554 7.7087 19.644 8.95152ZM26.8495 16.6109C20.6843 16.6109 15.6781 21.6171 15.6781 27.7823C15.6781 33.9475 20.6843 38.9537 26.8495 38.9537C33.0147 38.9537 38.0209 33.9475 38.0209 27.7823C38.0209 21.6171 33.0147 16.6109 26.8495 16.6109ZM26.8495 19.4038C31.4731 19.4038 35.2281 23.1587 35.2281 27.7823C35.2281 32.4059 31.4731 36.1609 26.8495 36.1609C22.226 36.1609 18.471 32.4059 18.471 27.7823C18.471 23.1587 22.226 19.4038 26.8495 19.4038ZM26.8495 30.5752C25.3079 30.5752 24.0567 29.324 24.0567 27.7823C24.0567 27.0115 23.4311 26.3859 22.6602 26.3859C21.8894 26.3859 21.2638 27.0115 21.2638 27.7823C21.2638 30.8656 23.7662 33.368 26.8495 33.368C27.6203 33.368 28.2459 32.7424 28.2459 31.9716C28.2459 31.2008 27.6203 30.5752 26.8495 30.5752ZM12.8853 20.8002H14.2817C15.0525 20.8002 15.6781 20.1746 15.6781 19.4038C15.6781 18.6329 15.0525 18.0073 14.2817 18.0073H12.8853C12.1144 18.0073 11.4888 18.6329 11.4888 19.4038C11.4888 20.1746 12.1144 20.8002 12.8853 20.8002Z" fill="white"/>
</g>
</g>
</svg>
