<svg width="25" height="25" viewBox="0 0 25 25" fill="none" xmlns="http://www.w3.org/2000/svg">
<g id="Iconly/Bulk/Wallet">
<g id="Wallet">
<path id="Fill 1" fill-rule="evenodd" clip-rule="evenodd" d="M23.2109 8.43765H18.6738C16.5623 8.44137 14.8518 10.1091 14.848 12.1678C14.8452 14.2311 16.5576 15.9062 18.6738 15.909H23.2147V16.2368C23.2147 19.836 21.0328 21.9643 17.3404 21.9643H7.66137C3.96804 21.9643 1.78613 19.836 1.78613 16.2368V8.39772C1.78613 4.79854 3.96804 2.67859 7.66137 2.67859H17.3366C21.029 2.67859 23.2109 4.79854 23.2109 8.39772V8.43765ZM6.86397 8.42924H12.9068H12.9106H12.9183C13.3706 8.42738 13.7363 8.06802 13.7344 7.62601C13.7325 7.18494 13.363 6.82836 12.9106 6.83022H6.86397C6.41444 6.83208 6.04968 7.18772 6.04778 7.62694C6.04587 8.06802 6.41159 8.42738 6.86397 8.42924Z" fill="#DE173E"/>
<path id="Subtract" fill-rule="evenodd" clip-rule="evenodd" d="M18.9639 14.3566C17.9438 14.3753 17.0503 13.6583 16.8262 12.6391C16.7998 12.503 16.7861 12.3641 16.7861 12.2252C16.7843 11.0382 17.7215 10.075 18.8819 10.0713H22.446C22.8704 10.0722 23.2138 10.4247 23.2147 10.8582V13.5706C23.2147 14.0051 22.8704 14.3566 22.446 14.3566H18.9639ZM18.9292 13.2856C19.5209 13.2856 20.0006 12.8059 20.0006 12.2142C20.0006 11.6225 19.5209 11.1428 18.9292 11.1428C18.3374 11.1428 17.8577 11.6225 17.8577 12.2142C17.8577 12.8059 18.3374 13.2856 18.9292 13.2856Z" fill="#DE173E"/>
</g>
</g>
</svg>
