<svg xmlns="http://www.w3.org/2000/svg" width="43" height="44" viewBox="0 0 43 44" fill="none">
  <rect opacity="0.06" y="0.5" width="43" height="43" rx="8.6" fill="white"/>
  <path d="M22.7538 27.1026H20.4978C18.9018 27.1026 17.5938 25.7586 17.5938 24.1026C17.5938 23.6106 18.0017 23.2026 18.4937 23.2026C18.9857 23.2026 19.3938 23.6106 19.3938 24.1026C19.3938 24.7626 19.8858 25.3026 20.4978 25.3026H22.7538C23.2218 25.3026 23.5938 24.8826 23.5938 24.3666C23.5938 23.7186 23.4138 23.6226 23.0058 23.4786L19.3938 22.2186C18.6257 21.9546 17.5938 21.3906 17.5938 19.6266C17.5938 18.1266 18.7818 16.8906 20.2338 16.8906H22.4898C24.0858 16.8906 25.3938 18.2346 25.3938 19.8906C25.3938 20.3826 24.9858 20.7906 24.4938 20.7906C24.0018 20.7906 23.5938 20.3826 23.5938 19.8906C23.5938 19.2306 23.1018 18.6906 22.4898 18.6906H20.2338C19.7658 18.6906 19.3938 19.1106 19.3938 19.6266C19.3938 20.2746 19.5738 20.3706 19.9818 20.5146L23.5938 21.7746C24.3618 22.0386 25.3938 22.6026 25.3938 24.3666C25.3938 25.8786 24.2058 27.1026 22.7538 27.1026Z" fill="white"/>
  <path d="M21.4898 28.3031C20.9978 28.3031 20.5898 27.8951 20.5898 27.4031V16.6031C20.5898 16.1111 20.9978 15.7031 21.4898 15.7031C21.9818 15.7031 22.3898 16.1111 22.3898 16.6031V27.4031C22.3898 27.8951 21.9818 28.3031 21.4898 28.3031Z" fill="white"/>
  <path d="M21.4938 34.9016C14.3777 34.9016 8.59375 29.1176 8.59375 22.0016C8.59375 14.8856 14.3777 9.10156 21.4938 9.10156C21.9858 9.10156 22.3938 9.50956 22.3938 10.0016C22.3938 10.4936 21.9858 10.9016 21.4938 10.9016C15.3737 10.9016 10.3937 15.8816 10.3937 22.0016C10.3937 28.1216 15.3737 33.1016 21.4938 33.1016C27.6138 33.1016 32.5938 28.1216 32.5938 22.0016C32.5938 21.5096 33.0018 21.1016 33.4938 21.1016C33.9858 21.1016 34.3938 21.5096 34.3938 22.0016C34.3938 29.1176 28.6098 34.9016 21.4938 34.9016Z" fill="white"/>
  <path d="M32.2898 16.8969H27.4898C26.9978 16.8969 26.5898 16.4889 26.5898 15.9969V11.1969C26.5898 10.7049 26.9978 10.2969 27.4898 10.2969C27.9818 10.2969 28.3898 10.7049 28.3898 11.1969V15.0969H32.2898C32.7818 15.0969 33.1898 15.5049 33.1898 15.9969C33.1898 16.4889 32.7818 16.8969 32.2898 16.8969Z" fill="white"/>
  <path d="M27.4868 16.8986C27.2588 16.8986 27.0308 16.8146 26.8508 16.6346C26.5028 16.2866 26.5028 15.7106 26.8508 15.3626L32.8508 9.36256C33.1988 9.01456 33.7748 9.01456 34.1228 9.36256C34.4708 9.71056 34.4708 10.2866 34.1228 10.6346L28.1228 16.6346C27.9428 16.8146 27.7148 16.8986 27.4868 16.8986Z" fill="white"/>
</svg>
