<svg width="25" height="25" viewBox="0 0 25 25" fill="none" xmlns="http://www.w3.org/2000/svg">
<g clip-path="url(#clip0_13072_185384)">
<path fill-rule="evenodd" clip-rule="evenodd" d="M12.9997 24C6.93427 24 2 19.0652 2 12.9997C2 6.93427 6.93427 2 12.9997 2C19.0652 2 23.9995 6.93427 23.9995 12.9997C23.9995 19.0652 19.0647 23.9995 12.9997 23.9995V24ZM12.9997 3.40262C7.70775 3.40262 3.40262 7.70775 3.40262 12.9997C3.40262 18.2917 7.70775 22.5969 12.9997 22.5969C18.2917 22.5969 22.5969 18.2917 22.5969 12.9997C22.5969 7.70775 18.2917 3.40262 12.9997 3.40262Z" fill="white"/>
<path fill-rule="evenodd" clip-rule="evenodd" d="M12.9997 15.4174C12.6132 15.4174 12.2983 15.1026 12.2983 14.7161C12.2983 13.827 12.7476 13.0959 13.1388 12.5578C13.3145 12.3162 13.5111 12.073 13.6847 11.858C13.7208 11.8136 13.7559 11.7707 13.7893 11.7283C14.0137 11.4496 14.1926 11.2179 14.3353 10.9962C14.4995 10.741 14.5864 10.4444 14.5864 10.139C14.5864 9.26356 13.8741 8.55179 12.9991 8.55179C12.1242 8.55179 11.4119 9.26408 11.4119 10.139C11.4119 10.5255 11.0971 10.8403 10.7106 10.8403C10.3241 10.8403 10.0093 10.5255 10.0093 10.139C10.0093 8.4906 11.3507 7.14917 12.9991 7.14917C14.6475 7.14917 15.989 8.4906 15.989 10.139C15.989 10.7143 15.8248 11.2734 15.5146 11.755C15.319 12.0594 15.0853 12.3549 14.8818 12.608L14.7673 12.7502C14.59 12.9699 14.4248 13.1744 14.2726 13.383C13.8767 13.9269 13.7004 14.3385 13.7004 14.7161C13.7004 15.0937 13.3856 15.4174 12.9991 15.4174H12.9997Z" fill="white"/>
<path d="M12.9998 19.1369C12.4554 19.1369 12.0125 18.6939 12.0125 18.1495C12.0125 17.6051 12.4554 17.1621 12.9998 17.1621C13.5442 17.1621 13.9872 17.6051 13.9872 18.1495C13.9872 18.6939 13.5442 19.1369 12.9998 19.1369Z" fill="white"/>
</g>
<defs>
<clipPath id="clip0_13072_185384">
<rect width="22" height="22" fill="white" transform="translate(2 2)"/>
</clipPath>
</defs>
</svg>
