<svg width="51" height="50" viewBox="0 0 51 50" fill="none" xmlns="http://www.w3.org/2000/svg">
<g id="fi_3342176">
<g id="Group 48098121">
<g id="Group">
<g id="Group_2">
<path id="Vector" d="M15.6143 36.3871C12.8095 36.3871 10.3148 34.5914 9.40911 31.918L9.3478 31.7165C9.13407 31.0087 9.04472 30.4131 9.04472 29.8175V17.873L4.79462 32.0599C4.24803 34.1464 5.49363 36.31 7.58364 36.8864L34.6732 44.1409C35.0113 44.2285 35.3494 44.2706 35.6823 44.2706C37.4272 44.2706 39.0214 43.1126 39.4681 41.4062L41.0466 36.3871H15.6143Z" fill="white"/>
</g>
<path id="Vector_2" d="M20.4325 17.992C22.3648 17.992 23.9363 16.4205 23.9363 14.4882C23.9363 12.5558 22.3648 10.9844 20.4325 10.9844C18.5002 10.9844 16.9287 12.5558 16.9287 14.4882C16.9287 16.4205 18.5002 17.992 20.4325 17.992Z" fill="white"/>
</g>
<path id="Vector_3" d="M42.4261 5.72852H15.8636C13.4234 5.72852 11.4365 7.70078 11.4365 10.123V29.459C11.4365 31.8813 13.4234 33.8535 15.8636 33.8535H42.4261C44.8663 33.8535 46.8532 31.8813 46.8532 29.459V10.123C46.8532 7.70078 44.8663 5.72852 42.4261 5.72852ZM15.8636 9.24414H42.4261C42.9149 9.24414 43.3115 9.63789 43.3115 10.123V22.6018L37.7175 16.1225C37.1242 15.4316 36.2654 15.0625 35.3428 15.0414C34.4255 15.0467 33.5649 15.451 32.9769 16.1506L26.4001 23.9869L24.2574 21.8652C23.0461 20.6629 21.0752 20.6629 19.8657 21.8652L14.9782 26.715V10.123C14.9782 9.63789 15.3749 9.24414 15.8636 9.24414Z" fill="white"/>
</g>
</g>
</svg>
