<svg width="21" height="22" viewBox="0 0 21 22" fill="none" xmlns="http://www.w3.org/2000/svg">
<g id="diamond">
<path id="Vector" d="M10.0591 17.106C10.0594 16.0681 10.3395 15.0494 10.8698 14.1571C11.4001 13.2649 12.1611 12.532 13.0727 12.0357C13.9843 11.5394 15.0129 11.298 16.0501 11.3368C17.0873 11.3756 18.0949 11.6933 18.9669 12.2563C18.973 11.8285 18.9763 11.372 18.9763 10.8794C18.9763 8.34671 18.8902 6.76596 18.72 5.12862H18.7442C18.6501 4.21624 18.3016 3.34862 17.7386 2.62457C17.1755 1.90052 16.4204 1.34913 15.5593 1.0332C15.5138 1.01598 15.4683 0.999571 15.4223 0.983985C15.082 0.869597 14.7302 0.792984 14.3731 0.755528L14.3391 0.751836C12.977 0.611973 12.7584 0.5 9.88602 0.5C7.0137 0.5 6.54899 0.611973 5.18809 0.753887L5.15405 0.757578C4.77924 0.796939 4.41025 0.87952 4.05442 1.00367V0.985215C3.16718 1.28688 2.38504 1.8366 1.80071 2.56923C1.21638 3.30186 0.854367 4.18667 0.757578 5.11877C0.586953 6.7594 0.5 8.34179 0.5 10.8794C0.5 13.4171 0.586953 14.9994 0.757578 16.6401C0.874089 17.7596 1.3721 18.805 2.16805 19.6009C2.96401 20.3968 4.00947 20.8947 5.12903 21.0111L5.16307 21.0148C6.5252 21.1567 6.7434 21.2687 9.61573 21.2687C10.5673 21.2687 11.2564 21.2564 11.7974 21.2347C11.2464 20.6976 10.8087 20.0555 10.5102 19.3463C10.2116 18.6372 10.0582 17.8754 10.0591 17.106ZM5.26028 5.96124H14.2144C14.4735 5.96124 14.722 6.06417 14.9052 6.24739C15.0885 6.43061 15.1914 6.67911 15.1914 6.93823C15.1914 7.19734 15.0885 7.44585 14.9052 7.62907C14.722 7.81229 14.4735 7.91522 14.2144 7.91522H5.26233C5.00321 7.91522 4.75471 7.81229 4.57149 7.62907C4.38827 7.44585 4.28534 7.19734 4.28534 6.93823C4.28534 6.67911 4.38827 6.43061 4.57149 6.24739C4.75471 6.06417 5.00321 5.96124 5.26233 5.96124H5.26028ZM5.26028 12.096C5.00458 12.0907 4.76111 11.9855 4.58213 11.8028C4.40314 11.6201 4.3029 11.3745 4.3029 11.1188C4.3029 10.863 4.40314 10.6174 4.58213 10.4347C4.76111 10.252 5.00458 10.1468 5.26028 10.1416H10.3671C10.4971 10.1389 10.6264 10.1622 10.7473 10.2101C10.8682 10.258 10.9783 10.3296 11.0712 10.4206C11.1641 10.5116 11.2379 10.6202 11.2882 10.7401C11.3386 10.86 11.3646 10.9887 11.3646 11.1188C11.3646 11.2488 11.3386 11.3775 11.2882 11.4974C11.2379 11.6173 11.1641 11.7259 11.0712 11.8169C10.9783 11.9079 10.8682 11.9795 10.7473 12.0274C10.6264 12.0753 10.4971 12.0986 10.3671 12.096H5.26028Z" fill="#F5BF54"/>
<path id="Vector_2" d="M15.8335 12.7119C14.9644 12.7119 14.1149 12.9696 13.3923 13.4524C12.6697 13.9353 12.1065 14.6215 11.7739 15.4244C11.4414 16.2273 11.3543 17.1108 11.5239 17.9632C11.6934 18.8155 12.1119 19.5984 12.7264 20.213C13.3409 20.8275 14.1239 21.246 14.9762 21.4155C15.8286 21.585 16.7121 21.498 17.515 21.1655C18.3179 20.8329 19.0041 20.2697 19.4869 19.5471C19.9698 18.8245 20.2275 17.975 20.2275 17.1059C20.2275 15.9406 19.7645 14.8229 18.9405 13.9989C18.1165 13.1749 16.9988 12.7119 15.8335 12.7119ZM17.575 17.749H15.7461C15.6074 17.749 15.4744 17.694 15.3763 17.5959C15.2782 17.4978 15.2231 17.3648 15.2231 17.2261V14.4165C15.2231 14.2778 15.2782 14.1448 15.3763 14.0467C15.4744 13.9487 15.6074 13.8936 15.7461 13.8936C15.8848 13.8936 16.0178 13.9487 16.1159 14.0467C16.214 14.1448 16.269 14.2778 16.269 14.4165V16.7031H17.575C17.7137 16.7031 17.8467 16.7582 17.9448 16.8563C18.0428 16.9544 18.0979 17.0874 18.0979 17.2261C18.0979 17.3648 18.0428 17.4978 17.9448 17.5959C17.8467 17.694 17.7137 17.749 17.575 17.749Z" fill="#F5BF54"/>
</g>
</svg>
