<svg width="23" height="22" viewBox="0 0 23 22" fill="none" xmlns="http://www.w3.org/2000/svg">
<path fill-rule="evenodd" clip-rule="evenodd" d="M11.5002 3.24357C7.21641 3.24357 3.74375 6.71623 3.74375 11C3.74375 15.2837 7.21641 18.7564 11.5002 18.7564C15.7839 18.7564 19.2565 15.2837 19.2565 11C19.2565 6.71623 15.7839 3.24357 11.5002 3.24357ZM2.3335 11C2.3335 5.93737 6.43755 1.83331 11.5002 1.83331C16.5627 1.83331 20.6668 5.93737 20.6668 11C20.6668 16.0625 16.5627 20.1666 11.5002 20.1666C6.43755 20.1666 2.3335 16.0625 2.3335 11Z" fill="white"/>
<path fill-rule="evenodd" clip-rule="evenodd" d="M11.5 7.00427C11.8894 7.00427 12.2051 7.31996 12.2051 7.7094V11.4701C12.2051 11.8596 11.8894 12.1753 11.5 12.1753C11.1106 12.1753 10.7949 11.8596 10.7949 11.4701V7.7094C10.7949 7.31996 11.1106 7.00427 11.5 7.00427Z" fill="white"/>
<path d="M12.4403 14.2905C12.4403 14.8098 12.0194 15.2308 11.5002 15.2308C10.981 15.2308 10.5601 14.8098 10.5601 14.2905C10.5601 13.7713 10.981 13.3504 11.5002 13.3504C12.0194 13.3504 12.4403 13.7713 12.4403 14.2905Z" fill="white"/>
</svg>
