<svg width="20" height="21" viewBox="0 0 20 21" fill="none" xmlns="http://www.w3.org/2000/svg">
<path fill-rule="evenodd" clip-rule="evenodd" d="M11.0678 2.58053C11.0678 2.29395 10.9568 2.01912 10.7594 1.81648C10.5619 1.61384 10.2941 1.5 10.0149 1.5C9.73567 1.5 9.46787 1.61384 9.27042 1.81648C9.07298 2.01912 8.96205 2.29395 8.96205 2.58053V3.19652C7.599 3.44843 6.36553 4.18387 5.47716 5.27432C4.5888 6.36478 4.10202 7.74092 4.10188 9.1623V13.7406H4.05236C3.77326 13.7406 3.50558 13.8544 3.30823 14.0569C3.11087 14.2594 3 14.5342 3 14.8206C3 15.107 3.11087 15.3817 3.30823 15.5843C3.50558 15.7868 3.77326 15.9006 4.05236 15.9006H15.9794C16.2529 15.892 16.5124 15.7744 16.703 15.5728C16.8935 15.3712 17 15.1014 17 14.8206C17 14.5398 16.8935 14.27 16.703 14.0683C16.5124 13.8667 16.2529 13.7492 15.9794 13.7406H15.9131V9.1623C15.9131 7.74346 15.4282 6.36954 14.5429 5.27982C13.6575 4.19009 12.4277 3.45358 11.0678 3.19855V2.58053Z" fill="white"/>
<path d="M8.23845 17.6676C8.42896 17.466 8.68846 17.3485 8.96197 17.3398H11.0667C11.3402 17.3485 11.5997 17.466 11.7902 17.6676C11.9807 17.8692 12.0873 18.139 12.0873 18.4199C12.0873 18.7007 11.9807 18.9705 11.7902 19.1721C11.5997 19.3737 11.3402 19.4913 11.0667 19.4999H8.96197C8.68846 19.4913 8.42896 19.3737 8.23845 19.1721C8.04795 18.9705 7.94141 18.7007 7.94141 18.4199C7.94141 18.139 8.04795 17.8692 8.23845 17.6676Z" fill="#626262"/>
</svg>
