<svg width="18" height="18" viewBox="0 0 18 18" fill="none" xmlns="http://www.w3.org/2000/svg">
<g id="Iconly/Light-Outline/Edit">
<g id="Edit">
<path id="Fill 1" fill-rule="evenodd" clip-rule="evenodd" d="M15.5618 16.4547H10.1221C9.81157 16.4547 9.55957 16.2027 9.55957 15.8922C9.55957 15.5817 9.81157 15.3297 10.1221 15.3297H15.5618C15.8723 15.3297 16.1243 15.5817 16.1243 15.8922C16.1243 16.2027 15.8723 16.4547 15.5618 16.4547Z" fill="white"/>
<g id="Group 5">
<mask id="mask0_2655_135774" style="mask-type:luminance" maskUnits="userSpaceOnUse" x="1" y="2" width="14" height="15">
<path id="Clip 4" fill-rule="evenodd" clip-rule="evenodd" d="M1.49902 2.25H14.3845V16.4547H1.49902V2.25Z" fill="white"/>
</mask>
<g mask="url(#mask0_2655_135774)">
<path id="Fill 3" fill-rule="evenodd" clip-rule="evenodd" d="M9.83146 3.76251L2.77021 12.5938C2.64196 12.7543 2.59471 12.9613 2.64196 13.16L3.15271 15.3238L5.43196 15.2953C5.64871 15.293 5.84896 15.1963 5.98171 15.0313C8.39446 12.0125 12.9942 6.25701 13.1247 6.08826C13.2477 5.88876 13.2957 5.60676 13.2312 5.33526C13.1652 5.05701 12.992 4.82076 12.7422 4.67001C12.689 4.63326 11.4252 3.65226 11.3862 3.62151C10.9107 3.24051 10.217 3.30651 9.83146 3.76251ZM2.70898 16.4547C2.44873 16.4547 2.22223 16.2762 2.16148 16.022L1.54723 13.4187C1.42048 12.8795 1.54648 12.323 1.89223 11.891L8.95723 3.05448C8.96023 3.05148 8.96248 3.04773 8.96548 3.04473C9.74023 2.11848 11.1412 1.98198 12.0862 2.74023C12.1237 2.76948 13.3785 3.74448 13.3785 3.74448C13.8345 4.01598 14.1907 4.50123 14.3257 5.07573C14.46 5.64423 14.3625 6.23073 14.0497 6.72648C14.0265 6.76323 14.0062 6.79473 6.86023 15.7347C6.51598 16.1637 5.99998 16.4135 5.44573 16.4202L2.71648 16.4547H2.70898Z" fill="white"/>
</g>
</g>
<path id="Fill 6" fill-rule="evenodd" clip-rule="evenodd" d="M12.1671 8.76353C12.0471 8.76353 11.9271 8.72528 11.8243 8.64728L7.73533 5.50628C7.48933 5.31728 7.44283 4.96478 7.63183 4.71728C7.82158 4.47128 8.17408 4.42553 8.42083 4.61453L12.5106 7.75478C12.7566 7.94378 12.8031 8.29703 12.6133 8.54378C12.5031 8.68778 12.3358 8.76353 12.1671 8.76353Z" fill="white"/>
</g>
</g>
</svg>
