<svg width="66" height="66" viewBox="0 0 66 66" fill="none" xmlns="http://www.w3.org/2000/svg">
<g id="Object" clip-path="url(#clip0_3861_174779)">
<path id="Vector" d="M63.7487 57.0927L63.4719 56.8164L56.7617 63.4898L56.925 63.6512L58.7041 65.4188C59.8444 66.555 62.2699 65.9811 64.1243 64.1396C65.9767 62.2942 66.5537 59.8817 65.4133 58.7484L63.7507 57.0946H63.7477L63.7487 57.0927Z" fill="#6F7076"/>
<path id="Vector_2" d="M61.8313 55.2109L55.1211 61.8804L56.7632 63.4894L63.4734 56.816L63.2817 56.6254L63.2759 56.6283L61.8313 55.2109Z" fill="white" fill-opacity="0.3"/>
<path id="Vector_3" d="M26.1436 0C11.704 0 0 11.6443 0 26.0076C0 40.3708 11.704 52.0122 26.1436 52.0122C31.4973 52.0122 36.4656 50.41 40.6125 47.6648L55.1214 61.8802L61.8317 55.2117L47.4175 41.0907C50.4739 36.8347 52.291 31.6371 52.291 26.0085C52.2901 11.6443 40.586 0 26.1436 0ZM26.5015 44.2922C16.3496 44.2922 8.1176 36.1061 8.1176 26.0066C8.1176 15.9071 16.3496 7.72105 26.5015 7.72105C36.6534 7.72105 44.8864 15.9061 44.8864 26.0066C44.8864 36.1071 36.6563 44.2922 26.5015 44.2922Z" fill="#6F7076"/>
<path id="Vector_4" d="M26.1776 14.3795L16.7408 32.6369C16.4299 33.2437 16.6684 33.9873 17.2795 34.3022C17.5392 34.4329 17.824 34.4664 18.0904 34.413C18.4472 34.342 18.7736 34.1162 18.9529 33.7658L28.3878 15.5085C28.7026 14.9016 28.4602 14.1581 27.8492 13.8461C27.2402 13.537 26.4895 13.7727 26.1776 14.3795Z" fill="white" fill-opacity="0.3"/>
<path id="Vector_5" d="M32.511 18.5803L23.0742 36.8378C22.7603 37.4446 23.0018 38.1881 23.6129 38.503C23.8726 38.6338 24.1574 38.6673 24.4229 38.6148C24.7807 38.5438 25.1039 38.3152 25.2844 37.9677L34.7212 19.7103C35.0351 19.1034 34.7936 18.3599 34.1825 18.045C33.5745 17.7349 32.823 17.9745 32.511 18.5813L32.511 18.5803Z" fill="white" fill-opacity="0.3"/>
</g>
<defs>
<clipPath id="clip0_3861_174779">
<rect width="66" height="66" fill="white"/>
</clipPath>
</defs>
</svg>
