<svg width="23" height="22" viewBox="0 0 23 22" fill="none" xmlns="http://www.w3.org/2000/svg">
<path id="Vector" d="M19.9615 0.5H3.03846C2.36522 0.5 1.71955 0.767444 1.2435 1.2435C0.767444 1.71955 0.5 2.36522 0.5 3.03846V19.1154C0.5 19.7886 0.767444 20.4343 1.2435 20.9103C1.71955 21.3864 2.36522 21.6538 3.03846 21.6538H19.9615C20.6348 21.6538 21.2804 21.3864 21.7565 20.9103C22.2326 20.4343 22.5 19.7886 22.5 19.1154V3.03846C22.5 2.36522 22.2326 1.71955 21.7565 1.2435C21.2804 0.767444 20.6348 0.5 19.9615 0.5ZM4.79423 9.28731C4.73049 9.13241 4.71415 8.96208 4.74729 8.79789C4.78043 8.63371 4.86155 8.48305 4.98038 8.365L7.51885 5.82654C7.68072 5.68792 7.88894 5.61548 8.10189 5.62371C8.31485 5.63193 8.51686 5.72021 8.66755 5.87091C8.81825 6.0216 8.90653 6.22361 8.91476 6.43657C8.92298 6.64953 8.85055 6.85774 8.71192 7.01962L7.62038 8.11538H17C17.2244 8.11538 17.4396 8.20453 17.5983 8.36322C17.757 8.5219 17.8462 8.73712 17.8462 8.96154C17.8462 9.18595 17.757 9.40117 17.5983 9.55986C17.4396 9.71854 17.2244 9.80769 17 9.80769H5.57692C5.40963 9.80804 5.24599 9.75879 5.10668 9.66617C4.96737 9.57355 4.85864 9.4417 4.79423 9.28731ZM18.4427 14.2119L15.9042 16.7504C15.8284 16.839 15.735 16.9109 15.6301 16.9617C15.5251 17.0125 15.4107 17.041 15.2942 17.0455C15.1777 17.05 15.0615 17.0304 14.9529 16.9878C14.8443 16.9453 14.7457 16.8808 14.6632 16.7983C14.5808 16.7159 14.5162 16.6172 14.4737 16.5087C14.4312 16.4001 14.4115 16.2839 14.416 16.1673C14.4205 16.0508 14.4491 15.9365 14.4998 15.8315C14.5506 15.7265 14.6226 15.6332 14.7112 15.5573L15.8027 14.4615H6.42308C6.19866 14.4615 5.98344 14.3724 5.82476 14.2137C5.66607 14.055 5.57692 13.8398 5.57692 13.6154C5.57692 13.391 5.66607 13.1757 5.82476 13.0171C5.98344 12.8584 6.19866 12.7692 6.42308 12.7692H17.8462C18.0134 12.7689 18.1771 12.8181 18.3164 12.9108C18.4557 13.0034 18.5644 13.1352 18.6288 13.2896C18.6926 13.4445 18.7089 13.6148 18.6758 13.779C18.6426 13.9432 18.5615 14.0939 18.4427 14.2119Z" fill="#4AA398"/>
</svg>
