<svg width="60" height="60" viewBox="0 0 60 60" fill="none" xmlns="http://www.w3.org/2000/svg">
<g id="fi_3342176">
<path id="Vector" d="M20.8211 14.1289C18.1876 14.141 16.0621 16.2856 16.0743 18.9191C16.0763 19.2879 16.1207 19.6546 16.2066 20.0132C16.8299 22.5649 19.4028 24.1286 21.9545 23.5053C24.5062 22.8821 26.0699 20.3091 25.4467 17.7574C24.9264 15.626 23.0152 14.1269 20.8211 14.1299V14.1289Z" fill="white"/>
<path id="Vector_2" d="M32.126 31.9845C34.5241 29.5722 37.788 28.2196 41.1892 28.2287C42.0984 28.2327 43.0045 28.3266 43.8945 28.5105C44.3026 28.5964 44.7057 28.7075 45.0996 28.8438C45.4401 28.9418 45.7744 29.062 46.0997 29.2025L46.4583 29.356V13.6276C46.4512 11.0698 44.3753 9 41.8176 9H12.6407C10.081 9.00707 8.00707 11.081 8 13.6407V36.4979V37.6768C8 40.2416 10.0759 42.3236 12.6407 42.3307H28.4338C28.4338 41.9074 28.3701 41.472 28.3701 41.0488C28.3914 40.6194 28.4388 40.1911 28.5116 39.7669C28.7783 36.8323 30.0561 34.0826 32.127 31.9855L32.126 31.9845ZM26.9983 29.0742L26.1781 28.2276L25.5245 27.5862C23.1607 25.3052 19.415 25.3052 17.0512 27.5862L10.5648 33.9957V13.6276C10.579 12.4841 11.5104 11.5638 12.6539 11.5638H41.8176C42.9571 11.5567 43.8874 12.475 43.8945 13.6145V21.5241C43.3702 21.212 42.8106 20.9625 42.2277 20.7806C39.1164 19.7826 35.707 20.5867 33.3695 22.8697L26.9983 29.0742Z" fill="white"/>
<g id="Group">
<path id="Vector_3" d="M42.0855 36.4341C41.6704 36.022 41.0006 36.022 40.5854 36.4341L36.6761 40.6647C36.3164 40.9819 36.1962 41.587 36.5225 41.9971C36.7508 42.285 36.8539 42.3305 37.4842 42.3305H40.048V44.8943C40.048 45.6024 40.6218 46.1762 41.3299 46.1762C42.0381 46.1762 42.6118 45.6024 42.6118 44.8943V42.3305H45.304C45.8626 42.3517 46.3333 41.9163 46.3555 41.3577C46.3555 41.3577 46.3555 41.3577 46.3555 41.3567C46.3687 41.0738 46.2616 40.7991 46.0606 40.6001L42.0866 36.4341H42.0855Z" fill="white"/>
<path id="Vector_4" d="M41.2593 51.3115C35.5871 51.3115 30.9727 46.697 30.9727 41.0249C30.9727 35.3528 35.5871 30.7383 41.2593 30.7383C46.9314 30.7383 51.5458 35.3528 51.5458 41.0249C51.5458 46.697 46.9314 51.3115 41.2593 51.3115ZM41.2593 33.3647C37.0357 33.3647 33.5991 36.8013 33.5991 41.0249C33.5991 45.2484 37.0357 48.685 41.2593 48.685C45.4828 48.685 48.9194 45.2484 48.9194 41.0249C48.9194 36.8013 45.4828 33.3647 41.2593 33.3647Z" fill="white"/>
</g>
</g>
</svg>
