<svg width="25" height="26" viewBox="0 0 25 26" fill="none" xmlns="http://www.w3.org/2000/svg">
<g id="Iconly/Bulk/Wallet">
<g id="Group">
<path id="Vector" fill-rule="evenodd" clip-rule="evenodd" d="M19.4646 2.28564H5.53599C2.97186 2.28564 0.893137 4.36434 0.893137 6.92854C0.893137 9.49275 2.97186 11.5714 5.53599 11.5714V6.92854H19.4646V11.5714C22.0287 11.5714 24.1074 9.49275 24.1074 6.92854C24.1074 4.36434 22.0287 2.28564 19.4646 2.28564Z" fill="#357AF4" fill-opacity="0.75"/>
<path id="Subtract" fill-rule="evenodd" clip-rule="evenodd" d="M5.35784 5.85706V20.3979C5.35784 21.7364 6.42379 22.8213 7.73879 22.8213H17.2626C18.5776 22.8213 19.6436 21.7364 19.6436 20.3979V5.85706H5.35784ZM10.7946 15.5986L11.63 16.4339V11.5712C11.63 11.0904 12.0198 10.7006 12.5005 10.7006C12.9813 10.7006 13.3711 11.0904 13.3711 11.5712V16.4339L14.2064 15.5986C14.5464 15.2586 15.0975 15.2586 15.4375 15.5986C15.7774 15.9385 15.7774 16.4898 15.4375 16.8296L13.9368 18.3303C13.1436 19.1237 11.8575 19.1237 11.0643 18.3303L9.56353 16.8296C9.22357 16.4898 9.22357 15.9385 9.56353 15.5986C9.90349 15.2586 10.4546 15.2586 10.7946 15.5986Z" fill="#357AF4"/>
</g>
</g>
</svg>
