<svg width="15" height="18" viewBox="0 0 15 18" fill="none" xmlns="http://www.w3.org/2000/svg">
<g id="Capa_1" clip-path="url(#clip0_1877_108409)">
<path id="Vector" d="M0 10.8496C0 12.7484 0.743555 14.5403 2.09391 15.8945C3.44777 17.2522 5.24355 18 7.15043 18C9.04957 18 10.8461 17.2413 12.2084 15.8643C12.8626 15.203 13.3773 14.4376 13.738 13.5896C14.1114 12.7125 14.3005 11.7907 14.3005 10.8496C14.3005 8.84777 13.2775 6.60867 11.9081 6.60867C11.7577 6.60867 11.6142 6.67301 11.5144 6.78516C11.4142 6.89766 11.3671 7.04742 11.3843 7.19684C11.4817 8.04445 11.4465 9.60258 10.9375 10.1735C10.807 10.3194 10.6601 10.3848 10.4607 10.3848C10.286 10.3848 10.221 10.3504 10.2132 10.3412C10.2108 10.3384 10.1566 10.2702 10.1682 9.97207C10.1791 9.69363 10.2407 9.33926 10.312 8.92898C10.4228 8.2923 10.5479 7.5709 10.5479 6.78973C10.5479 6.71484 10.5507 6.6143 10.5543 6.49758C10.5848 5.445 10.6562 2.98055 9.11777 1.39676C8.21777 0.470039 6.92297 0 5.26887 0C5.08078 0 4.90676 0.100195 4.81254 0.26332C4.71832 0.426094 4.71797 0.627187 4.81184 0.790312C4.87652 0.904922 6.38332 3.66398 3.17039 5.61867C1.89598 6.39387 0 8.4266 0 10.8496ZM1.05469 10.8496C1.05469 8.87555 2.6884 7.14586 3.71848 6.51937C5.84684 5.22457 6.28418 3.59016 6.27609 2.44758C6.27258 1.92902 6.17766 1.46566 6.06797 1.10074C7.04145 1.21887 7.81102 1.5641 8.36191 2.13152C9.58957 3.39539 9.52945 5.46996 9.50062 6.46699C9.49711 6.5918 9.49395 6.69973 9.49395 6.78973C9.49395 7.4802 9.37687 8.15414 9.27352 8.74863C9.10336 9.72703 8.96906 10.5001 9.40676 11.0201C9.6409 11.2985 9.99562 11.4395 10.4611 11.4395C10.9596 11.4395 11.397 11.244 11.726 10.8745C12.3363 10.1893 12.4741 9.00316 12.4829 8.1334C12.562 8.2459 12.6422 8.37984 12.7202 8.53559C13.0546 9.2025 13.2462 10.0462 13.2462 10.8496C13.2462 14.1539 10.4548 16.9453 7.15078 16.9453C3.78949 16.9453 1.05504 14.2109 1.05504 10.8496H1.05469Z" fill="#7B7B7B"/>
</g>
<defs>
<clipPath id="clip0_1877_108409">
<rect width="14.3009" height="18" fill="white"/>
</clipPath>
</defs>
</svg>
