<svg width="22" height="22" viewBox="0 0 22 22" fill="none" xmlns="http://www.w3.org/2000/svg">
<path fill-rule="evenodd" clip-rule="evenodd" d="M10.9997 3.24363C6.71593 3.24363 3.24326 6.71629 3.24326 11C3.24326 15.2838 6.71593 18.7564 10.9997 18.7564C15.2834 18.7564 18.7561 15.2838 18.7561 11C18.7561 6.71629 15.2834 3.24363 10.9997 3.24363ZM1.83301 11C1.83301 5.93743 5.93706 1.83337 10.9997 1.83337C16.0622 1.83337 20.1663 5.93743 20.1663 11C20.1663 16.0626 16.0622 20.1667 10.9997 20.1667C5.93706 20.1667 1.83301 16.0626 1.83301 11Z" fill="white"/>
<path fill-rule="evenodd" clip-rule="evenodd" d="M11 7.00427C11.3894 7.00427 11.7051 7.31996 11.7051 7.7094V11.4701C11.7051 11.8596 11.3894 12.1753 11 12.1753C10.6106 12.1753 10.2949 11.8596 10.2949 11.4701V7.7094C10.2949 7.31996 10.6106 7.00427 11 7.00427Z" fill="white"/>
<path d="M11.9398 14.2906C11.9398 14.8099 11.5189 15.2308 10.9997 15.2308C10.4805 15.2308 10.0596 14.8099 10.0596 14.2906C10.0596 13.7714 10.4805 13.3505 10.9997 13.3505C11.5189 13.3505 11.9398 13.7714 11.9398 14.2906Z" fill="white"/>
</svg>
