<svg width="15" height="15" viewBox="0 0 15 15" fill="none" xmlns="http://www.w3.org/2000/svg">
<g id="fi_747470" clip-path="url(#clip0_12680_13146)">
<g id="Group">
<g id="Group_2">
<path id="Vector" d="M0 0V4.98047H4.98047V0H0ZM3.80859 3.80859H1.17188V1.17188H3.80859V3.80859Z" fill="#DE173E"/>
</g>
</g>
<g id="Group_3">
<g id="Group_4">
<path id="Vector_2" d="M3.07617 1.9043H1.9043V3.07617H3.07617V1.9043Z" fill="#DE173E"/>
</g>
</g>
<g id="Group_5">
<g id="Group_6">
<path id="Vector_3" d="M10.0195 0V4.98047H15V0H10.0195ZM13.8281 3.80859H11.1914V1.17188H13.8281V3.80859Z" fill="#DE173E"/>
</g>
</g>
<g id="Group_7">
<g id="Group_8">
<path id="Vector_4" d="M13.0957 1.9043H11.9238V3.07617H13.0957V1.9043Z" fill="#DE173E"/>
</g>
</g>
<g id="Group_9">
<g id="Group_10">
<path id="Vector_5" d="M0 10.0195V15H4.98047V10.0195H0ZM3.80859 13.8281H1.17188V11.1914H3.80859V13.8281Z" fill="#DE173E"/>
</g>
</g>
<g id="Group_11">
<g id="Group_12">
<path id="Vector_6" d="M3.07617 11.9238H1.9043V13.0957H3.07617V11.9238Z" fill="#DE173E"/>
</g>
</g>
<g id="Group_13">
<g id="Group_14">
<path id="Vector_7" d="M2.34375 5.77148H1.17188V6.94336H2.34375V5.77148Z" fill="#DE173E"/>
</g>
</g>
<g id="Group_15">
<g id="Group_16">
<path id="Vector_8" d="M3.51562 8.11523V6.94336H2.34375V8.11523H3.48633V9.28711H4.6582V8.11523H3.51562Z" fill="#DE173E"/>
</g>
</g>
<g id="Group_17">
<g id="Group_18">
<path id="Vector_9" d="M9.375 2.25586H8.20312V3.42773H9.375V2.25586Z" fill="#DE173E"/>
</g>
</g>
<g id="Group_19">
<g id="Group_20">
<path id="Vector_10" d="M7.03125 1.17188H5.85938V3.42773H7.03125V1.17188Z" fill="#DE173E"/>
</g>
</g>
<g id="Group_21">
<g id="Group_22">
<path id="Vector_11" d="M8.20312 0H7.03125V1.17188H8.20312V0Z" fill="#DE173E"/>
</g>
</g>
<g id="Group_23">
<g id="Group_24">
<path id="Vector_12" d="M7.03125 3.42773V4.59961H5.85938V5.77148H8.20312V3.42773H7.03125Z" fill="#DE173E"/>
</g>
</g>
<g id="Group_25">
<g id="Group_26">
<path id="Vector_13" d="M8.20312 10.4004V9.25781H7.03125V6.94336H5.85938V9.28711H7.03125V10.4297H8.20312V11.5723H10.5469V10.4004H8.20312Z" fill="#DE173E"/>
</g>
</g>
<g id="Group_27">
<g id="Group_28">
<path id="Vector_14" d="M9.375 5.77148H8.20312V8.11523H9.375V5.77148Z" fill="#DE173E"/>
</g>
</g>
<g id="Group_29">
<g id="Group_30">
<path id="Vector_15" d="M13.8281 6.91406V5.77148H11.6895V6.94336H10.5469V8.11523H11.7188V9.25781H15V6.91406H13.8281ZM13.8281 8.08594H11.7188V6.94336H13.8281V8.08594Z" fill="#DE173E"/>
</g>
</g>
<g id="Group_31">
<g id="Group_32">
<path id="Vector_16" d="M15 10.4004H13.8281V12.7441H15V10.4004Z" fill="#DE173E"/>
</g>
</g>
<g id="Group_33">
<g id="Group_34">
<path id="Vector_17" d="M10.5469 8.11523H9.375V9.28711H10.5469V8.11523Z" fill="#DE173E"/>
</g>
</g>
<g id="Group_35">
<g id="Group_36">
<path id="Vector_18" d="M11.7188 11.5723H10.5469V12.7441H11.7188V11.5723Z" fill="#DE173E"/>
</g>
</g>
<g id="Group_37">
<g id="Group_38">
<path id="Vector_19" d="M12.8906 10.4004H11.7188V11.5723H12.8906V10.4004Z" fill="#DE173E"/>
</g>
</g>
<g id="Group_39">
<g id="Group_40">
<path id="Vector_20" d="M11.7188 12.7441V15H12.8906V13.916H13.8281V12.7441H11.7188Z" fill="#DE173E"/>
</g>
</g>
<g id="Group_41">
<g id="Group_42">
<path id="Vector_21" d="M7.03125 10.4297H5.85938V12.6562H7.03125V10.4297Z" fill="#DE173E"/>
</g>
</g>
<g id="Group_43">
<g id="Group_44">
<path id="Vector_22" d="M9.375 13.8281V12.6562H7.03125V15H8.20312V13.8281H9.3457V15H10.5176V13.8281H9.375Z" fill="#DE173E"/>
</g>
</g>
<g id="Group_45">
<g id="Group_46">
<path id="Vector_23" d="M5.85938 5.77148H3.51562V6.94336H5.85938V5.77148Z" fill="#DE173E"/>
</g>
</g>
<g id="Group_47">
<g id="Group_48">
<path id="Vector_24" d="M1.17188 6.94336H0V9.28711H1.17188V6.94336Z" fill="#DE173E"/>
</g>
</g>
</g>
<defs>
<clipPath id="clip0_12680_13146">
<rect width="15" height="15" fill="white"/>
</clipPath>
</defs>
</svg>
