<svg width="17" height="17" viewBox="0 0 17 17" fill="none" xmlns="http://www.w3.org/2000/svg">
<g clip-path="url(#clip0_1922_85857)">
<path d="M9.98047 13.5654C10.3472 13.5654 10.6445 13.2681 10.6445 12.9014C10.6445 12.5346 10.3472 12.2373 9.98047 12.2373C9.61372 12.2373 9.31641 12.5346 9.31641 12.9014C9.31641 13.2681 9.61372 13.5654 9.98047 13.5654Z" fill="white"/>
<path d="M6.22266 9.80957C6.58941 9.80957 6.88672 9.51226 6.88672 9.14551C6.88672 8.77876 6.58941 8.48145 6.22266 8.48145C5.8559 8.48145 5.55859 8.77876 5.55859 9.14551C5.55859 9.51226 5.8559 9.80957 6.22266 9.80957Z" fill="white"/>
<path d="M5.75311 13.3715C5.49376 13.1122 5.49376 12.6917 5.75311 12.4324L9.50961 8.67596C9.76896 8.41661 10.1894 8.41661 10.4488 8.67596C10.7081 8.93531 10.7081 9.35576 10.4488 9.61507L6.69226 13.3715C6.43294 13.6309 6.01246 13.6309 5.75311 13.3715Z" fill="white"/>
<path d="M8.10156 17C4.80609 17 2.125 14.3189 2.125 11.0234C2.125 9.97439 2.40088 8.94223 2.92274 8.03851C2.92437 8.03569 2.92603 8.03286 2.92769 8.03004L7.53147 0.323498C7.65133 0.122852 7.86785 0 8.10156 0C8.33528 0 8.5518 0.122852 8.67166 0.323498L13.2754 8.03004C13.2771 8.03283 13.2788 8.03565 13.2804 8.03851C13.8022 8.94223 14.0781 9.97439 14.0781 11.0234C14.0781 14.3189 11.397 17 8.10156 17ZM4.07054 8.70672C3.66659 9.40784 3.45313 10.2088 3.45313 11.0234C3.45313 13.5866 5.53841 15.6719 8.10156 15.6719C10.6647 15.6719 12.75 13.5866 12.75 11.0234C12.75 10.2088 12.5365 9.40784 12.1326 8.70672L8.10156 1.95895L4.07054 8.70672Z" fill="white"/>
</g>
<defs>
<clipPath id="clip0_1922_85857">
<rect width="17" height="17" fill="white"/>
</clipPath>
</defs>
</svg>
