<svg width="17" height="17" viewBox="0 0 17 17" fill="none" xmlns="http://www.w3.org/2000/svg">
<g clip-path="url(#clip0_1922_85872)">
<path d="M11.1562 10.0463V2.65723C11.1562 1.19257 9.96464 0.000976562 8.49999 0.000976562C7.03533 0.000976562 5.84374 1.19257 5.84374 2.65723V10.0471C4.9858 10.8163 4.49469 11.9309 4.51631 13.0922C4.55615 15.2335 6.30121 16.9708 8.44348 17.0006C8.46257 17.0008 8.48153 17.001 8.50062 17.001C10.6901 17.0009 12.4844 15.2302 12.4844 13.0166C12.4844 11.8666 12.0043 10.8019 11.1562 10.0463ZM8.46194 15.6726C7.03736 15.6528 5.87073 14.4925 5.84417 13.0675C5.82833 12.2164 6.22551 11.4028 6.9066 10.8912C7.07358 10.7657 7.17183 10.5691 7.17183 10.3602V2.65723C7.17183 1.9249 7.76763 1.3291 8.49995 1.3291C9.23228 1.3291 9.82808 1.9249 9.82808 2.65723V10.3602C9.82808 10.5691 9.92633 10.7657 10.0933 10.8912C10.7688 11.3985 11.1562 12.1732 11.1562 13.0166C11.1562 14.4887 9.95634 15.6925 8.46194 15.6726Z" fill="white"/>
<path d="M8.5 2.52441C8.13324 2.52441 7.83594 2.82171 7.83594 3.18848V10.1611C7.83594 10.5279 8.13324 10.8252 8.5 10.8252C8.86676 10.8252 9.16406 10.5279 9.16406 10.1611V3.18848C9.16406 2.82171 8.86676 2.52441 8.5 2.52441Z" fill="white"/>
</g>
<defs>
<clipPath id="clip0_1922_85872">
<rect width="17" height="17" fill="white"/>
</clipPath>
</defs>
</svg>
