<svg width="17" height="17" viewBox="0 0 17 17" fill="none" xmlns="http://www.w3.org/2000/svg">
<g clip-path="url(#clip0_1922_85881)">
<path d="M16.3359 15.6719H11.6875V13.2449C12.6074 13.1216 13.472 12.687 14.1181 12.0104C14.8835 11.2088 15.2771 10.1638 15.2265 9.06773C15.0504 5.25405 16.0443 2.73211 16.9299 0.961052C17.0477 0.725509 17.0151 0.442618 16.8469 0.239979C16.6788 0.0373074 16.4067 -0.0467629 16.1535 0.0255867L15.7958 0.127786C13.8918 0.671786 12.1112 1.66048 10.6468 2.98704C9.21111 4.28751 8.06584 5.92236 7.33477 7.71483C6.83377 8.94315 6.98162 10.3415 7.73029 11.4554C8.34889 12.3757 9.29747 12.9972 10.3594 13.2047V15.6719H0.664063C0.297301 15.6719 0 15.9692 0 16.3359C0 16.7027 0.297301 17 0.664063 17H16.3359C16.7027 17 17 16.7027 17 16.3359C17 15.9692 16.7027 15.6719 16.3359 15.6719ZM8.8326 10.7145C8.32363 9.95717 8.22594 9.04664 8.56455 8.2164C9.78556 5.22271 12.1376 2.91728 15.1092 1.75896C14.4001 3.50644 13.7517 5.92143 13.8998 9.12899C13.9335 9.85906 13.6699 10.5566 13.1576 11.0932C11.9393 12.3689 9.83686 12.2087 8.8326 10.7145Z" fill="white"/>
<path d="M0.664062 5.04688H5.71094C6.80943 5.04688 7.70312 4.15318 7.70312 3.05469C7.70312 1.9562 6.80943 1.0625 5.71094 1.0625C5.34418 1.0625 5.04687 1.3598 5.04687 1.72656C5.04687 2.09332 5.34418 2.39062 5.71094 2.39062C6.0771 2.39062 6.375 2.68852 6.375 3.05469C6.375 3.42085 6.0771 3.71875 5.71094 3.71875H0.664062C0.297301 3.71875 0 4.01605 0 4.38281C0 4.74957 0.297301 5.04688 0.664062 5.04688Z" fill="white"/>
<path d="M0.664062 10.3594H3.05469C3.42085 10.3594 3.71875 10.6573 3.71875 11.0234C3.71875 11.3896 3.42085 11.6875 3.05469 11.6875C2.68793 11.6875 2.39062 11.9848 2.39062 12.3516C2.39062 12.7183 2.68793 13.0156 3.05469 13.0156C4.15318 13.0156 5.04688 12.1219 5.04688 11.0234C5.04688 9.92495 4.15318 9.03125 3.05469 9.03125H0.664062C0.297301 9.03125 0 9.32855 0 9.69531C0 10.0621 0.297301 10.3594 0.664062 10.3594Z" fill="white"/>
<path d="M0.664062 7.70312H4.38281C4.74957 7.70312 5.04688 7.40582 5.04688 7.03906C5.04688 6.6723 4.74957 6.375 4.38281 6.375H0.664062C0.297301 6.375 0 6.6723 0 7.03906C0 7.40582 0.297301 7.70312 0.664062 7.70312Z" fill="white"/>
</g>
<defs>
<clipPath id="clip0_1922_85881">
<rect width="17" height="17" fill="white"/>
</clipPath>
</defs>
</svg>
