<svg width="22" height="22" viewBox="0 0 22 22" fill="none" xmlns="http://www.w3.org/2000/svg">
<g id="Property 1=BetSlip">
<path id="Vector" d="M7.0889 6.11591H11M7.0889 10.1022H14.9111M7.0889 14.0885H14.9111M4.15557 1.13306H17.8445C18.9245 1.13306 19.8 2.02542 19.8 3.1262V18.2286C19.8 19.609 18.4564 20.5715 17.1821 20.1039L15.655 19.5436C15.1778 19.3685 14.6526 19.3892 14.1901 19.6013L11.8025 20.6964C11.2922 20.9305 10.7079 20.9305 10.1975 20.6964L7.80989 19.6013C7.34741 19.3892 6.82218 19.3685 6.34501 19.5436L4.81795 20.1039C3.54359 20.5715 2.20001 19.609 2.20001 18.2286V3.1262C2.20001 2.02542 3.07554 1.13306 4.15557 1.13306Z" stroke="#6F7076" stroke-width="1.65" stroke-linecap="round"/>
</g>
</svg>
