<svg width="22" height="22" viewBox="0 0 22 22" fill="none" xmlns="http://www.w3.org/2000/svg">
<g id="Property 1=BetSlip-active">
<path id="Subtract" fill-rule="evenodd" clip-rule="evenodd" d="M4.15557 1.13306H17.8445C18.9245 1.13306 19.8 2.02519 19.8 3.1257V18.2243C19.8 19.6044 18.4564 20.5667 17.1821 20.0992L15.655 19.539C15.1778 19.364 14.6526 19.3847 14.1901 19.5967L11.8025 20.6915C11.2922 20.9256 10.7079 20.9256 10.1975 20.6915L7.80989 19.5967C7.34741 19.3847 6.82218 19.364 6.34501 19.539L4.81795 20.0992C3.54359 20.5667 2.20001 19.6044 2.20001 18.2243V3.1257C2.20001 2.0252 3.07554 1.13306 4.15557 1.13306ZM7.0889 5.36743C6.68389 5.36743 6.35557 5.70198 6.35557 6.11467C6.35557 6.52736 6.68389 6.86191 7.0889 6.86191H11C11.405 6.86191 11.7333 6.52736 11.7333 6.11467C11.7333 5.70198 11.405 5.36743 11 5.36743H7.0889ZM7.0889 9.35272C6.68389 9.35272 6.35557 9.68727 6.35557 10.1C6.35557 10.5127 6.68389 10.8472 7.0889 10.8472H14.9111C15.3161 10.8472 15.6445 10.5127 15.6445 10.1C15.6445 9.68727 15.3161 9.35272 14.9111 9.35272H7.0889ZM7.0889 13.338C6.68389 13.338 6.35557 13.6726 6.35557 14.0853C6.35557 14.4979 6.68389 14.8325 7.0889 14.8325H14.9111C15.3161 14.8325 15.6445 14.4979 15.6445 14.0853C15.6445 13.6726 15.3161 13.338 14.9111 13.338H7.0889Z" fill="white"/>
</g>
</svg>
