<svg width="22" height="22" viewBox="0 0 22 22" fill="none" xmlns="http://www.w3.org/2000/svg">
<g id="Property 1=Profile">
<path id="Vector" d="M14.575 5.5001C14.575 7.47451 12.9744 9.0751 11 9.0751V10.7251C13.8857 10.7251 16.225 8.38579 16.225 5.5001H14.575ZM11 9.0751C9.02557 9.0751 7.42499 7.47451 7.42499 5.5001H5.77499C5.77499 8.38579 8.1143 10.7251 11 10.7251V9.0751ZM7.42499 5.5001C7.42499 3.52568 9.02557 1.9251 11 1.9251V0.275098C8.1143 0.275098 5.77499 2.61441 5.77499 5.5001H7.42499ZM11 1.9251C12.9744 1.9251 14.575 3.52568 14.575 5.5001H16.225C16.225 2.61441 13.8857 0.275098 11 0.275098V1.9251ZM17.875 17.0501C17.875 17.6324 17.3815 18.3817 16.0758 19.0346C14.8194 19.6627 13.026 20.0751 11 20.0751V21.7251C13.2266 21.7251 15.2832 21.2756 16.8137 20.5104C18.2948 19.7698 19.525 18.5941 19.525 17.0501H17.875ZM11 20.0751C8.974 20.0751 7.18059 19.6627 5.92422 19.0346C4.61849 18.3817 4.12499 17.6324 4.12499 17.0501H2.47499C2.47499 18.5941 3.70519 19.7698 5.18631 20.5104C6.71679 21.2756 8.77339 21.7251 11 21.7251V20.0751ZM4.12499 17.0501C4.12499 16.4678 4.61849 15.7185 5.92422 15.0656C7.18059 14.4374 8.974 14.0251 11 14.0251V12.3751C8.77339 12.3751 6.71679 12.8246 5.18631 13.5898C3.70519 14.3304 2.47499 15.5061 2.47499 17.0501H4.12499ZM11 14.0251C13.026 14.0251 14.8194 14.4374 16.0758 15.0656C17.3815 15.7185 17.875 16.4678 17.875 17.0501H19.525C19.525 15.5061 18.2948 14.3304 16.8137 13.5898C15.2832 12.8246 13.2266 12.3751 11 12.3751V14.0251Z" fill="#6F7076"/>
</g>
</svg>
