<svg width="18" height="18" viewBox="0 0 18 18" fill="none" xmlns="http://www.w3.org/2000/svg">
<g id="Frame" clip-path="url(#clip0_2261_113036)">
<path id="Vector" d="M9 0C4.03734 0 0 4.03734 0 9C0 13.9627 4.03734 18 9 18C13.9627 18 18 13.9627 18 9C18 4.03734 13.9627 0 9 0ZM13.5615 7.09277L8.68641 11.9675C8.54016 12.1138 8.3482 12.1873 8.15625 12.1873C7.9643 12.1873 7.77234 12.1138 7.62609 11.9675L5.18871 9.53016C4.89551 9.23695 4.89551 8.76305 5.18871 8.46984C5.48191 8.17664 5.95582 8.17664 6.24902 8.46984L8.15625 10.3771L12.5012 6.03246C12.7944 5.73926 13.2683 5.73926 13.5615 6.03246C13.8547 6.32566 13.8547 6.79957 13.5615 7.09277Z" fill="white"/>
</g>
<defs>
<clipPath id="clip0_2261_113036">
<rect width="18" height="18" fill="white"/>
</clipPath>
</defs>
</svg>
