<svg width="24" height="29" viewBox="0 0 24 29" fill="none" xmlns="http://www.w3.org/2000/svg">
<g id="Paper">
<path id="Fill 1" d="M17.6483 1.64769C17.238 1.22083 16.5215 1.51455 16.5215 2.10612V5.72553C16.5215 7.24357 17.7719 8.49259 19.2899 8.49259C20.2466 8.50357 21.5752 8.50632 22.7034 8.50357C23.2813 8.5022 23.575 7.81181 23.1742 7.39455C21.7262 5.88887 19.1334 3.19044 17.6483 1.64769Z" fill="white"/>
<path id="Subtract" fill-rule="evenodd" clip-rule="evenodd" d="M20.4575 10.5022C20.8059 10.5051 21.1158 10.5078 21.3871 10.5078C21.6925 10.5078 22.1389 10.5042 22.5816 10.5007C22.7535 10.4993 22.9249 10.4979 23.0873 10.4968C23.4324 10.4954 23.7083 10.7768 23.7083 11.1254V22.1484C23.7083 25.5591 20.9712 28.3221 17.5954 28.3221H6.78423C3.24393 28.3221 0.375 25.4246 0.375 21.8491V7.05992C0.375 3.65188 3.11346 0.871094 6.50155 0.871094H13.7615C14.1054 0.871094 14.3826 1.15384 14.3826 1.50109V5.91521C14.3826 8.4311 16.432 10.494 18.9245 10.494C19.4991 10.494 20.0101 10.4984 20.4575 10.5022ZM12.5327 13.7555H7.88657C7.32246 13.7555 6.8654 13.2984 6.8654 12.7343C6.8654 12.1702 7.32246 11.7118 7.88657 11.7118H12.5327C13.0968 11.7118 13.5552 12.1702 13.5552 12.7343C13.5552 13.2984 13.0968 13.7555 12.5327 13.7555ZM15.3587 20.6085H7.88657C7.32246 20.6085 6.8654 20.1514 6.8654 19.5873C6.8654 19.0232 7.32246 18.5648 7.88657 18.5648H15.3587C15.9228 18.5648 16.3813 19.0232 16.3813 19.5873C16.3813 20.1514 15.9228 20.6085 15.3587 20.6085Z" fill="white"/>
</g>
</svg>
