<svg width="26" height="24" viewBox="0 0 26 24" fill="none" xmlns="http://www.w3.org/2000/svg">
<g id="NavBar-Icon">
<path id="Vector" d="M24.4545 10.8044C24.4545 9.43768 23.3762 8.32576 22.0508 8.32576C20.7254 8.32576 19.6471 9.43768 19.6471 10.8044C19.6471 11.4262 19.8708 11.9946 20.2387 12.4302L17.7539 14.7807L14.5848 8.02724L16.437 5.78384L13.013 1.63647L9.589 5.78395L11.3587 7.92748L8.21227 14.7423L5.76235 12.4289C6.12973 11.9935 6.35288 11.4255 6.35288 10.8044C6.35288 9.43768 5.27459 8.32576 3.9492 8.32576C2.6237 8.32576 1.54541 9.43768 1.54541 10.8044C1.54541 12.0709 2.47167 13.1179 3.66221 13.2648L4.24991 20.5251C4.33398 21.5637 5.20139 22.3637 6.24339 22.3637H19.7566C20.7986 22.3637 21.666 21.5637 21.7501 20.5251L22.3378 13.2648C23.5282 13.1179 24.4545 12.0709 24.4545 10.8044Z" stroke="white" stroke-width="1.4"/>
</g>
</svg>
