<svg width="24" height="22" viewBox="0 0 24 22" fill="none" xmlns="http://www.w3.org/2000/svg">
<g id="Property 1=InPlay">
<path id="Vector" d="M22.5 9.90396C22.5 8.65111 21.5116 7.63184 20.2966 7.63184C19.0817 7.63184 18.0932 8.65111 18.0932 9.90396C18.0932 10.4739 18.2983 10.995 18.6355 11.3942L16.3578 13.5489L13.4528 7.3582L15.1507 5.30175L12.0119 1.5L8.87329 5.30185L10.4955 7.26676L7.61129 13.5137L5.36553 11.393C5.70229 10.9939 5.90685 10.4733 5.90685 9.90396C5.90685 8.65111 4.91842 7.63184 3.70347 7.63184C2.48843 7.63184 1.5 8.65111 1.5 9.90396C1.5 11.0649 2.34907 12.0247 3.4404 12.1593L3.96672 18.6614C4.05079 19.7 4.9182 20.5 5.9602 20.5H18.0399C19.0819 20.5 19.9493 19.7 20.0334 18.6614L20.5597 12.1593C21.6509 12.0247 22.5 11.0649 22.5 9.90396Z" stroke="#6F7076" stroke-width="1.4"/>
</g>
</svg>
