<svg width="22" height="22" viewBox="0 0 22 22" fill="none" xmlns="http://www.w3.org/2000/svg">
<g id="Property 1=InPlay-active">
<path id="Vector" d="M21.5 9.90396C21.5 8.65111 20.5116 7.63184 19.2966 7.63184C18.0817 7.63184 17.0932 8.65111 17.0932 9.90396C17.0932 10.4739 17.2983 10.995 17.6355 11.3942L15.3578 13.5489L12.4528 7.3582L14.1507 5.30175L11.0119 1.5L7.87329 5.30185L9.49554 7.26676L6.61129 13.5137L4.36553 11.393C4.70229 10.9939 4.90685 10.4733 4.90685 9.90396C4.90685 8.65111 3.91842 7.63184 2.70347 7.63184C1.48843 7.63184 0.5 8.65111 0.5 9.90396C0.5 11.0649 1.34907 12.0247 2.4404 12.1593L2.96672 18.6614C3.05079 19.7 3.9182 20.5 4.9602 20.5H17.0399C18.0819 20.5 18.9493 19.7 19.0334 18.6614L19.5597 12.1593C20.6509 12.0247 21.5 11.0649 21.5 9.90396Z" fill="white"/>
</g>
</svg>
