<svg width="22" height="22" viewBox="0 0 22 22" fill="none" xmlns="http://www.w3.org/2000/svg">
<g id="Property 1=Home-active">
<path id="Subtract" fill-rule="evenodd" clip-rule="evenodd" d="M15.1386 20.9001H6.86146C4.5758 20.9001 2.72291 19.1319 2.72291 16.9508V12.1218C2.72291 11.4207 2.43104 10.7482 1.9115 10.2524C0.707773 9.10376 0.864257 7.20052 2.24099 6.24504L8.56583 1.85546C10.017 0.848309 11.983 0.848309 13.4342 1.85546L19.759 6.24504C21.1358 7.20052 21.2922 9.10376 20.0885 10.2524C19.569 10.7482 19.2771 11.4207 19.2771 12.1218V16.9508C19.2771 19.1319 17.4242 20.9001 15.1386 20.9001ZM9.02001 16.1976C8.60993 16.1976 8.27751 16.53 8.27751 16.9401C8.27751 17.3502 8.60993 17.6826 9.02001 17.6826H12.98C13.3901 17.6826 13.7225 17.3502 13.7225 16.9401C13.7225 16.53 13.3901 16.1976 12.98 16.1976H9.02001Z" fill="white"/>
</g>
</svg>
