<svg width="20" height="22" viewBox="0 0 20 22" fill="none" xmlns="http://www.w3.org/2000/svg">
<g id="Group 48098098">
<path id="Vector" d="M16.1633 4.35392H11.3024L12.962 1.57443C13.1704 1.23005 13.0436 0.791222 12.6782 0.594606C12.3133 0.39799 11.8484 0.517669 11.6401 0.862459C11.6388 0.864902 11.6375 0.866937 11.6362 0.86938L9.99978 3.60938L8.36381 0.86938C8.15765 0.523775 7.69355 0.401654 7.32737 0.596234C6.96118 0.790815 6.83179 1.22923 7.03796 1.57443L8.69765 4.35392H3.83675C2.27065 4.35555 1.00173 5.55315 1 7.03123V18.665C1.00173 20.143 2.27065 21.3406 3.83675 21.3423H16.1633C17.7294 21.3406 18.9983 20.143 19 18.665V7.03123C18.9983 5.55315 17.7294 4.35555 16.1633 4.35392ZM17.4779 18.665C17.477 19.3501 16.8892 19.9049 16.1633 19.9057H3.83675C3.11085 19.9049 2.52297 19.3501 2.5221 18.665V7.03123C2.52297 6.34613 3.11085 5.79129 3.83675 5.79048H16.1633C16.8892 5.79129 17.477 6.34654 17.4779 7.03123V18.665Z" fill="#6F7076" stroke="#6F7076" stroke-width="0.2"/>
<path id="Vector_2" d="M13.8229 11.5252L10.761 12.7855V11.8135C10.761 11.417 10.4203 11.095 10.0002 11.095C9.89536 11.095 9.79185 11.1153 9.69566 11.1548L5.56843 12.8539C5.1837 13.0135 5.00858 13.4369 5.17723 13.8004C5.34544 14.1627 5.79228 14.3279 6.17701 14.1708L9.2389 12.9101V13.8822C9.2389 14.2787 9.57964 14.6007 9.99974 14.6007C10.1045 14.6007 10.2081 14.5803 10.3042 14.5408L14.4315 12.8417C14.8166 12.683 14.9926 12.26 14.8248 11.8961C14.6566 11.5326 14.2085 11.3665 13.8229 11.5248V11.5252Z" fill="#6F7076" stroke="#6F7076" stroke-width="0.2"/>
</g>
</svg>
