<svg width="22" height="22" viewBox="0 0 22 22" fill="none" xmlns="http://www.w3.org/2000/svg">
<g id="Property 1=Variant11">
<path id="Vector" d="M17.1633 4.35347H12.3024L13.962 1.5743C14.1704 1.22996 14.0436 0.791188 13.6782 0.594595C13.3133 0.398002 12.8484 0.517667 12.6401 0.862417C12.6388 0.864859 12.6375 0.866894 12.6362 0.869336L10.9998 3.60902L9.36381 0.869336C9.15764 0.523772 8.69355 0.401665 8.32737 0.596223C7.96118 0.790781 7.83179 1.22915 8.03796 1.5743L9.69765 4.35347H4.83675C3.27065 4.3551 2.00173 5.55256 2 7.03047V18.6628C2.00173 20.1407 3.27065 21.3382 4.83675 21.3398H17.1633C18.7294 21.3382 19.9983 20.1407 20 18.6628V7.03047C19.9983 5.55256 18.7294 4.3551 17.1633 4.35347ZM15.4315 12.8403L11.3043 14.5393C11.2081 14.5787 11.1046 14.5991 10.9998 14.5991C10.5797 14.5991 10.2389 14.2775 10.2389 13.8807V12.9087L7.17705 14.1693C6.79275 14.3264 6.34591 14.1611 6.17727 13.7989C6.00819 13.4358 6.18331 13.0121 6.56847 12.8525L10.6957 11.1536C10.7919 11.1141 10.8954 11.0938 11.0002 11.0938C11.4203 11.0938 11.7611 11.4153 11.7611 11.8122V12.7842L14.8229 11.524C15.2081 11.3653 15.6567 11.5313 15.8249 11.8952C15.9931 12.2587 15.8167 12.6816 15.4315 12.8403Z" fill="white"/>
</g>
</svg>
