<svg width="24" height="24" viewBox="0 0 24 24" fill="none" xmlns="http://www.w3.org/2000/svg">
<g id="NavBar-Icon">
<g id="Group 48098098">
<path id="Vector" d="M18.7234 4.74969H13.4206L15.2311 1.71751C15.4584 1.34182 15.3201 0.863107 14.9215 0.648617C14.5235 0.434126 14.0163 0.564686 13.789 0.94082C13.7876 0.943485 13.7862 0.945705 13.7848 0.94837L11.9996 3.93746L10.2149 0.94837C9.98998 0.571347 9.4837 0.438123 9.08422 0.650393C8.68475 0.862663 8.54359 1.34094 8.7685 1.71751L10.5791 4.74969H5.27627C3.5678 4.75146 2.18352 6.05794 2.18164 7.67039V20.3617C2.18352 21.9742 3.5678 23.2807 5.27627 23.2824H18.7234C20.4318 23.2807 21.8161 21.9742 21.818 20.3617V7.67039C21.8161 6.05794 20.4318 4.75146 18.7234 4.74969ZM20.1575 20.3617C20.1566 21.1091 19.5153 21.7144 18.7234 21.7153H5.27627C4.48438 21.7144 3.84306 21.1091 3.84212 20.3617V7.67039C3.84306 6.92301 4.48438 6.31773 5.27627 6.31684H18.7234C19.5153 6.31773 20.1566 6.92345 20.1575 7.67039V20.3617Z" fill="white" stroke="white" stroke-width="0.2"/>
<path id="Vector_2" d="M16.1701 12.5729L12.8299 13.9478V12.8873C12.8299 12.4548 12.4582 12.1035 11.9999 12.1035C11.8855 12.1035 11.7726 12.1257 11.6677 12.1688L7.16525 14.0224C6.74554 14.1965 6.55451 14.6583 6.73848 15.0549C6.92198 15.4501 7.40945 15.6304 7.82915 15.459L11.1694 14.0837V15.1441C11.1694 15.5767 11.5411 15.9279 11.9994 15.9279C12.1137 15.9279 12.2267 15.9057 12.3316 15.8626L16.834 14.0091C17.2542 13.8359 17.4462 13.3745 17.2632 12.9775C17.0796 12.5809 16.5908 12.3997 16.1701 12.5725V12.5729Z" fill="white" stroke="white" stroke-width="0.2"/>
</g>
</g>
</svg>
