<svg width="22" height="22" viewBox="0 0 22 22" fill="none" xmlns="http://www.w3.org/2000/svg">
<g id="fi_5997060">
<g id="Group 48098117">
<path id="Vector" d="M8.23077 10.3077H4.07692C3.52609 10.3077 2.99782 10.0889 2.60832 9.69938C2.21882 9.30988 2 8.7816 2 8.23077V4.07692C2 3.52609 2.21882 2.99782 2.60832 2.60832C2.99782 2.21882 3.52609 2 4.07692 2H8.23077C8.7816 2 9.30988 2.21882 9.69938 2.60832C10.0889 2.99782 10.3077 3.52609 10.3077 4.07692V8.23077C10.3077 8.7816 10.0889 9.30988 9.69938 9.69938C9.30988 10.0889 8.7816 10.3077 8.23077 10.3077ZM4.07692 3.38462C3.89331 3.38462 3.71722 3.45755 3.58739 3.58739C3.45755 3.71722 3.38462 3.89331 3.38462 4.07692V8.23077C3.38462 8.41438 3.45755 8.59047 3.58739 8.7203C3.71722 8.85014 3.89331 8.92308 4.07692 8.92308H8.23077C8.41438 8.92308 8.59047 8.85014 8.7203 8.7203C8.85014 8.59047 8.92308 8.41438 8.92308 8.23077V4.07692C8.92308 3.89331 8.85014 3.71722 8.7203 3.58739C8.59047 3.45755 8.41438 3.38462 8.23077 3.38462H4.07692Z" fill="#6F7076"/>
<path id="Vector_2" d="M17.9231 10.3077H13.7692C13.2184 10.3077 12.6901 10.0889 12.3006 9.69938C11.9111 9.30988 11.6923 8.7816 11.6923 8.23077V4.07692C11.6923 3.52609 11.9111 2.99782 12.3006 2.60832C12.6901 2.21882 13.2184 2 13.7692 2H17.9231C18.4739 2 19.0022 2.21882 19.3917 2.60832C19.7812 2.99782 20 3.52609 20 4.07692V8.23077C20 8.7816 19.7812 9.30988 19.3917 9.69938C19.0022 10.0889 18.4739 10.3077 17.9231 10.3077ZM13.7692 3.38462C13.5856 3.38462 13.4095 3.45755 13.2797 3.58739C13.1499 3.71722 13.0769 3.89331 13.0769 4.07692V8.23077C13.0769 8.41438 13.1499 8.59047 13.2797 8.7203C13.4095 8.85014 13.5856 8.92308 13.7692 8.92308H17.9231C18.1067 8.92308 18.2828 8.85014 18.4126 8.7203C18.5425 8.59047 18.6154 8.41438 18.6154 8.23077V4.07692C18.6154 3.89331 18.5425 3.71722 18.4126 3.58739C18.2828 3.45755 18.1067 3.38462 17.9231 3.38462H13.7692Z" fill="#6F7076"/>
<path id="Vector_3" d="M8.23077 20.0001H4.07692C3.52609 20.0001 2.99782 19.7813 2.60832 19.3918C2.21882 19.0023 2 18.474 2 17.9232V13.7693C2 13.2185 2.21882 12.6902 2.60832 12.3007C2.99782 11.9112 3.52609 11.6924 4.07692 11.6924H8.23077C8.7816 11.6924 9.30988 11.9112 9.69938 12.3007C10.0889 12.6902 10.3077 13.2185 10.3077 13.7693V17.9232C10.3077 18.474 10.0889 19.0023 9.69938 19.3918C9.30988 19.7813 8.7816 20.0001 8.23077 20.0001ZM4.07692 13.077C3.89331 13.077 3.71722 13.1499 3.58739 13.2798C3.45755 13.4096 3.38462 13.5857 3.38462 13.7693V17.9232C3.38462 18.1068 3.45755 18.2829 3.58739 18.4127C3.71722 18.5425 3.89331 18.6155 4.07692 18.6155H8.23077C8.41438 18.6155 8.59047 18.5425 8.7203 18.4127C8.85014 18.2829 8.92308 18.1068 8.92308 17.9232V13.7693C8.92308 13.5857 8.85014 13.4096 8.7203 13.2798C8.59047 13.1499 8.41438 13.077 8.23077 13.077H4.07692Z" fill="#6F7076"/>
<path id="Vector_4" d="M15.8462 20.0001C15.0246 20.0001 14.2215 19.7565 13.5384 19.3C12.8553 18.8436 12.3229 18.1949 12.0085 17.4358C11.6941 16.6768 11.6119 15.8416 11.7721 15.0359C11.9324 14.2301 12.328 13.4899 12.909 12.909C13.4899 12.3281 14.23 11.9325 15.0358 11.7722C15.8416 11.6119 16.6768 11.6942 17.4358 12.0086C18.1948 12.323 18.8435 12.8554 19.3 13.5385C19.7564 14.2216 20 15.0247 20 15.8462C19.9989 16.9476 19.5609 18.0035 18.7822 18.7822C18.0034 19.561 16.9475 19.999 15.8462 20.0001ZM15.8462 13.077C15.2985 13.077 14.7631 13.2394 14.3077 13.5437C13.8523 13.848 13.4973 14.2805 13.2877 14.7865C13.0781 15.2925 13.0233 15.8493 13.1301 16.3865C13.237 16.9237 13.5007 17.4171 13.888 17.8044C14.2753 18.1917 14.7687 18.4554 15.3059 18.5623C15.8431 18.6691 16.3999 18.6143 16.9059 18.4047C17.4119 18.1951 17.8444 17.8401 18.1487 17.3847C18.453 16.9293 18.6154 16.3939 18.6154 15.8462C18.6154 15.1118 18.3236 14.4074 17.8043 13.8881C17.285 13.3688 16.5806 13.077 15.8462 13.077Z" fill="#6F7076"/>
</g>
</g>
</svg>
