<svg width="22" height="22" viewBox="0 0 22 22" fill="none" xmlns="http://www.w3.org/2000/svg">
<path d="M8.23077 2H4.07692C2.92987 2 2 2.92987 2 4.07692V8.23077C2 9.37782 2.92987 10.3077 4.07692 10.3077H8.23077C9.37782 10.3077 10.3077 9.37782 10.3077 8.23077V4.07692C10.3077 2.92987 9.37782 2 8.23077 2Z" fill="white"/>
<path d="M17.9231 2H13.7692C12.6222 2 11.6923 2.92987 11.6923 4.07692V8.23077C11.6923 9.37782 12.6222 10.3077 13.7692 10.3077H17.9231C19.0701 10.3077 20 9.37782 20 8.23077V4.07692C20 2.92987 19.0701 2 17.9231 2Z" fill="white"/>
<path d="M8.23077 11.6924H4.07692C2.92987 11.6924 2 12.6223 2 13.7693V17.9232C2 19.0702 2.92987 20.0001 4.07692 20.0001H8.23077C9.37782 20.0001 10.3077 19.0702 10.3077 17.9232V13.7693C10.3077 12.6223 9.37782 11.6924 8.23077 11.6924Z" fill="white"/>
<path d="M15.78 19.935C18.0747 19.935 19.935 18.0747 19.935 15.78C19.935 13.4853 18.0747 11.625 15.78 11.625C13.4853 11.625 11.625 13.4853 11.625 15.78C11.625 18.0747 13.4853 19.935 15.78 19.935Z" fill="white"/>
</svg>
