<svg width="24" height="24" viewBox="0 0 24 24" fill="none" xmlns="http://www.w3.org/2000/svg">
<g clip-path="url(#clip0_11605_309654)">
<path d="M16.4529 8.57057C12.8583 6.28439 14.5441 3.05741 14.6165 2.92337C14.7215 2.73258 14.7211 2.49779 14.6157 2.307C14.5103 2.11662 14.3156 1.99902 14.1051 1.99902C12.2549 1.99902 10.8058 2.54878 9.79851 3.63266C8.07729 5.48463 8.15714 8.36744 8.19136 9.59853C8.19529 9.73504 8.19844 9.85264 8.19844 9.94022C8.19844 10.8543 8.33886 11.698 8.46236 12.4423C8.54221 12.9221 8.61104 13.3362 8.62324 13.6623C8.63622 14.0109 8.57564 14.0907 8.57289 14.094C8.56424 14.1047 8.49186 14.145 8.29598 14.145C8.07296 14.145 7.90816 14.0689 7.76262 13.8979C7.19308 13.2305 7.15374 11.4082 7.2627 10.4164C7.28197 10.2416 7.22926 10.0665 7.11716 9.93488C7.00506 9.8033 6.84498 9.72846 6.67663 9.72846C5.1446 9.72888 4 12.3477 4 14.689C4 15.7897 4.21161 16.8679 4.62933 17.8938C5.03329 18.8855 5.60873 19.7807 6.34072 20.5541C7.86489 22.1647 9.87482 23.0521 11.9996 23.0521C14.1244 23.0521 16.1422 22.1775 17.6569 20.5895C19.1677 19.0056 19.9996 16.9102 19.9996 14.689C19.9996 11.8551 17.8784 9.47723 16.4529 8.57057ZM11.9996 21.8185C8.30306 21.8185 5.18 18.5537 5.18 14.689C5.18 13.749 5.39437 12.7626 5.76843 11.9826C5.85574 11.8004 5.94542 11.6438 6.03392 11.5122C6.04376 12.5299 6.19794 13.9168 6.88077 14.7182C7.24893 15.1503 7.73824 15.379 8.29598 15.379C8.81676 15.379 9.21402 15.2141 9.47559 14.8884C9.96529 14.2799 9.81503 13.3761 9.62466 12.2318C9.50902 11.5364 9.37804 10.7482 9.37804 9.94064C9.37804 9.83537 9.3745 9.70914 9.37057 9.56317C9.33832 8.39705 9.27106 5.97065 10.6446 4.49244C11.2613 3.82879 12.1219 3.42501 13.2111 3.28685C13.088 3.71366 12.9822 4.2556 12.9782 4.8621C12.9692 6.19886 13.4581 8.11004 15.8397 9.62443C16.9918 10.3572 18.82 12.3802 18.82 14.689C18.82 18.6203 15.7607 21.8185 12 21.8185H11.9996Z" fill="#ffffff"/>
<path d="M12.7674 20.1611C12.509 20.1611 12.2718 19.9822 12.1995 19.7096C12.1121 19.3815 12.2958 19.0414 12.6097 18.9501C13.1419 18.7951 14.4698 18.291 15.3036 16.9583C16.1949 15.534 15.9066 14.0969 15.7969 13.6907C15.7084 13.3629 15.8909 13.0221 16.2048 12.9296C16.5187 12.837 16.8443 13.0282 16.9328 13.356C17.1169 14.0393 17.4233 15.8239 16.2913 17.6335C15.238 19.3169 13.5871 19.946 12.9263 20.1384C12.8736 20.1537 12.8201 20.1611 12.7678 20.1611H12.7674Z" fill="#ffffff"/>
</g>
<defs>
<clipPath id="clip0_11605_309654">
<rect width="16" height="21.0526" fill="white" transform="translate(4 2)"/>
</clipPath>
</defs>
</svg>
