<svg width="16" height="22" viewBox="0 0 16 22" fill="none" xmlns="http://www.w3.org/2000/svg">
<g id="Layer_1" clip-path="url(#clip0_13703_110592)">
<path id="Vector" d="M12.453 6.57094C8.85837 4.28475 10.5442 1.05778 10.6166 0.923732C10.7216 0.732942 10.7212 0.498156 10.6158 0.307367C10.5104 0.116988 10.3157 -0.000610352 10.1052 -0.000610352C8.255 -0.000610352 6.80596 0.549143 5.79864 1.63302C4.07741 3.485 4.15726 6.36781 4.19148 7.5989C4.19541 7.73541 4.19856 7.85301 4.19856 7.94059C4.19856 8.85465 4.33898 9.6984 4.46248 10.4426C4.54233 10.9225 4.61116 11.3366 4.62336 11.6626C4.63634 12.0113 4.57576 12.0911 4.57301 12.0944C4.56436 12.1051 4.49198 12.1454 4.2961 12.1454C4.07309 12.1454 3.90828 12.0693 3.76275 11.8982C3.1932 11.2309 3.15387 9.40852 3.26282 8.41674C3.28209 8.24199 3.22939 8.06682 3.11729 7.93525C3.00519 7.80367 2.8451 7.72883 2.67675 7.72883C1.14472 7.72924 0.00012207 10.3481 0.00012207 12.6894C0.00012207 13.7901 0.211735 14.8682 0.629455 15.8941C1.03341 16.8859 1.60885 17.7811 2.34085 18.5545C3.86501 20.1651 5.87494 21.0524 7.99973 21.0524C10.1245 21.0524 12.1423 20.1778 13.657 18.5898C15.1678 17.006 15.9997 14.9106 15.9997 12.6894C15.9997 9.85548 13.8785 7.4776 12.453 6.57094ZM7.99973 19.8189C4.30318 19.8189 1.18012 16.5541 1.18012 12.6894C1.18012 11.7494 1.39449 10.763 1.76855 9.98294C1.85587 9.80079 1.94555 9.64413 2.03405 9.51255C2.04388 10.5302 2.19807 11.9172 2.88089 12.7186C3.24905 13.1507 3.73836 13.3793 4.2961 13.3793C4.81688 13.3793 5.21414 13.2144 5.47571 12.8888C5.96541 12.2802 5.81516 11.3764 5.62478 10.2321C5.50914 9.53681 5.37816 8.74857 5.37816 7.941C5.37816 7.83574 5.37462 7.7095 5.37069 7.56353C5.33844 6.39742 5.27118 3.97102 6.6447 2.49281C7.26144 1.82916 8.12206 1.42538 9.21119 1.28722C9.08808 1.71403 8.98227 2.25597 8.97834 2.86247C8.96929 4.19923 9.45821 6.11041 11.8398 7.6248C12.9919 8.35753 14.8201 10.3806 14.8201 12.6894C14.8201 16.6207 11.7608 19.8189 8.00012 19.8189H7.99973Z" fill="#6F7076"/>
<path id="Vector_2" d="M8.76744 18.1609C8.50902 18.1609 8.27184 17.9821 8.19946 17.7095C8.11214 17.3813 8.29583 17.0413 8.60971 16.95C9.14189 16.795 10.4698 16.2909 11.3036 14.9582C12.1949 13.5339 11.9066 12.0968 11.7969 11.6905C11.7084 11.3628 11.8909 11.022 12.2048 10.9294C12.5187 10.8369 12.8443 11.0281 12.9328 11.3558C13.1169 12.0392 13.4233 13.8238 12.2913 15.6334C11.238 17.3168 9.58714 17.9459 8.92634 18.1383C8.87364 18.1535 8.82014 18.1609 8.76783 18.1609H8.76744Z" fill="#6F7076"/>
</g>
<defs>
<clipPath id="clip0_13703_110592">
<rect width="16" height="21.0526" fill="white"/>
</clipPath>
</defs>
</svg>
