<svg width="24" height="24" viewBox="0 0 24 24" fill="none" xmlns="http://www.w3.org/2000/svg">
<g clip-path="url(#clip0_11605_342525)">
<path d="M7.18947 9.6C7.18947 9.73684 7.18947 9.85263 7.18947 9.93684C7.18947 10.8526 7.32632 11.6947 7.45263 12.4421C7.53684 12.9263 7.6 13.3368 7.61053 13.6632C7.62105 14.0105 7.55789 14.0947 7.55789 14.0947C7.55789 14.1053 7.47368 14.1474 7.28421 14.1474C7.06316 14.1474 6.89474 14.0737 6.74737 13.9053C6.17895 13.2421 6.13684 11.4105 6.25263 10.4211C6.27368 10.2421 6.22105 10.0737 6.10526 9.93684C5.98947 9.8 5.83158 9.72632 5.66316 9.72632C4.14737 9.72632 3 12.3474 3 14.6947C3 15.7895 3.21053 16.8737 3.63158 17.8947C4.03158 18.8842 4.61053 19.7789 5.34737 20.5579C6.87368 22.1684 8.88421 23.0526 11.0105 23.0526C13.1368 23.0526 15.1579 22.1789 16.6632 20.5895C18.1789 19.0105 19.0105 16.9053 19.0105 14.6842C19.0105 11.8526 16.8842 9.47368 15.4632 8.56842C11.8737 6.28421 13.5579 3.05263 13.6316 2.92632C13.7368 2.73684 13.7368 2.50526 13.6316 2.30526C13.5158 2.11579 13.3158 2 13.1053 2H13.0947C11.2526 2 9.8 2.54737 8.8 3.63158C7.07368 5.48421 7.1579 8.36842 7.18947 9.6ZM11.6105 18.9474C12.1474 18.7895 13.4737 18.2842 14.3053 16.9579C15.2 15.5368 14.9053 14.0947 14.8 13.6947C14.7158 13.3684 14.8947 13.0211 15.2105 12.9368C15.5263 12.8526 15.8526 13.0316 15.9368 13.3684C16.1158 14.0526 16.4316 15.8316 15.2947 17.6421C14.2421 19.3263 12.5895 19.9579 11.9263 20.1474C11.8737 20.1579 11.8211 20.1684 11.7684 20.1684C11.5053 20.1684 11.2737 19.9895 11.2 19.7158C11.1158 19.3895 11.2947 19.0526 11.6105 18.9579V18.9474Z" fill="white"/>
</g>
<defs>
<clipPath id="clip0_11605_342525">
<rect width="16" height="21.0526" fill="white" transform="translate(3 2)"/>
</clipPath>
</defs>
</svg>
