<svg width="20" height="20" viewBox="0 0 20 20" fill="none" xmlns="http://www.w3.org/2000/svg">
<g clip-path="url(#clip0_5801_6160)">
<path d="M18.5493 15.2124H14.5209L12.8782 12.9564L14.0693 9.29778L16.7271 8.43645L19.9893 10.8018C19.8613 12.408 19.3511 13.9093 18.5493 15.2133V15.2124ZM5.48 15.2124H1.45067C0.649778 13.9076 0.139556 12.4071 0.0106667 10.8L3.27289 8.43467L5.93067 9.296L7.12178 12.9547L5.47911 15.2107L5.48 15.2124ZM1.53333 4.656L2.47911 7.56178L0 9.36C0.109333 7.63822 0.656889 6.03378 1.53333 4.656ZM8.2 12.4729L7.08711 9.056L10 6.944L12.9129 9.056L11.8 12.4729H8.19911H8.2ZM17.5209 7.56267L18.4667 4.65689C19.3431 6.03467 19.8907 7.63911 20 9.36089L17.52 7.56356L17.5209 7.56267ZM17.6089 3.49956L16.3653 7.32089L13.7076 8.18311L10.5884 5.92178V3.13244L13.8507 0.768C15.3093 1.376 16.5947 2.31911 17.6098 3.49956H17.6089ZM12.4818 0.310222L10 2.10844L7.51822 0.310222C8.312 0.107556 9.144 0 10 0C10.856 0 11.688 0.107556 12.4818 0.310222ZM6.15022 0.767111L9.41245 3.13156V5.92089L6.29333 8.18222L3.63556 7.32L2.392 3.49867C3.40711 2.31733 4.69156 1.37511 6.15111 0.767111H6.15022ZM2.29244 16.384H5.35289L6.30044 19.2933C4.73156 18.6693 3.35644 17.6604 2.29333 16.384H2.29244ZM7.67556 19.728L6.42933 15.9004L8.072 13.6444H11.9271L13.5698 15.9004L12.3236 19.728C11.5778 19.9058 10.7991 20 10 20C9.20089 20 8.42222 19.9058 7.67644 19.728H7.67556ZM13.6996 19.2933L14.6471 16.384H17.7076C16.6444 17.6604 15.2693 18.6693 13.7004 19.2933H13.6996Z" fill="white"/>
</g>
<defs>
<clipPath id="clip0_5801_6160">
<rect width="20" height="20" fill="white"/>
</clipPath>
</defs>
</svg>
