<svg width="20" height="20" viewBox="0 0 20 20" fill="none" xmlns="http://www.w3.org/2000/svg">
<g clip-path="url(#clip0_5801_16728)">
<path d="M10 20C9.02844 20 8.072 19.8613 7.15467 19.5884C4.97156 18.9431 3.056 17.5502 1.76089 15.6676C0.660444 14.072 0.0524444 12.2018 0.00266667 10.2587V10.2471C0.000888889 10.1644 0 10.0827 0 10C0 7.77867 0.713778 5.67467 2.06489 3.91556C3.24889 2.37156 4.84 1.21511 6.66667 0.570667C7.73689 0.192 8.85867 0 10 0C11.1413 0 12.264 0.192 13.3342 0.569778C15.16 1.21422 16.752 2.37156 17.936 3.91556C19.2862 5.67467 20 7.77867 20 10C20 10.0827 19.9991 10.1653 19.9973 10.2489V10.2578C19.9476 12.2027 19.3387 14.0729 18.2382 15.6684C16.944 17.5511 15.0284 18.9431 12.8444 19.5893C11.9289 19.8622 10.9716 20.0009 10.0009 20.0009L10 20ZM7.03022 15.2276L8.07556 18.4453L8.12533 18.4569C8.73689 18.592 9.36711 18.6604 9.99911 18.6604C10.6311 18.6604 11.2622 18.592 11.8729 18.4569L11.9227 18.4453L12.968 15.2276L11.616 13.3662H8.38133L7.02844 15.2276H7.03022ZM13.5022 17.9244L13.6898 17.8356C14.664 17.3751 15.5689 16.7164 16.3084 15.9307L16.4507 15.7796H14.1982L13.5013 17.9236L13.5022 17.9244ZM3.69067 15.9316C4.43022 16.7173 5.336 17.376 6.31022 17.8364L6.49778 17.9253L5.80089 15.7813H3.54844L3.69067 15.9324V15.9316ZM13.7004 9.50222L12.7013 12.5787L14.0542 14.4409H17.4356L17.4613 14.3964C18.0996 13.3156 18.5004 12.0827 18.6204 10.8302L18.6258 10.7796L15.8889 8.79111L13.7004 9.50222ZM1.37422 10.7796L1.37956 10.8302C1.49956 12.0827 1.90044 13.3156 2.53867 14.3964L2.56444 14.4409H5.94578L7.29867 12.5787L6.29956 9.50222L4.11111 8.79111L1.37422 10.7796ZM7.61867 9.22667L8.528 12.0267H11.472L12.3813 9.22667L10 7.496L7.61867 9.22667ZM2.408 5.82844C1.87822 6.78578 1.54133 7.824 1.40622 8.91378L1.38133 9.11822L3.20533 7.79289L2.50844 5.64711L2.408 5.82756V5.82844ZM16.7947 7.79289L18.6187 9.11822L18.5938 8.91378C18.4596 7.824 18.1227 6.78667 17.592 5.82844L17.4916 5.648L16.7947 7.79378V7.79289ZM10.6693 4.02489V6.32711L13.2862 8.22845L15.4756 7.51733L16.52 4.30133L16.4862 4.26311C15.6533 3.32 14.6044 2.55733 13.4551 2.05689L13.408 2.03644L10.6693 4.02489ZM6.54489 2.05689C5.39467 2.55644 4.34667 3.31911 3.51378 4.26222L3.48 4.30044L4.52444 7.51644L6.71378 8.22756L9.33067 6.32622V4.024L6.59289 2.03556L6.54578 2.056L6.54489 2.05689ZM10 1.34044C9.456 1.34044 8.91022 1.39111 8.37867 1.49244L8.17511 1.53067L10 2.856L11.8249 1.53067L11.6213 1.49244C11.0898 1.392 10.5449 1.34044 10 1.34044Z" fill="white"/>
</g>
<defs>
<clipPath id="clip0_5801_16728">
<rect width="20" height="20" fill="white"/>
</clipPath>
</defs>
</svg>
