<svg width="20" height="20" viewBox="0 0 20 20" fill="none" xmlns="http://www.w3.org/2000/svg">
<g id="Activity 3">
<g id="Vector">
<path fill-rule="evenodd" clip-rule="evenodd" d="M17.8949 5.11276C16.2339 5.11276 14.8873 3.76621 14.8873 2.10516C14.8873 1.56391 15.0303 1.05605 15.2806 0.617287C14.9864 0.556345 14.6766 0.510213 14.3495 0.474772C13.2045 0.350716 11.7612 0.350723 9.92005 0.350731H9.82932C7.98814 0.350723 6.54489 0.350716 5.39987 0.474772C4.23138 0.60137 3.28461 0.864352 2.47624 1.45166C1.98686 1.80722 1.55649 2.23759 1.20094 2.72697C0.613627 3.53533 0.350646 4.4821 0.224048 5.65059C0.0999921 6.79561 0.0999983 8.23886 0.100006 10.08V10.1708C0.0999983 12.012 0.0999921 13.4552 0.224048 14.6002C0.350646 15.7687 0.613627 16.7155 1.20094 17.5239C1.55649 18.0132 1.98686 18.4436 2.47624 18.7992C3.28461 19.3865 4.23138 19.6495 5.39987 19.7761C6.54487 19.9001 7.98816 19.9001 9.8293 19.9001H9.92015C11.7613 19.9001 13.2045 19.9001 14.3495 19.7761C15.518 19.6495 16.4648 19.3865 17.2731 18.7992C17.7625 18.4436 18.1929 18.0132 18.5484 17.5239C19.1358 16.7155 19.3987 15.7687 19.5253 14.6002C19.6494 13.4552 19.6494 12.0119 19.6494 10.1708V10.08C19.6494 8.23881 19.6494 6.7956 19.5253 5.65059C19.4899 5.32347 19.4438 5.01373 19.3828 4.71954C18.9441 4.96978 18.4362 5.11276 17.8949 5.11276ZM15.2185 6.58598C15.5913 6.76886 15.7453 7.21935 15.5624 7.59217L14.0984 10.5768C13.0732 12.6667 10.0602 12.5646 9.17877 10.4101C8.78863 9.45642 7.4549 9.41124 7.00112 10.3363L5.53709 13.3209C5.35421 13.6937 4.90372 13.8477 4.5309 13.6648C4.15807 13.482 4.00409 13.0315 4.18698 12.6587L5.651 9.67407C6.67616 7.58416 9.68923 7.68623 10.5706 9.84072C10.9607 10.7944 12.2945 10.8396 12.7483 9.91449L14.2123 6.9299C14.3952 6.55708 14.8457 6.4031 15.2185 6.58598Z" fill="white"/>
<path d="M15.8899 2.10516C15.8899 3.21253 16.7876 4.11022 17.8949 4.11022C19.0023 4.11022 19.9 3.21253 19.9 2.10516C19.9 0.997795 19.0023 0.100098 17.8949 0.100098C16.7876 0.100098 15.8899 0.997795 15.8899 2.10516Z" fill="white"/>
</g>
</g>
</svg>
