<svg width="24" height="24" viewBox="0 0 24 24" fill="none" xmlns="http://www.w3.org/2000/svg">
<g id="NavBar-Icon">
<g id="Activity 2">
<g id="Vector">
<mask id="path-1-outside-1_1971_101006" maskUnits="userSpaceOnUse" x="1.18164" y="0.181641" width="23" height="23" fill="black">
<rect fill="white" x="1.18164" y="0.181641" width="23" height="23"/>
<path d="M19.6362 3.27255C19.6362 3.87504 20.1246 4.36345 20.7271 4.36345C21.3296 4.36345 21.818 3.87504 21.818 3.27255C21.818 2.67006 21.3296 2.18164 20.7271 2.18164C20.1246 2.18164 19.6362 2.67006 19.6362 3.27255Z"/>
</mask>
<path d="M15.2726 2.97576C15.7111 2.97576 16.0667 2.62022 16.0667 2.18164C16.0667 1.74306 15.7111 1.38752 15.2726 1.38752V2.97576ZM22.6121 8.72707C22.6121 8.2885 22.2566 7.93296 21.818 7.93296C21.3794 7.93296 21.0239 8.2885 21.0239 8.72707H22.6121ZM4.43008 20.7762L3.96331 21.4187L3.96332 21.4187L4.43008 20.7762ZM3.22337 19.5695L3.86582 19.1027H3.86582L3.22337 19.5695ZM19.5696 20.7762L20.0363 21.4187V21.4187L19.5696 20.7762ZM20.7763 19.5695L21.4187 20.0363L21.4187 20.0363L20.7763 19.5695ZM3.22337 4.43008L2.58091 3.96331L2.58091 3.96331L3.22337 4.43008ZM4.43008 3.22336L3.96332 2.58091L3.96332 2.58091L4.43008 3.22336ZM5.83232 14.7669C5.63917 15.1607 5.80179 15.6365 6.19555 15.8296C6.5893 16.0228 7.06509 15.8601 7.25824 15.4664L5.83232 14.7669ZM8.13837 11.869L8.85133 12.2187L8.13837 11.869ZM15.8613 12.1306L16.5742 12.4803L15.8613 12.1306ZM18.1673 9.23265C18.3605 8.83889 18.1979 8.36311 17.8041 8.16996C17.4103 7.97681 16.9346 8.13943 16.7414 8.53319L18.1673 9.23265ZM11.9998 11.9998L11.2648 12.3005L11.2648 12.3005L11.9998 11.9998ZM11.9998 2.97576H15.2726V1.38752H11.9998V2.97576ZM21.0239 8.72707V11.9998H22.6121V8.72707H21.0239ZM11.9998 21.0238C9.93683 21.0238 8.45337 21.0227 7.30419 20.8982C6.16987 20.7753 5.45583 20.5399 4.89685 20.1338L3.96332 21.4187C4.83816 22.0543 5.86367 22.3397 7.13312 22.4772C8.3877 22.6131 9.9722 22.6121 11.9998 22.6121V21.0238ZM1.38752 11.9998C1.38752 14.0274 1.38643 15.6119 1.52236 16.8665C1.6599 18.1359 1.9453 19.1614 2.58091 20.0363L3.86582 19.1027C3.4597 18.5438 3.22425 17.8297 3.10135 16.6954C2.97685 15.5462 2.97576 14.0628 2.97576 11.9998H1.38752ZM4.89685 20.1338C4.50121 19.8463 4.15327 19.4984 3.86582 19.1027L2.58091 20.0363C2.96633 20.5668 3.43284 21.0333 3.96331 21.4187L4.89685 20.1338ZM11.9998 22.6121C14.0274 22.6121 15.6119 22.6131 16.8665 22.4772C18.136 22.3397 19.1615 22.0543 20.0363 21.4187L19.1028 20.1338C18.5438 20.5399 17.8298 20.7753 16.6955 20.8982C15.5463 21.0227 14.0628 21.0238 11.9998 21.0238V22.6121ZM21.0239 11.9998C21.0239 14.0628 21.0228 15.5462 20.8983 16.6954C20.7754 17.8297 20.5399 18.5438 20.1338 19.1027L21.4187 20.0363C22.0543 19.1614 22.3398 18.1359 22.4773 16.8665C22.6132 15.6119 22.6121 14.0274 22.6121 11.9998H21.0239ZM20.0363 21.4187C20.5668 21.0333 21.0333 20.5668 21.4187 20.0363L20.1338 19.1027C19.8464 19.4984 19.4984 19.8463 19.1028 20.1338L20.0363 21.4187ZM2.97576 11.9998C2.97576 9.9368 2.97685 8.45334 3.10135 7.30417C3.22425 6.16986 3.4597 5.45582 3.86582 4.89685L2.58091 3.96331C1.9453 4.83814 1.6599 5.86366 1.52236 7.1331C1.38643 8.38768 1.38752 9.97218 1.38752 11.9998H2.97576ZM11.9998 1.38752C9.9722 1.38752 8.3877 1.38643 7.13312 1.52236C5.86367 1.6599 4.83816 1.9453 3.96332 2.58091L4.89685 3.86582C5.45583 3.4597 6.16987 3.22425 7.30419 3.10135C8.45337 2.97685 9.93683 2.97576 11.9998 2.97576V1.38752ZM3.86582 4.89685C4.15327 4.5012 4.50121 4.15327 4.89685 3.86582L3.96332 2.58091C3.43284 2.96632 2.96633 3.43283 2.58091 3.96331L3.86582 4.89685ZM7.25824 15.4664L8.85133 12.2187L7.42541 11.5193L5.83232 14.7669L7.25824 15.4664ZM16.5742 12.4803L18.1673 9.23265L16.7414 8.53319L15.1483 11.7809L16.5742 12.4803ZM11.2648 12.3005C12.216 14.6257 15.4678 14.7358 16.5742 12.4803L15.1483 11.7809C14.6454 12.8061 13.1672 12.7561 12.7348 11.6991L11.2648 12.3005ZM8.85133 12.2187C9.35426 11.1934 10.8324 11.2435 11.2648 12.3005L12.7348 11.6991C11.7836 9.37392 8.5318 9.26377 7.42541 11.5193L8.85133 12.2187ZM18.048 3.27255C18.048 4.7522 19.2475 5.95168 20.7271 5.95168V2.77522C21.0018 2.77522 21.2244 2.99787 21.2244 3.27255H18.048ZM20.7271 5.95168C22.2067 5.95168 23.4062 4.7522 23.4062 3.27255H20.2298C20.2298 2.99787 20.4524 2.77522 20.7271 2.77522V5.95168ZM23.4062 3.27255C23.4062 1.79289 22.2067 0.593408 20.7271 0.593408V3.76987C20.4524 3.76987 20.2298 3.54722 20.2298 3.27255H23.4062ZM20.7271 0.593408C19.2475 0.593408 18.048 1.79289 18.048 3.27255H21.2244C21.2244 3.54722 21.0018 3.76987 20.7271 3.76987V0.593408Z" fill="white" mask="url(#path-1-outside-1_1971_101006)"/>
</g>
</g>
</g>
</svg>
