<svg width="23" height="23" viewBox="0 0 23 23" fill="none" xmlns="http://www.w3.org/2000/svg">
<g id="Activity 2">
<g id="Vector">
<mask id="path-1-outside-1_1978_84495" maskUnits="userSpaceOnUse" x="0.181641" y="0.181641" width="23" height="23" fill="black">
<rect fill="white" x="0.181641" y="0.181641" width="23" height="23"/>
<path d="M18.6362 3.27255C18.6362 3.87504 19.1246 4.36345 19.7271 4.36345C20.3296 4.36345 20.818 3.87504 20.818 3.27255C20.818 2.67006 20.3296 2.18164 19.7271 2.18164C19.1246 2.18164 18.6362 2.67006 18.6362 3.27255Z"/>
</mask>
<path d="M14.2726 2.97576C14.7111 2.97576 15.0667 2.62022 15.0667 2.18164C15.0667 1.74306 14.7111 1.38752 14.2726 1.38752V2.97576ZM21.6121 8.72707C21.6121 8.2885 21.2566 7.93296 20.818 7.93296C20.3794 7.93296 20.0239 8.2885 20.0239 8.72707H21.6121ZM3.43008 20.7762L2.96331 21.4187L2.96332 21.4187L3.43008 20.7762ZM2.22337 19.5695L2.86582 19.1027H2.86582L2.22337 19.5695ZM18.5696 20.7762L19.0363 21.4187V21.4187L18.5696 20.7762ZM19.7763 19.5695L20.4187 20.0363L20.4187 20.0363L19.7763 19.5695ZM2.22337 4.43008L1.58091 3.96331L1.58091 3.96331L2.22337 4.43008ZM3.43008 3.22336L2.96332 2.58091L2.96332 2.58091L3.43008 3.22336ZM4.83232 14.7669C4.63917 15.1607 4.80179 15.6365 5.19555 15.8296C5.5893 16.0228 6.06509 15.8601 6.25824 15.4664L4.83232 14.7669ZM7.13837 11.869L7.85133 12.2187L7.13837 11.869ZM14.8613 12.1306L15.5742 12.4803L14.8613 12.1306ZM17.1673 9.23265C17.3605 8.83889 17.1979 8.36311 16.8041 8.16996C16.4103 7.97681 15.9346 8.13943 15.7414 8.53319L17.1673 9.23265ZM10.9998 11.9998L10.2648 12.3005L10.2648 12.3005L10.9998 11.9998ZM10.9998 2.97576H14.2726V1.38752H10.9998V2.97576ZM20.0239 8.72707V11.9998H21.6121V8.72707H20.0239ZM10.9998 21.0238C8.93683 21.0238 7.45337 21.0227 6.30419 20.8982C5.16987 20.7753 4.45583 20.5399 3.89685 20.1338L2.96332 21.4187C3.83816 22.0543 4.86367 22.3397 6.13312 22.4772C7.3877 22.6131 8.9722 22.6121 10.9998 22.6121V21.0238ZM0.387524 11.9998C0.387524 14.0274 0.386434 15.6119 0.52236 16.8665C0.659896 18.1359 0.945304 19.1614 1.58091 20.0363L2.86582 19.1027C2.4597 18.5438 2.22425 17.8297 2.10135 16.6954C1.97685 15.5462 1.97576 14.0628 1.97576 11.9998H0.387524ZM3.89685 20.1338C3.50121 19.8463 3.15327 19.4984 2.86582 19.1027L1.58091 20.0363C1.96633 20.5668 2.43284 21.0333 2.96331 21.4187L3.89685 20.1338ZM10.9998 22.6121C13.0274 22.6121 14.6119 22.6131 15.8665 22.4772C17.136 22.3397 18.1615 22.0543 19.0363 21.4187L18.1028 20.1338C17.5438 20.5399 16.8298 20.7753 15.6955 20.8982C14.5463 21.0227 13.0628 21.0238 10.9998 21.0238V22.6121ZM20.0239 11.9998C20.0239 14.0628 20.0228 15.5462 19.8983 16.6954C19.7754 17.8297 19.5399 18.5438 19.1338 19.1027L20.4187 20.0363C21.0543 19.1614 21.3398 18.1359 21.4773 16.8665C21.6132 15.6119 21.6121 14.0274 21.6121 11.9998H20.0239ZM19.0363 21.4187C19.5668 21.0333 20.0333 20.5668 20.4187 20.0363L19.1338 19.1027C18.8464 19.4984 18.4984 19.8463 18.1028 20.1338L19.0363 21.4187ZM1.97576 11.9998C1.97576 9.9368 1.97685 8.45334 2.10135 7.30417C2.22425 6.16986 2.4597 5.45582 2.86582 4.89685L1.58091 3.96331C0.945304 4.83814 0.659896 5.86366 0.52236 7.1331C0.386434 8.38768 0.387524 9.97218 0.387524 11.9998H1.97576ZM10.9998 1.38752C8.9722 1.38752 7.3877 1.38643 6.13312 1.52236C4.86367 1.6599 3.83816 1.9453 2.96332 2.58091L3.89685 3.86582C4.45583 3.4597 5.16987 3.22425 6.30419 3.10135C7.45337 2.97685 8.93683 2.97576 10.9998 2.97576V1.38752ZM2.86582 4.89685C3.15327 4.5012 3.50121 4.15327 3.89685 3.86582L2.96332 2.58091C2.43284 2.96632 1.96633 3.43283 1.58091 3.96331L2.86582 4.89685ZM6.25824 15.4664L7.85133 12.2187L6.42541 11.5193L4.83232 14.7669L6.25824 15.4664ZM15.5742 12.4803L17.1673 9.23265L15.7414 8.53319L14.1483 11.7809L15.5742 12.4803ZM10.2648 12.3005C11.216 14.6257 14.4678 14.7358 15.5742 12.4803L14.1483 11.7809C13.6454 12.8061 12.1672 12.7561 11.7348 11.6991L10.2648 12.3005ZM7.85133 12.2187C8.35426 11.1934 9.83244 11.2435 10.2648 12.3005L11.7348 11.6991C10.7836 9.37392 7.5318 9.26377 6.42541 11.5193L7.85133 12.2187ZM17.048 3.27255C17.048 4.7522 18.2475 5.95168 19.7271 5.95168V2.77522C20.0018 2.77522 20.2244 2.99787 20.2244 3.27255H17.048ZM19.7271 5.95168C21.2067 5.95168 22.4062 4.7522 22.4062 3.27255H19.2298C19.2298 2.99787 19.4524 2.77522 19.7271 2.77522V5.95168ZM22.4062 3.27255C22.4062 1.79289 21.2067 0.593408 19.7271 0.593408V3.76987C19.4524 3.76987 19.2298 3.54722 19.2298 3.27255H22.4062ZM19.7271 0.593408C18.2475 0.593408 17.048 1.79289 17.048 3.27255H20.2244C20.2244 3.54722 20.0018 3.76987 19.7271 3.76987V0.593408Z" fill="#6F7076" mask="url(#path-1-outside-1_1978_84495)"/>
</g>
</g>
</svg>
