<svg width="24" height="24" viewBox="0 0 24 24" fill="none" xmlns="http://www.w3.org/2000/svg">
<g id="Frame 1000001778" clip-path="url(#clip0_7794_272967)">
<g id="Group 48098110">
<path id="Vector" d="M22.8751 10.9242C23.1721 10.314 23.3538 9.6698 23.5178 9.01528C23.7365 8.14358 23.5164 7.29699 22.8692 6.89955C22.4733 6.65724 22.0005 6.64247 21.5513 6.63803C20.4344 6.62769 19.3277 6.74884 18.2418 7.07537C18.8343 7.04138 19.4267 7.0207 20.0177 6.96899C20.2955 6.94535 20.4329 7.034 20.5127 7.3029C20.8554 8.47453 21.0091 9.66242 20.9426 10.8843C20.8835 11.9806 20.5939 13.0089 20.1536 14.0077C19.7651 14.8882 19.2908 15.7053 18.6304 16.413C17.6981 17.6127 16.3846 18.6366 14.9869 19.201C13.8005 19.6605 12.1073 20.083 10.8367 19.2364C10.4127 18.8124 10.8367 17.9658 10.8367 17.1192C10.4127 18.3898 9.5661 20.083 11.2608 21.3536C12.1073 21.7777 12.9539 21.3536 13.378 20.507C12.9539 21.3536 12.1073 22.2002 11.2608 22.2002C7.87292 20.507 8.72098 15.8486 9.38289 12.7518C9.55132 11.7885 9.75669 10.8222 9.96206 9.85301C10.1054 9.21031 10.3669 8.58829 10.5944 7.96924C10.7584 7.52304 11.3317 7.44769 11.7365 7.34279C12.4649 7.15367 13.149 6.84931 13.87 6.64247C16.1128 6.00125 18.3526 5.39844 20.7106 5.39844C21.4804 5.39844 22.2132 5.56835 22.8988 5.88305C23.6656 6.23616 23.9906 6.9025 23.9995 7.73727C24.0113 8.9355 23.5016 9.94757 22.8751 10.9212V10.9242Z" fill="white"/>
<path id="Vector_2" d="M0.476087 10.3744C1.30347 9.44209 2.22689 8.64869 3.33204 7.91143C2.94198 7.84199 2.81788 8.17442 2.56818 8.13601C2.79571 5.99663 4.78291 3.28843 7.28574 2.08725C9.84472 0.857992 12.4052 0.837308 15.0558 1.63071C14.9834 1.79766 14.8061 1.80505 14.6775 1.88188C14.5534 1.95723 14.3495 1.84051 14.2491 2.09463C14.5342 2.13305 14.8002 2.15078 15.0661 2.0902C16.5894 1.743 18.1259 1.83164 19.6152 2.16999C20.8519 2.4507 21.9615 3.08897 22.9056 4.20594C22.6322 4.07592 22.4741 4.01239 22.3249 3.92817C21.2316 3.31798 20.0673 3.06238 18.8085 3.05056C16.876 3.03283 15.0336 3.38151 13.1912 3.95772C11.4773 4.49404 9.81074 5.1397 8.18405 5.87843C7.40246 6.23303 6.63123 6.64672 5.87476 7.07223C4.64698 7.76221 3.41182 8.43593 2.2328 9.20717C1.64477 9.59279 1.05969 9.98432 0.474609 10.3729L0.476087 10.3744Z" fill="white"/>
<path id="Vector_3" d="M7.55826 9.07422C7.01307 11.1752 6.60825 13.2377 6.66144 15.25C6.68803 16.2562 6.82987 17.2505 7.12536 18.2316C7.44745 19.2407 8.29404 20.0873 8.71807 20.9339C6.1783 18.8167 4.48364 15.8528 2.92344 13.2436C2.83036 13.0028 2.82888 12.827 3.0963 12.6748C3.33122 12.5418 3.52181 12.3335 3.73309 12.1577C3.71241 12.1119 3.69172 12.0661 3.67104 12.0203C2.44621 12.4975 1.22287 12.9733 -0.00195312 13.452C1.1815 12.5995 2.38859 11.7957 3.64149 11.0585C4.89438 10.3227 6.19308 9.65339 7.55826 9.0757V9.07422Z" fill="white"/>
</g>
</g>
<defs>
<clipPath id="clip0_7794_272967">
<rect width="24" height="24" fill="white"/>
</clipPath>
</defs>
</svg>
