<svg width="24" height="24" viewBox="0 0 24 24" fill="none" xmlns="http://www.w3.org/2000/svg">
<g id="Frame 1000001778" clip-path="url(#clip0_7794_273795)">
<g id="Group 48098110">
<path id="Vector" d="M22.8751 10.9261C23.1721 10.3159 23.3538 9.67176 23.5178 9.01724C23.7365 8.14553 23.5164 7.29894 22.8692 6.9015C22.4733 6.65919 22.0005 6.64442 21.5513 6.63999C20.4344 6.62965 19.3277 6.7508 18.2418 7.07732C18.8343 7.04334 19.4267 7.02265 20.0177 6.97094C20.2955 6.9473 20.4329 7.03595 20.5127 7.30485C20.8554 8.47648 21.0091 9.66437 20.9426 10.8862C20.8835 11.9825 20.5939 13.0108 20.1536 14.0096C19.7651 14.8902 19.2908 15.7072 18.6304 16.4149C17.6981 17.6146 16.3846 18.6385 14.9869 19.2029C13.8005 19.6624 12.1073 20.085 10.8367 19.2384C10.4127 18.8143 10.8367 17.9677 10.8367 17.1212C10.4127 18.3918 9.5661 20.085 11.2608 21.3556C12.1073 21.7796 12.9539 21.3556 13.378 20.509C12.9539 21.3556 12.1073 22.2022 11.2608 22.2022C7.87292 20.509 8.72098 15.8505 9.38289 12.7538C9.55132 11.7904 9.75669 10.8242 9.96206 9.85496C10.1054 9.21226 10.3669 8.59025 10.5944 7.97119C10.7584 7.52499 11.3317 7.44964 11.7365 7.34474C12.4649 7.15562 13.149 6.85127 13.87 6.64442C16.1128 6.0032 18.3526 5.40039 20.7106 5.40039C21.4804 5.40039 22.2132 5.5703 22.8988 5.885C23.6656 6.23812 23.9906 6.90446 23.9995 7.73923C24.0113 8.93745 23.5016 9.94952 22.8751 10.9232V10.9261Z" fill="#7B7B7B"/>
<path id="Vector_2" d="M0.476087 10.3763C1.30347 9.44404 2.22689 8.65064 3.33204 7.91338C2.94198 7.84394 2.81788 8.17637 2.56818 8.13796C2.79571 5.99858 4.78291 3.29038 7.28574 2.0892C9.84472 0.859945 12.4052 0.839261 15.0558 1.63266C14.9834 1.79962 14.8061 1.807 14.6775 1.88383C14.5534 1.95918 14.3495 1.84246 14.2491 2.09659C14.5342 2.135 14.8002 2.15273 15.0661 2.09215C16.5894 1.74495 18.1259 1.8336 19.6152 2.17194C20.8519 2.45266 21.9615 3.09092 22.9056 4.20789C22.6322 4.07787 22.4741 4.01434 22.3249 3.93013C21.2316 3.31993 20.0673 3.06433 18.8085 3.05251C16.876 3.03478 15.0336 3.38346 13.1912 3.95968C11.4773 4.496 9.81074 5.14165 8.18405 5.88039C7.40246 6.23498 6.63123 6.64867 5.87476 7.07418C4.64698 7.76416 3.41182 8.43789 2.2328 9.20913C1.64477 9.59474 1.05969 9.98627 0.474609 10.3748L0.476087 10.3763Z" fill="#7B7B7B"/>
<path id="Vector_3" d="M7.55826 9.07617C7.01307 11.1771 6.60825 13.2397 6.66144 15.252C6.68803 16.2582 6.82987 17.2525 7.12536 18.2335C7.44745 19.2426 8.29404 20.0892 8.71807 20.9358C6.1783 18.8186 4.48364 15.8548 2.92344 13.2456C2.83036 13.0048 2.82888 12.8289 3.0963 12.6768C3.33122 12.5438 3.52181 12.3355 3.73309 12.1597C3.71241 12.1138 3.69172 12.068 3.67104 12.0222C2.44621 12.4995 1.22287 12.9752 -0.00195312 13.4539C1.1815 12.6014 2.38859 11.7977 3.64149 11.0604C4.89438 10.3246 6.19308 9.65534 7.55826 9.07765V9.07617Z" fill="#7B7B7B"/>
</g>
</g>
<defs>
<clipPath id="clip0_7794_273795">
<rect width="24" height="24" fill="white"/>
</clipPath>
</defs>
</svg>
