<svg width="26" height="26" viewBox="0 0 26 26" fill="none" xmlns="http://www.w3.org/2000/svg">
<g clip-path="url(#clip0_3088_137972)">
<path d="M17.5194 13.4456H9.77626C9.44287 13.4456 9.17285 13.1756 9.17285 12.8422C9.17285 12.5089 9.44287 12.2388 9.77626 12.2388H17.5194C17.8528 12.2388 18.1228 12.5089 18.1228 12.8422C18.1228 13.1756 17.8528 13.4456 17.5194 13.4456Z" fill="white"/>
<path d="M17.5194 8.92013H9.77626C9.44287 8.92013 9.17285 8.6501 9.17285 8.31672C9.17285 7.98334 9.44287 7.71332 9.77626 7.71332H17.5194C17.8528 7.71332 18.1228 7.98334 18.1228 8.31672C18.1228 8.6501 17.8528 8.92013 17.5194 8.92013Z" fill="white"/>
<path d="M21.1791 19.7137C20.8077 19.7137 20.0191 19.7066 19.0915 19.6994C17.2089 19.6836 14.3643 19.6578 13.9471 19.6879C13.6288 19.7109 13.3578 19.4714 13.3349 19.156C13.3134 18.8406 13.5514 18.5667 13.8668 18.5438C14.2941 18.5137 16.4906 18.5309 19.1001 18.5524C20.0234 18.561 20.8077 18.5667 21.1776 18.5667C22.1425 18.5667 22.9282 17.6133 22.9282 16.4433V6.17607C22.9282 5.00468 22.1425 4.05266 21.1776 4.05266H5.8205C4.85557 4.05266 4.06987 5.00611 4.06987 6.17607V16.4433C4.06987 17.6147 4.85557 18.5667 5.8205 18.5667H8.19769C8.51456 18.5667 8.7712 18.8234 8.7712 19.1402C8.7712 19.4571 8.51456 19.7137 8.19769 19.7137H5.8205C4.22328 19.7137 2.92285 18.247 2.92285 16.4433V6.17607C2.92285 4.37239 4.22185 2.90564 5.8205 2.90564H21.1791C22.7763 2.90564 24.0767 4.37239 24.0767 6.17607V16.4433C24.0767 18.247 22.7777 19.7137 21.1791 19.7137Z" fill="white"/>
<path d="M11.4159 22.5368C11.2826 22.5368 11.1478 22.491 11.0388 22.3949L7.91753 19.6707C7.67809 19.4628 7.65372 19.1001 7.86305 18.8621C8.07238 18.6241 8.43369 18.5983 8.67169 18.8076L11.3614 21.1547L13.4734 18.7388C13.6813 18.5008 14.044 18.4764 14.282 18.6843C14.52 18.8922 14.5444 19.2549 14.3365 19.493L11.8475 22.3404C11.7342 22.4695 11.5751 22.5368 11.4159 22.5368Z" fill="white"/>
</g>
<defs>
<clipPath id="clip0_3088_137972">
<rect width="21.1538" height="19.6312" fill="white" transform="translate(2.92285 2.90564)"/>
</clipPath>
</defs>
</svg>
