<svg width="26" height="26" viewBox="0 0 26 26" fill="none" xmlns="http://www.w3.org/2000/svg">
<path d="M22.5254 12.1556C22.445 9.86499 21.5174 7.72299 19.8885 6.09417C18.1813 4.38661 15.9123 3.44653 13.5 3.44653C8.62763 3.44653 4.64648 7.32464 4.47488 12.1556C3.73134 12.486 3.21094 13.2302 3.21094 14.0952V16.478C3.21094 17.6481 4.16283 18.6003 5.33325 18.6003C6.09056 18.6003 6.70645 17.9844 6.70645 17.2271V13.3457C6.70645 12.6347 6.16111 12.0549 5.46778 11.986C5.72372 7.77713 9.22744 4.43091 13.5 4.43091C15.6498 4.43091 17.6714 5.26894 19.1929 6.79046C20.5901 8.18761 21.4078 10.0087 21.5308 11.9863C20.8381 12.0559 20.2938 12.6353 20.2938 13.3457V17.2268C20.2938 17.9438 20.8477 18.5272 21.5492 18.5879V19.5686C21.5492 20.6731 20.6505 21.5715 19.546 21.5715H18.0625C17.9897 21.3635 17.8755 21.1712 17.7154 21.0117C17.4348 20.7299 17.0608 20.5747 16.6624 20.5747H15.1334C14.9138 20.5747 14.7032 20.6213 14.5103 20.7112C13.9839 20.953 13.644 21.4839 13.644 22.0637C13.644 22.462 13.7992 22.8361 14.0804 23.116C14.3616 23.3978 14.7357 23.553 15.1334 23.553H16.6624C17.2964 23.553 17.8552 23.1432 18.0635 22.5559H19.546C21.1935 22.5559 22.5336 21.2158 22.5336 19.5686V18.4126C23.2725 18.0803 23.789 17.3387 23.789 16.4774V14.0945C23.789 13.2302 23.2686 12.486 22.5254 12.1556ZM5.72175 13.3457V17.2268C5.72175 17.4411 5.54752 17.6156 5.33292 17.6156C4.70555 17.6156 4.19498 17.1051 4.19498 16.4777V14.0948C4.19498 13.4671 4.70555 12.9569 5.33292 12.9569C5.54752 12.9569 5.72175 13.1315 5.72175 13.3457ZM17.1563 22.1693C17.1074 22.401 16.8993 22.5693 16.6621 22.5693H15.133C14.9985 22.5693 14.8722 22.5168 14.7757 22.4204C14.6805 22.3255 14.628 22.1989 14.628 22.0643C14.628 21.8678 14.7432 21.6883 14.9237 21.6053C14.988 21.5751 15.0585 21.5597 15.133 21.5597H16.6621C16.7966 21.5597 16.923 21.6119 17.0191 21.7083C17.1143 21.8032 17.1668 21.9298 17.1668 22.0643C17.1671 22.1004 17.1631 22.1365 17.1563 22.1693ZM22.8046 16.4777C22.8046 17.1051 22.294 17.6156 21.6667 17.6156C21.4524 17.6156 21.2778 17.4414 21.2778 17.2268V13.3457C21.2778 13.1315 21.4521 12.9569 21.6667 12.9569C22.294 12.9569 22.8046 13.4675 22.8046 14.0948V16.4777Z" fill="white" stroke="white" stroke-width="0.2"/>
</svg>
