<svg width="26" height="26" viewBox="0 0 26 26" fill="none" xmlns="http://www.w3.org/2000/svg">
<g clip-path="url(#clip0_3088_137932)">
<path d="M6.17304 24.0595C5.44144 24.0595 4.8457 23.4642 4.8457 22.7321V6.90857C4.8457 6.17696 5.44102 5.58122 6.17304 5.58122H7.75917V4.78691C7.75917 3.7497 8.65632 2.90564 9.75916 2.90564H20.3202C21.423 2.90564 22.3202 3.7497 22.3202 4.78691V19.5026C22.3202 20.5398 21.423 21.3839 20.3202 21.3839H19.4067V22.7321C19.4067 23.4638 18.8114 24.0595 18.0798 24.0595H6.17304ZM6.17304 6.66818C6.04052 6.66818 5.93266 6.77604 5.93266 6.90857V22.7326C5.93266 22.8651 6.04052 22.9729 6.17304 22.9729H18.0802C18.2128 22.9729 18.3202 22.8651 18.3202 22.7326V6.90857C18.3202 6.77604 18.2123 6.66818 18.0802 6.66818H6.17304ZM9.75916 3.9926C9.25582 3.9926 8.84612 4.34878 8.84612 4.78691V5.58122H18.0802C18.8118 5.58122 19.4072 6.17654 19.4072 6.90857V20.2969H20.3206C20.824 20.2969 21.2337 19.9408 21.2337 19.5026V4.78691C21.2337 4.34878 20.824 3.9926 20.3206 3.9926H9.75916Z" fill="white"/>
<path d="M9.06789 11.685C8.76814 11.685 8.52441 11.4412 8.52441 11.1415C8.52441 10.8418 8.76814 10.598 9.06789 10.598H15.4224C15.7222 10.598 15.9659 10.8418 15.9659 11.1415C15.9659 11.4412 15.7222 11.685 15.4224 11.685H9.06789Z" fill="white"/>
<path d="M9.06789 14.3605C8.76814 14.3605 8.52441 14.1168 8.52441 13.817C8.52441 13.5173 8.76814 13.2736 9.06789 13.2736H15.4224C15.7222 13.2736 15.9659 13.5173 15.9659 13.817C15.9659 14.1168 15.7222 14.3605 15.4224 14.3605H9.06789Z" fill="white"/>
<path d="M9.06789 17.0362C8.76814 17.0362 8.52441 16.7924 8.52441 16.4927C8.52441 16.1929 8.76814 15.9492 9.06789 15.9492H15.4224C15.7222 15.9492 15.9659 16.1929 15.9659 16.4927C15.9659 16.7924 15.7222 17.0362 15.4224 17.0362H9.06789Z" fill="white"/>
</g>
<defs>
<clipPath id="clip0_3088_137932">
<rect width="17.4749" height="21.1538" fill="white" transform="translate(4.8457 2.90564)"/>
</clipPath>
</defs>
</svg>
