<svg width="27" height="27" viewBox="0 0 27 27" fill="none" xmlns="http://www.w3.org/2000/svg">
<g clip-path="url(#clip0_499_61060)">
<path d="M13.9941 24.5467C13.8958 24.5467 13.7974 24.5256 13.7061 24.4836L11.647 23.5333C7.22591 21.4926 4.36914 17.0279 4.36914 12.1587V5.29673C4.36914 4.94727 4.63128 4.65323 4.97875 4.61356C6.33663 4.45846 7.70125 4.23117 9.0339 3.93781C10.6319 3.58602 12.2233 3.13117 13.7649 2.58598C13.9132 2.5336 14.0751 2.5336 14.2234 2.58598C15.7649 3.13117 17.3564 3.58602 18.9543 3.93781C20.287 4.23124 21.6516 4.45846 23.0095 4.61356C23.3569 4.65316 23.6191 4.94727 23.6191 5.29673V12.1587C23.6191 17.0279 20.7623 21.4926 16.3413 23.5333L14.2821 24.4836C14.1908 24.5256 14.0925 24.5467 13.9941 24.5467ZM5.74414 5.90565V12.1587C5.74414 16.4935 8.28734 20.4681 12.223 22.2845L13.9941 23.1019L15.7653 22.2845C19.7009 20.4681 22.2441 16.4935 22.2441 12.1587V5.90565C21.0414 5.74986 19.8382 5.5401 18.659 5.28057C17.0852 4.93414 15.5169 4.49104 13.9941 3.96263C12.4715 4.49104 10.9031 4.93414 9.32932 5.28057C8.15005 5.54003 6.94692 5.74986 5.74414 5.90565Z" fill="white"/>
<path d="M16.7441 18.3593H11.2441C10.4858 18.3593 9.86914 17.7426 9.86914 16.9843V12.1718C9.86914 11.4134 10.4858 10.7968 11.2441 10.7968H16.7441C17.5025 10.7968 18.1191 11.4134 18.1191 12.1718V16.9843C18.1191 17.7426 17.5025 18.3593 16.7441 18.3593ZM11.2441 12.1718V16.9843H16.7452L16.7441 12.1718H11.2441Z" fill="white"/>
<path d="M16.0566 12.1718H11.9316C11.552 12.1718 11.2441 11.8639 11.2441 11.4843V10.1093C11.2441 8.5929 12.4778 7.35925 13.9941 7.35925C15.5105 7.35925 16.7441 8.5929 16.7441 10.1093V11.4843C16.7441 11.8639 16.4363 12.1718 16.0566 12.1718ZM12.6191 10.7968H15.3691V10.1093C15.3691 9.35094 14.7525 8.73425 13.9941 8.73425C13.2358 8.73425 12.6191 9.35094 12.6191 10.1093V10.7968Z" fill="white"/>
</g>
<defs>
<clipPath id="clip0_499_61060">
<rect width="22" height="22" fill="white" transform="translate(2.99414 2.54675)"/>
</clipPath>
</defs>
</svg>
