<svg width="26" height="25" viewBox="0 0 26 25" fill="none" xmlns="http://www.w3.org/2000/svg">
<g clip-path="url(#clip0_3209_151328)">
<path d="M2.6182 23.9065C2.28169 23.9065 2.00586 23.6306 2.00586 23.2941V11.3067C2.00586 10.9702 2.28169 10.6943 2.6182 10.6943H7.41208C7.74859 10.6943 8.02442 10.9702 8.02442 11.3067V23.2941C8.02442 23.6306 7.74859 23.9065 7.41208 23.9065H2.6182ZM3.4181 11.9245C3.32431 11.9245 3.23053 12.0183 3.23053 12.1121V22.4998C3.23053 22.5935 3.30225 22.6652 3.39603 22.6652L6.61218 22.6873C6.65631 22.6873 6.70044 22.6708 6.72803 22.6377C6.76113 22.6046 6.77767 22.5659 6.77767 22.5218L6.79974 12.1121C6.79974 12.0183 6.72803 11.9466 6.63424 11.9466C6.63424 11.9466 3.4181 11.9245 3.41258 11.9245H3.4181Z" fill="white"/>
<path d="M10.6065 23.9065C10.27 23.9065 9.99414 23.6307 9.99414 23.2942V2.51883C9.99414 2.18232 10.27 1.90649 10.6065 1.90649H15.4004C15.7369 1.90649 16.0127 2.18232 16.0127 2.51883V23.2942C16.0127 23.6307 15.7369 23.9065 15.4004 23.9065H10.6065ZM11.4064 3.13117C11.3126 3.13117 11.2188 3.22495 11.2188 3.31873V22.4943C11.2188 22.588 11.2905 22.6598 11.3843 22.6598L14.6005 22.6818C14.6446 22.6818 14.6887 22.6653 14.7163 22.6322C14.7494 22.5991 14.766 22.5605 14.766 22.5163L14.788 3.31873C14.788 3.22495 14.7163 3.15323 14.6225 3.15323C14.6225 3.15323 11.4064 3.13117 11.4009 3.13117H11.4064Z" fill="white"/>
<path d="M18.5996 23.9065C18.2631 23.9065 17.9873 23.6307 17.9873 23.2942V8.91251C17.9873 8.576 18.2631 8.30017 18.5996 8.30017H23.3935C23.73 8.30017 24.0059 8.576 24.0059 8.91251V23.2942C24.0059 23.6307 23.73 23.9065 23.3935 23.9065H18.5996ZM19.3995 9.52485C19.3058 9.52485 19.212 9.61863 19.212 9.71241V22.4943C19.212 22.588 19.2837 22.6597 19.3775 22.6597L22.5936 22.6818C22.6378 22.6818 22.6819 22.6653 22.7095 22.6322C22.7426 22.5991 22.7591 22.5605 22.7591 22.5163L22.7812 9.71241C22.7812 9.61863 22.7095 9.54691 22.6157 9.54691C22.6157 9.54691 19.3995 9.52485 19.394 9.52485H19.3995Z" fill="white"/>
</g>
<defs>
<clipPath id="clip0_3209_151328">
<rect width="22" height="22" fill="white" transform="translate(2.00586 1.90649)"/>
</clipPath>
</defs>
</svg>
