<svg width="353" height="364" viewBox="0 0 353 364" fill="none" xmlns="http://www.w3.org/2000/svg">
<g clip-path="url(#clip0_9454_289989)">
<g opacity="0.8">
<path d="M182.001 102.904C215.841 102.904 243.275 81.7378 243.275 55.6285C243.275 29.5193 215.841 8.35352 182.001 8.35352C148.16 8.35352 120.727 29.5193 120.727 55.6285C120.727 81.7378 148.16 102.904 182.001 102.904Z" fill="url(#paint0_linear_9454_289989)"/>
</g>
<path d="M181.5 102C214.637 102 241.5 81.1812 241.5 55.5C241.5 29.8188 214.637 9 181.5 9C148.363 9 121.5 29.8188 121.5 55.5C121.5 81.1812 148.363 102 181.5 102Z" fill="#DE173E"/>
<path opacity="0.1" d="M131.006 60.885C131.006 35.152 157.747 14.292 190.736 14.292C200.982 14.2361 211.125 16.3441 220.5 20.478C210 13.338 196.266 9 181.234 9C148.245 9 121.5 29.861 121.5 55.593C121.5 72.871 133.559 87.953 151.473 96C138.931 87.457 131.006 74.9 131.006 60.885Z" fill="white"/>
<path opacity="0.2" d="M181.5 74L248 189L314.5 304H48.5L115 189L181.5 74Z" fill="#DE173E"/>
<g opacity="0.3">
<path d="M197.63 236.952L202.817 221.626C204.598 216.284 204.61 210.51 202.852 205.161C201.094 199.811 197.66 195.17 193.057 191.926L193.099 191.901C191.058 190.47 188.82 189.341 186.456 188.549L186.384 188.524L186.304 188.499C184.009 187.723 181.616 187.272 179.195 187.159C178.339 187.115 177.481 187.115 176.625 187.159C175.14 187.237 173.663 187.44 172.212 187.767C171.791 187.859 171.371 187.967 170.988 188.077C170.605 188.187 170.176 188.312 169.776 188.442C168.976 188.706 168.19 189.003 167.42 189.342C167.033 189.51 166.65 189.686 166.276 189.874C165.145 190.431 164.055 191.069 163.016 191.785C162.667 192.024 162.326 192.271 161.99 192.522C157.835 195.667 154.721 199.989 153.053 204.926L144.9 229.079C143.617 232.866 143.231 236.9 143.773 240.862C143.857 241.47 143.962 242.073 144.084 242.672C144.206 243.271 144.357 243.862 144.505 244.449C144.619 244.839 144.736 245.228 144.867 245.614C145.061 246.188 145.288 246.762 145.502 247.323C145.658 247.696 145.822 248.069 145.994 248.438C146.335 249.171 146.713 249.888 147.121 250.587C147.527 251.292 147.971 251.975 148.45 252.632C148.803 253.126 149.178 253.612 149.565 254.082C150.081 254.717 150.632 255.322 151.215 255.895C153.73 258.42 156.737 260.401 160.049 261.715L160.192 261.774C160.37 261.46 160.567 261.156 160.781 260.865C161.381 259.973 162.219 259.268 163.2 258.829C164.181 258.391 165.266 258.237 166.33 258.385C166.481 258.419 166.63 258.465 166.784 258.511C167.844 258.884 168.884 259.55 169.91 259.877C170.282 260.043 170.686 260.127 171.093 260.122C171.501 260.117 171.903 260.024 172.27 259.848C174.315 258.763 173.557 255.34 175.312 253.84C175.394 253.771 175.48 253.706 175.569 253.647C175.544 253.615 175.522 253.582 175.502 253.547C176.857 252.709 178.733 253.266 180.294 253.807C181.977 254.398 184.173 254.796 185.342 253.426C186.133 252.487 186.074 251.059 186.827 250.074C187.702 248.943 189.351 248.817 190.777 249.018L190.849 249.039C191.452 249.326 192.119 249.451 192.785 249.403C193.451 249.354 194.093 249.134 194.649 248.763C195.204 248.393 195.654 247.884 195.954 247.288C196.254 246.691 196.394 246.027 196.36 245.36C196.254 242.503 196.685 239.651 197.63 236.952Z" fill="url(#paint1_linear_9454_289989)"/>
</g>
<path d="M160.899 259.119C161.463 258.253 162.262 257.568 163.203 257.142C164.144 256.717 165.187 256.57 166.208 256.719C168.208 257.176 170.108 259.093 171.888 258.133C174.323 256.824 172.597 252.013 176.55 251.657C177.374 251.602 178.199 251.745 178.956 252.076C180.624 252.76 183.235 253.531 184.519 251.992C185.274 251.086 185.219 249.706 185.941 248.766C186.775 247.675 188.364 247.537 189.719 247.747L189.786 247.768C190.366 248.041 191.007 248.158 191.646 248.11C192.285 248.061 192.9 247.847 193.431 247.488C193.962 247.13 194.392 246.64 194.677 246.066C194.962 245.492 195.093 244.854 195.057 244.215C194.944 241.464 195.347 238.717 196.245 236.115L201.199 221.306C203.314 214.968 202.842 208.052 199.887 202.06C196.931 196.068 191.731 191.485 185.415 189.306C179.091 187.195 172.188 187.683 166.223 190.661C160.259 193.639 155.721 198.864 153.607 205.187L145.799 228.479C143.763 234.594 144.131 241.255 146.827 247.109C149.523 252.963 154.347 257.572 160.317 260C160.493 259.695 160.687 259.401 160.897 259.119H160.899Z" fill="white"/>
<path opacity="0.2" d="M170 206C171.381 206 172.5 204.881 172.5 203.5C172.5 202.119 171.381 201 170 201C168.619 201 167.5 202.119 167.5 203.5C167.5 204.881 168.619 206 170 206Z" fill="black"/>
<path opacity="0.2" d="M186 211C187.381 211 188.5 209.881 188.5 208.5C188.5 207.119 187.381 206 186 206C184.619 206 183.5 207.119 183.5 208.5C183.5 209.881 184.619 211 186 211Z" fill="black"/>
<path d="M177.231 217.076C177.95 214.939 177.378 212.819 175.953 212.34C174.528 211.86 172.79 213.203 172.071 215.339C171.352 217.475 171.925 219.596 173.349 220.075C174.774 220.555 176.512 219.212 177.231 217.076Z" fill="#E0E0E0"/>
<path d="M231.5 208C233.709 208 235.5 206.209 235.5 204C235.5 201.791 233.709 200 231.5 200C229.291 200 227.5 201.791 227.5 204C227.5 206.209 229.291 208 231.5 208Z" fill="white"/>
<path d="M244.5 199C245.605 199 246.5 198.105 246.5 197C246.5 195.895 245.605 195 244.5 195C243.395 195 242.5 195.895 242.5 197C242.5 198.105 243.395 199 244.5 199Z" fill="white"/>
<g opacity="0.5">
<g opacity="0.3">
<path d="M202.63 72.952L207.817 57.626C209.598 52.284 209.61 46.5103 207.852 41.1608C206.094 35.8112 202.66 31.1703 198.057 27.926L198.099 27.901C196.058 26.4697 193.82 25.3407 191.456 24.549L191.384 24.524L191.304 24.499C189.009 23.723 186.616 23.272 184.195 23.159C183.339 23.115 182.481 23.115 181.625 23.159C180.14 23.2366 178.663 23.4399 177.212 23.767C176.791 23.859 176.371 23.967 175.988 24.077C175.605 24.187 175.176 24.312 174.776 24.442C173.976 24.706 173.19 25.003 172.42 25.342C172.033 25.51 171.65 25.686 171.276 25.874C170.145 26.4307 169.055 27.0694 168.016 27.785C167.667 28.024 167.326 28.271 166.99 28.522C162.835 31.6667 159.721 35.9886 158.053 40.926L149.9 65.079C148.617 68.8664 148.231 72.9 148.773 76.862C148.857 77.47 148.962 78.073 149.084 78.672C149.206 79.271 149.357 79.862 149.505 80.449C149.619 80.839 149.736 81.228 149.867 81.614C150.061 82.188 150.288 82.762 150.502 83.323C150.658 83.696 150.822 84.069 150.994 84.438C151.335 85.171 151.713 85.888 152.121 86.587C152.527 87.292 152.971 87.9747 153.45 88.632C153.803 89.126 154.178 89.612 154.565 90.082C155.087 90.71 155.634 91.318 156.214 91.896C158.729 94.4206 161.736 96.4016 165.048 97.716L165.191 97.775C165.369 97.4605 165.566 97.157 165.78 96.866C166.38 95.9741 167.218 95.2688 168.199 94.8303C169.18 94.3918 170.265 94.2378 171.329 94.386C171.48 94.42 171.629 94.466 171.783 94.512C172.843 94.885 173.883 95.551 174.909 95.878C175.281 96.0444 175.685 96.1281 176.092 96.1231C176.5 96.118 176.902 96.0245 177.269 95.849C179.314 94.764 178.556 91.341 180.311 89.841C180.393 89.7716 180.479 89.7072 180.568 89.648C180.543 89.6164 180.521 89.583 180.501 89.548C181.856 88.71 183.732 89.267 185.293 89.808C186.976 90.399 189.172 90.797 190.341 89.427C191.132 88.488 191.073 87.06 191.826 86.075C192.701 84.944 194.35 84.818 195.776 85.019H195.848C196.451 85.3057 197.118 85.431 197.784 85.3826C198.45 85.3343 199.092 85.114 199.648 84.7433C200.203 84.3726 200.653 83.8641 200.953 83.2676C201.253 82.671 201.393 82.0069 201.359 81.34C201.255 78.4891 201.686 75.6439 202.63 72.952Z" fill="url(#paint2_linear_9454_289989)"/>
</g>
<path d="M166.257 95.5737C166.831 94.7078 167.639 94.023 168.588 93.5995C169.537 93.1759 170.587 93.031 171.615 93.1817C173.634 93.6387 175.548 95.5537 177.345 94.5937C179.802 93.2867 178.06 88.4807 182.045 88.1247C182.875 88.07 183.707 88.2136 184.472 88.5437C186.155 89.2267 188.788 89.9977 190.084 88.4597C190.845 87.5547 190.791 86.1757 191.519 85.2377C192.36 84.1487 193.963 84.0097 195.33 84.2197L195.397 84.2407C195.979 84.5176 196.622 84.6387 197.265 84.5922C197.908 84.5457 198.527 84.3332 199.063 83.9754C199.599 83.6176 200.033 83.1269 200.323 82.5511C200.612 81.9753 200.747 81.3343 200.715 80.6907C200.601 77.9409 201.008 75.1943 201.915 72.5957L206.915 57.8007C209.035 51.4501 208.549 44.5175 205.563 38.5248C202.578 32.5321 197.336 27.9688 190.99 25.8367C184.63 23.7172 177.691 24.1947 171.682 27.1655C165.673 30.1363 161.081 35.3599 158.904 41.6997L151.024 64.9657C148.98 71.0922 149.359 77.7687 152.083 83.6244C154.807 89.4801 159.67 94.0707 165.673 96.4537C165.85 96.1492 166.045 95.8553 166.257 95.5737Z" fill="white"/>
<path opacity="0.2" d="M175.571 42.1035C177.084 42.1035 178.31 40.8821 178.31 39.3755C178.31 37.8688 177.084 36.6475 175.571 36.6475C174.058 36.6475 172.832 37.8688 172.832 39.3755C172.832 40.8821 174.058 42.1035 175.571 42.1035Z" fill="black"/>
<path opacity="0.2" d="M191.145 47.3193C192.658 47.3193 193.884 46.0979 193.884 44.5913C193.884 43.0846 192.658 41.8633 191.145 41.8633C189.633 41.8633 188.406 43.0846 188.406 44.5913C188.406 46.0979 189.633 47.3193 191.145 47.3193Z" fill="black"/>
</g>
<path opacity="0.1" d="M238.941 41C239.721 44.0149 240.115 47.1168 240.112 50.231C240.112 75.939 213.212 96.779 180.029 96.779C152.869 96.762 129.922 82.807 122.5 63.657C128.013 84.959 152.29 101 181.413 101C214.6 101 241.5 80.159 241.5 54.452C241.492 49.8478 240.624 45.2857 238.941 41Z" fill="black"/>
<g opacity="0.8">
<path d="M181.5 107.621C249.794 107.621 305.158 93.1807 305.158 75.3673C305.158 57.5539 249.794 43.1133 181.5 43.1133C113.205 43.1133 57.8418 57.5539 57.8418 75.3673C57.8418 93.1807 113.205 107.621 181.5 107.621Z" fill="url(#paint3_linear_9454_289989)"/>
</g>
<path d="M181.5 44C115.228 44 61.5 57.877 61.5 75H301.5C301.5 57.877 247.772 44 181.5 44Z" fill="white"/>
<path d="M181.5 107C247.772 107 301.5 93.121 301.5 76H61.5C61.5 93.121 115.228 107 181.5 107Z" fill="white"/>
<path opacity="0.05" d="M181.5 107C247.772 107 301.5 93.121 301.5 76H61.5C61.5 93.121 115.228 107 181.5 107Z" fill="black"/>
<path opacity="0.05" d="M230.5 68H132.5C128.082 68 124.5 71.5817 124.5 76C124.5 80.4183 128.082 84 132.5 84H230.5C234.918 84 238.5 80.4183 238.5 76C238.5 71.5817 234.918 68 230.5 68Z" fill="black"/>
<path opacity="0.5" d="M57.0072 24.0488C56.6371 23.8876 56.3391 23.596 56.1697 23.2296C56.0003 22.8631 55.9713 22.4473 56.0882 22.0608C56.1071 22.0011 56.1192 21.9393 56.1242 21.8768C56.1354 21.6995 56.089 21.5233 55.992 21.3745C55.8949 21.2256 55.7525 21.1121 55.5857 21.0507C55.419 20.9894 55.2369 20.9835 55.0665 21.034C54.8961 21.0844 54.7466 21.1886 54.6402 21.3308C54.6042 21.3809 54.574 21.4349 54.5502 21.4918C54.3892 21.8626 54.0974 22.1612 53.7303 22.3305C53.3633 22.4998 52.9468 22.5281 52.5602 22.4098C52.5003 22.3915 52.4386 22.3794 52.3762 22.3738C52.1991 22.3626 52.0231 22.4088 51.8744 22.5057C51.7256 22.6025 51.6122 22.7448 51.5508 22.9113C51.4895 23.0779 51.4835 23.2597 51.5338 23.4299C51.5842 23.6001 51.6881 23.7495 51.8302 23.8558C51.8796 23.894 51.9337 23.9256 51.9912 23.9498C52.3613 24.1111 52.6593 24.4026 52.8287 24.7691C52.9981 25.1355 53.0271 25.5514 52.9102 25.9378C52.8918 25.996 52.8797 26.0561 52.8742 26.1168C52.8618 26.2946 52.9073 26.4716 53.0039 26.6214C53.1005 26.7711 53.243 26.8856 53.4101 26.9476C53.5771 27.0096 53.7598 27.0159 53.9307 26.9655C54.1016 26.915 54.2516 26.8106 54.3582 26.6678C54.3952 26.6166 54.4254 26.5608 54.4482 26.5018C54.6124 26.1343 54.9056 25.8398 55.2723 25.6739C55.639 25.5081 56.0538 25.4824 56.4382 25.6018C56.4981 25.6202 56.5598 25.6323 56.6222 25.6378C56.7994 25.6493 56.9756 25.6033 57.1245 25.5065C57.2734 25.4097 57.387 25.2675 57.4485 25.1009C57.51 24.9343 57.516 24.7523 57.4657 24.582C57.4154 24.4117 57.3114 24.2622 57.1692 24.1558C57.1202 24.1131 57.0658 24.0771 57.0072 24.0488Z" fill="#4D8AF0"/>
<path opacity="0.5" d="M270.006 152.049C269.639 151.885 269.345 151.592 269.179 151.226C269.014 150.86 268.988 150.445 269.106 150.061C269.125 150.002 269.137 149.94 269.142 149.877C269.153 149.7 269.106 149.523 269.008 149.374C268.911 149.225 268.768 149.112 268.601 149.051C268.434 148.989 268.251 148.984 268.081 149.034C267.91 149.085 267.76 149.189 267.653 149.331C267.617 149.381 267.587 149.435 267.563 149.492C267.401 149.864 267.107 150.163 266.738 150.332C266.369 150.502 265.951 150.529 265.563 150.41C265.503 150.392 265.442 150.38 265.379 150.374C265.202 150.363 265.026 150.409 264.877 150.506C264.728 150.602 264.614 150.745 264.553 150.911C264.491 151.078 264.485 151.26 264.536 151.43C264.586 151.6 264.69 151.75 264.832 151.856C264.882 151.894 264.936 151.926 264.994 151.95C265.361 152.115 265.655 152.407 265.821 152.774C265.987 153.14 266.013 153.554 265.894 153.938C265.876 153.996 265.864 154.056 265.858 154.117C265.846 154.295 265.893 154.473 265.99 154.622C266.087 154.772 266.23 154.887 266.397 154.949C266.565 155.011 266.747 155.017 266.919 154.966C267.09 154.916 267.24 154.811 267.347 154.668C267.384 154.617 267.414 154.561 267.437 154.502C267.603 154.134 267.898 153.839 268.267 153.673C268.635 153.507 269.051 153.482 269.437 153.602C269.497 153.621 269.559 153.633 269.621 153.638C269.799 153.65 269.975 153.605 270.124 153.508C270.274 153.411 270.388 153.269 270.449 153.102C270.511 152.936 270.517 152.753 270.467 152.583C270.417 152.412 270.313 152.263 270.17 152.156C270.122 152.112 270.067 152.074 270.008 152.044L270.006 152.049Z" fill="#4D8AF0"/>
<path opacity="0.5" d="M35.0072 211.049C34.6371 210.888 34.3391 210.596 34.1697 210.23C34.0003 209.863 33.9713 209.447 34.0882 209.061C34.1071 209.001 34.1192 208.939 34.1242 208.877C34.1354 208.7 34.089 208.523 33.992 208.374C33.8949 208.226 33.7525 208.112 33.5857 208.051C33.419 207.989 33.2369 207.984 33.0665 208.034C32.8961 208.084 32.7466 208.189 32.6402 208.331C32.6042 208.381 32.574 208.435 32.5502 208.492C32.3892 208.863 32.0974 209.161 31.7303 209.33C31.3633 209.5 30.9468 209.528 30.5602 209.41C30.5003 209.391 30.4386 209.379 30.3762 209.374C30.1991 209.363 30.0231 209.409 29.8744 209.506C29.7256 209.603 29.6122 209.745 29.5508 209.911C29.4895 210.078 29.4835 210.26 29.5338 210.43C29.5842 210.6 29.6881 210.749 29.8302 210.856C29.8796 210.894 29.9337 210.926 29.9912 210.95C30.3613 211.111 30.6593 211.403 30.8287 211.769C30.9981 212.136 31.0271 212.551 30.9102 212.938C30.8918 212.996 30.8797 213.056 30.8742 213.117C30.8618 213.295 30.9073 213.472 31.0039 213.621C31.1005 213.771 31.243 213.886 31.4101 213.948C31.5771 214.01 31.7598 214.016 31.9307 213.965C32.1016 213.915 32.2516 213.811 32.3582 213.668C32.3952 213.617 32.4254 213.561 32.4482 213.502C32.6124 213.134 32.9056 212.84 33.2723 212.674C33.639 212.508 34.0538 212.482 34.4382 212.602C34.4981 212.62 34.5598 212.632 34.6222 212.638C34.7994 212.649 34.9756 212.603 35.1245 212.507C35.2734 212.41 35.387 212.267 35.4485 212.101C35.51 211.934 35.516 211.752 35.4657 211.582C35.4154 211.412 35.3114 211.262 35.1692 211.156C35.1202 211.113 35.0658 211.077 35.0072 211.049Z" fill="#4D8AF0"/>
<path opacity="0.5" d="M11.9842 73.0488C11.6176 72.8842 11.3238 72.5913 11.158 72.2251C10.9923 71.859 10.966 71.445 11.0842 71.0608C11.1045 71.0012 11.1179 70.9395 11.1242 70.8768C11.1354 70.6995 11.089 70.5233 10.992 70.3745C10.8949 70.2256 10.7525 70.1121 10.5857 70.0507C10.419 69.9894 10.2369 69.9835 10.0665 70.034C9.89615 70.0844 9.74663 70.1886 9.64021 70.3308C9.60421 70.3809 9.57402 70.4349 9.55021 70.4918C9.38924 70.8626 9.09738 71.1612 8.73034 71.3305C8.36329 71.4998 7.94675 71.5281 7.56021 71.4098C7.5003 71.3915 7.43863 71.3794 7.37621 71.3738C7.19909 71.3626 7.02308 71.4088 6.87436 71.5057C6.72564 71.6025 6.61216 71.7448 6.55081 71.9113C6.48945 72.0779 6.4835 72.2597 6.53385 72.4299C6.58419 72.6001 6.68813 72.7495 6.83021 72.8558C6.87961 72.894 6.93372 72.9256 6.99121 72.9498C7.3613 73.1111 7.65932 73.4026 7.82872 73.7691C7.99812 74.1355 8.02711 74.5514 7.91021 74.9378C7.89179 74.996 7.87972 75.0561 7.87421 75.1168C7.86183 75.2946 7.90733 75.4716 8.00392 75.6214C8.10052 75.7711 8.243 75.8856 8.41005 75.9476C8.57711 76.0096 8.75975 76.0159 8.93067 75.9655C9.10158 75.915 9.25158 75.8106 9.35821 75.6678C9.39518 75.6166 9.42543 75.5608 9.44821 75.5018C9.61237 75.1343 9.90557 74.8398 10.2723 74.6739C10.639 74.5081 11.0538 74.4824 11.4382 74.6018C11.4981 74.6202 11.5598 74.6323 11.6222 74.6378C11.7994 74.6493 11.9756 74.6033 12.1245 74.5065C12.2734 74.4097 12.387 74.2675 12.4485 74.1009C12.51 73.9343 12.516 73.7523 12.4657 73.582C12.4154 73.4117 12.3114 73.2622 12.1692 73.1558C12.1132 73.1112 12.0508 73.0752 11.9842 73.0488Z" fill="#4D8AF0"/>
<path opacity="0.5" d="M266.007 3.02487C265.646 2.85878 265.358 2.56725 265.196 2.20451C265.034 1.84177 265.009 1.43251 265.126 1.05287C265.145 0.993369 265.156 0.931984 265.161 0.869866C265.173 0.694491 265.128 0.520038 265.032 0.372346C264.937 0.224653 264.797 0.111577 264.632 0.0498658C264.468 -0.0114441 264.288 -0.0174729 264.12 0.0326933C263.951 0.0828594 263.804 0.186486 263.7 0.327866C263.665 0.377712 263.635 0.431386 263.612 0.487866C263.452 0.85026 263.164 1.14107 262.804 1.30484C262.443 1.46861 262.034 1.49389 261.656 1.37587C261.597 1.35752 261.537 1.34545 261.475 1.33987C261.285 1.30019 261.086 1.33039 260.916 1.42496C260.746 1.51952 260.616 1.67212 260.549 1.85487C260.481 2.03795 260.481 2.23926 260.548 2.42257C260.616 2.60589 260.746 2.75918 260.916 2.85487C260.965 2.89261 261.018 2.92387 261.075 2.94787C261.436 3.11396 261.724 3.40548 261.887 3.76822C262.049 4.13097 262.073 4.54022 261.956 4.91987C261.938 4.97777 261.926 5.03745 261.921 5.09787C261.902 5.28016 261.945 5.46353 262.043 5.61857C262.141 5.77361 262.288 5.89134 262.46 5.95287C262.633 6.01341 262.821 6.01364 262.993 5.95351C263.166 5.89338 263.313 5.77646 263.41 5.62187C263.447 5.57157 263.477 5.5168 263.5 5.45887C263.66 5.09629 263.948 4.80526 264.309 4.6413C264.669 4.47733 265.078 4.45191 265.456 4.56987C265.515 4.58821 265.576 4.60028 265.637 4.60587C265.812 4.61679 265.986 4.57077 266.132 4.47468C266.279 4.3786 266.391 4.23762 266.45 4.07287C266.511 3.90782 266.517 3.72771 266.467 3.55904C266.418 3.39036 266.315 3.24203 266.175 3.13587C266.125 3.09118 266.068 3.05381 266.007 3.02487Z" fill="#4D8AF0"/>
<g opacity="0.5">
<path d="M47.6178 107.378H46.3828V114.934H47.6178V107.378Z" fill="#47E6B1"/>
<path d="M50.5 111.822V110.489H43.5V111.822H50.5Z" fill="#47E6B1"/>
</g>
<g opacity="0.5">
<path d="M349.618 74.3779H348.383V81.9339H349.618V74.3779Z" fill="#47E6B1"/>
<path d="M352.5 78.8223V77.4893H345.5V78.8223H352.5Z" fill="#47E6B1"/>
</g>
<g opacity="0.5">
<path d="M307.618 190.378H306.383V197.934H307.618V190.378Z" fill="#47E6B1"/>
<path d="M310.5 194.822V193.489H303.5V194.822H310.5Z" fill="#47E6B1"/>
</g>
<path opacity="0.5" d="M303 37C304.381 37 305.5 35.8807 305.5 34.5C305.5 33.1193 304.381 32 303 32C301.619 32 300.5 33.1193 300.5 34.5C300.5 35.8807 301.619 37 303 37Z" fill="#F55F44"/>
<path opacity="0.5" d="M3 8C4.38071 8 5.5 6.88071 5.5 5.5C5.5 4.11929 4.38071 3 3 3C1.61929 3 0.5 4.11929 0.5 5.5C0.5 6.88071 1.61929 8 3 8Z" fill="#F55F44"/>
<path opacity="0.5" d="M79 152C80.3807 152 81.5 150.881 81.5 149.5C81.5 148.119 80.3807 147 79 147C77.6193 147 76.5 148.119 76.5 149.5C76.5 150.881 77.6193 152 79 152Z" fill="#F55F44"/>
<path opacity="0.05" d="M98.5 68C106.232 68 112.5 66.6569 112.5 65C112.5 63.3431 106.232 62 98.5 62C90.768 62 84.5 63.3431 84.5 65C84.5 66.6569 90.768 68 98.5 68Z" fill="black"/>
<path opacity="0.05" d="M98.5 90C106.232 90 112.5 88.6569 112.5 87C112.5 85.3431 106.232 84 98.5 84C90.768 84 84.5 85.3431 84.5 87C84.5 88.6569 90.768 90 98.5 90Z" fill="black"/>
<path opacity="0.05" d="M260.5 68C268.232 68 274.5 66.6569 274.5 65C274.5 63.3431 268.232 62 260.5 62C252.768 62 246.5 63.3431 246.5 65C246.5 66.6569 252.768 68 260.5 68Z" fill="black"/>
<path opacity="0.05" d="M260.5 90C268.232 90 274.5 88.6569 274.5 87C274.5 85.3431 268.232 84 260.5 84C252.768 84 246.5 85.3431 246.5 87C246.5 88.6569 252.768 90 260.5 90Z" fill="black"/>
<path opacity="0.05" d="M181.5 55C189.232 55 195.5 53.6569 195.5 52C195.5 50.3431 189.232 49 181.5 49C173.768 49 167.5 50.3431 167.5 52C167.5 53.6569 173.768 55 181.5 55Z" fill="black"/>
<path opacity="0.05" d="M191.5 25C199.232 25 205.5 23.6569 205.5 22C205.5 20.3431 199.232 19 191.5 19C183.768 19 177.5 20.3431 177.5 22C177.5 23.6569 183.768 25 191.5 25Z" fill="black"/>
<path opacity="0.05" d="M164.5 37C172.232 37 178.5 35.6569 178.5 34C178.5 32.3431 172.232 31 164.5 31C156.768 31 150.5 32.3431 150.5 34C150.5 35.6569 156.768 37 164.5 37Z" fill="black"/>
<path opacity="0.05" d="M217.5 42C225.232 42 231.5 40.6569 231.5 39C231.5 37.3431 225.232 36 217.5 36C209.768 36 203.5 37.3431 203.5 39C203.5 40.6569 209.768 42 217.5 42Z" fill="black"/>
<path opacity="0.05" d="M181.5 99C189.232 99 195.5 97.6569 195.5 96C195.5 94.3431 189.232 93 181.5 93C173.768 93 167.5 94.3431 167.5 96C167.5 97.6569 173.768 99 181.5 99Z" fill="black"/>
<path d="M248.408 285.948H291.914C293.77 285.948 294.697 285.021 294.697 283.165V235.924C294.697 235.387 294.453 235.021 293.965 234.825C293.525 234.679 293.11 234.776 292.72 235.118L247.603 284.117C247.261 284.459 247.188 284.85 247.383 285.289C247.578 285.729 247.92 285.948 248.408 285.948ZM305.903 224.278V283.165C305.903 285.021 306.831 285.948 308.687 285.948H317.109C318.672 285.948 319.99 286.51 321.064 287.633C322.188 288.707 322.749 290.025 322.749 291.588C322.749 293.15 322.188 294.469 321.064 295.543C319.99 296.617 318.672 297.154 317.109 297.154H308.687C306.831 297.154 305.903 298.106 305.903 300.011V308.36C305.903 309.923 305.366 311.266 304.292 312.389C303.169 313.463 301.851 314 300.337 314C298.774 314 297.432 313.463 296.309 312.389C295.234 311.266 294.697 309.923 294.697 308.36V300.011C294.697 298.106 293.77 297.154 291.914 297.154H238.667C237.104 297.154 235.762 296.617 234.639 295.543C233.564 294.469 233.027 293.15 233.027 291.588V285.509C233.027 284.044 233.516 282.774 234.492 281.7L291.035 220.47C292.109 219.298 293.477 218.712 295.137 218.712H300.337C301.851 218.712 303.169 219.249 304.292 220.323C305.366 221.446 305.903 222.765 305.903 224.278Z" fill="#DE173E"/>
<path d="M210.029 285.948V246.69C210.029 244.933 209.736 243.224 209.15 241.563C209.053 241.124 208.784 240.855 208.345 240.758C207.905 240.66 207.563 240.782 207.319 241.124L153.047 299.864C152.803 300.157 152.729 300.499 152.827 300.89C152.925 301.28 153.145 301.549 153.486 301.695C155.439 302.428 157.466 302.794 159.565 302.794H193.184C197.822 302.794 201.777 301.158 205.049 297.887C208.369 294.566 210.029 290.587 210.029 285.948ZM142.72 246.69V285.948C142.72 287.755 142.988 289.488 143.525 291.148C143.672 291.588 143.965 291.832 144.404 291.881C144.795 291.979 145.137 291.881 145.43 291.588L199.629 232.848C199.922 232.555 200.02 232.213 199.922 231.822C199.824 231.432 199.58 231.163 199.189 231.017C197.285 230.284 195.283 229.918 193.184 229.918H159.565C154.927 229.918 150.947 231.554 147.627 234.825C144.355 238.097 142.72 242.052 142.72 246.69ZM159.565 218.712H193.184C200.898 218.712 207.515 221.446 213.032 226.915C218.501 232.384 221.235 238.976 221.235 246.69V285.948C221.235 293.712 218.501 300.328 213.032 305.797C207.515 311.266 200.898 314 193.184 314H159.565C151.802 314 145.186 311.266 139.717 305.797C134.248 300.328 131.514 293.712 131.514 285.948V246.69C131.514 238.976 134.248 232.384 139.717 226.915C145.186 221.446 151.802 218.712 159.565 218.712Z" fill="#DE173E"/>
<path d="M45.3809 285.948H88.8867C90.7422 285.948 91.6699 285.021 91.6699 283.165V235.924C91.6699 235.387 91.4258 235.021 90.9375 234.825C90.498 234.679 90.083 234.776 89.6924 235.118L44.5752 284.117C44.2334 284.459 44.1602 284.85 44.3555 285.289C44.5508 285.729 44.8926 285.948 45.3809 285.948ZM102.876 224.278V283.165C102.876 285.021 103.804 285.948 105.659 285.948H114.082C115.645 285.948 116.963 286.51 118.037 287.633C119.16 288.707 119.722 290.025 119.722 291.588C119.722 293.15 119.16 294.469 118.037 295.543C116.963 296.617 115.645 297.154 114.082 297.154H105.659C103.804 297.154 102.876 298.106 102.876 300.011V308.36C102.876 309.923 102.339 311.266 101.265 312.389C100.142 313.463 98.8232 314 97.3096 314C95.7471 314 94.4043 313.463 93.2812 312.389C92.207 311.266 91.6699 309.923 91.6699 308.36V300.011C91.6699 298.106 90.7422 297.154 88.8867 297.154H35.6396C34.0771 297.154 32.7344 296.617 31.6113 295.543C30.5371 294.469 30 293.15 30 291.588V285.509C30 284.044 30.4883 282.774 31.4648 281.7L88.0078 220.47C89.082 219.298 90.4492 218.712 92.1094 218.712H97.3096C98.8232 218.712 100.142 219.249 101.265 220.323C102.339 221.446 102.876 222.765 102.876 224.278Z" fill="#DE173E"/>
</g>
<defs>
<linearGradient id="paint0_linear_9454_289989" x1="182.001" y1="102.904" x2="182.001" y2="8.35352" gradientUnits="userSpaceOnUse">
<stop stop-color="#808080" stop-opacity="0.251"/>
<stop offset="0.54" stop-color="#808080" stop-opacity="0.122"/>
<stop offset="1" stop-color="#808080" stop-opacity="0.102"/>
</linearGradient>
<linearGradient id="paint1_linear_9454_289989" x1="161.784" y1="264.387" x2="196.962" y2="195.872" gradientUnits="userSpaceOnUse">
<stop stop-color="#808080" stop-opacity="0.251"/>
<stop offset="0.54" stop-color="#808080" stop-opacity="0.122"/>
<stop offset="1" stop-color="#808080" stop-opacity="0.102"/>
</linearGradient>
<linearGradient id="paint2_linear_9454_289989" x1="166.844" y1="100.014" x2="202.028" y2="31.4213" gradientUnits="userSpaceOnUse">
<stop stop-color="#808080" stop-opacity="0.251"/>
<stop offset="0.54" stop-color="#808080" stop-opacity="0.122"/>
<stop offset="1" stop-color="#808080" stop-opacity="0.102"/>
</linearGradient>
<linearGradient id="paint3_linear_9454_289989" x1="181.5" y1="107.621" x2="181.5" y2="43.1133" gradientUnits="userSpaceOnUse">
<stop stop-color="#808080" stop-opacity="0.251"/>
<stop offset="0.54" stop-color="#808080" stop-opacity="0.122"/>
<stop offset="1" stop-color="#808080" stop-opacity="0.102"/>
</linearGradient>
<clipPath id="clip0_9454_289989">
<rect width="352" height="364" fill="white" transform="translate(0.5)"/>
</clipPath>
</defs>
</svg>
