<svg width="21" height="20" viewBox="0 0 21 20" fill="none" xmlns="http://www.w3.org/2000/svg">
<g clip-path="url(#clip0_25265_11124)">
<path d="M17.31 2.75991C15.38 0.919915 12.86 -0.0500851 10.2 -8.50563e-05C7.53 -0.0600851 5.02 0.919915 3.09 2.75991C1.17 4.59992 0.07 7.06991 0 9.73991C0 12.0099 0.82 14.1899 2.3 15.8999L1.85 16.3499C1.59 16.6099 1.42 16.9299 1.35 17.2899C1.28 17.6399 1.31 18.0099 1.45 18.3399C1.59 18.6799 1.83 18.9599 2.13 19.1599C2.43 19.3699 2.78 19.4699 3.14 19.4699H10.42C13 19.4699 15.44 18.4999 17.31 16.7199C19.23 14.8799 20.33 12.3999 20.4 9.72991C20.33 7.06991 19.23 4.59992 17.31 2.75991ZM16.04 15.4399C14.46 16.9399 12.4 17.7399 10.2 17.6699H3.12V17.6199L4.19 16.5499C4.27 16.4599 4.34 16.3599 4.39 16.2499C4.43 16.1399 4.45 16.0299 4.45 15.9099C4.45 15.7899 4.43 15.6699 4.38 15.5599C4.33 15.4499 4.27 15.3499 4.18 15.2699C3.43 14.5499 2.83 13.6999 2.42 12.7499C2.01 11.7899 1.8 10.7799 1.8 9.73991C1.86 7.55991 2.77 5.52991 4.35 4.03992C5.89 2.58992 7.88 1.79991 9.98 1.79991H10.21C12.39 1.75991 14.46 2.53992 16.05 4.03992C17.63 5.52991 18.54 7.55991 18.6 9.72991C18.54 11.9099 17.63 13.9399 16.04 15.4399Z" fill="#9C9C9C"/>
<path d="M11.5894 15.09H8.79938C8.60938 15.09 8.43938 15.02 8.30938 14.89C8.17938 14.76 8.10938 14.58 8.10938 14.4C8.10938 14.22 8.17938 14.04 8.30938 13.91C8.43938 13.78 8.61938 13.71 8.79938 13.71H11.5894C11.7794 13.71 11.9494 13.78 12.0794 13.91C12.2094 14.04 12.2794 14.22 12.2794 14.4C12.2794 14.58 12.2094 14.76 12.0794 14.89C11.9494 15.02 11.7694 15.09 11.5894 15.09Z" fill="#9C9C9C"/>
<path d="M12.2302 13.75C12.0602 13.58 11.8302 13.49 11.5902 13.49H8.80016C8.57016 13.49 8.34016 13.59 8.17016 13.75C8.00016 13.92 7.91016 14.15 7.91016 14.39C7.91016 14.63 8.00016 14.86 8.17016 15.02C8.34016 15.19 8.57016 15.29 8.80016 15.29H11.5902C11.8302 15.29 12.0602 15.19 12.2302 15.02C12.4002 14.86 12.4902 14.62 12.4902 14.39C12.4902 14.16 12.4002 13.92 12.2302 13.75ZM11.5902 14.89H8.80016C8.67016 14.89 8.54016 14.83 8.45016 14.74C8.36016 14.65 8.31016 14.52 8.31016 14.39C8.31016 14.26 8.36016 14.13 8.45016 14.04C8.55016 13.94 8.67016 13.89 8.80016 13.89H11.5902C11.7302 13.89 11.8502 13.94 11.9502 14.04C12.0402 14.13 12.0902 14.26 12.0902 14.39C12.0902 14.52 12.0402 14.65 11.9502 14.74C11.8502 14.83 11.7302 14.89 11.5902 14.89Z" fill="#9C9C9C"/>
<path d="M10.9 13.49V14.39C10.9 14.57 10.82 14.75 10.69 14.88H10.68C10.55 15.01 10.38 15.09 10.2 15.09C10.01 15.09 9.85 15.01 9.72 14.89H9.71C9.57 14.75 9.5 14.57 9.5 14.39V13.49H10.9Z" fill="#9C9C9C"/>
<path d="M10.7008 13.49V14.39C10.7008 14.52 10.6408 14.65 10.5508 14.74C10.3608 14.93 10.0308 14.93 9.85078 14.74C9.75078 14.65 9.70078 14.52 9.70078 14.39V13.49H9.30078V14.39C9.30078 14.56 9.36078 14.74 9.45078 14.89C9.48078 14.94 9.52078 14.98 9.56078 15.02C9.59078 15.05 9.62078 15.07 9.65078 15.09C9.80078 15.22 10.0008 15.29 10.2008 15.29C10.4008 15.29 10.6008 15.22 10.7508 15.09C10.7808 15.07 10.8108 15.05 10.8308 15.02C10.8708 14.98 10.9108 14.94 10.9408 14.89C11.0408 14.74 11.1008 14.56 11.1008 14.39V13.49H10.7008Z" fill="#9C9C9C"/>
<path d="M11.1008 7.87998V13.49H9.3008V8.65998C9.1608 8.58998 9.0408 8.46998 8.9608 8.32998C8.8508 8.14998 8.8208 7.92998 8.8508 7.72998C8.8908 7.51998 8.9908 7.32998 9.1608 7.18998C9.3208 7.05998 9.5208 6.97998 9.7308 6.97998H10.2008C10.4408 6.97998 10.6708 7.07998 10.8308 7.23998C11.0008 7.40998 11.1008 7.63998 11.1008 7.87998Z" fill="#9C9C9C"/>
<path d="M10.2003 6.21996C10.8244 6.21996 11.3303 5.71404 11.3303 5.08996C11.3303 4.46588 10.8244 3.95996 10.2003 3.95996C9.57623 3.95996 9.07031 4.46588 9.07031 5.08996C9.07031 5.71404 9.57623 6.21996 10.2003 6.21996Z" fill="#9C9C9C"/>
</g>
<defs>
<clipPath id="clip0_25265_11124">
<rect width="20.4" height="19.47" fill="white"/>
</clipPath>
</defs>
</svg>
