<svg width="20" height="21" viewBox="0 0 20 21" fill="none" xmlns="http://www.w3.org/2000/svg">
<circle cx="9.5" cy="11.5" r="6.5" fill="#626262"/>
<path fill-rule="evenodd" clip-rule="evenodd" d="M19 10.5C19 13.212 17.8004 15.6439 15.903 17.2939C14.3228 18.6681 12.2585 19.5 10 19.5C7.74147 19.5 5.67724 18.6681 4.09705 17.2939C2.19956 15.6439 1 13.212 1 10.5C1 5.52944 5.02944 1.5 10 1.5C14.9706 1.5 19 5.52944 19 10.5ZM10 16.8C11.581 16.8 13.0259 16.2177 14.1321 15.2558C14.2594 15.145 14.3823 15.0293 14.5003 14.9088C13.5275 13.3353 11.875 12.3 10 12.3C8.12507 12.3 6.47254 13.3353 5.49973 14.9088C5.61777 15.0293 5.74062 15.145 5.86795 15.2558C6.97409 16.2176 8.41905 16.8 10 16.8ZM10 10.5C11.4912 10.5 12.7 9.29117 12.7 7.8C12.7 6.30883 11.4912 5.1 10 5.1C8.50883 5.1 7.3 6.30883 7.3 7.8C7.3 9.29117 8.50883 10.5 10 10.5Z" fill="white"/>
</svg>
