<svg width="25" height="25" viewBox="0 0 25 25" fill="none" xmlns="http://www.w3.org/2000/svg">
<path fill-rule="evenodd" clip-rule="evenodd" d="M0.570801 5.3291C0.570801 2.56768 2.80938 0.329102 5.5708 0.329102H19.5708C22.3322 0.329102 24.5708 2.56768 24.5708 5.3291V19.3291C24.5708 22.0905 22.3322 24.3291 19.5708 24.3291H5.5708C2.80938 24.3291 0.570801 22.0905 0.570801 19.3291V5.3291ZM14.9562 8.7372C14.9561 8.73667 14.9567 8.73628 14.9571 8.73649C15.4121 8.93096 15.6677 9.26696 15.7228 9.74342L15.7351 9.84978C15.7551 10.0231 15.7552 10.2023 15.7356 10.3899C15.6628 11.3659 15.5744 12.3438 15.4716 13.3233C15.4048 13.8154 15.3605 14.3244 15.339 14.8525C15.3539 15.1596 15.2291 15.329 14.9645 15.3596C14.8926 15.3679 14.8167 15.3718 14.734 15.3705C14.0542 15.294 13.6804 14.9569 13.6111 14.357C13.5982 14.2459 13.5937 14.1229 13.5987 13.9878L13.8249 11.8245C13.8957 11.1467 13.4313 10.9615 13.1993 11.6022C12.9096 12.4023 12.713 12.9688 12.6068 13.2995C12.4598 13.7283 12.3241 14.1606 12.1999 14.5976C12.1783 14.6728 12.1456 14.7577 12.106 14.8555C11.9352 15.2567 11.7031 15.4737 11.4073 15.5079C11.2242 15.5291 11.0125 15.4821 10.7721 15.3657C10.6299 15.2998 10.493 15.2284 10.3602 15.1505C10.1057 15.0056 9.96427 14.8003 9.93375 14.5362C9.92436 14.4549 9.92344 14.363 9.93205 14.259C10.0605 13.0501 10.1691 11.8482 10.258 10.6548C10.3679 9.72649 10.4947 8.61944 10.6401 7.33707C10.7854 6.05351 10.8472 4.96125 10.8253 4.0579C10.8213 3.76045 10.9574 3.59454 11.2328 3.56271C11.2735 3.55801 11.3147 3.55809 11.3567 3.56414C11.699 3.58634 11.995 3.71199 12.2434 3.94003C12.4919 4.16927 12.6348 4.45067 12.6736 4.7865L12.6721 4.9102C12.6729 5.0954 12.6572 5.43148 12.6262 5.91948C12.5953 6.40748 12.5509 6.96849 12.4955 7.60222C12.455 8.06798 12.4136 8.53187 12.3724 8.99428L12.3724 8.99468L12.3276 9.49758C12.2716 10.1265 12.2292 10.6728 12.2 11.1339C12.1708 11.5951 12.1627 11.8818 12.1757 11.9942C12.1772 12.007 12.1946 12.0097 12.1999 11.998C12.4296 11.4924 12.6213 11.0255 12.7725 10.5967C12.9279 10.1573 13.1653 9.67083 13.4861 9.13964C13.6964 8.81741 13.9438 8.63864 14.2288 8.60571C14.4524 8.57987 14.6949 8.62429 14.9552 8.73792C14.9557 8.73813 14.9562 8.73774 14.9562 8.7372ZM8.86501 10.0864C8.8651 10.0872 8.86549 10.0879 8.86609 10.0883C9.03629 10.2223 9.13144 10.3866 9.15377 10.5799C9.15971 10.6312 9.16197 10.6928 9.15934 10.7645C9.04862 11.5911 8.92275 12.4232 8.78321 13.2628C8.65592 14.0223 8.60114 14.7824 8.61787 15.5422C8.62141 15.7026 8.65961 15.8648 8.63079 16.0226C8.61688 16.0988 8.58698 16.1695 8.54115 16.2348C8.46378 16.345 8.33948 16.4181 8.20574 16.4335C8.03213 16.4536 7.86769 16.406 7.70989 16.2898C7.24397 15.9222 6.97805 15.4479 6.91106 14.8683C6.8817 14.6142 6.51214 14.5475 6.3807 14.7669C6.30025 14.9012 6.21335 15.0401 6.12007 15.1837C5.82637 15.6343 5.52971 15.9859 5.22864 16.2362C5.06678 16.3579 4.90017 16.428 4.72657 16.4481C4.48232 16.4763 4.23472 16.4335 3.98468 16.317C3.11308 15.914 2.62313 15.244 2.51512 14.3094L2.50987 14.264C2.35177 12.7175 2.69196 11.294 3.5327 9.99179C3.73689 9.71145 3.97087 9.45794 4.23344 9.2314C4.55362 8.96792 4.88186 8.81615 5.2171 8.7774C5.46134 8.74917 5.70816 8.76425 5.95756 8.82262C6.20696 8.88099 6.45553 8.96368 6.70539 9.06802C7.04983 9.19292 7.43139 9.34502 7.84872 9.52325C8.26554 9.70127 8.60354 9.88839 8.8639 10.0845C8.86452 10.085 8.86492 10.0857 8.86501 10.0864ZM6.85423 10.6288C6.91672 10.5502 6.9438 10.4695 6.93441 10.3883C6.92861 10.3381 6.89697 10.2848 6.83845 10.2298C6.68911 10.1029 6.54913 10.0465 6.41623 10.0618C6.26298 10.0795 6.12064 10.1602 5.98802 10.3039C5.85539 10.4476 5.72613 10.5994 5.60009 10.758C4.92905 11.6494 4.51496 12.654 4.3557 13.7745C4.29413 14.0396 4.27851 14.3139 4.31138 14.5983C4.31662 14.6436 4.36181 14.6649 4.39321 14.6319C4.45475 14.5671 4.53933 14.4529 4.64695 14.2895C4.80485 14.0496 4.99444 13.7479 5.21544 13.3821C5.43643 13.0162 5.65674 12.6444 5.87474 12.2631C6.09408 11.883 6.29136 11.5429 6.46925 11.245C6.64581 10.946 6.77498 10.7409 6.85423 10.6288ZM23.0261 8.97665C23.0037 8.7834 22.9086 8.61907 22.7384 8.48514C22.7378 8.48467 22.7374 8.48398 22.7373 8.48322C22.7372 8.48245 22.7368 8.48175 22.7362 8.48128C22.4758 8.28518 22.1378 8.09806 21.721 7.92004C21.3037 7.74181 20.9221 7.58971 20.5777 7.46481C20.3278 7.36047 20.0793 7.27778 19.8299 7.21941C19.5805 7.16104 19.3336 7.14596 19.0894 7.17419C18.7542 7.21294 18.4259 7.36471 18.1057 7.62819C17.8432 7.85473 17.6092 8.10824 17.405 8.38858C16.5643 9.69076 16.2241 11.1143 16.3822 12.6608L16.3874 12.7062C16.4954 13.6407 16.9854 14.3108 17.857 14.7138C18.107 14.8303 18.3546 14.8731 18.5989 14.8449C18.7725 14.8248 18.9391 14.7547 19.1009 14.633C19.402 14.3827 19.6987 14.0311 19.9924 13.5805C20.0856 13.4369 20.1726 13.298 20.253 13.1637C20.3844 12.9443 20.754 13.011 20.7834 13.2651C20.8504 13.8447 21.1163 14.319 21.5822 14.6866C21.74 14.8028 21.9044 14.8504 22.078 14.8303C22.2118 14.8149 22.3361 14.7417 22.4135 14.6316C22.4593 14.5663 22.4892 14.4956 22.5031 14.4194C22.5319 14.2616 22.4937 14.0994 22.4902 13.939C22.4734 13.1792 22.5282 12.4191 22.6555 11.6596C22.7951 10.8199 22.9209 9.98793 23.0316 9.1613C23.0343 9.08954 23.032 9.02804 23.0261 8.97665ZM20.8067 8.78505C20.8161 8.86632 20.789 8.94696 20.7265 9.02563C20.6473 9.13773 20.5181 9.3428 20.3416 9.64175C20.1637 9.93964 19.9664 10.2797 19.747 10.6599C19.529 11.0412 19.3087 11.413 19.0877 11.7789C18.8667 12.1447 18.6772 12.4464 18.5192 12.6863C18.4116 12.8497 18.3271 12.9639 18.2655 13.0286C18.2341 13.0617 18.1889 13.0404 18.1837 12.9951C18.1508 12.7107 18.1664 12.4364 18.228 12.1713C18.3873 11.0508 18.8014 10.0462 19.4724 9.15483C19.5984 8.99615 19.7277 8.84436 19.8603 8.70066C19.9929 8.55696 20.1353 8.47632 20.2885 8.45861C20.4214 8.44325 20.5614 8.49974 20.7107 8.62659C20.7693 8.68159 20.8009 8.73486 20.8067 8.78505ZM19.1711 16.918C19.1797 16.9467 19.3333 16.9046 19.5632 16.8416C20.1828 16.6718 21.3561 16.3503 21.7356 16.8532C21.7845 16.918 21.9284 17.139 21.7092 17.974C21.4306 19.0391 20.914 19.7634 20.6443 20.1416C20.5202 20.3155 20.4484 20.4162 20.4758 20.4433C20.5682 20.5333 21.7845 19.8055 22.4474 18.416C22.6177 18.0587 23.2833 16.6626 22.7564 16.0843C21.9759 15.2242 19.1209 16.7552 19.1711 16.918ZM20.7334 17.1875C20.9548 17.0671 21.1475 17.4019 20.956 17.574C17.179 20.9524 11.742 21.835 7.0237 20.5078C5.64214 20.124 3.92262 19.1434 2.54463 18.1774C2.38517 18.0649 2.51369 17.9935 2.69219 18.0609C5.74805 19.2109 9.26205 19.9705 12.3346 19.6264C15.2595 19.3154 18.1143 18.6075 20.7334 17.1875Z" fill="#0085E0"/>
</svg>
