<svg width="25" height="25" viewBox="0 0 25 25" fill="none" xmlns="http://www.w3.org/2000/svg">
<g clip-path="url(#clip0_27012_16429)">
<path d="M5.59549 10.9541H0.223145C0.325801 12.4007 0.742051 13.7619 1.40439 14.9704C3.55314 14.743 5.27908 13.0757 5.59549 10.9541Z" fill="#FAC33D"/>
<path d="M1.40439 5.53174C0.742051 6.74018 0.325801 8.10143 0.223145 9.54799H5.59549C5.27908 7.42647 3.55314 5.75908 1.40439 5.53174Z" fill="#FAC33D"/>
<path d="M2.24316 4.24699C4.76926 4.8109 6.71363 6.93293 7.0127 9.54809H9.3452V0.424805C6.45863 0.629227 3.91191 2.08324 2.24316 4.24699Z" fill="#FAC33D"/>
<path d="M2.24316 16.2552C3.91191 18.4189 6.45863 19.873 9.3452 20.0774V10.9541H7.0127C6.71363 13.5688 4.76926 15.6908 2.24316 16.2552Z" fill="#FAC33D"/>
<path d="M17.855 4.24699C16.1862 2.08324 13.6395 0.62918 10.7529 0.424805V9.54809H13.0854C13.384 6.93298 15.3289 4.81095 17.855 4.24699Z" fill="#FAC33D"/>
<path d="M10.7529 10.9541V20.0774C12.0092 19.9883 13.2289 19.6621 14.3539 19.1141V15.2858C14.3539 14.9568 14.4411 14.6408 14.6098 14.345C13.7839 13.4211 13.2331 12.2479 13.0854 10.9541H10.7529Z" fill="#FAC33D"/>
<path d="M19.6906 12.2854C19.7825 11.848 19.8443 11.4036 19.8757 10.9541H14.5029C14.6379 11.8616 15.0312 12.6857 15.6059 13.3499C15.7854 13.2336 15.9832 13.1249 16.1989 13.0241C17.1509 12.5788 18.3809 12.3196 19.6906 12.2854Z" fill="#FAC33D"/>
<path d="M14.5029 9.54799H19.8757C19.7731 8.10143 19.3568 6.74018 18.6945 5.53174C16.5453 5.75908 14.8193 7.42647 14.5029 9.54799Z" fill="#FAC33D"/>
<path d="M23.7037 17.5199C22.6993 17.9898 21.3795 18.2486 19.9875 18.2486C18.5955 18.2486 17.2757 17.9898 16.2713 17.5199C16.0806 17.4307 15.9095 17.338 15.7559 17.2432V19.1149C15.8628 19.4275 16.2313 19.7596 16.7864 20.0334C17.6175 20.4434 18.7842 20.6785 19.9875 20.6785C21.1908 20.6785 22.3575 20.4434 23.1886 20.0334C23.7437 19.7596 24.1122 19.4275 24.2191 19.1149V17.2432C24.0655 17.338 23.8944 17.4307 23.7037 17.5199Z" fill="#FAC33D"/>
<path d="M15.8623 15.2836C15.8623 15.5856 16.2496 15.9543 16.873 16.246C17.6828 16.6249 18.8201 16.8422 19.9933 16.8422C21.1664 16.8422 22.3037 16.6249 23.1134 16.246C23.7369 15.9543 24.1242 15.5856 24.1242 15.2836C24.1242 14.9817 23.7369 14.6129 23.1134 14.3213C22.3037 13.9424 21.1664 13.7251 19.9933 13.7251C18.8201 13.7251 17.6828 13.9424 16.873 14.3213C16.2496 14.613 15.8623 14.9817 15.8623 15.2836Z" fill="#FAC33D"/>
<path d="M19.9875 22.0849C18.555 22.0849 17.1973 21.8043 16.1643 21.2948C16.0202 21.2237 15.884 21.1489 15.7559 21.0708V22.4327C15.7559 23.5261 17.6504 24.4125 19.9875 24.4125C22.3245 24.4125 24.2191 23.5261 24.2191 22.4327V21.0708C24.0909 21.1489 23.9548 21.2237 23.8107 21.2948C22.7778 21.8043 21.42 22.0849 19.9875 22.0849Z" fill="#FAC33D"/>
</g>
<defs>
<clipPath id="clip0_27012_16429">
<rect width="24" height="24" fill="white" transform="translate(0.223145 0.418457)"/>
</clipPath>
</defs>
</svg>
