<svg width="20" height="20" viewBox="0 0 20 20" fill="none" xmlns="http://www.w3.org/2000/svg">
<rect width="20" height="20" rx="5" fill="url(#paint0_linear_25332_14255)"/>
<g style="mix-blend-mode:screen" opacity="0.1">
<rect width="20" height="20" fill="url(#paint1_linear_25332_14255)"/>
</g>
<path d="M12.8695 8.93804C12.8885 8.93484 12.9073 8.93204 12.9264 8.92946C12.9012 8.93079 12.8826 8.93421 12.8695 8.93804Z" fill="#FAC33D"/>
<path d="M16.2097 8.36662C15.1225 7.93748 13.19 8.18964 12.979 8.24328C12.9577 8.25032 12.9369 8.25753 12.916 8.26524C12.9301 8.25808 13.3208 8.04297 13.3493 8.03604C14.9151 7.46272 16.9345 7.92188 16.9345 7.92188C16.9345 7.92188 16.9796 7.88797 17.0016 7.87001C17.0023 7.86967 17.003 7.86933 17.0031 7.86882C17.0058 7.86746 17.0073 7.86627 17.009 7.86458C17.0518 7.83052 17.0922 7.79564 17.1312 7.76144C17.1522 7.74315 17.1722 7.72454 17.1914 7.70677C17.2074 7.69188 17.2224 7.67666 17.238 7.66278C17.2994 7.6029 17.3556 7.54305 17.4079 7.48358C17.4601 7.4241 17.4875 7.38277 17.5312 7.32554L17.6131 7.21431C17.6364 7.18225 17.6573 7.15053 17.6782 7.1205C17.6877 7.10515 17.6979 7.09064 17.7071 7.07631C17.7164 7.06147 17.726 7.04729 17.7349 7.03346C17.7436 7.01896 17.7518 7.00547 17.7601 6.99198C17.7759 6.96585 17.791 6.94005 17.8044 6.91595C17.8248 6.88072 17.8425 6.84853 17.8572 6.82038C17.8628 6.80994 17.8688 6.79848 17.8741 6.78904C17.8807 6.77556 17.8863 6.76343 17.8916 6.75232C17.8949 6.74558 17.898 6.73934 17.9003 6.73396C17.9005 6.73345 17.901 6.73361 17.901 6.73361C17.9038 6.72839 17.9051 6.72435 17.907 6.72048C17.9081 6.71862 17.9086 6.71711 17.9091 6.71559C17.9094 6.71458 17.9104 6.71323 17.9106 6.71273C17.9114 6.71188 17.9111 6.71122 17.9112 6.71071L17.9088 6.69932C17.9066 6.69749 17.9032 6.69583 17.9 6.69368C17.8965 6.69085 17.8924 6.68786 17.8872 6.68505C17.8872 6.68505 13.8539 3.62672 8.65385 5.4099L8.64388 5.40108C8.63375 5.39276 8.61944 5.387 8.61146 5.37548C7.46601 3.83584 5.06911 4.28253 5.06911 4.28253L5.06861 4.28237C5.06861 4.28237 6.88487 5.70513 6.10325 6.94452C6.07639 6.9877 5.95491 7.0816 5.95491 7.0816C5.92892 7.10664 5.90309 7.13117 5.8776 7.15637L5.74999 7.28289C5.73517 7.2976 5.72101 7.31198 5.70653 7.32736C5.67839 7.35728 5.65074 7.38569 5.62344 7.41476C5.60995 7.4288 5.5968 7.4435 5.58382 7.4577C5.567 7.47511 5.55102 7.49336 5.53538 7.5106C5.51591 7.53273 5.49593 7.5547 5.47713 7.5765L5.47663 7.57633C5.45716 7.59847 5.43852 7.61976 5.42089 7.64138L5.34221 7.73412C5.31743 7.76401 5.29332 7.79357 5.27071 7.82194C5.25491 7.84136 5.24045 7.8601 5.22632 7.87783C5.21269 7.89572 5.19923 7.91311 5.18576 7.9305C5.15884 7.96528 5.13441 7.99753 5.11199 8.02875C5.09488 8.05221 5.07893 8.07381 5.06381 8.09457C5.05535 8.10689 5.04705 8.1187 5.03891 8.13001C5.03327 8.13878 5.02745 8.14637 5.02214 8.15413C5.00604 8.17792 4.99143 8.19885 4.97965 8.2179C4.97699 8.22094 4.97467 8.22465 4.97251 8.22786C4.96455 8.24034 4.95741 8.2503 4.95128 8.26058C4.94216 8.27492 4.93453 8.28807 4.92806 8.29768C4.92143 8.3078 4.91745 8.31488 4.9143 8.31944C4.91297 8.3218 4.91232 8.32382 4.91165 8.32416L4.91132 8.32517C4.87892 8.34589 4.84736 8.36744 4.81614 8.38967C4.78742 8.40936 4.75955 8.42988 4.73167 8.4504C4.72683 8.45329 4.72232 8.45685 4.71765 8.46091C4.69145 8.47974 4.66491 8.49958 4.63888 8.51958C4.63521 8.52229 4.6317 8.5245 4.6277 8.52823C4.6277 8.52823 2.71475 9.84536 2.61237 12.2335C2.60875 12.2429 2.60612 12.251 2.6035 12.2591C2.6165 12.2466 2.63867 12.2264 2.67304 12.1996L2.67337 12.1986L2.67353 12.1981C3.63903 11.2361 4.13132 11.2822 4.70404 11.244C4.97782 11.2258 5.2602 11.0368 5.44606 10.8461C5.63792 10.6489 5.84175 10.238 5.98616 9.8932C5.98616 9.8932 6.04455 10.7749 5.29175 11.479C5.29175 11.479 6.01649 12.6286 8.67076 13.6724C9.0236 13.811 8.93432 14.3864 9.08074 14.6829C9.08092 14.684 9.08176 14.6849 9.08211 14.6855C9.08483 14.6909 9.08756 14.6962 9.09028 14.7016C9.12061 14.7611 9.15127 14.8196 9.18224 14.8755C9.19943 14.9067 9.21627 14.9373 9.23295 14.9667C9.28482 15.0561 9.33598 15.1408 9.38896 15.2216C9.40119 15.2407 9.41409 15.2594 9.42531 15.2781C9.43921 15.2971 9.45211 15.3158 9.464 15.3342C9.49166 15.3744 9.52066 15.414 9.54797 15.4519C9.56697 15.4776 9.58612 15.5028 9.60478 15.5278C9.62173 15.5495 9.63867 15.5712 9.65579 15.5924C9.68561 15.6294 9.71509 15.6658 9.7454 15.7013C9.76978 15.7293 9.79315 15.757 9.81736 15.7839C9.84022 15.8097 9.8634 15.8345 9.88674 15.8589C9.90942 15.8835 9.9331 15.9068 9.9556 15.9303C9.97877 15.9535 10.0021 15.9761 10.0244 15.9985C10.0474 16.0204 10.0701 16.0418 10.0931 16.0621C10.1387 16.1037 10.184 16.1429 10.2294 16.18C10.2307 16.181 10.2324 16.1827 10.2346 16.1845C10.3003 16.2382 10.3653 16.2872 10.4284 16.3317C10.4502 16.3472 10.4716 16.362 10.4931 16.3767C10.5141 16.3908 10.5359 16.4046 10.5566 16.418C10.6622 16.4847 10.7625 16.5402 10.8567 16.5853C10.9877 16.6491 11.1057 16.693 11.2043 16.7245C11.2445 16.7364 11.2812 16.7472 11.3142 16.7557C11.3348 16.7607 11.3533 16.7656 11.3717 16.7694C11.3863 16.7724 11.4009 16.7755 11.4135 16.7779C11.4155 16.7786 11.4177 16.7787 11.4202 16.7796C11.4423 16.7839 11.4614 16.7868 11.4764 16.7889C11.4774 16.7892 11.4784 16.7895 11.4796 16.7894C11.4868 16.7911 11.4933 16.7916 11.4987 16.7922C11.5034 16.7932 11.5073 16.7933 11.5105 16.7938L11.512 16.7943C11.5159 16.7944 11.5191 16.7949 11.5214 16.7946C11.5224 16.7949 11.5236 16.7947 11.5236 16.7947C7.99584 12.4296 13.4528 12.0012 13.5631 11.9929C12.9585 11.8545 12.4063 11.8057 11.9149 11.8118C10.3285 11.8303 9.37744 12.4215 9.37744 12.4215L9.27449 12.2814C9.0464 11.9718 8.91177 11.4381 9.02294 11.0702C9.03226 11.0381 9.04344 11.0071 9.05479 10.9773C9.05512 10.9763 9.05528 10.9758 9.05545 10.9753C9.06911 10.9401 9.08481 10.9073 9.10101 10.8746C9.10763 10.8628 9.11443 10.8522 9.12106 10.8404C9.13282 10.8196 9.1434 10.7991 9.15635 10.7798C9.16514 10.7665 9.17545 10.7537 9.18475 10.7405C9.19554 10.7245 9.20665 10.7074 9.21896 10.6919C9.22943 10.6786 9.24142 10.6657 9.25273 10.6532C9.26505 10.6394 9.27668 10.6242 9.28917 10.6115C9.3025 10.598 9.31466 10.5863 9.32867 10.5741C9.341 10.5619 9.35399 10.5494 9.36683 10.5374C9.38134 10.5254 9.39568 10.5138 9.41003 10.5023C9.42421 10.4913 9.43739 10.48 9.45241 10.4698C9.46727 10.4584 9.48347 10.448 9.4985 10.4379C9.51352 10.4277 9.52805 10.4173 9.54325 10.4083C9.56012 10.3976 9.5765 10.3884 9.59355 10.3789C9.60942 10.3695 9.62513 10.3607 9.64135 10.352C9.6589 10.3427 9.67679 10.334 9.69469 10.3253C9.71108 10.3178 9.72763 10.3097 9.74453 10.3024C9.76309 10.2934 9.78217 10.2862 9.80141 10.2785C9.81881 10.2713 9.83638 10.2636 9.85428 10.2566C9.87437 10.2497 9.89396 10.2427 9.91338 10.2362C9.93213 10.23 9.95003 10.223 9.96929 10.2169C9.98972 10.2107 10.0096 10.2044 10.0311 10.1985C10.0502 10.193 10.0694 10.187 10.0895 10.1818C10.1098 10.1761 10.506 10.0559 10.5278 10.0507C10.5479 10.0455 10.5685 10.0405 10.5889 10.036C10.61 10.0311 10.6322 10.0266 10.6543 10.0221C10.6754 10.0172 10.6973 10.0132 10.7181 10.0093C10.7408 10.005 10.7627 10.0009 10.7853 9.99658C10.8076 9.99322 10.8296 9.98919 10.8519 9.98583C10.8552 9.98581 10.8573 9.98479 10.8599 9.9851C10.9126 10.0017 10.952 10.0161 10.9708 10.0234C11.9354 10.3937 12.5893 11.1944 12.6096 11.2194C12.6147 11.197 12.7334 10.5877 12.4372 9.90045C12.4045 9.82568 12.3682 9.75025 12.3252 9.67489C12.4062 9.61972 12.8024 9.61957 13.1146 9.61384C13.3235 9.60974 13.7156 9.55188 13.9323 9.50173C15.1153 9.22538 16.2411 8.48454 16.2411 8.48454L16.3745 8.4174L16.2083 8.36562L16.2097 8.36662ZM17.4976 6.87263C17.3804 6.98412 17.1192 7.28654 17.1192 7.28654C17.1192 7.28654 14.6374 6.61354 12.0321 6.86528C11.8715 7.01957 11.3529 7.67086 11.1372 8.71798C11.1372 8.71798 11.112 8.16682 11.1265 8.02253C11.1382 7.89908 11.169 7.58096 11.2807 7.45876L11.6653 6.83147C11.5257 6.87651 11.3251 6.93912 11.2183 6.98089L10.7664 7.65887C10.7227 7.73506 10.6836 7.83288 10.6642 7.9203C10.6547 7.96133 10.6325 8.07965 10.6249 8.11848C10.5992 8.24909 10.5576 8.46827 10.5576 8.46827L10.5214 8.10886C10.5214 8.10886 10.483 7.71188 10.5667 7.53148L10.8119 6.88008C10.6312 6.93969 10.4157 7.00695 10.3097 7.05677L10.2121 7.37607C10.1699 7.47844 10.142 7.60386 10.1262 7.6936C10.1185 7.73462 10.1071 7.84867 10.1012 7.88748C10.0818 8.01234 10.0791 8.12531 10.0786 8.13908L10.043 8.00474C10.0205 7.92099 9.98067 7.73617 9.98067 7.73617L9.94719 7.32739C9.94719 7.32739 9.92504 7.01941 9.94186 6.93502C8.96119 7.0712 7.98171 7.45107 7.08074 7.87097C6.64672 8.07316 5.57854 8.50959 5.57854 8.50959C5.95702 7.86859 6.18332 7.65304 6.51615 7.30023C6.83184 6.96585 7.21165 6.69862 7.69381 6.44957L7.69431 6.44974L8.19375 6.19905C8.02015 6.21464 7.80355 6.2475 7.63056 6.27667C7.11472 5.18493 5.71052 4.4262 5.71052 4.4262C7.62781 4.4766 8.29365 5.47423 8.4919 5.76577C13.4949 4.11166 17.5983 6.76025 17.5983 6.76025L17.4976 6.87263Z" fill="#FAC33D"/>
<path d="M14.9828 6.32262C14.9337 6.35522 14.8284 6.28922 14.7763 6.31747C14.7629 6.32597 14.7489 6.33312 14.7342 6.34062C14.6914 6.36243 14.6479 6.3829 14.6034 6.40137C14.5438 6.42498 14.4829 6.44592 14.42 6.45731C14.4044 6.46061 14.3885 6.46325 14.3731 6.46438C14.3571 6.46534 14.3415 6.46696 14.3252 6.4639C14.3101 6.46234 14.2943 6.46111 14.2802 6.45484C14.2654 6.44891 14.2497 6.44551 14.2362 6.43722C14.1223 6.379 14.0323 6.28334 13.947 6.18866C13.8845 6.11646 13.7265 5.97248 13.6722 5.894C13.654 5.86745 13.6357 5.84141 13.6187 5.81468C13.6255 5.81631 13.6332 5.81827 13.6401 5.81939C13.9017 5.87984 14.3277 5.95297 14.5843 6.03243C14.7133 6.06988 14.8276 6.2711 14.9552 6.3131C14.9648 6.31621 14.9737 6.31967 14.9828 6.32262Z" fill="#FAC33D"/>
<defs>
<linearGradient id="paint0_linear_25332_14255" x1="10" y1="0" x2="10" y2="20" gradientUnits="userSpaceOnUse">
<stop stop-color="#17181A"/>
<stop offset="1"/>
</linearGradient>
<linearGradient id="paint1_linear_25332_14255" x1="12.5098" y1="-6.31836" x2="10" y2="20" gradientUnits="userSpaceOnUse">
<stop stop-color="white"/>
<stop offset="1" stop-color="white" stop-opacity="0.01"/>
</linearGradient>
</defs>
</svg>
