<svg width="8" height="17" viewBox="0 0 8 17" fill="none" xmlns="http://www.w3.org/2000/svg">
<path d="M7 8.50278C7 8.27462 6.91404 8.08542 6.72493 7.90735L2.31232 3.71703C2.16905 3.57234 1.98567 3.5 1.77364 3.5C1.34384 3.5 1 3.83389 1 4.25125C1 4.46272 1.08596 4.64636 1.24069 4.79661L5.16046 8.50835L1.24069 12.209C1.08596 12.3592 0.999999 12.5484 0.999999 12.7543C0.999999 13.1717 1.34384 13.5 1.77364 13.5C1.9914 13.5 2.16905 13.4332 2.31232 13.2885L6.72493 9.09822C6.91404 8.92015 6.99427 8.73094 7 8.50278Z" fill="#9C9C9C"/>
</svg>
