<svg width="9" height="16" viewBox="0 0 9 16" fill="none" xmlns="http://www.w3.org/2000/svg">
<path d="M9 7.99555C9 8.3606 8.87106 8.66333 8.58739 8.94825L1.96848 15.6528C1.75358 15.8843 1.47851 16 1.16046 16C0.515759 16 0 15.4658 0 14.798C0 14.4597 0.12894 14.1658 0.361032 13.9254L6.24069 7.98664L0.361032 2.06567C0.12894 1.82526 0 1.52254 0 1.1931C0 0.52532 0.515759 0 1.16046 0C1.48711 0 1.75358 0.106845 1.96848 0.338342L8.58739 7.04285C8.87106 7.32777 8.9914 7.6305 9 7.99555Z" fill="#0085E0"/>
</svg>
