<svg width="11" height="11" viewBox="0 0 11 11" fill="none" xmlns="http://www.w3.org/2000/svg">
<path d="M10.2675 1.27191C10.4441 1.09533 10.4441 0.809024 10.2675 0.632437C10.0909 0.455854 9.80463 0.455854 9.62801 0.632437L8.34515 1.9153C7.89556 1.59715 7.35534 1.42311 6.79718 1.4232C6.38435 1.42329 5.98132 1.51861 5.61751 1.69699C5.50451 1.75243 5.44803 1.7801 5.41371 1.83676C5.38622 1.88211 5.37487 1.95048 5.38617 2.00226C5.40033 2.06696 5.45101 2.11765 5.55244 2.21907L8.68089 5.34753C8.78227 5.4489 8.83296 5.49959 8.89766 5.51375C8.94944 5.52509 9.01785 5.5137 9.06316 5.48625C9.11982 5.45193 9.14753 5.39541 9.20292 5.28241C9.38135 4.91859 9.47667 4.51557 9.47672 4.10274C9.47681 3.54457 9.30276 3.00436 8.98462 2.55477L10.2675 1.27191Z" fill="#9C9C9C"/>
<path d="M5.88383 10.8446C6.42594 11.0059 7.01078 10.8077 7.34317 10.3501C7.99358 9.45472 8.5989 8.32636 8.86049 7.2109C8.90498 7.02107 8.92723 6.92616 8.91692 6.78766C8.90896 6.68099 8.86641 6.5316 8.81694 6.43673C8.75273 6.3136 8.66515 6.22602 8.49002 6.05089L4.93585 2.49672C4.75972 2.32059 4.67169 2.23256 4.55163 2.16894C4.45713 2.11888 4.31569 2.07692 4.20916 2.06738C4.07387 2.05521 3.97407 2.07633 3.77444 2.11861C2.63727 2.35939 1.44669 2.90548 0.549989 3.55688C0.092416 3.88927 -0.105844 4.47416 0.0554599 5.01623L0.0805737 5.1006C0.89884 7.85045 3.0496 10.0013 5.79945 10.8195L5.88383 10.8446Z" fill="#9C9C9C"/>
</svg>
