<svg width="15" height="14" viewBox="0 0 15 14" fill="none" xmlns="http://www.w3.org/2000/svg">
<g id="fi_9070501">
<path id="Vector" d="M3.68072 12.8333H8.98654C10.0065 12.8333 10.8428 12.0681 10.9736 11.0833H11.3199C12.4302 11.0833 13.3337 10.1798 13.3337 9.06957V3.18035C13.3337 2.07009 12.4302 1.16663 11.3199 1.16663H6.01405C4.90379 1.16663 4.00033 2.07009 4.00033 3.18035V3.49996H3.68072C2.57046 3.49996 1.66699 4.40343 1.66699 5.51368V10.8195C1.66699 11.9298 2.57046 12.8333 3.68072 12.8333ZM5.16699 3.18035C5.16699 2.71328 5.54698 2.33329 6.01405 2.33329H11.3199C11.787 2.33329 12.167 2.71328 12.167 3.18035V9.06951C12.167 9.53664 11.787 9.91663 11.3199 9.91663H11.0003V5.51368C11.0003 4.40343 10.0969 3.49996 8.9866 3.49996H5.16699V3.18035ZM2.83366 5.51368C2.83366 5.04661 3.21364 4.66663 3.68072 4.66663H8.98654C9.45368 4.66663 9.83366 5.04661 9.83366 5.51368V10.8195C9.83366 11.2866 9.45368 11.6666 8.9866 11.6666H3.68072C3.21364 11.6666 2.83366 11.2866 2.83366 10.8196V5.51368Z" fill="white"/>
</g>
</svg>
