<svg width="17" height="16" viewBox="0 0 17 16" fill="none" xmlns="http://www.w3.org/2000/svg">
<g id="icons" clip-path="url(#clip0_3339_128157)">
<path id="Vector" d="M12.9138 10.7759C13.5457 10.7759 14.058 10.2643 14.058 9.63309C14.058 9.00191 13.5457 8.49023 12.9138 8.49023C12.2818 8.49023 11.7695 9.00191 11.7695 9.63309C11.7695 10.2643 12.2818 10.7759 12.9138 10.7759Z" fill="white"/>
<path id="Vector_2" d="M15.3654 2.96816V1.95918C15.3654 0.888571 14.5052 0.0159184 13.4333 0H3.21038C0.326923 0 0.0359615 2.36082 0 3.55265V14.0408C0 15.1229 0.878197 16 1.96154 16H15.0385C16.1218 16 17 15.1229 17 14.0408V4.89796C16.9992 3.94286 16.3086 3.12735 15.3654 2.96816ZM3.21038 1.30612H13.4333C13.7827 1.32204 14.0581 1.6098 14.0577 1.95918V2.93878H1.36654C1.53327 1.75347 2.07596 1.30612 3.21038 1.30612ZM15.6923 14.0408C15.6923 14.4016 15.3997 14.6939 15.0385 14.6939H1.96154C1.60029 14.6939 1.30769 14.4016 1.30769 14.0408V4.2449H15.0385C15.3997 4.2449 15.6923 4.53714 15.6923 4.89796V14.0408Z" fill="white"/>
</g>
<defs>
<clipPath id="clip0_3339_128157">
<rect width="17" height="16" fill="white"/>
</clipPath>
</defs>
</svg>
