<svg width="40" height="28" viewBox="0 0 40 28" fill="none" xmlns="http://www.w3.org/2000/svg">
<path fill-rule="evenodd" clip-rule="evenodd" d="M37.7143 5.47728V7.3949C37.7143 7.59099 37.5582 7.75001 37.3656 7.75001H2.34877C2.15618 7.75001 2 7.59099 2 7.3949V5.47728C2 3.28068 3.74889 1.5 5.90626 1.5H33.8081C35.9655 1.5 37.7143 3.28068 37.7143 5.47728ZM2 22.5228V10.3779C2 10.1818 2.15618 10.0228 2.34877 10.0228H37.3656C37.5582 10.0228 37.7143 10.1818 37.7143 10.3779V22.5228C37.7143 24.7194 35.9655 26.5001 33.8081 26.5001H5.90626C3.74889 26.5001 2 24.7194 2 22.5228ZM9.81251 20.8183C10.4289 20.8183 10.9286 20.3094 10.9286 19.6819V18.5455C10.9286 17.918 10.4289 17.4092 9.81251 17.4092H8.69644C8.08009 17.4092 7.58037 17.918 7.58037 18.5455V19.6819C7.58037 20.3094 8.08009 20.8183 8.69644 20.8183H9.81251Z" fill="url(#paint0_linear_25647_58966)"/>
<defs>
<linearGradient id="paint0_linear_25647_58966" x1="4.33733" y1="14" x2="35.2368" y2="14" gradientUnits="userSpaceOnUse">
<stop stop-color="#24A6FF"/>
<stop offset="1" stop-color="#FAC33D"/>
</linearGradient>
</defs>
</svg>
