<svg width="20" height="20" viewBox="0 0 20 20" fill="none" xmlns="http://www.w3.org/2000/svg">
<path d="M2.24864 17.7539C2.13507 17.6467 2.05936 17.5205 2.02151 17.3754C1.98996 17.2303 1.99312 17.0852 2.03097 16.9401C2.06883 16.795 2.14138 16.6688 2.24864 16.5615L8.30542 10.4953L2.24864 4.43849C2.14138 4.33123 2.06883 4.20505 2.03097 4.05994C1.99943 3.91483 1.99943 3.76972 2.03097 3.62461C2.06883 3.4795 2.14138 3.35331 2.24864 3.24606C2.35589 3.13249 2.48208 3.05994 2.62719 3.02839C2.7723 2.99054 2.91741 2.99054 3.06252 3.02839C3.21394 3.05994 3.34327 3.13249 3.45053 3.24606L9.50731 9.30284L15.5641 3.24606C15.6713 3.13249 15.7975 3.05994 15.9426 3.02839C16.0878 2.99054 16.2329 2.99054 16.378 3.02839C16.5231 3.05994 16.6524 3.13249 16.766 3.24606C16.8732 3.35331 16.9458 3.4795 16.9837 3.62461C17.0215 3.76972 17.0215 3.91483 16.9837 4.05994C16.9458 4.20505 16.8732 4.33123 16.766 4.43849L10.7092 10.4953L16.766 16.5615C16.8732 16.6688 16.9426 16.795 16.9742 16.9401C17.012 17.0852 17.012 17.2303 16.9742 17.3754C16.9426 17.5205 16.8732 17.6467 16.766 17.7539C16.6587 17.8675 16.5294 17.9401 16.378 17.9716C16.2329 18.0095 16.0878 18.0095 15.9426 17.9716C15.7975 17.9338 15.6713 17.8612 15.5641 17.7539L9.50731 11.6972L3.45053 17.7539C3.34327 17.8612 3.21709 17.9338 3.07198 17.9716C2.92687 18.0095 2.78176 18.0095 2.63665 17.9716C2.49154 17.9338 2.3622 17.8612 2.24864 17.7539Z" fill="white"/>
</svg>
