<svg width="18" height="18" viewBox="0 0 18 18" fill="none" xmlns="http://www.w3.org/2000/svg">
<path d="M9 18C13.9226 18 18 13.9313 18 9C18 4.07744 13.9226 0 8.99129 0C4.06873 0 0 4.07744 0 9C0 13.9313 4.07744 18 9 18ZM6.1423 12.6941C5.68054 12.6941 5.32333 12.3282 5.32333 11.8577C5.32333 11.6486 5.41046 11.4482 5.56728 11.2914L7.84124 9.00871L5.56728 6.73475C5.41046 6.57793 5.32333 6.37754 5.32333 6.15973C5.32333 5.69797 5.68054 5.34947 6.1423 5.34947C6.37754 5.34947 6.5605 5.42788 6.71733 5.5847L9 7.85866L11.3001 5.57599C11.4656 5.41046 11.6486 5.33204 11.8838 5.33204C12.3369 5.33204 12.6941 5.68925 12.6941 6.15102C12.6941 6.36883 12.6244 6.5605 12.4589 6.72604L10.1762 9.00871L12.4501 11.2827C12.607 11.4395 12.6941 11.6399 12.6941 11.8577C12.6941 12.3282 12.3282 12.6941 11.8664 12.6941C11.6312 12.6941 11.4221 12.607 11.274 12.4501L9 10.1762L6.74347 12.4501C6.57793 12.607 6.37754 12.6941 6.1423 12.6941Z" fill="#FF1010"/>
</svg>
