<svg width="20" height="20" viewBox="0 0 20 20" fill="none" xmlns="http://www.w3.org/2000/svg">
<g id="Frame 48099061">
<path id="Vector" d="M17.6932 10.0009V14.6163C17.6932 16.3156 16.3156 17.6932 14.6163 17.6932H5.38552C3.68618 17.6932 2.30859 16.3156 2.30859 14.6163V5.38552C2.30859 3.68618 3.68618 2.30859 5.38552 2.30859H10.0009M12.8366 3.86455C12.8366 3.86455 12.8366 4.96478 13.9368 6.06501C15.037 7.16524 16.1372 7.16524 16.1372 7.16524M7.81219 13.0698L10.1227 12.7397C10.4559 12.6921 10.7648 12.5377 11.0029 12.2996L17.2375 6.06501C17.8451 5.45737 17.8451 4.47219 17.2375 3.86455L16.1373 2.76432C15.5296 2.15668 14.5444 2.15668 13.9368 2.76432L7.70216 8.99895C7.46411 9.23701 7.30968 9.54585 7.26207 9.87913L6.93201 12.1896C6.85866 12.7031 7.29875 13.1431 7.81219 13.0698Z" stroke="white" stroke-opacity="0.7" stroke-width="1.15385" stroke-linecap="round"/>
</g>
</svg>
