<svg width="19" height="18" viewBox="0 0 19 18" fill="none" xmlns="http://www.w3.org/2000/svg">
<path d="M13.7995 17.6C13.4995 17.6 13.1995 17.6 12.8995 17.4L9.29947 15.6L5.69947 17.4C4.89947 17.8 3.79947 17.6 3.19947 16.9C2.79947 16.4 2.69947 15.9 2.79947 15.3L3.49947 11.4L0.599468 8.6C-0.000532269 8.1 -0.100532 7.3 0.0994677 6.6C0.299468 5.9 0.999468 5.4 1.69947 5.2L5.69947 4.6L7.49947 1.1C7.79947 0.4 8.49947 0 9.29947 0C10.0995 0 10.7995 0.4 11.0995 1.1L12.8995 4.6L16.8995 5.2C17.6995 5.3 18.2995 5.8 18.4995 6.6C18.6995 7.3 18.4995 8.1 17.9995 8.7L15.0995 11.5L15.7995 15.4C15.8995 16 15.7995 16.6 15.3995 17C14.9995 17.4 14.4995 17.7 13.8995 17.7L13.7995 17.6ZM9.29947 13.9C9.49947 13.9 9.69947 13.9 9.89947 14L13.5995 15.9C13.7995 15.9 13.9995 15.9 14.0995 15.8C14.0995 15.8 14.1995 15.6 14.0995 15.5L13.3995 11.5C13.3995 11.1 13.3995 10.6 13.7995 10.3L16.7995 7.4C16.8995 7.3 16.8995 7.1 16.8995 7C16.8995 6.9 16.6995 6.7 16.5995 6.7L12.4995 6.1C12.0995 6.1 11.6995 5.8 11.4995 5.4L9.69947 1.7C9.59947 1.4 9.09947 1.4 8.89947 1.7L7.09947 5.4C6.89947 5.8 6.49947 6.1 6.09947 6.1L1.99947 6.7C1.79947 6.7 1.69947 6.8 1.69947 7C1.69947 7.1 1.69947 7.3 1.79947 7.4L4.79947 10.3C5.09947 10.6 5.29947 11 5.19947 11.5L4.49947 15.5C4.49947 15.6 4.49947 15.7 4.49947 15.8C4.59947 15.9 4.89947 16 4.99947 15.9L8.69947 14C8.89947 14 9.09947 13.9 9.29947 13.9Z" fill="#9C9C9C"/>
</svg>
