<svg width="20" height="20" viewBox="0 0 20 20" fill="none" xmlns="http://www.w3.org/2000/svg">
<g clip-path="url(#clip0_25265_591)">
<path d="M8.99939 11.3999C8.79939 11.3999 8.59939 11.3999 8.39939 11.1999C8.19939 10.9999 8.09939 10.6999 8.19939 10.4999L8.59939 8.2999C8.59939 7.7999 8.89939 7.3999 9.19939 7.0999L15.5994 0.699902C16.4994 -0.200098 17.9994 -0.200098 18.8994 0.699902C19.7994 1.5999 19.7994 3.0999 18.8994 3.9999L12.4994 10.3999C12.1994 10.6999 11.7994 10.8999 11.2994 10.9999L9.09939 11.3999C9.09939 11.3999 8.99939 11.3999 8.89939 11.3999H8.99939ZM17.2994 1.5999C17.0994 1.5999 16.8994 1.5999 16.7994 1.7999L10.3994 8.1999C10.2994 8.2999 10.1994 8.3999 10.1994 8.5999L9.99939 9.6999L11.0994 9.4999C11.1994 9.4999 11.3994 9.4999 11.4994 9.2999L17.8994 2.8999C18.1994 2.5999 18.1994 2.1999 17.8994 1.8999C17.7994 1.7999 17.5994 1.6999 17.3994 1.6999L17.2994 1.5999Z" fill="#0085E0"/>
<path d="M3.9 19.6C3.5 19.6 3.1 19.1999 3.1 18.7999V18C1.4 17.6 0 16.1 0 14.2V6.59995C0 4.49995 1.7 2.69995 3.9 2.69995H9.3C9.7 2.69995 10.1 3.09995 10.1 3.49995C10.1 3.89995 9.7 4.29995 9.3 4.29995H3.9C2.7 4.29995 1.6 5.29995 1.6 6.59995V14.2C1.6 15.4 2.6 16.5 3.9 16.5C5.2 16.5 4.7 16.9 4.7 17.3V17.9C5.2 17.7 5.6 17.4 5.8 16.9C5.9 16.7 6.2 16.5 6.5 16.5H15.8C17 16.5 18.1 15.5 18.1 14.2V6.89995C18.1 6.49995 18.5 6.09995 18.9 6.09995C19.3 6.09995 19.7 6.49995 19.7 6.89995V14.2C19.7 16.3 18 18.1 15.8 18.1H6.9C6.2 19.1 5 19.6 3.8 19.6H3.9Z" fill="#0085E0"/>
<path d="M14.4996 14.6H3.89961C3.49961 14.6 3.09961 14.2 3.09961 13.8C3.09961 13.4 3.49961 13 3.89961 13H14.5996C14.9996 13 15.3996 13.4 15.3996 13.8C15.3996 14.2 14.9996 14.6 14.5996 14.6H14.4996Z" fill="#0085E0"/>
<path d="M5.39961 11.6H3.89961C3.49961 11.6 3.09961 11.2 3.09961 10.8C3.09961 10.4 3.49961 10 3.89961 10H5.39961C5.79961 10 6.19961 10.4 6.19961 10.8C6.19961 11.2 5.79961 11.6 5.39961 11.6Z" fill="#0085E0"/>
</g>
<defs>
<clipPath id="clip0_25265_591">
<rect width="19.6" height="19.6" fill="white"/>
</clipPath>
</defs>
</svg>
