<svg width="20" height="21" viewBox="0 0 20 21" fill="none" xmlns="http://www.w3.org/2000/svg">
<path d="M7.61446 12.9714C4.047 12.9714 1 13.5225 1 15.7251C1 17.9295 4.02763 18.4995 7.61446 18.4995C11.1819 18.4995 14.2289 17.9484 14.2289 15.7458C14.2289 13.5415 11.2013 12.9714 7.61446 12.9714Z" fill="white"/>
<path d="M7.61455 10.8722C10.0442 10.8722 11.9913 8.96542 11.9913 6.58601C11.9913 4.20661 10.0442 2.2998 7.61455 2.2998C5.18576 2.2998 3.23779 4.20661 3.23779 6.58601C3.23779 8.96542 5.18576 10.8722 7.61455 10.8722Z" fill="white"/>
<path d="M13.7548 6.66413C13.7548 7.87583 13.3832 9.00645 12.7315 9.94563C12.6637 10.0422 12.7236 10.1724 12.8416 10.1931C13.0054 10.2199 13.1736 10.2363 13.3453 10.2397C15.0538 10.2837 16.587 9.20654 17.0106 7.58433C17.6384 5.17733 15.7962 3.01611 13.4493 3.01611C13.1948 3.01611 12.9508 3.04199 12.713 3.08942C12.6805 3.09632 12.6452 3.11184 12.6276 3.13944C12.6047 3.1748 12.6215 3.22051 12.6444 3.25069C13.3497 4.21918 13.7548 5.39811 13.7548 6.66413Z" fill="white"/>
<path d="M18.8013 13.2523C18.4886 12.5995 17.7339 12.1519 16.5856 11.932C16.044 11.8026 14.5768 11.6189 13.2127 11.6448C13.1925 11.6474 13.181 11.6612 13.1793 11.6698C13.1766 11.6836 13.1828 11.7043 13.2092 11.719C13.8397 12.0243 16.2765 13.3524 15.97 16.1535C15.9568 16.276 16.0563 16.3795 16.1805 16.3622C16.7802 16.2786 18.3231 15.9534 18.8013 14.9427C19.0663 14.408 19.0663 13.787 18.8013 13.2523Z" fill="#626262"/>
</svg>
