<svg width="24" height="24" viewBox="0 0 24 24" fill="none" xmlns="http://www.w3.org/2000/svg">
<path d="M21.2455 7.16364C21.0123 6.99468 20.7424 6.8835 20.4579 6.83925C20.1734 6.79499 19.8825 6.81893 19.6091 6.90909L17.8545 7.5C17.4775 6.75176 16.901 6.12229 16.1887 5.68111C15.4764 5.23993 14.656 5.00422 13.8182 5H6.54545C5.94854 5 5.35746 5.11757 4.80598 5.346C4.2545 5.57443 3.75342 5.90925 3.33133 6.33133C2.47889 7.18377 2 8.33993 2 9.54545V15C2 16.2055 2.47889 17.3617 3.33133 18.2141C3.75342 18.6362 4.2545 18.971 4.80598 19.1995C5.35746 19.4279 5.94854 19.5455 6.54545 19.5455H13.8182C14.656 19.5412 15.4764 19.3055 16.1887 18.8643C16.901 18.4232 17.4775 17.7937 17.8545 17.0455L19.6091 17.6364C19.7936 17.6982 19.9872 17.7289 20.1818 17.7273C20.664 17.7273 21.1265 17.5357 21.4675 17.1947C21.8084 16.8538 22 16.3913 22 15.9091V8.63636C21.9997 8.3487 21.9312 8.06521 21.8 7.80918C21.6688 7.55316 21.4788 7.33192 21.2455 7.16364ZM10.1818 15.9091H6.54545C6.30435 15.9091 6.07312 15.8133 5.90263 15.6428C5.73214 15.4723 5.63636 15.2411 5.63636 15C5.63636 14.7589 5.73214 14.5277 5.90263 14.3572C6.07312 14.1867 6.30435 14.0909 6.54545 14.0909H10.1818C10.4229 14.0909 10.6542 14.1867 10.8246 14.3572C10.9951 14.5277 11.0909 14.7589 11.0909 15C11.0909 15.2411 10.9951 15.4723 10.8246 15.6428C10.6542 15.8133 10.4229 15.9091 10.1818 15.9091Z" fill="#F4DBBA"/>
</svg>
