<svg width="24" height="18" viewBox="0 0 24 18" fill="none" xmlns="http://www.w3.org/2000/svg">
<path d="M22.787 3.35756C22.515 3.16044 22.2001 3.03073 21.8682 2.9791C21.5363 2.92747 21.1969 2.9554 20.8779 3.06059L18.831 3.74998C18.3911 2.87703 17.7185 2.14265 16.8875 1.62794C16.0565 1.11324 15.0994 0.838235 14.1219 0.833313H5.63701C4.94061 0.833313 4.25103 0.97048 3.60763 1.23698C2.96424 1.50348 2.37964 1.8941 1.88721 2.38653C0.892695 3.38105 0.333984 4.72989 0.333984 6.13634V12.5C0.333984 13.9064 0.892695 15.2553 1.88721 16.2498C2.37964 16.7422 2.96424 17.1328 3.60763 17.3993C4.25103 17.6658 4.94061 17.803 5.63701 17.803H14.1219C15.0994 17.7981 16.0565 17.5231 16.8875 17.0084C17.7185 16.4937 18.3911 15.7593 18.831 14.8863L20.8779 15.5757C21.0932 15.6479 21.319 15.6838 21.5461 15.6818C22.1087 15.6818 22.6482 15.4583 23.046 15.0605C23.4438 14.6627 23.6673 14.1232 23.6673 13.5606V5.07574C23.667 4.74013 23.587 4.40939 23.434 4.11069C23.2809 3.812 23.0592 3.55389 22.787 3.35756ZM9.87944 13.5606H5.63701C5.35572 13.5606 5.08596 13.4488 4.88705 13.2499C4.68815 13.051 4.57641 12.7813 4.57641 12.5C4.57641 12.2187 4.68815 11.9489 4.88705 11.75C5.08596 11.5511 5.35572 11.4394 5.63701 11.4394H9.87944C10.1607 11.4394 10.4305 11.5511 10.6294 11.75C10.8283 11.9489 10.94 12.2187 10.94 12.5C10.94 12.7813 10.8283 13.051 10.6294 13.2499C10.4305 13.4488 10.1607 13.5606 9.87944 13.5606Z" fill="#F4DBBA"/>
</svg>
