<svg width="26" height="27" viewBox="0 0 26 27" fill="none" xmlns="http://www.w3.org/2000/svg">
<path d="M22 10.7108V13.4064C22 13.9803 21.5304 14.4499 20.9565 14.4499C20.3826 14.4499 19.913 13.9803 19.913 13.4064V10.7108C19.913 8.36293 18 6.44988 15.6522 6.44988H10.3478C8 6.44988 6.08696 8.36293 6.08696 10.7108V16.0151C6.08696 18.363 8 20.276 10.3478 20.276H15.6522C16.4174 20.276 17.1652 20.0673 17.8174 19.6673H17.5652C16.9913 19.6673 16.5217 19.1978 16.5217 18.6238C16.5217 18.0499 16.9913 17.5804 17.5652 17.5804H20.5217C20.6261 17.5804 20.713 17.6238 20.7652 17.6499H20.8783L21.2261 18.0064C21.3913 18.1717 21.3913 18.3369 21.3913 18.5369V21.3195C21.2696 21.9456 20.8 22.363 20.2609 22.363C19.687 22.363 19.2174 21.8934 19.2174 21.3195V21.2325C18.1739 21.9543 16.9043 22.363 15.6522 22.363H10.3478C6.84348 22.363 4 19.5195 4 16.0151V10.7108C4 7.2064 6.84348 4.36292 10.3478 4.36292H15.6522C19.1565 4.36292 22 7.2064 22 10.7108Z" fill="white"/>
<path d="M16.452 13.5108C16.4346 13.9369 16.2172 14.3021 15.8694 14.5021L12.3129 16.7543C12.1042 16.8847 11.8694 16.9543 11.6346 16.9543C10.9216 16.9543 10.3477 16.3803 10.3477 15.6673V11.1455C10.3477 10.4325 10.9216 9.85858 11.6346 9.85858C11.8694 9.85858 12.1042 9.92815 12.3129 10.0586L15.8781 12.3195C16.2607 12.589 16.4781 13.0412 16.452 13.5108Z" fill="white"/>
</svg>
