<svg width="18" height="18" viewBox="0 0 18 18" fill="none" xmlns="http://www.w3.org/2000/svg">
<path d="M16.4777 18.0001C16.0299 18.0001 15.6717 17.6419 15.6717 17.1941V16.5672C14.5971 17.4628 13.1642 18.0001 11.7314 18.0001H6.26869C2.77613 18.0001 0 15.1344 0 11.7314V6.26869C0 2.77613 2.86569 0 6.26869 0H11.7314C15.224 0 18.0001 2.86569 18.0001 6.26869V9.04482C18.0001 9.49259 17.6419 9.8508 17.1941 9.8508C16.7464 9.8508 16.3881 9.49259 16.3881 9.04482V6.26869C16.3881 3.67166 14.2389 1.61195 11.7314 1.61195H6.26869C3.67166 1.61195 1.61195 3.76121 1.61195 6.26869V11.7314C1.61195 14.3284 3.76121 16.3881 6.26869 16.3881H11.7314C12.8956 16.3881 13.9702 15.9404 14.7762 15.224H13.7016C13.2538 15.224 12.8956 14.8657 12.8956 14.418C12.8956 13.9702 13.2538 13.612 13.7016 13.612H16.4777C16.5672 13.612 16.6568 13.612 16.7464 13.612C16.8359 13.612 16.9255 13.7016 17.015 13.7016C17.1046 13.7911 17.1941 13.8807 17.2837 13.9702C17.3732 14.0598 17.3732 14.1493 17.3732 14.3284V14.418V17.1941C17.2837 17.6419 16.9255 18.0001 16.4777 18.0001Z" fill="#FAC33D"/>
<path d="M11.8227 8.14938C12.4495 8.59714 12.4495 9.58222 11.8227 9.94043L8.15101 12.2688C7.43459 12.7166 6.53906 12.1792 6.53906 11.3733V6.71653C6.53906 5.91056 7.43459 5.37324 8.15101 5.82101L11.8227 8.14938Z" fill="#FAC33D"/>
</svg>
