<svg width="27" height="27" viewBox="0 0 27 27" fill="none" xmlns="http://www.w3.org/2000/svg">
<g clip-path="url(#clip0_1035_9035)">
<path d="M22.3114 7.3415L14.6604 3.23245C13.6621 2.694 12.456 2.694 11.4577 3.23245L3.82921 7.36295C2.75176 7.94045 2.07801 9.05365 2.07031 10.267V21.504C2.07416 23.3355 3.57016 24.8205 5.41926 24.8288H20.7065C22.5617 24.8288 24.0665 23.3416 24.0703 21.504V10.245C24.0626 9.03165 23.3889 7.919 22.3114 7.3415ZM18.2887 17.016C17.8014 19.5119 15.6042 21.3055 13.0615 21.284C10.5354 21.284 8.36231 19.4954 7.87831 17.016C7.80516 16.5353 8.13571 16.0871 8.61641 16.0139C8.66316 16.0068 8.71101 16.0035 8.75831 16.004C9.19116 15.998 9.56461 16.3076 9.63831 16.7344C10.0371 18.6374 11.9027 19.8562 13.8051 19.458C15.173 19.1715 16.2422 18.1028 16.5287 16.7344C16.6024 16.3076 16.9759 15.998 17.4087 16.004C17.8949 15.9985 18.2931 16.3879 18.2986 16.8741C18.2986 16.9214 18.2959 16.9693 18.2887 17.016Z" fill="#FAC33D"/>
</g>
<defs>
<clipPath id="clip0_1035_9035">
<rect width="22" height="22" fill="white" transform="translate(2.07031 2.82886)"/>
</clipPath>
</defs>
</svg>
