<svg width="27" height="27" viewBox="0 0 27 27" fill="none" xmlns="http://www.w3.org/2000/svg">
<g clip-path="url(#clip0_5639_978)">
<path d="M22.3119 7.34199L14.6609 3.23294C13.6626 2.69449 12.4565 2.69449 11.4582 3.23294L3.8297 7.36344C2.75225 7.94094 2.0785 9.05414 2.0708 10.2674V21.5045C2.07465 23.336 3.57065 24.821 5.41975 24.8292H20.707C22.5622 24.8292 24.0669 23.342 24.0708 21.5045V10.2454C24.0631 9.03214 23.3894 7.91949 22.3119 7.34199ZM18.2892 17.0165C17.8019 19.5124 15.6047 21.3059 13.062 21.2845C10.5359 21.2845 8.3628 19.4959 7.8788 17.0165C7.80565 16.5358 8.1362 16.0875 8.6169 16.0144C8.66365 16.0072 8.7115 16.0039 8.7588 16.0045C9.19165 15.9984 9.5651 16.3081 9.6388 16.7349C10.0376 18.6379 11.9032 19.8567 13.8056 19.4585C15.1735 19.1719 16.2427 18.1033 16.5292 16.7349C16.6029 16.3081 16.9764 15.9984 17.4092 16.0045C17.8954 15.999 18.2936 16.3884 18.2991 16.8746C18.2991 16.9219 18.2964 16.9697 18.2892 17.0165Z" fill="#6A6A6A"/>
</g>
<defs>
<clipPath id="clip0_5639_978">
<rect width="22" height="22" fill="white" transform="translate(2.0708 2.8291)"/>
</clipPath>
</defs>
</svg>
