<svg width="22" height="23" viewBox="0 0 22 23" fill="none" xmlns="http://www.w3.org/2000/svg">
<g clip-path="url(#clip0_24346_159131)">
<path d="M20.2416 5.3415L12.5905 1.23245C11.5923 0.694001 10.3861 0.694001 9.38789 1.23245L1.75939 5.36295C0.681938 5.94045 0.00818828 7.05365 0.000488281 8.26695V19.504C0.00433828 21.3355 1.50034 22.8205 3.34944 22.8288H18.6367C20.4918 22.8288 21.9966 21.3416 22.0005 19.504V8.24495C21.9928 7.03165 21.319 5.919 20.2416 5.3415ZM16.2189 15.016C15.7316 17.5119 13.5343 19.3055 10.9917 19.284C8.46554 19.284 6.29249 17.4954 5.80849 15.016C5.73534 14.5353 6.06589 14.0871 6.54659 14.0139C6.59334 14.0068 6.64119 14.0035 6.68849 14.004C7.12134 13.998 7.49479 14.3076 7.56849 14.7344C7.96724 16.6374 9.83284 17.8562 11.7353 17.458C13.1031 17.1715 14.1723 16.1028 14.4589 14.7344C14.5326 14.3076 14.906 13.998 15.3389 14.004C15.8251 13.9985 16.2233 14.3879 16.2288 14.8741C16.2288 14.9214 16.226 14.9693 16.2189 15.016Z" fill="#FAC33D"/>
</g>
<defs>
<clipPath id="clip0_24346_159131">
<rect width="22" height="22" fill="white" transform="translate(0.000488281 0.828857)"/>
</clipPath>
</defs>
</svg>
