<svg width="18" height="19" viewBox="0 0 18 19" fill="none" xmlns="http://www.w3.org/2000/svg">
<g id="Frame 1000001443">
<g id="Group">
<path id="Vector" d="M6.33594 5C6.0626 5 5.83594 4.77333 5.83594 4.5V2.5C5.83594 2.22667 6.0626 2 6.33594 2C6.60927 2 6.83594 2.22667 6.83594 2.5V4.5C6.83594 4.77333 6.60927 5 6.33594 5Z" fill="white"/>
<path id="Vector_2" d="M11.6641 5C11.3907 5 11.1641 4.77333 11.1641 4.5V2.5C11.1641 2.22667 11.3907 2 11.6641 2C11.9374 2 12.1641 2.22667 12.1641 2.5V4.5C12.1641 4.77333 11.9374 5 11.6641 5Z" fill="white"/>
<path id="Vector_3" d="M6.66667 10.8335C6.58 10.8335 6.49333 10.8135 6.41333 10.7802C6.32667 10.7469 6.26 10.7002 6.19333 10.6402C6.07333 10.5135 6 10.3469 6 10.1669C6 10.0802 6.02 9.99354 6.05333 9.91354C6.08667 9.83354 6.13333 9.7602 6.19333 9.69354C6.26 9.63354 6.32667 9.58687 6.41333 9.55354C6.65333 9.45354 6.95333 9.50687 7.14 9.69354C7.26 9.8202 7.33333 9.99354 7.33333 10.1669C7.33333 10.2069 7.32667 10.2535 7.32 10.3002C7.31333 10.3402 7.3 10.3802 7.28 10.4202C7.26667 10.4602 7.24667 10.5002 7.22 10.5402C7.2 10.5735 7.16667 10.6069 7.14 10.6402C7.01333 10.7602 6.84 10.8335 6.66667 10.8335Z" fill="white"/>
<path id="Vector_4" d="M9.0026 10.8326C8.91594 10.8326 8.82927 10.8126 8.74927 10.7793C8.6626 10.7459 8.59594 10.6993 8.52927 10.6393C8.40927 10.5126 8.33594 10.3459 8.33594 10.1659C8.33594 10.0793 8.35594 9.99259 8.38927 9.91259C8.4226 9.83259 8.46927 9.75926 8.52927 9.69259C8.59594 9.63259 8.6626 9.58593 8.74927 9.55259C8.98927 9.44593 9.28927 9.50593 9.47594 9.69259C9.59594 9.81926 9.66927 9.99259 9.66927 10.1659C9.66927 10.2059 9.6626 10.2526 9.65594 10.2993C9.64927 10.3393 9.63594 10.3793 9.61594 10.4193C9.6026 10.4593 9.5826 10.4993 9.55594 10.5393C9.53594 10.5726 9.5026 10.6059 9.47594 10.6393C9.34927 10.7593 9.17594 10.8326 9.0026 10.8326Z" fill="white"/>
<path id="Vector_5" d="M11.3307 10.8326C11.2441 10.8326 11.1574 10.8126 11.0774 10.7793C10.9907 10.7459 10.9241 10.6993 10.8574 10.6393C10.8307 10.6059 10.8041 10.5726 10.7774 10.5393C10.7507 10.4993 10.7307 10.4593 10.7174 10.4193C10.6974 10.3793 10.6841 10.3393 10.6774 10.2993C10.6707 10.2526 10.6641 10.2059 10.6641 10.1659C10.6641 9.99259 10.7374 9.81926 10.8574 9.69259C10.9241 9.63259 10.9907 9.58593 11.0774 9.55259C11.3241 9.44593 11.6174 9.50593 11.8041 9.69259C11.9241 9.81926 11.9974 9.99259 11.9974 10.1659C11.9974 10.2059 11.9907 10.2526 11.9841 10.2993C11.9774 10.3393 11.9641 10.3793 11.9441 10.4193C11.9307 10.4593 11.9107 10.4993 11.8841 10.5393C11.8641 10.5726 11.8307 10.6059 11.8041 10.6393C11.6774 10.7593 11.5041 10.8326 11.3307 10.8326Z" fill="white"/>
<path id="Vector_6" d="M6.66667 13.1648C6.58 13.1648 6.49333 13.1448 6.41333 13.1115C6.33333 13.0782 6.26 13.0314 6.19333 12.9714C6.07333 12.8448 6 12.6714 6 12.4981C6 12.4114 6.02 12.3248 6.05333 12.2448C6.08667 12.1581 6.13333 12.0848 6.19333 12.0248C6.44 11.7782 6.89333 11.7782 7.14 12.0248C7.26 12.1515 7.33333 12.3248 7.33333 12.4981C7.33333 12.6714 7.26 12.8448 7.14 12.9714C7.01333 13.0914 6.84 13.1648 6.66667 13.1648Z" fill="white"/>
<path id="Vector_7" d="M9.0026 13.1648C8.82927 13.1648 8.65594 13.0914 8.52927 12.9714C8.40927 12.8448 8.33594 12.6714 8.33594 12.4981C8.33594 12.4114 8.35594 12.3248 8.38927 12.2448C8.4226 12.1581 8.46927 12.0848 8.52927 12.0248C8.77594 11.7782 9.22927 11.7782 9.47594 12.0248C9.53594 12.0848 9.5826 12.1581 9.61594 12.2448C9.64927 12.3248 9.66927 12.4114 9.66927 12.4981C9.66927 12.6714 9.59594 12.8448 9.47594 12.9714C9.34927 13.0914 9.17594 13.1648 9.0026 13.1648Z" fill="white"/>
<path id="Vector_8" d="M11.3307 13.166C11.1574 13.166 10.9841 13.0926 10.8574 12.9726C10.7974 12.9126 10.7507 12.8393 10.7174 12.7526C10.6841 12.6726 10.6641 12.586 10.6641 12.4993C10.6641 12.4126 10.6841 12.326 10.7174 12.246C10.7507 12.1593 10.7974 12.086 10.8574 12.026C11.0107 11.8726 11.2441 11.7993 11.4574 11.846C11.5041 11.8526 11.5441 11.866 11.5841 11.886C11.6241 11.8993 11.6641 11.9193 11.7041 11.946C11.7374 11.966 11.7707 11.9993 11.8041 12.026C11.9241 12.1526 11.9974 12.326 11.9974 12.4993C11.9974 12.6726 11.9241 12.846 11.8041 12.9726C11.6774 13.0926 11.5041 13.166 11.3307 13.166Z" fill="white"/>
<path id="Vector_9" d="M14.6693 7.72656H3.33594C3.0626 7.72656 2.83594 7.4999 2.83594 7.22656C2.83594 6.95323 3.0626 6.72656 3.33594 6.72656H14.6693C14.9426 6.72656 15.1693 6.95323 15.1693 7.22656C15.1693 7.4999 14.9426 7.72656 14.6693 7.72656Z" fill="white"/>
<path id="Vector_10" d="M11.6667 16.3333H6.33333C3.9 16.3333 2.5 14.9333 2.5 12.5V6.83333C2.5 4.4 3.9 3 6.33333 3H11.6667C14.1 3 15.5 4.4 15.5 6.83333V12.5C15.5 14.9333 14.1 16.3333 11.6667 16.3333ZM6.33333 4C4.42667 4 3.5 4.92667 3.5 6.83333V12.5C3.5 14.4067 4.42667 15.3333 6.33333 15.3333H11.6667C13.5733 15.3333 14.5 14.4067 14.5 12.5V6.83333C14.5 4.92667 13.5733 4 11.6667 4H6.33333Z" fill="white"/>
</g>
</g>
</svg>
