<svg width="123" height="165" viewBox="0 0 123 165" fill="none" xmlns="http://www.w3.org/2000/svg">
<path d="M0 2C0 0.895429 0.89543 0 2 0H121C122.105 0 123 0.89543 123 2V165H0V2Z" fill="#222222"/>
<g clip-path="url(#clip0_19_17)">
<path fill-rule="evenodd" clip-rule="evenodd" d="M87 79.5C87 93.5833 75.5833 105 61.5 105C47.4167 105 36 93.5833 36 79.5C36 65.4167 47.4167 54 61.5 54C75.5833 54 87 65.4167 87 79.5ZM83.3025 79.5C83.3025 91.5413 73.5411 101.303 61.4999 101.303C49.4587 101.303 39.6973 91.5413 39.6973 79.5C39.6973 67.4588 49.4587 57.6974 61.4999 57.6974C73.5411 57.6974 83.3025 67.4588 83.3025 79.5Z" fill="#96979B"/>
<path fill-rule="evenodd" clip-rule="evenodd" d="M52.3378 73.8305L68.5906 73.8305C69.6581 73.8305 70.5276 74.7001 70.5276 75.7676C70.5276 76.8328 69.6618 77.7009 68.5973 77.7046V77.7046H63.3729H58.1838H50.4568L54.4582 82.0312H61.4783L68.965 90.14L74.8539 90.1471L67.3602 82.0312H68.5906V82.0312C72.0476 82.0312 74.8542 79.2246 74.8542 75.7676C74.8542 72.3129 72.0515 69.5078 68.5978 69.5039C68.5954 69.5039 68.593 69.5039 68.5906 69.5039H48.1384L52.3378 73.8305ZM56.3316 90.1612L52.2595 86.0962L60.3401 86.1315L64.4687 90.1753L56.3316 90.1612Z" fill="#96979B"/>
</g>
<defs>
<clipPath id="clip0_19_17">
<rect width="51" height="51" fill="white" transform="translate(36 54)"/>
</clipPath>
</defs>
</svg>
