<svg width="40" height="41" viewBox="0 0 40 41" fill="none" xmlns="http://www.w3.org/2000/svg">
<g filter="url(#filter0_b_15166_66127)">
<path fill-rule="evenodd" clip-rule="evenodd" d="M32.9697 17.0026V27.8014C33.0483 28.4755 32.9734 29.1586 32.7505 29.7996C32.5276 30.4406 32.1626 31.0229 31.6827 31.5027C31.2028 31.9826 30.6206 32.3477 29.9796 32.5706C29.3386 32.7934 28.6554 32.8684 27.9814 32.7897H12.0186C11.3446 32.8684 10.6614 32.7934 10.0204 32.5706C9.37942 32.3477 8.79716 31.9826 8.31729 31.5027C7.83741 31.0229 7.47235 30.4406 7.24947 29.7996C7.02659 29.1586 6.95166 28.4755 7.0303 27.8014V14.4991C6.95166 13.825 7.02659 13.1419 7.24947 12.5009C7.47235 11.8599 7.83741 11.2776 8.31729 10.7978C8.79716 10.3179 9.37942 9.95282 10.0204 9.72994C10.6614 9.50706 11.3446 9.43213 12.0186 9.51077H23.7246C23.7835 9.51231 23.8413 9.52685 23.8939 9.55336C23.9464 9.57987 23.9925 9.61769 24.0287 9.6641C24.065 9.71051 24.0905 9.76436 24.1035 9.82179C24.1164 9.87923 24.1165 9.93882 24.1037 9.9963C23.7899 11.5506 24.1055 13.1659 24.9814 14.4877C25.8573 15.8095 27.2218 16.7297 28.7755 17.0465C30.0052 17.2923 31.2811 17.1458 32.423 16.6275C32.4839 16.6032 32.5498 16.5943 32.6149 16.6016C32.6801 16.6089 32.7424 16.6321 32.7964 16.6692C32.8505 16.7062 32.8946 16.7561 32.9248 16.8142C32.955 16.8724 32.9704 16.9371 32.9697 17.0026ZM30.8561 24.0262L24.9339 18.104C24.6831 17.8542 24.3435 17.7139 23.9895 17.7139C23.6354 17.7139 23.2958 17.8542 23.045 18.104L16.4737 24.6754C16.3494 24.7972 16.1822 24.8655 16.0081 24.8655C15.834 24.8655 15.6668 24.7972 15.5425 24.6754L14.2921 23.4249C14.0413 23.1751 13.7017 23.0348 13.3476 23.0348C12.9936 23.0348 12.654 23.1751 12.4032 23.4249L9.14147 26.6867C9.06661 26.7614 9.02451 26.8629 9.02441 26.9687V27.8014C9.02441 29.9031 9.91567 30.7944 12.0174 30.7944H27.9801C30.0819 30.7944 30.9731 29.9031 30.9731 27.8014V24.3082C30.973 24.2024 30.9309 24.101 30.8561 24.0262ZM14.0418 18.6981C14.2438 18.7809 14.4602 18.8231 14.6785 18.8223C15.1195 18.8223 15.5425 18.6472 15.8543 18.3353C16.1661 18.0235 16.3413 17.6006 16.3413 17.1596C16.3413 16.7186 16.1661 16.2956 15.8543 15.9838C15.5425 15.672 15.1195 15.4968 14.6785 15.4968H14.6666C14.2256 15.4984 13.8033 15.6751 13.4926 15.988C13.1819 16.301 13.0082 16.7245 13.0098 17.1655C13.0114 17.6065 13.1881 18.0288 13.501 18.3396C13.656 18.4934 13.8397 18.6152 14.0418 18.6981Z" fill="#3A3A3A"/>
<path d="M31.9719 10.8401H30.3091V9.17736C30.3091 8.91276 30.204 8.659 30.0169 8.4719C29.8298 8.2848 29.576 8.17969 29.3114 8.17969C29.0468 8.17969 28.7931 8.2848 28.606 8.4719C28.4189 8.659 28.3138 8.91276 28.3138 9.17736V10.8401H26.651C26.3864 10.8401 26.1326 10.9453 25.9455 11.1324C25.7584 11.3194 25.6533 11.5732 25.6533 11.8378C25.6533 12.1024 25.7584 12.3562 25.9455 12.5433C26.1326 12.7304 26.3864 12.8355 26.651 12.8355H28.3138V14.4983C28.3138 14.7629 28.4189 15.0166 28.606 15.2037C28.7931 15.3908 29.0468 15.4959 29.3114 15.4959C29.576 15.4959 29.8298 15.3908 30.0169 15.2037C30.204 15.0166 30.3091 14.7629 30.3091 14.4983V12.8355H31.9719C32.2365 12.8355 32.4903 12.7304 32.6774 12.5433C32.8645 12.3562 32.9696 12.1024 32.9696 11.8378C32.9696 11.5732 32.8645 11.3194 32.6774 11.1324C32.4903 10.9453 32.2365 10.8401 31.9719 10.8401Z" fill="#3A3A3A"/>
</g>
<defs>
<filter id="filter0_b_15166_66127" x="-10" y="-9.5" width="60" height="60" filterUnits="userSpaceOnUse" color-interpolation-filters="sRGB">
<feFlood flood-opacity="0" result="BackgroundImageFix"/>
<feGaussianBlur in="BackgroundImageFix" stdDeviation="5"/>
<feComposite in2="SourceAlpha" operator="in" result="effect1_backgroundBlur_15166_66127"/>
<feBlend mode="normal" in="SourceGraphic" in2="effect1_backgroundBlur_15166_66127" result="shape"/>
</filter>
</defs>
</svg>
