<svg width="9" height="16" viewBox="0 0 9 16" fill="none" xmlns="http://www.w3.org/2000/svg">
<path d="M0 7.99555C0 8.3606 0.12894 8.66333 0.412607 8.94825L7.03152 15.6528C7.24642 15.8843 7.52149 16 7.83954 16C8.48424 16 9 15.4658 9 14.798C9 14.4597 8.87106 14.1658 8.63897 13.9254L2.75931 7.98664L8.63897 2.06567C8.87106 1.82526 9 1.52254 9 1.1931C9 0.52532 8.48424 0 7.83954 0C7.51289 0 7.24642 0.106845 7.03152 0.338342L0.412607 7.04285C0.12894 7.32777 0.00859599 7.6305 0 7.99555Z" fill="white"/>
</svg>
