<svg width="30" height="30" viewBox="0 0 30 30" fill="none" xmlns="http://www.w3.org/2000/svg">
<g id="Frame 48098058">
<g id="Video 1">
<g id="Vector">
<path fill-rule="evenodd" clip-rule="evenodd" d="M13.5408 10.9267C12.7066 10.4133 12.0254 9.99409 11.4638 9.718C10.8995 9.44058 10.3119 9.23133 9.69341 9.30062C8.79951 9.40077 8.0059 9.89852 7.49849 10.643C7.15413 11.1482 7.0336 11.7614 6.97748 12.4135C6.92152 13.0637 6.92153 13.897 6.92154 14.9291V15.0151C6.92153 16.0472 6.92152 16.8805 6.97748 17.5306C7.0336 18.1827 7.15413 18.796 7.49849 19.3012C8.0059 20.0456 8.79951 20.5434 9.69341 20.6435C10.3119 20.7128 10.8995 20.5036 11.4638 20.2262C12.0255 19.9501 12.7066 19.5309 13.5408 19.0174L13.6198 18.9689C14.4548 18.455 15.1357 18.0359 15.6401 17.656C16.1522 17.2704 16.5961 16.8445 16.8345 16.2739C17.1811 15.4441 17.1811 14.5001 16.8345 13.6703C16.5961 13.0997 16.1522 12.6738 15.6401 12.2881C15.1357 11.9083 14.4548 11.4892 13.6198 10.9753L13.5408 10.9267ZM9.89329 11.0847C9.98723 11.0741 10.1899 11.0921 10.6718 11.3291C11.1476 11.5629 11.7559 11.9362 12.6398 12.4802C13.5234 13.0239 14.1313 13.3992 14.5601 13.7221C14.9891 14.0452 15.1249 14.2352 15.1779 14.3622C15.3396 14.7493 15.3396 15.1949 15.1779 15.582C15.1249 15.709 14.9891 15.899 14.5601 16.222C14.1313 16.545 13.5234 16.9202 12.6398 17.464C11.7559 18.008 11.1476 18.3812 10.6718 18.6151C10.1899 18.852 9.98723 18.87 9.89329 18.8595C9.5444 18.8204 9.20902 18.6233 8.9819 18.2901C8.90522 18.1776 8.81522 17.9476 8.76608 17.3767C8.71755 16.8128 8.71675 16.0573 8.71675 14.9721C8.71675 13.8869 8.71755 13.1313 8.76608 12.5675C8.81522 11.9965 8.90522 11.7666 8.9819 11.654C9.20902 11.3208 9.5444 11.1238 9.89329 11.0847Z" fill="white"/>
<path fill-rule="evenodd" clip-rule="evenodd" d="M15.413 4.58451C14.3785 4.49999 13.0914 4.49999 11.4497 4.5H11.3694C9.72773 4.49999 8.44063 4.49999 7.40617 4.58451C6.35281 4.67057 5.4826 4.84872 4.69495 5.25006C3.40008 5.90982 2.34732 6.96258 1.68756 8.25745C1.28622 9.04511 1.10807 9.91532 1.02201 10.9687C0.93749 12.0031 0.937495 13.2902 0.9375 14.9319V15.0122C0.937495 16.6539 0.93749 17.941 1.02201 18.9755C1.10807 20.0288 1.28622 20.8991 1.68756 21.6867C2.34732 22.9816 3.40008 24.0343 4.69495 24.6941C5.4826 25.0954 6.35281 25.2736 7.40617 25.3597C8.44062 25.4442 9.72768 25.4442 11.3693 25.4442H11.4498C13.0914 25.4442 14.3785 25.4442 15.413 25.3597C16.4663 25.2736 17.3365 25.0954 18.1242 24.6941C19.4191 24.0343 20.4718 22.9816 21.1316 21.6867C21.1915 21.5692 21.2464 21.4498 21.2968 21.3282C22.6931 21.9383 23.8365 22.4335 24.7647 22.6853C25.7519 22.9531 26.7136 23.0082 27.5733 22.4457C28.433 21.8832 28.7676 20.9798 28.9174 19.968C29.0626 18.9881 29.0625 17.6957 29.0625 16.1093V13.8349C29.0625 12.2485 29.0626 10.956 28.9174 9.9762C28.7676 8.96432 28.433 8.06099 27.5733 7.49845C26.7136 6.93592 25.7519 6.99109 24.7647 7.25891C23.8365 7.51071 22.6931 8.0059 21.2968 8.61594C21.2464 8.49433 21.1915 8.37496 21.1316 8.25745C20.4718 6.96258 19.4191 5.90982 18.1242 5.25006C17.3365 4.84872 16.4663 4.67057 15.413 4.58451ZM21.8202 19.5978L21.7363 19.5611C21.8818 18.4192 21.8817 16.9869 21.8817 15.0988V14.8454C21.8817 12.9574 21.8818 11.525 21.7363 10.383L21.8202 10.3463C23.3601 9.67346 24.4224 9.21187 25.2347 8.9915C26.0309 8.77551 26.3671 8.85453 26.5904 9.00065C26.8137 9.14678 27.0207 9.42317 27.1416 10.2392C27.2649 11.0718 27.2673 12.2301 27.2673 13.9106V16.0336C27.2673 17.7141 27.2649 18.8723 27.1416 19.7049C27.0207 20.521 26.8137 20.7974 26.5904 20.9435C26.3671 21.0896 26.0309 21.1687 25.2347 20.9527C24.4224 20.7323 23.3601 20.2707 21.8202 19.5978ZM5.50996 6.8496C6.00236 6.59871 6.61002 6.45075 7.55236 6.37376C8.50518 6.29591 9.71907 6.29521 11.4096 6.29521C13.1001 6.29521 14.314 6.29591 15.2668 6.37376C16.2091 6.45075 16.8168 6.59871 17.3092 6.8496C18.2663 7.33726 19.0444 8.11538 19.532 9.07246C19.6706 9.34444 19.7774 9.65111 19.8582 10.0274C20.0814 11.0667 20.0864 12.4976 20.0864 14.9721C20.0864 17.4459 20.0814 18.8766 19.8584 19.9159C19.7776 20.2926 19.6707 20.5995 19.532 20.8717C19.0444 21.8288 18.2663 22.6069 17.3092 23.0946C16.8168 23.3455 16.2091 23.4934 15.2668 23.5704C14.314 23.6483 13.1001 23.649 11.4096 23.649C9.71907 23.649 8.50518 23.6483 7.55236 23.5704C6.61002 23.4934 6.00236 23.3455 5.50996 23.0946C4.55288 22.6069 3.77476 21.8288 3.2871 20.8717C3.03621 20.3793 2.88825 19.7716 2.81126 18.8293C2.73341 17.8765 2.73271 16.6626 2.73271 14.9721C2.73271 13.2816 2.73341 12.0677 2.81126 11.1149C2.88825 10.1725 3.03621 9.56486 3.2871 9.07246C3.77476 8.11538 4.55288 7.33726 5.50996 6.8496Z" fill="white"/>
</g>
</g>
</g>
</svg>
