<svg width="21" height="28" viewBox="0 0 21 28" fill="none" xmlns="http://www.w3.org/2000/svg">
<g id="Layer_1" clip-path="url(#clip0_3058_102248)">
<g id="Layer 2">
<path id="Vector" d="M10.502 0.21875C6.87945 0.21875 3.93945 3.15875 3.93945 6.78125V10.5612C3.20445 10.8369 2.53508 11.2569 1.95758 11.795C0.146328 13.5931 0.00195312 17.4519 0.00195312 18.5938C0.00195312 19.7356 0.146328 23.5944 1.95758 25.3925C3.55883 26.9806 7.02383 27.7812 10.502 27.7812C13.9801 27.7812 17.4451 26.9938 19.0463 25.4056C20.8576 23.5944 21.002 19.7356 21.002 18.5938C21.002 17.4519 20.8576 13.5931 19.0463 11.795C18.4688 11.2569 17.7995 10.8369 17.0645 10.5612V6.78125C17.0645 3.15875 14.1245 0.21875 10.502 0.21875ZM6.56445 6.78125C6.56445 4.6025 8.3232 2.84375 10.502 2.84375C12.6807 2.84375 14.4395 4.6025 14.4395 6.78125V9.77375C11.8407 9.30125 9.1632 9.30125 6.56445 9.77375V6.78125ZM11.8145 18.5938V19.9062C11.8145 20.6281 11.2238 21.2188 10.502 21.2188C9.78008 21.2188 9.18945 20.6281 9.18945 19.9062V18.5938C8.46758 18.5938 7.87695 18.0031 7.87695 17.2812C7.87695 16.5594 8.46758 15.9688 9.18945 15.9688H11.8145C12.5363 15.9688 13.127 16.5594 13.127 17.2812C13.127 18.0031 12.5363 18.5938 11.8145 18.5938Z" fill="#96979B"/>
</g>
</g>
<defs>
<clipPath id="clip0_3058_102248">
<rect width="21" height="27.5625" fill="white" transform="translate(0 0.21875)"/>
</clipPath>
</defs>
</svg>
