<svg width="16" height="18" viewBox="0 0 16 18" fill="none" xmlns="http://www.w3.org/2000/svg">
<path d="M11.6222 17.1562C11.6222 17.38 11.5333 17.5946 11.375 17.7529C11.2168 17.9111 11.0022 18 10.7784 18H2.82422C2.07855 17.9992 1.36367 17.7026 0.836406 17.1753C0.309141 16.648 0.0125562 15.9332 0.0117188 15.1875V2.8125C0.0125562 2.06684 0.309141 1.35195 0.836406 0.824687C1.36367 0.297423 2.07855 0.00083746 2.82422 0L10.7784 0C11.0022 0 11.2168 0.0888948 11.375 0.247129C11.5333 0.405362 11.6222 0.619974 11.6222 0.84375C11.6222 1.06753 11.5333 1.28214 11.375 1.44037C11.2168 1.59861 11.0022 1.6875 10.7784 1.6875H2.82422C2.52595 1.68783 2.23999 1.80646 2.02908 2.01736C1.81818 2.22827 1.69954 2.51423 1.69922 2.8125V15.1875C1.69954 15.4858 1.81816 15.7717 2.02907 15.9826C2.23998 16.1936 2.52595 16.3122 2.82422 16.3125H10.7784C11.0022 16.3125 11.2168 16.4014 11.375 16.5596C11.5333 16.7179 11.6222 16.9325 11.6222 17.1562ZM15.4385 8.4034L11.4289 4.39376C11.3509 4.31397 11.2578 4.25046 11.155 4.2069C11.0523 4.16333 10.9419 4.14058 10.8303 4.13996C10.7187 4.13935 10.6081 4.16087 10.5049 4.2033C10.4017 4.24572 10.3079 4.3082 10.229 4.38711C10.1501 4.46603 10.0876 4.55982 10.0452 4.66304C10.0028 4.76626 9.98129 4.87688 9.98192 4.98847C9.98256 5.10007 10.0053 5.21043 10.0489 5.31317C10.0925 5.4159 10.156 5.50898 10.2358 5.587L12.8049 8.15625H6.16262C5.93884 8.15625 5.72423 8.24514 5.566 8.40338C5.40777 8.56161 5.31887 8.77622 5.31887 9C5.31887 9.22378 5.40777 9.43839 5.566 9.59662C5.72423 9.75486 5.93884 9.84375 6.16262 9.84375H12.8049L10.2356 12.413C10.1569 12.4912 10.0945 12.5843 10.0518 12.6867C10.0091 12.7892 9.98705 12.8991 9.9869 13.0101C9.98674 13.1211 10.0085 13.231 10.0509 13.3336C10.0933 13.4361 10.1555 13.5293 10.234 13.6078C10.3125 13.6863 10.4057 13.7485 10.5083 13.791C10.6109 13.8334 10.7208 13.8551 10.8318 13.855C10.9428 13.8548 11.0527 13.8328 11.1551 13.7901C11.2576 13.7474 11.3506 13.6849 11.4289 13.6062L15.4385 9.59664C15.5967 9.4384 15.6856 9.22379 15.6856 9.00002C15.6856 8.77624 15.5967 8.56163 15.4385 8.4034Z" fill="#9C9C9C"/>
</svg>
