<svg width="20" height="21" viewBox="0 0 20 21" fill="none" xmlns="http://www.w3.org/2000/svg">
<rect x="8" y="3" width="7" height="15" rx="2" fill="#626262"/>
<path fill-rule="evenodd" clip-rule="evenodd" d="M15.3551 11.5862C15.0847 11.8565 15.0847 12.2948 15.3551 12.5651C15.6254 12.8354 16.0637 12.8354 16.334 12.5651L17.5273 11.3718C18.158 10.7411 18.158 9.71842 17.5273 9.08767L16.334 7.89439C16.0637 7.62407 15.6254 7.62407 15.3551 7.89439C15.0847 8.16472 15.0847 8.603 15.3551 8.87333L16.0193 9.53754L11.2298 9.53754C10.8475 9.53754 10.5376 9.84746 10.5376 10.2298C10.5376 10.612 10.8475 10.922 11.2298 10.922L16.0193 10.922L15.3551 11.5862Z" fill="white"/>
<path d="M2 4.59709C2 3.9476 2.38194 3.34109 3.01783 2.98081L6.44641 1.32951C7.96539 0.468905 10 1.3943 10 2.94578V17.0542C10 18.6057 7.96539 19.5311 6.44641 18.6705L3.01784 17.0163C2.38196 16.656 2.00002 16.0495 2.00002 15.4L2 4.59709Z" fill="white"/>
</svg>
