<svg width="26" height="27" viewBox="0 0 26 27" fill="none" xmlns="http://www.w3.org/2000/svg">
<g clip-path="url(#clip0_25124_61619)">
<path d="M12.8599 2.97705C6.78511 2.97705 1.85986 7.90175 1.85986 13.9771C1.85986 20.0524 6.78511 24.9771 12.8599 24.9771C18.9346 24.9771 23.8599 20.0524 23.8599 13.9771C23.8599 7.90175 18.9352 2.97705 12.8599 2.97705ZM12.8599 6.26605C14.8701 6.26605 16.4987 7.89515 16.4987 9.9043C16.4987 11.9135 14.8701 13.5426 12.8599 13.5426C10.8496 13.5426 9.22216 11.9135 9.22216 9.9043C9.22216 7.89515 10.8507 6.26605 12.8599 6.26605ZM12.8577 22.1011C10.8529 22.1011 9.01701 21.3713 7.60076 20.1623C7.25591 19.8681 7.05681 19.4363 7.05681 18.9837C7.05681 16.946 8.70571 15.3152 10.744 15.3152H14.9774C17.0157 15.3152 18.6585 16.946 18.6585 18.9837C18.6585 19.4369 18.4605 19.8676 18.1151 20.1618C16.6994 21.3707 14.863 22.1011 12.8577 22.1011Z" fill="#6A6A6A"/>
</g>
<defs>
<clipPath id="clip0_25124_61619">
<rect width="22" height="22" fill="white" transform="translate(1.85986 2.97705)"/>
</clipPath>
</defs>
</svg>
