<svg width="26" height="27" viewBox="0 0 24 25" fill="none" xmlns="http://www.w3.org/2000/svg">
<g clip-path="url(#clip0_25124_59190)">
<path d="M12.8594 2.97705C6.78463 2.97705 1.85938 7.90175 1.85938 13.9771C1.85938 20.0524 6.78463 24.9771 12.8594 24.9771C18.9341 24.9771 23.8594 20.0524 23.8594 13.9771C23.8594 7.90175 18.9347 2.97705 12.8594 2.97705ZM12.8594 6.26605C14.8696 6.26605 16.4982 7.89515 16.4982 9.9043C16.4982 11.9135 14.8696 13.5426 12.8594 13.5426C10.8491 13.5426 9.22167 11.9135 9.22167 9.9043C9.22167 7.89515 10.8502 6.26605 12.8594 6.26605ZM12.8572 22.1011C10.8524 22.1011 9.01652 21.3713 7.60028 20.1623C7.25542 19.8681 7.05632 19.4363 7.05632 18.9837C7.05632 16.946 8.70522 15.3152 10.7435 15.3152H14.9769C17.0152 15.3152 18.658 16.946 18.658 18.9837C18.658 19.4369 18.46 19.8676 18.1146 20.1618C16.6989 21.3707 14.8625 22.1011 12.8572 22.1011Z" fill="#0085E0"/>
</g>
<defs>
<clipPath id="clip0_25124_59190">
<rect width="22" height="22" fill="white" transform="translate(1.85938 2.97705)"/>
</clipPath>
</defs>
</svg>
