<svg width="16" height="16" viewBox="0 0 16 16" fill="none" xmlns="http://www.w3.org/2000/svg">
<path d="M12.7661 5.97114C12.9179 5.80976 13.0019 5.59361 13 5.36926C12.9981 5.14491 12.9104 4.9303 12.7559 4.77165C12.6014 4.613 12.3924 4.52301 12.1739 4.52106C11.9554 4.51911 11.7449 4.60536 11.5877 4.76123L8.01024 8.4346L4.43274 4.76123C4.35587 4.6795 4.26391 4.61431 4.16224 4.56947C4.06057 4.52462 3.95122 4.50102 3.84058 4.50003C3.72993 4.49904 3.62019 4.5207 3.51778 4.56372C3.41537 4.60674 3.32232 4.67028 3.24408 4.75062C3.16583 4.83096 3.10396 4.9265 3.06206 5.03166C3.02015 5.13681 2.99907 5.24949 3.00003 5.3631C3.00099 5.47672 3.02398 5.589 3.06766 5.69339C3.11133 5.79779 3.17482 5.89221 3.25441 5.97114L7.42107 10.2495C7.57735 10.4099 7.78927 10.5 8.01024 10.5C8.23121 10.5 8.44313 10.4099 8.59941 10.2495L12.7661 5.97114Z" fill="white"/>
</svg>
