<svg width="24" height="24" viewBox="0 0 24 24" fill="none" xmlns="http://www.w3.org/2000/svg">
<path fill-rule="evenodd" clip-rule="evenodd" d="M2.89211 3.5C1.73495 3.5 0.796875 4.43807 0.796875 5.59524V17.3501C0.796875 18.5073 1.73494 19.4454 2.89211 19.4454H16.204C15.6564 18.7389 15.3304 17.8521 15.3304 16.8891C15.3304 14.5826 17.2002 12.7129 19.5066 12.7129C19.65 12.7129 19.7917 12.7201 19.9313 12.7342V5.59524C19.9313 4.43807 18.9933 3.5 17.8361 3.5H2.89211ZM10.9335 14.434V7.75213H13.6923C14.2434 7.75213 14.7049 7.80139 15.0768 7.89991C15.4486 7.9914 15.7474 8.15677 15.9731 8.39604C16.1989 8.6353 16.3616 8.96957 16.4612 9.39885C16.5608 9.82108 16.6106 10.3665 16.6106 11.035C16.6106 11.7317 16.5608 12.3017 16.4612 12.7451C16.3616 13.1884 16.1989 13.5332 15.9731 13.7795C15.7474 14.0258 15.4486 14.1983 15.0768 14.2968C14.7049 14.3883 14.2434 14.434 13.6923 14.434H10.9335ZM13.4633 9.17717H12.527V13.009H13.4633C13.8484 13.009 14.1505 12.9632 14.3696 12.8717C14.5954 12.7802 14.7547 12.5938 14.8477 12.3123C14.9473 12.0308 14.9971 11.605 14.9971 11.035C14.9971 10.4931 14.9473 10.092 14.8477 9.83164C14.7547 9.56422 14.5954 9.38829 14.3696 9.30384C14.1505 9.2194 13.8484 9.17717 13.4633 9.17717ZM9.52614 14.434V14.4023L7.48438 7.75213H5.29321L3.25144 14.4129V14.434H4.94462C5.05749 14.0751 5.18033 13.6493 5.31313 13.1567H7.46446C7.53749 13.403 7.60389 13.6353 7.66365 13.8534C7.73005 14.0716 7.78649 14.2651 7.83297 14.434H9.52614ZM6.08004 10.2644C6.2062 9.75071 6.30247 9.3144 6.36887 8.9555H6.40871C6.47511 9.3144 6.57139 9.75071 6.69755 10.2644C6.82371 10.7781 6.95982 11.3024 7.1059 11.8373H5.68164C5.82108 11.3024 5.95388 10.7781 6.08004 10.2644Z" fill="#F4DBBA"/>
<path d="M19.6953 20.5C21.6251 20.5 23.1953 18.9299 23.1953 17C23.1953 16.0643 22.8314 15.1853 22.1707 14.5246C21.5099 13.8639 20.631 13.5 19.6953 13.5C17.7654 13.5 16.1953 15.0701 16.1953 17C16.1953 17.9357 16.5592 18.8147 17.2199 19.4754C17.8806 20.1361 18.7596 20.5 19.6953 20.5ZM19.6953 19.9167C19.0137 19.9167 18.3682 19.685 17.8488 19.259L21.9543 15.1534C22.3803 15.6729 22.612 16.3184 22.612 17C22.612 18.6082 21.3035 19.9167 19.6953 19.9167ZM19.6953 14.0833C20.3768 14.0833 21.0224 14.315 21.5417 14.741L17.4363 18.8466C17.0104 18.3271 16.7786 17.6816 16.7786 17C16.7786 15.3918 18.0871 14.0833 19.6953 14.0833Z" fill="#F4DBBA" stroke="#F4DBBA" stroke-width="0.314286"/>
</svg>
