<svg width="28" height="21" viewBox="0 0 28 21" fill="none" xmlns="http://www.w3.org/2000/svg">
<path fill-rule="evenodd" clip-rule="evenodd" d="M3.02493 0.083313C1.86776 0.083313 0.929688 1.02138 0.929688 2.17855V16.591C0.929688 17.7482 1.86776 18.6863 3.02492 18.6863H18.9046C18.2658 17.8621 17.8855 16.8274 17.8855 15.7039C17.8855 13.0131 20.0669 10.8317 22.7577 10.8317C22.925 10.8317 23.0903 10.8401 23.2532 10.8566V2.17855C23.2532 1.02138 22.3151 0.083313 21.158 0.083313H3.02493ZM12.7557 12.8396V5.04413H15.9744C16.6174 5.04413 17.1557 5.1016 17.5895 5.21654C18.0233 5.32328 18.3719 5.51621 18.6353 5.79536C18.8987 6.0745 19.0885 6.46448 19.2047 6.9653C19.3209 7.45791 19.379 8.09419 19.379 8.87416C19.379 9.68696 19.3209 10.352 19.2047 10.8692C19.0885 11.3865 18.8987 11.7888 18.6353 12.0761C18.3719 12.3635 18.0233 12.5646 17.5895 12.6796C17.1557 12.7863 16.6174 12.8396 15.9744 12.8396H12.7557ZM15.7071 6.70668H14.6149V11.1771H15.7071C16.1564 11.1771 16.5089 11.1237 16.7645 11.017C17.0279 10.9103 17.2138 10.6927 17.3223 10.3643C17.4385 10.0359 17.4966 9.53918 17.4966 8.87416C17.4966 8.24198 17.4385 7.774 17.3223 7.47022C17.2138 7.15824 17.0279 6.95299 16.7645 6.85446C16.5089 6.75594 16.1564 6.70668 15.7071 6.70668ZM11.1138 12.8396V12.8027L8.73177 5.04413H6.17541L3.79335 12.815V12.8396H5.76872C5.90041 12.4209 6.04372 11.9242 6.19865 11.3495H8.70853C8.79374 11.6369 8.87121 11.9078 8.94093 12.1623C9.01839 12.4168 9.08424 12.6426 9.13846 12.8396H11.1138ZM7.09338 7.97515C7.24056 7.37581 7.35289 6.86678 7.43035 6.44806H7.47683C7.5543 6.86678 7.66662 7.37581 7.81381 7.97515C7.96099 8.57449 8.11979 9.18614 8.29022 9.81011H6.62858C6.79126 9.18614 6.94619 8.57449 7.09338 7.97515Z" fill="#F4DBBA"/>
<path d="M22.9779 19.9167C25.2293 19.9167 27.0612 18.0849 27.0612 15.8333C27.0612 14.7417 26.6367 13.7162 25.8658 12.9454C25.0949 12.1745 24.0695 11.75 22.9779 11.75C20.7263 11.75 18.8945 13.5817 18.8945 15.8333C18.8945 16.9249 19.319 17.9505 20.0899 18.7213C20.8607 19.4922 21.8863 19.9167 22.9779 19.9167ZM22.9779 19.2361C22.1827 19.2361 21.4296 18.9658 20.8235 18.4688L25.6134 13.679C26.1103 14.2851 26.3806 15.0381 26.3806 15.8333C26.3806 17.7096 24.8541 19.2361 22.9779 19.2361ZM22.9779 12.4306C23.7729 12.4306 24.5261 12.7009 25.132 13.1978L20.3424 17.9877C19.8454 17.3816 19.5751 16.6285 19.5751 15.8333C19.5751 13.9571 21.1016 12.4306 22.9779 12.4306Z" fill="#F4DBBA" stroke="#F4DBBA" stroke-width="0.314286"/>
</svg>
