<svg width="20" height="21" viewBox="0 0 20 21" fill="none" xmlns="http://www.w3.org/2000/svg">
<path d="M14.1647 3.41724H5.83138C3.99043 3.41724 2.49805 4.90962 2.49805 6.75057V15.5006C2.49805 17.3415 3.99043 18.8339 5.83138 18.8339H14.1647C16.0057 18.8339 17.498 17.3415 17.498 15.5006V6.75057C17.498 4.90962 16.0057 3.41724 14.1647 3.41724Z" fill="white"/>
<path fill-rule="evenodd" clip-rule="evenodd" d="M6.04102 8.00098C6.04102 7.6558 6.32084 7.37598 6.66602 7.37598H9.99935C10.3445 7.37598 10.6243 7.6558 10.6243 8.00098C10.6243 8.34615 10.3445 8.62598 9.99935 8.62598H6.66602C6.32084 8.62598 6.04102 8.34615 6.04102 8.00098Z" fill="#626262"/>
<path fill-rule="evenodd" clip-rule="evenodd" d="M6.04102 11.334C6.04102 10.9888 6.32084 10.709 6.66602 10.709H13.3327C13.6779 10.709 13.9577 10.9888 13.9577 11.334C13.9577 11.6792 13.6779 11.959 13.3327 11.959H6.66602C6.32084 11.959 6.04102 11.6792 6.04102 11.334Z" fill="#626262"/>
<path fill-rule="evenodd" clip-rule="evenodd" d="M6.04102 14.667C6.04102 14.3218 6.32084 14.042 6.66602 14.042H13.3327C13.6779 14.042 13.9577 14.3218 13.9577 14.667C13.9577 15.0122 13.6779 15.292 13.3327 15.292H6.66602C6.32084 15.292 6.04102 15.0122 6.04102 14.667Z" fill="#626262"/>
<path fill-rule="evenodd" clip-rule="evenodd" d="M13.3301 1.54199C13.6753 1.54199 13.9551 1.82181 13.9551 2.16699L13.9551 4.66699C13.9551 5.01217 13.6753 5.29199 13.3301 5.29199C12.9849 5.29199 12.7051 5.01217 12.7051 4.66699L12.7051 2.16699C12.7051 1.82181 12.9849 1.54199 13.3301 1.54199Z" fill="#626262"/>
<path fill-rule="evenodd" clip-rule="evenodd" d="M6.66602 1.54199C7.01119 1.54199 7.29102 1.82181 7.29102 2.16699L7.29102 4.66699C7.29102 5.01217 7.01119 5.29199 6.66602 5.29199C6.32084 5.29199 6.04102 5.01217 6.04102 4.66699L6.04102 2.16699C6.04102 1.82181 6.32084 1.54199 6.66602 1.54199Z" fill="#626262"/>
</svg>
