<svg width="18" height="18" viewBox="0 0 18 18" fill="none" xmlns="http://www.w3.org/2000/svg">
<g id="view 2">
<path id="Vector" d="M8.99965 11.7727C10.5301 11.7727 11.7708 10.5321 11.7708 9.0016C11.7708 7.47115 10.5301 6.23047 8.99965 6.23047C7.46919 6.23047 6.22852 7.47115 6.22852 9.0016C6.22852 10.5321 7.46919 11.7727 8.99965 11.7727Z" fill="#B6B6B6"/>
<path id="Vector_2" d="M17.7239 8.23537C15.5938 5.66133 12.3694 3.18359 9.00003 3.18359C5.62999 3.18359 2.40484 5.66306 0.276161 8.23537C-0.0920536 8.68014 -0.0920536 9.32581 0.276161 9.77058C0.811336 10.4173 1.9333 11.6657 3.43179 12.7565C7.20569 15.5038 10.7861 15.5098 14.5683 12.7565C16.0668 11.6657 17.1887 10.4173 17.7239 9.77058C18.091 9.32668 18.093 8.68159 17.7239 8.23537ZM9.00003 5.12339C11.1393 5.12339 12.8796 6.86366 12.8796 9.00297C12.8796 11.1423 11.1393 12.8826 9.00003 12.8826C6.86072 12.8826 5.12045 11.1423 5.12045 9.00297C5.12045 6.86366 6.86072 5.12339 9.00003 5.12339Z" fill="#B6B6B6"/>
</g>
</svg>
