<svg width="18" height="18" viewBox="0 0 18 18" fill="none" xmlns="http://www.w3.org/2000/svg">
<g id="hidden 1" clip-path="url(#clip0_2923_47668)">
<g id="Group">
<path id="Vector" d="M15.3345 5.96215C15.1409 5.79568 14.9464 5.63667 14.7513 5.48438L12.4766 7.75902C12.6152 8.14669 12.691 8.56403 12.691 8.99873C12.691 11.0342 11.035 12.6901 8.99957 12.6901C8.56486 12.6901 8.14752 12.6144 7.75985 12.4758L6.05273 14.1829C7.04963 14.5918 8.03839 14.7995 8.99957 14.7995C10.1477 14.7995 11.3351 14.5043 12.5287 13.9222C13.466 13.465 14.41 12.8301 15.3345 12.0353C16.8973 10.6914 17.8601 9.3626 17.9003 9.30667C18.0327 9.12273 18.0327 8.87477 17.9003 8.6908C17.8601 8.63487 16.8973 7.30603 15.3345 5.96215Z" fill="#B6B6B6"/>
<path id="Vector_2" d="M8.99954 11.6382C10.4534 11.6382 11.6363 10.4554 11.6363 9.00149C11.6363 8.875 11.6268 8.75069 11.6094 8.62891L8.62695 11.6114C8.74877 11.6287 8.87305 11.6382 8.99954 11.6382Z" fill="#B6B6B6"/>
<path id="Vector_3" d="M17.8456 0.154433C17.6397 -0.0514775 17.3058 -0.0514775 17.0998 0.154433L12.9567 4.29753C12.8141 4.2199 12.6716 4.14597 12.5292 4.07653C11.3355 3.49435 10.1481 3.19917 9.00003 3.19917C7.85193 3.19917 6.66453 3.49435 5.4709 4.0765C4.53357 4.53371 3.58955 5.16856 2.66512 5.96337C1.10228 7.30725 0.139491 8.63609 0.0992725 8.69202C-0.0330908 8.87596 -0.0330908 9.12392 0.0992725 9.30789C0.139491 9.36382 1.10224 10.6927 2.66512 12.0365C3.14405 12.4483 3.62826 12.8167 4.11405 13.1401L0.154503 17.0997C-0.0514424 17.3057 -0.0514424 17.6396 0.154503 17.8455C0.257476 17.9485 0.392405 18 0.52737 18C0.662335 18 0.7973 17.9485 0.900237 17.8455L17.8456 0.900167C18.0515 0.694257 18.0515 0.360343 17.8456 0.154433ZM5.30862 8.99996C5.30862 6.96451 6.96459 5.30855 9.00003 5.30855C9.82799 5.30855 10.5931 5.58256 11.2096 6.04465L10.453 6.80121C10.0361 6.52474 9.53669 6.36324 9.00003 6.36324C7.54614 6.36324 6.36331 7.54607 6.36331 8.99996C6.36331 9.53658 6.52482 10.036 6.80128 10.453L6.04472 11.2095C5.58263 10.5931 5.30862 9.82792 5.30862 8.99996Z" fill="#B6B6B6"/>
</g>
</g>
<defs>
<clipPath id="clip0_2923_47668">
<rect width="18" height="18" fill="white"/>
</clipPath>
</defs>
</svg>
