<svg width="305" height="48" viewBox="0 0 305 48" fill="none" xmlns="http://www.w3.org/2000/svg">
<path d="M34.8967 40.1461L37.3019 9.22897H44.6691L41.854 33.4692L61.966 9.22897H68.8527L42.5842 40.1461H34.8967ZM79.9016 9.22897L65.4847 40.1461H58.4379L72.8548 9.22897H79.9016ZM78.936 40.1461H71.8891L86.306 9.22897H97.9974C105.426 9.32574 107.834 12.5191 105.222 18.8089C102.137 25.1956 96.7505 28.3889 89.063 28.3889H84.4185L78.936 40.1461ZM91.1193 14.0189L86.6521 23.5989H90.0154C93.7524 23.5989 96.3654 22.0022 97.8545 18.8089C99.3435 15.6156 98.1662 14.0189 94.3224 14.0189H91.1193Z" fill="url(#paint0_linear_24385_214029)"/>
<path d="M148.823 39.0432H143.198L143.594 38.1935H137.813L137.35 39.1848H131.725L135.753 30.5465H152.785L149.879 36.7774C151.858 36.7774 152.876 36.4942 152.932 35.9278L155.969 29.4137H133.782L128.433 40.8841H122.652L129.915 25.307H163.665L157.921 37.6271C157.012 39.7984 154.088 40.9313 149.148 41.0257C149.688 39.4208 149.8 38.2879 149.483 37.6271L148.823 39.0432ZM162.357 16.3855L158.725 24.1741H135.912L139.544 16.3855H162.357ZM133.041 15.2526L134.956 11.1459H150.738L151.926 8.59691L157.641 8.73852C158.266 8.73852 158.491 8.92733 158.315 9.30496C158.139 9.68259 157.664 9.91861 156.891 10.013L156.363 11.1459H171.831L169.916 15.2526H133.041ZM143.651 19.6425L143.056 20.917H154.619L155.213 19.6425H143.651ZM139.86 33.8036L139.199 35.2197H144.981L145.641 33.8036H139.86ZM202.192 36.211C199.553 37.6271 197.502 39.232 196.041 41.0257C194.069 39.8928 192.402 38.6656 191.039 37.3439C188.504 38.76 185.447 40.1761 181.87 41.5922C181.686 40.6481 180.748 39.4208 179.056 37.9103C178.716 38.1935 178.183 38.6656 177.458 39.3264C176.673 39.8928 176.111 40.3177 175.77 40.6009C174.215 39.468 172.64 38.7128 171.046 38.3351C172.335 37.5799 173.617 36.7302 174.89 35.7861C173.969 35.975 172.691 36.2582 171.057 36.6358C168.501 37.2022 166.606 37.5799 165.372 37.7687C165.168 38.4295 164.754 38.76 164.129 38.76C163.772 38.8544 163.622 38.6184 163.678 38.0519L164.697 33.5204C169.336 32.9539 174.308 32.0099 179.611 30.6882C179.331 31.0658 178.963 31.6322 178.506 32.3875C178.226 32.7651 178.042 33.0483 177.954 33.2372C183.665 28.1392 188.179 22.1443 191.497 15.2526H187.903L190.082 10.5795H208.207L209.248 12.7036L202.839 19.0761H206.432L207.449 20.917C204.563 25.543 201.107 29.6025 197.083 33.0955C198.429 34.2284 200.133 35.2669 202.192 36.211ZM182.347 8.73852L186.686 10.1546C187.179 10.4378 187.286 10.7683 187.005 11.1459C186.725 11.5235 186.242 11.6651 185.557 11.5707C184.036 13.2701 181.833 15.5358 178.95 18.368C179.263 18.368 179.701 18.3208 180.266 18.2264C180.683 18.2264 180.995 18.2264 181.204 18.2264C182.653 16.9047 183.903 15.6774 184.952 14.5446L189.003 16.2439C189.496 16.5271 189.55 16.8575 189.166 17.2352C188.886 17.6128 188.425 17.7072 187.784 17.5184C185.862 19.4065 182.858 22.0499 178.773 25.4486C179.547 25.3542 180.833 25.1653 182.631 24.8821C182.988 24.7877 183.27 24.7405 183.479 24.7405C182.374 26.4398 181.587 27.9032 181.119 29.1304C180.554 29.2249 179.707 29.3665 178.577 29.5553C174.876 30.1217 171.939 30.4993 169.768 30.6882C169.668 31.349 169.335 31.7266 168.771 31.821C168.25 31.821 168.047 31.585 168.163 31.113L168.936 26.4398C169.353 26.4398 169.896 26.3926 170.565 26.2982C171.19 26.2982 171.658 26.2982 171.971 26.2982C173.629 24.9765 175.257 23.6076 176.855 22.1915C175.561 22.2859 174.193 22.4275 172.75 22.6164C172.502 23.3716 172.17 23.7492 171.753 23.7492C171.337 23.7492 171.156 23.466 171.212 22.8996L172.165 18.5097H173.728C177.468 14.7334 180.341 11.4763 182.347 8.73852ZM196.809 15.2526C195.78 17.2352 194.67 19.1705 193.477 21.0586C193.214 24.0797 193.56 26.9119 194.515 29.5553C196.601 27.7615 198.433 25.7318 200.01 23.466H194.542L196.391 19.5009L200.715 15.2526H196.809ZM187.904 28.9888C185.409 32.1043 182.608 34.9837 179.501 37.6271C182.962 36.683 186.078 35.3613 188.85 33.662C188.364 32.2459 188.049 30.6882 187.904 28.9888ZM227.082 20.0674H223.8L221.027 26.015C222.393 25.543 223.663 25.1653 224.836 24.8821C223.66 26.9591 222.919 28.6584 222.615 29.9801C221.398 30.3577 220.054 30.7826 218.584 31.2546L214.093 40.8841H208.937L212.701 32.8123C212.136 32.9067 211.371 33.0955 210.406 33.3788C209.693 33.5676 209.158 33.7092 208.801 33.8036C208.537 34.37 208.205 34.7477 207.804 34.9365C207.344 35.0309 207.089 34.7949 207.041 34.2284L208.012 29.1304C210.419 28.6584 212.797 28.1392 215.144 27.5727L218.644 20.0674H216.925C216.469 20.8226 215.881 21.8611 215.16 23.1828C214.556 24.0325 214.165 24.6461 213.989 25.0237C212.855 24.5517 211.515 24.4101 209.969 24.5989C212.387 21.2003 214.946 16.7159 217.648 11.1459L221.735 11.4291C222.316 11.5235 222.466 11.7595 222.186 12.1372C222.01 12.5148 221.535 12.7508 220.762 12.8452L219.573 15.3942H220.823L223.993 8.59691L229.396 8.73852C229.977 8.83293 230.149 9.02174 229.913 9.30496C229.737 9.68259 229.24 9.96581 228.423 10.1546L225.979 15.3942H229.261L227.082 20.0674ZM230.229 16.6687L232.408 11.9956H239.283L240.934 8.4553L246.271 8.73852C246.791 8.73852 246.964 8.92733 246.788 9.30496C246.656 9.58818 246.233 9.8242 245.52 10.013L244.596 11.9956H251.471L249.291 16.6687H242.416L241.096 19.5009H249.689L247.51 24.1741H225.167L227.346 19.5009H235.783L237.104 16.6687H230.229ZM243.148 26.1566L242.62 27.2895H245.433L243.32 31.821H240.507L238.394 36.3526C237.374 39.6568 234.148 41.2145 228.715 41.0257C229.315 39.5152 229.521 37.9575 229.331 36.3526C231.88 36.919 233.328 36.4942 233.676 35.0781L235.195 31.821H227.695C228.032 33.3316 228.229 35.0309 228.286 36.919L222.115 38.76C222.222 36.9662 222.151 35.2197 221.902 33.5204L226.601 31.821H222.538L224.651 27.2895H237.308L238.562 24.5989L243.965 24.7405C244.486 24.7405 244.658 24.9293 244.482 25.307C244.218 25.8734 243.773 26.1566 243.148 26.1566ZM276.076 41.0257C273.799 38.76 272.314 36.919 271.62 35.5029C268.448 37.3911 264.703 39.2792 260.385 41.1673C260.064 39.8456 259.274 38.5239 258.015 37.2022C262.586 35.2197 266.627 33.1427 270.14 30.9714C269.509 27.8559 269.87 23.8436 271.221 18.9345L277.399 18.0848C276.615 21.1058 276.268 23.7492 276.357 26.015C279.449 23.1828 282.231 19.7841 284.705 15.819H272.674L274.853 11.1459H290.478L292.342 12.8452C287.602 20.7754 282.68 26.8647 277.574 31.113C278.672 33.0011 280.374 34.9365 282.679 36.919C281.209 37.3911 279.178 38.6184 276.587 40.6009C276.395 40.7897 276.224 40.9313 276.076 41.0257ZM255.674 40.8841H250.049L255.529 29.1304C253.003 31.8682 250.718 34.0868 248.676 35.7861C248.66 35.5973 248.688 35.3141 248.759 34.9365C248.906 32.3875 248.805 30.5938 248.456 29.5553C253.122 26.251 256.924 22.8996 259.863 19.5009H255.02L257.199 14.8278H262.199L265.17 8.4553L270.82 8.73852C271.445 8.73852 271.669 8.92733 271.493 9.30496C271.361 9.58818 270.886 9.8242 270.069 10.013L267.824 14.8278H272.511L270.332 19.5009H265.645L265.381 20.0674C266.588 22.6164 267.843 24.5045 269.145 25.7318C267.131 27.1479 265.179 28.9888 263.289 31.2546C262.803 29.8385 262.466 28.328 262.277 26.7231L255.674 40.8841Z" fill="url(#paint1_linear_24385_214029)"/>
<g filter="url(#filter0_d_24385_214029)">
<path d="M34.9785 40.8828L22.9668 6.76953H30.334L38.8223 33.5156L47.6309 6.76953H54.5176L42.666 40.8828H34.9785ZM65.5665 6.76953L65.5665 40.8828H58.5196L58.5196 6.76953H65.5665ZM79.0178 40.8828H71.9709L71.9709 6.76953H83.6623C91.1363 6.8763 95.0334 10.3997 95.3537 17.3398C95.247 24.3867 91.3498 27.9102 83.6623 27.9102H79.0178L79.0178 40.8828ZM79.0178 12.0547L79.0178 22.625H82.3811C86.118 22.625 87.9865 20.8633 87.9865 17.3398C87.9865 13.8164 86.0647 12.0547 82.2209 12.0547H79.0178Z" fill="url(#paint2_linear_24385_214029)"/>
</g>
<g filter="url(#filter1_d_24385_214029)">
<path d="M148.307 38.5625H142.682L142.682 37.625H136.9L136.9 38.7188H131.275L131.275 29.1875H148.307L148.307 36.0625C150.286 36.0625 151.171 35.75 150.963 35.125L150.963 27.9375H128.775L128.775 40.5938H122.994L122.994 23.4062H156.744L156.744 37C156.848 39.3958 154.452 40.6458 149.557 40.75C149.348 38.9792 148.932 37.7292 148.307 37L148.307 38.5625ZM151.275 13.5625L151.275 22.1562H128.463L128.463 13.5625H151.275ZM121.432 12.3125L121.432 7.78125H137.213L137.213 4.96875L142.994 5.125C143.619 5.125 143.932 5.33333 143.932 5.75C143.932 6.16667 143.567 6.42708 142.838 6.53125L142.838 7.78125H158.307L158.307 12.3125H121.432ZM134.088 17.1562L134.088 18.5625H145.65L145.65 17.1562H134.088ZM136.9 32.7812L136.9 34.3438H142.682L142.682 32.7812H136.9ZM200.356 35.4375C198.376 37 197.074 38.7708 196.449 40.75C193.949 39.5 191.71 38.1458 189.731 36.6875C187.856 38.25 185.46 39.8125 182.543 41.375C181.918 40.3333 180.408 38.9792 178.012 37.3125C177.803 37.625 177.491 38.1458 177.074 38.875C176.553 39.5 176.189 39.9688 175.981 40.2812C173.897 39.0312 171.97 38.1979 170.199 37.7812C171.137 36.9479 172.022 36.0104 172.856 34.9688C172.022 35.1771 170.876 35.4896 169.418 35.9062C167.126 36.5312 165.408 36.9479 164.262 37.1562C164.366 37.8854 164.106 38.25 163.481 38.25C163.168 38.3542 162.908 38.0938 162.699 37.4688L161.606 32.4688C165.981 31.8438 170.512 30.8021 175.199 29.3438C175.095 29.7604 174.991 30.3854 174.887 31.2188C174.783 31.6354 174.731 31.9479 174.731 32.1562C178.064 26.5312 179.783 19.9167 179.887 12.3125H176.293L176.293 7.15625H194.418L196.449 9.5L193.012 16.5312H196.606L198.481 18.5625C197.751 23.6667 196.189 28.1458 193.793 32C195.668 33.25 197.856 34.3958 200.356 35.4375ZM167.699 5.125L172.699 6.6875C173.324 7 173.585 7.36458 173.481 7.78125C173.376 8.19792 172.96 8.35417 172.231 8.25C171.501 10.125 170.356 12.625 168.793 15.75C169.106 15.75 169.522 15.6979 170.043 15.5938C170.46 15.5938 170.772 15.5938 170.981 15.5938C171.814 14.1354 172.491 12.7812 173.012 11.5312L177.856 13.4062C178.481 13.7188 178.689 14.0833 178.481 14.5C178.376 14.9167 177.96 15.0208 177.231 14.8125C176.189 16.8958 174.418 19.8125 171.918 23.5625C172.647 23.4583 173.845 23.25 175.512 22.9375C175.824 22.8333 176.085 22.7812 176.293 22.7812C175.981 24.6562 175.876 26.2708 175.981 27.625C175.46 27.7292 174.678 27.8854 173.637 28.0938C170.199 28.7188 167.439 29.1354 165.356 29.3438C165.564 30.0729 165.408 30.4896 164.887 30.5938C164.366 30.5938 164.053 30.3333 163.949 29.8125L162.543 24.6562C162.96 24.6562 163.481 24.6042 164.106 24.5C164.731 24.5 165.199 24.5 165.512 24.5C166.553 23.0417 167.543 21.5312 168.481 19.9688C167.231 20.0729 165.928 20.2292 164.574 20.4375C164.678 21.2708 164.522 21.6875 164.106 21.6875C163.689 21.6875 163.376 21.375 163.168 20.75L162.074 15.9062H163.637C165.616 11.7396 166.97 8.14583 167.699 5.125ZM185.199 12.3125C185.095 14.5 184.887 16.6354 184.574 18.7188C185.72 22.0521 187.387 25.1771 189.574 28.0938C190.824 26.1146 191.71 23.875 192.231 21.375H186.762L186.762 17L189.106 12.3125H185.199ZM182.699 27.4688C181.658 30.9062 180.199 34.0833 178.324 37C181.345 35.9583 183.845 34.5 185.824 32.625C184.678 31.0625 183.637 29.3438 182.699 27.4688ZM217.717 17.625H214.436L214.436 24.1875C215.582 23.6667 216.675 23.25 217.717 22.9375C217.509 25.2292 217.561 27.1042 217.873 28.5625C216.832 28.9792 215.686 29.4479 214.436 29.9688L214.436 40.5938H209.28L209.28 31.6875C208.759 31.7917 208.082 32 207.248 32.3125C206.623 32.5208 206.155 32.6771 205.842 32.7812C205.842 33.4062 205.686 33.8229 205.373 34.0312C204.957 34.1354 204.592 33.875 204.28 33.25L202.873 27.625C205.061 27.1042 207.196 26.5312 209.28 25.9062L209.28 17.625H207.561C207.457 18.4583 207.352 19.6042 207.248 21.0625C207.04 22 206.936 22.6771 206.936 23.0938C205.582 22.5729 204.175 22.4167 202.717 22.625C203.55 18.875 204.019 13.9271 204.123 7.78125L208.342 8.09375C208.967 8.19792 209.227 8.45833 209.123 8.875C209.123 9.29167 208.759 9.55208 208.03 9.65625L208.03 12.4688H209.28L209.28 4.96875L214.748 5.125C215.373 5.22917 215.634 5.4375 215.53 5.75C215.53 6.16667 215.165 6.47917 214.436 6.6875L214.436 12.4688H217.717L217.717 17.625ZM219.28 13.875L219.28 8.71875H226.155L226.155 4.8125L231.623 5.125C232.144 5.125 232.405 5.33333 232.405 5.75C232.405 6.0625 232.092 6.32292 231.467 6.53125L231.467 8.71875H238.342L238.342 13.875H231.467L231.467 17H240.061L240.061 22.1562H217.717L217.717 17H226.155L226.155 13.875H219.28ZM236.623 24.3438L236.623 25.5938H239.436L239.436 30.5938H236.623L236.623 35.5938C237.144 39.2396 234.644 40.9583 229.123 40.75C229.019 39.0833 228.498 37.3646 227.561 35.5938C230.373 36.2188 231.623 35.75 231.311 34.1875L231.311 30.5938H223.811C224.852 32.2604 225.842 34.1354 226.78 36.2188L221.467 38.25C220.738 36.2708 219.852 34.3438 218.811 32.4688L222.717 30.5938H218.655L218.655 25.5938H231.311L231.311 22.625L236.78 22.7812C237.3 22.7812 237.561 22.9896 237.561 23.4062C237.561 24.0312 237.248 24.3438 236.623 24.3438ZM276.485 40.75C273.151 38.25 270.808 36.2188 269.453 34.6562C267.162 36.7396 264.297 38.8229 260.86 40.9062C259.922 39.4479 258.516 37.9896 256.641 36.5312C260.287 34.3438 263.36 32.0521 265.86 29.6562C263.776 26.2188 262.266 21.7917 261.328 16.375L267.11 15.4375C267.735 18.7708 268.62 21.6875 269.766 24.1875C271.537 21.0625 272.735 17.3125 273.36 12.9375H261.328L261.328 7.78125H276.953L279.61 9.65625C278.568 18.4062 276.485 25.125 273.36 29.8125C275.339 31.8958 277.943 34.0312 281.172 36.2188C279.922 36.7396 278.464 38.0938 276.797 40.2812C276.693 40.4896 276.589 40.6458 276.485 40.75ZM256.016 40.5938H250.391L250.391 27.625C249.141 30.6458 247.891 33.0938 246.641 34.9688C246.537 34.7604 246.433 34.4479 246.328 34.0312C245.287 31.2188 244.349 29.2396 243.516 28.0938C246.641 24.4479 248.881 20.75 250.235 17H245.391L245.391 11.8438H250.391L250.391 4.8125L256.172 5.125C256.797 5.125 257.11 5.33333 257.11 5.75C257.11 6.0625 256.745 6.32292 256.016 6.53125L256.016 11.8438H260.703L260.703 17H256.016L256.016 17.625C258.412 20.4375 260.547 22.5208 262.422 23.875C261.068 25.4375 259.974 27.4688 259.141 29.9688C257.995 28.4062 256.953 26.7396 256.016 24.9688L256.016 40.5938Z" fill="url(#paint3_linear_24385_214029)"/>
</g>
<defs>
<filter id="filter0_d_24385_214029" x="18.9668" y="2.76953" width="84.3867" height="46.1133" filterUnits="userSpaceOnUse" color-interpolation-filters="sRGB">
<feFlood flood-opacity="0" result="BackgroundImageFix"/>
<feColorMatrix in="SourceAlpha" type="matrix" values="0 0 0 0 0 0 0 0 0 0 0 0 0 0 0 0 0 0 127 0" result="hardAlpha"/>
<feOffset dx="2" dy="2"/>
<feGaussianBlur stdDeviation="3"/>
<feComposite in2="hardAlpha" operator="out"/>
<feColorMatrix type="matrix" values="0 0 0 0 0 0 0 0 0 0 0 0 0 0 0 0 0 0 0.35 0"/>
<feBlend mode="normal" in2="BackgroundImageFix" result="effect1_dropShadow_24385_214029"/>
<feBlend mode="normal" in="SourceGraphic" in2="effect1_dropShadow_24385_214029" result="shape"/>
</filter>
<filter id="filter1_d_24385_214029" x="117.432" y="0.8125" width="171.74" height="48.5625" filterUnits="userSpaceOnUse" color-interpolation-filters="sRGB">
<feFlood flood-opacity="0" result="BackgroundImageFix"/>
<feColorMatrix in="SourceAlpha" type="matrix" values="0 0 0 0 0 0 0 0 0 0 0 0 0 0 0 0 0 0 127 0" result="hardAlpha"/>
<feOffset dx="2" dy="2"/>
<feGaussianBlur stdDeviation="3"/>
<feComposite in2="hardAlpha" operator="out"/>
<feColorMatrix type="matrix" values="0 0 0 0 0 0 0 0 0 0 0 0 0 0 0 0 0 0 0.35 0"/>
<feBlend mode="normal" in2="BackgroundImageFix" result="effect1_dropShadow_24385_214029"/>
<feBlend mode="normal" in="SourceGraphic" in2="effect1_dropShadow_24385_214029" result="shape"/>
</filter>
<linearGradient id="paint0_linear_24385_214029" x1="76.7598" y1="4" x2="76.7598" y2="47.5028" gradientUnits="userSpaceOnUse">
<stop stop-color="#322B23" stop-opacity="0"/>
<stop offset="0.8" stop-color="#130E08"/>
</linearGradient>
<linearGradient id="paint1_linear_24385_214029" x1="217.76" y1="5" x2="217.76" y2="47.5965" gradientUnits="userSpaceOnUse">
<stop stop-color="#322B23" stop-opacity="0"/>
<stop offset="0.750517"/>
</linearGradient>
<linearGradient id="paint2_linear_24385_214029" x1="40.7006" y1="4.6" x2="68.9391" y2="50.4932" gradientUnits="userSpaceOnUse">
<stop stop-color="#FFEDD2"/>
<stop offset="1" stop-color="#E2BE95"/>
</linearGradient>
<linearGradient id="paint3_linear_24385_214029" x1="159.455" y1="4.525" x2="175.403" y2="62.0543" gradientUnits="userSpaceOnUse">
<stop stop-color="#FFEDD2"/>
<stop offset="1" stop-color="#E2BE95"/>
</linearGradient>
</defs>
</svg>
