<svg width="19" height="18" viewBox="0 0 19 18" fill="none" xmlns="http://www.w3.org/2000/svg">
<g clip-path="url(#clip0_25265_68657)">
<path d="M16.2116 11.636C15.2314 10.6558 14.0646 9.93013 12.7916 9.49085C14.155 8.55179 15.0508 6.9802 15.0508 5.20312C15.0508 2.33413 12.7167 0 9.84766 0C6.97866 0 4.64453 2.33413 4.64453 5.20312C4.64453 6.9802 5.54028 8.55179 6.90374 9.49085C5.63073 9.93013 4.46397 10.6558 3.48371 11.636C1.78383 13.3359 0.847656 15.596 0.847656 18H2.25391C2.25391 13.8128 5.66044 10.4062 9.84766 10.4062C14.0349 10.4062 17.4414 13.8128 17.4414 18H18.8477C18.8477 15.596 17.9115 13.3359 16.2116 11.636ZM9.84766 9C7.75407 9 6.05078 7.29675 6.05078 5.20312C6.05078 3.1095 7.75407 1.40625 9.84766 1.40625C11.9412 1.40625 13.6445 3.1095 13.6445 5.20312C13.6445 7.29675 11.9412 9 9.84766 9Z" fill="#9C9C9C"/>
</g>
<defs>
<clipPath id="clip0_25265_68657">
<rect width="18" height="18" fill="white" transform="translate(0.847656)"/>
</clipPath>
</defs>
</svg>
