<svg width="12" height="18" viewBox="0 0 14 22" fill="none" xmlns="http://www.w3.org/2000/svg">
<g clip-path="url(#clip0_24397_55995)">
<path fill-rule="evenodd" clip-rule="evenodd" d="M3.56958 21.7257C2.5882 21.7257 1.73722 21.3757 1.05095 20.6826C0.357812 19.9894 0.0078125 19.1384 0.0078125 18.1639V4.4315C0.0078125 3.45012 0.357812 2.59914 1.05095 1.906C1.73722 1.21286 2.5882 0.862854 3.56958 0.862854H10.4323C11.4137 0.862854 12.2647 1.21286 12.9578 1.906C13.6509 2.59914 14.0009 3.45012 14.0009 4.4315V18.1571C14.0009 19.1384 13.6509 19.9894 12.9578 20.6757C12.2647 21.3688 11.4137 21.7188 10.4323 21.7188H3.56958V21.7257ZM3.43919 2.51678C2.95879 2.54424 2.56075 2.72953 2.21075 3.07267C1.8333 3.45012 1.64801 3.8962 1.64801 4.4315V18.1571C1.64801 19.4473 2.27938 20.0786 3.56958 20.0786H10.4323C11.7225 20.0786 12.3539 19.4473 12.3539 18.1571V4.4315C12.3539 3.7864 12.196 3.29914 11.8804 2.98345C11.5853 2.68835 11.146 2.53051 10.5627 2.50992C10.5353 2.86679 10.3843 3.17561 10.1235 3.4364C9.8284 3.7315 9.47154 3.87561 9.05977 3.87561H4.94213C4.00193 3.87561 3.48722 3.40208 3.43919 2.50992V2.51678ZM5.6284 19.413C5.40193 19.413 5.20977 19.3306 5.04507 19.1728C4.88722 19.0149 4.80487 18.8159 4.80487 18.5894C4.80487 18.3629 4.88722 18.1708 5.04507 18.0061C5.20291 17.8482 5.40193 17.7659 5.6284 17.7659H8.3735C8.59997 17.7659 8.79213 17.8482 8.95683 18.0061C9.11468 18.1639 9.19703 18.3629 9.19703 18.5894C9.19703 18.8159 9.11468 19.008 8.95683 19.1728C8.79899 19.3306 8.59997 19.413 8.3735 19.413H5.6284Z" fill="white"/>
</g>
<defs>
<clipPath id="clip0_24397_55995">
<rect width="14" height="22" fill="white" transform="translate(0 0.862915)"/>
</clipPath>
</defs>
</svg>
