<svg width="22" height="22" viewBox="0 0 22 22" fill="none" xmlns="http://www.w3.org/2000/svg">
<g clip-path="url(#clip0_26772_7961)">
<path d="M17.3399 6.84277H4.6523C2.36054 6.84277 0.496094 8.70739 0.496094 10.9991C0.496094 13.2909 2.36054 15.1555 4.6523 15.1555H17.3399C19.6317 15.1555 21.4961 13.2909 21.4961 10.9991C21.4961 8.70739 19.6316 6.84277 17.3399 6.84277ZM17.3399 13.843H4.6523C3.08423 13.843 1.8086 12.5672 1.8086 10.9991C1.8086 9.43111 3.08423 8.15528 4.6523 8.15528H17.3399C18.908 8.15528 20.1836 9.43111 20.1836 10.9991C20.1836 12.5672 18.908 13.843 17.3399 13.843Z" fill="#9C9C9C"/>
<path d="M7.37555 10.0762C7.23971 9.84083 6.9391 9.76007 6.70326 9.89611L6.2694 10.1466V9.64551C6.2694 9.37378 6.0491 9.15332 5.77721 9.15332C5.50532 9.15332 5.28502 9.37378 5.28502 9.64551V10.1465L4.85116 9.89603C4.61581 9.76002 4.31488 9.84074 4.17887 10.0761C4.04286 10.3114 4.12358 10.6125 4.35893 10.7484L4.79283 10.999L4.35897 11.2496C4.12362 11.3855 4.04286 11.6866 4.17891 11.9219C4.27009 12.0799 4.43542 12.168 4.60555 12.168C4.68902 12.168 4.77364 12.1469 4.85116 12.102L5.28502 11.8516V12.3525C5.28502 12.6243 5.50532 12.8447 5.77721 12.8447C6.0491 12.8447 6.2694 12.6243 6.2694 12.3525V11.8516L6.70326 12.102C6.78082 12.1469 6.8654 12.168 6.94886 12.168C7.119 12.168 7.28433 12.0799 7.37551 11.9219C7.51152 11.6866 7.4308 11.3855 7.19545 11.2496L6.76154 10.999L7.19541 10.7484C7.4308 10.6126 7.51156 10.3115 7.37555 10.0762Z" fill="#9C9C9C"/>
<path d="M17.816 10.0762C17.6801 9.84083 17.3795 9.76007 17.1437 9.89611L16.7098 10.1466V9.64551C16.7098 9.37378 16.4895 9.15332 16.2176 9.15332C15.9457 9.15332 15.7255 9.37378 15.7255 9.64551V10.1465L15.2916 9.89603C15.0561 9.76002 14.7552 9.84074 14.6193 10.0761C14.4833 10.3114 14.564 10.6125 14.7994 10.7484L15.2333 10.999L14.7994 11.2496C14.564 11.3855 14.4833 11.6866 14.6193 11.9219C14.7105 12.0799 14.8759 12.168 15.046 12.168C15.1295 12.168 15.2141 12.1469 15.2916 12.102L15.7255 11.8516V12.3525C15.7255 12.6243 15.9457 12.8447 16.2176 12.8447C16.4895 12.8447 16.7098 12.6243 16.7098 12.3525V11.8516L17.1437 12.102C17.2213 12.1469 17.3058 12.168 17.3893 12.168C17.5595 12.168 17.7248 12.0799 17.8159 11.9219C17.9519 11.6866 17.8712 11.3855 17.6359 11.2496L17.2019 10.999L17.6358 10.7484C17.8712 10.6126 17.952 10.3115 17.816 10.0762Z" fill="#9C9C9C"/>
<path d="M12.5923 10.0762C12.4565 9.84083 12.1559 9.76007 11.9201 9.89611L11.4862 10.1465V9.64551C11.4862 9.37378 11.2659 9.15332 10.994 9.15332C10.7221 9.15332 10.5018 9.37378 10.5018 9.64551V10.1465L10.068 9.89603C9.83244 9.76002 9.53167 9.84074 9.39567 10.0761C9.25966 10.3114 9.34038 10.6125 9.57572 10.7484L10.0096 10.999L9.57576 11.2496C9.34042 11.3855 9.25966 11.6866 9.39571 11.9219C9.48688 12.0799 9.65222 12.168 9.82235 12.168C9.90582 12.168 9.99043 12.1469 10.068 12.102L10.5018 11.8516V12.3525C10.5018 12.6243 10.7221 12.8447 10.994 12.8447C11.2659 12.8447 11.4862 12.6243 11.4862 12.3525V11.8516L11.9201 12.102C11.9976 12.1469 12.0822 12.168 12.1657 12.168C12.3358 12.168 12.5012 12.0799 12.5923 11.9219C12.7283 11.6866 12.6476 11.3855 12.4122 11.2496L11.9783 10.999L12.4122 10.7484C12.6476 10.6126 12.7284 10.3115 12.5923 10.0762Z" fill="#9C9C9C"/>
</g>
<defs>
<clipPath id="clip0_26772_7961">
<rect width="21" height="21" fill="white" transform="translate(0.5 0.499023)"/>
</clipPath>
</defs>
</svg>
