<svg width="47" height="50" viewBox="0 0 47 50" fill="none" xmlns="http://www.w3.org/2000/svg">
<path d="M23.5075 1.56917C10.5597 1.56917 0.0133414 12.0488 0 24.9366C0 31.2271 2.42146 37.1307 6.83747 41.56C11.2535 45.996 17.137 48.4375 23.4075 48.4375H23.4208C29.6979 48.4375 35.5948 46.0027 40.0175 41.58C44.4402 37.1573 46.875 31.2671 46.875 24.99C46.875 12.0889 36.4087 1.58251 23.5075 1.5625V1.56917ZM23.4475 15.0306H23.6076C27.5033 15.124 30.6052 18.366 30.5184 22.2617C30.4317 26.1574 27.3298 29.2059 23.4542 29.2059H23.3408C21.433 29.1725 19.6586 28.4054 18.3444 27.0379C17.0236 25.6637 16.3165 23.8426 16.3632 21.9148C16.4499 18.1192 19.6319 15.0306 23.4542 15.0306H23.4475ZM36.6822 40.7128C36.6155 40.9596 36.0151 41.3799 35.3213 41.8735C31.7992 44.3484 27.6767 45.6625 23.3941 45.6625C18.8781 45.6625 14.5755 44.2216 10.96 41.4933C10.2328 40.9463 10.1328 40.6128 10.4597 39.8056C12.3074 35.1962 16.7635 32.1343 21.8132 32.0009C22.0066 32.0009 22.2001 32.0009 22.3869 32.0009H23.3475C23.6009 32.0009 23.8544 31.9942 24.1012 31.9942C29.7046 31.9942 33.607 34.3023 36.0284 39.0518C36.3686 39.7122 36.7489 40.466 36.6822 40.7262V40.7128Z" fill="white" fill-opacity="0.87"/>
</svg>
