<svg width="50" height="50" viewBox="0 0 50 50" fill="none" xmlns="http://www.w3.org/2000/svg">
<rect width="50" height="50" rx="8.06452" fill="white" fill-opacity="0.06"/>
<path fill-rule="evenodd" clip-rule="evenodd" d="M12.668 24.9993C12.668 18.1878 18.1898 12.666 25.0013 12.666C31.8128 12.666 37.3346 18.1878 37.3346 24.9993C37.3346 25.9427 37.2289 26.8603 37.029 27.7411C36.9068 28.2796 37.2444 28.8153 37.7829 28.9375C38.3216 29.0597 38.8573 28.7221 38.9794 28.1836C39.2121 27.1585 39.3346 26.0927 39.3346 24.9993C39.3346 17.0833 32.9174 10.666 25.0013 10.666C17.0852 10.666 10.668 17.0833 10.668 24.9993C10.668 32.9155 17.0852 39.3327 25.0013 39.3327C26.0946 39.3327 27.1605 39.2101 28.1856 38.9775C28.7241 38.8553 29.0617 38.3196 28.9394 37.7809C28.8173 37.2424 28.2816 36.9048 27.743 37.0271C26.8622 37.2269 25.9446 37.3327 25.0013 37.3327C18.1898 37.3327 12.668 31.8108 12.668 24.9993ZM34.3346 29.3327C34.8869 29.3327 35.3346 29.7804 35.3346 30.3327V33.3327H38.3346C38.8869 33.3327 39.3346 33.7804 39.3346 34.3327C39.3346 34.8849 38.8869 35.3327 38.3346 35.3327H35.3346V38.3327C35.3346 38.8849 34.8869 39.3327 34.3346 39.3327C33.7824 39.3327 33.3346 38.8849 33.3346 38.3327V35.3327H30.3346C29.7824 35.3327 29.3346 34.8849 29.3346 34.3327C29.3346 33.7804 29.7824 33.3327 30.3346 33.3327H33.3346V30.3327C33.3346 29.7804 33.7824 29.3327 34.3346 29.3327Z" fill="white"/>
<path d="M28.732 24.0756C29.4431 24.4861 29.4431 25.5125 28.732 25.9231L23.932 28.6944C23.2209 29.105 22.332 28.5917 22.332 27.7706L22.332 22.2281C22.332 21.4069 23.2209 20.8937 23.932 21.3043L28.732 24.0756Z" fill="white"/>
</svg>
