<svg width="22" height="22" viewBox="0 0 22 22" fill="none" xmlns="http://www.w3.org/2000/svg">
<path d="M20.6257 10.4861L12.3757 3.15278C12.2768 3.06378 12.1541 3.00544 12.0227 2.98484C11.8912 2.96424 11.7566 2.98228 11.6353 3.03676C11.5139 3.09123 11.4109 3.1798 11.339 3.29169C11.267 3.40359 11.2291 3.53398 11.2298 3.66703V6.64619H11.0007C8.38806 6.64911 5.8833 7.68825 4.03592 9.53563C2.18853 11.383 1.1494 13.8878 1.14648 16.5004V19.2504C1.14637 19.4052 1.19867 19.5555 1.29487 19.6769C1.39108 19.7982 1.52552 19.8834 1.67632 19.9186C1.72791 19.9313 1.78085 19.9378 1.83398 19.9379C1.96173 19.9379 2.08695 19.9023 2.19559 19.8351C2.30423 19.7679 2.39201 19.6717 2.44907 19.5574L2.6654 19.1239C3.36558 17.7122 4.44726 16.5249 5.78781 15.6967C7.12836 14.8685 8.67414 14.4324 10.2499 14.4379H11.2298V18.3337C11.2294 18.4664 11.2674 18.5964 11.3393 18.7079C11.4112 18.8194 11.5139 18.9077 11.6349 18.9622C11.7559 19.0166 11.8901 19.0347 12.0213 19.0145C12.1524 18.9942 12.2749 18.9364 12.3738 18.8479L20.6238 11.5146C20.6965 11.4501 20.7547 11.3709 20.7946 11.2823C20.8344 11.1936 20.855 11.0976 20.855 11.0004C20.855 10.9032 20.8344 10.8071 20.7946 10.7184C20.7547 10.6298 20.6965 10.5506 20.6238 10.4861H20.6257Z" fill="white"/>
</svg>
