<svg width="17" height="21" viewBox="0 0 17 21" fill="none" xmlns="http://www.w3.org/2000/svg">
<g clip-path="url(#clip0_25168_7264)">
<path d="M14.39 6.81746L15.07 6.14746C15.23 5.98746 15.31 5.77746 15.31 5.54746C15.31 5.31746 15.23 5.11746 15.07 4.95746C14.75 4.63746 14.2 4.63746 13.88 4.95746L13.2 5.63746C11.98 4.63746 10.51 4.02746 8.94 3.86746V2.57746H9.55C10.01 2.57746 10.39 2.19746 10.39 1.73746C10.39 1.27746 10.01 0.897461 9.55 0.897461H6.65C6.19 0.897461 5.81 1.27746 5.81 1.73746C5.81 2.19746 6.19 2.57746 6.65 2.57746H7.26V3.86746C3.12 4.28746 0 7.73746 0 11.9275C0 16.3975 3.63 20.0275 8.1 20.0275C12.57 20.0275 16.2 16.3975 16.2 11.9275C16.2 10.0375 15.57 8.27746 14.39 6.81746ZM8.1 18.3475C4.56 18.3475 1.68 15.4675 1.68 11.9275C1.68 8.38746 4.56 5.50746 8.1 5.50746C11.64 5.50746 14.52 8.38746 14.52 11.9275C14.52 15.4675 11.64 18.3475 8.1 18.3475Z" fill="#9C9C9C"/>
<path d="M9.07039 7.31754V11.4175C9.07039 11.8775 8.70039 12.2575 8.23039 12.2575C7.76039 12.2575 7.40039 11.8775 7.40039 11.4175V7.31754C7.40039 6.85754 7.77039 6.47754 8.23039 6.47754C8.69039 6.47754 9.07039 6.85754 9.07039 7.31754Z" fill="#9C9C9C"/>
</g>
<defs>
<clipPath id="clip0_25168_7264">
<rect width="16.2" height="19.13" fill="white" transform="translate(0 0.897461)"/>
</clipPath>
</defs>
</svg>
