<svg width="24" height="24" viewBox="0 0 24 24" fill="none" xmlns="http://www.w3.org/2000/svg">
<path fill-rule="evenodd" clip-rule="evenodd" d="M11.9519 3H12.0481H12.0481C13.9807 2.99999 15.4952 2.99999 16.6769 3.15886C17.8864 3.32148 18.8409 3.66083 19.5901 4.40998C20.3392 5.15912 20.6785 6.11356 20.8412 7.32311C21 8.50481 21 10.0194 21 11.9519V12H20.9909C21 12.4845 21 13.0299 21 13.6463V13.7025C21 14.8509 21 15.7513 20.9409 16.475C20.8807 17.2118 20.756 17.8205 20.4753 18.3715C20.0138 19.2774 19.2774 20.0138 18.3715 20.4753C17.8205 20.756 17.2118 20.8807 16.475 20.9409C15.7513 21 14.8509 21 13.7025 21H10.2974C9.14904 21 8.24869 21 7.52507 20.9409C6.7882 20.8807 6.17946 20.756 5.62847 20.4753C4.72266 20.0138 3.98622 19.2774 3.52469 18.3715C3.24395 17.8205 3.11932 17.2118 3.05912 16.475C3 15.7514 3 14.8512 3 13.703V13.7025V13.6463C3 13.0297 3 12.4846 3.00914 12H3V11.9519V11.9519C2.99999 10.0193 2.99999 8.5048 3.15886 7.32311C3.32148 6.11356 3.66083 5.15912 4.40998 4.40998C5.15912 3.66083 6.11356 3.32148 7.32311 3.15886C8.5048 2.99999 10.0193 2.99999 11.9519 3H11.9519ZM4.3663 7.80305C4.73119 7.42862 5.15687 7.11381 5.62847 6.87352C6.17946 6.59278 6.7882 6.46816 7.52507 6.40795C8.24861 6.34884 9.14881 6.34884 10.297 6.34884H10.2975H13.7025H13.703C14.8512 6.34884 15.7514 6.34884 16.475 6.40795C17.2118 6.46816 17.8205 6.59278 18.3715 6.87352C18.8431 7.11381 19.2688 7.42863 19.6337 7.80305C19.6225 7.69577 19.6101 7.59163 19.5965 7.49044C19.4527 6.42014 19.179 5.77489 18.702 5.29797C18.2251 4.82105 17.5798 4.54737 16.5095 4.40347C15.4212 4.25715 13.9911 4.25581 12 4.25581C10.0089 4.25581 8.57879 4.25715 7.49044 4.40347C6.42014 4.54737 5.77489 4.82105 5.29797 5.29797C4.82105 5.77489 4.54737 6.42014 4.40347 7.49044C4.38987 7.59162 4.37752 7.69577 4.3663 7.80305ZM11.9969 16.3C12.1621 16.3 12.3206 16.2336 12.4374 16.1155L14.5144 14.0155C14.7577 13.7694 14.7577 13.3706 14.5144 13.1245C14.271 12.8785 13.8766 12.8785 13.6333 13.1245L12.62 14.149V10.63C12.62 10.2821 12.341 10 11.9969 10C11.6528 10 11.3738 10.2821 11.3738 10.63V14.149L10.3605 13.1245C10.1172 12.8785 9.72269 12.8785 9.47937 13.1245C9.23604 13.3706 9.23604 13.7694 9.47937 14.0155L11.5563 16.1155C11.6731 16.2336 11.8316 16.3 11.9969 16.3Z" fill="#F4DBBA"/>
</svg>
