<svg width="22" height="22" viewBox="0 0 22 22" fill="none" xmlns="http://www.w3.org/2000/svg">
<path fill-rule="evenodd" clip-rule="evenodd" d="M10.9439 0.5H11.0561H11.0561C13.3108 0.499991 15.0777 0.499983 16.4564 0.685337C17.8675 0.87506 18.9811 1.27097 19.8551 2.14497C20.7291 3.01897 21.1249 4.13248 21.3147 5.54362C21.5 6.92228 21.5 8.68925 21.5 10.9439V11H21.4894C21.5 11.5652 21.5 12.2016 21.5 12.9207V12.9863C21.5 14.3261 21.5 15.3765 21.431 16.2208C21.3608 17.0804 21.2154 17.7906 20.8879 18.4334C20.3494 19.4902 19.4902 20.3494 18.4334 20.8879C17.7906 21.2154 17.0804 21.3608 16.2208 21.431C15.3765 21.5 14.3261 21.5 12.9863 21.5H9.01366C7.67388 21.5 6.62347 21.5 5.77924 21.431C4.91957 21.3608 4.20937 21.2154 3.56655 20.8879C2.50977 20.3494 1.6506 19.4902 1.11214 18.4334C0.784604 17.7906 0.639206 17.0804 0.568968 16.2208C0.5 15.3766 0.5 14.3264 0.5 12.9869V12.9863V12.9207C0.5 12.2013 0.5 11.5653 0.510666 11H0.5V10.9439V10.9439C0.499991 8.68919 0.499983 6.92226 0.685337 5.54362C0.87506 4.13248 1.27097 3.01897 2.14497 2.14497C3.01897 1.27097 4.13248 0.87506 5.54362 0.685337C6.92226 0.499983 8.6892 0.499991 10.9439 0.5H10.9439ZM2.09402 6.10356C2.51972 5.66672 3.01635 5.29945 3.56655 5.01911C4.20937 4.69158 4.91957 4.54618 5.77924 4.47594C6.62338 4.40698 7.67362 4.40698 9.01319 4.40698H9.01374H12.9863H12.9869C14.3264 4.40698 15.3766 4.40698 16.2208 4.47594C17.0804 4.54618 17.7906 4.69158 18.4334 5.01911C18.9836 5.29945 19.4803 5.66673 19.906 6.10356C19.8929 5.9784 19.8785 5.8569 19.8626 5.73885C19.6948 4.49017 19.3755 3.73737 18.819 3.18097C18.2626 2.62456 17.5098 2.30527 16.2611 2.13738C14.9914 1.96667 13.3229 1.96512 11 1.96512C8.67708 1.96512 7.00859 1.96667 5.73885 2.13738C4.49017 2.30527 3.73737 2.62456 3.18097 3.18097C2.62456 3.73737 2.30527 4.49017 2.13738 5.73885C2.12151 5.85689 2.10711 5.9784 2.09402 6.10356ZM10.9964 16.0167C11.1891 16.0167 11.3741 15.9392 11.5104 15.8014L13.9334 13.3514C14.2173 13.0643 14.2173 12.599 13.9334 12.312C13.6495 12.0249 13.1894 12.0249 12.9055 12.312L11.7233 13.5072V9.40167C11.7233 8.99575 11.3978 8.66667 10.9964 8.66667C10.5949 8.66667 10.2694 8.99575 10.2694 9.40167V13.5072L9.08726 12.312C8.80341 12.0249 8.34314 12.0249 8.05926 12.312C7.77538 12.599 7.77538 13.0643 8.05926 13.3514L10.4824 15.8014C10.6187 15.9392 10.8036 16.0167 10.9964 16.0167Z" fill="#F4DBBA"/>
</svg>
