<svg width="20" height="20" viewBox="0 0 20 20" fill="none" xmlns="http://www.w3.org/2000/svg">
<path d="M10.5871 19.9989H9.41542C9.36467 19.9879 9.31502 19.9702 9.26427 19.9669C7.69981 19.8566 6.23576 19.4087 4.90078 18.5914C2.31028 17.004 0.714928 14.7151 0.155563 11.7213C0.0860561 11.3463 0.050751 10.9657 0 10.5874C0 10.1969 0 9.80639 0 9.4159C0.0121361 9.34641 0.0264788 9.27802 0.0364084 9.20852C0.0992955 8.77832 0.134601 8.3415 0.227276 7.91791C0.749129 5.5165 1.9826 3.5497 3.93872 2.06825C6.37256 0.223897 9.11312 -0.387212 12.1008 0.236031C14.4927 0.734626 16.4378 1.98773 17.925 3.92144C19.5314 6.00847 20.2 8.38562 19.9485 11.0021C19.7444 13.1223 18.9213 14.9931 17.5091 16.5915C15.9601 18.3432 14.0305 19.4341 11.7246 19.8445C11.3484 19.9118 10.9666 19.9493 10.5871 20V19.9989Z" fill="#FAC33D"/>
<path d="M8.32605 12.005C8.38342 11.9509 8.43528 11.9035 8.48492 11.8539C10.3131 10.0272 12.1401 8.20045 13.9682 6.37374C14.3676 5.97443 14.8288 5.8928 15.258 6.13989C15.8041 6.45427 15.9343 7.16797 15.5316 7.65222C15.4819 7.71179 15.4268 7.76804 15.3716 7.8232C13.3019 9.87714 11.2321 11.9311 9.16234 13.985C8.66255 14.4803 8.13739 14.4891 7.61443 14.0126C6.54094 13.0353 5.46855 12.0568 4.39395 11.0817C4.11703 10.8302 3.96257 10.5313 4.0078 10.1496C4.09827 9.3973 4.96324 9.02225 5.55681 9.49768C5.96723 9.8264 6.34345 10.1981 6.73291 10.5533C7.22829 11.0045 7.72145 11.459 8.21572 11.9112C8.24882 11.941 8.28413 11.9697 8.32495 12.005H8.32605Z" fill="white"/>
</svg>
