<svg width="23" height="21" viewBox="0 0 23 21" fill="none" xmlns="http://www.w3.org/2000/svg">
<path d="M20.0005 3.08667C20.0005 2.48993 19.7766 1.91764 19.3781 1.49568C18.9796 1.07372 18.4391 0.83667 17.8755 0.83667H5.12549C4.5619 0.83667 4.0214 1.07372 3.62289 1.49568C3.22437 1.91764 3.00049 2.48993 3.00049 3.08667V3.83667H20.0005V3.08667Z" fill="#0085E0"/>
<path fill-rule="evenodd" clip-rule="evenodd" d="M2.30049 5.02417H20.7005C21.3105 5.02417 21.8955 5.27406 22.3268 5.71888C22.7582 6.16369 23.0005 6.76698 23.0005 7.39604V18.4648C23.0005 19.0939 22.7582 19.6972 22.3268 20.142C21.8955 20.5868 21.3105 20.8367 20.7005 20.8367H2.30049C1.69049 20.8367 1.10548 20.5868 0.674143 20.142C0.242809 19.6972 0.000488281 19.0939 0.000488281 18.4648V7.39604C0.000488281 6.76698 0.242809 6.16369 0.674143 5.71888C1.10548 5.27406 1.69049 5.02417 2.30049 5.02417ZM14.87 13.6817C15.3761 13.3603 15.3761 12.6217 14.87 12.3003L10.4936 9.52093C9.94884 9.17499 9.23674 9.56631 9.23674 10.2116V15.7704C9.23674 16.4157 9.94884 16.807 10.4936 16.4611L14.87 13.6817Z" fill="#0085E0"/>
</svg>
