<svg width="27" height="27" viewBox="0 0 27 27" fill="none" xmlns="http://www.w3.org/2000/svg">
<path d="M21.5703 6.08667C21.5703 5.48993 21.3464 4.91764 20.9479 4.49568C20.5494 4.07372 20.0089 3.83667 19.4453 3.83667H6.69531C6.13173 3.83667 5.59123 4.07372 5.19271 4.49568C4.7942 4.91764 4.57031 5.48993 4.57031 6.08667V6.83667H21.5703V6.08667Z" fill="#FAC33D"/>
<path fill-rule="evenodd" clip-rule="evenodd" d="M3.87031 8.02417H22.2703C22.8803 8.02417 23.4653 8.27406 23.8967 8.71888C24.328 9.16369 24.5703 9.76698 24.5703 10.396V21.4648C24.5703 22.0939 24.328 22.6972 23.8967 23.142C23.4653 23.5868 22.8803 23.8367 22.2703 23.8367H3.87031C3.26031 23.8367 2.6753 23.5868 2.24397 23.142C1.81263 22.6972 1.57031 22.0939 1.57031 21.4648V10.396C1.57031 9.76698 1.81263 9.16369 2.24397 8.71888C2.6753 8.27406 3.26031 8.02417 3.87031 8.02417ZM16.4398 16.6817C16.9459 16.3603 16.9459 15.6217 16.4398 15.3003L12.0634 12.5209C11.5187 12.175 10.8066 12.5663 10.8066 13.2116V18.7704C10.8066 19.4157 11.5187 19.807 12.0634 19.4611L16.4398 16.6817Z" fill="#FAC33D"/>
</svg>
