<svg width="27" height="27" viewBox="0 0 27 27" fill="none" xmlns="http://www.w3.org/2000/svg">
<path d="M21.5708 6.08667C21.5708 5.48993 21.3469 4.91764 20.9484 4.49568C20.5499 4.07372 20.0094 3.83667 19.4458 3.83667H6.6958C6.13222 3.83667 5.59171 4.07372 5.1932 4.49568C4.79468 4.91764 4.5708 5.48993 4.5708 6.08667V6.83667H21.5708V6.08667Z" fill="#6A6A6A"/>
<path fill-rule="evenodd" clip-rule="evenodd" d="M3.8708 8.02417H22.2708C22.8808 8.02417 23.4658 8.27406 23.8971 8.71888C24.3285 9.16369 24.5708 9.76698 24.5708 10.396V21.4648C24.5708 22.0939 24.3285 22.6972 23.8971 23.142C23.4658 23.5868 22.8808 23.8367 22.2708 23.8367H3.8708C3.2608 23.8367 2.67579 23.5868 2.24446 23.142C1.81312 22.6972 1.5708 22.0939 1.5708 21.4648V10.396C1.5708 9.76698 1.81312 9.16369 2.24446 8.71888C2.67579 8.27406 3.2608 8.02417 3.8708 8.02417ZM16.4403 16.6817C16.9464 16.3603 16.9464 15.6217 16.4403 15.3003L12.0639 12.5209C11.5192 12.175 10.8071 12.5663 10.8071 13.2116V18.7704C10.8071 19.4157 11.5192 19.807 12.0639 19.4611L16.4403 16.6817Z" fill="#6A6A6A"/>
</svg>
