<svg width="43" height="44" viewBox="0 0 43 44" fill="none" xmlns="http://www.w3.org/2000/svg">
<g id="Group 48098093">
<rect id="Rectangle 34624943" opacity="0.06" y="0.5" width="43" height="43" rx="8.6" fill="white"/>
<g id="Group">
<path id="Vector" d="M22.7538 27.0987H20.4978C18.9018 27.0987 17.5938 25.7547 17.5938 24.0987C17.5938 23.6067 18.0017 23.1987 18.4937 23.1987C18.9857 23.1987 19.3938 23.6067 19.3938 24.0987C19.3938 24.7587 19.8858 25.2987 20.4978 25.2987H22.7538C23.2218 25.2987 23.5938 24.8787 23.5938 24.3627C23.5938 23.7147 23.4138 23.6187 23.0058 23.4747L19.3938 22.2147C18.6257 21.9507 17.5938 21.3867 17.5938 19.6227C17.5938 18.1227 18.7818 16.8867 20.2338 16.8867H22.4898C24.0858 16.8867 25.3938 18.2307 25.3938 19.8867C25.3938 20.3787 24.9858 20.7867 24.4938 20.7867C24.0018 20.7867 23.5938 20.3787 23.5938 19.8867C23.5938 19.2267 23.1018 18.6867 22.4898 18.6867H20.2338C19.7658 18.6867 19.3938 19.1067 19.3938 19.6227C19.3938 20.2707 19.5738 20.3667 19.9818 20.5107L23.5938 21.7707C24.3618 22.0347 25.3938 22.5987 25.3938 24.3627C25.3938 25.8747 24.2058 27.0987 22.7538 27.0987Z" fill="white"/>
<path id="Vector_2" d="M21.4977 28.3031C21.0057 28.3031 20.5977 27.8951 20.5977 27.4031V16.6031C20.5977 16.1111 21.0057 15.7031 21.4977 15.7031C21.9897 15.7031 22.3977 16.1111 22.3977 16.6031V27.4031C22.3977 27.8951 21.9897 28.3031 21.4977 28.3031Z" fill="white"/>
<path id="Vector_3" d="M21.4977 34.9016C14.3817 34.9016 8.59766 29.1176 8.59766 22.0016C8.59766 14.8856 14.3817 9.10156 21.4977 9.10156C21.9897 9.10156 22.3977 9.50956 22.3977 10.0016C22.3977 10.4936 21.9897 10.9016 21.4977 10.9016C15.3777 10.9016 10.3977 15.8816 10.3977 22.0016C10.3977 28.1216 15.3777 33.1016 21.4977 33.1016C27.6177 33.1016 32.5977 28.1216 32.5977 22.0016C32.5977 21.5096 33.0057 21.1016 33.4977 21.1016C33.9897 21.1016 34.3977 21.5096 34.3977 22.0016C34.3977 29.1176 28.6137 34.9016 21.4977 34.9016Z" fill="white"/>
<path id="Vector_4" d="M28.6906 9.10313L33.4906 9.10313C33.9826 9.10313 34.3906 9.51113 34.3906 10.0031L34.3906 14.8031C34.3906 15.2951 33.9826 15.7031 33.4906 15.7031C32.9986 15.7031 32.5906 15.2951 32.5906 14.8031L32.5906 10.9031L28.6906 10.9031C28.1986 10.9031 27.7906 10.4951 27.7906 10.0031C27.7906 9.51113 28.1986 9.10313 28.6906 9.10313Z" fill="white"/>
<path id="Vector_5" d="M33.4936 9.10535C33.7216 9.10535 33.9496 9.18935 34.1296 9.36935C34.4776 9.71735 34.4776 10.2933 34.1296 10.6413L28.1296 16.6413C27.7816 16.9893 27.2056 16.9893 26.8576 16.6413C26.5096 16.2933 26.5096 15.7173 26.8576 15.3693L32.8576 9.36935C33.0376 9.18935 33.2656 9.10535 33.4936 9.10535Z" fill="white"/>
</g>
</g>
</svg>
