<svg width="20" height="21" viewBox="0 0 20 21" fill="none" xmlns="http://www.w3.org/2000/svg">
<path d="M10 2C8.31886 2 6.67547 2.49854 5.27766 3.43259C3.87984 4.36663 2.79037 5.69422 2.14703 7.24747C1.50368 8.80073 1.33535 10.5099 1.66333 12.1588C1.9913 13.8077 2.80085 15.3224 3.9896 16.5112C5.17834 17.7 6.6929 18.5096 8.34173 18.8376C9.99057 19.1656 11.6996 18.9972 13.2528 18.3539C14.806 17.7105 16.1335 16.621 17.0675 15.2231C18.0015 13.8252 18.5 12.1817 18.5 10.5005C18.5 8.246 17.6045 6.08387 16.0104 4.48973C14.4164 2.89558 12.2543 2 10 2ZM6.13637 8.18215H12.0014L11.7695 7.95805C11.624 7.81253 11.5423 7.61517 11.5423 7.40938C11.5423 7.30749 11.5624 7.20659 11.6014 7.11245C11.6403 7.01831 11.6975 6.93277 11.7695 6.86072C11.8416 6.78867 11.9271 6.73151 12.0213 6.69252C12.1154 6.65352 12.2163 6.63345 12.3182 6.63345C12.524 6.63345 12.7213 6.7152 12.8668 6.86072L14.4123 8.40626C14.5195 8.51493 14.5921 8.65292 14.621 8.80283C14.6499 8.95274 14.6337 9.10784 14.5745 9.24857C14.5166 9.3897 14.4181 9.5105 14.2916 9.59576C14.1651 9.68103 14.0162 9.72693 13.8636 9.72769H6.13637C5.93143 9.72769 5.73488 9.64627 5.58997 9.50135C5.44505 9.35643 5.36364 9.15987 5.36364 8.95492C5.36364 8.74997 5.44505 8.55341 5.58997 8.40849C5.73488 8.26357 5.93143 8.18215 6.13637 8.18215ZM13.8636 12.8188H7.99864L8.23046 13.0429C8.30288 13.1147 8.36037 13.2002 8.3996 13.2943C8.43883 13.3885 8.45903 13.4895 8.45903 13.5915C8.45903 13.6936 8.43883 13.7946 8.3996 13.8887C8.36037 13.9829 8.30288 14.0684 8.23046 14.1402C8.15862 14.2126 8.07316 14.2701 7.97899 14.3094C7.88483 14.3486 7.78383 14.3688 7.68182 14.3688C7.57981 14.3688 7.47881 14.3486 7.38465 14.3094C7.29048 14.2701 7.20502 14.2126 7.13318 14.1402L5.58773 12.5947C5.48051 12.486 5.40787 12.348 5.37899 12.1981C5.35011 12.0482 5.36628 11.8931 5.42546 11.7523C5.48343 11.6112 5.58187 11.4904 5.70838 11.4052C5.83489 11.3199 5.98381 11.274 6.13637 11.2732H13.8636C14.0686 11.2732 14.2651 11.3546 14.41 11.4996C14.555 11.6445 14.6364 11.841 14.6364 12.046C14.6364 12.2509 14.555 12.4475 14.41 12.5924C14.2651 12.7374 14.0686 12.8188 13.8636 12.8188Z" fill="white"/>
</svg>
