<svg width="12" height="12" viewBox="0 0 12 12" fill="none" xmlns="http://www.w3.org/2000/svg">
<g id="Layer_1" clip-path="url(#clip0_3189_88451)">
<g id="Layer 2">
<path id="Vector" d="M0.428571 2.39961H1.28571V10.5916C1.28813 11.3684 1.96205 11.9974 2.79429 11.9996H9.22286C10.0484 11.9886 10.7121 11.3621 10.7143 10.5916V2.39961H11.5714C11.8082 2.39961 12 2.22061 12 1.99961C12 1.77861 11.8082 1.59961 11.5714 1.59961H0.428571C0.191786 1.59961 0 1.77861 0 1.99961C0 2.22061 0.191786 2.39961 0.428571 2.39961ZM9.85714 2.39961V10.5916C9.85714 10.9274 9.56545 11.1996 9.20571 11.1996H2.77714C2.42411 11.1909 2.14286 10.9214 2.14286 10.5916V2.39961H9.85714Z" fill="white"/>
<path id="Vector_2" d="M4.28404 0.8H7.71261C7.9494 0.8 8.14118 0.621 8.14118 0.4C8.14118 0.179 7.9494 0 7.71261 0H4.28404C4.04725 0 3.85547 0.179 3.85547 0.4C3.85547 0.621 4.04725 0.8 4.28404 0.8Z" fill="white"/>
<path id="Vector_3" d="M4.57701 9.6C4.81379 9.6 5.00558 9.421 5.00558 9.2V4.4C5.00558 4.179 4.81379 4 4.57701 4C4.34022 4 4.14844 4.179 4.14844 4.4V9.2C4.14844 9.421 4.34022 9.6 4.57701 9.6Z" fill="white"/>
<path id="Vector_4" d="M7.42467 9.6C7.66145 9.6 7.85324 9.421 7.85324 9.2V4.4C7.85324 4.179 7.66145 4 7.42467 4C7.18788 4 6.99609 4.179 6.99609 4.4V9.2C6.99609 9.421 7.18788 9.6 7.42467 9.6Z" fill="white"/>
</g>
</g>
<defs>
<clipPath id="clip0_3189_88451">
<rect width="12" height="12" fill="white"/>
</clipPath>
</defs>
</svg>
