<svg width="34" height="34" viewBox="0 0 34 34" fill="none" xmlns="http://www.w3.org/2000/svg">
<path d="M16.9992 33.9231C19.3146 33.9231 21.4935 33.4807 23.5358 32.5961C25.5782 31.7223 27.3803 30.5046 28.9421 28.9428C30.5039 27.381 31.7271 25.5789 32.6117 23.5366C33.4964 21.4942 33.9387 19.3154 33.9387 17C33.9387 14.6846 33.4964 12.5057 32.6117 10.4634C31.7271 8.42103 30.5039 6.62443 28.9421 5.07355C27.3803 3.51176 25.5782 2.28854 23.5358 1.40388C21.4935 0.519231 19.3092 0.0769043 16.9829 0.0769043C14.6675 0.0769043 12.4886 0.519231 10.4463 1.40388C8.41484 2.28854 6.61823 3.51176 5.05644 5.07355C3.50557 6.62443 2.2878 8.42103 1.40315 10.4634C0.518498 12.5057 0.0761719 14.6846 0.0761719 17C0.0761719 19.3154 0.518498 21.4942 1.40315 23.5366C2.2878 25.5789 3.50557 27.381 5.05644 28.9428C6.61823 30.5046 8.4203 31.7223 10.4626 32.5961C12.505 33.4807 14.6839 33.9231 16.9992 33.9231ZM16.9992 30.581C15.1207 30.581 13.3569 30.2315 11.7077 29.5326C10.0695 28.8336 8.62781 27.8615 7.38275 26.6165C6.1486 25.3714 5.18204 23.9298 4.48305 22.2915C3.78407 20.6533 3.43458 18.8894 3.43458 17C3.43458 15.1215 3.78407 13.3631 4.48305 11.7248C5.18204 10.0757 6.1486 8.62855 7.38275 7.38348C8.61689 6.13841 10.0531 5.16639 11.6913 4.4674C13.3405 3.76842 15.1043 3.41893 16.9829 3.41893C18.8723 3.41893 20.6362 3.76842 22.2744 4.4674C23.9236 5.16639 25.3707 6.13841 26.6157 7.38348C27.8608 8.62855 28.8328 10.0757 29.5318 11.7248C30.2308 13.3631 30.5803 15.1215 30.5803 17C30.5803 18.8894 30.2308 20.6533 29.5318 22.2915C28.8328 23.9298 27.8608 25.3714 26.6157 26.6165C25.3707 27.8615 23.929 28.8336 22.2908 29.5326C20.6525 30.2315 18.8887 30.581 16.9992 30.581ZM27.9263 27.8124L27.8608 27.5339C27.5113 26.7257 26.8396 25.9503 25.8458 25.2076C24.8628 24.454 23.6178 23.8424 22.1106 23.3728C20.6143 22.8922 18.9105 22.6519 16.9992 22.6519C15.1098 22.6519 13.4115 22.8922 11.9043 23.3728C10.3971 23.8424 9.14659 24.454 8.15272 25.2076C7.16978 25.9503 6.50355 26.7202 6.15406 27.5175L6.08853 27.8124C7.11517 28.7626 8.27832 29.5599 9.578 30.2042C10.8777 30.8595 12.1773 31.3565 13.477 31.695C14.7876 32.0336 15.9617 32.2029 16.9992 32.2029C18.0477 32.2029 19.2218 32.0336 20.5215 31.695C21.8211 31.3565 23.1208 30.8595 24.4205 30.2042C25.7202 29.5599 26.8888 28.7626 27.9263 27.8124ZM16.9992 19.9488C18.0586 19.9597 19.0143 19.6976 19.8662 19.1625C20.7181 18.6164 21.3952 17.8737 21.8976 16.9345C22.4 15.9843 22.6512 14.9249 22.6512 13.7563C22.6512 12.6641 22.3945 11.6593 21.8812 10.7419C21.3788 9.81354 20.7017 9.07087 19.8498 8.51387C19.0088 7.95687 18.0586 7.67836 16.9992 7.67836C15.9508 7.67836 14.9951 7.95687 14.1323 8.51387C13.2804 9.07087 12.6033 9.81354 12.1009 10.7419C11.5985 11.6593 11.3528 12.6641 11.3637 13.7563C11.3746 14.9249 11.6258 15.9788 12.1173 16.9181C12.6197 17.8464 13.2968 18.5836 14.1487 19.1297C15.0006 19.6649 15.9508 19.9379 16.9992 19.9488Z" fill="white"/>
</svg>
