<svg width="35" height="34" viewBox="0 0 35 34" fill="none" xmlns="http://www.w3.org/2000/svg">
<g clip-path="url(#clip0_3483_167452)">
<path fill-rule="evenodd" clip-rule="evenodd" d="M26.54 7H9.45C7.82 7 6.5 8.28 6.5 9.83V23.66C6.5 25.23 7.82 26.49 9.45 26.49H26.54C28.18 26.49 29.5 25.22 29.5 23.66V9.83C29.5 8.27 28.18 7 26.54 7ZM22.51 17.78C22.34 18.08 22.09 18.33 21.78 18.51L17.31 21.07C17.01 21.24 16.68 21.33 16.34 21.33C15.26 21.33 14.38 20.45 14.38 19.37V14.27C14.38 13.19 15.25 12.31 16.34 12.31C16.68 12.31 17.02 12.4 17.32 12.57L21.79 15.12C22.73 15.66 23.06 16.86 22.52 17.8L22.51 17.78Z" fill="#DE173E"/>
<path fill-rule="evenodd" clip-rule="evenodd" d="M20.9503 16.56L16.4903 14.01C16.4903 14.01 16.4003 13.97 16.3503 13.97C16.3003 13.97 16.2503 13.98 16.2103 14.01C16.1203 14.06 16.0703 14.15 16.0703 14.25V19.35C16.0703 19.5 16.2003 19.63 16.3503 19.63C16.4003 19.63 16.4503 19.62 16.4903 19.59L20.9503 17.04C21.0803 16.96 21.1303 16.79 21.0503 16.66C21.0303 16.62 20.9903 16.58 20.9503 16.56Z" fill="#DE173E"/>
</g>
<defs>
<clipPath id="clip0_3483_167452">
<rect width="23" height="19.5" fill="white" transform="translate(6.5 7)"/>
</clipPath>
</defs>
</svg>
