<svg width="34" height="34" viewBox="0 0 34 34" fill="none" xmlns="http://www.w3.org/2000/svg">
<g clip-path="url(#clip0_8806_282894)">
<path d="M15.8399 21.32C14.7599 21.32 13.8799 20.44 13.8799 19.36V14.26C13.8799 13.18 14.7499 12.3 15.8399 12.3C16.1799 12.3 16.5199 12.39 16.8199 12.56L21.2899 15.11C22.2299 15.65 22.5599 16.85 22.0199 17.79C21.8499 18.09 21.5999 18.34 21.2899 18.52L16.8199 21.08C16.5199 21.25 16.1899 21.34 15.8499 21.34L15.8399 21.32ZM15.8399 13.97C15.8399 13.97 15.7399 13.98 15.6999 14.01C15.6099 14.06 15.5599 14.15 15.5599 14.25V19.35C15.5599 19.5 15.6899 19.63 15.8399 19.63C15.8899 19.63 15.9399 19.62 15.9799 19.59L20.4399 17.04C20.5699 16.96 20.6199 16.79 20.5399 16.66C20.5199 16.62 20.4799 16.58 20.4399 16.56L15.9799 14.01C15.9799 14.01 15.8899 13.97 15.8399 13.97Z" fill="white"/>
<path fill-rule="evenodd" clip-rule="evenodd" d="M8.95 7H26.04C27.68 7 29 8.28 29 9.83V23.66C29 25.23 27.68 26.49 26.04 26.49H8.95C7.32 26.49 6 25.22 6 23.66V9.83C6 8.28 7.32 7 8.95 7ZM27.34 23.7V9.8C27.34 9.13 26.8 8.59 26.13 8.59H8.87C8.2 8.59 7.66 9.13 7.66 9.8V23.7C7.66 24.37 8.2 24.91 8.87 24.91H26.14C26.81 24.91 27.35 24.37 27.35 23.7H27.34Z" fill="white"/>
</g>
<defs>
<clipPath id="clip0_8806_282894">
<rect width="23" height="19.5" fill="white" transform="translate(6 7)"/>
</clipPath>
</defs>
</svg>
