<svg width="38" height="38" viewBox="0 0 38 38" fill="none" xmlns="http://www.w3.org/2000/svg">
<path fill-rule="evenodd" clip-rule="evenodd" d="M2.64097 8.58557C1.72313 8.03487 0.575521 8.78915 0.716985 9.85013L3.5125 30.8165C3.85106 33.3557 6.01707 35.2521 8.57877 35.2521H29.5291C32.0908 35.2521 34.2568 33.3557 34.5953 30.8165L37.3908 9.85013C37.5323 8.78915 36.3847 8.03487 35.4669 8.58557L28.3977 12.8271L20.0355 2.79253C19.5247 2.17951 18.5831 2.17951 18.0723 2.79253L9.71016 12.8271L2.64097 8.58557ZM16.1275 19.1616C15.375 17.9074 13.4487 18.4409 13.4487 19.9036C13.4487 20.165 13.5197 20.4215 13.6542 20.6456L17.2233 26.5941C18.0529 27.9768 20.0569 27.9768 20.8866 26.5941L24.4556 20.6456C24.5901 20.4215 24.6612 20.165 24.6612 19.9036C24.6612 18.4409 22.7349 17.9074 21.9823 19.1616L19.2561 23.7052C19.165 23.8571 18.9448 23.8571 18.8537 23.7052L16.1275 19.1616Z" fill="#1D2023"/>
</svg>
