<svg width="22" height="23" viewBox="0 0 22 23" fill="none" xmlns="http://www.w3.org/2000/svg">
<path fill-rule="evenodd" clip-rule="evenodd" d="M3.3121 6.60139C2.81826 6.30509 2.2008 6.71092 2.27691 7.28178L3.55758 16.8868C3.73975 18.253 4.90516 19.2734 6.28346 19.2734H15.7681C17.1464 19.2734 18.3118 18.253 18.494 16.8868L19.7747 7.28178C19.8508 6.71092 19.2333 6.30509 18.7395 6.60139L15.4945 8.54836L11.5539 3.81964C11.2791 3.48981 10.7725 3.48981 10.4976 3.81964L6.55704 8.54836L3.3121 6.60139ZM9.62574 11.5777C9.26582 10.9778 8.34454 11.233 8.34454 11.9326C8.34454 12.0576 8.37852 12.1803 8.44283 12.2874L10.1498 15.1324C10.5466 15.7937 11.505 15.7937 11.9018 15.1324L13.6087 12.2874C13.6731 12.1803 13.707 12.0576 13.707 11.9326C13.707 11.233 12.7858 10.9778 12.4258 11.5777L11.122 13.7507C11.0784 13.8234 10.9731 13.8234 10.9296 13.7507L9.62574 11.5777Z" fill="url(#paint0_linear_24922_7479)"/>
<defs>
<linearGradient id="paint0_linear_24922_7479" x1="3.86238" y1="3.57227" x2="21.0701" y2="17.7037" gradientUnits="userSpaceOnUse">
<stop stop-color="#D3AE7F"/>
<stop offset="1" stop-color="#AB8159"/>
</linearGradient>
</defs>
</svg>
