<svg width="24" height="24" viewBox="0 0 24 24" fill="none" xmlns="http://www.w3.org/2000/svg">
<path fill-rule="evenodd" clip-rule="evenodd" d="M1.98589 5.63203C1.44716 5.30879 0.773565 5.75152 0.856598 6.37427L2.57869 19.29C2.77742 20.7804 4.04877 21.8935 5.55238 21.8935H18.4993C20.0029 21.8935 21.2742 20.7804 21.473 19.29L23.1951 6.37427C23.2781 5.75152 22.6045 5.30879 22.0658 5.63203L17.7133 8.24349L12.602 2.10989C12.3021 1.75007 11.7495 1.75007 11.4497 2.10989L6.33833 8.24349L1.98589 5.63203ZM10.2567 12.0988C9.79862 11.3353 8.62609 11.6601 8.62609 12.5504C8.62609 12.7095 8.66933 12.8656 8.75119 13.0021L10.9237 16.6229C11.4287 17.4646 12.6485 17.4646 13.1535 16.6229L15.326 13.0021C15.4078 12.8656 15.4511 12.7095 15.4511 12.5504C15.4511 11.6601 14.2786 11.3353 13.8205 12.0988L12.1611 14.8644C12.1056 14.9569 11.9716 14.9569 11.9161 14.8644L10.2567 12.0988Z" fill="#F4DBBA"/>
</svg>
