<svg width="24" height="24" viewBox="0 0 24 24" fill="none" xmlns="http://www.w3.org/2000/svg">
<path fill-rule="evenodd" clip-rule="evenodd" d="M3.60894 6.65606C3.07021 6.33282 2.39661 6.77555 2.47965 7.39831L3.87674 17.8765C4.07546 19.3669 5.34681 20.48 6.85042 20.48H17.1973C18.7009 20.48 19.9723 19.3669 20.171 17.8765L21.5681 7.39831C21.6511 6.77555 20.9775 6.33282 20.4388 6.65606L16.8989 8.78003L12.6 3.62142C12.3002 3.26161 11.7476 3.26161 11.4477 3.62142L7.14887 8.78003L3.60894 6.65606ZM10.5075 12.0845C10.1148 11.4302 9.10981 11.7085 9.10981 12.4717C9.10981 12.6081 9.14688 12.7419 9.21704 12.8588L11.0792 15.9624C11.512 16.6838 12.5576 16.6838 12.9905 15.9624L14.8526 12.8588C14.9227 12.7419 14.9598 12.6081 14.9598 12.4717C14.9598 11.7085 13.9548 11.4302 13.5621 12.0845L12.1398 14.4551C12.0922 14.5344 11.9774 14.5344 11.9298 14.4551L10.5075 12.0845Z" fill="#F4DBBA"/>
</svg>
