<svg width="84" height="16" viewBox="0 0 84 16" fill="none" xmlns="http://www.w3.org/2000/svg">
<g clip-path="url(#clip0_25647_58973)">
<path d="M21.75 0.25H2.25C1.14543 0.25 0.25 1.14543 0.25 2.25V13.75C0.25 14.8546 1.14543 15.75 2.25 15.75H21.75C22.8546 15.75 23.75 14.8546 23.75 13.75V2.25C23.75 1.14543 22.8546 0.25 21.75 0.25Z" fill="white" stroke="black" stroke-opacity="0.2" stroke-width="0.5"/>
<path d="M2.78773 5.91444C2.26459 5.62751 1.66754 5.39674 1 5.23659L1.028 5.11188H3.76498C4.13596 5.12489 4.43699 5.23651 4.53495 5.63071L5.12977 8.46659L5.31198 9.32073L6.97797 5.11188H8.77679L6.10288 11.2775H4.30397L2.78773 5.91444ZM10.1 11.2841H8.39883L9.46285 5.11188H11.1639L10.1 11.2841ZM16.2668 5.26277L16.0354 6.59559L15.8816 6.53004C15.5737 6.40525 15.1674 6.28054 14.6144 6.29371C13.9427 6.29371 13.6415 6.56277 13.6345 6.82546C13.6345 7.11441 13.9989 7.30484 14.5939 7.58725C15.574 8.02719 16.0286 8.56557 16.0218 9.26819C16.0081 10.5486 14.846 11.3761 13.0611 11.3761C12.2979 11.3694 11.5628 11.2181 11.1638 11.0476L11.4019 9.66205L11.6259 9.76066C12.1789 9.99071 12.5428 10.089 13.222 10.089C13.7118 10.089 14.2369 9.89838 14.2436 9.48488C14.2436 9.21565 14.0199 9.01851 13.3617 8.71646C12.7178 8.42087 11.8568 7.92848 11.8708 7.04198C11.8781 5.84042 13.0611 5 14.741 5C15.399 5 15.9312 5.13789 16.2668 5.26277ZM18.5278 9.09749H19.9417C19.8718 8.78889 19.5496 7.31147 19.5496 7.31147L19.4307 6.77964C19.3467 7.00943 19.1999 7.38373 19.2069 7.37056C19.2069 7.37056 18.6678 8.7429 18.5278 9.09749ZM20.6276 5.11188L22 11.284H20.4249C20.4249 11.284 20.2708 10.5748 20.2219 10.3581H18.0378C17.9746 10.5222 17.6808 11.284 17.6808 11.284H15.8958L18.4226 5.62399C18.5977 5.22342 18.906 5.11188 19.3118 5.11188H20.6276Z" fill="#171E6C"/>
</g>
<g clip-path="url(#clip1_25647_58973)">
<path d="M52 0H32C30.8954 0 30 0.89543 30 2V14C30 15.1046 30.8954 16 32 16H52C53.1046 16 54 15.1046 54 14V2C54 0.89543 53.1046 0 52 0Z" fill="black"/>
<path d="M39 13C41.7614 13 44 10.7614 44 8C44 5.23858 41.7614 3 39 3C36.2386 3 34 5.23858 34 8C34 10.7614 36.2386 13 39 13Z" fill="#EB001B"/>
<path d="M45 13C47.7614 13 50 10.7614 50 8C50 5.23858 47.7614 3 45 3C42.2386 3 40 5.23858 40 8C40 10.7614 42.2386 13 45 13Z" fill="#F79E1B"/>
<path fill-rule="evenodd" clip-rule="evenodd" d="M42 3.99951C43.2144 4.91172 44 6.36406 44 7.99988C44 9.6357 43.2144 11.088 42 12.0002C40.7856 11.088 40 9.6357 40 7.99988C40 6.36406 40.7856 4.91172 42 3.99951Z" fill="#FF5F00"/>
</g>
<rect x="60" width="24" height="16" rx="2" fill="#1F72CD"/>
<path fill-rule="evenodd" clip-rule="evenodd" d="M64.5817 5.6665L62.4004 10.4977H65.0118L65.3355 9.72738H66.0755L66.3992 10.4977H69.2736V9.90976L69.5297 10.4977H71.0166L71.2727 9.89733V10.4977H77.2506L77.9775 9.74738L78.6581 10.4977L81.7285 10.5039L79.5403 8.09557L81.7285 5.6665H78.7057L77.9982 6.40292L77.339 5.6665H70.8358L70.2773 6.91347L69.7058 5.6665H67.0999V6.23441L66.81 5.6665H64.5817ZM73.5085 6.35254H76.9413L77.9913 7.48759L79.075 6.35254H80.125L78.5297 8.09489L80.125 9.81717H79.0274L77.9775 8.66893L76.8882 9.81717H73.5085V6.35254ZM74.3562 7.70315V7.07031V7.0697H76.4982L77.4328 8.08178L76.4568 9.09938H74.3562V8.4085H76.229V7.70315H74.3562ZM65.087 6.35254H66.3599L67.8068 9.62857V6.35254H69.2012L70.3187 8.70144L71.3487 6.35254H72.7361V9.81921H71.8919L71.885 7.10275L70.6542 9.81921H69.899L68.6613 7.10275V9.81921H66.9245L66.5953 9.04203H64.8164L64.4878 9.81853H63.5573L65.087 6.35254ZM65.1202 8.32357L65.7062 6.93908L66.2916 8.32357H65.1202Z" fill="white"/>
<defs>
<clipPath id="clip0_25647_58973">
<rect width="24" height="16" fill="white"/>
</clipPath>
<clipPath id="clip1_25647_58973">
<rect width="24" height="16" fill="white" transform="translate(30)"/>
</clipPath>
</defs>
</svg>
