<svg width="20" height="21" viewBox="0 0 20 21" fill="none" xmlns="http://www.w3.org/2000/svg">
<rect x="4" y="5" width="8" height="3" fill="#626262"/>
<path fill-rule="evenodd" clip-rule="evenodd" d="M18.5656 7.25081H14.9359C13.2467 7.25378 11.8784 8.58796 11.8753 10.2349C11.873 11.8855 13.2429 13.2257 14.9359 13.2279H18.5686V13.4901C18.5686 16.3695 16.8231 18.0721 13.8692 18.0721H6.12597C3.17131 18.0721 1.42578 16.3695 1.42578 13.4901V7.21886C1.42578 4.33952 3.17131 2.64355 6.12597 2.64355H13.8662C16.8201 2.64355 18.5656 4.33952 18.5656 7.21886V7.25081ZM5.48694 7.24406H10.3212H10.3243H10.3304C10.6923 7.24258 10.9848 6.95509 10.9833 6.60149C10.9818 6.24862 10.6862 5.96336 10.3243 5.96485H5.48694C5.12732 5.96634 4.83551 6.25085 4.83399 6.60223C4.83247 6.95509 5.12504 7.24258 5.48694 7.24406Z" fill="white"/>
<path fill-rule="evenodd" clip-rule="evenodd" d="M15.17 11.9849C14.3539 11.9998 13.639 11.4262 13.4598 10.6109C13.4387 10.502 13.4277 10.3909 13.4277 10.2797C13.4263 9.33017 14.1761 8.55962 15.1044 8.55664H17.9556C18.2952 8.55739 18.5699 8.83935 18.5706 9.1862V11.3561C18.5706 11.7037 18.2952 11.9849 17.9556 11.9849H15.17ZM15.1403 11.1274C15.6137 11.1274 15.9975 10.7436 15.9975 10.2702C15.9975 9.79684 15.6137 9.41309 15.1403 9.41309C14.667 9.41309 14.2832 9.79684 14.2832 10.2702C14.2832 10.7436 14.667 11.1274 15.1403 11.1274Z" fill="#626262"/>
</svg>
