<svg width="16" height="16" viewBox="0 0 16 16" fill="none" xmlns="http://www.w3.org/2000/svg">
<path d="M15.314 10.938L10.514 2.29805C9.86903 1.13555 8.97653 0.498047 7.99402 0.498047C7.01152 0.498047 6.119 1.13555 5.474 2.29805L0.674002 10.938C0.0665017 12.0405 -0.000998214 13.098 0.486502 13.9305C0.974002 14.763 1.934 15.2205 3.194 15.2205H12.794C14.054 15.2205 15.014 14.763 15.5015 13.9305C15.989 13.098 15.9215 12.033 15.314 10.938ZM7.43152 5.74805C7.43152 5.44055 7.68652 5.18555 7.99402 5.18555C8.30153 5.18555 8.55653 5.44055 8.55653 5.74805V9.49805C8.55653 9.80555 8.30153 10.0605 7.99402 10.0605C7.68652 10.0605 7.43152 9.80555 7.43152 9.49805V5.74805ZM8.52652 12.2805C8.48903 12.3105 8.45153 12.3405 8.41403 12.3705C8.36903 12.4005 8.32403 12.423 8.27903 12.438C8.23403 12.4605 8.18902 12.4755 8.13653 12.483C8.09153 12.4905 8.03902 12.498 7.99402 12.498C7.94902 12.498 7.89652 12.4905 7.84403 12.483C7.79903 12.4755 7.75402 12.4605 7.70902 12.438C7.66402 12.423 7.61903 12.4005 7.57403 12.3705C7.53653 12.3405 7.49902 12.3105 7.46152 12.2805C7.32652 12.138 7.24402 11.943 7.24402 11.748C7.24402 11.553 7.32652 11.358 7.46152 11.2155L7.57403 11.1255C7.61903 11.0955 7.66402 11.073 7.70902 11.058C7.75402 11.0355 7.79903 11.0205 7.84403 11.013C7.94152 10.9905 8.04653 10.9905 8.13653 11.013C8.18902 11.0205 8.23403 11.0355 8.27903 11.058C8.32403 11.073 8.36903 11.0955 8.41403 11.1255L8.52652 11.2155C8.66152 11.358 8.74403 11.553 8.74403 11.748C8.74403 11.943 8.66152 12.138 8.52652 12.2805Z" fill="#F3AF3D"/>
</svg>
