<svg width="13" height="9" viewBox="0 0 13 9" fill="none" xmlns="http://www.w3.org/2000/svg">
<g id="Capa_1" clip-path="url(#clip0_2412_96159)">
<path id="Vector" d="M6.20077 0.972656C8.43559 0.972656 10.462 2.27781 11.9573 4.39772C12.0793 4.5714 12.0793 4.81404 11.9573 4.98772C10.462 7.11018 8.43559 8.41533 6.20101 8.41533C3.96643 8.41533 1.94 7.11018 0.444705 4.99027C0.322689 4.81659 0.322689 4.57395 0.444705 4.40027C1.94 2.27781 3.9662 0.972656 6.20077 0.972656ZM6.04047 7.31451C7.52381 7.41412 8.74876 6.10897 8.65545 4.52287C8.5789 3.21517 7.58602 2.15521 6.36107 2.07348C4.87773 1.97387 3.65278 3.27902 3.74609 4.86512C3.82504 6.17027 4.81792 7.23023 6.04047 7.31451ZM6.11464 6.10386C6.91373 6.1575 7.57405 5.45512 7.52142 4.60205C7.48075 3.89711 6.94483 3.32755 6.28451 3.28157C5.48542 3.22794 4.8251 3.93032 4.87773 4.78339C4.92079 5.49088 5.45671 6.06044 6.11464 6.10386Z" fill="white"/>
</g>
<defs>
<clipPath id="clip0_2412_96159">
<rect width="11.6956" height="7.44268" fill="white" transform="matrix(-1 0 0 1 12.0488 0.972656)"/>
</clipPath>
</defs>
</svg>
