<svg width="20" height="21" viewBox="0 0 20 21" fill="none" xmlns="http://www.w3.org/2000/svg">
<path fill-rule="evenodd" clip-rule="evenodd" d="M15.567 1.92969H4.42411C2.3728 1.92969 0.709824 3.59264 0.709824 5.64401C0.709824 7.69537 2.3728 9.35833 4.42411 9.35833V5.64401H15.567V9.35833C17.6183 9.35833 19.2812 7.69537 19.2812 5.64401C19.2812 3.59264 17.6183 1.92969 15.567 1.92969Z" fill="#626262"/>
<path fill-rule="evenodd" clip-rule="evenodd" d="M4.28041 4.78613V16.4188C4.28041 17.4896 5.13318 18.3576 6.18517 18.3576H13.8042C14.8562 18.3576 15.709 17.4896 15.709 16.4188V4.78613H4.28041ZM8.6283 12.5788L9.29659 13.2471V9.35691C9.29659 8.9723 9.60841 8.66048 9.99302 8.66048C10.3776 8.66048 10.6895 8.9723 10.6895 9.35691V13.2471L11.3577 12.5788C11.6297 12.3068 12.0706 12.3068 12.3426 12.5788C12.6146 12.8508 12.6146 13.2918 12.3426 13.5637L11.142 14.7642C10.5075 15.3989 9.47859 15.3989 8.84401 14.7642L7.64343 13.5637C7.37146 13.2918 7.37146 12.8508 7.64343 12.5788C7.9154 12.3068 8.35632 12.3068 8.6283 12.5788Z" fill="white"/>
</svg>
