<svg width="30" height="30" viewBox="0 0 30 30" fill="none" xmlns="http://www.w3.org/2000/svg">
<path d="M21.1499 14.8C20.6799 14.8 20.3 15.1809 20.3 15.65V22.45C20.3 22.9183 19.9191 23.3 19.45 23.3H7.54999C7.08074 23.3 6.70005 22.9183 6.70005 22.45V10.55C6.70005 10.0817 7.08074 9.70005 7.54999 9.70005H14.35C14.8201 9.70005 15.2 9.3192 15.2 8.8501C15.2 8.38085 14.8201 8 14.35 8H7.54999C6.1441 8 5 9.1441 5 10.55V22.45C5 23.8559 6.1441 25 7.54999 25H19.45C20.8559 25 22 23.8559 22 22.45V15.65C22 15.1799 21.6199 14.8 21.1499 14.8Z" fill="#9C9C9C"/>
<path d="M12.6939 14.4321C12.6371 14.4889 12.5988 14.5613 12.5826 14.6393L12.0079 17.514C11.9811 17.6472 12.0234 17.7846 12.1192 17.8814C12.1965 17.9586 12.3005 18 12.4071 18C12.433 18 12.46 17.9976 12.4867 17.992L15.3603 17.4172C15.44 17.4009 15.5123 17.3627 15.5684 17.3057L22 10.8737L19.1264 8L12.6939 14.4321Z" fill="#9C9C9C"/>
<path d="M24.3523 5.64712C23.4897 4.78429 22.0864 4.78429 21.2245 5.64712L20 6.87177L23.1278 10L24.3523 8.77519C24.7699 8.35843 25 7.80266 25 7.21156C25 6.62046 24.7699 6.06468 24.3523 5.64712Z" fill="#9C9C9C"/>
</svg>
