<svg width="23" height="23" viewBox="0 0 23 23" fill="none" xmlns="http://www.w3.org/2000/svg">
<path fill-rule="evenodd" clip-rule="evenodd" d="M4.05477 6.52099C3.6158 6.25761 3.06694 6.61835 3.1346 7.12578L4.47159 17.1532C4.63351 18.3676 5.66943 19.2745 6.89459 19.2745H16.9143C18.1395 19.2745 19.1754 18.3676 19.3373 17.1532L20.6743 7.12578C20.7419 6.61835 20.1931 6.25761 19.7541 6.52099L16.3732 8.54954L12.3739 3.7504C12.1296 3.45722 11.6793 3.45722 11.435 3.7504L7.43569 8.54954L4.05477 6.52099ZM10.5043 11.5791C10.1443 10.9792 9.22307 11.2344 9.22307 11.934C9.22307 12.059 9.25704 12.1816 9.32136 12.2888L11.0283 15.1338C11.4251 15.7951 12.3835 15.7951 12.7803 15.1338L14.4873 12.2888C14.5516 12.1816 14.5856 12.059 14.5856 11.934C14.5856 11.2344 13.6643 10.9792 13.3044 11.5791L12.0006 13.7521C11.957 13.8248 11.8517 13.8248 11.8081 13.7521L10.5043 11.5791Z" fill="#D1AC7D"/>
</svg>
