<svg width="16" height="16" viewBox="0 0 16 16" fill="none" xmlns="http://www.w3.org/2000/svg">
<g clip-path="url(#clip0_1922_18520)">
<path d="M15.4685 12.7145V3.29587C15.4685 1.50387 14.4978 0.533203 12.7272 0.533203H3.27649C1.50582 0.533203 0.535156 1.50387 0.535156 3.29587V12.7145C0.535156 14.4959 1.50582 15.4772 3.27649 15.4772H12.7272C14.4978 15.4772 15.4685 14.4959 15.4685 12.7145Z" fill="#04B160"/>
<path d="M7.98965 3.66895C8.29898 3.66895 8.54431 3.77561 8.75765 3.99961L11.4456 6.81561C11.627 7.00761 11.7016 7.17828 11.7016 7.42361C11.7016 7.88228 11.3603 8.21295 10.8803 8.21295C10.6456 8.21295 10.4216 8.10628 10.283 7.93561L9.44031 6.99695L8.84298 6.19695L8.93898 7.80761V11.3703C8.93898 11.8823 8.53365 12.2556 8.00031 12.2556C7.46698 12.2556 7.06165 11.8929 7.06165 11.3703V7.80761L7.16831 6.19695L6.56031 7.02895L5.72831 7.94628C5.57898 8.10628 5.35498 8.22361 5.12031 8.22361C4.65098 8.22361 4.32031 7.89295 4.32031 7.43428C4.32031 7.18895 4.39498 7.00761 4.56565 6.82628L7.25365 4.01028C7.47765 3.78628 7.71231 3.67961 8.01098 3.67961L7.98965 3.66895Z" fill="#121212"/>
</g>
<defs>
<clipPath id="clip0_1922_18520">
<rect width="14.9333" height="14.9333" fill="white" transform="translate(0.535156 0.533203)"/>
</clipPath>
</defs>
</svg>
