<svg width="16" height="16" viewBox="0 0 16 16" fill="none" xmlns="http://www.w3.org/2000/svg">
<g clip-path="url(#clip0_1922_18526)">
<path d="M0.535156 3.29587V12.7145C0.535156 14.5065 1.50582 15.4772 3.27649 15.4772H12.7272C14.4978 15.4772 15.4685 14.5065 15.4685 12.7145V3.29587C15.4685 1.51454 14.5085 0.533203 12.7272 0.533203H3.27649C1.50582 0.533203 0.535156 1.51454 0.535156 3.29587Z" fill="#EC2D2D"/>
<path d="M8.01278 12.3415C7.70345 12.3415 7.45811 12.2349 7.24478 12.0109L4.55678 9.19488C4.37545 9.00288 4.30078 8.83222 4.30078 8.58688C4.30078 8.12822 4.64211 7.79755 5.12211 7.79755C5.35678 7.79755 5.58078 7.90422 5.71945 8.07488L6.56211 9.01355L7.15945 9.81355L7.06345 8.20288V4.64022C7.06345 4.12822 7.46878 3.75488 8.00211 3.75488C8.53545 3.75488 8.94078 4.11755 8.94078 4.64022V8.20288L8.83411 9.81355L9.44211 8.98155L10.2741 8.06422C10.4234 7.90422 10.6474 7.78688 10.8821 7.78688C11.3514 7.78688 11.6821 8.11755 11.6821 8.57622C11.6821 8.82155 11.6074 9.00288 11.4368 9.18422L8.74878 12.0002C8.52478 12.2242 8.29011 12.3309 7.99145 12.3309L8.01278 12.3415Z" fill="#121212"/>
</g>
<defs>
<clipPath id="clip0_1922_18526">
<rect width="14.9333" height="14.9333" fill="white" transform="translate(0.535156 0.533203)"/>
</clipPath>
</defs>
</svg>
