<svg width="21" height="20" viewBox="0 0 21 20" fill="none" xmlns="http://www.w3.org/2000/svg">
<g clip-path="url(#clip0_1922_18734)">
<path fill-rule="evenodd" clip-rule="evenodd" d="M6.48862 1.23041L6.5989 1.18598C6.97534 1.03135 7.54539 0.797796 8.01295 1.14339C8.37192 1.40872 8.26143 1.85228 8.16319 2.24519C8.06495 2.6381 7.95462 3.08272 8.18689 3.42605C8.59744 4.03178 9.03589 4.44075 9.49018 4.6478C9.61556 4.70409 9.71059 4.73328 9.77777 4.74842C9.76946 4.71802 9.75689 4.68075 9.74008 4.6366C9.71839 4.58138 9.68455 4.50599 9.64326 4.4167C9.31452 3.68767 9.0129 2.93203 9.25512 2.40112C9.35415 2.18511 9.5306 2.03473 9.76718 1.96331L11.2521 1.52066C11.6107 1.41537 12.0086 1.62176 12.1162 1.97092L12.4734 3.12214C12.8044 4.19147 13.2491 5.62567 13.2602 5.66371C13.2787 5.72315 13.3767 5.80394 13.4714 5.88145C13.5996 5.98829 13.7457 6.10746 13.8456 6.28397C13.9555 6.47616 13.9806 6.6757 14 6.83747C14.0151 6.9559 14.0284 7.05904 14.0669 7.11924C14.1027 7.17556 14.16 7.23187 14.2271 7.29638C14.3685 7.43448 14.5626 7.62369 14.6233 7.93161C14.6433 8.03321 14.6475 8.13611 14.649 8.23888C14.6515 8.33775 14.653 8.42281 14.6789 8.46719C14.7263 8.54699 14.9456 8.66055 15.0882 8.8285C15.8522 9.7197 16.4692 10.7252 17.0658 11.6989C17.5451 12.4805 18.0402 13.2886 18.6021 14.0165C19.2926 14.9112 20.0072 15.9423 19.7384 16.85C19.5952 17.3328 19.199 17.6921 18.56 17.9167C17.6417 18.2389 16.5862 18.0502 15.6317 17.6451L14.9706 18.2619C14.9443 18.2975 14.8709 18.2983 14.8347 18.2716L13.8857 17.5701C13.8501 17.5438 13.8288 17.473 13.8551 17.4374L14.1463 16.7972C14.1391 16.7919 14.1308 16.7867 14.123 16.7809C13.8593 16.586 13.6028 16.3815 13.3421 16.1813L12.8233 16.6738C12.7849 16.7005 12.723 16.7098 12.6753 16.6745L11.7378 15.9816C11.6901 15.9463 11.6814 15.8849 11.6957 15.8404L12.0173 15.1629L11.818 15.0072C10.695 14.1323 9.58275 13.244 8.4716 12.3555C7.73525 11.7665 6.98204 11.1687 6.22765 10.5737L5.64002 11.1264C5.60524 11.1735 5.53187 11.1743 5.49627 11.148L4.54728 10.4465C4.51168 10.4202 4.5024 10.3583 4.52512 10.3023L4.88268 9.5283C4.51185 9.24115 4.14017 8.95895 3.76727 8.67586L3.14644 9.26463C3.11121 9.31229 3.04616 9.30059 2.99849 9.26537L2.06156 8.57283C2.0139 8.53761 1.9957 8.48777 2.01886 8.43119L2.39987 7.62037C1.78823 7.09737 1.43569 6.48509 2.18837 5.43775L2.45819 5.05505C3.53299 3.53027 4.64239 1.95362 6.48862 1.23041ZM14.0347 8.85026C13.9084 8.63748 13.9035 8.42579 13.8995 8.25582C13.898 8.19596 13.8991 8.13518 13.8875 8.07629C13.8731 8.00122 13.8116 7.93803 13.7035 7.833C13.6164 7.74898 13.5194 7.65303 13.4363 7.52442C13.3983 7.46466 13.3823 7.40431 13.3598 7.34384L4.47176 8.26927C5.15918 8.79324 5.84344 9.31393 6.52042 9.84697L14.246 9.08946C14.17 9.02577 14.0944 8.95128 14.0347 8.85026ZM12.2802 14.4159L12.6449 14.7013C13.2822 15.1985 13.9191 15.6973 14.5695 16.178C15.609 16.9463 17.138 17.6203 18.3121 17.2082C18.7106 17.068 18.9484 16.8762 19.0198 16.637C19.202 16.0207 18.3959 14.977 18.0089 14.4745C17.5628 13.8966 17.1697 13.2824 16.7887 12.6696L10.8168 13.2568C11.3049 13.6428 11.7889 14.0331 12.2802 14.4159ZM8.94106 11.7696C9.28357 12.0433 9.62982 12.3132 9.97234 12.5869C9.97339 12.5867 9.97323 12.5857 9.97383 12.5861L16.3463 11.9592C15.8933 11.2203 15.4222 10.4719 14.8895 9.78149L7.36567 10.5184C7.89196 10.9372 8.42366 11.3564 8.94106 11.7696ZM3.0728 5.48695L2.80031 5.87327L2.79897 5.87508C2.31511 6.54737 2.43267 6.73036 3.18982 7.29C3.32858 7.39257 3.46469 7.5025 3.60361 7.60612L13.156 6.61108C13.114 6.56321 13.0569 6.51169 12.9944 6.45991C12.832 6.32495 12.6295 6.15847 12.5449 5.88417L12.5618 5.87895C12.4651 5.62739 12.2718 5.00409 11.7577 3.34321L11.4194 2.25352L9.93791 2.71176C9.81672 2.97669 10.2012 3.82717 10.3274 4.10703C10.3741 4.21054 10.4129 4.29804 10.438 4.36134C10.6082 4.79499 10.5812 5.12303 10.3588 5.33555C10.188 5.4985 9.84454 5.62993 9.1818 5.33131C8.59069 5.06325 8.06364 4.57853 7.56713 3.84676C7.14626 3.22595 7.32068 2.52551 7.43628 2.06241C7.46401 1.95043 7.49992 1.80719 7.50997 1.72039C7.35668 1.68545 7.07718 1.79978 6.88418 1.87915L6.76373 1.92726C5.12639 2.56979 4.08236 4.05295 3.0728 5.48695Z" fill="white"/>
</g>
<defs>
<clipPath id="clip0_1922_18734">
<rect width="20" height="20" fill="white" transform="matrix(-1 0 0 1 20.5 0)"/>
</clipPath>
</defs>
</svg>
