<svg width="22" height="23" viewBox="0 0 22 23" fill="none" xmlns="http://www.w3.org/2000/svg">
<g clip-path="url(#clip0_1922_18539)">
<path d="M10.9957 0.305664C4.93096 0.305664 -0.00390625 5.24062 -0.00390625 11.3067C-0.00390625 17.3729 4.93096 22.3078 10.9957 22.3078C17.0616 22.3078 21.9957 17.3729 21.9957 11.3067C21.9957 5.24062 17.0616 0.305664 10.9957 0.305664ZM10.9957 20.8411C5.73914 20.8411 1.46268 16.5642 1.46268 11.3067C1.46268 6.04928 5.73954 1.7724 10.9957 1.7724C16.253 1.7724 20.5291 6.04928 20.5291 11.3067C20.5291 16.5642 16.2534 20.8411 10.9957 20.8411Z" fill="white"/>
<path d="M16.4419 10.5106H11.7275V4.27653C11.7275 3.87141 11.3991 3.54297 10.9944 3.54297C10.5901 3.54297 10.2617 3.87181 10.2617 4.27653V11.977H16.4419C16.8465 11.977 17.175 11.6489 17.1746 11.2438C17.1746 10.8391 16.8458 10.5106 16.4419 10.5106Z" fill="white"/>
</g>
<defs>
<clipPath id="clip0_1922_18539">
<rect width="22" height="22.0022" fill="white" transform="translate(0 0.306641)"/>
</clipPath>
</defs>
</svg>
