<svg width="22" height="22" viewBox="0 0 22 22" fill="none" xmlns="http://www.w3.org/2000/svg">
<path d="M20.1708 18.0746C20.1708 18.1349 20.1359 18.1889 20.0819 18.2143C19.7262 18.3953 19.3705 18.5668 19.018 18.7288C18.8306 18.8145 18.6433 18.8939 18.4591 18.9733C15.7565 20.1293 13.0825 20.7041 10.4403 20.7041C7.77265 20.7041 5.13995 20.1166 2.55806 18.9384C2.37387 18.8558 2.19285 18.7701 2.00865 18.678C1.71013 18.5319 1.40843 18.3763 1.10991 18.2143C1.0591 18.1857 1.02734 18.1318 1.02734 18.0714C1.03052 18.0111 1.06228 17.9603 1.11627 17.9317L10.6689 13.0601C10.7166 13.0347 10.7706 13.0347 10.815 13.0601L20.0851 17.9317C20.1391 17.9603 20.1708 18.0143 20.1708 18.0746Z" fill="#07C160"/>
<path d="M5.88369 16.3726C5.82652 16.3726 5.76936 16.3408 5.74078 16.2869C5.69949 16.2075 5.73125 16.1122 5.81064 16.0741L9.71048 14.0861C9.78987 14.0479 9.88514 14.0765 9.92325 14.1559C9.96454 14.2353 9.93278 14.3306 9.85338 14.3687L5.95673 16.3567C5.93132 16.3694 5.90592 16.3726 5.88369 16.3726Z" fill="#07DB6D"/>
<path d="M20.1708 18.0746C20.1708 18.135 20.1359 18.189 20.0819 18.2144C19.7262 18.3954 19.3705 18.5669 19.018 18.7288C18.8306 18.8146 18.6433 18.894 18.4591 18.9734C15.7565 20.1293 13.0825 20.7042 10.4403 20.7042C7.77265 20.7042 5.13995 20.1166 2.55806 18.9384C2.37387 18.8559 2.19285 18.7701 2.00865 18.678C1.71013 18.5319 1.40843 18.3763 1.10991 18.2144C1.0591 18.1858 1.02734 18.1318 1.02734 18.0715C1.03052 18.0111 1.06228 17.9603 1.11627 17.9317L1.8054 17.5792C1.95149 17.6554 2.0944 17.7189 2.24048 17.7856C4.82237 18.9638 7.45508 19.5514 10.1227 19.5514C12.7649 19.5514 15.4389 18.9765 18.1415 17.8206C18.3257 17.7412 18.5131 17.6618 18.7004 17.5792C18.8243 17.522 18.9513 17.4617 19.0752 17.4014L20.0851 17.9317C20.1391 17.9603 20.1708 18.0143 20.1708 18.0746Z" fill="#00AE53"/>
<path d="M10.8203 2.73828H20.4084V8.75871H10.8203V2.73828Z" fill="#FFA100"/>
<path d="M10.8203 2.73828H15.5029V5.637H10.8203V2.73828Z" fill="#FFA100"/>
<path d="M15.5039 5.6377H20.4094V8.7594H15.5039V5.6377Z" fill="#FFA100"/>
<path d="M10.7147 14.8737C10.5845 14.8737 10.4766 14.7657 10.4766 14.6355V1.95791C10.4766 1.8277 10.5845 1.71973 10.7147 1.71973C10.845 1.71973 10.9529 1.8277 10.9529 1.95791V14.6355C10.9529 14.7657 10.845 14.8737 10.7147 14.8737Z" fill="white"/>
<path d="M13.3611 15.7559C13.358 15.7528 13.3548 15.7496 13.3516 15.7464L10.8237 14.4221C10.757 14.3872 10.6776 14.3872 10.6078 14.4189L8.11479 15.6511C8.10844 15.6543 8.10844 15.6575 8.10209 15.6607L2.00781 18.6776C2.19201 18.7697 2.37302 18.8555 2.55722 18.938L8.16243 16.1624C8.81664 16.9278 9.75031 17.366 10.7634 17.366C11.732 17.366 12.6371 16.9627 13.2881 16.2545L18.4582 18.973C18.6424 18.8936 18.8298 18.8142 19.0172 18.7284L13.3611 15.7559ZM10.7634 16.8897C9.93133 16.8897 9.15644 16.5499 8.59751 15.9465L10.7094 14.9017L12.853 16.0259C12.3004 16.5785 11.5541 16.8897 10.7634 16.8897Z" fill="#E1D9E1"/>
</svg>
