<svg width="500" height="1084" viewBox="0 0 500 1084" fill="none" xmlns="http://www.w3.org/2000/svg">
<path d="M0 0L0 1084H500L500 0H0Z" fill="#284001"/>
<path d="M500 966.667L0 966.667L-1.3464e-06 1016L500 1016L500 966.667Z" fill="#354D19"/>
<path d="M500 866.667L0 866.667L-1.3464e-06 916L500 916L500 866.667Z" fill="#354D19"/>
<path d="M500 766.667L0 766.667L-1.3464e-06 816L500 816L500 766.667Z" fill="#354D19"/>
<path d="M500 666.667L0 666.667L-1.3464e-06 716L500 716L500 666.667Z" fill="#354D19"/>
<path d="M500 566.667L0 566.667L-1.3464e-06 616L500 616L500 566.667Z" fill="#354D19"/>
<path d="M500 466.667L0 466.667L-1.3464e-06 516L500 516L500 466.667Z" fill="#354D19"/>
<path d="M500 366.667L0 366.667L-1.3464e-06 416L500 416L500 366.667Z" fill="#354D19"/>
<path d="M500 266.667L0 266.667L-1.3464e-06 316L500 316L500 266.667Z" fill="#354D19"/>
<path d="M500 166.667L0 166.667L-1.3464e-06 216L500 216L500 166.667Z" fill="#354D19"/>
<path d="M500 66.667L0 66.667L-1.3464e-06 116L500 116L500 66.667Z" fill="#354D19"/>
<path fill-rule="evenodd" clip-rule="evenodd" d="M51.5902 59.7969L51.5901 59.8354H28.287C24.6098 59.8354 21.6289 62.8166 21.6289 66.4941V89.3136V91.977V543.257H478.372V66.4941C478.372 62.8166 475.391 59.8354 471.714 59.8354H381.164V59.7969H378.501V59.8354H311.921V59.7969H309.258V59.8354H186.749V59.7969H184.086V59.8354H116.173V59.7969H113.51V59.8354H54.2534L54.2534 59.7969H51.5902ZM28.287 62.4989H51.4662C50.1611 76.6573 38.7009 87.9491 24.2921 89.1986V66.4941C24.2921 64.2876 26.0807 62.4989 28.287 62.4989ZM24.2921 540.594V91.8713C40.1473 90.607 52.8214 78.1546 54.1401 62.4989H113.51V206.724C113.51 211.137 117.087 214.714 121.5 214.714H193.417C193.732 223.285 200.028 230.772 209.49 236.085C219.242 241.561 232.625 244.907 247.335 244.907C262.044 244.907 275.427 241.561 285.18 236.085C294.642 230.772 300.938 223.285 301.253 214.714H373.174C377.587 214.714 381.164 211.137 381.164 206.724V62.4989H443.779C444.497 79.4348 458.477 92.962 475.708 93.3024V540.594H24.2921ZM116.173 206.724V62.4989H184.086V126.649C184.086 131.062 187.663 134.64 192.076 134.64H303.931C308.344 134.64 311.921 131.062 311.921 126.649V62.4989H378.501V206.724C378.501 209.666 376.116 212.051 373.174 212.051H121.5C118.558 212.051 116.173 209.666 116.173 206.724ZM186.749 126.649V62.4989H309.258V126.649C309.258 129.591 306.873 131.976 303.931 131.976H192.076C189.134 131.976 186.749 129.591 186.749 126.649ZM475.708 90.6383C459.916 90.2994 447.161 77.9319 446.445 62.4989H471.714C473.92 62.4989 475.708 64.2876 475.708 66.4941V90.6383ZM196.082 214.714C196.398 221.922 201.749 228.684 210.794 233.763C220.079 238.976 232.995 242.243 247.335 242.243C261.674 242.243 274.591 238.976 283.876 233.763C292.921 228.684 298.272 221.922 298.587 214.714H196.082ZM317.032 283.9C317.032 264.474 287.261 248.67 250.666 248.67C214.071 248.67 184.3 264.474 184.3 283.9H181.422C181.422 263.631 212.484 247.142 250.666 247.142C288.848 247.142 319.91 263.631 319.91 283.9H317.032Z" fill="#576A39"/>
<path fill-rule="evenodd" clip-rule="evenodd" d="M24.2931 1016.22L24.2931 993.498C39.3221 994.143 51.4536 1005.66 52.7987 1020.21L28.2879 1020.21C26.0816 1020.21 24.2931 1018.42 24.2931 1016.22ZM24.2931 990.84C40.7652 991.491 54.1172 1004.16 55.4726 1020.21L118.837 1020.21L118.837 876.397C118.837 871.997 122.414 868.429 126.827 868.429L198.744 868.429C199.059 859.884 205.355 852.418 214.817 847.12C224.569 841.659 237.952 838.324 252.662 838.324C267.371 838.324 280.754 841.659 290.507 847.12C299.969 852.418 306.265 859.884 306.58 868.429L378.502 868.429C382.914 868.429 386.491 871.997 386.491 876.397L386.491 1020.21L445.861 1020.21C447.18 1004.6 459.854 992.18 475.709 990.919L475.709 543.488L24.2931 543.488L24.2931 990.84ZM52.9227 1022.9L52.9227 1022.86L28.2879 1022.86C24.6108 1022.86 21.6299 1019.89 21.6299 1016.22L21.6299 540.832L478.373 540.832L478.373 990.814L478.373 993.469L478.373 1016.22C478.373 1019.89 475.392 1022.86 471.715 1022.86L448.411 1022.86L448.411 1022.9L445.748 1022.9L445.748 1022.86L386.491 1022.86L386.491 1022.9L383.828 1022.9L383.828 1022.86L315.915 1022.86L315.915 1022.9L313.252 1022.9L313.252 1022.86L190.744 1022.86L190.744 1022.9L188.081 1022.9L188.081 1022.86L121.501 1022.86L121.501 1022.9L118.837 1022.9L118.837 1022.86L55.5859 1022.86L55.5859 1022.9L52.9227 1022.9ZM448.535 1020.21C449.84 1006.09 461.301 994.83 475.709 993.584L475.709 1016.22C475.709 1018.42 473.921 1020.21 471.715 1020.21L448.535 1020.21ZM383.828 876.397L383.828 1020.21L315.915 1020.21L315.915 956.241C315.915 951.841 312.338 948.274 307.926 948.274L196.07 948.274C191.658 948.274 188.081 951.841 188.081 956.241L188.081 1020.21L121.501 1020.21L121.501 876.397C121.501 873.463 123.885 871.085 126.827 871.085L378.502 871.085C381.443 871.085 383.828 873.463 383.828 876.397ZM313.252 956.241L313.252 1020.21L190.744 1020.21L190.744 956.241C190.744 953.308 193.129 950.929 196.07 950.929L307.926 950.929C310.867 950.929 313.252 953.308 313.252 956.241ZM303.914 868.429C303.599 861.242 298.248 854.5 289.203 849.435C279.918 844.237 267.001 840.98 252.662 840.98C238.322 840.98 225.406 844.237 216.121 849.435C207.076 854.5 201.725 861.242 201.409 868.429L303.914 868.429ZM184.301 283.714C184.301 303.085 214.072 318.843 250.667 318.843C287.262 318.843 317.033 303.085 317.033 283.714L319.911 283.714C319.911 303.925 288.849 320.367 250.667 320.367C212.485 320.367 181.423 303.925 181.423 283.714L184.301 283.714Z" fill="#576A39"/>
</svg>
