<svg width="16" height="16" viewBox="0 0 16 16" fill="none" xmlns="http://www.w3.org/2000/svg">
<g clip-path="url(#clip0_1922_18577)">
<path d="M4.98993 0.58543C3.99747 0.987803 3.10693 1.57942 2.3433 2.34283C1.57944 3.10645 0.988479 3.9972 0.58588 4.98942C0.19721 5.94804 0 6.96105 0 8.00014C0 9.03901 0.19721 10.052 0.58588 11.0102C0.988479 12.0026 1.57967 12.8934 2.3433 13.6568C3.10693 14.4206 3.99725 15.0118 4.98993 15.4142C5.94856 15.8033 6.96136 15.9998 8.00047 15.9998C9.03958 15.9998 10.0522 15.8026 11.0108 15.4142C12.003 15.0118 12.894 14.4206 13.6574 13.6568C14.4213 12.8934 15.0125 12.0031 15.4148 11.0102C15.8035 10.052 16.0003 9.03901 16.0003 8.00014C16.0003 6.96105 15.8033 5.94804 15.4148 4.98942C15.0125 3.9972 14.4208 3.10623 13.6574 2.34283C12.894 1.57942 12.0039 0.987803 11.0108 0.58543C10.0522 0.196986 9.03958 0 8.00047 0C6.96136 0 5.94856 0.196986 4.98993 0.58543ZM1.99951 11.3679C1.61416 11.126 1.25909 10.8475 0.944704 10.5194C0.464503 9.16813 0.383144 7.70521 0.701288 6.31659C0.850963 6.02144 1.0212 5.73801 1.21377 5.46652C1.27324 5.38273 1.32829 5.2954 1.39196 5.21404L3.19736 6.28232C3.19736 6.29647 3.19736 6.31194 3.19736 6.32764C3.19272 7.29864 3.29132 8.26257 3.48765 9.21256C3.48831 9.21698 3.48897 9.21942 3.48986 9.2234L2.08971 11.4188C2.0592 11.4033 2.02891 11.3865 1.99951 11.3679ZM7.3675 15.0792C7.67901 15.2382 7.99937 15.3724 8.32856 15.4816C6.93019 15.5424 5.51789 15.2148 4.26941 14.4985L7.29587 15.0377C7.31908 15.0525 7.34274 15.0666 7.3675 15.0792ZM7.35644 14.5329L3.78501 13.8964C3.36715 13.3891 2.99131 12.8523 2.6683 12.2786C2.58605 12.1326 2.4943 11.9909 2.42466 11.8386L3.82348 9.64544C3.85443 9.65318 3.88892 9.66136 3.92805 9.67175C4.80311 9.90588 5.69365 10.0724 6.59038 10.2028C6.64278 10.2101 6.68655 10.2165 6.72392 10.2205L8.40064 13.1196C8.10969 13.5286 7.81542 13.9354 7.51474 14.3377C7.46478 14.4047 7.41172 14.4691 7.35644 14.5329ZM13.2984 13.298C13.0141 13.5825 12.7123 13.839 12.3963 14.0676C12.3439 13.6488 12.2535 13.2385 12.126 12.8377L13.915 9.50019C14.4078 9.27579 14.8831 9.02133 15.3244 8.70584C15.3821 8.66494 15.4301 8.61917 15.4672 8.56921C15.3377 10.2939 14.6147 11.9819 13.2984 13.298ZM13.219 8.96959C13.2856 9.09649 13.3512 9.22472 13.4171 9.35472L11.6891 12.5781C11.6791 12.5803 11.6696 12.5825 11.6597 12.5839C10.7256 12.7583 9.78398 12.8512 8.83441 12.8556L7.10993 9.87382C7.37833 9.3755 7.6443 8.87519 7.90806 8.37466C8.08714 8.03507 8.26312 7.69327 8.43889 7.3517L12.0079 6.98514C12.445 7.62629 12.8591 8.28114 13.219 8.96959ZM12.4949 5.14617C12.3256 5.59342 12.1443 6.03603 11.9641 6.47952L8.4873 6.83658C8.44574 6.78175 8.40263 6.7278 8.3573 6.67629C7.94675 6.21135 7.53354 5.74928 7.12099 5.28589C7.12475 5.28125 7.1285 5.27771 7.13226 5.27351C6.96578 5.10726 6.79886 4.941 6.63239 4.7743L7.6003 1.8602C7.66707 1.84251 7.73428 1.8277 7.80216 1.8204C8.32834 1.7669 8.85519 1.70632 9.38271 1.67582C9.70571 1.65769 10.0305 1.6473 10.359 1.67051L12.7538 4.36972C12.6714 4.63016 12.5909 4.89126 12.4949 5.14617ZM13.2984 2.70187C13.959 3.36291 14.4706 4.11724 14.8323 4.92309C14.3848 4.61512 13.9064 4.36176 13.4034 4.15527C13.3251 4.12299 13.2449 4.09447 13.1633 4.06639L10.8061 1.40963C10.8224 1.29489 10.831 1.17992 10.8346 1.06408C11.7313 1.42909 12.5719 1.9756 13.2984 2.70187ZM5.60101 0.924573C5.6103 0.931426 5.61472 0.937174 5.62003 0.938722C6.15882 1.12487 6.64897 1.39902 7.11104 1.72423L6.20679 4.44732C6.20215 4.44865 6.19773 4.44998 6.19331 4.45196C6.00826 4.52846 5.81967 4.597 5.63749 4.6799C4.8869 5.02103 4.15511 5.39887 3.46576 5.85187L1.68137 4.79619C1.68402 4.74048 1.69353 4.68388 1.71254 4.63347C1.83237 4.31423 1.95021 3.99322 2.08573 3.68038C2.19009 3.4394 2.30903 3.2066 2.43881 2.9791C2.52371 2.88537 2.6117 2.79251 2.70234 2.70187C3.54977 1.85467 4.55129 1.2531 5.6176 0.897379C5.61207 0.906002 5.60632 0.915066 5.60101 0.924573Z" fill="white"/>
</g>
<defs>
<clipPath id="clip0_1922_18577">
<rect width="16.0003" height="16.0003" fill="white"/>
</clipPath>
</defs>
</svg>
