<svg width="17" height="16" viewBox="0 0 17 16" fill="none" xmlns="http://www.w3.org/2000/svg">
<path fill-rule="evenodd" clip-rule="evenodd" d="M4.64793 2.31773L4.73615 2.28218C5.03731 2.15848 5.49334 1.97164 5.86739 2.24811C6.15457 2.46038 6.06617 2.81523 5.98758 3.12956C5.90899 3.44388 5.82073 3.79957 6.00654 4.07424C6.33499 4.55882 6.68574 4.886 7.04917 5.05164C7.14948 5.09667 7.22551 5.12003 7.27925 5.13214C7.2726 5.10781 7.26255 5.078 7.24909 5.04268C7.23174 4.99851 7.20467 4.93819 7.17164 4.86676C6.90865 4.28353 6.66735 3.67903 6.86113 3.2543C6.94035 3.08149 7.08151 2.96119 7.27078 2.90405L8.45872 2.54992C8.74562 2.4657 9.06392 2.63081 9.15001 2.91014L9.43577 3.83111C9.70055 4.68658 10.0563 5.83394 10.0652 5.86437C10.08 5.91192 10.1584 5.97655 10.2342 6.03856C10.3367 6.12403 10.4536 6.21937 10.5335 6.36057C10.6214 6.51433 10.6415 6.67396 10.657 6.80337C10.6691 6.89812 10.6797 6.98063 10.7106 7.02879C10.7392 7.07384 10.785 7.1189 10.8387 7.1705C10.9518 7.28099 11.1071 7.43235 11.1556 7.67869C11.1717 7.75996 11.175 7.84229 11.1762 7.9245C11.1782 8.0036 11.1794 8.07165 11.2002 8.10715C11.2381 8.17099 11.4135 8.26184 11.5276 8.3962C12.1388 9.10916 12.6324 9.91357 13.1097 10.6925C13.4931 11.3178 13.8892 11.9643 14.3387 12.5466C14.8911 13.2624 15.4628 14.0872 15.2477 14.8134C15.1332 15.1996 14.8162 15.4871 14.305 15.6667C13.5704 15.9245 12.726 15.7735 11.9624 15.4495L11.4335 15.9429C11.4124 15.9714 11.3538 15.9721 11.3248 15.9507L10.5656 15.3895C10.5371 15.3684 10.52 15.3118 10.5411 15.2833L10.7741 14.7712C10.7683 14.7669 10.7617 14.7627 10.7554 14.7581C10.5445 14.6022 10.3393 14.4386 10.1307 14.2785L9.71564 14.6724C9.68494 14.6938 9.63542 14.7012 9.59729 14.673L8.84726 14.1186C8.80913 14.0905 8.80219 14.0413 8.81358 14.0057L9.07088 13.4637L8.91144 13.3391C8.01299 12.6392 7.12323 11.9286 6.23431 11.2178C5.64523 10.7466 5.04266 10.2683 4.43915 9.79239L3.96905 10.2345C3.94122 10.2722 3.88253 10.2728 3.85405 10.2518L3.09486 9.69062C3.06638 9.66958 3.05895 9.62005 3.07712 9.57527L3.36317 8.95604C3.06652 8.72632 2.76917 8.50056 2.47085 8.27409L1.97418 8.74511C1.946 8.78324 1.89396 8.77388 1.85583 8.74569L1.10628 8.19167C1.06815 8.16348 1.05359 8.12361 1.07212 8.07835L1.37693 7.4297C0.887616 7.0113 0.605589 6.52147 1.20773 5.6836L1.42358 5.37744C2.28342 4.15761 3.17094 2.8963 4.64793 2.31773ZM10.6848 8.41361C10.5838 8.24338 10.5798 8.07403 10.5766 7.93805C10.5754 7.89017 10.5763 7.84154 10.5671 7.79443C10.5555 7.73438 10.5063 7.68382 10.4199 7.5998C10.3501 7.53258 10.2725 7.45582 10.206 7.35293C10.1757 7.30513 10.1629 7.25684 10.1449 7.20847L3.03444 7.94881C3.58438 8.36799 4.13178 8.78454 4.67337 9.21098L10.8539 8.60497C10.793 8.55402 10.7326 8.49442 10.6848 8.41361ZM9.28122 12.8661L9.57294 13.0945C10.0828 13.4922 10.5923 13.8912 11.1126 14.2758C11.9442 14.8905 13.1675 15.4297 14.1067 15.1C14.4255 14.9878 14.6158 14.8344 14.6729 14.643C14.8187 14.1499 14.1737 13.315 13.8641 12.913C13.5073 12.4507 13.1928 11.9593 12.888 11.469L8.1105 11.9389C8.50097 12.2476 8.88812 12.5599 9.28122 12.8661ZM6.60988 10.7491C6.88389 10.968 7.16089 11.184 7.4349 11.4029C7.43574 11.4028 7.43561 11.402 7.4361 11.4023L12.5341 10.9007C12.1717 10.3097 11.7948 9.71091 11.3686 9.15859L5.34957 9.74811C5.7706 10.0832 6.19596 10.4185 6.60988 10.7491ZM1.91527 5.72296L1.69728 6.03202L1.69621 6.03347C1.30912 6.5713 1.40317 6.71769 2.00889 7.1654C2.11989 7.24745 2.22878 7.3354 2.33992 7.41829L9.98186 6.62227C9.94823 6.58397 9.90256 6.54275 9.85258 6.50133C9.72266 6.39336 9.56064 6.26017 9.49297 6.04073L9.50651 6.03656C9.42912 5.83531 9.27451 5.33668 8.86322 4.00796L8.59258 3.13622L7.40736 3.50281C7.31041 3.71475 7.61801 4.39514 7.71897 4.61902C7.75628 4.70183 7.78738 4.77184 7.80741 4.82247C7.94356 5.16939 7.92198 5.43183 7.74407 5.60184C7.60742 5.7322 7.33267 5.83735 6.80247 5.59845C6.32959 5.384 5.90795 4.99622 5.51073 4.41081C5.17404 3.91416 5.31357 3.35381 5.40606 2.98333C5.42824 2.89374 5.45697 2.77915 5.46501 2.70971C5.34237 2.68176 5.11878 2.77323 4.96438 2.83672L4.86801 2.87521C3.55815 3.38923 2.72292 4.57576 1.91527 5.72296Z" fill="white"/>
</svg>
