<svg width="15" height="15" viewBox="0 0 15 15" fill="none" xmlns="http://www.w3.org/2000/svg">
<g id="Frame" clip-path="url(#clip0_3304_130363)">
<g id="7JP8wd.tif">
<g id="Group">
<path id="Vector" d="M15.0001 7.06145V7.94028C14.9916 7.98224 14.9781 8.0242 14.9752 8.06645C14.9021 9.11254 14.6253 10.1035 14.1194 11.0199C12.9528 13.132 11.1811 14.4254 8.80741 14.8814C8.52127 14.9363 8.22955 14.961 7.94048 14.9997H7.0618C7.02424 14.9915 6.98667 14.9783 6.94852 14.9756C5.90197 14.9043 4.90708 14.6347 3.99319 14.1229C1.52855 12.7432 0.18794 10.634 0.0139067 7.81351C-0.0694413 6.46079 0.221983 5.16646 0.884952 3.98245C2.26166 1.52319 4.37148 0.187486 7.18624 0.013774C8.53888 -0.0698544 9.82901 0.228273 11.0182 0.882335C13.1333 2.0458 14.4261 3.82077 14.8818 6.19553C14.9367 6.48133 14.9614 6.77271 15.0001 7.06145ZM9.42548 5.57227V5.3924C9.42548 4.78705 9.42607 4.18199 9.42548 3.57664C9.42489 3.15145 9.22151 2.94488 8.79949 2.94429C7.93549 2.94282 7.07178 2.94311 6.20778 2.94429C5.77607 2.94488 5.57328 3.14969 5.57298 3.58339C5.5724 4.19343 5.57298 4.80348 5.57298 5.41382C5.57298 5.46488 5.57298 5.51564 5.57298 5.57227C4.89358 5.57227 4.23971 5.57198 3.58584 5.57227C3.15149 5.57257 2.94576 5.77504 2.94517 6.2055C2.944 7.06937 2.944 7.93324 2.94517 8.7971C2.94576 9.22229 3.1512 9.42798 3.57292 9.42857C4.18307 9.42945 4.79321 9.42857 5.40335 9.42857H5.57328C5.57328 9.49841 5.57328 9.55093 5.57328 9.60346C5.57328 10.2185 5.5721 10.8335 5.57386 11.4486C5.57504 11.8374 5.78223 12.0542 6.1661 12.0557C7.05916 12.0592 7.95251 12.0592 8.84557 12.0557C9.23266 12.0542 9.43663 11.8418 9.43722 11.4521C9.4381 10.8324 9.43722 10.2123 9.43722 9.5926C9.43722 9.54095 9.43722 9.48931 9.43722 9.42886C9.51235 9.42886 9.56547 9.42886 9.61888 9.42886C10.2387 9.42886 10.8585 9.43092 11.4784 9.42798C11.8526 9.42622 12.0712 9.20644 12.0697 8.83437C12.0662 7.94615 12.0609 7.05763 12.053 6.16941C12.0495 5.78149 11.8382 5.57374 11.4514 5.57257C10.8803 5.57051 10.3091 5.57198 9.73833 5.57198C9.64148 5.57198 9.54463 5.57198 9.42607 5.57198L9.42548 5.57227Z" fill="#FC1111"/>
<path id="Vector_2" d="M9.42709 5.5728C9.54565 5.5728 9.6425 5.5728 9.73935 5.5728C10.3105 5.5728 10.8816 5.57134 11.4524 5.57339C11.8392 5.57486 12.0502 5.78231 12.054 6.17023C12.0622 7.05845 12.0672 7.94667 12.0707 8.83519C12.0722 9.20756 11.8539 9.42704 11.4794 9.4288C10.8596 9.43174 10.2397 9.42969 9.6199 9.42969C9.56649 9.42969 9.51337 9.42969 9.43824 9.42969C9.43824 9.49043 9.43824 9.54207 9.43824 9.59342C9.43824 10.2132 9.43883 10.8332 9.43824 11.4529C9.43765 11.8426 9.23369 12.055 8.84659 12.0565C7.95353 12.06 7.06018 12.06 6.16712 12.0565C5.78325 12.055 5.57576 11.8382 5.57488 11.4494C5.57312 10.8343 5.5743 10.2193 5.5743 9.60428C5.5743 9.55175 5.5743 9.49923 5.5743 9.42939H5.40437C4.79423 9.42939 4.18409 9.42998 3.57394 9.42939C3.15222 9.4288 2.94678 9.22311 2.94619 8.79792C2.94502 7.93406 2.94502 7.07019 2.94619 6.20632C2.94678 5.77556 3.15251 5.57339 3.58686 5.5731C4.24073 5.57251 4.8946 5.5731 5.574 5.5731C5.574 5.51646 5.574 5.46541 5.574 5.41464C5.574 4.80459 5.57371 4.19455 5.574 3.58421C5.5743 3.15051 5.77709 2.9457 6.2088 2.94511C7.0728 2.94423 7.93651 2.94394 8.80051 2.94511C9.22253 2.9457 9.42591 3.15227 9.4265 3.57746C9.42738 4.18281 9.4265 4.78787 9.4265 5.39322V5.5731L9.42709 5.5728ZM6.17945 11.4576H8.82575C8.82575 11.3936 8.82575 11.3411 8.82575 11.2883C8.82575 10.6099 8.82575 9.93116 8.82575 9.25275C8.82575 8.92527 8.92641 8.82463 9.25393 8.82463C9.93745 8.82463 10.6207 8.82463 11.3042 8.82463H11.4591V6.17845C11.3955 6.17845 11.3426 6.17845 11.2898 6.17845C10.6113 6.17845 9.93275 6.17845 9.25423 6.17845C8.92671 6.17845 8.82604 6.0778 8.82604 5.75033C8.82604 5.06692 8.82604 4.38352 8.82604 3.70011V3.54518H6.17974C6.17974 3.60915 6.17974 3.66167 6.17974 3.71449C6.17974 4.39291 6.17974 5.07162 6.17974 5.75004C6.17974 6.07751 6.07908 6.17815 5.75156 6.17815C5.06805 6.17815 4.38483 6.17815 3.70131 6.17815H3.54636V8.82433H3.71569C4.39921 8.82433 5.08243 8.82404 5.76594 8.82433C6.07174 8.82433 6.17916 8.93202 6.17945 9.23778C6.18004 9.9162 6.17945 10.5949 6.17945 11.2733C6.17945 11.3311 6.17945 11.3886 6.17945 11.4576Z" fill="white"/>
<path id="Vector_3" d="M6.17997 11.4573C6.17997 11.3887 6.17997 11.3309 6.17997 11.2731C6.17997 10.5946 6.18026 9.91594 6.17997 9.23752C6.17997 8.93176 6.07226 8.82437 5.76646 8.82407C5.08294 8.82349 4.39972 8.82407 3.71621 8.82407H3.54688V6.1779H3.70183C4.38534 6.1779 5.06856 6.1779 5.75208 6.1779C6.0796 6.1779 6.17997 6.07725 6.18026 5.74978C6.18026 5.07136 6.18026 4.39265 6.18026 3.71423C6.18026 3.66141 6.18026 3.6086 6.18026 3.54492H8.82656V3.69985C8.82656 4.38326 8.82656 5.06667 8.82656 5.75007C8.82656 6.07754 8.92722 6.17819 9.25475 6.17819C9.93327 6.17819 10.6118 6.17819 11.2903 6.17819C11.3431 6.17819 11.396 6.17819 11.4597 6.17819V8.82437H11.3047C10.6212 8.82437 9.93796 8.82437 9.25445 8.82437C8.92693 8.82437 8.82656 8.92502 8.82627 9.25249C8.82627 9.9309 8.82627 10.6096 8.82627 11.288C8.82627 11.3408 8.82627 11.3937 8.82627 11.4573H6.17997Z" fill="#FC1111"/>
</g>
</g>
</g>
<defs>
<clipPath id="clip0_3304_130363">
<rect width="15" height="15" fill="white"/>
</clipPath>
</defs>
</svg>
