<svg width="20" height="20" viewBox="0 0 20 20" fill="none" xmlns="http://www.w3.org/2000/svg">
<g clip-path="url(#clip0_1922_18718)">
<path d="M19.997 9.76298C19.9964 9.73812 19.9955 9.71331 19.9947 9.68849C19.993 9.63392 19.991 9.57947 19.9885 9.5251C19.9872 9.49702 19.9858 9.46894 19.9842 9.4409C19.9813 9.38812 19.9779 9.33547 19.9742 9.2829C19.9723 9.25649 19.9706 9.23008 19.9684 9.20371C19.9635 9.14045 19.9578 9.07743 19.9517 9.01453C19.9503 9.00004 19.9491 8.98547 19.9476 8.97098C19.9398 8.89429 19.931 8.81788 19.9214 8.74167C19.9186 8.71914 19.9153 8.69673 19.9124 8.67424C19.9051 8.61996 19.8977 8.5658 19.8896 8.5118C19.8854 8.48396 19.8811 8.4562 19.8767 8.42845C19.8689 8.37882 19.8607 8.32931 19.8521 8.27992C19.8473 8.25233 19.8425 8.22469 19.8376 8.19718C19.8278 8.14335 19.8173 8.08971 19.8067 8.03616C19.8024 8.01453 19.7984 7.99282 19.7939 7.97127C19.7788 7.8978 19.7629 7.82461 19.7461 7.75175C19.7416 7.73204 19.7367 7.71245 19.732 7.69282C19.7192 7.63865 19.7061 7.58465 19.6925 7.53086C19.6854 7.50314 19.6781 7.47551 19.6708 7.44788C19.6587 7.40163 19.6462 7.35547 19.6334 7.30951C19.6254 7.28098 19.6174 7.25249 19.6092 7.22404C19.5956 7.17686 19.5816 7.12992 19.5673 7.08302C19.5595 7.05743 19.5519 7.03176 19.5439 7.00629C19.5221 6.93653 19.4996 6.86702 19.4763 6.79796C19.4712 6.78294 19.4658 6.76808 19.4606 6.75302C19.4415 6.69743 19.4221 6.64196 19.402 6.58678C19.3921 6.55939 19.3818 6.53216 19.3716 6.50486C19.3556 6.46192 19.3394 6.4191 19.3228 6.37645C19.3115 6.34735 19.3 6.31833 19.2884 6.28939C19.2718 6.24763 19.2547 6.20604 19.2374 6.16453C19.2259 6.13678 19.2144 6.10902 19.2027 6.08139C19.1816 6.03192 19.16 5.98278 19.1381 5.93371C19.1296 5.91465 19.1214 5.89543 19.1128 5.87645C19.0836 5.81212 19.0537 5.7482 19.0232 5.68461C19.0105 5.65808 18.9974 5.63184 18.9845 5.60547C18.9649 5.56535 18.9451 5.52527 18.9249 5.48547C18.9103 5.45673 18.8956 5.42816 18.8807 5.39959C18.8611 5.3618 18.8413 5.3242 18.8212 5.28669C18.8061 5.25853 18.791 5.23029 18.7757 5.20224C18.7534 5.16163 18.7307 5.12135 18.7079 5.0811C18.6944 5.05727 18.6812 5.03327 18.6676 5.00955C18.6326 4.94894 18.597 4.88878 18.5608 4.82898C18.5461 4.80469 18.531 4.78073 18.5161 4.75661C18.4924 4.7182 18.4686 4.67988 18.4444 4.64184C18.427 4.61445 18.4094 4.58731 18.3917 4.56012C18.3691 4.52527 18.3462 4.49057 18.3232 4.45604C18.305 4.42882 18.2868 4.40163 18.2684 4.37461C18.2438 4.33865 18.219 4.30298 18.194 4.26735C18.1769 4.2429 18.16 4.21837 18.1426 4.19412C18.1023 4.13767 18.0615 4.08155 18.02 4.02596C16.9279 2.5622 15.4443 1.40796 13.7247 0.717306C13.7246 0.717265 13.7245 0.717265 13.7244 0.717224C13.656 0.689755 13.5871 0.663102 13.518 0.637102C13.513 0.635224 13.5081 0.633306 13.5032 0.631469C13.4376 0.606939 13.3717 0.583224 13.3055 0.560041C13.2966 0.556939 13.2877 0.553755 13.2788 0.550653C13.2156 0.528735 13.1522 0.507551 13.0884 0.486898C13.0762 0.482898 13.0639 0.478857 13.0516 0.474898C12.9906 0.455388 12.9293 0.436531 12.8678 0.418122C12.8523 0.41351 12.8368 0.408857 12.8213 0.404327C12.7624 0.38702 12.7032 0.370286 12.6438 0.354041C12.6253 0.348939 12.6067 0.343918 12.5881 0.338939C12.5311 0.323755 12.474 0.30898 12.4167 0.294776C12.3952 0.289429 12.3736 0.284204 12.352 0.27898C12.2969 0.265714 12.2418 0.252816 12.1864 0.24049C12.1621 0.235061 12.1377 0.229837 12.1133 0.224531C12.0601 0.213102 12.0069 0.201959 11.9534 0.191347C11.9262 0.185959 11.8988 0.180816 11.8715 0.175633C11.8204 0.165959 11.7692 0.156449 11.7178 0.147551C11.6876 0.142286 11.6571 0.137429 11.6268 0.132449C11.5778 0.124408 11.5288 0.11649 11.4796 0.109184C11.4462 0.104204 11.4127 0.0997959 11.3793 0.0951429C11.3325 0.0886939 11.2857 0.0821633 11.2387 0.0763673C11.2022 0.0718367 11.1654 0.0679184 11.1288 0.0637959C11.0844 0.0588163 11.04 0.0536735 10.9954 0.0492653C10.9552 0.0452653 10.9148 0.0420408 10.8744 0.0385306C10.8329 0.0349388 10.7915 0.0310612 10.7498 0.0279592C10.7048 0.0246122 10.6595 0.0221224 10.6143 0.0193878C10.5769 0.017102 10.5396 0.014449 10.502 0.0125714C10.4492 0.00995918 10.396 0.00832653 10.343 0.00653061C10.3127 0.0055102 10.2824 0.00395918 10.252 0.00322449C10.1682 0.00110204 10.0842 0 10 0C9.91576 0 9.8318 0.00110204 9.74804 0.00318367C9.71755 0.00395918 9.68731 0.00546939 9.6569 0.0064898C9.60388 0.00828571 9.55082 0.00991837 9.498 0.0125306C9.46037 0.0143673 9.42298 0.0170612 9.38551 0.0193469C9.34041 0.0220816 9.29518 0.0246122 9.2502 0.0279184C9.20849 0.0310204 9.16698 0.034898 9.12539 0.0384898C9.08514 0.0419592 9.04478 0.0452245 9.00469 0.0492245C8.95996 0.0536327 8.91547 0.0588163 8.87094 0.0637959C8.83441 0.0679184 8.79784 0.0717959 8.76143 0.0763265C8.71429 0.0821633 8.66739 0.0886939 8.62045 0.0951429C8.58714 0.0997551 8.55375 0.104204 8.52057 0.109102C8.47118 0.116449 8.42204 0.124408 8.3729 0.132449C8.34273 0.137388 8.31249 0.142204 8.28237 0.147429C8.23077 0.156367 8.17947 0.165918 8.12816 0.175592C8.10102 0.180776 8.07388 0.185837 8.04682 0.191184C7.99318 0.201837 7.93971 0.21302 7.88637 0.22449C7.86216 0.229673 7.838 0.234898 7.81388 0.240286C7.75829 0.252694 7.70282 0.265633 7.64759 0.278939C7.62633 0.284082 7.60502 0.289265 7.5838 0.294531C7.52612 0.308857 7.46869 0.323673 7.41139 0.33898C7.39318 0.343837 7.37494 0.348776 7.35678 0.353755C7.29702 0.370082 7.23747 0.386939 7.17812 0.404367C7.16306 0.408775 7.14804 0.413306 7.13306 0.417796C7.07102 0.436286 7.00931 0.455347 6.94784 0.47502C6.93608 0.478775 6.92437 0.482612 6.91265 0.486449C6.84833 0.507306 6.78424 0.528694 6.72053 0.550816C6.71237 0.553633 6.70424 0.556571 6.69604 0.559429C6.62906 0.582857 6.56237 0.606898 6.49604 0.631714C6.49208 0.633184 6.48816 0.634735 6.48424 0.636204C4.67355 1.31645 3.11233 2.5062 1.97592 4.03155C1.93612 4.08498 1.89686 4.13878 1.85812 4.19302C1.83984 4.21865 1.82188 4.24461 1.80384 4.27041C1.77988 4.30465 1.75596 4.3389 1.73241 4.37343C1.71339 4.40131 1.69465 4.42931 1.67592 4.45735C1.65351 4.49094 1.63131 4.52469 1.60927 4.55857C1.5911 4.58661 1.5729 4.61457 1.55498 4.64278C1.53163 4.67947 1.50873 4.71645 1.48588 4.75347C1.47016 4.7789 1.45429 4.80412 1.43882 4.82967C1.4029 4.88906 1.36755 4.94878 1.33282 5.00898C1.31861 5.03359 1.30486 5.05849 1.2909 5.08322C1.26857 5.12261 1.24637 5.16204 1.22461 5.20176C1.20902 5.23024 1.19371 5.2589 1.17837 5.28755C1.15857 5.32449 1.13898 5.36159 1.11967 5.39886C1.10461 5.4278 1.08967 5.45682 1.07486 5.48596C1.05494 5.52527 1.03543 5.56482 1.01604 5.60441C1.0029 5.63122 0.989592 5.65792 0.976653 5.6849C0.946612 5.74759 0.917102 5.81057 0.888367 5.87396C0.879224 5.89412 0.87049 5.91449 0.861469 5.93469C0.839796 5.98339 0.818286 6.03216 0.797388 6.08126C0.785551 6.10902 0.774122 6.1369 0.762531 6.16473C0.745306 6.20612 0.728286 6.24763 0.711633 6.28927C0.700041 6.31829 0.688612 6.34735 0.677224 6.37649C0.660694 6.4191 0.64449 6.46184 0.62849 6.50473C0.618286 6.53208 0.607959 6.55935 0.597959 6.58686C0.578 6.64192 0.558612 6.69722 0.539551 6.75269C0.534367 6.76784 0.528857 6.78282 0.523755 6.79796C0.500408 6.86706 0.477959 6.93657 0.456122 7.00633C0.448163 7.0318 0.440531 7.05739 0.432775 7.08294C0.41849 7.1298 0.404449 7.17677 0.390857 7.22392C0.382653 7.25237 0.374612 7.2809 0.366653 7.30951C0.353837 7.35555 0.341347 7.40171 0.329184 7.448C0.321918 7.47555 0.314612 7.50302 0.307633 7.53065C0.293918 7.58465 0.280776 7.63886 0.267918 7.69318C0.263347 7.71273 0.258449 7.73212 0.253918 7.75167C0.237184 7.82461 0.221265 7.89784 0.206122 7.97135C0.201673 7.99282 0.197673 8.01445 0.193347 8.03596C0.182653 8.08959 0.172286 8.14326 0.162449 8.19722C0.157469 8.22473 0.152694 8.25233 0.147878 8.27988C0.139306 8.32935 0.131102 8.37894 0.123265 8.42865C0.118898 8.45633 0.114531 8.48396 0.110408 8.51171C0.102327 8.56588 0.0948163 8.6202 0.0875918 8.67465C0.0846531 8.69698 0.0814286 8.71922 0.0786122 8.74163C0.0690612 8.81784 0.0602449 8.89429 0.0523673 8.97102C0.050898 8.98551 0.0497551 9.00008 0.0483265 9.01457C0.0421633 9.07747 0.0364898 9.14049 0.031551 9.20376C0.0294286 9.23008 0.0276735 9.25653 0.0257959 9.28294C0.0220816 9.33551 0.0186939 9.38816 0.0157959 9.44094C0.0142449 9.46898 0.0128163 9.49706 0.0114694 9.52514C0.00897959 9.57947 0.00697959 9.63396 0.00530612 9.68853C0.00453061 9.71335 0.00359184 9.73812 0.00297959 9.76302C0.00114286 9.8418 0 9.92078 0 10C0 10.0709 0.00110204 10.1416 0.00265306 10.2121C0.00334694 10.2438 0.00416327 10.2756 0.00514286 10.3073C0.006 10.3345 0.00714286 10.3616 0.00820408 10.3887C0.0769388 12.1856 0.619592 13.8607 1.51494 15.293C1.51506 15.2931 1.51514 15.2933 1.51522 15.2935C1.6849 15.5648 1.86714 15.8274 2.06131 16.0804C2.06233 16.0818 2.06343 16.0832 2.06449 16.0846C2.25661 16.3348 2.4602 16.5756 2.67465 16.8063C2.67963 16.8116 2.68461 16.817 2.68959 16.8223C2.73037 16.866 2.77143 16.9093 2.81294 16.9522C2.81465 16.954 2.81641 16.9558 2.81812 16.9576C2.94714 17.0907 3.07984 17.2203 3.216 17.3461C3.22033 17.3501 3.22461 17.3542 3.22898 17.3582C3.26931 17.3953 3.31 17.432 3.35094 17.4684C3.36216 17.4785 3.37347 17.4885 3.38473 17.4985C3.42478 17.5338 3.46494 17.5689 3.50551 17.6035C3.51486 17.6116 3.52441 17.6195 3.5338 17.6275C3.66327 17.7373 3.79559 17.844 3.93065 17.9473C3.94412 17.9576 3.95755 17.968 3.9711 17.9783C4.00963 18.0075 4.04849 18.0362 4.08751 18.0649C4.10592 18.0784 4.12437 18.0918 4.14286 18.1053C4.18106 18.1329 4.21931 18.1604 4.25788 18.1875C4.27596 18.2002 4.29424 18.2127 4.31245 18.2253C4.44073 18.3142 4.57118 18.4001 4.70367 18.483C4.726 18.497 4.7482 18.511 4.77061 18.5248C4.80739 18.5474 4.84441 18.5696 4.88147 18.5918C4.90645 18.6067 4.93155 18.6215 4.95669 18.6362C4.99322 18.6576 5.0298 18.6788 5.06657 18.6998C5.09257 18.7145 5.11865 18.7289 5.14478 18.7435C5.2729 18.8148 5.40265 18.8833 5.53412 18.949C5.5631 18.9635 5.592 18.978 5.62114 18.9922C5.65714 19.0098 5.69339 19.0271 5.72959 19.0442C5.75935 19.0583 5.78922 19.0722 5.81914 19.086C5.85539 19.1027 5.89155 19.1193 5.92804 19.1356C5.95878 19.1493 5.98967 19.1626 6.02057 19.176C6.05665 19.1917 6.09261 19.2076 6.1289 19.2228C6.12898 19.2229 6.12906 19.2229 6.12918 19.2229C7.31988 19.7233 8.62759 20 10 20C11.354 20 12.6447 19.7304 13.8224 19.2428C13.8225 19.2427 13.8226 19.2427 13.8227 19.2427C13.8833 19.2176 13.9435 19.1918 14.0035 19.1656C14.0096 19.1629 14.0157 19.1602 14.0218 19.1576C14.0805 19.1317 14.1389 19.1054 14.1971 19.0784C14.202 19.0762 14.207 19.0738 14.2119 19.0716C14.5177 18.9293 14.8151 18.7722 15.1031 18.6009C15.1092 18.5973 15.1153 18.5938 15.1213 18.5901C15.1729 18.5593 15.2241 18.528 15.2751 18.4963C15.2856 18.4898 15.2962 18.4832 15.3066 18.4766C15.3561 18.4456 15.4053 18.4142 15.4543 18.3822C15.4644 18.3756 15.4744 18.369 15.4845 18.3623C15.5348 18.3293 15.5849 18.296 15.6346 18.262C15.6366 18.2607 15.6386 18.2593 15.6406 18.2579C15.8016 18.1477 15.9591 18.0329 16.1131 17.9138C16.1211 17.9076 16.1292 17.9016 16.1371 17.8953C16.1787 17.863 16.2198 17.8302 16.2607 17.7972C16.2773 17.7839 16.294 17.7706 16.3106 17.7571C16.3485 17.7262 16.3862 17.6949 16.4237 17.6635C16.4427 17.6475 16.4617 17.6315 16.4806 17.6153C16.5167 17.5847 16.5525 17.5538 16.5881 17.5226C16.6078 17.5054 16.6272 17.488 16.6467 17.4707C16.6817 17.4395 16.7167 17.4084 16.7512 17.3767C16.7693 17.36 16.7873 17.3431 16.8053 17.3263C16.8798 17.2571 16.9533 17.1869 17.0256 17.1155C17.0357 17.1056 17.0459 17.0959 17.0559 17.0859C17.0849 17.0571 17.1132 17.0278 17.1418 16.9987C17.1655 16.9745 17.1893 16.9504 17.2128 16.926C17.2396 16.898 17.2661 16.8698 17.2925 16.8416C17.3173 16.8151 17.3421 16.7887 17.3667 16.762C17.3919 16.7345 17.4169 16.7068 17.4419 16.6791C17.4674 16.6506 17.4928 16.622 17.518 16.5933C17.5415 16.5664 17.565 16.5396 17.5883 16.5125C17.6152 16.4811 17.6418 16.4496 17.6683 16.4179C17.6894 16.3927 17.7107 16.3677 17.7315 16.3423C17.7647 16.3019 17.7974 16.261 17.83 16.22C17.8436 16.2029 17.8575 16.186 17.871 16.1689C17.9159 16.1116 17.9601 16.0538 18.0038 15.9956C18.0198 15.9743 18.0354 15.9527 18.0512 15.9312C18.08 15.8922 18.1088 15.8531 18.137 15.8136C18.1544 15.7893 18.1715 15.7649 18.1887 15.7404C18.215 15.703 18.2411 15.6654 18.2669 15.6276C18.284 15.6025 18.3009 15.5774 18.3178 15.5522C18.3436 15.5137 18.369 15.4749 18.3942 15.436C18.41 15.4117 18.4259 15.3873 18.4415 15.3628C18.4686 15.3202 18.4952 15.2773 18.5217 15.2343C18.5346 15.2133 18.5478 15.1924 18.5606 15.1713C18.5989 15.1082 18.6365 15.0446 18.6734 14.9805C18.674 14.9794 18.6747 14.9784 18.6753 14.9773C18.6753 14.9773 18.6753 14.9772 18.6753 14.9772C19.4575 13.6169 19.928 12.0549 19.9918 10.3888C19.9929 10.3616 19.994 10.3345 19.9949 10.3073C19.9958 10.2756 19.9967 10.2439 19.9973 10.2121C19.9989 10.1416 20 10.0709 20 10C20 9.92078 19.9989 9.84179 19.997 9.76298ZM10.4082 3.12678L12.9313 1.29359C13.148 1.36665 13.3625 1.448 13.5744 1.53767C14.668 2.0002 15.6502 2.66245 16.4939 3.50612C16.9542 3.96645 17.3601 4.46829 17.7094 5.00669L16.8288 7.78718L14.2041 8.64886L10.4082 5.89102V3.12678ZM3.50616 3.50612C4.34984 2.66245 5.33204 2.0002 6.42555 1.53767C6.63747 1.44804 6.85192 1.36665 7.06869 1.29359L9.59184 3.12678V5.89102L5.77559 8.66367L3.17543 7.80033L2.29065 5.00673C2.64 4.46833 3.04588 3.96645 3.50616 3.50612ZM5.11118 15.8626L2.62029 15.468C2.18608 14.8836 1.82359 14.2503 1.53776 13.5744C1.06959 12.4676 0.827796 11.2929 0.817388 10.0816L2.92204 8.57629L5.5238 9.44016L6.99763 13.9761L5.11118 15.8626ZM13.9747 18.2817C13.8429 18.3449 13.7096 18.4051 13.5744 18.4623C12.4428 18.941 11.2402 19.1837 10 19.1837C8.75988 19.1837 7.55722 18.941 6.42559 18.4623C6.27359 18.398 6.12396 18.3294 5.97633 18.2575L5.68845 16.4398L7.72273 14.4055H12.563L14.3116 16.1541L13.9747 18.2817ZM18.4623 13.5744C18.2281 14.128 17.9425 14.6531 17.6083 15.1461L14.8888 15.5768L13.0725 13.7605L14.4841 9.41604L17.0667 8.56816L19.1827 10.0816C19.1722 11.2929 18.9304 12.4676 18.4623 13.5744Z" fill="#FFA100"/>
<circle cx="9.9987" cy="9.99967" r="6.66667" fill="#121212"/>
<path d="M5.6481 15.0086C5.48225 15.0086 5.31628 14.9451 5.19005 14.8188C4.93665 14.5655 4.93665 14.156 5.19005 13.9027L13.8939 5.19875C14.1471 4.94547 14.5567 4.94547 14.81 5.19875C15.0634 5.45203 15.0634 5.86156 14.81 6.11484L6.10614 14.8188C5.97909 14.9457 5.81395 15.0086 5.6481 15.0086Z" fill="#F44336"/>
<path fill-rule="evenodd" clip-rule="evenodd" d="M14.7073 5.29953C14.51 5.10215 14.1911 5.10215 13.9937 5.29953L5.28986 14.0035L5.28983 14.0035C5.09236 14.2009 5.09236 14.5197 5.28983 14.7171L5.28991 14.7172C5.38822 14.8156 5.5173 14.865 5.6467 14.865C5.7761 14.865 5.90437 14.8162 6.00353 14.7171C6.00355 14.7171 6.00356 14.7171 6.00358 14.7171L14.7073 6.01321L14.7074 6.01319C14.9048 5.8158 14.9048 5.49694 14.7074 5.29956L14.7073 5.29953ZM13.7913 5.09712C14.1004 4.78795 14.6006 4.78794 14.9097 5.09709C14.9097 5.0971 14.9098 5.09711 14.9098 5.09712M13.7913 5.09712L13.8925 5.19833L13.7913 5.09712ZM14.9098 6.21562C14.9098 6.21563 14.9097 6.21564 14.9097 6.21565L6.20595 14.9196L6.2059 14.9196C6.05096 15.0744 5.84897 15.1513 5.6467 15.1513C5.4444 15.1513 5.24153 15.0738 5.08739 14.9195C4.77814 14.6103 4.77816 14.1102 5.08744 13.8011C5.08745 13.801 5.08746 13.801 5.08747 13.801L13.7913 5.09712L13.8925 5.19833" fill="#F44336"/>
<path d="M14.3519 15.0086C14.1861 15.0086 14.0202 14.9451 13.8939 14.8188L5.19005 6.11484C4.93665 5.86156 4.93665 5.45203 5.19005 5.19875C5.44333 4.94547 5.85274 4.94547 6.10614 5.19875L14.81 13.9027C15.0634 14.156 15.0634 14.5655 14.81 14.8188C14.6836 14.9457 14.5178 15.0086 14.3519 15.0086Z" fill="#F44336"/>
<path fill-rule="evenodd" clip-rule="evenodd" d="M6.00351 5.29953C5.80598 5.10213 5.4872 5.10217 5.28983 5.29953C5.09236 5.49692 5.09234 5.8158 5.28981 6.01319L13.9936 14.7171C14.0921 14.8156 14.2211 14.865 14.3505 14.865C14.4801 14.865 14.6089 14.816 14.7071 14.7174C14.9046 14.52 14.9048 14.2009 14.7073 14.0035L6.00351 5.29953C6.00352 5.29954 6.0035 5.29953 6.00351 5.29953ZM5.08744 5.09709C5.39664 4.78793 5.89663 4.78797 6.2059 5.09709L14.9097 13.801C14.9097 13.801 14.9097 13.801 14.9097 13.801C15.219 14.1102 15.219 14.6104 14.9098 14.9195C14.7553 15.0746 14.5524 15.1513 14.3505 15.1513C14.1481 15.1513 13.9454 15.0738 13.7912 14.9196L5.08744 6.21565C5.08743 6.21564 5.08745 6.21566 5.08744 6.21565C4.77814 5.90647 4.77814 5.40627 5.08744 5.09709Z" fill="#F44336"/>
</g>
<defs>
<clipPath id="clip0_1922_18718">
<rect width="20" height="20" fill="white"/>
</clipPath>
</defs>
</svg>
