<svg width="20" height="20" viewBox="0 0 20 20" fill="none" xmlns="http://www.w3.org/2000/svg">
<g clip-path="url(#clip0_1922_18708)">
<path d="M6.2373 0.731775C4.99675 1.23473 3.8836 1.97424 2.92907 2.92848C1.97427 3.88299 1.23558 4.99641 0.732338 6.23667C0.246508 7.43492 0 8.70115 0 10C0 11.2986 0.246508 12.5648 0.732338 13.7625C1.23558 15.003 1.97455 16.1165 2.92907 17.0707C3.8836 18.0255 4.99648 18.7644 6.2373 19.2674C7.43557 19.7538 8.70155 19.9994 10.0004 19.9994C11.2993 19.9994 12.565 19.7529 13.7632 19.2674C15.0035 18.7644 16.1172 18.0255 17.0715 17.0707C18.0263 16.1165 18.7653 15.0036 19.2682 13.7625C19.754 12.5648 20 11.2986 20 10C20 8.70115 19.7538 7.43492 19.2682 6.23667C18.7653 4.99641 18.0257 3.88272 17.0715 2.92848C16.1172 1.97424 15.0046 1.23473 13.7632 0.731775C12.565 0.246228 11.2993 0 10.0004 0C8.70155 0 7.43557 0.246228 6.2373 0.731775ZM2.49934 14.2096C2.01766 13.9073 1.57383 13.5591 1.18086 13.149C0.580619 11.46 0.478921 9.63135 0.876594 7.89559C1.06369 7.52667 1.27648 7.17239 1.51718 6.83303C1.59152 6.72829 1.66033 6.61913 1.73992 6.51744L3.99663 7.85276C3.99663 7.87045 3.99663 7.88979 3.99663 7.90941C3.99082 9.12314 4.11408 10.328 4.35948 11.5155C4.36031 11.521 4.36114 11.5241 4.36224 11.529L2.6121 14.2732C2.57396 14.2539 2.5361 14.2329 2.49934 14.2096ZM9.20921 18.8487C9.5986 19.0474 9.99903 19.2152 10.4105 19.3517C8.66259 19.4277 6.89724 19.0181 5.33667 18.1228L9.11967 18.7968C9.14869 18.8153 9.17826 18.833 9.20921 18.8487ZM9.1954 18.1659L4.73118 17.3703C4.20887 16.736 3.73907 16.0651 3.33531 15.3479C3.23251 15.1655 3.11782 14.9884 3.03077 14.798L4.77926 12.0566C4.81795 12.0663 4.86106 12.0765 4.90998 12.0895C6.00379 12.3821 7.11694 12.5902 8.23783 12.7533C8.30333 12.7624 8.35804 12.7704 8.40475 12.7754L10.5006 16.3992C10.1369 16.9104 9.76911 17.4189 9.39327 17.9218C9.33081 18.0056 9.26448 18.086 9.1954 18.1659ZM16.6227 16.6222C16.2673 16.9778 15.8901 17.2984 15.4952 17.5841C15.4297 17.0607 15.3166 16.5478 15.1572 16.0468L17.3934 11.875C18.0094 11.5945 18.6036 11.2765 19.1552 10.8821C19.2273 10.831 19.2873 10.7738 19.3337 10.7113C19.1718 12.8671 18.2681 14.9771 16.6227 16.6222ZM16.5235 11.2118C16.6067 11.3704 16.6887 11.5307 16.7711 11.6932L14.6111 15.7224C14.5987 15.7251 14.5868 15.7279 14.5743 15.7296C13.4068 15.9476 12.2298 16.0637 11.0428 16.0692L8.88726 12.3421C9.22275 11.7192 9.55521 11.0938 9.8849 10.4681C10.1087 10.0437 10.3287 9.61643 10.5484 9.18946L15.0096 8.73128C15.556 9.53269 16.0736 10.3512 16.5235 11.2118ZM15.6184 6.4326C15.4067 6.99165 15.1801 7.54491 14.9549 8.09927L10.6089 8.54557C10.557 8.47704 10.5031 8.40961 10.4464 8.34522C9.93326 7.76405 9.41675 7.18648 8.90108 6.60725C8.90578 6.60145 8.91047 6.59703 8.91517 6.59178C8.70708 6.38396 8.49843 6.17615 8.29034 5.96778L9.50021 2.32521C9.58367 2.3031 9.66768 2.28459 9.75253 2.27547C10.4102 2.20859 11.0688 2.13287 11.7282 2.09473C12.1319 2.07207 12.5379 2.05908 12.9486 2.0881L15.942 5.46206C15.8389 5.7876 15.7383 6.11397 15.6184 6.4326ZM16.6227 3.37727C17.4484 4.20356 18.0879 5.14647 18.54 6.15376C17.9807 5.76881 17.3827 5.45211 16.7539 5.194C16.6561 5.15365 16.5558 5.118 16.4538 5.0829L13.5073 1.76201C13.5278 1.61858 13.5386 1.47488 13.543 1.33007C14.6639 1.78633 15.7146 2.46946 16.6227 3.37727ZM7.00115 1.1557C7.01275 1.16426 7.01828 1.17145 7.02491 1.17338C7.69839 1.40607 8.31106 1.74874 8.88864 2.15525L7.75836 5.55906C7.75255 5.56071 7.74703 5.56237 7.7415 5.56486C7.51019 5.66048 7.27446 5.74614 7.04675 5.84978C6.10852 6.27618 5.19379 6.74847 4.33212 7.31471L2.10167 5.99514C2.10499 5.9255 2.11687 5.85475 2.14064 5.79174C2.29042 5.39269 2.43772 4.99143 2.60712 4.6004C2.73756 4.29918 2.88624 4.00818 3.04846 3.72382C3.15458 3.60664 3.26457 3.49058 3.37787 3.37727C4.43714 2.3183 5.68902 1.56635 7.02187 1.1217C7.01496 1.13248 7.00778 1.14381 7.00115 1.1557Z" fill="white"/>
<rect x="10" y="10" width="10" height="10" rx="0.655" fill="#FC1111"/>
<path d="M12.3729 13.2405C12.3729 12.775 12.5139 12.5981 12.7382 12.5981C12.9625 12.5981 13.1035 12.775 13.1035 13.2405V16.7601C13.1035 17.2257 12.9625 17.4026 12.7382 17.4026C12.5139 17.4026 12.3729 17.2257 12.3729 16.7601V13.2405ZM11.668 16.6949C11.668 17.7378 12.0461 18.3337 12.7382 18.3337C13.4304 18.3337 13.8085 17.7378 13.8085 16.6949V13.3057C13.8085 12.2629 13.4304 11.667 12.7382 11.667C12.0461 11.667 11.668 12.2629 11.668 13.3057V16.6949Z" fill="white"/>
<path d="M14.9716 12.6726H16.1316V11.7415H14.2666V18.2592H14.9716V15.5683H15.8817V14.6372H14.9716V12.6726Z" fill="white"/>
<path d="M17.1746 12.6726H18.3346V11.7415H16.4697V18.2592H17.1746V15.5683H18.0847V14.6372H17.1746V12.6726Z" fill="white"/>
</g>
<defs>
<clipPath id="clip0_1922_18708">
<rect width="20" height="20" fill="white"/>
</clipPath>
</defs>
</svg>
