<svg width="21" height="20" viewBox="0 0 21 20" fill="none" xmlns="http://www.w3.org/2000/svg">
<g clip-path="url(#clip0_1922_18702)">
<path d="M6.7373 0.731775C5.49675 1.23473 4.3836 1.97424 3.42907 2.92848C2.47427 3.88299 1.73558 4.99641 1.23234 6.23667C0.746508 7.43492 0.5 8.70115 0.5 10C0.5 11.2986 0.746508 12.5648 1.23234 13.7625C1.73558 15.003 2.47455 16.1165 3.42907 17.0707C4.3836 18.0255 5.49648 18.7644 6.7373 19.2674C7.93557 19.7538 9.20155 19.9994 10.5004 19.9994C11.7993 19.9994 13.065 19.7529 14.2632 19.2674C15.5035 18.7644 16.6172 18.0255 17.5715 17.0707C18.5263 16.1165 19.2653 15.0036 19.7682 13.7625C20.254 12.5648 20.5 11.2986 20.5 10C20.5 8.70115 20.2538 7.43492 19.7682 6.23667C19.2653 4.99641 18.5257 3.88272 17.5715 2.92848C16.6172 1.97424 15.5046 1.23473 14.2632 0.731775C13.065 0.246228 11.7993 0 10.5004 0C9.20155 0 7.93557 0.246228 6.7373 0.731775ZM2.99934 14.2096C2.51766 13.9073 2.07383 13.5591 1.68086 13.149C1.08062 11.46 0.978921 9.63135 1.37659 7.89559C1.56369 7.52667 1.77648 7.17239 2.01718 6.83303C2.09152 6.72829 2.16033 6.61913 2.23992 6.51744L4.49663 7.85276C4.49663 7.87045 4.49663 7.88979 4.49663 7.90941C4.49082 9.12314 4.61408 10.328 4.85948 11.5155C4.86031 11.521 4.86114 11.5241 4.86224 11.529L3.1121 14.2732C3.07396 14.2539 3.0361 14.2329 2.99934 14.2096ZM9.70921 18.8487C10.0986 19.0474 10.499 19.2152 10.9105 19.3517C9.16259 19.4277 7.39724 19.0181 5.83667 18.1228L9.61967 18.7968C9.64869 18.8153 9.67826 18.833 9.70921 18.8487ZM9.6954 18.1659L5.23118 17.3703C4.70887 16.736 4.23907 16.0651 3.83531 15.3479C3.73251 15.1655 3.61782 14.9884 3.53077 14.798L5.27926 12.0566C5.31795 12.0663 5.36106 12.0765 5.40998 12.0895C6.50379 12.3821 7.61694 12.5902 8.73783 12.7533C8.80333 12.7624 8.85804 12.7704 8.90475 12.7754L11.0006 16.3992C10.6369 16.9104 10.2691 17.4189 9.89327 17.9218C9.83081 18.0056 9.76448 18.086 9.6954 18.1659ZM17.1227 16.6222C16.7673 16.9778 16.3901 17.2984 15.9952 17.5841C15.9297 17.0607 15.8166 16.5478 15.6572 16.0468L17.8934 11.875C18.5094 11.5945 19.1036 11.2765 19.6552 10.8821C19.7273 10.831 19.7873 10.7738 19.8337 10.7113C19.6718 12.8671 18.7681 14.9771 17.1227 16.6222ZM17.0235 11.2118C17.1067 11.3704 17.1887 11.5307 17.2711 11.6932L15.1111 15.7224C15.0987 15.7251 15.0868 15.7279 15.0743 15.7296C13.9068 15.9476 12.7298 16.0637 11.5428 16.0692L9.38726 12.3421C9.72275 11.7192 10.0552 11.0938 10.3849 10.4681C10.6087 10.0437 10.8287 9.61643 11.0484 9.18946L15.5096 8.73128C16.056 9.53269 16.5736 10.3512 17.0235 11.2118ZM16.1184 6.4326C15.9067 6.99165 15.6801 7.54491 15.4549 8.09927L11.1089 8.54557C11.057 8.47704 11.0031 8.40961 10.9464 8.34522C10.4333 7.76405 9.91675 7.18648 9.40108 6.60725C9.40578 6.60145 9.41047 6.59703 9.41517 6.59178C9.20708 6.38396 8.99843 6.17615 8.79034 5.96778L10.0002 2.32521C10.0837 2.3031 10.1677 2.28459 10.2525 2.27547C10.9102 2.20859 11.5688 2.13287 12.2282 2.09473C12.6319 2.07207 13.0379 2.05908 13.4486 2.0881L16.442 5.46206C16.3389 5.7876 16.2383 6.11397 16.1184 6.4326ZM17.1227 3.37727C17.9484 4.20356 18.5879 5.14647 19.04 6.15376C18.4807 5.76881 17.8827 5.45211 17.2539 5.194C17.1561 5.15365 17.0558 5.118 16.9538 5.0829L14.0073 1.76201C14.0278 1.61858 14.0386 1.47488 14.043 1.33007C15.1639 1.78633 16.2146 2.46946 17.1227 3.37727ZM7.50115 1.1557C7.51275 1.16426 7.51828 1.17145 7.52491 1.17338C8.19839 1.40607 8.81106 1.74874 9.38864 2.15525L8.25836 5.55906C8.25255 5.56071 8.24703 5.56237 8.2415 5.56486C8.01019 5.66048 7.77446 5.74614 7.54675 5.84978C6.60852 6.27618 5.69379 6.74847 4.83212 7.31471L2.60167 5.99514C2.60499 5.9255 2.61687 5.85475 2.64064 5.79174C2.79042 5.39269 2.93772 4.99143 3.10712 4.6004C3.23756 4.29918 3.38624 4.00818 3.54846 3.72382C3.65458 3.60664 3.76457 3.49058 3.87787 3.37727C4.93714 2.3183 6.18902 1.56635 7.52187 1.1217C7.51496 1.13248 7.50778 1.14381 7.50115 1.1557Z" fill="white"/>
<rect x="10.5" y="10" width="10" height="10" rx="0.655" fill="#5CB1FF"/>
<path d="M13.1373 13.2405C13.1373 12.775 13.332 12.5981 13.6416 12.5981C13.9513 12.5981 14.146 12.775 14.146 13.2405V16.7601C14.146 17.2257 13.9513 17.4026 13.6416 17.4026C13.332 17.4026 13.1373 17.2257 13.1373 16.7601V13.2405ZM12.1641 16.6949C12.1641 17.7378 12.6861 18.3337 13.6416 18.3337C14.5972 18.3337 15.1192 17.7378 15.1192 16.6949V13.3057C15.1192 12.2629 14.5972 11.667 13.6416 11.667C12.6861 11.667 12.1641 12.2629 12.1641 13.3057V16.6949Z" fill="white"/>
<path d="M17.8309 18.2592H18.8307V11.7415H17.9636V15.6428H17.946L16.9638 11.7415H15.7429V18.2592H16.6188V13.5385H16.6365L17.8309 18.2592Z" fill="white"/>
</g>
<defs>
<clipPath id="clip0_1922_18702">
<rect width="20" height="20" fill="white" transform="translate(0.5)"/>
</clipPath>
</defs>
</svg>
