<svg width="17" height="19" viewBox="0 0 17 19" fill="none" xmlns="http://www.w3.org/2000/svg">
<path d="M3.92455 17.0356C8.23118 20.6454 14.6754 16.5443 13.1105 11.0733C12.9654 10.6172 12.9656 10.1273 13.1112 9.67136C13.2568 9.21541 13.5405 8.816 13.9231 8.52842L16.7945 6.41492C16.8598 6.36688 16.9083 6.2995 16.9332 6.22232C16.958 6.14515 16.958 6.0621 16.933 5.98497L15.205 0.641651C15.1857 0.583761 15.153 0.531224 15.1097 0.488287C15.0663 0.445349 15.0134 0.413213 14.9554 0.394479C14.8973 0.375746 14.8356 0.370937 14.7753 0.380442C14.7151 0.389947 14.6579 0.413499 14.6084 0.449195L4.23926 8.08155C3.20483 8.84686 2.45829 9.93826 2.12002 11.1798C1.78175 12.4213 1.87147 13.7405 2.3747 14.9248C2.04894 14.9028 1.72366 14.9743 1.43719 15.131C1.15071 15.2876 0.914964 15.5229 0.757715 15.809C0.600467 16.0951 0.528264 16.4203 0.549612 16.7461C0.570959 17.0719 0.684968 17.3848 0.87821 17.648C1.07145 17.9112 1.33588 18.1137 1.64035 18.2316C1.94481 18.3495 2.27664 18.378 2.59675 18.3136C2.91685 18.2493 3.2119 18.0948 3.44715 17.8684C3.68239 17.642 3.84803 17.353 3.92456 17.0356L3.92455 17.0356ZM2.72811 12.0341C2.81319 11.3744 3.03166 10.739 3.37022 10.1665C3.70878 9.59394 4.16033 9.09634 4.69738 8.70396L14.6346 1.38947L16.112 5.9576L13.465 7.90601C12.9537 8.28682 12.5735 8.81724 12.3772 9.42377C12.1809 10.0303 12.1781 10.6829 12.3693 11.2911C12.6652 12.2959 12.6337 13.3688 12.2793 14.3545C11.9249 15.3403 11.266 16.1876 10.3981 16.774C6.9409 19.1186 2.11873 16.2089 2.72811 12.0341ZM1.50179 17.1915C1.3565 16.9894 1.29677 16.7381 1.33558 16.4923C1.37438 16.2464 1.50858 16.0257 1.70906 15.8781C1.90953 15.7306 2.16012 15.668 2.40642 15.7041C2.65273 15.7401 2.87489 15.8718 3.0247 16.0706C3.17 16.2727 3.22972 16.524 3.19092 16.7699C3.15212 17.0158 3.01792 17.2364 2.81744 17.384C2.61696 17.5316 2.36638 17.5941 2.12007 17.5581C1.87377 17.5221 1.6516 17.3903 1.50179 17.1915Z" fill="white"/>
</svg>
