<svg width="20" height="20" viewBox="0 0 20 20" fill="none" xmlns="http://www.w3.org/2000/svg">
<g clip-path="url(#clip0_1922_18782)">
<path d="M19.4127 2.87891H0.587344C0.262969 2.87891 0 3.14187 0 3.46625V14.2823C0 14.6067 0.262969 14.8697 0.587344 14.8697H7.92891V15.9448H6.34438C6.02 15.9448 5.75703 16.2078 5.75703 16.5321C5.75703 16.8565 6.02 17.1195 6.34438 17.1195H13.6556C13.98 17.1195 14.2429 16.8565 14.2429 16.5321C14.2429 16.2078 13.98 15.9448 13.6556 15.9448H12.0711V14.8697H19.4127C19.737 14.8697 20 14.6067 20 14.2823V3.46625C20 3.14187 19.737 2.87891 19.4127 2.87891ZM10.8964 15.9448H9.10359V14.8697H10.8964V15.9448ZM18.8253 13.695H1.17469V4.05363H18.8253V13.695Z" fill="white"/>
<path d="M7.36003 5.85742L5.28076 11.8063H4.24723L2.16797 5.85742H3.16895L4.4222 9.58464C4.46018 9.69314 4.50087 9.82471 4.54427 9.97933C4.59039 10.134 4.63243 10.2899 4.67041 10.4473C4.7111 10.6046 4.7423 10.7443 4.764 10.8664C4.7857 10.7443 4.81554 10.6046 4.85352 10.4473C4.89421 10.2899 4.93625 10.134 4.97965 9.97933C5.02306 9.82471 5.06375 9.69179 5.10172 9.58057L6.35905 5.85742H7.36003Z" fill="white"/>
<path d="M11.8278 11.8063L11.2459 10.1543H8.97135L8.38948 11.8063H7.36003L9.57357 5.83301H10.6559L12.8654 11.8063H11.8278ZM10.9937 9.31608L10.4281 7.68848C10.4064 7.61795 10.3752 7.51893 10.3345 7.39144C10.2938 7.26123 10.2531 7.12967 10.2124 6.99674C10.1717 6.86111 10.1378 6.74718 10.1107 6.65495C10.0835 6.76617 10.0496 6.89095 10.009 7.0293C9.97097 7.16493 9.933 7.29243 9.89502 7.41178C9.85975 7.53114 9.83263 7.62337 9.81364 7.68848L9.24398 9.31608H10.9937Z" fill="white"/>
<path d="M15.3231 5.85742C15.8358 5.85742 16.259 5.91981 16.5926 6.0446C16.929 6.16938 17.1785 6.35927 17.3413 6.61426C17.5068 6.86925 17.5895 7.19341 17.5895 7.58675C17.5895 7.87972 17.5353 8.12929 17.4268 8.33545C17.3182 8.54161 17.1758 8.71251 16.9995 8.84814C16.8232 8.98378 16.6347 9.09229 16.4339 9.17367L18.1226 11.8063H17.0199L15.5835 9.42188H14.6273V11.8063H13.6507V5.85742H15.3231ZM15.258 6.67122H14.6273V8.61621H15.3027C15.7557 8.61621 16.084 8.53212 16.2874 8.36393C16.4936 8.19575 16.5967 7.94754 16.5967 7.6193C16.5967 7.27479 16.4868 7.03065 16.2671 6.88688C16.0501 6.74311 15.7137 6.67122 15.258 6.67122Z" fill="white"/>
</g>
<defs>
<clipPath id="clip0_1922_18782">
<rect width="20" height="20" fill="white"/>
</clipPath>
</defs>
</svg>
