<svg width="25" height="23" viewBox="0 0 25 23" fill="none" xmlns="http://www.w3.org/2000/svg">
<path d="M12.9444 14.9965C13.6899 14.4533 14.1867 13.6403 14.326 12.7357C14.4653 11.8311 14.2356 10.9089 13.6873 10.1714C10.7938 6.59459 5.46112 10.4724 8.05916 14.2629C8.60916 14.9991 9.43236 15.4898 10.3482 15.6273C11.264 15.7648 12.1977 15.538 12.9444 14.9965ZM9.25984 10.0527C9.84138 9.63089 10.5686 9.45413 11.2819 9.56121C11.9953 9.6683 12.6365 10.0505 13.0648 10.6239C15.097 13.5633 10.9187 16.6001 8.68151 13.8104C8.25449 13.2361 8.07555 12.5179 8.18397 11.8134C8.2924 11.109 8.6793 10.4758 9.25984 10.0527Z" fill="white"/>
<path d="M6.92455 17.0356C11.2312 20.6454 17.6754 16.5443 16.1105 11.0733C15.9654 10.6172 15.9656 10.1273 16.1112 9.67136C16.2568 9.21541 16.5405 8.816 16.9231 8.52842L19.7945 6.41492C19.8598 6.36688 19.9083 6.2995 19.9332 6.22232C19.958 6.14515 19.958 6.0621 19.933 5.98497L18.205 0.641652C18.1857 0.583761 18.153 0.531224 18.1097 0.488286C18.0663 0.445349 18.0134 0.413214 17.9554 0.394479C17.8973 0.375745 17.8356 0.370937 17.7753 0.380442C17.7151 0.389947 17.6579 0.413499 17.6084 0.449196L7.23926 8.08155C6.20483 8.84686 5.45829 9.93826 5.12002 11.1798C4.78175 12.4213 4.87147 13.7405 5.3747 14.9248C5.04894 14.9028 4.72366 14.9743 4.43719 15.131C4.15071 15.2876 3.91496 15.5229 3.75772 15.809C3.60047 16.0951 3.52826 16.4203 3.54961 16.7461C3.57096 17.0719 3.68497 17.3848 3.87821 17.648C4.07145 17.9112 4.33588 18.1137 4.64035 18.2316C4.94481 18.3495 5.27664 18.378 5.59675 18.3136C5.91685 18.2493 6.2119 18.0948 6.44715 17.8684C6.68239 17.642 6.84803 17.353 6.92456 17.0356L6.92455 17.0356ZM5.72811 12.0341C5.81319 11.3744 6.03166 10.739 6.37022 10.1665C6.70878 9.59394 7.16033 9.09634 7.69738 8.70396L17.6346 1.38947L19.112 5.9576L16.465 7.90601C15.9537 8.28682 15.5735 8.81724 15.3772 9.42377C15.1809 10.0303 15.1781 10.6829 15.3693 11.2911C15.6652 12.2959 15.6337 13.3688 15.2793 14.3545C14.9249 15.3403 14.266 16.1876 13.3981 16.774C9.9409 19.1186 5.11873 16.2089 5.72811 12.0341ZM4.50179 17.1915C4.3565 16.9894 4.29677 16.7381 4.33558 16.4923C4.37438 16.2464 4.50858 16.0257 4.70906 15.8781C4.90954 15.7306 5.16012 15.668 5.40642 15.7041C5.65273 15.7401 5.87489 15.8718 6.0247 16.0706C6.17 16.2727 6.22972 16.524 6.19092 16.7699C6.15212 17.0158 6.01792 17.2364 5.81744 17.384C5.61696 17.5316 5.36638 17.5941 5.12007 17.5581C4.87377 17.5221 4.6516 17.3903 4.50179 17.1915Z" fill="white"/>
</svg>
