<svg width="24" height="24" viewBox="0 0 24 24" fill="none" xmlns="http://www.w3.org/2000/svg">
<g id="Huge-icon/interface/outline/remove 02">
<path id="Vector (Stroke)" fill-rule="evenodd" clip-rule="evenodd" d="M7.68738 5.13364C8.48231 4.40418 9.50536 4 10.5669 4H16.6357C19.0602 4 21 6.05678 21 8.56122V14.4388C21 16.9432 19.0602 19 16.6357 19H10.5669C9.50536 19 8.48231 18.5958 7.68737 17.8664L4.48477 14.9276C2.50507 13.111 2.50508 9.88902 4.48477 8.07241L7.68738 5.13364ZM10.5669 5.28571C9.81832 5.28571 9.09283 5.57052 8.52555 6.09107L5.32295 9.02984C3.9001 10.3355 3.9001 12.6645 5.32294 13.9702L8.52555 16.9089C9.09283 17.4295 9.81832 17.7143 10.5669 17.7143H16.6357C18.3383 17.7143 19.7442 16.2624 19.7442 14.4388V8.56122C19.7442 6.73756 18.3383 5.28571 16.6357 5.28571H10.5669ZM10.7188 8.474C10.964 8.22295 11.3616 8.22295 11.6068 8.474L13.6744 10.5909L15.742 8.474C15.9873 8.22295 16.3848 8.22295 16.63 8.474C16.8753 8.72505 16.8753 9.13209 16.63 9.38314L14.5624 11.5L16.63 13.6169C16.8753 13.8679 16.8753 14.2749 16.63 14.526C16.3848 14.777 15.9873 14.777 15.742 14.526L13.6744 12.4091L11.6068 14.526C11.3616 14.777 10.964 14.777 10.7188 14.526C10.4736 14.2749 10.4736 13.8679 10.7188 13.6169L12.7864 11.5L10.7188 9.38314C10.4736 9.13209 10.4736 8.72505 10.7188 8.474Z" fill="white"/>
</g>
</svg>
