<svg width="22" height="22" viewBox="0 0 22 22" fill="none" xmlns="http://www.w3.org/2000/svg">
<g clip-path="url(#clip0_14673_98021)">
<path d="M14.9727 17.872V19.3324C14.9727 19.5489 14.8133 19.8005 14.6156 19.8885C13.8492 20.2295 11.7586 20.9275 7.48661 20.9275C3.21461 20.9275 1.12404 20.2295 0.357593 19.8885C0.159845 19.8005 0.000488281 19.5489 0.000488281 19.3324V17.872C0.000488281 15.6835 1.66678 13.8679 3.79298 13.6248C3.85758 13.6174 3.95338 13.645 4.00604 13.6831C4.98637 14.3929 6.18656 14.8164 7.48665 14.8164C8.78677 14.8164 9.98692 14.3929 10.9673 13.6831C11.0199 13.645 11.1158 13.6174 11.1804 13.6248C13.3064 13.8679 14.9727 15.6835 14.9727 17.872ZM3.05605 8.85809C3.05605 6.41116 5.03968 4.42752 7.48661 4.42752C9.93354 4.42752 11.9172 6.41116 11.9172 8.85809C11.9172 11.305 9.93354 13.2886 7.48661 13.2886C5.03968 13.2886 3.05605 11.305 3.05605 8.85809ZM5.39032 10.6165C5.59188 11.2829 6.45523 11.7839 7.48999 11.7839C8.52475 11.7839 9.38814 11.2829 9.5897 10.6165H5.39032ZM21.0839 1.06641H13.7505C13.2463 1.06641 12.8338 1.47891 12.8338 1.98307V6.27003C12.8338 6.76916 13.2422 7.17753 13.7413 7.17753H13.7505V8.39975C13.7505 8.65153 14.0379 8.79528 14.2394 8.6442L16.1135 7.23864C16.1583 7.20503 16.2408 7.17753 16.2968 7.17753H21.0839C21.588 7.17753 22.0005 6.76503 22.0005 6.26086V1.98307C22.0005 1.47891 21.588 1.06641 21.0839 1.06641Z" fill="#DE173E"/>
</g>
<defs>
<clipPath id="clip0_14673_98021">
<rect width="22" height="22" fill="white"/>
</clipPath>
</defs>
</svg>
