<svg width="20" height="21" viewBox="0 0 20 21" fill="none" xmlns="http://www.w3.org/2000/svg">
<g clip-path="url(#clip0_11886_136258)">
<path d="M14.908 1.99954H5.09203C2.83214 2.00202 1.00247 3.83169 1 6.09158V12.6364C1 14.5798 2.36978 16.2537 4.27363 16.6443V19.1811C4.27363 19.6336 4.63956 19.9995 5.09203 19.9995C5.25275 19.9995 5.41099 19.9526 5.54698 19.8611L10.2473 16.7259H14.9104C17.1679 16.7234 18.9975 14.8938 19.0025 12.6339V6.0891C19 3.83169 17.1703 2.00202 14.9104 1.99707L14.908 1.99954Z" fill="white"/>
<path d="M13.2738 11.8185H6.72905C6.27658 11.8185 5.91064 11.4525 5.91064 11C5.91064 10.5476 6.27658 10.1816 6.72905 10.1816H13.2738C13.7263 10.1816 14.0922 10.5476 14.0922 11C14.0922 11.4525 13.7263 11.8185 13.2738 11.8185Z" fill="#626262"/>
<path d="M14.9078 8.54502H5.09184C4.63937 8.54502 4.27344 8.17908 4.27344 7.72661C4.27344 7.27414 4.63937 6.9082 5.09184 6.9082H14.9102C15.3627 6.9082 15.7287 7.27414 15.7287 7.72661C15.7287 8.17908 15.3627 8.54502 14.9102 8.54502H14.9078Z" fill="#626262"/>
</g>
<defs>
<clipPath id="clip0_11886_136258">
<rect width="18" height="18" fill="white" transform="translate(1 2)"/>
</clipPath>
</defs>
</svg>
