<svg width="6" height="10" viewBox="0 0 6 10" fill="none" xmlns="http://www.w3.org/2000/svg">
<path d="M1.47114 0.233927C1.30976 0.0821285 1.09361 -0.00186718 0.869262 3.15021e-05C0.644909 0.00193018 0.430296 0.0895712 0.271649 0.244078C0.113001 0.398585 0.0230117 0.607595 0.0210622 0.826092C0.0191126 1.04459 0.105359 1.25509 0.261226 1.41226L3.9346 4.98976L0.261226 8.56726C0.179501 8.64413 0.114314 8.73609 0.0694689 8.83776C0.0246243 8.93943 0.00101959 9.04878 3.23063e-05 9.15942C-0.000954976 9.27007 0.0206955 9.37981 0.0637192 9.48222C0.106743 9.58463 0.170279 9.67768 0.25062 9.75592C0.330961 9.83417 0.426497 9.89604 0.531655 9.93794C0.636814 9.97985 0.749487 10.0009 0.863102 9.99997C0.976717 9.99901 1.089 9.97602 1.19339 9.93234C1.29779 9.88867 1.39221 9.82518 1.47114 9.74559L5.74947 5.57893C5.90989 5.42265 6 5.21073 6 4.98976C6 4.76879 5.90989 4.55687 5.74947 4.40059L1.47114 0.233927Z" fill="white"/>
</svg>
