<svg width="6" height="10" viewBox="0 0 6 10" fill="none" xmlns="http://www.w3.org/2000/svg">
<path d="M4.52886 0.233927C4.69024 0.0821285 4.90639 -0.00186718 5.13074 3.15021e-05C5.35509 0.00193018 5.5697 0.0895712 5.72835 0.244078C5.887 0.398585 5.97699 0.607595 5.97894 0.826092C5.98089 1.04459 5.89464 1.25509 5.73877 1.41226L2.0654 4.98976L5.73877 8.56726C5.8205 8.64413 5.88569 8.73609 5.93053 8.83776C5.97538 8.93943 5.99898 9.04878 5.99997 9.15942C6.00095 9.27007 5.9793 9.37981 5.93628 9.48222C5.89326 9.58463 5.82972 9.67768 5.74938 9.75592C5.66904 9.83417 5.5735 9.89604 5.46834 9.93794C5.36319 9.97985 5.25051 10.0009 5.1369 9.99997C5.02328 9.99901 4.911 9.97602 4.80661 9.93234C4.70221 9.88867 4.60779 9.82518 4.52886 9.74559L0.250527 5.57893C0.0901141 5.42265 -4.76837e-07 5.21073 -4.76837e-07 4.98976C-4.76837e-07 4.76879 0.0901141 4.55687 0.250527 4.40059L4.52886 0.233927Z" fill="white"/>
</svg>
