<svg width="22" height="22" viewBox="0 0 22 22" fill="none" xmlns="http://www.w3.org/2000/svg">
<path fill-rule="evenodd" clip-rule="evenodd" d="M14.9777 3.12141C14.3345 3.07031 13.5342 3.07031 12.5134 3.07031H9.48665C8.46584 3.07031 7.66552 3.07031 7.02228 3.12141C6.36728 3.17345 5.82619 3.28118 5.33641 3.52384C4.53125 3.92278 3.87664 4.55935 3.46639 5.34231C3.21684 5.81858 3.10606 6.34477 3.05255 6.9817C2.99999 7.6072 3 8.38546 3 9.37813V12.4623C3 14.2695 4.50654 15.7345 6.36495 15.7345H6.81277C6.9977 15.7345 7.12415 15.9162 7.05547 16.0831C6.54447 17.3254 8.01574 18.4485 9.13537 17.6708L11.0782 16.3213L11.1148 16.296C11.6424 15.9345 12.271 15.7386 12.9163 15.7346L12.9612 15.7345H13.479C14.6314 15.7347 15.3344 15.7348 15.9249 15.5664C17.3234 15.1677 18.4171 14.1042 18.8271 12.7442C19.0003 12.17 19.0001 11.4864 19 10.3658V9.37812C19 8.38547 19 7.60719 18.9475 6.9817C18.8939 6.34476 18.7831 5.81858 18.5336 5.34231C18.1233 4.55935 17.4688 3.92278 16.6635 3.52384C16.1738 3.28118 15.6327 3.17345 14.9777 3.12141ZM5.84319 4.49103C6.14937 4.33933 6.52722 4.24986 7.11317 4.20331C7.70565 4.15624 8.46045 4.15582 9.51162 4.15582H12.4884C13.5395 4.15582 14.2944 4.15624 14.8868 4.20331C15.4728 4.24986 15.8506 4.33933 16.1568 4.49103C16.7519 4.7859 17.2358 5.25641 17.539 5.83512C17.695 6.13286 17.787 6.50029 17.8349 7.07009C17.8833 7.64623 17.8837 8.38023 17.8837 9.40242V10.2594C17.8837 11.5199 17.8781 12.0339 17.7559 12.4388C17.4528 13.444 16.6445 14.23 15.6108 14.5248C15.1944 14.6435 14.6659 14.649 13.3696 14.649H12.9612L12.9092 14.6491C12.0361 14.6545 11.1855 14.9196 10.4718 15.4087L8.48655 16.7875C8.27411 16.9351 7.99495 16.722 8.09191 16.4863C8.45389 15.6063 7.78743 14.649 6.81277 14.649H6.36495C5.12304 14.649 4.11628 13.67 4.11628 12.4623V9.40242C4.11628 8.38023 4.11671 7.64623 4.16512 7.07009C4.21299 6.50029 4.305 6.13286 4.461 5.83512C4.76423 5.25641 5.24807 4.7859 5.84319 4.49103Z" fill="white"/>
<rect x="4" y="2.70703" width="1" height="20" rx="0.5" transform="rotate(-45 4 2.70703)" fill="white"/>
</svg>
