<svg width="16" height="15" viewBox="0 0 16 15" fill="none" xmlns="http://www.w3.org/2000/svg">
<path fill-rule="evenodd" clip-rule="evenodd" d="M11.9777 0.121411C11.3345 0.0703053 10.5342 0.0703125 9.51337 0.0703125H6.48665C5.46584 0.0703125 4.66552 0.0703053 4.02228 0.121411C3.36728 0.17345 2.82619 0.281175 2.33641 0.523843C1.53125 0.92278 0.876636 1.55935 0.466389 2.34231C0.216841 2.81858 0.106061 3.34477 0.052547 3.9817C-7.40761e-06 4.6072 0 5.38546 0 6.37813V9.46231C0 11.2695 1.50654 12.7345 3.36495 12.7345H3.81277C3.9977 12.7345 4.12415 12.9162 4.05547 13.0831C3.54447 14.3254 5.01574 15.4485 6.13537 14.6708L8.07821 13.3213L8.11482 13.296C8.64238 12.9345 9.27099 12.7386 9.91635 12.7346L9.96122 12.7345H10.479C11.6314 12.7347 12.3344 12.7348 12.9249 12.5664C14.3234 12.1677 15.4171 11.1042 15.8271 9.74425C16.0003 9.17002 16.0001 8.48644 16 7.36576V6.37812C16 5.38547 16 4.60719 15.9475 3.9817C15.8939 3.34476 15.7831 2.81858 15.5336 2.34231C15.1233 1.55935 14.4688 0.92278 13.6635 0.523843C13.1738 0.281175 12.6327 0.17345 11.9777 0.121411ZM2.84319 1.49103C3.14937 1.33933 3.52722 1.24986 4.11317 1.20331C4.70565 1.15624 5.46045 1.15582 6.51162 1.15582H9.48837C10.5395 1.15582 11.2944 1.15624 11.8868 1.20331C12.4728 1.24986 12.8506 1.33933 13.1568 1.49103C13.7519 1.7859 14.2358 2.25641 14.539 2.83512C14.695 3.13286 14.787 3.50029 14.8349 4.07009C14.8833 4.64623 14.8837 5.38023 14.8837 6.40242V7.25938C14.8837 8.51994 14.8781 9.03389 14.7559 9.43879C14.4528 10.444 13.6445 11.23 12.6108 11.5248C12.1944 11.6435 11.6659 11.649 10.3696 11.649H9.96122L9.9092 11.6491C9.03605 11.6545 8.18552 11.9196 7.47177 12.4087L5.48655 13.7875C5.27411 13.9351 4.99495 13.722 5.09191 13.4863C5.45389 12.6063 4.78743 11.649 3.81277 11.649H3.36495C2.12304 11.649 1.11628 10.67 1.11628 9.46231V6.40242C1.11628 5.38023 1.11671 4.64623 1.16512 4.07009C1.21299 3.50029 1.305 3.13286 1.461 2.83512C1.76423 2.25641 2.24807 1.7859 2.84319 1.49103Z" fill="white"/>
</svg>
