<svg width="38" height="38" viewBox="0 0 38 38" fill="none" xmlns="http://www.w3.org/2000/svg">
<path d="M30.6274 13.4316L16.8839 6.58222C7.63019 1.99322 3.84868 5.75306 8.47556 14.9424L10.5205 18.9975L8.47551 23.0526C3.84864 32.242 7.64153 36.0131 16.8839 31.4128L30.6274 24.5861C36.7852 21.5078 36.7966 16.4985 30.6274 13.4316ZM24.8467 19.9062L16.1413 19.9289C15.7985 19.9289 15.5015 19.7926 15.2844 19.5768C15.0674 19.361 14.9303 19.0657 14.9303 18.7249C14.9303 18.0661 15.4787 17.5208 16.1413 17.5208L24.8467 17.4981C25.5093 17.4981 26.0577 18.0433 26.0577 18.7021C26.0577 19.361 25.5093 19.9062 24.8467 19.9062Z" fill="#3A3A3A"/>
</svg>
