<svg width="15" height="14" viewBox="0 0 15 14" fill="none" xmlns="http://www.w3.org/2000/svg">
<g clip-path="url(#clip0_7328_101610)">
<path d="M14.773 11.423L8.9489 1.33758C8.64624 0.813156 8.10384 0.5 7.4985 0.5C6.89317 0.5 6.35076 0.813156 6.0481 1.33758L0.227 11.423C-0.0756668 11.9474 -0.0756668 12.5737 0.227 13.0981C0.529667 13.6226 1.07207 13.9357 1.6774 13.9357H13.3241C13.9294 13.9357 14.4718 13.6226 14.7745 13.0981C15.0772 12.5737 15.0772 11.9474 14.7745 11.423H14.773ZM14.0118 12.6576C13.868 12.9064 13.6103 13.0547 13.3241 13.0547H1.67591C1.38822 13.0547 1.13051 12.9064 0.988163 12.6576C0.845819 12.4089 0.844321 12.1122 0.988163 11.862L6.81076 1.7766C6.9546 1.52787 7.21232 1.37953 7.4985 1.37953C7.78469 1.37953 8.0439 1.52787 8.18624 1.7766L14.0088 11.862C14.1527 12.1107 14.1527 12.4074 14.0088 12.6576H14.0118Z" fill="white"/>
<path d="M7.49992 10.124C7.17627 10.124 6.91406 10.3877 6.91406 10.7099C6.91406 11.032 7.17777 11.2957 7.49992 11.2957C7.82206 11.2957 8.08577 11.032 8.08577 10.7099C8.08577 10.3862 7.82206 10.124 7.49992 10.124Z" fill="white"/>
<path d="M7.94008 4.69824H7.06055V9.24274H7.94008V4.69824Z" fill="white"/>
</g>
<defs>
<clipPath id="clip0_7328_101610">
<rect width="15" height="13.4342" fill="white" transform="translate(0 0.5)"/>
</clipPath>
</defs>
</svg>
