<svg width="30" height="30" viewBox="0 0 30 30" fill="none" xmlns="http://www.w3.org/2000/svg">
<g clip-path="url(#clip0_4482_125915)">
<circle cx="15" cy="15" r="15" fill="white"/>
<g clip-path="url(#clip1_4482_125915)">
<path d="M22.4844 11.91C22.4492 11.113 22.3203 10.5651 22.1357 10.0903C21.9452 9.58632 21.6522 9.13511 21.2683 8.76001C20.8932 8.37908 20.439 8.08308 19.9409 7.89559C19.4633 7.71096 18.9183 7.58207 18.1213 7.54693C17.3183 7.50881 17.0634 7.5 15.0269 7.5C12.9903 7.5 12.7354 7.50881 11.9354 7.54395C11.1384 7.57909 10.5905 7.70809 10.1158 7.89261C9.61171 8.08308 9.1605 8.3761 8.7854 8.76001C8.40447 9.13511 8.10858 9.5893 7.92098 10.0874C7.73635 10.5651 7.60746 11.1101 7.57232 11.9071C7.5342 12.71 7.52539 12.9649 7.52539 15.0015C7.52539 17.038 7.5342 17.2929 7.56934 18.0929C7.60448 18.8899 7.73348 19.4378 7.91811 19.9126C8.10858 20.4166 8.40447 20.8678 8.7854 21.2429C9.1605 21.6239 9.61469 21.9199 10.1128 22.1073C10.5905 22.292 11.1354 22.4209 11.9326 22.456C12.7324 22.4913 12.9875 22.5 15.024 22.5C17.0605 22.5 17.3154 22.4913 18.1154 22.456C18.9124 22.4209 19.4604 22.292 19.935 22.1073C20.9431 21.7176 21.7401 20.9206 22.1299 19.9126C22.3144 19.435 22.4434 18.8899 22.4785 18.0929C22.5137 17.2929 22.5225 17.038 22.5225 15.0015C22.5225 12.9649 22.5195 12.71 22.4844 11.91ZM21.1336 18.0343C21.1013 18.7668 20.9783 19.1624 20.8757 19.4262C20.6237 20.0796 20.105 20.5983 19.4515 20.8503C19.1878 20.9529 18.7894 21.0759 18.0597 21.1081C17.2685 21.1433 17.0312 21.152 15.0298 21.152C13.0284 21.152 12.7882 21.1433 11.9999 21.1081C11.2673 21.0759 10.8717 20.9529 10.608 20.8503C10.2828 20.7301 9.98681 20.5397 9.74655 20.2906C9.49748 20.0473 9.30701 19.7543 9.18683 19.4291C9.08427 19.1654 8.96122 18.7668 8.92905 18.0373C8.8938 17.2461 8.8851 17.0087 8.8851 15.0073C8.8851 13.0059 8.8938 12.7657 8.92905 11.9775C8.96122 11.2449 9.08427 10.8493 9.18683 10.5856C9.30701 10.2603 9.49748 9.96439 9.74953 9.72402C9.99265 9.47495 10.2857 9.28448 10.611 9.16441C10.8747 9.06185 11.2733 8.9388 12.0029 8.90652C12.794 8.87138 13.0314 8.86257 15.0327 8.86257C17.0371 8.86257 17.2743 8.87138 18.0627 8.90652C18.7952 8.9388 19.1908 9.06185 19.4545 9.16441C19.7797 9.28448 20.0757 9.47495 20.316 9.72402C20.565 9.96726 20.7555 10.2603 20.8757 10.5856C20.9783 10.8493 21.1013 11.2478 21.1336 11.9775C21.1687 12.7686 21.1775 13.0059 21.1775 15.0073C21.1775 17.0087 21.1687 17.2431 21.1336 18.0343Z" fill="black"/>
<path d="M15.0271 11.1475C12.8998 11.1475 11.1738 12.8733 11.1738 15.0008C11.1738 17.1282 12.8998 18.854 15.0271 18.854C17.1545 18.854 18.8804 17.1282 18.8804 15.0008C18.8804 12.8733 17.1545 11.1475 15.0271 11.1475ZM15.0271 17.5003C13.647 17.5003 12.5276 16.381 12.5276 15.0008C12.5276 13.6206 13.647 12.5012 15.0271 12.5012C16.4073 12.5012 17.5267 13.6206 17.5267 15.0008C17.5267 16.381 16.4073 17.5003 15.0271 17.5003Z" fill="black"/>
<path d="M19.9321 10.9953C19.9321 11.492 19.5293 11.8948 19.0324 11.8948C18.5356 11.8948 18.1328 11.492 18.1328 10.9953C18.1328 10.4984 18.5356 10.0957 19.0324 10.0957C19.5293 10.0957 19.9321 10.4984 19.9321 10.9953Z" fill="black"/>
</g>
</g>
<defs>
<clipPath id="clip0_4482_125915">
<rect width="30" height="30" fill="white"/>
</clipPath>
<clipPath id="clip1_4482_125915">
<rect width="15" height="15" fill="white" transform="translate(7.5 7.5)"/>
</clipPath>
</defs>
</svg>
