<svg width="30" height="30" viewBox="0 0 30 30" fill="none" xmlns="http://www.w3.org/2000/svg">
<g clip-path="url(#clip0_4482_125921)">
<circle cx="15" cy="15" r="15" fill="white"/>
<path d="M20.9972 20.9999V16.6049C20.9972 14.4449 20.5322 12.7949 18.0122 12.7949C16.7972 12.7949 15.9872 13.4549 15.6572 14.0849H15.6272V12.9899H13.2422V20.9999H15.7322V17.0249C15.7322 15.9749 15.9272 14.9699 17.2172 14.9699C18.4922 14.9699 18.5072 16.1549 18.5072 17.0849V20.9849H20.9972V20.9999Z" fill="#090909"/>
<path d="M9.19336 12.9912H11.6834V21.0012H9.19336V12.9912Z" fill="#090909"/>
<path d="M10.438 9C9.64305 9 8.99805 9.645 8.99805 10.44C8.99805 11.235 9.64305 11.895 10.438 11.895C11.233 11.895 11.878 11.235 11.878 10.44C11.878 9.645 11.233 9 10.438 9Z" fill="#090909"/>
</g>
<defs>
<clipPath id="clip0_4482_125921">
<rect width="30" height="30" fill="white"/>
</clipPath>
</defs>
</svg>
