<svg width="120" height="45" viewBox="0 0 120 45" fill="none" xmlns="http://www.w3.org/2000/svg">
<g id="Logo" clip-path="url(#clip0_3776_112395)">
<g id="Logo_Text">
<path id="Vector" d="M71.2625 11.6035H63.1137C57.4497 11.6128 54.1038 13.579 53.0759 17.4991L49.2824 31.8891C49.2516 32.0188 49.233 32.17 49.2207 32.3429C49.2207 32.5157 49.3071 32.7164 49.4769 32.9479C49.6467 33.1701 49.9306 33.2812 50.3226 33.2812H53.3013C53.6933 33.2812 54.0668 33.1516 54.4186 32.8892C54.7705 32.6176 54.9989 32.275 55.0977 31.8613L56.1101 28.0524H66.8579V31.8613C66.8579 32.275 66.9875 32.6176 67.2499 32.8892C67.5215 33.1516 67.8641 33.2812 68.2777 33.2812H71.1205C71.5125 33.2812 71.8521 33.1516 72.133 32.8892C72.4138 32.6176 72.5558 32.2842 72.5558 31.8922V13.011C72.5558 12.6376 72.4293 12.3104 72.1793 12.0295C71.9385 11.7486 71.6298 11.6066 71.2564 11.6066L71.2625 11.6035ZM66.864 23.7743H57.2337L58.564 18.922C58.8171 17.996 59.2986 17.2583 60.0147 16.715C60.7401 16.1594 61.5859 15.8847 62.5551 15.8847H66.864V23.7774V23.7743Z" fill="white"/>
<path id="Vector_2" d="M97.3832 12.3289C97.3832 11.8443 97.127 11.6035 96.6115 11.6035H93.7255C92.5958 11.6035 91.7192 12.082 91.0957 13.0388L86.2126 20.5826L81.314 13.0388C80.6998 12.082 79.8232 11.6035 78.6842 11.6035H75.8105C75.2858 11.6035 75.0234 11.8443 75.0234 12.3289C75.0234 12.5511 75.1099 12.7888 75.2796 13.0388L83.3512 25.5398V31.8891C83.3512 32.2811 83.4932 32.6145 83.7741 32.8861C84.055 33.1485 84.3945 33.2781 84.7865 33.2781H87.6293C88.0214 33.2781 88.3547 33.1485 88.6263 32.8861C88.9072 32.6145 89.0492 32.2811 89.0492 31.8891V25.5398L97.1363 13.0388C97.2968 12.7857 97.377 12.5511 97.377 12.3289H97.3832Z" fill="white"/>
<path id="Vector_3" d="M119.623 12.0264C119.379 11.7455 119.074 11.6035 118.7 11.6035H110.551C104.887 11.6128 101.541 13.579 100.513 17.4991L96.7199 31.8891C96.6891 32.0188 96.6705 32.17 96.6582 32.3429C96.6582 32.5157 96.7446 32.7164 96.9144 32.9479C97.0873 33.1701 97.3681 33.2812 97.7601 33.2812H100.739C101.131 33.2812 101.504 33.1516 101.856 32.8892C102.208 32.6176 102.436 32.275 102.535 31.8613L103.548 28.0524H114.295V31.8613C114.295 32.275 114.425 32.6176 114.687 32.8892C114.959 33.1516 115.302 33.2812 115.715 33.2812H118.558C118.95 33.2812 119.29 33.1516 119.57 32.8892C119.851 32.6176 119.993 32.2842 119.993 31.8922V13.011C119.993 12.6376 119.867 12.3104 119.617 12.0295L119.623 12.0264ZM114.302 23.7712H104.671L106.002 18.9189C106.255 17.9929 106.736 17.2552 107.452 16.712C108.178 16.1564 109.023 15.8816 109.993 15.8816H114.302V23.7743V23.7712Z" fill="white"/>
</g>
<g id="Logo_Icon">
<path id="Vector_4" d="M47.7942 20.5442C48.4147 19.2694 48.7943 17.9236 49.1369 16.5562C49.5938 14.735 49.1338 12.9664 47.7819 12.1361C46.9547 11.6298 45.9669 11.599 45.0286 11.5897C42.6951 11.5681 40.3832 11.8212 38.1145 12.5034C39.3522 12.4324 40.59 12.3892 41.8246 12.2811C42.4049 12.2317 42.692 12.4169 42.8587 12.9787C43.5748 15.4265 43.8958 17.9081 43.7569 20.4608C43.6334 22.7511 43.0284 24.8994 42.1086 26.986C41.2968 28.8257 40.306 30.5326 38.9263 32.0111C36.9786 34.5175 34.2345 36.6566 31.3146 37.8357C28.836 38.7956 25.2987 39.6784 22.6441 37.9098C21.7583 37.0239 22.6441 35.2552 22.6441 33.4866C21.7583 36.1411 19.9896 39.6784 23.53 42.333C25.2987 43.2188 27.0673 42.333 27.9532 40.5643C27.0673 42.333 25.2987 44.1016 23.53 44.1016C16.4523 40.5643 18.2241 30.832 19.6069 24.3624C19.9588 22.3499 20.3878 20.3312 20.8168 18.3063C21.1163 16.9636 21.6626 15.6641 22.1379 14.3708C22.4806 13.4386 23.6782 13.2812 24.5239 13.0621C26.0456 12.667 27.4748 12.0311 28.9811 11.599C33.6666 10.2594 38.346 9 43.2723 9C44.8804 9 46.4114 9.35497 47.8436 10.0124C49.4456 10.7501 50.1247 12.1422 50.1432 13.8862C50.1679 16.3895 49.103 18.5039 47.7942 20.538V20.5442Z" fill="white"/>
<path id="Vector_5" d="M1.00113 19.3949C2.72966 17.4472 4.65882 15.7897 6.96764 14.2494C6.15276 14.1044 5.89349 14.7989 5.37184 14.7186C5.84719 10.2491 9.99874 4.59125 15.2275 2.08178C20.5736 -0.486328 25.9228 -0.529542 31.4603 1.128C31.309 1.4768 30.9386 1.49223 30.6701 1.65274C30.4108 1.81016 29.9848 1.56631 29.775 2.09722C30.3707 2.17747 30.9263 2.21451 31.4819 2.08796C34.6642 1.36259 37.8743 1.54779 40.9857 2.25464C43.5692 2.8411 45.8873 4.17455 47.8597 6.50807C47.2887 6.23644 46.9584 6.10372 46.6466 5.92778C44.3625 4.65298 41.9302 4.11899 39.3004 4.09429C35.263 4.05725 31.414 4.78571 27.5649 5.98951C23.9844 7.10997 20.5026 8.45885 17.1042 10.0022C15.4714 10.743 13.8601 11.6073 12.2798 12.4962C9.71477 13.9377 7.13432 15.3452 4.67117 16.9565C3.44268 17.7621 2.22036 18.58 0.998047 19.3918L1.00113 19.3949Z" fill="white"/>
<path id="Vector_6" d="M15.7964 16.6758C14.6574 21.065 13.8117 25.374 13.9228 29.5781C13.9783 31.6801 14.2747 33.7574 14.892 35.807C15.5649 37.9152 17.3335 39.6838 18.2194 41.4525C12.9134 37.0293 9.37305 30.8374 6.11354 25.3864C5.91908 24.8832 5.91599 24.5159 6.47467 24.198C6.96545 23.9202 7.36363 23.485 7.80502 23.1177C7.76181 23.022 7.7186 22.9263 7.67538 22.8306C5.11655 23.8276 2.56079 24.8215 0.00195312 25.8216C2.47437 24.0406 4.99617 22.3614 7.61365 20.8212C10.2311 19.284 12.9443 17.8858 15.7964 16.6789V16.6758Z" fill="white"/>
</g>
</g>
<defs>
<clipPath id="clip0_3776_112395">
<rect width="120" height="44.1055" fill="white"/>
</clipPath>
</defs>
</svg>
