<svg width="21" height="21" viewBox="0 0 21 21" fill="none" xmlns="http://www.w3.org/2000/svg">
<g clip-path="url(#clip0_3686_76356)">
<path d="M10.4985 5.80514C11.1589 5.80514 11.6962 5.27887 11.6962 4.63207V4.32129C11.3504 4.53977 10.9396 4.66727 10.4985 4.66727C10.0575 4.66727 9.64623 4.53977 9.30078 4.32129V4.63207C9.30078 5.27887 9.83811 5.80514 10.4985 5.80514Z" fill="#DE173E"/>
<path d="M16.8508 8.01408C16.2443 7.42008 15.9104 6.63051 15.9104 5.79047V2.52029C15.9104 2.24537 15.6826 2.02225 15.4019 2.02225H13.2231C12.9424 2.02225 12.7146 2.24537 12.7146 2.52029V4.63201C12.7146 5.82799 11.7209 6.80117 10.4998 6.80117C9.27872 6.80117 8.28508 5.82799 8.28508 4.63201V2.49805C8.28508 2.22313 8.05727 2 7.77657 2H5.59775C5.31705 2 5.08924 2.22313 5.08924 2.49805V5.79047C5.08924 6.63018 4.75531 7.41975 4.14883 8.01375C4.05356 8.10705 4 8.23389 4 8.36603V18.502C4 18.7769 4.22781 19 4.50851 19H16.4915C16.7722 19 17 18.7769 17 18.502V8.36603C17 8.23389 16.9464 8.10738 16.8512 8.01375L16.8508 8.01408Z" fill="#DE173E"/>
</g>
<defs>
<clipPath id="clip0_3686_76356">
<rect width="13" height="17" fill="white" transform="translate(4 2)"/>
</clipPath>
</defs>
</svg>
