<svg width="21" height="21" viewBox="0 0 21 21" fill="none" xmlns="http://www.w3.org/2000/svg">
<path fill-rule="evenodd" clip-rule="evenodd" d="M10.5 3.62526C6.70319 3.62526 3.62526 6.70319 3.62526 10.5C3.62526 14.2968 6.70319 17.3747 10.5 17.3747C14.2968 17.3747 17.3747 14.2968 17.3747 10.5C17.3747 6.70319 14.2968 3.62526 10.5 3.62526ZM3 10.5C3 6.35786 6.35786 3 10.5 3C14.6421 3 18 6.35786 18 10.5C18 14.6421 14.6421 18 10.5 18C6.35786 18 3 14.6421 3 10.5Z" fill="#FF9C00"/>
<path fill-rule="evenodd" clip-rule="evenodd" d="M14.62 4.33632C14.7901 4.30688 14.9519 4.42094 14.9813 4.59107C15.439 7.23648 15.0726 9.27884 14.2397 10.8488C13.4085 12.4156 12.1282 13.4829 10.806 14.2083C9.48492 14.933 8.11173 15.3224 7.07335 15.5312C6.55314 15.6357 6.11437 15.6954 5.8046 15.7291C5.64965 15.7459 5.5268 15.7562 5.44197 15.7624C5.39955 15.7654 5.36662 15.7675 5.34392 15.7688C5.33257 15.7694 5.32377 15.7698 5.31763 15.7701L5.31041 15.7705L5.30764 15.7706C5.30741 15.7706 5.30723 15.7706 5.29437 15.4583L5.30764 15.7706C5.13512 15.7777 4.98911 15.6436 4.98201 15.4711C4.97491 15.2986 5.10893 15.1531 5.28137 15.1459C5.28137 15.1459 5.28137 15.1459 5.28137 15.1459M5.28137 15.1459L5.28241 15.1458L5.2873 15.1456C5.29188 15.1454 5.29908 15.145 5.30881 15.1445C5.32827 15.1434 5.35785 15.1416 5.3968 15.1387C5.47472 15.1331 5.59011 15.1234 5.7371 15.1075C6.0312 15.0755 6.45112 15.0185 6.95013 14.9182C7.9502 14.7171 9.25762 14.3445 10.5052 13.6601C11.7516 12.9763 12.928 11.9872 13.6874 10.5558C14.4451 9.12737 14.8032 7.22942 14.3652 4.69767C14.3358 4.52753 14.4499 4.36575 14.62 4.33632" fill="#FF9C00"/>
<path fill-rule="evenodd" clip-rule="evenodd" d="M6.02967 4.61808C6.02968 4.61788 6.02969 4.61772 6.34182 4.63534C6.65395 4.65296 6.65396 4.65287 6.65396 4.65283L6.6539 4.65391L6.65366 4.65871L6.65269 4.6796C6.65187 4.69847 6.65075 4.72711 6.64963 4.76493C6.6474 4.84056 6.64516 4.95282 6.64529 5.09682C6.64554 5.38491 6.65527 5.79952 6.69337 6.30165C6.76965 7.30729 6.95918 8.65689 7.41011 10.0416C8.3111 12.8084 10.2357 15.6733 14.3659 16.2842L14.2744 16.9027C9.82289 16.2443 7.75833 13.1302 6.81558 10.2352C6.34464 8.78906 6.14865 7.38713 6.0699 6.34895C6.03047 5.82916 6.02029 5.3988 6.02003 5.09738C6.01989 4.94663 6.02223 4.82801 6.02465 4.74645C6.02585 4.70566 6.02708 4.67413 6.02802 4.65248C6.02849 4.64165 6.02888 4.63328 6.02918 4.62747L6.02953 4.62066L6.02967 4.61808Z" fill="#FF9C00"/>
<path fill-rule="evenodd" clip-rule="evenodd" d="M10.9711 9.2202C11.0677 10.6888 11.4853 11.7423 12.4599 12.5969C13.3819 13.4048 14.541 13.2639 15.5557 12.7255C16.0591 12.4584 16.5052 12.1022 16.8322 11.7485C17.1702 11.3828 17.342 11.0623 17.3684 10.8726L17.9877 10.9587C17.9343 11.3427 17.6536 11.7811 17.2913 12.1729C16.918 12.5768 16.4161 12.9768 15.8488 13.2778C14.7219 13.8758 13.2487 14.1194 12.0479 13.0672C10.9154 12.0742 10.4514 10.8455 10.3471 9.26125C10.2451 7.71084 10.4859 5.78336 10.7889 3.3584C10.7914 3.33854 10.7938 3.31865 10.7963 3.29873L11.4168 3.37624C11.1073 5.85338 10.873 7.73047 10.9711 9.2202Z" fill="#FF9C00"/>
<path fill-rule="evenodd" clip-rule="evenodd" d="M9.42972 17.5045C9.42975 17.5047 9.42978 17.5049 9.12139 17.5561C8.81299 17.6074 8.81302 17.6076 8.81304 17.6077L8.81207 17.6024C8.8111 17.5972 8.80943 17.5885 8.80695 17.5765C8.80201 17.5526 8.79384 17.5156 8.78159 17.467C8.75708 17.3699 8.7163 17.2268 8.65243 17.05C8.52459 16.6961 8.30488 16.209 7.93923 15.685C7.21149 14.6421 5.89597 13.4383 3.53467 12.8544L3.68476 12.2474C6.20362 12.8703 7.64393 14.1691 8.45199 15.3272C8.85424 15.9036 9.09742 16.4415 9.24049 16.8376C9.31207 17.0357 9.35876 17.1988 9.38785 17.3141C9.4024 17.3718 9.41256 17.4175 9.41925 17.4498C9.42259 17.466 9.42506 17.4788 9.42678 17.488L9.42881 17.4992L9.42942 17.5027L9.42972 17.5045Z" fill="#FF9C00"/>
</svg>
