<svg width="456" height="407" viewBox="0 0 456 407" fill="none" xmlns="http://www.w3.org/2000/svg">
<g clip-path="url(#clip0_2396_34665)">
<g opacity="0.22">
<path d="M455.996 406.81L455.996 0L2.99496 -1.4145e-05L2.99494 406.81L455.996 406.81Z" fill="#212121"/>
<path d="M455.996 73.8846L455.996 0L440.492 -4.84114e-07L440.492 73.8846L455.996 73.8846Z" fill="#27282D"/>
<path d="M455.996 220.428L455.996 146.543L440.492 146.543L440.492 220.428L455.996 220.428Z" fill="#27282D"/>
<path d="M455.996 147.463L455.996 73.5781L440.492 73.5781L440.492 147.463L455.996 147.463Z" fill="#2B2727"/>
<path d="M425.82 34.2062L425.82 0L410.316 -3.43067e-07L410.316 34.2062L425.82 34.2062Z" fill="#27282D"/>
<path d="M440.492 91.6736L440.492 17.7891L424.988 17.7891L424.988 91.6736L440.492 91.6736Z" fill="#181818"/>
<path d="M440.492 238.831L440.492 164.946L424.988 164.946L424.988 238.831L440.492 238.831Z" fill="#181818"/>
<path d="M440.492 164.639L440.492 90.7549L424.988 90.7549L424.988 164.639L440.492 164.639Z" fill="#27282D"/>
<path d="M425.82 108.545L425.82 34.6602L410.316 34.6602L410.316 108.545L425.82 108.545Z" fill="#27282D"/>
<path d="M425.82 181.807L425.82 107.933L410.316 107.933L410.316 181.807L425.82 181.807Z" fill="#181818"/>
<path d="M455.996 294.166L455.996 220.281L440.492 220.281L440.492 294.166L455.996 294.166Z" fill="#27282D"/>
<path d="M455.996 406.809L455.996 366.824L440.492 366.824L440.492 406.809L455.996 406.809Z" fill="#27282D"/>
<path d="M455.996 367.744L455.996 293.859L440.492 293.859L440.492 367.744L455.996 367.744Z" fill="#2B2727"/>
<path d="M425.82 254.477L425.82 181.966L410.316 181.966L410.316 254.477L425.82 254.477Z" fill="#27282D"/>
<path d="M440.492 311.945L440.492 238.061L424.988 238.061L424.988 311.945L440.492 311.945Z" fill="#181818"/>
<path d="M440.492 406.8L440.492 385.218L424.988 385.218L424.988 406.8L440.492 406.8Z" fill="#181818"/>
<path d="M440.492 384.92L440.492 311.035L424.988 311.035L424.988 384.92L440.492 384.92Z" fill="#27282D"/>
<path d="M425.82 328.826L425.82 254.941L410.316 254.941L410.316 328.826L425.82 328.826Z" fill="#27282D"/>
<path d="M425.82 402.098L425.82 328.214L410.316 328.214L410.316 402.098L425.82 402.098Z" fill="#181818"/>
<path d="M380.937 406.808L380.938 332.924L365.433 332.924L365.433 406.808L380.937 406.808Z" fill="#27282D"/>
<path d="M380.937 260.266L380.938 186.382L365.433 186.382L365.433 260.266L380.937 260.266Z" fill="#27282D"/>
<path d="M380.937 333.23L380.938 259.346L365.433 259.346L365.433 333.23L380.937 333.23Z" fill="#2B2727"/>
<path d="M411.137 406.808L411.137 372.602L395.633 372.602L395.633 406.808L411.137 406.808Z" fill="#27282D"/>
<path d="M396.445 389.019L396.445 315.135L380.941 315.135L380.941 389.019L396.445 389.019Z" fill="#181818"/>
<path d="M396.445 241.862L396.445 167.978L380.941 167.978L380.941 241.862L396.445 241.862Z" fill="#181818"/>
<path d="M396.445 316.054L396.445 242.169L380.941 242.169L380.941 316.054L396.445 316.054Z" fill="#27282D"/>
<path d="M411.137 372.148L411.137 298.264L395.633 298.264L395.633 372.148L411.137 372.148Z" fill="#27282D"/>
<path d="M411.137 298.876L411.137 224.991L395.633 224.991L395.633 298.876L411.137 298.876Z" fill="#181818"/>
<path d="M380.937 186.527L380.938 112.643L365.433 112.643L365.433 186.527L380.937 186.527Z" fill="#27282D"/>
<path d="M380.937 39.9846L380.938 0L365.433 -3.43067e-07L365.433 39.9846L380.937 39.9846Z" fill="#27282D"/>
<path d="M380.937 112.95L380.938 39.0654L365.433 39.0654L365.433 112.95L380.937 112.95Z" fill="#2B2727"/>
<path d="M411.137 224.835L411.137 152.323L395.633 152.323L395.633 224.835L411.137 224.835Z" fill="#2B2727"/>
<path d="M396.445 168.748L396.445 94.8633L380.941 94.8633L380.941 168.748L396.445 168.748Z" fill="#181818"/>
<path d="M396.445 95.7732L396.445 21.8887L380.941 21.8887L380.941 95.7732L396.445 95.7732Z" fill="#27282D"/>
<path d="M411.137 151.867L411.137 77.9824L395.633 77.9824L395.633 151.867L411.137 151.867Z" fill="#27282D"/>
<path d="M411.137 78.5955L411.137 4.71094L395.633 4.71094L395.633 78.5955L411.137 78.5955Z" fill="#181818"/>
<path d="M364.625 73.8846L364.625 0L349.121 -3.43067e-07L349.121 73.8846L364.625 73.8846Z" fill="#27282D"/>
<path d="M364.625 220.428L364.625 146.543L349.121 146.543L349.121 220.428L364.625 220.428Z" fill="#27282D"/>
<path d="M364.625 147.463L364.625 73.5781L349.121 73.5781L349.121 147.463L364.625 147.463Z" fill="#2B2727"/>
<path d="M334.449 34.2062L334.449 0L318.945 -3.43067e-07L318.945 34.2062L334.449 34.2062Z" fill="#27282D"/>
<path d="M349.141 91.6736L349.141 17.7891L333.637 17.7891L333.637 91.6736L349.141 91.6736Z" fill="#181818"/>
<path d="M349.141 238.831L349.141 164.946L333.637 164.946L333.637 238.831L349.141 238.831Z" fill="#181818"/>
<path d="M349.141 164.639L349.141 90.7549L333.637 90.7549L333.637 164.639L349.141 164.639Z" fill="#27282D"/>
<path d="M334.449 108.545L334.449 34.6602L318.945 34.6602L318.945 108.545L334.449 108.545Z" fill="#27282D"/>
<path d="M334.449 181.807L334.449 107.933L318.945 107.933L318.945 181.807L334.449 181.807Z" fill="#181818"/>
<path d="M364.625 294.166L364.625 220.281L349.121 220.281L349.121 294.166L364.625 294.166Z" fill="#27282D"/>
<path d="M364.625 406.809L364.625 366.824L349.121 366.824L349.121 406.809L364.625 406.809Z" fill="#27282D"/>
<path d="M364.625 367.744L364.625 293.859L349.121 293.859L349.121 367.744L364.625 367.744Z" fill="#2B2727"/>
<path d="M334.449 254.477L334.449 181.966L318.945 181.966L318.945 254.477L334.449 254.477Z" fill="#27282D"/>
<path d="M349.141 311.945L349.141 238.061L333.637 238.061L333.637 311.945L349.141 311.945Z" fill="#181818"/>
<path d="M349.141 406.8L349.141 385.218L333.637 385.218L333.637 406.8L349.141 406.8Z" fill="#181818"/>
<path d="M349.141 384.92L349.141 311.035L333.637 311.035L333.637 384.92L349.141 384.92Z" fill="#27282D"/>
<path d="M334.449 328.826L334.449 254.941L318.945 254.941L318.945 328.826L334.449 328.826Z" fill="#27282D"/>
<path d="M334.449 402.098L334.449 328.214L318.945 328.214L318.945 402.098L334.449 402.098Z" fill="#181818"/>
<path d="M289.59 406.809L289.59 332.925L274.086 332.925L274.086 406.809L289.59 406.809Z" fill="#27282D"/>
<path d="M289.59 260.266L289.59 186.382L274.086 186.382L274.086 260.266L289.59 260.266Z" fill="#27282D"/>
<path d="M289.59 333.23L289.59 259.346L274.086 259.346L274.086 333.23L289.59 333.23Z" fill="#2B2727"/>
<path d="M319.766 406.808L319.766 372.602L304.262 372.602L304.262 406.808L319.766 406.808Z" fill="#27282D"/>
<path d="M305.074 389.019L305.074 315.135L289.57 315.135L289.57 389.019L305.074 389.019Z" fill="#181818"/>
<path d="M305.074 241.862L305.074 167.978L289.57 167.978L289.57 241.862L305.074 241.862Z" fill="#181818"/>
<path d="M305.074 316.054L305.074 242.169L289.57 242.169L289.57 316.054L305.074 316.054Z" fill="#27282D"/>
<path d="M319.766 372.148L319.766 298.264L304.262 298.264L304.262 372.148L319.766 372.148Z" fill="#27282D"/>
<path d="M319.766 298.876L319.766 224.991L304.262 224.991L304.262 298.876L319.766 298.876Z" fill="#181818"/>
<path d="M289.59 186.527L289.59 112.643L274.086 112.643L274.086 186.527L289.59 186.527Z" fill="#27282D"/>
<path d="M289.59 39.9846L289.59 0L274.086 -3.43067e-07L274.086 39.9846L289.59 39.9846Z" fill="#27282D"/>
<path d="M289.59 112.95L289.59 39.0654L274.086 39.0654L274.086 112.95L289.59 112.95Z" fill="#2B2727"/>
<path d="M319.766 224.835L319.766 152.323L304.262 152.323L304.262 224.835L319.766 224.835Z" fill="#2B2727"/>
<path d="M305.074 168.748L305.074 94.8633L289.57 94.8633L289.57 168.748L305.074 168.748Z" fill="#181818"/>
<path d="M305.074 95.7732L305.074 21.8887L289.57 21.8887L289.57 95.7732L305.074 95.7732Z" fill="#27282D"/>
<path d="M319.766 151.867L319.766 77.9824L304.262 77.9824L304.262 151.867L319.766 151.867Z" fill="#27282D"/>
<path d="M319.766 78.5955L319.766 4.71094L304.262 4.71094L304.262 78.5955L319.766 78.5955Z" fill="#181818"/>
<path d="M273.277 73.8846L273.277 0L257.773 -3.43067e-07L257.773 73.8846L273.277 73.8846Z" fill="#27282D"/>
<path d="M273.277 220.428L273.277 146.543L257.773 146.543L257.773 220.428L273.277 220.428Z" fill="#27282D"/>
<path d="M273.277 147.463L273.277 73.5781L257.773 73.5781L257.773 147.463L273.277 147.463Z" fill="#2B2727"/>
<path d="M243.094 34.2062L243.094 0L227.59 -3.43067e-07L227.59 34.2062L243.094 34.2062Z" fill="#27282D"/>
<path d="M257.773 91.6736L257.773 17.7891L242.269 17.7891L242.269 91.6736L257.773 91.6736Z" fill="#181818"/>
<path d="M257.773 238.831L257.773 164.946L242.269 164.946L242.269 238.831L257.773 238.831Z" fill="#181818"/>
<path d="M257.773 164.639L257.773 90.7549L242.269 90.7549L242.269 164.639L257.773 164.639Z" fill="#27282D"/>
<path d="M243.094 108.545L243.094 34.6602L227.59 34.6602L227.59 108.545L243.094 108.545Z" fill="#27282D"/>
<path d="M243.094 181.807L243.094 107.933L227.59 107.933L227.59 181.807L243.094 181.807Z" fill="#181818"/>
<path d="M273.277 294.166L273.277 220.281L257.773 220.281L257.773 294.166L273.277 294.166Z" fill="#27282D"/>
<path d="M273.277 406.809L273.277 366.824L257.773 366.824L257.773 406.809L273.277 406.809Z" fill="#27282D"/>
<path d="M273.277 367.744L273.277 293.859L257.773 293.859L257.773 367.744L273.277 367.744Z" fill="#2B2727"/>
<path d="M243.094 254.477L243.094 181.966L227.59 181.966L227.59 254.477L243.094 254.477Z" fill="#27282D"/>
<path d="M257.773 311.945L257.773 238.061L242.269 238.061L242.269 311.945L257.773 311.945Z" fill="#181818"/>
<path d="M257.773 406.8L257.773 385.218L242.269 385.218L242.269 406.8L257.773 406.8Z" fill="#181818"/>
<path d="M257.773 384.92L257.773 311.035L242.269 311.035L242.269 384.92L257.773 384.92Z" fill="#27282D"/>
<path d="M243.094 328.826L243.094 254.941L227.59 254.941L227.59 328.826L243.094 328.826Z" fill="#27282D"/>
<path d="M243.094 402.098L243.094 328.214L227.59 328.214L227.59 402.098L243.094 402.098Z" fill="#181818"/>
<path d="M198.219 406.809L198.219 332.925L182.715 332.925L182.715 406.809L198.219 406.809Z" fill="#27282D"/>
<path d="M198.219 260.266L198.219 186.382L182.715 186.382L182.715 260.266L198.219 260.266Z" fill="#27282D"/>
<path d="M198.219 333.23L198.219 259.346L182.715 259.346L182.715 333.23L198.219 333.23Z" fill="#2B2727"/>
<path d="M228.398 406.808L228.398 372.602L212.894 372.602L212.894 406.808L228.398 406.808Z" fill="#27282D"/>
<path d="M213.727 389.02L213.727 315.136L198.223 315.136L198.223 389.02L213.727 389.02Z" fill="#181818"/>
<path d="M213.727 241.862L213.727 167.978L198.223 167.978L198.223 241.862L213.727 241.862Z" fill="#181818"/>
<path d="M213.727 316.054L213.727 242.169L198.223 242.169L198.223 316.054L213.727 316.054Z" fill="#27282D"/>
<path d="M228.398 372.148L228.398 298.264L212.894 298.264L212.894 372.148L228.398 372.148Z" fill="#27282D"/>
<path d="M228.398 298.876L228.398 224.991L212.894 224.991L212.894 298.876L228.398 298.876Z" fill="#181818"/>
<path d="M198.219 186.527L198.219 112.643L182.715 112.643L182.715 186.527L198.219 186.527Z" fill="#27282D"/>
<path d="M198.219 39.9846L198.219 0L182.715 -3.43067e-07L182.715 39.9846L198.219 39.9846Z" fill="#27282D"/>
<path d="M198.219 112.95L198.219 39.0654L182.715 39.0654L182.715 112.95L198.219 112.95Z" fill="#2B2727"/>
<path d="M228.398 224.835L228.398 152.323L212.894 152.323L212.894 224.835L228.398 224.835Z" fill="#2B2727"/>
<path d="M213.727 168.748L213.727 94.8633L198.223 94.8633L198.223 168.748L213.727 168.748Z" fill="#181818"/>
<path d="M213.727 95.7732L213.727 21.8887L198.223 21.8887L198.223 95.7732L213.727 95.7732Z" fill="#27282D"/>
<path d="M228.398 151.867L228.398 77.9824L212.894 77.9824L212.894 151.867L228.398 151.867Z" fill="#27282D"/>
<path d="M228.398 78.5955L228.398 4.71094L212.894 4.71094L212.894 78.5955L228.398 78.5955Z" fill="#181818"/>
<path d="M181.91 73.8846L181.91 0L166.406 -3.43068e-07L166.406 73.8846L181.91 73.8846Z" fill="#27282D"/>
<path d="M181.91 220.428L181.91 146.543L166.406 146.543L166.406 220.428L181.91 220.428Z" fill="#27282D"/>
<path d="M181.91 147.463L181.91 73.5781L166.406 73.5781L166.406 147.463L181.91 147.463Z" fill="#2B2727"/>
<path d="M151.73 34.2062L151.73 0L136.226 -3.43067e-07L136.226 34.2062L151.73 34.2062Z" fill="#27282D"/>
<path d="M166.402 91.6736L166.402 17.7891L150.898 17.7891L150.898 91.6736L166.402 91.6736Z" fill="#181818"/>
<path d="M166.402 238.831L166.402 164.946L150.898 164.946L150.898 238.831L166.402 238.831Z" fill="#181818"/>
<path d="M166.402 164.639L166.402 90.7549L150.898 90.7549L150.898 164.639L166.402 164.639Z" fill="#27282D"/>
<path d="M151.73 108.545L151.73 34.6602L136.226 34.6602L136.226 108.545L151.73 108.545Z" fill="#27282D"/>
<path d="M151.73 181.807L151.73 107.933L136.226 107.933L136.226 181.807L151.73 181.807Z" fill="#181818"/>
<path d="M181.91 294.166L181.91 220.281L166.406 220.281L166.406 294.166L181.91 294.166Z" fill="#27282D"/>
<path d="M181.91 406.809L181.91 366.824L166.406 366.824L166.406 406.809L181.91 406.809Z" fill="#27282D"/>
<path d="M181.91 367.744L181.91 293.859L166.406 293.859L166.406 367.744L181.91 367.744Z" fill="#2B2727"/>
<path d="M151.73 254.477L151.73 181.966L136.226 181.966L136.226 254.477L151.73 254.477Z" fill="#27282D"/>
<path d="M166.402 311.945L166.402 238.061L150.898 238.061L150.898 311.945L166.402 311.945Z" fill="#181818"/>
<path d="M166.402 406.8L166.402 385.218L150.898 385.218L150.898 406.8L166.402 406.8Z" fill="#181818"/>
<path d="M166.402 384.92L166.402 311.035L150.898 311.035L150.898 384.92L166.402 384.92Z" fill="#27282D"/>
<path d="M151.73 328.826L151.73 254.941L136.226 254.941L136.226 328.826L151.73 328.826Z" fill="#27282D"/>
<path d="M151.73 402.098L151.73 328.214L136.226 328.214L136.226 402.098L151.73 402.098Z" fill="#181818"/>
<path d="M106.852 406.809L106.852 332.925L91.3475 332.925L91.3475 406.809L106.852 406.809Z" fill="#27282D"/>
<path d="M106.852 260.266L106.852 186.382L91.3475 186.382L91.3475 260.266L106.852 260.266Z" fill="#27282D"/>
<path d="M106.852 333.23L106.852 259.346L91.3475 259.346L91.3475 333.23L106.852 333.23Z" fill="#2B2727"/>
<path d="M137.027 406.808L137.027 372.602L121.523 372.602L121.523 406.808L137.027 406.808Z" fill="#27282D"/>
<path d="M122.355 389.02L122.355 315.136L106.851 315.136L106.851 389.02L122.355 389.02Z" fill="#181818"/>
<path d="M122.355 241.862L122.355 167.978L106.851 167.978L106.851 241.862L122.355 241.862Z" fill="#181818"/>
<path d="M122.355 316.054L122.355 242.169L106.851 242.169L106.851 316.054L122.355 316.054Z" fill="#27282D"/>
<path d="M137.027 372.148L137.027 298.264L121.523 298.264L121.523 372.148L137.027 372.148Z" fill="#27282D"/>
<path d="M137.027 298.876L137.027 224.991L121.523 224.991L121.523 298.876L137.027 298.876Z" fill="#181818"/>
<path d="M106.852 186.527L106.852 112.643L91.3475 112.643L91.3475 186.527L106.852 186.527Z" fill="#27282D"/>
<path d="M106.852 39.9846L106.852 0L91.3475 -3.43068e-07L91.3475 39.9846L106.852 39.9846Z" fill="#27282D"/>
<path d="M106.852 112.95L106.852 39.0654L91.3475 39.0654L91.3475 112.95L106.852 112.95Z" fill="#2B2727"/>
<path d="M137.027 224.835L137.027 152.323L121.523 152.323L121.523 224.835L137.027 224.835Z" fill="#2B2727"/>
<path d="M122.355 168.748L122.355 94.8633L106.851 94.8633L106.851 168.748L122.355 168.748Z" fill="#181818"/>
<path d="M122.355 95.7732L122.355 21.8887L106.851 21.8887L106.851 95.7732L122.355 95.7732Z" fill="#27282D"/>
<path d="M137.027 151.867L137.027 77.9824L121.523 77.9824L121.523 151.867L137.027 151.867Z" fill="#27282D"/>
<path d="M137.027 78.5955L137.027 4.71094L121.523 4.71094L121.523 78.5955L137.027 78.5955Z" fill="#181818"/>
<path d="M90.5391 73.8846L90.5391 0L75.035 -3.43067e-07L75.035 73.8846L90.5391 73.8846Z" fill="#27282D"/>
<path d="M90.5391 220.428L90.5391 146.543L75.035 146.543L75.035 220.428L90.5391 220.428Z" fill="#27282D"/>
<path d="M90.5391 147.463L90.5391 73.5781L75.035 73.5781L75.035 147.463L90.5391 147.463Z" fill="#2B2727"/>
<path d="M60.3633 34.2062L60.3633 0L44.8592 -3.43068e-07L44.8592 34.2062L60.3633 34.2062Z" fill="#27282D"/>
<path d="M75.0547 91.6736L75.0547 17.7891L59.5507 17.7891L59.5507 91.6736L75.0547 91.6736Z" fill="#181818"/>
<path d="M75.0547 238.831L75.0547 164.946L59.5507 164.946L59.5507 238.831L75.0547 238.831Z" fill="#181818"/>
<path d="M75.0547 164.639L75.0547 90.7549L59.5507 90.7549L59.5507 164.639L75.0547 164.639Z" fill="#27282D"/>
<path d="M60.3633 108.545L60.3633 34.6602L44.8592 34.6602L44.8592 108.545L60.3633 108.545Z" fill="#27282D"/>
<path d="M60.3633 181.807L60.3633 107.933L44.8592 107.933L44.8592 181.807L60.3633 181.807Z" fill="#181818"/>
<path d="M90.5391 294.166L90.5391 220.281L75.035 220.281L75.035 294.166L90.5391 294.166Z" fill="#27282D"/>
<path d="M90.5391 406.809L90.5391 366.824L75.035 366.824L75.035 406.809L90.5391 406.809Z" fill="#27282D"/>
<path d="M90.5391 367.744L90.5391 293.859L75.035 293.859L75.035 367.744L90.5391 367.744Z" fill="#2B2727"/>
<path d="M60.3633 254.477L60.3633 181.966L44.8592 181.966L44.8592 254.477L60.3633 254.477Z" fill="#27282D"/>
<path d="M75.0547 311.945L75.0547 238.061L59.5507 238.061L59.5507 311.945L75.0547 311.945Z" fill="#181818"/>
<path d="M75.0547 406.8L75.0547 385.218L59.5507 385.218L59.5507 406.8L75.0547 406.8Z" fill="#181818"/>
<path d="M75.0547 384.92L75.0547 311.035L59.5507 311.035L59.5507 384.92L75.0547 384.92Z" fill="#27282D"/>
<path d="M60.3633 328.826L60.3633 254.941L44.8592 254.941L44.8592 328.826L60.3633 328.826Z" fill="#27282D"/>
<path d="M60.3633 402.098L60.3633 328.214L44.8592 328.214L44.8592 402.098L60.3633 402.098Z" fill="#181818"/>
<path d="M15.5039 406.809L15.5039 332.925L-0.000144005 332.925L-0.000152523 406.809L15.5039 406.809Z" fill="#27282D"/>
<path d="M15.5039 260.266L15.5039 186.382L-0.000144005 186.382L-0.000152523 260.266L15.5039 260.266Z" fill="#27282D"/>
<path d="M15.5039 333.23L15.5039 259.346L-0.000144005 259.346L-0.000152523 333.23L15.5039 333.23Z" fill="#2B2727"/>
<path d="M45.6797 406.808L45.6797 372.602L30.1757 372.602L30.1757 406.808L45.6797 406.808Z" fill="#27282D"/>
<path d="M30.9883 389.02L30.9883 315.136L15.4842 315.136L15.4842 389.02L30.9883 389.02Z" fill="#181818"/>
<path d="M30.9883 241.862L30.9883 167.978L15.4842 167.978L15.4842 241.862L30.9883 241.862Z" fill="#181818"/>
<path d="M30.9883 316.054L30.9883 242.169L15.4842 242.169L15.4842 316.054L30.9883 316.054Z" fill="#27282D"/>
<path d="M45.6797 372.148L45.6797 298.264L30.1757 298.264L30.1757 372.148L45.6797 372.148Z" fill="#27282D"/>
<path d="M45.6797 298.876L45.6797 224.991L30.1757 224.991L30.1757 298.876L45.6797 298.876Z" fill="#181818"/>
<path d="M15.5039 186.527L15.5039 112.643L-0.000144005 112.643L-0.000152523 186.527L15.5039 186.527Z" fill="#27282D"/>
<path d="M15.5039 39.9846L15.5039 0L-0.000144005 -3.43068e-07L-0.000147411 39.9846L15.5039 39.9846Z" fill="#27282D"/>
<path d="M15.5039 112.95L15.5039 39.0654L-0.000144005 39.0654L-0.000152523 112.95L15.5039 112.95Z" fill="#2B2727"/>
<path d="M45.6797 224.835L45.6797 152.323L30.1757 152.323L30.1757 224.835L45.6797 224.835Z" fill="#2B2727"/>
<path d="M30.9883 168.748L30.9883 94.8633L15.4842 94.8633L15.4842 168.748L30.9883 168.748Z" fill="#181818"/>
<path d="M30.9883 95.7732L30.9883 21.8887L15.4842 21.8887L15.4842 95.7732L30.9883 95.7732Z" fill="#27282D"/>
<path d="M45.6797 151.867L45.6797 77.9824L30.1757 77.9824L30.1757 151.867L45.6797 151.867Z" fill="#27282D"/>
<path d="M45.6797 78.5955L45.6797 4.71094L30.1757 4.71094L30.1757 78.5955L45.6797 78.5955Z" fill="#181818"/>
</g>
<g clip-path="url(#clip1_2396_34665)">
<path d="M-67.7969 -58.4824L-67.7969 845.951H523.858V-58.4824H-67.7969Z" fill="#E3BB8F"/>
</g>
<g clip-path="url(#clip2_2396_34665)">
<g style="mix-blend-mode:multiply" opacity="0.22">
<path d="M437.711 19.5986L282.216 19.5986L282.216 209.7L173.792 209.7L173.792 19.5986L18.2964 19.5986L18.2964 764.353L437.711 764.353L437.711 19.5986ZM173.792 764.082L173.792 573.981L282.216 573.981L282.216 764.082L173.792 764.082Z" fill="#974F1A"/>
</g>
<path d="M439.016 18.292L16.9879 18.292L16.9879 765.66L439.016 765.66L439.016 18.292ZM280.387 576.033C280.387 577.351 280.329 578.687 280.232 580.005L280.387 580.005L280.387 588.489L278.974 588.16C278.354 590.833 277.502 593.468 276.456 595.986L279.632 597.303C279.903 596.625 280.136 595.928 280.387 595.23L280.387 761.96L175.616 761.96L175.616 595.23C175.868 595.947 176.12 596.664 176.41 597.361L179.586 596.044C178.541 593.506 177.688 590.872 177.049 588.218L175.616 588.547L175.616 580.005L175.771 580.005C175.674 578.668 175.616 577.331 175.616 576.014C175.616 575.84 175.616 575.665 175.616 575.491L280.368 575.491C280.368 575.665 280.368 575.84 280.368 576.014L280.387 576.033ZM175.771 572.082C177.553 548.468 195.021 529.155 217.776 524.641C221.146 524.409 224.555 524.234 227.982 524.234C231.41 524.234 234.819 524.389 238.188 524.641C260.944 529.155 278.431 548.448 280.194 572.082L175.752 572.082L175.771 572.082ZM172.324 572.082L172.169 572.082L172.169 586.533L164.868 586.533L164.868 590L172.169 590L172.169 611.018L164.868 611.018L164.868 614.486L172.169 614.486L172.169 635.523L164.868 635.523L164.868 638.99L172.169 638.99L172.169 658.304L164.868 658.304L164.868 665.181L172.169 665.181L172.169 762.251L83.1815 762.251L83.1815 669.094C83.1815 598.078 134.541 538.898 202.051 526.617C185.396 535.392 173.718 552.342 172.324 572.082ZM283.815 665.181L290.283 665.181L290.283 658.304L283.815 658.304L283.815 638.99L290.283 638.99L290.283 635.523L283.815 635.523L283.815 614.486L290.283 614.486L290.283 611.018L283.815 611.018L283.815 590L290.283 590L290.283 586.533L283.815 586.533L283.815 572.082L283.66 572.082C282.266 552.342 270.569 535.392 253.933 526.617C321.444 538.879 372.803 598.078 372.803 669.094L372.803 762.251L283.815 762.251L283.815 665.181ZM132.972 390.184C133.94 338.598 176.178 296.911 227.982 296.911C279.787 296.911 322.025 338.598 322.993 390.184L132.972 390.184ZM322.993 393.787C322.025 445.393 279.787 487.06 227.982 487.06C176.178 487.06 133.94 445.373 132.972 393.787L323.012 393.787L322.993 393.787ZM372.803 21.7207L372.803 114.607C372.803 185.622 321.444 244.821 253.933 257.083C270.588 248.308 282.266 231.358 283.66 211.619L283.815 211.619L283.815 197.167L290.283 197.167L290.283 193.7L283.815 193.7L283.815 172.682L290.283 172.682L290.283 169.215L283.815 169.215L283.815 148.177L290.283 148.177L290.283 144.71L283.815 144.71L283.815 125.396L290.283 125.396L290.283 118.52L283.815 118.52L283.815 21.7207L372.803 21.7207ZM175.616 207.647C175.616 206.33 175.674 204.994 175.771 203.676L175.616 203.676L175.616 195.114L177.049 195.443C177.688 192.77 178.541 190.136 179.586 187.617L176.41 186.3C176.12 186.997 175.887 187.714 175.616 188.431L175.616 21.7207L280.387 21.7207L280.387 188.45C280.136 187.772 279.903 187.075 279.632 186.397L276.456 187.695C277.502 190.233 278.354 192.867 278.974 195.54L280.387 195.192L280.387 203.657L280.232 203.657C280.329 204.994 280.387 206.33 280.387 207.647C280.387 207.822 280.387 207.996 280.387 208.17L175.636 208.17C175.636 207.996 175.636 207.822 175.636 207.647L175.616 207.647ZM280.232 211.599C278.451 235.213 260.982 254.526 238.227 259.04C234.857 259.272 231.449 259.447 228.021 259.447C224.593 259.447 221.185 259.272 217.815 259.04C195.06 254.526 177.572 235.232 175.81 211.599L280.252 211.599L280.232 211.599ZM172.188 118.52L164.887 118.52L164.887 125.396L172.188 125.396L172.188 144.71L164.887 144.71L164.887 148.177L172.188 148.177L172.188 169.215L164.887 169.215L164.887 172.682L172.188 172.682L172.188 193.7L164.887 193.7L164.887 197.167L172.188 197.167L172.188 211.619L172.343 211.619C173.738 231.358 185.416 248.308 202.07 257.083C134.56 244.821 83.2009 185.622 83.2009 114.607L83.2009 21.7207L172.188 21.7207L172.188 118.52ZM79.7537 21.7207L79.7537 114.607C79.7537 192.79 140.563 256.986 217.35 262.468C220.798 263.146 224.361 263.495 228.002 263.495C231.643 263.495 235.206 263.127 238.653 262.468C315.44 256.986 376.25 192.79 376.25 114.607L376.25 21.7207L435.588 21.7207L435.588 390.165L326.459 390.165C325.491 336.661 281.704 293.443 228.002 293.443C174.299 293.443 130.512 336.661 129.544 390.165L20.4157 390.165L20.4157 21.7207L79.7537 21.7207ZM20.4157 393.768L129.544 393.768C130.512 447.272 174.299 490.489 228.002 490.489C281.704 490.489 325.491 447.272 326.459 393.768L435.588 393.768L435.588 762.212L376.25 762.212L376.25 669.055C376.25 590.872 315.44 526.675 238.653 521.193C235.206 520.534 231.643 520.166 228.002 520.166C224.361 520.166 220.798 520.534 217.35 521.193C140.563 526.675 79.7537 590.872 79.7537 669.055L79.7537 762.212L20.4157 762.212L20.4157 393.787L20.4157 393.768Z" fill="#27282D"/>
</g>
</g>
<defs>
<clipPath id="clip0_2396_34665">
<rect width="455.999" height="407" rx="8" fill="white"/>
</clipPath>
<clipPath id="clip1_2396_34665">
<rect width="591.655" height="904.433" fill="white" transform="translate(-67.7969 -58.4951)"/>
</clipPath>
<clipPath id="clip2_2396_34665">
<rect x="452.078" y="5.22656" width="388.056" height="448.159" rx="7.83952" transform="rotate(90 452.078 5.22656)" fill="white"/>
</clipPath>
</defs>
</svg>
