<svg width="18" height="21" viewBox="0 0 18 21" fill="none" xmlns="http://www.w3.org/2000/svg">
<g clip-path="url(#clip0_3686_109026)">
<path d="M15.5454 1.29709L8.13189 0.0445859C7.74015 -0.0229141 7.34841 -0.0154141 6.95667 0.0670859L3.9558 0.674586C3.83754 0.697086 3.72667 0.712086 3.60841 0.712086H0.903193C0.496671 0.704586 0.164062 1.04209 0.164062 1.45459V5.95459C0.164062 6.36709 0.496671 6.70459 0.903193 6.70459H2.07841C2.55145 6.70459 3.00232 6.89209 3.34232 7.23709C3.9558 7.85959 4.77624 8.20459 5.64841 8.20459H9.04102C9.29972 8.20459 9.55102 8.15209 9.78015 8.06959V9.87709C9.55102 9.79459 9.29972 9.74959 9.04102 9.74959C7.82145 9.74959 6.82363 10.7621 6.82363 11.9996V15.4421C6.82363 16.3271 7.16363 17.1596 7.77711 17.7821C8.11711 18.1271 8.30189 18.5771 8.30189 19.0646V20.2571C8.30189 20.6696 8.6345 21.0071 9.04102 21.0071H13.4758C13.8823 21.0071 14.2149 20.6696 14.2149 20.2571V17.5121C14.2149 17.3921 14.2297 17.2721 14.2519 17.1596L14.8506 14.1221C14.9319 13.7246 14.9319 13.3271 14.8728 12.9296L13.6384 5.40709C13.631 5.33959 13.6088 5.27959 13.5941 5.21959H15.2423C16.3141 5.21959 17.1788 4.33459 17.1788 3.25459C17.1788 2.28709 16.4988 1.46959 15.5602 1.31209L15.5454 1.29709ZM13.3945 13.8146L12.7958 16.8596C12.7515 17.0771 12.7293 17.2946 12.7293 17.5046V19.4996H9.77276V19.0571C9.77276 18.1721 9.43276 17.3396 8.81928 16.7171C8.47928 16.3721 8.2945 15.9221 8.2945 15.4346V11.9921C8.2945 11.5796 8.62711 11.2421 9.03363 11.2421C9.44015 11.2421 9.77276 11.5796 9.77276 11.9921V14.9921C9.77276 15.4046 10.1054 15.7421 10.5119 15.7421C10.9184 15.7421 11.251 15.4046 11.251 14.9921V5.71459C11.251 5.45959 11.458 5.24959 11.7093 5.24959C11.9384 5.24959 12.1306 5.41459 12.1675 5.63959L13.4019 13.1546C13.4388 13.3721 13.4315 13.5896 13.3945 13.8071V13.8146ZM15.2275 3.71209H6.07711C5.67058 3.71209 5.33798 4.04959 5.33798 4.46209C5.33798 4.87459 5.67058 5.21209 6.07711 5.21209H9.03363C9.44015 5.21209 9.77276 5.54959 9.77276 5.96209C9.77276 6.37459 9.44015 6.71209 9.03363 6.71209H5.64102C5.16798 6.71209 4.71711 6.52459 4.37711 6.17959C3.76363 5.55709 2.94319 5.21209 2.07102 5.21209H1.63493V2.20459H3.60102C3.81537 2.20459 4.02972 2.18209 4.24406 2.13709L7.24493 1.52959C7.45928 1.48459 7.67363 1.48459 7.88798 1.52209L15.2941 2.77459C15.5158 2.81209 15.6784 3.00709 15.6784 3.23959C15.6784 3.49459 15.4715 3.70459 15.2202 3.70459L15.2275 3.71209Z" fill="white"/>
</g>
<defs>
<clipPath id="clip0_3686_109026">
<rect width="17" height="21" fill="white" transform="translate(0.164062)"/>
</clipPath>
</defs>
</svg>
