<svg width="26" height="25" viewBox="0 0 26 25" fill="none" xmlns="http://www.w3.org/2000/svg">
<path d="M22.4848 3.33301H5.01518C3.625 3.33301 2.5 4.36466 2.5 5.63949V15.7644C2.5 17.0393 3.625 18.0709 5.01518 18.0709H8.52679L8.93661 21.8291C8.98482 22.2344 9.37857 22.5292 9.8125 22.4923C10.2545 22.4481 10.5759 22.0944 10.5357 21.6891L10.4634 21.0259H12.9464V21.7628C12.9464 22.1681 13.308 22.4997 13.75 22.4997C14.192 22.4997 14.5536 22.1681 14.5536 21.7628V21.0259H17.0366L16.9643 21.6891C16.9241 22.0944 17.2455 22.4555 17.6875 22.4923C17.7116 22.4923 17.7437 22.4923 17.7679 22.4923C18.1777 22.4923 18.5232 22.2123 18.5634 21.8291L18.9732 18.0709H22.4848C23.875 18.0709 25 17.0393 25 15.7644V5.63949C25 4.36466 23.875 3.33301 22.4848 3.33301ZM10.2946 19.5447L10.1339 18.0709H12.9384V19.5447H10.2946ZM9.8125 15.1233H12.9464V16.5971H9.97321L9.8125 15.1233ZM17.6795 15.1233L17.5188 16.5971H14.5455V15.1233H17.6795ZM17.1973 19.5447H14.5536V18.0709H17.358L17.1973 19.5447ZM23.3929 15.7644C23.3929 16.2213 22.983 16.5971 22.4848 16.5971H19.1339L19.2946 15.1233H19.367C19.8089 15.1233 20.1705 14.7917 20.1705 14.3864C20.1705 13.9812 19.8089 13.6496 19.367 13.6496H8.125C7.68304 13.6496 7.32143 13.9812 7.32143 14.3864C7.32143 14.7917 7.68304 15.1233 8.125 15.1233H8.19732L8.35804 16.5971H5.01518C4.51696 16.5971 4.10714 16.2213 4.10714 15.7644V5.63949C4.10714 5.18262 4.51696 4.8068 5.01518 4.8068H22.4848C22.983 4.8068 23.3929 5.18262 23.3929 5.63949V15.7644Z" fill="white"/>
<path d="M16.7219 6.66699H10.7755C9.43006 6.66699 8.33203 7.70241 8.33203 8.97116V11.7712C8.33203 12.1722 8.68 12.5003 9.10529 12.5003C9.53058 12.5003 9.87855 12.1722 9.87855 11.7712V8.97116C9.87855 8.50449 10.2806 8.12533 10.7755 8.12533H16.7219C17.2168 8.12533 17.6188 8.50449 17.6188 8.97116V11.7712C17.6188 12.1722 17.9668 12.5003 18.3921 12.5003C18.8174 12.5003 19.1654 12.1722 19.1654 11.7712V8.97116C19.1654 7.70241 18.0673 6.66699 16.7219 6.66699Z" fill="white"/>
</svg>
