<svg width="23" height="22" viewBox="0 0 23 22" fill="none" xmlns="http://www.w3.org/2000/svg">
<g clip-path="url(#clip0_3686_141815)">
<path d="M19.8999 2.45115C16.4887 -0.872424 11.0025 -0.80171 7.66986 2.60829C4.33724 6.01829 4.41584 11.5026 7.82706 14.8261C9.45407 16.4133 11.592 17.2776 13.8556 17.2776C13.8949 17.2776 13.9342 17.2776 13.9735 17.2776C16.2844 17.2461 18.4459 16.319 20.0571 14.669C23.3819 11.259 23.3112 5.77472 19.8999 2.44329V2.45115ZM19.4441 12.9797L17.1804 10.7719C18.5402 9.68758 20.0021 9.39686 20.8903 9.34186C20.7645 10.6383 20.2772 11.9033 19.4441 12.9797ZM6.84457 9.499C9.12395 9.38115 10.7824 8.33615 11.6706 7.60543L12.7474 8.65043L8.39298 13.1211C7.52052 12.0604 7.00177 10.7954 6.84457 9.499ZM8.27508 4.29758L10.5387 6.50543C9.80777 7.08686 8.5266 7.82543 6.82099 7.92758C6.94675 6.639 7.43406 5.374 8.26722 4.29758H8.27508ZM14.5473 1.60258C15.8442 1.72829 17.1175 2.21543 18.1943 3.05615L13.8399 7.52686L12.771 6.48186C14.2015 4.69043 14.508 2.734 14.5473 1.60258ZM11.6313 5.374L9.36761 3.16615C10.4208 2.30186 11.6784 1.78329 12.9675 1.62615C12.9282 2.514 12.6767 3.99115 11.6313 5.374ZM13.8635 9.74258L14.9325 10.7876C14.2172 11.699 13.2033 13.3883 13.1482 15.6747C11.8121 15.5569 10.5623 15.0383 9.50123 14.2133L13.8556 9.74258H13.8635ZM16.0643 11.8876L18.328 14.0954C17.2983 14.944 16.0564 15.4783 14.736 15.6433C14.7988 13.9383 15.5062 12.634 16.0643 11.8876ZM16.025 9.65615L14.956 8.61115L19.3104 4.14043C20.1829 5.20115 20.6938 6.45829 20.8589 7.74686C19.727 7.81758 17.7778 8.17115 16.025 9.64829V9.65615Z" fill="white"/>
<path d="M6.56199 15.9417C6.25545 15.6353 5.76027 15.6353 5.45373 15.9417L0.729904 20.656C0.423365 20.9624 0.423365 21.4574 0.729904 21.7639C0.887103 21.921 1.0836 21.9917 1.28796 21.9917C1.49232 21.9917 1.68882 21.9132 1.84602 21.7639L6.56199 17.0496C6.86852 16.7432 6.86852 16.2482 6.56199 15.9417Z" fill="white"/>
<path d="M2.06916 17.286C2.27352 17.286 2.47002 17.2074 2.62722 17.0581L4.9852 14.701C5.29174 14.3945 5.29174 13.8995 4.9852 13.5931C4.67867 13.2867 4.18349 13.2867 3.87695 13.5931L1.51897 15.9502C1.21243 16.2567 1.21243 16.7517 1.51897 17.0581C1.67617 17.2152 1.87266 17.286 2.07702 17.286H2.06916Z" fill="white"/>
<path d="M7.79883 17.514L5.44084 19.8711C5.1343 20.1776 5.1343 20.6726 5.44084 20.979C5.59804 21.1361 5.79454 21.2069 5.9989 21.2069C6.20326 21.2069 6.39975 21.1283 6.55695 20.979L8.91494 18.6219C9.22148 18.3154 9.22148 17.8204 8.91494 17.514C8.6084 17.2076 8.11322 17.2076 7.80669 17.514H7.79883Z" fill="white"/>
<rect x="17.5" y="1" width="4" height="4" fill="white"/>
<path d="M17.6508 6C17.2836 6 16.9995 5.90046 16.7985 5.70139C16.5995 5.50231 16.5 5.22011 16.5 4.8548V1.1452C16.5 0.779887 16.5995 0.497691 16.7985 0.298615C16.9995 0.0995382 17.2836 0 17.6508 0H21.3492C21.7164 0 21.9995 0.0995382 22.1985 0.298615C22.3995 0.497691 22.5 0.779887 22.5 1.1452V4.8548C22.5 5.22011 22.3995 5.50231 22.1985 5.70139C21.9995 5.90046 21.7164 6 21.3492 6H17.6508ZM18.5954 4.33453C18.7185 4.33453 18.82 4.29348 18.9 4.21139L19.5308 3.58338L20.1677 4.21139C20.2456 4.29348 20.3451 4.33453 20.4662 4.33453C20.581 4.33453 20.6774 4.29554 20.7554 4.21755C20.8333 4.13751 20.8723 4.04002 20.8723 3.92509C20.8723 3.81632 20.8313 3.72293 20.7492 3.64495L20.1092 3.00154L20.7492 2.35813C20.8313 2.27809 20.8723 2.18471 20.8723 2.07799C20.8723 1.96101 20.8333 1.86455 20.7554 1.78861C20.6795 1.71062 20.5841 1.67163 20.4692 1.67163C20.3482 1.67163 20.2487 1.71062 20.1708 1.78861L19.5308 2.42278L18.8969 1.79169C18.8149 1.71165 18.7144 1.67163 18.5954 1.67163C18.4826 1.67163 18.3872 1.71062 18.3092 1.78861C18.2313 1.8666 18.1923 1.96306 18.1923 2.07799C18.1923 2.18471 18.2323 2.27809 18.3123 2.35813L18.9554 3.00154L18.3123 3.64802C18.2323 3.72396 18.1923 3.81632 18.1923 3.92509C18.1923 4.04002 18.2313 4.13751 18.3092 4.21755C18.3872 4.29554 18.4826 4.33453 18.5954 4.33453Z" fill="#DE173E"/>
</g>
<defs>
<clipPath id="clip0_3686_141815">
<rect width="22" height="22" fill="white" transform="translate(0.5)"/>
</clipPath>
</defs>
</svg>
