<svg width="19" height="19" viewBox="0 0 19 19" fill="none" xmlns="http://www.w3.org/2000/svg">
<path d="M11.3143 17.8682H5.0707C3.62867 17.8682 2.45557 16.6951 2.45557 15.2531V6.3943C2.45557 4.95227 3.62867 3.77917 5.0707 3.77917H11.3143C12.7564 3.77917 13.9295 4.95227 13.9295 6.3943V15.2531C13.9295 16.6951 12.7564 17.8682 11.3143 17.8682ZM5.0707 5.08673C4.34975 5.08673 3.76313 5.67335 3.76313 6.3943V15.2531C3.76313 15.974 4.34975 16.5606 5.0707 16.5606H11.3143C12.0353 16.5606 12.6219 15.974 12.6219 15.2531V6.3943C12.6219 5.67335 12.0353 5.08673 11.3143 5.08673H5.0707ZM16.5446 13.6186V3.74648C16.5446 2.30445 15.3715 1.13135 13.9295 1.13135H6.67247C6.31135 1.13135 6.01868 1.42402 6.01868 1.78513C6.01868 2.14624 6.31135 2.43891 6.67247 2.43891H13.9295C14.6504 2.43891 15.237 3.02553 15.237 3.74648V13.6186C15.237 13.9797 15.5297 14.2724 15.8908 14.2724C16.2519 14.2724 16.5446 13.9797 16.5446 13.6186Z" fill="#FCFCFC"/>
</svg>
