<svg width="18" height="18" viewBox="0 0 18 18" fill="none" xmlns="http://www.w3.org/2000/svg">
<g clip-path="url(#clip0_11224_20862)">
<path d="M14 18H3.99999C2.93162 18 1.92714 17.5839 1.17159 16.8284C0.416078 16.0729 0 15.0684 0 14V12.9999C0 12.4476 0.447692 11.9999 1.00001 11.9999C1.55232 11.9999 2.00001 12.4476 2.00001 12.9999V14C2.00001 14.5342 2.20807 15.0364 2.58576 15.4141C2.96355 15.7919 3.46577 16 3.99999 16H14C14.5342 16 15.0364 15.7919 15.4141 15.4141C15.7919 15.0363 16 14.5341 16 14V12.9999C16 12.4476 16.4477 11.9999 17 11.9999C17.5522 11.9999 18 12.4476 18 12.9999V14C18 15.0683 17.5839 16.0728 16.8284 16.8284C16.0728 17.5839 15.0683 18 14 18ZM8.99998 13.9999C8.86165 13.9999 8.72996 13.9719 8.61014 13.9211C8.49835 13.8739 8.39331 13.8053 8.30141 13.7155C8.30137 13.7155 8.30137 13.7155 8.30134 13.7155C8.30067 13.7148 8.30001 13.7142 8.29935 13.7135C8.29917 13.7134 8.29896 13.7131 8.29879 13.7129C8.29823 13.7124 8.29774 13.7119 8.29721 13.7114C8.29687 13.7111 8.29655 13.7108 8.2962 13.7104C8.29585 13.71 8.2954 13.7096 8.29508 13.7093C8.29439 13.7086 8.29362 13.7078 8.29292 13.7071L4.2929 9.70708C3.90239 9.31657 3.90239 8.68339 4.2929 8.29285C4.6834 7.90234 5.31662 7.90231 5.70713 8.29285L8.00001 10.5857V1.00001C7.99998 0.447692 8.44767 0 8.99998 0C9.5523 0 10 0.447692 10 1.00001V10.5857L12.2929 8.29285C12.6833 7.90234 13.3166 7.90234 13.7071 8.29285C14.0976 8.68336 14.0976 9.31657 13.7071 9.70708L9.70708 13.7071C9.70638 13.7078 9.70561 13.7085 9.70492 13.7092C9.70453 13.7096 9.70411 13.71 9.7038 13.7103C9.70345 13.7107 9.70313 13.711 9.70278 13.7113C9.7023 13.7119 9.70174 13.7124 9.70125 13.7129C9.70107 13.713 9.70083 13.7133 9.70065 13.7134C9.70002 13.7141 9.69936 13.7148 9.6987 13.7154C9.69866 13.7154 9.69866 13.7154 9.69863 13.7155C9.68762 13.7262 9.67648 13.7366 9.66509 13.7467C9.58136 13.8214 9.48809 13.8796 9.38948 13.9212C9.38913 13.9213 9.38885 13.9215 9.3885 13.9216C9.38811 13.9218 9.3878 13.922 9.38742 13.9221C9.26823 13.9723 9.13737 13.9999 8.99998 13.9999Z" fill="#1D2023"/>
</g>
<defs>
<clipPath id="clip0_11224_20862">
<rect width="18" height="18" fill="white"/>
</clipPath>
</defs>
</svg>
