<svg width="34" height="34" viewBox="0 0 34 34" fill="none" xmlns="http://www.w3.org/2000/svg">
<g filter="url(#filter0_d_19820_119974)">
<path d="M17.7941 25.6674H16.31C16.2457 25.6535 16.1828 25.6311 16.1185 25.6269C14.1369 25.4872 12.2824 24.9199 10.5914 23.8846C7.31014 21.8739 5.28936 18.9747 4.58084 15.1826C4.49279 14.7075 4.44807 14.2254 4.38379 13.7462C4.38379 13.2516 4.38379 12.7569 4.38379 12.2623C4.39916 12.1743 4.41733 12.0877 4.42991 11.9996C4.50956 11.4547 4.55428 10.9014 4.67167 10.3649C5.33269 7.32307 6.89508 4.83179 9.37284 2.9553C12.4557 0.619114 15.9271 -0.154958 19.7115 0.634483C22.7412 1.26604 25.205 2.8533 27.0888 5.30266C29.1236 7.94624 29.9705 10.9573 29.6518 14.2716C29.3933 16.957 28.3508 19.3268 26.562 21.3514C24.5999 23.5702 22.1557 24.9521 19.2349 25.4718C18.7584 25.5571 18.2749 25.6046 17.7941 25.6688V25.6674Z" fill="#05AF0B"/>
<path d="M14.926 15.5412C14.9986 15.4727 15.0643 15.4127 15.1272 15.3498C17.4428 13.0359 19.7571 10.7221 22.0727 8.40829C22.5786 7.90248 23.1628 7.79909 23.7064 8.11207C24.3982 8.51028 24.5631 9.4143 24.053 10.0277C23.9901 10.1031 23.9202 10.1744 23.8503 10.2443C21.2286 12.8459 18.607 15.4476 15.9853 18.0492C15.3522 18.6766 14.687 18.6878 14.0246 18.0842C12.6648 16.8462 11.3065 15.6069 9.94529 14.3717C9.59452 14.0531 9.39887 13.6745 9.45617 13.191C9.57076 12.2381 10.6664 11.7631 11.4182 12.3653C11.9381 12.7816 12.4147 13.2525 12.908 13.7024C13.5355 14.2739 14.1601 14.8496 14.7862 15.4224C14.8281 15.4602 14.8729 15.4965 14.9246 15.5412H14.926Z" fill="#1D2023"/>
</g>
<defs>
<filter id="filter0_d_19820_119974" x="0.383789" y="0.33551" width="33.333" height="33.3333" filterUnits="userSpaceOnUse" color-interpolation-filters="sRGB">
<feFlood flood-opacity="0" result="BackgroundImageFix"/>
<feColorMatrix in="SourceAlpha" type="matrix" values="0 0 0 0 0 0 0 0 0 0 0 0 0 0 0 0 0 0 127 0" result="hardAlpha"/>
<feOffset dy="4"/>
<feGaussianBlur stdDeviation="2"/>
<feComposite in2="hardAlpha" operator="out"/>
<feColorMatrix type="matrix" values="0 0 0 0 0 0 0 0 0 0 0 0 0 0 0 0 0 0 0.25 0"/>
<feBlend mode="normal" in2="BackgroundImageFix" result="effect1_dropShadow_19820_119974"/>
<feBlend mode="normal" in="SourceGraphic" in2="effect1_dropShadow_19820_119974" result="shape"/>
</filter>
</defs>
</svg>
