<svg width="24" height="24" viewBox="0 0 24 24" fill="none" xmlns="http://www.w3.org/2000/svg">
<g id="close2" clip-path="url(#clip0_2826_152134)">
<g id="&#229;&#155;&#190;&#230;&#160;&#135;&#233;&#162;&#156;&#232;&#137;&#178;">
<mask id="path-1-outside-1_2826_152134" maskUnits="userSpaceOnUse" x="0" y="0" width="24" height="24" fill="black">
<rect fill="white" width="24" height="24"/>
<path fill-rule="evenodd" clip-rule="evenodd" d="M12 22C6.47715 22 2 17.5228 2 12C2 6.47715 6.47715 2 12 2C17.5228 2 22 6.47715 22 12C22 17.5228 17.5228 22 12 22Z"/>
</mask>
<path fill-rule="evenodd" clip-rule="evenodd" d="M12 22C6.47715 22 2 17.5228 2 12C2 6.47715 6.47715 2 12 2C17.5228 2 22 6.47715 22 12C22 17.5228 17.5228 22 12 22Z" fill="#333333"/>
<path d="M12 20C7.58172 20 4 16.4183 4 12H0C0 18.6274 5.37258 24 12 24V20ZM4 12C4 7.58172 7.58172 4 12 4V0C5.37258 0 0 5.37258 0 12H4ZM12 4C16.4183 4 20 7.58172 20 12H24C24 5.37258 18.6274 0 12 0V4ZM20 12C20 16.4183 16.4183 20 12 20V24C18.6274 24 24 18.6274 24 12H20Z" fill="#333333" mask="url(#path-1-outside-1_2826_152134)"/>
</g>
<g id="Group 38412">
<path id="Union" fill-rule="evenodd" clip-rule="evenodd" d="M16.3476 7.65198C15.9874 7.29179 15.4035 7.29179 15.0433 7.65198L11.9999 10.6954L8.95651 7.65198C8.59632 7.29179 8.01235 7.29179 7.65216 7.65198C7.29197 8.01216 7.29197 8.59614 7.65216 8.95632L10.6955 11.9997L7.65198 15.0433C7.29179 15.4035 7.29179 15.9874 7.65198 16.3476C8.01216 16.7078 8.59614 16.7078 8.95632 16.3476L11.9999 13.3041L15.0435 16.3476C15.4036 16.7078 15.9876 16.7078 16.3478 16.3476C16.708 15.9874 16.708 15.4035 16.3478 15.0433L13.3042 11.9997L16.3476 8.95632C16.7078 8.59614 16.7078 8.01216 16.3476 7.65198Z" fill="white"/>
</g>
</g>
<defs>
<clipPath id="clip0_2826_152134">
<rect width="24" height="24" fill="white"/>
</clipPath>
</defs>
</svg>
