<svg width="12" height="13" viewBox="0 0 12 13" fill="none" xmlns="http://www.w3.org/2000/svg">
<g id="Layer_1" clip-path="url(#clip0_11518_214296)">
<g id="Layer 2">
<path id="Vector" d="M0.559152 2.79688H1.39621V10.7969C1.39856 11.5554 2.05669 12.1697 2.86942 12.1719H9.14732C9.95351 12.1611 10.6017 11.5493 10.6038 10.7969V2.79688H11.4408C11.6721 2.79688 11.8594 2.62207 11.8594 2.40625C11.8594 2.19043 11.6721 2.01562 11.4408 2.01562H0.559152C0.327916 2.01562 0.140625 2.19043 0.140625 2.40625C0.140625 2.62207 0.327916 2.79688 0.559152 2.79688ZM9.76674 2.79688V10.7969C9.76674 11.1248 9.48188 11.3906 9.13058 11.3906H2.85268C2.50792 11.3821 2.23326 11.1189 2.23326 10.7969V2.79688H9.76674Z" fill="white"/>
<path id="Vector_2" d="M4.32624 1.23438H7.67446C7.90569 1.23438 8.09298 1.05957 8.09298 0.84375C8.09298 0.62793 7.90569 0.453125 7.67446 0.453125H4.32624C4.09501 0.453125 3.90771 0.62793 3.90771 0.84375C3.90771 1.05957 4.09501 1.23438 4.32624 1.23438Z" fill="white"/>
<path id="Vector_3" d="M4.61042 9.82812C4.84166 9.82812 5.02895 9.65332 5.02895 9.4375V4.75C5.02895 4.53418 4.84166 4.35938 4.61042 4.35938C4.37919 4.35938 4.19189 4.53418 4.19189 4.75V9.4375C4.19189 9.65332 4.37919 9.82812 4.61042 9.82812Z" fill="white"/>
<path id="Vector_4" d="M7.38972 9.82812C7.62095 9.82812 7.80824 9.65332 7.80824 9.4375V4.75C7.80824 4.53418 7.62095 4.35938 7.38972 4.35938C7.15848 4.35938 6.97119 4.53418 6.97119 4.75V9.4375C6.97119 9.65332 7.15848 9.82812 7.38972 9.82812Z" fill="white"/>
</g>
</g>
<defs>
<clipPath id="clip0_11518_214296">
<rect width="11.7188" height="11.7188" fill="white" transform="translate(0.140625 0.453125)"/>
</clipPath>
</defs>
</svg>
