<svg width="35" height="39" viewBox="0 0 35 39" fill="none" xmlns="http://www.w3.org/2000/svg">
<g id="Group 25">
<g id="Group 5">
<path id="Union" fill-rule="evenodd" clip-rule="evenodd" d="M7.5 0C3.35786 0 0 3.35787 0 7.5V31.5C0 35.6421 3.35786 39 7.5 39H27.5C31.6421 39 35 35.6421 35 31.5V7.5C35 3.35786 31.6421 0 27.5 0H7.5ZM24.0354 3H7.5C5.01472 3 3 5.01472 3 7.5V31.5C3 33.9853 5.01472 36 7.5 36H27.5C29.9853 36 32 33.9853 32 31.5V12.9646C31.8367 12.9879 31.6698 13 31.5 13H27.5C25.567 13 24 11.433 24 9.5V3.5C24 3.33024 24.0121 3.1633 24.0354 3ZM32 9.5V7.5C32 5.01472 29.9853 3 27.5 3C27.2239 3 27 3.22386 27 3.5V9.5C27 9.77614 27.2239 10 27.5 10H31.5C31.7761 10 32 9.77614 32 9.5Z" fill="#DE173E"/>
</g>
<g id="PDF">
<path d="M9.07912 18C10.3231 18 11.2308 18.2782 11.8022 18.8345C12.3736 19.3862 12.6593 20.1477 12.6593 21.119C12.6593 21.5568 12.5956 21.9763 12.4681 22.3776C12.3407 22.7743 12.1319 23.1277 11.8418 23.4378C11.556 23.7478 11.1736 23.9941 10.6945 24.1765C10.2154 24.3543 9.62418 24.4432 8.92088 24.4432H8.04396V28H6V18H9.07912ZM8.97363 19.7373H8.04396V22.7059H8.71648C9.0989 22.7059 9.43077 22.6534 9.71209 22.5486C9.99341 22.4437 10.211 22.2795 10.3648 22.0561C10.5187 21.8326 10.5956 21.5454 10.5956 21.1943C10.5956 20.7018 10.4637 20.337 10.2 20.0999C9.93626 19.8582 9.52747 19.7373 8.97363 19.7373Z" fill="#DE173E"/>
<path d="M22.4769 22.9042C22.4769 24.0306 22.2681 24.9722 21.8505 25.7291C21.4374 26.4815 20.8374 27.0492 20.0505 27.4323C19.2637 27.8108 18.3165 28 17.2088 28H14.4791V18H17.5055C18.5165 18 19.3934 18.187 20.1363 18.5609C20.8791 18.9302 21.4549 19.4797 21.8637 20.2093C22.2725 20.9343 22.4769 21.8326 22.4769 22.9042ZM20.3538 22.959C20.3538 22.2202 20.2484 21.6138 20.0374 21.1395C19.8308 20.6607 19.5231 20.3073 19.1143 20.0793C18.7099 19.8513 18.2088 19.7373 17.611 19.7373H16.5231V26.249H17.4C18.3978 26.249 19.1385 25.9731 19.622 25.4213C20.1099 24.8696 20.3538 24.0488 20.3538 22.959Z" fill="#DE173E"/>
<path d="M26.4857 28H24.4747V18H30V19.7373H26.4857V22.316H29.756V24.0465H26.4857V28Z" fill="#DE173E"/>
</g>
</g>
</svg>
