<svg width="22" height="22" viewBox="0 0 22 22" fill="none" xmlns="http://www.w3.org/2000/svg">
<g id="fi_7613822">
<path id="Vector" d="M11 19C12.4971 19 13.8538 18.6491 15.0702 17.9474C16.2982 17.2456 17.2573 16.2865 17.9474 15.0702C18.6491 13.8421 19 12.4854 19 11C19 9.5029 18.6491 8.1462 17.9474 6.92982C17.2573 5.70175 16.2982 4.74269 15.0702 4.05263C13.8538 3.35088 12.4971 3 11 3C9.5146 3 8.15789 3.35088 6.92982 4.05263C5.71345 4.74269 4.75439 5.70175 4.05263 6.92982C3.35088 8.1462 3 9.5029 3 11C3 12.4854 3.35088 13.8421 4.05263 15.0702C4.75439 16.2865 5.71345 17.2456 6.92982 17.9474C8.15789 18.6491 9.5146 19 11 19ZM11 21C9.1988 21 7.52632 20.5556 5.98246 19.6667C4.45029 18.7661 3.23392 17.5497 2.33333 16.0175C1.44444 14.4737 1 12.8012 1 11C1 9.1871 1.44444 7.51462 2.33333 5.98246C3.23392 4.45029 4.45029 3.23977 5.98246 2.35088C7.52632 1.45029 9.1988 1 11 1C12.8129 1 14.4854 1.45029 16.0175 2.35088C17.5497 3.23977 18.7602 4.45614 19.6491 6C20.5497 7.53216 21 9.1988 21 11C21 12.8012 20.5497 14.4737 19.6491 16.0175C18.7602 17.5497 17.5439 18.7661 16 19.6667C14.4678 20.5556 12.8012 21 11 21Z" fill="#333333"/>
</g>
</svg>
