<svg width="56" height="55" viewBox="0 0 56 55" fill="none" xmlns="http://www.w3.org/2000/svg">
<g id="fi_3121581" clip-path="url(#clip0_6201_200044)">
<g id="Group">
<path id="Vector" d="M6.94531 19.3359V14.502C6.94531 13.6113 7.66601 12.8906 8.55664 12.8906H47.4434C48.334 12.8906 49.0547 13.6113 49.0547 14.502V19.3359H55.5V11.2793C55.5 8.61373 53.3316 6.44531 50.666 6.44531H23.0055C22.2565 2.77267 18.9992 0 15.1094 0H5.33398C2.66842 0 0.5 2.16842 0.5 4.83398V19.3359H6.94531Z" fill="white"/>
<path id="Vector_2" d="M10.168 16.1094H45.832V19.332H10.168V16.1094Z" fill="white"/>
<path id="Vector_3" d="M0.5 22.7734V50.166C0.5 52.8316 2.66842 55 5.33398 55H50.666C53.3316 55 55.5 52.8316 55.5 50.166V22.7734H0.5ZM20.4155 34.5249L26.8589 28.0815C27.4808 27.4578 28.5095 27.448 29.1414 28.0815L35.5847 34.5249C36.2141 35.1542 36.2141 36.174 35.5847 36.8034C34.9554 37.4328 33.9357 37.4329 33.3062 36.8034L29.6113 33.1086V42.1094C29.6113 43 28.8906 43.7207 28 43.7207C27.1094 43.7207 26.3887 43 26.3887 42.1094V33.1086L22.6939 36.8034C22.0645 37.4328 21.0448 37.4328 20.4154 36.8034C19.786 36.174 19.786 35.1542 20.4155 34.5249ZM39.2793 48.5547C39.2793 49.4453 38.5586 50.166 37.668 50.166H18.332C17.4414 50.166 16.7207 49.4453 16.7207 48.5547V45.332C16.7207 44.4414 17.4414 43.7207 18.332 43.7207C19.2227 43.7207 19.9434 44.4414 19.9434 45.332V46.9434H36.0566V45.332C36.0566 44.4414 36.7773 43.7207 37.668 43.7207C38.5586 43.7207 39.2793 44.4414 39.2793 45.332V48.5547Z" fill="white"/>
</g>
</g>
<defs>
<clipPath id="clip0_6201_200044">
<rect width="55" height="55" fill="white" transform="translate(0.5)"/>
</clipPath>
</defs>
</svg>
