<svg xmlns="http://www.w3.org/2000/svg" width="18" height="18" viewBox="0 0 18 18" fill="none">
  <path fill-rule="evenodd" clip-rule="evenodd" d="M9 0.750313C4.44382 0.750313 0.750313 4.44382 0.750313 9C0.750313 13.5562 4.44382 17.2497 9 17.2497C13.5562 17.2497 17.2497 13.5562 17.2497 9C17.2497 4.44382 13.5562 0.750313 9 0.750313ZM0 9C0 4.02944 4.02944 0 9 0C13.9706 0 18 4.02944 18 9C18 13.9706 13.9706 18 9 18C4.02944 18 0 13.9706 0 9Z" fill="white"/>
  <path fill-rule="evenodd" clip-rule="evenodd" d="M13.9448 1.60321C14.149 1.56789 14.3431 1.70476 14.3784 1.90892C14.9276 5.0834 14.4879 7.53424 13.4885 9.41816C12.491 11.2984 10.9546 12.5791 9.36797 13.4496C7.78272 14.3192 6.13489 14.7866 4.88884 15.037C4.26459 15.1625 3.73807 15.2342 3.36634 15.2745C3.1804 15.2947 3.03298 15.3071 2.93118 15.3145C2.88028 15.3182 2.84076 15.3206 2.81352 15.3221C2.7999 15.3229 2.78935 15.3234 2.78197 15.3238L2.77331 15.3242L2.76999 15.3243C2.76971 15.3244 2.76949 15.3244 2.75407 14.9495L2.76949 15.3244C2.56247 15.3329 2.38775 15.172 2.37923 14.965C2.37071 14.758 2.53153 14.5833 2.73846 14.5747C2.73846 14.5747 2.73846 14.5747 2.73846 14.5747M2.73846 14.5747L2.73971 14.5746L2.74558 14.5744C2.75107 14.5741 2.75971 14.5737 2.77139 14.573C2.79474 14.5717 2.83023 14.5695 2.87698 14.5661C2.97048 14.5594 3.10895 14.5478 3.28533 14.5286C3.63826 14.4903 4.14216 14.4218 4.74098 14.3014C5.94106 14.0602 7.50996 13.6131 9.00709 12.7917C10.5028 11.9712 11.9144 10.7843 12.8257 9.06654C13.735 7.35247 14.1647 5.07493 13.6391 2.03683C13.6038 1.83267 13.7406 1.63853 13.9448 1.60321" fill="white"/>
  <path fill-rule="evenodd" clip-rule="evenodd" d="M3.63658 1.94146C3.63659 1.94121 3.6366 1.94101 4.01116 1.96216C4.38572 1.9833 4.38573 1.9832 4.38573 1.98315L4.38572 1.9833L4.38566 1.98445L4.38536 1.99021L4.3842 2.01527C4.38322 2.03792 4.38188 2.07229 4.38054 2.11767C4.37785 2.20843 4.37516 2.34314 4.37532 2.51594C4.37563 2.86164 4.38731 3.35918 4.43302 3.96173C4.52456 5.1685 4.75199 6.78803 5.29311 8.44968C6.3743 11.7698 8.68381 15.2077 13.64 15.9408L13.5303 16.683C8.18845 15.8929 5.71097 12.156 4.57967 8.68201C4.01455 6.94663 3.77936 5.26431 3.68485 4.01849C3.63754 3.39475 3.62533 2.87831 3.62501 2.51661C3.62485 2.33571 3.62766 2.19336 3.63055 2.09549C3.632 2.04655 3.63347 2.00872 3.63459 1.98273C3.63516 1.96973 3.63564 1.9597 3.63599 1.95272L3.63641 1.94454L3.63654 1.94219L3.63658 1.94146Z" fill="white"/>
  <path fill-rule="evenodd" clip-rule="evenodd" d="M9.56435 7.46514C9.6803 9.22743 10.1815 10.4916 11.351 11.5172C12.4574 12.4867 13.8483 12.3176 15.0659 11.6715C15.67 11.3509 16.2054 10.9235 16.5977 10.4991C17.0034 10.0603 17.2095 9.67563 17.2411 9.44803L17.9843 9.5513C17.9203 10.0121 17.5834 10.5382 17.1487 11.0084C16.7007 11.493 16.0984 11.973 15.4176 12.3343C14.0653 13.0519 12.2975 13.3442 10.8565 12.0815L10.8564 12.0814C9.4975 10.8899 8.94074 9.41546 8.81565 7.5144C8.69324 5.65391 8.9822 3.34092 9.34574 0.43098C9.34871 0.407151 9.35169 0.383283 9.35468 0.359375L10.0992 0.452382C9.72787 3.42496 9.44673 5.67746 9.56435 7.46514Z" fill="white"/>
  <path fill-rule="evenodd" clip-rule="evenodd" d="M7.71468 17.4061C7.71472 17.4063 7.71476 17.4066 7.34469 17.4681C6.97461 17.5296 6.97464 17.5298 6.97467 17.53L6.97464 17.5298L6.9735 17.5236C6.97234 17.5173 6.97034 17.5069 6.96737 17.4926C6.96143 17.4638 6.95163 17.4194 6.93693 17.3612C6.90752 17.2446 6.85859 17.0729 6.78194 16.8607C6.62853 16.4361 6.36488 15.8515 5.9261 15.2227C5.05282 13.9712 3.47419 12.5267 0.640625 11.826L0.820735 11.0977C3.84336 11.8451 5.57174 13.4037 6.54141 14.7933C7.02411 15.4851 7.31592 16.1305 7.48761 16.6058C7.57351 16.8436 7.62953 17.0393 7.66444 17.1776C7.6819 17.2468 7.6941 17.3018 7.70212 17.3405C7.70613 17.3599 7.7091 17.3753 7.71116 17.3864L7.71359 17.3998L7.71433 17.404L7.71458 17.4055L7.71468 17.4061Z" fill="white"/>
</svg>