<svg width="28" height="28" viewBox="0 0 28 28" fill="none" xmlns="http://www.w3.org/2000/svg">
<path fill-rule="evenodd" clip-rule="evenodd" d="M7.3702 5.76562H21.4452C22.7926 5.76562 23.8826 6.81705 23.8826 8.09847V19.4916C23.8826 20.7812 22.7926 21.8244 21.4452 21.8244H7.3702C6.03136 21.8244 4.94141 20.7812 4.94141 19.4916V8.09847C4.94141 6.81705 6.03136 5.76562 7.3702 5.76562ZM6.306 17.8077V19.4916C6.306 20.0584 6.7866 20.5102 7.3702 20.5102H13.7211V17.7502C11.7386 17.4381 10.2195 15.787 10.2195 13.7991C10.2195 11.8113 11.7386 10.1602 13.7211 9.8481V7.0799H7.3702C6.7866 7.0799 6.306 7.5399 6.306 8.09847V17.8077ZM22.5094 9.7906V8.09847C22.5094 7.5399 22.0374 7.0799 21.4452 7.0799H15.0943V9.8481C17.0768 10.1602 18.5959 11.8113 18.5959 13.7991C18.5959 15.787 17.0768 17.4381 15.0943 17.7502V20.5102H21.4452C22.0374 20.5102 22.5094 20.0584 22.5094 19.4916V9.7906ZM14.382 16.2798C15.8066 16.2798 16.9567 15.1791 16.9567 13.8156C16.9567 12.452 15.8066 11.3513 14.382 11.3513C12.9573 11.3513 11.8073 12.452 11.8073 13.8156C11.8073 15.1791 12.9573 16.2798 14.382 16.2798Z" fill="white"/>
</svg>
