<?xml version="1.0" encoding="utf-8"?>
<!-- Generator: Adobe Illustrator 28.0.0, SVG Export Plug-In . SVG Version: 6.00 Build 0)  -->
<svg version="1.1" id="Layer_1" xmlns="http://www.w3.org/2000/svg" xmlns:xlink="http://www.w3.org/1999/xlink" x="0px" y="0px"
	 viewBox="0 0 28 28" style="enable-background:new 0 0 28 28;" xml:space="preserve">
<style type="text/css">
	.st0{fill:none;}
	.st1{fill:#FFFFFF;}
	.st2{fill-rule:evenodd;clip-rule:evenodd;fill:#FFFFFF;}
</style>
<rect x="4.9" y="5.8" class="st0" width="18.9" height="16.1"/>
<g>
	<path class="st1" d="M13,17.6c-0.9,0-1.6-0.7-1.6-1.6v-4.2c0-0.9,0.7-1.6,1.6-1.6c0.3,0,0.6,0.1,0.8,0.2l3.7,2.1
		c0.8,0.4,1,1.4,0.6,2.2c-0.1,0.2-0.3,0.5-0.6,0.6l-3.7,2.1C13.6,17.5,13.3,17.6,13,17.6L13,17.6z M13,11.5c0,0-0.1,0-0.1,0
		c-0.1,0-0.1,0.1-0.1,0.2v4.2c0,0.1,0.1,0.2,0.2,0.2c0,0,0.1,0,0.1,0l3.7-2.1c0.1-0.1,0.1-0.2,0.1-0.3c0,0,0-0.1-0.1-0.1l-3.7-2.1
		C13.2,11.5,13.1,11.5,13,11.5z"/>
	<path class="st2" d="M7.4,5.8h14.1c1.4,0,2.4,1.1,2.4,2.3v11.4c0,1.3-1.1,2.3-2.4,2.3H7.4c-1.3,0-2.4-1-2.4-2.3V8.1
		C4.9,6.8,6,5.8,7.4,5.8z M22.5,19.5V8.1c0-0.6-0.4-1-1-1H7.3c-0.6,0-1,0.4-1,1v11.4c0,0.6,0.4,1,1,1h14.2
		C22.1,20.5,22.5,20.1,22.5,19.5L22.5,19.5z"/>
</g>
</svg>
