<svg width="35" height="34" viewBox="0 0 35 34" fill="none" xmlns="http://www.w3.org/2000/svg">
<path d="M29.5004 12.375V10.3005C29.5004 8.74468 28.3004 7.5 26.8004 7.5H19V12.4787C21.2 12.8936 22.9 14.8644 22.9 17.25C22.9 19.6356 21.2 21.6064 19 22.0213V27H26.8004C28.3004 27 29.5004 25.7553 29.5004 24.1995V22.125V12.375Z" fill="#089215"/>
<path d="M6.5 22.0213V24.0957C6.5 25.6516 7.7 26.8963 9.2 26.8963H17V21.9176C14.8 21.5027 13.1 19.5319 13.1 17.1463C13.1 14.7606 14.8 12.7899 17 12.375V7.5H9.2C7.7 7.5 6.5 8.74468 6.5 10.3005V12.375V22.0213Z" fill="#089215"/>
<path d="M18 20.258C19.6569 20.258 21 18.8648 21 17.1462C21 15.4277 19.6569 14.0345 18 14.0345C16.3431 14.0345 15 15.4277 15 17.1462C15 18.8648 16.3431 20.258 18 20.258Z" fill="#089215"/>
</svg>
