<svg width="34" height="34" viewBox="0 0 34 34" fill="none" xmlns="http://www.w3.org/2000/svg">
<path fill-rule="evenodd" clip-rule="evenodd" d="M8.94925 7H26.0403C27.6765 7 29 8.27673 29 9.83274V23.6673C29 25.2332 27.6765 26.5 26.0403 26.5H8.94925C7.32352 26.5 6 25.2332 6 23.6673V9.83274C6 8.27673 7.32352 7 8.94925 7ZM7.657 21.6225V23.6673C7.657 24.3555 8.2406 24.9041 8.94925 24.9041H16.6611V21.5527C14.2537 21.1737 12.4092 19.1688 12.4092 16.755C12.4092 14.3412 14.2537 12.3363 16.6611 11.9573V8.59591H8.94925C8.2406 8.59591 7.657 9.15448 7.657 9.83274V21.6225ZM27.3326 11.8875V9.83274C27.3326 9.15448 26.7594 8.59591 26.0403 8.59591H18.3285V11.9573C20.7358 12.3363 22.5804 14.3412 22.5804 16.755C22.5804 19.1688 20.7358 21.1737 18.3285 21.5527V24.9041H26.0403C26.7594 24.9041 27.3326 24.3555 27.3326 23.6673V11.8875ZM17.4635 19.7673C19.1935 19.7673 20.5899 18.4307 20.5899 16.7749C20.5899 15.1192 19.1935 13.7826 17.4635 13.7826C15.7336 13.7826 14.3371 15.1192 14.3371 16.7749C14.3371 18.4307 15.7336 19.7673 17.4635 19.7673Z" fill="white"/>
</svg>
