<svg xmlns="http://www.w3.org/2000/svg" width="18" height="18" viewBox="0 0 18 18" fill="none">
  <path fill-rule="evenodd" clip-rule="evenodd" d="M9 0.75C4.44365 0.75 0.75 4.44365 0.75 9C0.75 13.5563 4.44365 17.25 9 17.25C13.5563 17.25 17.25 13.5563 17.25 9C17.25 4.44365 13.5563 0.75 9 0.75ZM0 9C0 4.02944 4.02944 0 9 0C13.9706 0 18 4.02944 18 9C18 13.9706 13.9706 18 9 18C4.02944 18 0 13.9706 0 9Z" fill="white"/>
  <path fill-rule="evenodd" clip-rule="evenodd" d="M8.77875 5.91347C8.91015 5.81796 9.0881 5.8179 9.21955 5.91334L12.1483 8.03959C12.2798 8.13506 12.3349 8.30439 12.2846 8.45895L11.1671 11.8977C11.1169 12.0522 10.9729 12.1568 10.8105 12.1568H7.19174C7.02929 12.1568 6.88531 12.0522 6.8351 11.8977L5.7176 8.45895C5.6674 8.30447 5.72236 8.13523 5.85375 8.03972L8.77875 5.91347ZM8.99939 6.6803L6.51507 8.48621L7.46418 11.4068H10.5381L11.4871 8.48637L8.99939 6.6803Z" fill="white"/>
  <path fill-rule="evenodd" clip-rule="evenodd" d="M9 2.75195C9.20711 2.75195 9.375 2.91985 9.375 3.12695V6.21695C9.375 6.42406 9.20711 6.59195 9 6.59195C8.79289 6.59195 8.625 6.42406 8.625 6.21695V3.12695C8.625 2.91985 8.79289 2.75195 9 2.75195Z" fill="white"/>
  <path fill-rule="evenodd" clip-rule="evenodd" d="M2.77812 7.27124C2.84195 7.07422 3.05342 6.96624 3.25044 7.03008L6.19044 7.98257C6.38747 8.04641 6.49544 8.25787 6.43161 8.4549C6.36778 8.65192 6.15631 8.7599 5.95929 8.69606L3.01929 7.74356C2.82226 7.67973 2.71429 7.46827 2.77812 7.27124Z" fill="white"/>
  <path fill-rule="evenodd" clip-rule="evenodd" d="M7.41613 11.4797C7.58375 11.6014 7.62103 11.8358 7.4994 12.0035L5.6844 14.5047C5.56276 14.6723 5.32827 14.7096 5.16065 14.588C4.99302 14.4664 4.95574 14.2319 5.07737 14.0642L6.89237 11.563C7.01401 11.3954 7.2485 11.3581 7.41613 11.4797Z" fill="white"/>
  <path fill-rule="evenodd" clip-rule="evenodd" d="M10.59 11.4799C10.7575 11.3581 10.9921 11.3952 11.1139 11.5627L12.9326 14.0639C13.0544 14.2314 13.0174 14.466 12.8499 14.5878C12.6824 14.7096 12.4478 14.6725 12.326 14.505L10.5073 12.0038C10.3855 11.8363 10.4225 11.6017 10.59 11.4799Z" fill="white"/>
  <path fill-rule="evenodd" clip-rule="evenodd" d="M15.2208 7.27501C15.2847 7.47202 15.1768 7.68352 14.9798 7.74743L12.0435 8.69993C11.8465 8.76383 11.635 8.65594 11.5711 8.45894C11.5072 8.26194 11.6151 8.05043 11.8121 7.98653L14.7484 7.03402C14.9454 6.97012 15.1569 7.07801 15.2208 7.27501Z" fill="white"/>
  <path fill-rule="evenodd" clip-rule="evenodd" d="M12.2265 0.656807C12.3524 0.821246 12.3212 1.05662 12.1567 1.18253L9.228 3.42503C9.06356 3.55094 8.82818 3.5197 8.70228 3.35526C8.57637 3.19082 8.6076 2.95545 8.77204 2.82954L11.7008 0.587041C11.8652 0.461133 12.1006 0.492368 12.2265 0.656807Z" fill="white"/>
  <path fill-rule="evenodd" clip-rule="evenodd" d="M5.77664 0.656623C5.90265 0.492262 6.13804 0.461172 6.3024 0.587182L9.2274 2.82968C9.39176 2.95569 9.42285 3.19109 9.29684 3.35545C9.17083 3.51981 8.93544 3.5509 8.77108 3.42489L5.84608 1.18239C5.68171 1.05638 5.65063 0.820984 5.77664 0.656623Z" fill="white"/>
  <path fill-rule="evenodd" clip-rule="evenodd" d="M1.82422 3.67783C2.01947 3.60874 2.23375 3.71101 2.30284 3.90625L3.48784 7.255C3.55693 7.45025 3.45466 7.66453 3.25942 7.73362C3.06418 7.80271 2.84989 7.70044 2.7808 7.5052L1.5958 4.15645C1.52671 3.96121 1.62898 3.74692 1.82422 3.67783Z" fill="white"/>
  <path fill-rule="evenodd" clip-rule="evenodd" d="M3.44427 7.16854C3.56155 7.33923 3.51825 7.57269 3.34755 7.68997L0.5913 9.58372C0.420602 9.701 0.187147 9.6577 0.0698643 9.487C-0.0474184 9.3163 -0.00411627 9.08285 0.166582 8.96557L2.92283 7.07182C3.09353 6.95453 3.32699 6.99784 3.44427 7.16854Z" fill="white"/>
  <path fill-rule="evenodd" clip-rule="evenodd" d="M5.75598 14.2738C5.76118 14.4808 5.59756 14.6529 5.39051 14.6581L2.25551 14.7368C2.04847 14.742 1.87642 14.5784 1.87121 14.3714C1.86601 14.1643 2.02964 13.9923 2.23668 13.9871L5.37168 13.9083C5.57872 13.9031 5.75078 14.0667 5.75598 14.2738Z" fill="white"/>
  <path fill-rule="evenodd" clip-rule="evenodd" d="M5.27419 13.9238C5.47272 13.8649 5.68147 13.978 5.74044 14.1765L6.59919 17.0678C6.65815 17.2663 6.54501 17.4751 6.34648 17.534C6.14794 17.593 5.9392 17.4799 5.88023 17.2813L5.02148 14.3901C4.96251 14.1915 5.07565 13.9828 5.27419 13.9238Z" fill="white"/>
  <path fill-rule="evenodd" clip-rule="evenodd" d="M12.7372 13.9239C12.9357 13.9829 13.0488 14.1917 12.9898 14.3902L12.131 17.2777C12.072 17.4762 11.8632 17.5893 11.6647 17.5302C11.4662 17.4712 11.3531 17.2624 11.4121 17.0639L12.2709 14.1764C12.3299 13.9779 12.5387 13.8648 12.7372 13.9239Z" fill="white"/>
  <path fill-rule="evenodd" clip-rule="evenodd" d="M12.256 14.2738C12.2612 14.0667 12.4333 13.9031 12.6403 13.9083L15.7678 13.9871C15.9748 13.9923 16.1385 14.1644 16.1332 14.3714C16.128 14.5784 15.956 14.742 15.7489 14.7368L12.6214 14.6581C12.4144 14.6529 12.2508 14.4808 12.256 14.2738Z" fill="white"/>
  <path fill-rule="evenodd" clip-rule="evenodd" d="M14.5564 7.17802C14.6738 7.00743 14.9073 6.96434 15.0779 7.08178L17.8342 8.97928C18.0048 9.09672 18.0478 9.33021 17.9304 9.5008C17.813 9.67139 17.5795 9.71448 17.4089 9.59704L14.6526 7.69954C14.482 7.5821 14.4389 7.34861 14.5564 7.17802Z" fill="white"/>
  <path fill-rule="evenodd" clip-rule="evenodd" d="M16.1792 3.67783C16.3744 3.7469 16.4767 3.96118 16.4076 4.15643L15.2189 7.51643C15.1498 7.71168 14.9355 7.81396 14.7403 7.74488C14.545 7.6758 14.4427 7.46152 14.5118 7.26628L15.7006 3.90628C15.7696 3.71103 15.9839 3.60875 16.1792 3.67783Z" fill="white"/>
</svg>