<svg xmlns="http://www.w3.org/2000/svg" width="18" height="18" viewBox="0 0 18 18" fill="none">
  <g clip-path="url(#clip0_1958_98442)">
    <path fill-rule="evenodd" clip-rule="evenodd" d="M1.26326 0.808599C1.01216 0.808599 0.808599 1.01216 0.808599 1.26326V6.61174C0.808599 6.86284 1.01216 7.0664 1.26326 7.0664H6.61173C6.86283 7.0664 7.06639 6.86284 7.06639 6.61174V1.26326C7.06639 1.01216 6.86283 0.808599 6.61173 0.808599H1.26326ZM0 1.26326C0 0.565582 0.565581 0 1.26326 0H6.61173C7.30941 0 7.87499 0.565582 7.87499 1.26326V6.61174C7.87499 7.30942 7.30941 7.875 6.61173 7.875H1.26326C0.565581 7.875 0 7.30942 0 6.61174V1.26326Z" fill="#7B7B7B"/>
    <path fill-rule="evenodd" clip-rule="evenodd" d="M11.3883 10.9336C11.1372 10.9336 10.9336 11.1372 10.9336 11.3883V16.7367C10.9336 16.9878 11.1372 17.1914 11.3883 17.1914H16.7367C16.9878 17.1914 17.1914 16.9878 17.1914 16.7367V11.3883C17.1914 11.1372 16.9878 10.9336 16.7367 10.9336H11.3883ZM10.125 11.3883C10.125 10.6906 10.6906 10.125 11.3883 10.125H16.7367C17.4344 10.125 18 10.6906 18 11.3883V16.7367C18 17.4344 17.4344 18 16.7367 18H11.3883C10.6906 18 10.125 17.4344 10.125 16.7367V11.3883Z" fill="#7B7B7B"/>
    <path fill-rule="evenodd" clip-rule="evenodd" d="M1.26326 10.9336C1.01216 10.9336 0.808599 11.1372 0.808599 11.3883V16.7367C0.808599 16.9878 1.01216 17.1914 1.26326 17.1914H6.61173C6.86283 17.1914 7.06639 16.9878 7.06639 16.7367V11.3883C7.06639 11.1372 6.86283 10.9336 6.61173 10.9336H1.26326ZM0 11.3883C0 10.6906 0.565581 10.125 1.26326 10.125H6.61173C7.30941 10.125 7.87499 10.6906 7.87499 11.3883V16.7367C7.87499 17.4344 7.30941 18 6.61173 18H1.26326C0.56558 18 0 17.4344 0 16.7367V11.3883Z" fill="#7B7B7B"/>
    <path fill-rule="evenodd" clip-rule="evenodd" d="M14.0625 7.08862C15.8028 7.08862 17.2136 5.67782 17.2136 3.9375C17.2136 2.19718 15.8028 0.786377 14.0625 0.786377C12.3222 0.786377 10.9114 2.19718 10.9114 3.9375C10.9114 5.67782 12.3222 7.08862 14.0625 7.08862ZM14.0625 7.875C16.2371 7.875 18 6.11212 18 3.9375C18 1.76288 16.2371 0 14.0625 0C11.8879 0 10.125 1.76288 10.125 3.9375C10.125 6.11212 11.8879 7.875 14.0625 7.875Z" fill="#7B7B7B"/>
  </g>
  <defs>
    <clipPath id="clip0_1958_98442">
      <rect width="18" height="18" fill="white"/>
    </clipPath>
  </defs>
</svg>