<svg width="196" height="72" viewBox="0 0 196 72" fill="none" xmlns="http://www.w3.org/2000/svg">
<g id="Logo" clip-path="url(#clip0_2261_110329)">
<path id="Vector" d="M116.231 18.8434H102.997C93.7988 18.8584 88.3649 22.0516 86.6956 28.4179L80.5348 51.7879C80.4847 51.9984 80.4546 52.244 80.4346 52.5247C80.4346 52.8055 80.5749 53.1313 80.8506 53.5073C81.1263 53.8682 81.5875 54.0487 82.2242 54.0487H87.0616C87.6982 54.0487 88.3047 53.8381 88.8762 53.412C89.4477 52.9709 89.8186 52.4145 89.979 51.7427L91.6233 45.5569H109.078V51.7427C109.078 52.4145 109.289 52.9709 109.715 53.412C110.156 53.8381 110.712 54.0487 111.384 54.0487H116.001C116.637 54.0487 117.189 53.8381 117.645 53.412C118.101 52.9709 118.332 52.4295 118.332 51.7929V21.1292C118.332 20.5227 118.126 19.9913 117.72 19.5352C117.329 19.079 116.828 18.8484 116.221 18.8484L116.231 18.8434ZM109.088 38.6091H93.4479L95.6085 30.7289C96.0195 29.225 96.8015 28.0269 97.9645 27.1447C99.1425 26.2424 100.516 25.7962 102.09 25.7962H109.088V38.6141V38.6091Z" fill="white"/>
<path id="Vector_2" d="M158.656 20.0213C158.656 19.2343 158.24 18.8433 157.403 18.8433H152.716C150.881 18.8433 149.457 19.6203 148.445 21.1743L140.514 33.4257L132.559 21.1743C131.561 19.6203 130.138 18.8433 128.288 18.8433H123.621C122.769 18.8433 122.343 19.2343 122.343 20.0213C122.343 20.3823 122.483 20.7683 122.759 21.1743L135.867 41.4764V51.7878C135.867 52.4244 136.098 52.9658 136.554 53.4069C137.01 53.833 137.562 54.0436 138.198 54.0436H142.815C143.452 54.0436 143.993 53.833 144.434 53.4069C144.891 52.9658 145.121 52.4244 145.121 51.7878V41.4764L158.255 21.1743C158.516 20.7632 158.646 20.3823 158.646 20.0213H158.656Z" fill="white"/>
<path id="Vector_3" d="M194.774 19.5301C194.378 19.074 193.882 18.8434 193.275 18.8434H180.041C170.843 18.8584 165.409 22.0516 163.74 28.4179L157.579 51.7879C157.529 51.9984 157.499 52.244 157.479 52.5247C157.479 52.8055 157.619 53.1313 157.895 53.5073C158.175 53.8682 158.631 54.0487 159.268 54.0487H164.106C164.742 54.0487 165.349 53.8381 165.92 53.412C166.492 52.9709 166.863 52.4145 167.023 51.7427L168.667 45.5569H186.122V51.7427C186.122 52.4145 186.333 52.9709 186.759 53.412C187.2 53.8381 187.756 54.0487 188.428 54.0487H193.045C193.681 54.0487 194.233 53.8381 194.689 53.412C195.145 52.9709 195.376 52.4295 195.376 51.7929V21.1292C195.376 20.5227 195.17 19.9913 194.764 19.5352L194.774 19.5301ZM186.132 38.6041H170.492L172.652 30.7238C173.063 29.22 173.845 28.0219 175.008 27.1397C176.186 26.2373 177.56 25.7912 179.134 25.7912H186.132V38.6091V38.6041Z" fill="white"/>
<path id="Vector_4" d="M78.1132 33.3655C79.1208 31.2952 79.7373 29.1096 80.2938 26.8889C81.0357 23.9313 80.2887 21.0589 78.0931 19.7105C76.7497 18.8884 75.1456 18.8383 73.6216 18.8232C69.8319 18.7881 66.0773 19.1992 62.3929 20.307C64.403 20.1917 66.4132 20.1215 68.4183 19.9461C69.3607 19.8659 69.8269 20.1667 70.0976 21.079C71.2606 25.0542 71.7819 29.0845 71.5564 33.2302C71.3558 36.9497 70.3733 40.4386 68.8795 43.8273C67.5611 46.815 65.952 49.5871 63.7112 51.9883C60.5481 56.0587 56.0917 59.5326 51.3495 61.4475C47.3242 63.0065 41.5795 64.4402 37.2684 61.5678C35.8297 60.1291 37.2684 57.2568 37.2684 54.3844C35.8297 58.6954 32.9574 64.4402 38.7071 68.7512C41.5795 70.1899 44.4519 68.7512 45.8905 65.8789C44.4519 68.7512 41.5795 71.6236 38.7071 71.6236C27.2126 65.8789 30.09 50.0733 32.3358 39.5664C32.9072 36.298 33.604 33.0196 34.3008 29.7312C34.7871 27.5506 35.6743 25.4402 36.4463 23.3398C37.0028 21.8259 38.9477 21.5703 40.3213 21.2143C42.7926 20.5727 45.1135 19.5401 47.5598 18.8383C55.1693 16.6627 62.7688 14.6174 70.7693 14.6174C73.381 14.6174 75.8674 15.1939 78.1934 16.2616C80.795 17.4597 81.8979 19.7205 81.9279 22.5528C81.9681 26.6182 80.2386 30.052 78.1132 33.3555V33.3655Z" fill="white"/>
<path id="Vector_5" d="M2.12415 31.5008C4.93135 28.3377 8.06439 25.6458 11.814 23.1444C10.4906 22.9087 10.0695 24.0366 9.22235 23.9063C9.99433 16.6477 16.7366 7.45914 25.2284 3.38369C33.9107 -0.787007 42.5979 -0.857187 51.591 1.83472C51.3454 2.40117 50.7438 2.42623 50.3077 2.6869C49.8866 2.94256 49.1948 2.54654 48.854 3.40875C49.8215 3.53909 50.7238 3.59924 51.6261 3.39371C56.7943 2.21569 62.0077 2.51646 67.0607 3.66441C71.2564 4.61685 75.0211 6.7824 78.2243 10.5721C77.2969 10.131 76.7605 9.91543 76.2542 9.6297C72.5447 7.55939 68.5946 6.69217 64.3236 6.65207C57.7668 6.59191 51.5158 7.77495 45.2648 9.72996C39.4499 11.5496 33.7954 13.7402 28.2762 16.2467C25.6244 17.4498 23.0077 18.8534 20.4411 20.2971C16.2754 22.6381 12.0847 24.9239 8.08444 27.5406C6.08932 28.849 4.10423 30.1774 2.11914 31.4958L2.12415 31.5008Z" fill="white"/>
<path id="Vector_6" d="M26.1508 27.0845C24.301 34.2127 22.9275 41.2107 23.108 48.0382C23.1982 51.452 23.6794 54.8256 24.682 58.1541C25.7748 61.5779 28.6472 64.4503 30.0859 67.3226C21.4688 60.1392 15.719 50.0834 10.4254 41.2307C10.1096 40.4136 10.1046 39.8171 11.012 39.3008C11.809 38.8496 12.4557 38.1428 13.1725 37.5463C13.1023 37.3909 13.0321 37.2355 12.962 37.0801C8.8063 38.6993 4.65566 40.3134 0.5 41.9376C4.5153 39.0451 8.6108 36.3181 12.8617 33.8167C17.1126 31.3203 21.5189 29.0495 26.1508 27.0895V27.0845Z" fill="white"/>
</g>
<defs>
<clipPath id="clip0_2261_110329">
<rect width="194.885" height="71.6287" fill="white" transform="translate(0.5)"/>
</clipPath>
</defs>
</svg>
