<svg width="28" height="28" viewBox="0 0 28 28" fill="none" xmlns="http://www.w3.org/2000/svg">
<g id="Glyph">
<path id="Vector" d="M14.001 0.5625C11.3433 0.5625 8.74529 1.3506 6.53551 2.82713C4.32572 4.30366 2.6034 6.40231 1.58635 8.85769C0.569299 11.3131 0.303191 14.0149 0.82168 16.6215C1.34017 19.2281 2.61997 21.6225 4.49924 23.5017C6.3785 25.381 8.77284 26.6608 11.3795 27.1793C13.9861 27.6978 16.6879 27.4317 19.1433 26.4146C21.5987 25.3976 23.6973 23.6753 25.1739 21.4655C26.6504 19.2557 27.4385 16.6577 27.4385 14C27.4352 10.4372 26.0184 7.02121 23.4991 4.50191C20.9798 1.98261 17.5638 0.56581 14.001 0.5625ZM18.4135 17.0875C18.589 17.2633 18.6877 17.5016 18.6877 17.75C18.6877 17.9984 18.589 18.2367 18.4135 18.4125C18.2377 18.5881 17.9994 18.6867 17.751 18.6867C17.5025 18.6867 17.2643 18.5881 17.0885 18.4125L14.001 15.325L10.9135 18.4125C10.7377 18.5881 10.4994 18.6867 10.251 18.6867C10.0025 18.6867 9.76426 18.5881 9.58848 18.4125C9.41292 18.2367 9.31431 17.9984 9.31431 17.75C9.31431 17.5016 9.41292 17.2633 9.58848 17.0875L12.676 14L9.58848 10.9125C9.42288 10.7348 9.33273 10.4997 9.33701 10.2568C9.3413 10.014 9.43969 9.78224 9.61146 9.61047C9.78322 9.43871 10.015 9.34032 10.2578 9.33603C10.5007 9.33175 10.7358 9.4219 10.9135 9.5875L14.001 12.675L17.0885 9.5875C17.2662 9.4219 17.5013 9.33175 17.7441 9.33603C17.987 9.34032 18.2187 9.43871 18.3905 9.61047C18.5623 9.78224 18.6607 10.014 18.665 10.2568C18.6692 10.4997 18.5791 10.7348 18.4135 10.9125L15.326 14L18.4135 17.0875Z" fill="white" fill-opacity="0.5"/>
</g>
</svg>
