<svg width="71" height="73" viewBox="0 0 71 73" fill="none" xmlns="http://www.w3.org/2000/svg">
<path d="M37.2728 4.93945H33.6365V10.394H37.2728V4.93945Z" fill="#56548C"/>
<path d="M40.8013 1.30371H31.0167C29.9531 1.30371 29.0908 2.24096 29.0908 3.39711V3.75577C29.0908 4.91192 29.9531 5.84917 31.0167 5.84917H40.8013C41.8649 5.84917 42.7272 4.91192 42.7272 3.75577V3.39711C42.7272 2.24096 41.8649 1.30371 40.8013 1.30371Z" fill="#56548C"/>
<path d="M38.1818 6.75781H32.7273V12.2124H38.1818V6.75781Z" fill="#FBD15B"/>
<path d="M17.5517 10.8652L14.9722 12.6523L17.8058 16.7685L20.3853 14.9813L17.5517 10.8652Z" fill="#56548C"/>
<path d="M18.3801 6.63509L10.7467 11.9238C9.91684 12.4988 9.70873 13.6397 10.2818 14.4722L10.4596 14.7304C11.0327 15.5629 12.17 15.7717 12.9998 15.1968L20.6332 9.90801C21.4631 9.33308 21.6712 8.19214 21.0981 7.35967L20.9203 7.10142C20.3472 6.26894 19.2099 6.06015 18.3801 6.63509Z" fill="#56548C"/>
<path d="M19.438 11.9561L15.335 14.7988L18.1686 18.915L22.2717 16.0723L19.438 11.9561Z" fill="#FBD15B"/>
<path d="M45.7045 61.6393C59.6246 55.887 66.32 39.7569 60.6592 25.6119C54.9983 11.4668 39.1248 4.66317 25.2046 10.4155C11.2845 16.1679 4.58904 32.2979 10.2499 46.443C15.9108 60.588 31.7843 67.3917 45.7045 61.6393Z" fill="url(#paint0_linear_21_38)"/>
<path d="M35.4546 60.3946C49.0107 60.3946 60.0001 49.4053 60.0001 35.8492C60.0001 22.2931 49.0107 11.3037 35.4546 11.3037C21.8986 11.3037 10.9092 22.2931 10.9092 35.8492C10.9092 49.4053 21.8986 60.3946 35.4546 60.3946Z" fill="#CFCFFF"/>
<path d="M35.4545 59.4856C48.5085 59.4856 59.0908 48.9033 59.0908 35.8493C59.0908 22.7953 48.5085 12.2129 35.4545 12.2129C22.4005 12.2129 11.8181 22.7953 11.8181 35.8493C11.8181 48.9033 22.4005 59.4856 35.4545 59.4856Z" fill="#F9FBFC"/>
<path d="M35.909 15.8484C36.6622 15.8484 37.2727 15.2378 37.2727 14.4847C37.2727 13.7316 36.6622 13.1211 35.909 13.1211C35.1559 13.1211 34.5454 13.7316 34.5454 14.4847C34.5454 15.2378 35.1559 15.8484 35.909 15.8484Z" fill="#E6E6FF"/>
<path d="M18.6363 22.2129C19.3901 22.2129 20 22.8228 20 23.5765C20 24.3303 19.3901 24.9402 18.6363 24.9402C17.8826 24.9402 17.2727 24.3303 17.2727 23.5765C17.2727 22.8228 17.8826 22.2129 18.6363 22.2129Z" fill="#E6E6FF"/>
<path d="M53.1818 24.9402C53.9349 24.9402 54.5454 24.3296 54.5454 23.5765C54.5454 22.8234 53.9349 22.2129 53.1818 22.2129C52.4286 22.2129 51.8181 22.8234 51.8181 23.5765C51.8181 24.3296 52.4286 24.9402 53.1818 24.9402Z" fill="#E6E6FF"/>
<defs>
<linearGradient id="paint0_linear_21_38" x1="21.8473" y1="12.0785" x2="49.7159" y2="59.5913" gradientUnits="userSpaceOnUse">
<stop stop-color="#FFCD2A"/>
<stop offset="0.909351" stop-color="#EAB300"/>
</linearGradient>
</defs>
</svg>
