<svg width="13" height="16" viewBox="0 0 13 16" fill="none" xmlns="http://www.w3.org/2000/svg">
<g clip-path="url(#clip0_3349_188908)">
<path d="M229.263 -30H0V15.999C0 15.999 2.21148 16.097 2.76678 14.3135C3.32209 12.53 4.97826 11.7362 6.36165 11.7362C7.74504 11.7362 9.41096 12.53 9.95652 14.3135C10.5118 16.097 12.7233 15.999 12.7233 15.999C12.7233 15.999 14.9348 16.097 15.4901 14.3135C16.0454 12.53 17.7016 11.7362 19.085 11.7362C20.4683 11.7362 22.1343 12.53 22.6798 14.3135C23.2351 16.097 25.4466 15.999 25.4466 15.999C25.4466 15.999 27.6581 16.097 28.2134 14.3135C28.7687 12.53 30.4249 11.7362 31.8083 11.7362C33.1917 11.7362 34.8576 12.53 35.4031 14.3135C35.9584 16.097 38.1699 15.999 38.1699 15.999C38.1699 15.999 40.3814 16.097 40.9367 14.3135C41.492 12.53 43.1482 11.7362 44.5316 11.7362C45.915 11.7362 47.5809 12.53 48.1264 14.3135C48.6817 16.097 50.8932 15.999 50.8932 15.999C50.8932 15.999 53.1047 16.097 53.66 14.3135C54.2153 12.53 55.8715 11.7362 57.2549 11.7362C58.6383 11.7362 60.3042 12.53 60.8497 14.3135C61.405 16.097 63.6165 15.999 63.6165 15.999C63.6165 15.999 65.828 16.097 66.3833 14.3135C66.9386 12.53 68.5948 11.7362 69.9782 11.7362C71.3616 11.7362 73.0275 12.53 73.573 14.3135C74.1283 16.097 76.3398 15.999 76.3398 15.999C76.3398 15.999 78.5513 16.097 79.1066 14.3135C79.6619 12.53 81.3181 11.7362 82.7015 11.7362C84.0849 11.7362 85.7508 12.53 86.2964 14.3135C86.8517 16.097 89.0631 15.999 89.0631 15.999C89.0631 15.999 91.2746 16.097 91.8299 14.3135C92.3852 12.53 94.0414 11.7362 95.4248 11.7362C96.8082 11.7362 98.4741 12.53 99.0197 14.3135C99.575 16.097 101.786 15.999 101.786 15.999C101.786 15.999 103.998 16.097 104.553 14.3135C105.109 12.53 106.765 11.7362 108.148 11.7362C109.531 11.7362 111.197 12.53 111.743 14.3135C112.298 16.097 114.51 15.999 114.51 15.999C114.51 15.999 116.721 16.097 117.277 14.3135C117.832 12.53 119.488 11.7362 120.871 11.7362C122.255 11.7362 123.921 12.53 124.466 14.3135C125.022 16.097 127.233 15.999 127.233 15.999C127.233 15.999 129.445 16.097 130 14.3135C130.555 12.53 132.211 11.7362 133.595 11.7362C134.978 11.7362 136.644 12.53 137.19 14.3135C137.745 16.097 139.956 15.999 139.956 15.999C139.956 15.999 142.168 16.097 142.723 14.3135C143.278 12.53 144.935 11.7362 146.318 11.7362C147.701 11.7362 149.367 12.53 149.913 14.3135C150.468 16.097 152.68 15.999 152.68 15.999C152.68 15.999 154.891 16.097 155.446 14.3135C156.002 12.53 157.658 11.7362 159.041 11.7362C160.425 11.7362 162.091 12.53 162.636 14.3135C163.191 16.097 165.403 15.999 165.403 15.999C165.403 15.999 167.614 16.097 168.17 14.3135C168.725 12.53 170.381 11.7362 171.765 11.7362C173.148 11.7362 174.814 12.53 175.359 14.3135C175.915 16.097 178.126 15.999 178.126 15.999C178.126 15.999 180.338 16.097 180.893 14.3135C181.448 12.53 183.105 11.7362 184.488 11.7362C185.871 11.7362 187.537 12.53 188.083 14.3135C188.638 16.097 190.85 15.999 190.85 15.999C190.85 15.999 193.061 16.097 193.616 14.3135C194.172 12.53 195.828 11.7362 197.211 11.7362C198.595 11.7362 200.261 12.53 200.806 14.3135C201.361 16.097 203.573 15.999 203.573 15.999C203.573 15.999 205.784 16.097 206.34 14.3135C206.895 12.53 208.551 11.7362 209.935 11.7362C211.318 11.7362 212.984 12.53 213.529 14.3135C214.085 16.097 216.296 15.999 216.296 15.999C216.296 15.999 218.508 16.097 219.063 14.3135C219.618 12.53 221.274 11.7362 222.658 11.7362C224.041 11.7362 225.707 12.53 226.253 14.3135C226.789 16.0382 228.864 15.999 229 15.999C229.127 15.999 231.211 16.0382 231.747 14.3135C232.303 12.53 233.959 11.7362 235.342 11.7362C236.726 11.7362 238.391 12.53 238.937 14.3135C239.492 16.097 241.704 15.999 241.704 15.999C241.704 15.999 243.915 16.097 244.471 14.3135C245.026 12.53 246.682 11.7362 248.065 11.7362C249.449 11.7362 251.115 12.53 251.66 14.3135C252.216 16.097 254.427 15.999 254.427 15.999C254.427 15.999 256.639 16.097 257.194 14.3135C257.749 12.53 259.405 11.7362 260.789 11.7362C262.172 11.7362 263.838 12.53 264.384 14.3135C264.939 16.097 267.15 15.999 267.15 15.999C267.15 15.999 269.362 16.097 269.917 14.3135C270.473 12.53 272.129 11.7362 273.512 11.7362C274.895 11.7362 276.561 12.53 277.107 14.3135C277.662 16.097 279.874 15.999 279.874 15.999C279.874 15.999 282.085 16.097 282.641 14.3135C283.196 12.53 284.852 11.7362 286.235 11.7362C287.619 11.7362 289.285 12.53 289.83 14.3135C290.386 16.097 292.597 15.999 292.597 15.999C292.597 15.999 294.809 16.097 295.364 14.3135C295.919 12.53 297.575 11.7362 298.959 11.7362C300.342 11.7362 302.008 12.53 302.554 14.3135C303.109 16.097 305.32 15.999 305.32 15.999C305.32 15.999 307.532 16.097 308.087 14.3135C308.642 12.53 310.299 11.7362 311.682 11.7362C313.065 11.7362 314.731 12.53 315.277 14.3135C315.832 16.097 318.044 15.999 318.044 15.999C318.044 15.999 320.255 16.097 320.81 14.3135C321.366 12.53 323.022 11.7362 324.405 11.7362C325.789 11.7362 327.455 12.53 328 14.3135C328.555 16.097 330.767 15.999 330.767 15.999C330.767 15.999 332.978 16.097 333.534 14.3135C334.089 12.53 335.745 11.7362 337.129 11.7362C338.512 11.7362 340.178 12.53 340.723 14.3135C341.279 16.097 343.49 15.999 343.49 15.999C343.49 15.999 345.702 16.097 346.257 14.3135C346.812 12.53 348.469 11.7362 349.852 11.7362C351.235 11.7362 352.901 12.53 353.447 14.3135C354.002 16.097 356.214 15.999 356.214 15.999C356.214 15.999 358.425 16.097 358.98 14.3135C359.536 12.53 361.192 11.7362 362.575 11.7362C363.959 11.7362 365.625 12.53 366.17 14.3135C366.725 16.097 368.937 15.999 368.937 15.999C368.937 15.999 371.148 16.097 371.704 14.3135C372.259 12.53 373.915 11.7362 375.299 11.7362C376.682 11.7362 378.348 12.53 378.893 14.3135C379.449 16.097 381.66 15.999 381.66 15.999C381.66 15.999 383.872 16.097 384.427 14.3135C384.982 12.53 386.638 11.7362 388.022 11.7362C389.405 11.7362 391.071 12.53 391.617 14.3135C392.172 16.097 394.383 15.999 394.383 15.999C394.383 15.999 396.595 16.097 397.15 14.3135C397.706 12.53 399.362 11.7362 400.745 11.7362C402.129 11.7362 403.794 12.53 404.34 14.3135C404.895 16.097 407.107 15.999 407.107 15.999C407.107 15.999 409.318 16.097 409.874 14.3135C410.429 12.53 412.085 11.7362 413.468 11.7362C414.852 11.7362 416.518 12.53 417.063 14.3135C417.619 16.097 419.83 15.999 419.83 15.999C419.83 15.999 422.042 16.097 422.597 14.3135C423.152 12.53 424.808 11.7362 426.192 11.7362C427.575 11.7362 429.241 12.53 429.787 14.3135C430.342 16.097 432.553 15.999 432.553 15.999C432.553 15.999 434.765 16.097 435.32 14.3135C435.875 12.53 437.532 11.7362 438.915 11.7362C440.298 11.7362 441.964 12.53 442.51 14.3135C443.065 16.097 445.277 15.999 445.277 15.999C445.277 15.999 447.488 16.097 448.043 14.3135C448.599 12.53 450.255 11.7362 451.638 11.7362C453.022 11.7362 454.688 12.53 455.233 14.3135C455.789 16.097 458 15.999 458 15.999V-30H228.786H229.263Z" fill="#191A1D"/>
</g>
<defs>
<clipPath id="clip0_3349_188908">
<rect width="13" height="16" fill="white"/>
</clipPath>
</defs>
</svg>
