<svg width="46" height="46" viewBox="0 0 46 46" fill="none" xmlns="http://www.w3.org/2000/svg">
<g clip-path="url(#clip0_24293_147232)">
<rect width="46" height="46" rx="23" fill="white"/>
<g clip-path="url(#clip1_24293_147232)" filter="url(#filter0_d_24293_147232)">
<path d="M6.85541 27.8571C6.34395 26.1479 6.12753 24.5378 6.13291 22.8997C6.14045 20.8007 6.50008 18.763 7.2818 16.8062C7.38301 16.5531 7.48853 16.398 7.81263 16.3991C11.1667 16.412 14.5197 16.4066 17.8737 16.4087C17.9556 16.4087 18.0385 16.4324 18.2248 16.4615C14.4174 20.2773 10.6735 24.0295 6.85433 27.8571H6.85541Z" fill="#F7CA49"/>
<path d="M21.8303 30.9773H37.7661C37.6875 31.1313 37.6186 31.2896 37.5303 31.4361C35.6578 34.5561 33.0747 36.8921 29.7723 38.4203C29.5893 38.5043 29.2372 38.5226 29.123 38.4106C26.667 35.9949 24.2346 33.5556 21.7969 31.1205C21.8076 31.072 21.8184 31.0247 21.8292 30.9762L21.8303 30.9773Z" fill="#50B1F8"/>
<path d="M39.1767 18.179C39.3749 19.1902 39.6376 20.194 39.7582 21.2139C40.0834 23.9774 39.657 26.6505 38.5974 29.2181C38.5296 29.3818 38.2798 29.5767 38.114 29.5778C34.7416 29.5972 31.3682 29.5896 27.9947 29.5853C27.9646 29.5853 27.9334 29.5627 27.8203 29.5175C31.562 25.7232 35.2789 21.9538 38.9958 18.1854C39.0561 18.1833 39.1164 18.1811 39.1767 18.179Z" fill="#5F82E9"/>
<path d="M29.4231 18.1882C25.7116 14.3929 22.0001 10.5966 18.2734 6.78403C18.7547 6.67633 19.347 6.52124 19.9478 6.41354C23.0553 5.8589 26.0917 6.12599 29.056 7.22236C29.4425 7.3656 29.6008 7.54653 29.5965 7.99133C29.5728 11.1857 29.5836 14.38 29.5836 17.5743C29.5836 17.7488 29.5836 17.9244 29.5836 18.0988C29.5297 18.1279 29.4759 18.157 29.4221 18.1861L29.4231 18.1882Z" fill="#E56157"/>
<path d="M30.9727 8.20337C32.8537 9.10481 34.3633 10.408 35.6877 11.9437C36.8194 13.2566 37.7335 14.7084 38.4603 16.2808C38.5583 16.494 38.6606 16.6652 38.428 16.8936C36.0075 19.2672 33.5999 21.6528 31.1869 24.034C31.1546 24.0663 31.0997 24.0749 30.9737 24.1309V8.20337H30.9727Z" fill="#6467E8"/>
<path d="M16.5863 27.8054C20.2698 31.5716 23.9534 35.3379 27.6951 39.1644C26.8993 39.3399 26.0519 39.5855 25.1862 39.7083C22.3189 40.1164 19.5409 39.7287 16.8576 38.6485C16.6024 38.5451 16.4022 38.46 16.4043 38.0949C16.4215 34.7606 16.4151 31.4252 16.4162 28.0897C16.4162 28.024 16.4334 27.9584 16.442 27.8916C16.4905 27.8636 16.5389 27.8345 16.5874 27.8065L16.5863 27.8054Z" fill="#81CD45"/>
<path d="M14.9701 37.8365C14.45 37.5059 13.9741 37.228 13.5251 36.9114C10.8924 35.0579 8.80354 32.7467 7.53622 29.7483C7.42316 29.4823 7.38224 29.2917 7.63205 29.0451C10.002 26.6994 12.3557 24.3365 14.7138 21.98C14.7762 21.9176 14.8441 21.8605 14.9701 21.7463V37.8365Z" fill="#A6D049"/>
<path d="M24.1062 14.9712H8.19727C8.29848 14.7623 8.36416 14.6018 8.4503 14.4543C10.2969 11.2783 12.9199 8.97782 16.2933 7.53681C16.458 7.46681 16.7768 7.48942 16.8898 7.60358C19.2867 9.99988 21.6641 12.4156 24.0448 14.828C24.0663 14.8495 24.0706 14.8872 24.1062 14.9712Z" fill="#EE7D35"/>
</g>
</g>
<defs>
<filter id="filter0_d_24293_147232" x="-0.000519276" y="3.06663" width="45.9991" height="45.9999" filterUnits="userSpaceOnUse" color-interpolation-filters="sRGB">
<feFlood flood-opacity="0" result="BackgroundImageFix"/>
<feColorMatrix in="SourceAlpha" type="matrix" values="0 0 0 0 0 0 0 0 0 0 0 0 0 0 0 0 0 0 127 0" result="hardAlpha"/>
<feOffset dy="3.06667"/>
<feGaussianBlur stdDeviation="3.06667"/>
<feColorMatrix type="matrix" values="0 0 0 0 0 0 0 0 0 0 0 0 0 0 0 0 0 0 0.05 0"/>
<feBlend mode="normal" in2="BackgroundImageFix" result="effect1_dropShadow_24293_147232"/>
<feBlend mode="normal" in="SourceGraphic" in2="effect1_dropShadow_24293_147232" result="shape"/>
</filter>
<clipPath id="clip0_24293_147232">
<rect width="46" height="46" rx="23" fill="white"/>
</clipPath>
<clipPath id="clip1_24293_147232">
<rect width="33.7333" height="33.7333" fill="white" transform="translate(6.13281 6.1333)"/>
</clipPath>
</defs>
</svg>
