<svg width="46" height="46" viewBox="0 0 46 46" fill="none" xmlns="http://www.w3.org/2000/svg">
<rect width="46" height="46" rx="23" fill="url(#paint0_linear_24293_147254)"/>
<g clip-path="url(#clip0_24293_147254)">
<path d="M25.5338 20.4644C25.2611 20.1904 24.9592 19.9474 24.6331 19.7399C23.7693 19.1866 22.7648 18.8928 21.7388 18.8928C20.3148 18.8901 18.9488 19.4561 17.9439 20.4644L13.0682 25.3434C12.0647 26.3486 11.5009 27.7103 11.5 29.1305C11.4982 32.0939 13.8992 34.4977 16.8631 34.4995C18.2849 34.5045 19.6496 33.9417 20.6545 32.9356L24.6794 28.9113C24.7526 28.839 24.7935 28.7398 24.7926 28.6369C24.7912 28.4254 24.6187 28.2547 24.4072 28.256H24.254C23.413 28.2592 22.5798 28.0975 21.8008 27.7809C21.6571 27.7216 21.4922 27.7553 21.3831 27.8653L18.4888 30.7627C17.5899 31.6614 16.1332 31.6614 15.2343 30.7627C14.3354 29.864 14.3354 28.4074 15.2343 27.5087L20.1293 22.618C21.0273 21.7215 22.4818 21.7215 23.3798 22.618C23.9849 23.1875 24.9291 23.1875 25.5342 22.618C25.7948 22.3575 25.9524 22.0121 25.9789 21.6443C26.0068 21.2055 25.8451 20.7752 25.5342 20.4639L25.5338 20.4644Z" fill="white"/>
<path d="M32.9282 13.0718C30.8322 10.9761 27.4344 10.9761 25.3384 13.0718L21.3175 17.0884C21.207 17.1994 21.1751 17.366 21.2371 17.5102C21.2982 17.6543 21.441 17.7469 21.5974 17.7442H21.7393C22.5793 17.7428 23.4113 17.9054 24.1889 18.2234C24.3326 18.2827 24.4975 18.249 24.6066 18.139L27.4933 15.2568C28.3921 14.3581 29.8489 14.3581 30.7478 15.2568C31.6466 16.1556 31.6466 17.6121 30.7478 18.5108L27.1523 22.1022L27.1218 22.1368L25.8644 23.3863C24.9664 24.2827 23.5119 24.2827 22.6139 23.3863C22.0088 22.8168 21.0646 22.8168 20.4595 23.3863C20.1976 23.649 20.0395 23.9975 20.0148 24.3676C19.987 24.8064 20.1487 25.2367 20.4595 25.548C20.9033 25.9935 21.4222 26.3569 21.9927 26.621C22.0731 26.6591 22.1535 26.6901 22.2344 26.7243C22.3148 26.7589 22.3992 26.7853 22.4796 26.8163C22.56 26.8469 22.6445 26.8738 22.7249 26.8967L22.9513 26.9578C23.1045 26.996 23.2581 27.027 23.4153 27.0535C23.6044 27.0818 23.7954 27.0993 23.9863 27.1074H24.2774L24.5074 27.0804C24.5918 27.0768 24.6798 27.0575 24.7796 27.0575H24.9098L25.1744 27.0194L25.2971 26.9964L25.5194 26.9506H25.5616C26.5032 26.7139 27.363 26.2266 28.0494 25.5403L32.9291 20.6613C35.0252 18.5656 35.0252 15.1683 32.9291 13.0727L32.9282 13.0718Z" fill="white"/>
</g>
<defs>
<linearGradient id="paint0_linear_24293_147254" x1="8.30556" y1="5.79313" x2="39.2285" y2="40.3224" gradientUnits="userSpaceOnUse">
<stop stop-color="#AC42FF"/>
<stop offset="1" stop-color="#7D00FA"/>
</linearGradient>
<clipPath id="clip0_24293_147254">
<rect width="23" height="23" fill="white" transform="translate(11.5 11.5)"/>
</clipPath>
</defs>
</svg>
