<svg width="44" height="44" viewBox="0 0 44 44" fill="none" xmlns="http://www.w3.org/2000/svg">
<g clip-path="url(#clip0_2261_142177)">
<path d="M16.7912 27.2134C16.5034 26.9256 16.2339 26.6109 15.9901 26.2781C15.584 25.7208 15.7065 24.9379 16.2649 24.5317C16.8222 24.1256 17.604 24.2481 18.0113 24.8054C18.1724 25.0281 18.3541 25.242 18.5574 25.4442C19.5613 26.448 20.8951 27.0006 22.3144 27.0006C23.7337 27.0006 25.0687 26.448 26.0714 25.4442L32.9471 18.5684C35.0187 16.4969 35.0187 13.1249 32.9471 11.0539C30.8755 8.98294 27.5036 8.98235 25.4326 11.0539L24.11 12.3766C23.6212 12.8653 22.8313 12.8653 22.3419 12.3766C21.8526 11.8878 21.8532 11.0979 22.3419 10.6086L23.6646 9.28591C26.7113 6.23803 31.6684 6.23803 34.7151 9.28591C37.7618 12.3326 37.7618 17.2897 34.7151 20.3364L27.8394 27.2122C26.3644 28.6884 24.4012 29.5012 22.315 29.5012C20.2288 29.5012 18.2656 28.6884 16.7918 27.2134H16.7912ZM14.8134 37.0022C16.9014 37.0022 18.8628 36.1894 20.3378 34.7132L21.6604 33.3906C22.1491 32.903 22.1491 32.1119 21.6604 31.6226C21.1728 31.1338 20.3817 31.135 19.8924 31.6226L18.5686 32.9452C17.5647 33.949 16.2309 34.5017 14.8116 34.5017C13.3923 34.5017 12.0585 33.949 11.0547 32.9452C10.0508 31.9413 9.49819 30.6076 9.49819 29.1882C9.49819 27.7689 10.0508 26.434 11.0547 25.4313L17.9304 18.5555C18.9342 17.5517 20.268 16.9991 21.6874 16.9991C23.1067 16.9991 24.4416 17.5517 25.4443 18.5555C25.6441 18.7565 25.827 18.9704 25.9893 19.1931C26.3943 19.7522 27.176 19.877 27.7356 19.4691C28.2947 19.063 28.4184 18.2813 28.0117 17.7228C27.7743 17.3952 27.5053 17.0817 27.2129 16.7887C25.7367 15.3108 23.7736 14.4985 21.6874 14.4985C19.6011 14.4985 17.638 15.3113 16.163 16.7875L9.2884 23.6633C7.81281 25.1394 7 27.102 7 29.1882C7 31.2745 7.81281 33.2376 9.28899 34.7126C10.764 36.1888 12.726 37.0016 14.8134 37.0016V37.0022Z" fill="white"/>
</g>
<defs>
<clipPath id="clip0_2261_142177">
<rect width="30" height="30.0023" fill="white" transform="translate(7 7)"/>
</clipPath>
</defs>
</svg>
