<svg width="46" height="46" viewBox="0 0 46 46" fill="none" xmlns="http://www.w3.org/2000/svg">
<rect width="46" height="46" rx="23" fill="url(#paint0_linear_24293_147221)"/>
<path d="M23.5639 8.23693C34.9991 8.81824 39.6841 15.7603 39.4167 22.1383C39.0464 30.9499 23.3601 40.1863 22.0101 39.4467C21.0458 38.9181 22.4959 36.1016 21.679 35.3484C20.862 34.5951 9.17577 33.6208 6.91421 24.51C4.65265 15.3991 13.9263 7.74659 23.5639 8.23693Z" fill="white"/>
<path d="M19.1361 25.9125C18.6903 25.9125 18.3301 25.5513 18.3301 25.1064V18.4464C18.3301 18.0006 18.6912 17.6404 19.1361 17.6404C19.5819 17.6404 19.9421 18.0015 19.9421 18.4464V25.1064C19.943 25.5513 19.5819 25.9125 19.1361 25.9125Z" fill="#4CAF50"/>
<path d="M26.9902 25.9129C26.7382 25.9129 26.4935 25.7937 26.3388 25.5827L22.9265 20.9158V25.1069C22.9265 25.5526 22.5653 25.9129 22.1205 25.9129C21.6756 25.9129 21.3145 25.5517 21.3145 25.1069V18.4468C21.3145 18.0975 21.5392 17.7882 21.8703 17.6799C22.2023 17.5717 22.5653 17.689 22.7718 17.9701L26.1842 22.637V18.4459C26.1842 18.0001 26.5453 17.6399 26.9902 17.6399C27.435 17.6399 27.7962 18.0011 27.7962 18.4459V25.106C27.7962 25.4553 27.5715 25.7646 27.2404 25.8729C27.1576 25.9001 27.073 25.9129 26.9902 25.9129Z" fill="#4CAF50"/>
<path d="M33.2116 22.5834C33.6565 22.5834 34.0177 22.2223 34.0177 21.7774C34.0177 21.3326 33.6565 20.9714 33.2116 20.9714H30.7663V19.2539H33.2116C33.6565 19.2539 34.0177 18.8927 34.0177 18.4479C34.0177 18.0021 33.6565 17.6418 33.2116 17.6418H29.9603C29.5155 17.6418 29.1543 18.003 29.1543 18.4479V25.1079C29.1543 25.5537 29.5155 25.9139 29.9603 25.9139H33.2116C33.6565 25.9139 34.0177 25.5528 34.0177 25.1079C34.0177 24.6621 33.6565 24.3019 33.2116 24.3019H30.7663V22.5844H33.2116V22.5834Z" fill="#4CAF50"/>
<path d="M16.6706 25.9126H13.4193C12.9735 25.9126 12.6133 25.5514 12.6133 25.1066V18.4465C12.6133 18.0008 12.9744 17.6405 13.4193 17.6405C13.8641 17.6405 14.2253 18.0017 14.2253 18.4465V24.3006H16.6706C17.1164 24.3006 17.4766 24.6617 17.4766 25.1066C17.4776 25.5514 17.1164 25.9126 16.6706 25.9126Z" fill="#4CAF50"/>
<defs>
<linearGradient id="paint0_linear_24293_147221" x1="9.85714" y1="5.75" x2="36.1429" y2="42.7143" gradientUnits="userSpaceOnUse">
<stop stop-color="#72C475"/>
<stop offset="1" stop-color="#00C408"/>
</linearGradient>
</defs>
</svg>
