<svg width="46" height="46" viewBox="0 0 46 46" fill="none" xmlns="http://www.w3.org/2000/svg">
<rect width="46" height="46" rx="23" fill="url(#paint0_radial_24293_147214)"/>
<path fill-rule="evenodd" clip-rule="evenodd" d="M7.64453 22.5379C7.64453 13.9783 14.3533 7.63818 23.0051 7.63818C31.657 7.63818 38.3657 13.9821 38.3657 22.5418C38.3657 31.1015 31.657 37.4415 23.0051 37.4415C21.4498 37.4415 19.9599 37.2342 18.5582 36.8502C18.2856 36.7772 17.9937 36.7964 17.7364 36.9116L14.6874 38.2557C13.8886 38.6089 12.99 38.0406 12.9631 37.1689L12.8786 34.4347C12.871 34.0968 12.7174 33.7819 12.4678 33.5592C9.48012 30.8864 7.64453 27.0156 7.64453 22.5379ZM18.2933 19.7383L13.7811 26.8963C13.3472 27.5837 14.192 28.3556 14.8371 27.864L19.6834 24.1852C20.0098 23.9356 20.4629 23.9356 20.7932 24.1813L24.3837 26.8733C25.4628 27.6797 26.9989 27.3994 27.717 26.2589L32.233 19.1047C32.6631 18.4173 31.8182 17.6416 31.1731 18.1331L26.3268 21.812C26.0004 22.0616 25.5473 22.0616 25.217 21.8158L21.6265 19.1239C20.5474 18.3174 19.0114 18.5978 18.2933 19.7383Z" fill="white"/>
<defs>
<radialGradient id="paint0_radial_24293_147214" cx="0" cy="0" r="1" gradientUnits="userSpaceOnUse" gradientTransform="translate(8.855 45.7531) scale(50.1216 50.1171)">
<stop stop-color="#0099FF"/>
<stop offset="0.6098" stop-color="#A033FF"/>
<stop offset="0.9348" stop-color="#FF5280"/>
<stop offset="1" stop-color="#FF7061"/>
</radialGradient>
</defs>
</svg>
