<svg width="46" height="46" viewBox="0 0 46 46" fill="none" xmlns="http://www.w3.org/2000/svg">
<g clip-path="url(#clip0_24293_147250)">
<rect width="46" height="46" rx="23" fill="url(#paint0_linear_24293_147250)"/>
<g filter="url(#filter0_d_24293_147250)">
<path d="M31.2901 20.7082C31.5165 19.9136 31.6423 19.0667 31.6423 18.1936C31.6423 13.2254 27.7766 9.2002 23.0052 9.2002C18.2339 9.2002 14.3682 13.2254 14.3682 18.1936C14.3682 19.0667 14.494 19.9136 14.7204 20.7082C13.6303 21.6163 9.41238 25.5629 11.1482 30.6707C11.1482 30.6707 12.6156 30.5398 13.8231 28.2172C14.1921 29.7016 14.8713 31.0549 15.8021 32.1813C14.4353 32.6004 13.5129 33.4124 13.5129 34.3379C13.5129 35.7 15.4835 36.8002 17.9069 36.8002C19.5588 36.8002 20.9927 36.2938 21.739 35.5429C22.1499 35.604 22.5692 35.6389 22.9968 35.6389C23.4245 35.6389 23.8438 35.5953 24.2547 35.5429C25.0094 36.2938 26.4433 36.8002 28.0868 36.8002C30.5186 36.8002 32.4892 35.7 32.4892 34.3379C32.4892 33.4037 31.5668 32.5917 30.2 32.1813C31.1308 31.0549 31.81 29.7016 32.1789 28.2172C33.3864 30.5398 34.8539 30.6707 34.8539 30.6707C36.5897 25.5541 32.3718 21.6163 31.2817 20.7082H31.2901Z" fill="white"/>
</g>
</g>
<defs>
<filter id="filter0_d_24293_147250" x="4.60104" y="6.13353" width="36.7999" height="39.8666" filterUnits="userSpaceOnUse" color-interpolation-filters="sRGB">
<feFlood flood-opacity="0" result="BackgroundImageFix"/>
<feColorMatrix in="SourceAlpha" type="matrix" values="0 0 0 0 0 0 0 0 0 0 0 0 0 0 0 0 0 0 127 0" result="hardAlpha"/>
<feOffset dy="3.06667"/>
<feGaussianBlur stdDeviation="3.06667"/>
<feComposite in2="hardAlpha" operator="out"/>
<feColorMatrix type="matrix" values="0 0 0 0 0 0 0 0 0 0 0 0 0 0 0 0 0 0 0.05 0"/>
<feBlend mode="normal" in2="BackgroundImageFix" result="effect1_dropShadow_24293_147250"/>
<feBlend mode="normal" in="SourceGraphic" in2="effect1_dropShadow_24293_147250" result="shape"/>
</filter>
<linearGradient id="paint0_linear_24293_147250" x1="10.7333" y1="3.06667" x2="34.5" y2="42.9333" gradientUnits="userSpaceOnUse">
<stop stop-color="#5BB3FF"/>
<stop offset="1" stop-color="#1894FF"/>
</linearGradient>
<clipPath id="clip0_24293_147250">
<rect width="46" height="46" rx="23" fill="white"/>
</clipPath>
</defs>
</svg>
