<svg width="46" height="46" viewBox="0 0 46 46" fill="none" xmlns="http://www.w3.org/2000/svg">
<rect width="46" height="46" rx="23" fill="url(#paint0_linear_24293_147219)"/>
<path fill-rule="evenodd" clip-rule="evenodd" d="M10.4124 22.7572C17.1174 19.8359 21.5884 17.91 23.8255 16.9796C30.2129 14.3228 31.5401 13.8613 32.4052 13.8461C32.5954 13.8428 33.0209 13.8899 33.2964 14.1135C33.5291 14.3023 33.5931 14.5574 33.6238 14.7364C33.6544 14.9154 33.6925 15.3232 33.6622 15.6418C33.3161 19.2787 31.8184 28.1043 31.0564 32.1776C30.734 33.9012 30.0992 34.4791 29.4846 34.5357C28.1489 34.6586 27.1347 33.653 25.8411 32.805C23.8168 31.478 22.6732 30.652 20.7082 29.3571C18.4374 27.8607 19.9095 27.0382 21.2036 25.6941C21.5423 25.3423 27.4272 19.9895 27.5411 19.504C27.5554 19.4432 27.5686 19.2169 27.4341 19.0973C27.2996 18.9778 27.1011 19.0187 26.9579 19.0512C26.7549 19.0973 23.521 21.2347 17.2564 25.4635C16.3384 26.0938 15.507 26.4009 14.7621 26.3848C13.9409 26.3671 12.3612 25.9205 11.1868 25.5388C9.74646 25.0706 8.60168 24.823 8.70136 24.0279C8.75329 23.6137 9.32364 23.1901 10.4124 22.7572Z" fill="white"/>
<defs>
<linearGradient id="paint0_linear_24293_147219" x1="23" y1="0" x2="23" y2="45.6588" gradientUnits="userSpaceOnUse">
<stop stop-color="#2AABEE"/>
<stop offset="1" stop-color="#229ED9"/>
</linearGradient>
</defs>
</svg>
