<svg width="386" height="386" viewBox="0 0 386 386" fill="none" xmlns="http://www.w3.org/2000/svg">
<rect width="386" height="386" rx="40" fill="black"/>
<rect x="52" y="50" width="282" height="285" fill="white"/>
<path d="M203.94 187.719L277 292H247.016L187.397 206.906V206.901L178.644 194.41L109 95H138.984L195.187 175.227L203.94 187.719Z" fill="black"/>
<path d="M319.991 31H66.0089C46.6745 31 31 46.6745 31 66.0089V319.991C31 339.325 46.6745 355 66.0089 355H319.991C339.325 355 355 339.325 355 319.991V66.0089C355 46.6745 339.325 31 319.991 31ZM237.658 305.758L177.45 218.133L102.069 305.758H82.5865L168.799 205.548L82.5865 80.0753H148.342L205.355 163.05L276.736 80.0753H296.218L214.009 175.638H214.003L303.414 305.758H237.658Z" fill="black"/>
</svg>
