<svg width="46" height="46" viewBox="0 0 46 46" fill="none" xmlns="http://www.w3.org/2000/svg">
<rect width="46" height="46" rx="23" fill="#00C70A"/>
<path d="M36.1172 33.1523C38.1836 31.625 39.5312 29.3789 39.5312 26.8633C39.5312 22.2812 35.0391 18.5977 29.5586 18.5977C24.0781 18.5977 19.6758 22.2812 19.6758 26.8633C19.6758 31.4453 24.0781 35.1289 29.5586 35.1289C30.7266 35.1289 31.8047 34.9492 32.793 34.6797C33.1523 34.5898 33.5117 34.6797 33.6016 34.7695L35.8477 36.0273C36.1172 36.207 36.3867 36.0273 36.2969 35.668L35.7578 33.6914C35.7578 33.4219 35.9375 33.2422 36.1172 33.1523ZM26.2344 25.5156C26.0349 25.5685 25.8259 25.5748 25.6236 25.5341C25.4212 25.4934 25.2309 25.4068 25.0674 25.2809C24.9038 25.155 24.7714 24.9932 24.6802 24.8081C24.5891 24.6229 24.5417 24.4193 24.5417 24.2129C24.5417 24.0065 24.5891 23.8029 24.6802 23.6177C24.7714 23.4325 24.9038 23.2708 25.0674 23.1449C25.2309 23.019 25.4212 22.9324 25.6236 22.8917C25.8259 22.851 26.0349 22.8573 26.2344 22.9102C26.5218 22.9863 26.776 23.1553 26.9573 23.391C27.1387 23.6266 27.237 23.9156 27.237 24.2129C27.237 24.5102 27.1387 24.7992 26.9573 25.0348C26.776 25.2705 26.5218 25.4395 26.2344 25.5156ZM32.8828 25.5156C32.6833 25.5685 32.4743 25.5748 32.272 25.5341C32.0697 25.4934 31.8794 25.4068 31.7158 25.2809C31.5523 25.155 31.4198 24.9932 31.3287 24.8081C31.2375 24.6229 31.1901 24.4193 31.1901 24.2129C31.1901 24.0065 31.2375 23.8029 31.3287 23.6177C31.4198 23.4325 31.5523 23.2708 31.7158 23.1449C31.8794 23.019 32.0697 22.9324 32.272 22.8917C32.4743 22.851 32.6833 22.8573 32.8828 22.9102C33.1702 22.9863 33.4244 23.1553 33.6057 23.391C33.7871 23.6266 33.8854 23.9156 33.8854 24.2129C33.8854 24.5102 33.7871 24.7992 33.6057 25.0348C33.4244 25.2705 33.1702 25.4395 32.8828 25.5156Z" fill="white"/>
<path d="M18.418 9.43359C11.8594 9.43359 6.55859 13.9258 6.55859 19.4062C6.55859 22.3711 8.08594 25.0664 10.6016 26.8633C10.8711 27.043 11.0508 27.3125 10.9609 27.7617L10.332 29.918C10.2422 30.3672 10.6016 30.5469 10.8711 30.457L13.5664 28.9297C13.8359 28.75 14.1953 28.6602 14.5547 28.75C16.8906 29.4687 18.8672 29.2891 19.1367 29.2891C16.9805 21.7422 24.4375 17.4297 30.1875 17.7891C29.2891 13.1172 24.3477 9.43359 18.418 9.43359ZM14.4648 17.7891C14.2271 17.8463 13.9794 17.8489 13.7405 17.7966C13.5016 17.7443 13.2776 17.6385 13.0855 17.4871C12.8934 17.3358 12.7381 17.1428 12.6314 16.9228C12.5246 16.7027 12.4691 16.4614 12.4691 16.2168C12.4691 15.9722 12.5246 15.7308 12.6314 15.5108C12.7381 15.2908 12.8934 15.0978 13.0855 14.9465C13.2776 14.7951 13.5016 14.6893 13.7405 14.637C13.9794 14.5847 14.2271 14.5873 14.4648 14.6445C14.8178 14.7295 15.132 14.9308 15.3566 15.216C15.5813 15.5012 15.7035 15.8537 15.7035 16.2168C15.7035 16.5799 15.5813 16.9324 15.3566 17.2176C15.132 17.5028 14.8178 17.7041 14.4648 17.7891ZM22.4609 17.7891C22.2232 17.8463 21.9755 17.8489 21.7366 17.7966C21.4977 17.7443 21.2737 17.6385 21.0816 17.4871C20.8895 17.3358 20.7342 17.1428 20.6275 16.9228C20.5207 16.7027 20.4652 16.4614 20.4652 16.2168C20.4652 15.9722 20.5207 15.7308 20.6275 15.5108C20.7342 15.2908 20.8895 15.0978 21.0816 14.9465C21.2737 14.7951 21.4977 14.6893 21.7366 14.637C21.9755 14.5847 22.2232 14.5873 22.4609 14.6445C22.8139 14.7295 23.128 14.9308 23.3527 15.216C23.5774 15.5012 23.6996 15.8537 23.6996 16.2168C23.6996 16.5799 23.5774 16.9324 23.3527 17.2176C23.128 17.5028 22.8139 17.7041 22.4609 17.7891Z" fill="white"/>
</svg>
