<svg width="46" height="46" viewBox="0 0 46 46" fill="none" xmlns="http://www.w3.org/2000/svg">
<g clip-path="url(#clip0_24293_147242)">
<rect width="46" height="46" rx="23" fill="url(#paint0_linear_24293_147242)"/>
<g filter="url(#filter0_d_24293_147242)">
<g clip-path="url(#clip1_24293_147242)">
<ellipse cx="21.1331" cy="27.1445" rx="10.0941" ry="7.85094" fill="white"/>
<path d="M33.6998 22.5934C33.1493 22.2461 32.5327 21.9649 31.85 21.7491C31.706 21.7012 31.604 21.6654 31.5443 21.6415C31.4845 21.6176 31.4121 21.5729 31.3291 21.5068C31.2454 21.4408 31.2177 21.3659 31.2485 21.2822C31.2787 21.1985 31.3052 21.079 31.3291 20.923C31.8676 19.5457 31.8676 18.4799 31.3291 17.7256C30.7779 16.9951 29.8619 16.6296 28.5803 16.6296C27.2987 16.6296 25.8258 16.9831 24.1616 17.6897L24.0534 17.7256C23.9817 17.7495 23.9012 17.7702 23.8112 17.7885C23.7212 17.8067 23.6344 17.8092 23.5507 17.7973C23.467 17.7853 23.4073 17.7438 23.3714 17.6715C23.3355 17.5997 23.3418 17.4796 23.3897 17.3122C23.9282 15.5757 23.8087 14.3243 23.0304 13.558C22.1445 12.6721 20.6685 12.63 18.6023 13.4321C16.5368 14.235 14.492 15.6474 12.468 17.6715C10.9354 19.2041 9.75252 20.7493 8.92014 22.3059C8.08775 23.8637 7.67188 25.3303 7.67188 26.7075C7.67188 28.0004 8.06133 29.1952 8.8396 30.2912C9.61851 31.3872 10.6447 32.2913 11.9206 33.0036C13.1959 33.7158 14.6361 34.2732 16.2405 34.674C17.8455 35.0748 19.492 35.2755 21.18 35.2755C22.8681 35.2755 24.4882 35.0899 26.0391 34.7187C27.59 34.3474 28.9433 33.8504 30.0984 33.2275C31.2542 32.6053 32.2634 31.9013 33.1253 31.1167C33.9879 30.3321 34.6404 29.5123 35.0833 28.656C35.5262 27.7997 35.7483 26.9642 35.7483 26.1507C35.7483 25.3844 35.5451 24.6866 35.1374 24.0581C34.7303 23.4289 34.2515 22.9407 33.6998 22.5934ZM27.8353 30.8304C26.0812 32.2492 23.8685 33.0967 21.1983 33.3722C19.4498 33.5402 17.8065 33.4144 16.2675 32.9954C14.7286 32.5757 13.4803 31.9233 12.5221 31.0374C11.5639 30.1509 11.031 29.1329 10.9234 27.9835C10.7554 26.235 11.5488 24.6514 13.3035 23.2326C15.0576 21.8132 17.2704 20.9664 19.9406 20.6908C21.689 20.5228 23.3324 20.6487 24.8707 21.0683C26.409 21.4873 27.6579 22.1398 28.6161 23.0263C29.5743 23.9128 30.1072 24.9307 30.2148 26.0802C30.3822 27.8287 29.5894 29.4123 27.8347 30.8317L27.8353 30.8304Z" fill="#D33437"/>
<path d="M21.7218 23.3851C20.4528 23.0617 19.1919 23.1756 17.9405 23.7267C16.6891 24.2772 15.7819 25.1096 15.2194 26.2232C14.6563 27.3608 14.6173 28.4832 15.1024 29.5911C15.5874 30.6991 16.4708 31.456 17.7518 31.8637C19.0812 32.2947 20.4226 32.2229 21.7753 31.6479C23.1286 31.0728 24.0742 30.175 24.6134 28.9538C25.152 27.7559 25.1369 26.6152 24.5681 25.5318C23.9987 24.4484 23.05 23.733 21.7212 23.3857L21.7218 23.3851ZM19.7997 29.2048C19.5361 29.6119 19.1624 29.8963 18.6766 30.058C18.1916 30.2197 17.7455 30.2046 17.3384 30.0133C16.9313 29.8214 16.674 29.5194 16.5664 29.1061C16.4588 28.6933 16.5362 28.2831 16.7998 27.876C17.0509 27.4803 17.4108 27.2054 17.8776 27.0499C18.3451 26.8939 18.7817 26.9002 19.1888 27.0676C19.6078 27.2469 19.8777 27.5464 19.9973 27.9654C20.1168 28.3844 20.0514 28.7971 19.7997 29.2048ZM21.4884 27.0311C21.4047 27.1871 21.2726 27.2978 21.0933 27.3639C20.914 27.43 20.7397 27.4325 20.5723 27.3727C20.2131 27.2047 20.135 26.9354 20.3389 26.5642C20.4226 26.4082 20.5516 26.2975 20.7252 26.2314C20.8989 26.1653 21.0694 26.1628 21.2373 26.2226C21.3927 26.2824 21.4978 26.3931 21.5519 26.5548C21.606 26.7159 21.5846 26.875 21.489 27.0304L21.4884 27.0311Z" fill="black"/>
<path d="M33.3433 19.1538C33.4754 19.4111 33.6786 19.5879 33.9542 19.6835C34.2297 19.7672 34.4959 19.7433 34.7532 19.6118C35.0105 19.4803 35.1873 19.2764 35.2836 19.0009C35.5107 18.3302 35.5504 17.6268 35.4 16.8907C35.2503 16.1545 34.9243 15.5046 34.4216 14.9415C33.9189 14.3784 33.3137 13.9864 32.6071 13.765C31.9006 13.5435 31.1877 13.5108 30.4699 13.6662C30.1817 13.726 29.9609 13.8788 29.8048 14.1242C29.6494 14.3696 29.6016 14.6364 29.662 14.9233C29.7098 15.2108 29.8596 15.4322 30.1106 15.5877C30.3623 15.7431 30.6316 15.7915 30.9191 15.7317C31.6735 15.5757 32.3139 15.7858 32.8412 16.3603C33.3684 16.9347 33.5119 17.5997 33.2722 18.3541C33.1879 18.6297 33.2118 18.8958 33.3433 19.1538Z" fill="#F19F4B"/>
<path d="M39.6964 16.01C39.3907 14.4956 38.7175 13.1631 37.6756 12.0136C36.6337 10.8521 35.3879 10.0468 33.939 9.59758C32.49 9.14835 31.0297 9.07977 29.5562 9.39121C29.2208 9.46294 28.9604 9.63973 28.7748 9.92097C28.5892 10.2028 28.5325 10.5111 28.6043 10.8465C28.676 11.1818 28.8553 11.4423 29.1435 11.6279C29.4304 11.8135 29.7418 11.8707 30.0771 11.7984C31.119 11.5832 32.1553 11.6342 33.1852 11.9513C34.2152 12.2684 35.1016 12.8403 35.8441 13.6664C36.5865 14.4805 37.0659 15.4268 37.2811 16.5045C37.4969 17.5823 37.4371 18.6122 37.1018 19.5937C37.0061 19.9171 37.0357 20.2286 37.1917 20.528C37.3471 20.8275 37.5868 21.0307 37.9102 21.139C38.2336 21.2466 38.5451 21.2226 38.8445 21.0672C39.144 20.9118 39.3479 20.6721 39.4555 20.3487C39.9223 18.9715 40.0028 17.5257 39.6977 16.0106L39.6964 16.01Z" fill="#F19F4B"/>
</g>
</g>
</g>
<defs>
<filter id="filter0_d_24293_147242" x="1.53854" y="6.13316" width="44.4659" height="38.343" filterUnits="userSpaceOnUse" color-interpolation-filters="sRGB">
<feFlood flood-opacity="0" result="BackgroundImageFix"/>
<feColorMatrix in="SourceAlpha" type="matrix" values="0 0 0 0 0 0 0 0 0 0 0 0 0 0 0 0 0 0 127 0" result="hardAlpha"/>
<feOffset dy="3.06667"/>
<feGaussianBlur stdDeviation="3.06667"/>
<feColorMatrix type="matrix" values="0 0 0 0 0 0 0 0 0 0 0 0 0 0 0 0 0 0 0.05 0"/>
<feBlend mode="normal" in2="BackgroundImageFix" result="effect1_dropShadow_24293_147242"/>
<feBlend mode="normal" in="SourceGraphic" in2="effect1_dropShadow_24293_147242" result="shape"/>
</filter>
<linearGradient id="paint0_linear_24293_147242" x1="12.2667" y1="1.53333" x2="32.2" y2="43.7" gradientUnits="userSpaceOnUse">
<stop stop-color="#FFED8F"/>
<stop offset="1" stop-color="#FFDE2F"/>
</linearGradient>
<clipPath id="clip0_24293_147242">
<rect width="46" height="46" rx="23" fill="white"/>
</clipPath>
<clipPath id="clip1_24293_147242">
<rect width="32.2" height="26.0763" fill="white" transform="translate(7.67188 9.19983)"/>
</clipPath>
</defs>
</svg>
