<svg width="55" height="54" viewBox="0 0 55 54" fill="none" xmlns="http://www.w3.org/2000/svg">
<g id="fi_8373422">
<g id="Group">
<path id="Vector" fill-rule="evenodd" clip-rule="evenodd" d="M27.5 9C17.5589 9 9.5 17.0589 9.5 26.9999C9.5 36.9411 17.5589 44.9999 27.5 44.9999C37.4412 44.9999 45.5 36.9411 45.5 26.9999C45.5 17.0589 37.4412 9 27.5 9ZM5 26.9999C5 14.5736 15.0736 4.5 27.5 4.5C39.9263 4.5 50 14.5736 50 26.9999C50 39.4264 39.9263 49.4999 27.5 49.4999C15.0736 49.4999 5 39.4264 5 26.9999Z" fill="#DE173E"/>
<path id="Vector_2" fill-rule="evenodd" clip-rule="evenodd" d="M24.125 36C24.125 34.1361 25.6361 32.625 27.5 32.625H27.5225C29.3864 32.625 30.8975 34.1361 30.8975 36V36.0225C30.8975 37.8864 29.3864 39.3975 27.5225 39.3975H27.5C25.6361 39.3975 24.125 37.8864 24.125 36.0225V36Z" fill="#DE173E"/>
<path id="Vector_3" fill-rule="evenodd" clip-rule="evenodd" d="M27.5 29.25C26.2573 29.25 25.25 28.2427 25.25 27V18C25.25 16.7574 26.2573 15.75 27.5 15.75C28.7427 15.75 29.75 16.7574 29.75 18V27C29.75 28.2427 28.7427 29.25 27.5 29.25Z" fill="#DE173E"/>
</g>
</g>
</svg>
