<svg width="50" height="50" viewBox="0 0 50 50" fill="none" xmlns="http://www.w3.org/2000/svg">
<g opacity="0.3">
<rect x="1.60721" y="1.60721" width="46.7857" height="46.7857" rx="23.3929" stroke="white" stroke-width="1.78571"/>
<path d="M8.48267 19.6431H41.5184V21.2502H8.48267V19.6431Z" fill="white"/>
<path d="M8.48242 30.0894H41.5181V31.6965H8.48242V30.0894Z" fill="white"/>
<path d="M24.062 4.26709V7.48138H25.6692V5.07066V4.26709H24.062Z" fill="white"/>
<path d="M24.062 42.8394H25.6692V46.0536H24.062V42.8394Z" fill="white"/>
<path d="M18.6841 5.18408L20.2364 4.76788L21.0688 7.87251L19.5165 8.28871L18.6841 5.18408Z" fill="white"/>
<path d="M28.6758 42.4419L30.2281 42.0257L31.0605 45.1303L29.5082 45.5465L28.6758 42.4419Z" fill="white"/>
<path d="M13.7224 7.46826L15.1142 6.66469L16.7213 9.44826L15.3296 10.2518L13.7224 7.46826Z" fill="white"/>
<path d="M33.0073 40.8726L34.3991 40.069L36.0063 42.8526L34.6145 43.6561L33.0073 40.8726Z" fill="white"/>
<path d="M31.1431 5.35791L29.5972 4.91855L28.7185 8.01032L30.2643 8.44968L31.1431 5.35791Z" fill="white"/>
<path d="M9.52051 10.9556L10.6569 9.81915L12.9298 12.092L11.7934 13.2284L9.52051 10.9556Z" fill="white"/>
<path d="M36.7896 38.2251L37.926 37.0887L40.1988 39.3615L39.0624 40.4979L36.7896 38.2251Z" fill="white"/>
<path d="M6.36914 15.4097L7.17271 14.0179L9.95628 15.625L9.15271 17.0168L6.36914 15.4097Z" fill="white"/>
<path d="M39.7729 34.6948L40.5765 33.303L43.3601 34.9102L42.5565 36.302L39.7729 34.6948Z" fill="white"/>
<path d="M43.3599 15.0522L42.5563 13.6605L39.7727 15.2676L40.5763 16.6594L43.3599 15.0522Z" fill="white"/>
<path d="M6.36914 34.9106L9.15271 33.3035L9.95628 34.6953L7.17271 36.3024L6.36914 34.9106Z" fill="white"/>
<path d="M9.51855 39.3628L11.7914 37.09L12.9278 38.2264L10.655 40.4992L9.51855 39.3628Z" fill="white"/>
<path d="M36.793 12.0952L39.0658 9.82237L40.2022 10.9588L37.9294 13.2316L36.793 12.0952Z" fill="white"/>
<path d="M13.7212 42.8579L15.3283 40.0743L16.7201 40.8779L15.113 43.6615L13.7212 42.8579Z" fill="white"/>
<path d="M33.0103 9.45166L34.6174 6.66809L36.0092 7.47166L34.402 10.2552L33.0103 9.45166Z" fill="white"/>
<path d="M18.6877 45.1401L19.5201 42.0355L21.0725 42.4517L20.2401 45.5563L18.6877 45.1401Z" fill="white"/>
<path d="M10.8607 28.5356V22.8738H14.6118V23.8508H12.0457V25.2162H14.4666V26.1265H12.0457V27.5586H14.6118V28.5356H10.8607ZM15.4318 28.5356L16.7855 26.3972L15.42 24.2157H16.7345L17.4996 25.6478H17.5702L18.3353 24.2157H19.5831L18.2216 26.3502L19.5909 28.5356H18.3236L17.5153 27.1074H17.4447L16.6403 28.5356H15.4318ZM20.4149 29.9678V24.2157H21.5606V24.8827H21.6312C21.7071 24.7284 21.8065 24.5963 21.9294 24.4864C22.055 24.3765 22.2015 24.2928 22.3689 24.2353C22.5363 24.1751 22.722 24.145 22.9261 24.145C23.287 24.145 23.5983 24.2353 23.8599 24.4158C24.1215 24.5963 24.3229 24.8526 24.4641 25.1848C24.608 25.5144 24.6799 25.9094 24.6799 26.3698V26.3776C24.6799 26.8406 24.6093 27.2382 24.4681 27.5704C24.3268 27.9026 24.1254 28.1577 23.8638 28.3355C23.6022 28.5134 23.2897 28.6023 22.9261 28.6023C22.7273 28.6023 22.5428 28.5723 22.3728 28.5121C22.2054 28.4493 22.0576 28.3617 21.9294 28.2492C21.8039 28.1367 21.7045 28.002 21.6312 27.8451H21.5606V29.9678H20.4149ZM22.5337 27.6528C22.7377 27.6528 22.9117 27.6018 23.0555 27.4998C23.202 27.3978 23.3145 27.2513 23.393 27.0603C23.4741 26.8694 23.5146 26.6418 23.5146 26.3776V26.3698C23.5146 26.1056 23.4741 25.878 23.393 25.687C23.3145 25.4961 23.202 25.3496 23.0555 25.2476C22.9117 25.1456 22.7377 25.0946 22.5337 25.0946C22.3323 25.0946 22.157 25.1456 22.0079 25.2476C21.8614 25.3496 21.7476 25.4961 21.6666 25.687C21.5881 25.8754 21.5488 26.103 21.5488 26.3698V26.3776C21.5488 26.6392 21.5894 26.8668 21.6705 27.0603C21.7516 27.2513 21.8654 27.3978 22.0118 27.4998C22.1609 27.6018 22.3349 27.6528 22.5337 27.6528ZM25.6256 28.5356V24.2157H26.7713V28.5356H25.6256ZM26.2023 23.5526C26.0271 23.5526 25.8754 23.4911 25.7472 23.3681C25.619 23.2426 25.5549 23.0922 25.5549 22.9169C25.5549 22.739 25.619 22.5886 25.7472 22.4657C25.8754 22.3401 26.0271 22.2774 26.2023 22.2774C26.3802 22.2774 26.5319 22.3401 26.6575 22.4657C26.783 22.5886 26.8458 22.739 26.8458 22.9169C26.8458 23.0922 26.783 23.2426 26.6575 23.3681C26.5319 23.4911 26.3802 23.5526 26.2023 23.5526ZM27.9248 28.5356V24.2157H29.0706V24.8866H29.1412C29.2118 24.6512 29.3413 24.4694 29.5296 24.3412C29.718 24.2104 29.9521 24.145 30.232 24.145C30.3104 24.145 30.3863 24.1503 30.4595 24.1607C30.5354 24.1712 30.6021 24.1843 30.6597 24.2V25.2005C30.5733 25.1796 30.4857 25.1639 30.3968 25.1534C30.3104 25.1403 30.2228 25.1338 30.1339 25.1338C29.9168 25.1338 29.7284 25.1744 29.5689 25.2554C29.4093 25.3339 29.2864 25.4464 29.2 25.5929C29.1137 25.7394 29.0706 25.9146 29.0706 26.1187V28.5356H27.9248ZM33.2297 28.6259C32.7928 28.6259 32.4162 28.5356 32.0996 28.3552C31.7858 28.172 31.5438 27.9131 31.3738 27.5783C31.2037 27.2434 31.1187 26.8445 31.1187 26.3815V26.3776C31.1187 25.9199 31.2024 25.5223 31.3698 25.1848C31.5399 24.8474 31.7792 24.5858 32.0879 24.4001C32.3992 24.2144 32.7641 24.1215 33.1826 24.1215C33.6037 24.1215 33.9673 24.2117 34.2734 24.3922C34.5794 24.5727 34.8148 24.8251 34.9796 25.1495C35.1444 25.4739 35.2268 25.8545 35.2268 26.2913V26.6484H31.6916V25.9303H34.6775L34.14 26.6091V26.15C34.14 25.8911 34.0994 25.6753 34.0183 25.5026C33.9399 25.33 33.83 25.2005 33.6887 25.1142C33.5501 25.0253 33.3879 24.9808 33.2022 24.9808C33.0191 24.9808 32.8556 25.0266 32.7117 25.1181C32.5705 25.207 32.458 25.3391 32.3743 25.5144C32.2932 25.687 32.2527 25.8989 32.2527 26.15V26.613C32.2527 26.8563 32.2932 27.0643 32.3743 27.2369C32.4554 27.4095 32.5705 27.5416 32.7196 27.6332C32.8687 27.7247 33.0466 27.7705 33.2532 27.7705C33.4206 27.7705 33.5632 27.7457 33.6809 27.696C33.7986 27.6463 33.8928 27.5887 33.9634 27.5233C34.0366 27.4553 34.0863 27.3939 34.1125 27.3389L34.1243 27.3154H35.1915L35.1837 27.3546C35.1497 27.4906 35.0882 27.6332 34.9993 27.7823C34.9103 27.9288 34.7874 28.0661 34.6304 28.1943C34.4761 28.3225 34.2825 28.4271 34.0497 28.5082C33.8195 28.5867 33.5462 28.6259 33.2297 28.6259ZM37.7066 28.6023C37.3482 28.6023 37.037 28.5134 36.7728 28.3355C36.5112 28.155 36.3085 27.8987 36.1646 27.5665C36.0233 27.2343 35.9527 26.838 35.9527 26.3776V26.3698C35.9527 25.9068 36.022 25.5092 36.1607 25.177C36.3019 24.8448 36.5033 24.5897 36.7649 24.4118C37.0265 24.234 37.3404 24.145 37.7066 24.145C37.9028 24.145 38.0846 24.1764 38.252 24.2392C38.422 24.2994 38.5711 24.3857 38.6993 24.4982C38.8275 24.6106 38.9269 24.7467 38.9975 24.9062H39.0681V22.5638H40.2138V28.5356H39.0681V27.8647H38.9975C38.9242 28.019 38.8248 28.1511 38.6993 28.261C38.5763 28.3708 38.4312 28.4559 38.2638 28.516C38.0963 28.5736 37.9106 28.6023 37.7066 28.6023ZM38.095 27.6528C38.2991 27.6528 38.4743 27.6018 38.6208 27.4998C38.7673 27.3978 38.8798 27.2513 38.9583 27.0603C39.0393 26.8694 39.0799 26.6431 39.0799 26.3815V26.3737C39.0799 26.1069 39.0393 25.8793 38.9583 25.691C38.8798 25.5 38.766 25.3535 38.6169 25.2515C38.4704 25.1469 38.2965 25.0946 38.095 25.0946C37.8962 25.0946 37.7223 25.1469 37.5732 25.2515C37.4267 25.3535 37.3142 25.5 37.2358 25.691C37.1573 25.8793 37.118 26.1056 37.118 26.3698V26.3776C37.118 26.6418 37.1573 26.8694 37.2358 27.0603C37.3142 27.2513 37.4267 27.3978 37.5732 27.4998C37.7197 27.6018 37.8936 27.6528 38.095 27.6528Z" fill="white"/>
<path d="M5.07162 23.6632L4.8607 24.106C4.79039 24.2565 4.65392 24.3597 4.49676 24.3812L4.02943 24.45C3.82264 24.4801 3.73993 24.7423 3.88881 24.8971L4.22794 25.2411C4.34374 25.3571 4.39337 25.5248 4.36855 25.6882L4.28998 26.174C4.25276 26.389 4.47195 26.5481 4.65392 26.4492L5.07162 26.2213C5.21223 26.1439 5.3818 26.1439 5.52241 26.2213L5.94011 26.4492C6.12622 26.5481 6.34127 26.389 6.30405 26.174L6.22548 25.6882C6.19653 25.5248 6.25029 25.3571 6.36609 25.2411L6.70521 24.8971C6.8541 24.7466 6.77139 24.4844 6.5646 24.45L6.09727 24.3812C5.94011 24.3554 5.80364 24.2522 5.73333 24.106L5.52241 23.6632C5.43142 23.4697 5.1626 23.4697 5.07162 23.6632Z" fill="white"/>
<path d="M44.3573 23.6632L44.1463 24.106C44.076 24.2565 43.9396 24.3597 43.7824 24.3812L43.3151 24.45C43.1083 24.4801 43.0256 24.7423 43.1745 24.8971L43.5136 25.2411C43.6294 25.3571 43.679 25.5248 43.6542 25.6882L43.5756 26.174C43.5384 26.389 43.7576 26.5481 43.9396 26.4492L44.3573 26.2213C44.4979 26.1439 44.6674 26.1439 44.8081 26.2213L45.2258 26.4492C45.4119 26.5481 45.6269 26.389 45.5897 26.174L45.5111 25.6882C45.4822 25.5248 45.5359 25.3571 45.6517 25.2411L45.9909 24.8971C46.1397 24.7466 46.057 24.4844 45.8502 24.45L45.3829 24.3812C45.2258 24.3554 45.0893 24.2522 45.019 24.106L44.8081 23.6632C44.7171 23.4697 44.4482 23.4697 44.3573 23.6632Z" fill="white"/>
</g>
</svg>
