<svg width="50" height="50" viewBox="0 0 50 50" fill="none" xmlns="http://www.w3.org/2000/svg">
<g opacity="0.3">
<rect x="1.77324" y="1.77324" width="46.4539" height="46.4539" rx="23.227" stroke="white" stroke-width="1.77305"/>
<path d="M24.0684 4.41504V7.60653H25.6641V5.21291V4.41504H24.0684Z" fill="white"/>
<path d="M24.0684 42.7129H25.6641V45.9044H24.0684V42.7129Z" fill="white"/>
<path d="M18.7285 5.3252L20.2698 4.91195L21.0963 7.99456L19.555 8.40781L18.7285 5.3252Z" fill="white"/>
<path d="M28.6494 42.3184L30.1907 41.9051L31.0172 44.9877L29.4759 45.401L28.6494 42.3184Z" fill="white"/>
<path d="M13.8022 7.59277L15.1842 6.7949L16.7799 9.55873L15.398 10.3566L13.8022 7.59277Z" fill="white"/>
<path d="M32.9502 40.7607L34.3321 39.9629L35.9279 42.7267L34.5459 43.5246L32.9502 40.7607Z" fill="white"/>
<path d="M31.0991 5.49707L29.5642 5.06083L28.6917 8.13067L30.2266 8.56691L31.0991 5.49707Z" fill="white"/>
<path d="M9.63037 11.0547L10.7587 9.92633L13.0155 12.1831L11.8871 13.3114L9.63037 11.0547Z" fill="white"/>
<path d="M36.7056 38.1309L37.8339 37.0025L40.0907 39.2592L38.9623 40.3876L36.7056 38.1309Z" fill="white"/>
<path d="M6.50098 15.4785L7.29885 14.0966L10.0627 15.6923L9.26481 17.0743L6.50098 15.4785Z" fill="white"/>
<path d="M39.6675 34.627L40.4654 33.245L43.2292 34.8408L42.4313 36.2227L39.6675 34.627Z" fill="white"/>
<path d="M43.2295 15.123L42.4316 13.7411L39.6678 15.3369L40.4657 16.7188L43.2295 15.123Z" fill="white"/>
<path d="M6.50098 34.8408L9.26481 33.2451L10.0627 34.627L7.29885 36.2227L6.50098 34.8408Z" fill="white"/>
<path d="M9.62793 39.2607L11.8847 37.004L13.013 38.1324L10.7563 40.3891L9.62793 39.2607Z" fill="white"/>
<path d="M36.709 12.1865L38.9657 9.9298L40.0941 11.0582L37.8373 13.3149L36.709 12.1865Z" fill="white"/>
<path d="M13.8008 42.7314L15.3965 39.9676L16.7784 40.7655L15.1827 43.5293L13.8008 42.7314Z" fill="white"/>
<path d="M32.9531 9.5625L34.5489 6.79867L35.9308 7.59654L34.335 10.3604L32.9531 9.5625Z" fill="white"/>
<path d="M18.7319 44.998L19.5584 41.9154L21.0997 42.3287L20.2732 45.4113L18.7319 44.998Z" fill="white"/>
<path d="M16.3049 28.7125C15.8244 28.7125 15.4075 28.6255 15.0543 28.4515C14.7037 28.2775 14.431 28.0346 14.2362 27.723C14.044 27.4113 13.9479 27.0464 13.9479 26.6282V22.9466H15.1244V26.523C15.1244 26.7646 15.1699 26.975 15.2608 27.1542C15.3543 27.3308 15.4881 27.4684 15.6621 27.5671C15.8387 27.6658 16.053 27.7152 16.3049 27.7152C16.5568 27.7152 16.7698 27.6658 16.9438 27.5671C17.1204 27.4684 17.2542 27.3308 17.3451 27.1542C17.436 26.975 17.4814 26.7646 17.4814 26.523V22.9466H18.658V26.6282C18.658 27.0438 18.5619 27.4087 18.3697 27.723C18.1801 28.0346 17.9087 28.2775 17.5555 28.4515C17.2048 28.6255 16.788 28.7125 16.3049 28.7125ZM22.3242 28.658C21.9346 28.658 21.6021 28.6047 21.3268 28.4982C21.0541 28.3891 20.8399 28.2398 20.684 28.0502C20.5308 27.8606 20.4412 27.6437 20.4152 27.3996L20.4113 27.384H21.5294L21.5372 27.3996C21.584 27.5321 21.6723 27.6411 21.8021 27.7269C21.9346 27.8126 22.1125 27.8554 22.3359 27.8554C22.4813 27.8554 22.6086 27.8359 22.7177 27.797C22.8267 27.7554 22.9124 27.6996 22.9748 27.6295C23.0371 27.5593 23.0683 27.4775 23.0683 27.384V27.3762C23.0683 27.2619 23.0215 27.1671 22.928 27.0918C22.8345 27.0165 22.6787 26.9542 22.4605 26.9048L21.7437 26.7529C21.471 26.6957 21.2437 26.6126 21.0619 26.5036C20.8801 26.3919 20.7438 26.2555 20.6528 26.0945C20.5645 25.9335 20.5204 25.7465 20.5204 25.5335V25.5296C20.5204 25.2595 20.5944 25.0244 20.7425 24.8244C20.8931 24.6219 21.1022 24.4647 21.3697 24.353C21.6398 24.2414 21.9528 24.1855 22.3086 24.1855C22.6826 24.1855 23.0008 24.2427 23.2631 24.3569C23.5254 24.4686 23.7267 24.6193 23.8669 24.8089C24.0098 24.9959 24.089 25.2049 24.1046 25.4361V25.4517H23.0488L23.0449 25.4322C23.0137 25.3153 22.9358 25.2127 22.8112 25.1244C22.6865 25.0335 22.5177 24.9881 22.3047 24.9881C22.1748 24.9881 22.0593 25.0075 21.958 25.0465C21.8567 25.0855 21.7762 25.14 21.7164 25.2101C21.6593 25.2803 21.6307 25.3634 21.6307 25.4595V25.4634C21.6307 25.5387 21.6502 25.6049 21.6891 25.662C21.7281 25.7192 21.7917 25.7685 21.88 25.8101C21.9684 25.8516 22.0865 25.8893 22.2346 25.9231L22.9475 26.075C23.3761 26.1685 23.6929 26.3088 23.8981 26.4958C24.1033 26.6828 24.2059 26.9347 24.2059 27.2516V27.2555C24.2059 27.5386 24.1254 27.7853 23.9643 27.9957C23.8033 28.206 23.5812 28.3697 23.2981 28.4865C23.015 28.6008 22.6904 28.658 22.3242 28.658ZM27.7318 28.658C27.2981 28.658 26.9241 28.5684 26.6098 28.3891C26.2981 28.2073 26.0579 27.9502 25.8891 27.6178C25.7202 27.2853 25.6358 26.8892 25.6358 26.4295V26.4256C25.6358 25.9711 25.7189 25.5763 25.8852 25.2413C26.054 24.9063 26.2916 24.6465 26.5981 24.4621C26.9072 24.2777 27.2695 24.1855 27.6851 24.1855C28.1032 24.1855 28.4642 24.2751 28.7681 24.4543C29.072 24.6335 29.3057 24.8842 29.4694 25.2062C29.633 25.5283 29.7148 25.9062 29.7148 26.3399V26.6945H26.2046V25.9815H29.1694L28.6356 26.6555V26.1997C28.6356 25.9425 28.5954 25.7283 28.5149 25.5569C28.437 25.3854 28.3279 25.2569 28.1876 25.1712C28.05 25.0829 27.8889 25.0387 27.7045 25.0387C27.5227 25.0387 27.3604 25.0842 27.2175 25.1751C27.0773 25.2634 26.9656 25.3945 26.8825 25.5685C26.802 25.74 26.7617 25.9503 26.7617 26.1997V26.6594C26.7617 26.9009 26.802 27.1074 26.8825 27.2788C26.963 27.4502 27.0773 27.5814 27.2253 27.6723C27.3734 27.7632 27.55 27.8087 27.7552 27.8087C27.9214 27.8087 28.0629 27.784 28.1798 27.7346C28.2967 27.6853 28.3902 27.6282 28.4603 27.5632C28.533 27.4957 28.5824 27.4347 28.6084 27.3801L28.6201 27.3567H29.6797L29.6719 27.3957C29.6382 27.5308 29.5771 27.6723 29.4888 27.8204C29.4005 27.9658 29.2785 28.1022 29.1226 28.2294C28.9694 28.3567 28.7772 28.4606 28.546 28.5411C28.3175 28.619 28.0461 28.658 27.7318 28.658ZM32.8862 28.6346C32.5304 28.6346 32.2213 28.5463 31.959 28.3697C31.6993 28.1905 31.498 27.9359 31.3551 27.6061C31.2149 27.2762 31.1447 26.8828 31.1447 26.4256V26.4178C31.1447 25.9581 31.2136 25.5634 31.3512 25.2335C31.4915 24.9037 31.6915 24.6504 31.9512 24.4738C32.2109 24.2972 32.5226 24.2089 32.8862 24.2089C33.081 24.2089 33.2615 24.2401 33.4277 24.3024C33.5965 24.3621 33.7446 24.4478 33.8719 24.5595C33.9991 24.6712 34.0978 24.8063 34.1679 24.9647H34.2381V22.6389H35.3757V28.5684H34.2381V27.9022H34.1679C34.0952 28.0554 33.9965 28.1866 33.8719 28.2956C33.7498 28.4047 33.6056 28.4891 33.4394 28.5489C33.2732 28.606 33.0888 28.6346 32.8862 28.6346ZM33.2719 27.6918C33.4745 27.6918 33.6485 27.6411 33.7939 27.5399C33.9394 27.4386 34.0511 27.2931 34.129 27.1035C34.2095 26.9139 34.2497 26.6893 34.2497 26.4295V26.4217C34.2497 26.1568 34.2095 25.9309 34.129 25.7439C34.0511 25.5543 33.9381 25.4088 33.79 25.3075C33.6446 25.2036 33.4719 25.1517 33.2719 25.1517C33.0745 25.1517 32.9018 25.2036 32.7537 25.3075C32.6083 25.4088 32.4966 25.5543 32.4187 25.7439C32.3408 25.9309 32.3018 26.1555 32.3018 26.4178V26.4256C32.3018 26.688 32.3408 26.9139 32.4187 27.1035C32.4966 27.2931 32.6083 27.4386 32.7537 27.5399C32.8992 27.6411 33.0719 27.6918 33.2719 27.6918Z" fill="white"/>
<path d="M8.77637 19.5039H41.5778V21.0997H8.77637V19.5039Z" fill="white"/>
<path d="M8.77637 29.876H41.5778V31.4717H8.77637V29.876Z" fill="white"/>
<path d="M5.38984 23.6724L5.18042 24.1121C5.11061 24.2615 4.9751 24.364 4.81906 24.3853L4.35504 24.4536C4.14972 24.4835 4.0676 24.7439 4.21543 24.8976L4.55215 25.2391C4.66712 25.3544 4.7164 25.5208 4.69176 25.6831L4.61374 26.1655C4.57678 26.3789 4.79442 26.5369 4.9751 26.4387L5.38984 26.2124C5.52946 26.1356 5.69782 26.1356 5.83743 26.2124L6.25217 26.4387C6.43696 26.5369 6.65049 26.3789 6.61353 26.1655L6.53551 25.6831C6.50677 25.5208 6.56015 25.3544 6.67513 25.2391L7.01185 24.8976C7.15968 24.7482 7.07755 24.4878 6.87223 24.4536L6.40822 24.3853C6.25218 24.3597 6.11667 24.2572 6.04686 24.1121L5.83743 23.6724C5.74709 23.4803 5.48018 23.4803 5.38984 23.6724Z" fill="white"/>
<path d="M44.3967 23.6724L44.1873 24.1121C44.1174 24.2615 43.9819 24.364 43.8259 24.3853L43.3619 24.4536C43.1566 24.4835 43.0744 24.7439 43.2223 24.8976L43.559 25.2391C43.674 25.3544 43.7232 25.5208 43.6986 25.6831L43.6206 26.1655C43.5836 26.3789 43.8013 26.5369 43.9819 26.4387L44.3967 26.2124C44.5363 26.1356 44.7047 26.1356 44.8443 26.2124L45.259 26.4387C45.4438 26.5369 45.6573 26.3789 45.6204 26.1655L45.5423 25.6831C45.5136 25.5208 45.567 25.3544 45.682 25.2391L46.0187 24.8976C46.1665 24.7482 46.0844 24.4878 45.8791 24.4536L45.4151 24.3853C45.259 24.3597 45.1235 24.2572 45.0537 24.1121L44.8443 23.6724C44.7539 23.4803 44.487 23.4803 44.3967 23.6724Z" fill="white"/>
</g>
</svg>
