<svg width="60" height="60" viewBox="0 0 60 60" fill="none" xmlns="http://www.w3.org/2000/svg">
<g clip-path="url(#clip0_12093_8827)">
<path d="M56.155 35.4145C56.0478 35.4145 55.9234 35.3759 55.7905 35.3373C55.7519 35.3244 55.7091 35.3158 55.6705 35.303C54.4357 34.9729 53.4839 34.2097 52.9866 33.1465C52.4893 32.0832 52.515 30.857 53.0552 29.6951C53.5783 28.5719 54.5429 27.9116 56.0821 27.6201C56.7595 27.4914 56.8967 27.1184 56.8967 26.5997C56.8924 24.8204 56.8924 23.0154 56.8967 21.2662C56.8967 19.3669 56.8967 17.399 56.8924 15.4654C56.8838 12.5286 55.3232 10.1834 52.8237 9.34738C52.1806 9.13301 51.4989 9.01726 50.8515 9.01726C42.8556 9.00868 34.5982 9.00439 25.6033 9.00439C20.0898 9.00439 14.5763 9.00439 9.06273 9.00868C5.81721 9.00868 3.12476 11.5897 3.05187 14.758C2.99185 17.459 3.00042 20.2029 3.00042 22.8525C3.00042 24.1344 3.00471 25.4592 3.00042 26.7583C3.00042 27.4228 3.40343 27.5772 3.74642 27.5858C3.83217 27.5858 3.93507 27.6158 4.04225 27.6501C4.08512 27.6629 4.13228 27.6758 4.17516 27.6887C6.15162 28.1946 7.19345 29.5151 7.19345 31.5044C7.19345 33.4852 6.14734 34.8057 4.16658 35.3158C3.11189 35.586 3.00471 35.7274 3.00471 36.8293C3.00471 37.9054 3.00471 38.9815 3.00471 40.0577C3.00471 42.5143 3.00471 45.0567 3.009 47.5562C3.02186 50.4416 4.58246 52.7868 7.08198 53.6743C7.32636 53.76 7.57502 53.8286 7.8194 53.8972C7.92659 53.9272 8.03806 53.9572 8.14524 53.9872C8.17525 53.9958 8.20955 54.0001 8.24385 54.0001H51.6532C51.679 54.0001 51.7047 54.0001 51.7304 53.9915C53.3639 53.6271 54.5858 52.9025 55.4733 51.7836C56.3822 50.6345 56.8495 49.4041 56.8581 48.1307C56.8752 45.5926 56.8795 43.0116 56.8838 40.5164C56.8838 39.093 56.8838 37.6696 56.8924 36.2462C56.8924 35.706 56.648 35.4273 56.155 35.4102V35.4145ZM50.59 50.3601C50.0112 50.3344 49.3895 50.3216 48.6307 50.3216C48.1162 50.3216 47.5888 50.3259 47.0786 50.3301C46.6628 50.3301 46.234 50.3387 45.801 50.3387V50.3216C45.801 50.0643 45.801 49.8199 45.801 49.5799C45.801 49.3955 45.801 49.2111 45.801 49.0311C45.801 48.6023 45.8053 48.1607 45.7882 47.7234C45.7453 46.6773 44.9864 45.9227 43.9789 45.9227C42.9499 45.9227 42.1911 46.7116 42.1696 47.7963C42.1611 48.3194 42.1611 48.851 42.1653 49.3655C42.1653 49.5927 42.1653 49.8242 42.1653 50.0515V50.3044H17.7146C17.7146 50.1201 17.7146 49.9357 17.7146 49.7513C17.7146 49.0439 17.7232 48.3751 17.706 47.6891C17.6889 46.8402 17.1144 46.15 16.2741 45.9613C16.154 45.9356 16.0297 45.9227 15.9053 45.9227C15.2065 45.9227 14.5591 46.33 14.2933 46.9303C14.1304 47.3033 14.1004 47.7234 14.0918 48.0107C14.0746 48.6281 14.0789 49.2412 14.0832 49.8885C14.0832 50.0386 14.0832 50.1887 14.0832 50.343H13.6502C13.2086 50.343 12.7541 50.3387 12.3211 50.3301C11.8838 50.3259 11.4293 50.3173 10.9835 50.3173C10.3404 50.3173 9.80873 50.3301 9.30711 50.3559C9.25566 50.3559 9.20422 50.3559 9.15277 50.3559C8.11523 50.3559 6.64896 49.5541 6.64038 47.7706C6.63181 46.33 6.63181 44.8681 6.63609 43.4532C6.63609 41.8069 6.63609 40.1005 6.62752 38.4242C6.62752 38.2913 6.63609 38.2827 6.85475 38.1755L6.92763 38.1412C9.05416 37.0865 10.4175 35.1529 10.7691 32.692C11.1249 30.1882 10.3275 27.6201 8.73261 26.1538C8.38962 25.8365 7.99947 25.5793 7.62218 25.3306C7.36494 25.1634 7.12485 25.0005 6.89762 24.8247C6.75614 24.7132 6.65753 24.5546 6.65324 24.5074C6.63181 21.935 6.63609 19.3198 6.63609 16.7902V15.2811C6.63609 13.9992 7.52358 12.6315 9.16134 12.6315C9.2085 12.6315 9.25138 12.6315 9.29854 12.6315C9.87733 12.6572 10.499 12.6701 11.2579 12.6701C11.7723 12.6701 12.274 12.6658 12.8099 12.6572C13.23 12.6529 13.6588 12.6486 14.0918 12.6444C14.0918 12.8544 14.0918 13.0559 14.0875 13.2617C14.0789 13.9734 14.0746 14.6423 14.1047 15.3239C14.1475 16.3015 14.9321 17.0689 15.8882 17.0689C16.2269 17.0689 16.557 16.9703 16.8528 16.7859C17.4188 16.4344 17.7146 15.877 17.7146 15.1825C17.7146 14.3507 17.7232 13.5061 17.7275 12.6872V12.6787H42.1653C42.1653 12.8673 42.1653 13.0517 42.1653 13.2403C42.1653 13.9477 42.1568 14.6165 42.1739 15.3025C42.1954 16.1986 42.8599 16.9317 43.7517 17.0517C43.8245 17.0603 43.9017 17.0646 43.9746 17.0646C44.7463 17.0646 45.4452 16.5716 45.6724 15.8642C45.771 15.5597 45.7839 15.2382 45.7882 14.9081C45.7967 14.3036 45.7967 13.7033 45.7924 13.0688C45.7924 12.9273 45.7924 12.7858 45.7924 12.6401H46.4055C46.83 12.6401 47.263 12.6444 47.6832 12.6486C48.1033 12.6529 48.5406 12.6615 48.9694 12.6615C49.5867 12.6615 50.0969 12.6486 50.5771 12.6272C50.6286 12.6272 50.68 12.6272 50.7315 12.6272C52.3521 12.6272 53.231 13.9606 53.2396 15.2168C53.2481 16.7345 53.2481 18.2736 53.2481 19.7656C53.2481 21.3391 53.2481 22.964 53.2567 24.5632C53.2567 24.6875 53.2567 24.7004 53.0252 24.8076L52.948 24.8461C50.7915 25.9137 49.3809 27.963 49.0808 30.4754C48.7721 33.0393 49.6682 35.6117 51.366 37.0394C51.6618 37.288 51.9834 37.4938 52.2963 37.691C52.5407 37.8454 52.7722 37.9912 52.9866 38.1541C53.1281 38.2613 53.2267 38.4242 53.2267 38.4713C53.2481 41.3267 53.2438 44.2292 53.2438 47.0375V47.6977C53.2438 48.9839 52.3564 50.3473 50.7143 50.3473C50.6714 50.3473 50.6243 50.3473 50.5814 50.3473L50.59 50.3601Z" fill="#FF9C00"/>
<path d="M37.3935 26.8905C37.0848 26.8433 36.7761 26.8004 36.4674 26.7576C35.7814 26.659 35.0697 26.5604 34.3837 26.4317C34.268 26.4103 34.0965 26.2903 34.0451 26.1916C33.5306 25.2441 33.0632 24.2709 32.7117 23.5292C32.1543 22.3502 31.1983 21.7285 29.9506 21.7285H29.9378C28.6902 21.7285 27.7341 22.3588 27.1767 23.5464C26.718 24.5239 26.2807 25.3942 25.8434 26.2088C25.7962 26.2988 25.6461 26.4146 25.5518 26.4317C24.5571 26.6118 23.5496 26.7533 22.6021 26.8776C21.1787 27.0706 20.2998 27.7265 19.914 28.8841C19.5281 30.0417 19.8282 31.1092 20.8057 32.0653C20.9901 32.2454 21.1744 32.4297 21.3631 32.6141C21.8561 33.1028 22.362 33.6088 22.8937 34.0804C23.1295 34.2904 23.1809 34.4705 23.1166 34.8178C22.958 35.6452 22.8165 36.477 22.6964 37.2101C22.6493 37.4802 22.6064 37.7375 22.5678 37.9776C22.5678 37.9947 22.5635 38.0161 22.5635 38.0333C22.5592 38.9894 22.8765 39.8426 23.4639 40.4299C23.9869 40.953 24.6901 41.2445 25.4446 41.2445C25.9334 41.2445 26.4179 41.1288 26.8938 40.8972C27.8155 40.4514 28.7159 39.9798 29.5691 39.491C29.7277 39.401 29.8563 39.3581 29.9678 39.3581C30.075 39.3581 30.1907 39.3967 30.3279 39.4781C31.0353 39.8854 31.7728 40.2627 32.4845 40.6314L32.9389 40.8629C33.4791 41.1416 34.0065 41.2831 34.5124 41.2831C35.104 41.2831 35.67 41.0902 36.1887 40.7129C37.1577 40.0055 37.5264 38.9551 37.2949 37.6003L37.1963 37.0343C37.0633 36.2712 36.9304 35.478 36.7804 34.702C36.7332 34.4534 36.7761 34.3247 36.9562 34.1575C37.5778 33.583 38.1866 32.9828 38.7783 32.3997L39.1213 32.061C40.0688 31.1264 40.3689 30.0717 40.0088 28.9313C39.6486 27.7823 38.774 27.0963 37.4106 26.8948L37.3935 26.8905ZM33.5906 34.8135C33.7406 35.641 33.865 36.4727 33.9936 37.3473C34.0193 37.5188 34.0451 37.6903 34.0708 37.8618C33.9207 37.7846 33.7707 37.7075 33.6206 37.6346C32.8532 37.2444 32.1286 36.88 31.4126 36.4899C30.9239 36.224 30.4308 36.0911 29.9463 36.0911C29.4619 36.0911 28.9474 36.2326 28.4501 36.507C27.7469 36.8972 27.0395 37.2659 26.2892 37.6517C26.1177 37.7375 25.9463 37.8275 25.7748 37.9175L25.8434 37.4888C25.9848 36.6099 26.1306 35.6967 26.3021 34.8092C26.495 33.806 26.2292 32.9399 25.5132 32.2368C24.9001 31.6323 24.287 31.0235 23.6439 30.3804C23.511 30.2475 23.3738 30.1103 23.2366 29.9731C23.4081 29.9431 23.5668 29.9131 23.7254 29.8916C24.6858 29.7501 25.539 29.6301 26.345 29.5229C27.3311 29.39 28.0556 28.8798 28.5015 28.0009C28.8917 27.2335 29.2818 26.4703 29.6934 25.6643L29.9463 25.1713C30.0192 25.3127 30.0964 25.4542 30.1693 25.5957C30.5509 26.3288 30.9153 27.0191 31.2454 27.7265C31.7685 28.8455 32.6131 29.4457 33.835 29.5615C34.5938 29.6344 35.357 29.7587 36.1673 29.8873C36.3474 29.9173 36.5274 29.9474 36.7118 29.9731C36.6818 30.0074 36.6518 30.0374 36.6217 30.0631L36.1544 30.5219C35.5971 31.0749 35.0183 31.6452 34.4395 32.1939C33.6849 32.9099 33.4062 33.7631 33.5949 34.8006L33.5906 34.8135Z" fill="#FF9C00"/>
</g>
<defs>
<clipPath id="clip0_12093_8827">
<rect width="53.892" height="45" fill="white" transform="translate(3.00049 8.99951)"/>
</clipPath>
</defs>
</svg>
