<svg width="20" height="21" viewBox="0 0 20 21" fill="none" xmlns="http://www.w3.org/2000/svg">
<g clip-path="url(#clip0_12832_55601)">
<path d="M18.7538 11.7868C18.718 11.7868 18.6765 11.7739 18.6321 11.761C18.6192 11.7568 18.6049 11.7539 18.592 11.7496C18.1796 11.6393 17.8617 11.3844 17.6956 11.0293C17.5295 10.6742 17.5381 10.2646 17.7185 9.87656C17.8932 9.50138 18.2154 9.28086 18.7295 9.18348C18.9558 9.14052 19.0016 9.01594 19.0016 8.84267C19.0001 8.2484 19.0001 7.64553 19.0016 7.06129C19.0016 6.42692 19.0016 5.76964 19.0001 5.12382C18.9973 4.14291 18.476 3.35962 17.6412 3.08038C17.4264 3.00878 17.1987 2.97012 16.9825 2.97012C14.3118 2.96725 11.5538 2.96582 8.54955 2.96582C6.70802 2.96582 4.86649 2.96582 3.02496 2.96725C1.94095 2.96725 1.04167 3.8293 1.01733 4.88754C0.997277 5.78969 1.00014 6.70615 1.00014 7.59112C1.00014 8.01928 1.00157 8.46176 1.00014 8.89565C1.00014 9.11761 1.13475 9.16916 1.24931 9.17203C1.27795 9.17203 1.31231 9.18205 1.34811 9.19351C1.36243 9.1978 1.37818 9.2021 1.3925 9.20639C2.05265 9.37537 2.40062 9.81642 2.40062 10.4809C2.40062 11.1424 2.05122 11.5835 1.38964 11.7539C1.03737 11.8441 1.00157 11.8914 1.00157 12.2594C1.00157 12.6188 1.00157 12.9782 1.00157 13.3377C1.00157 14.1582 1.00157 15.0073 1.00301 15.8422C1.0073 16.8059 1.52854 17.5892 2.36339 17.8856C2.44501 17.9143 2.52807 17.9372 2.60969 17.9601C2.64549 17.9701 2.68272 17.9801 2.71852 17.9902C2.72854 17.993 2.74 17.9945 2.75145 17.9945H17.2503C17.2589 17.9945 17.2674 17.9945 17.276 17.9916C17.8216 17.8699 18.2297 17.6279 18.5262 17.2541C18.8297 16.8704 18.9858 16.4594 18.9887 16.0341C18.9944 15.1863 18.9958 14.3243 18.9973 13.4909C18.9973 13.0155 18.9973 12.54 19.0001 12.0646C19.0001 11.8842 18.9185 11.7911 18.7538 11.7854V11.7868Z" fill="white"/>
<path d="M12.4873 8.93993C12.3842 8.92417 12.2811 8.90985 12.178 8.89553C11.9489 8.8626 11.7112 8.82966 11.4821 8.7867C11.4434 8.77954 11.3862 8.73945 11.369 8.70651C11.1971 8.39004 11.041 8.06498 10.9236 7.81725C10.7375 7.42346 10.4181 7.21582 10.0014 7.21582H9.99713C9.58043 7.21582 9.26109 7.42632 9.07494 7.82298C8.92171 8.14947 8.77565 8.44016 8.62959 8.71224C8.61384 8.74231 8.56372 8.78098 8.53222 8.7867C8.2 8.84685 7.86348 8.8941 7.54701 8.93563C7.0716 9.00007 6.77804 9.21916 6.64916 9.6058C6.52028 9.99243 6.62052 10.349 6.94701 10.6683C7.00859 10.7285 7.07016 10.79 7.13317 10.8516C7.29785 11.0149 7.46682 11.1838 7.64439 11.3414C7.72315 11.4115 7.74033 11.4717 7.71885 11.5877C7.66587 11.864 7.61861 12.1418 7.57852 12.3867C7.56276 12.4769 7.54844 12.5628 7.53556 12.643C7.53556 12.6488 7.53413 12.6559 7.53413 12.6616C7.53269 12.981 7.63866 13.2659 7.83484 13.4621C8.00954 13.6368 8.24439 13.7342 8.49642 13.7342C8.65966 13.7342 8.82148 13.6955 8.98043 13.6182C9.2883 13.4693 9.58902 13.3118 9.87398 13.1485C9.92697 13.1184 9.96992 13.1041 10.0072 13.1041C10.043 13.1041 10.0816 13.117 10.1274 13.1442C10.3637 13.2803 10.61 13.4063 10.8477 13.5294L10.9995 13.6068C11.1799 13.6998 11.3561 13.7471 11.5251 13.7471C11.7227 13.7471 11.9117 13.6826 12.085 13.5566C12.4086 13.3204 12.5317 12.9695 12.4544 12.517L12.4215 12.328C12.3771 12.0731 12.3327 11.8082 12.2826 11.549C12.2668 11.4659 12.2811 11.423 12.3413 11.3671C12.5489 11.1752 12.7523 10.9748 12.9499 10.78L13.0644 10.6669C13.3809 10.3547 13.4811 10.0025 13.3609 9.62155C13.2406 9.23778 12.9484 9.00866 12.4931 8.94136L12.4873 8.93993Z" fill="#606060"/>
<path d="M11.217 11.5867C11.2671 11.8631 11.3087 12.1409 11.3516 12.433C11.3602 12.4903 11.3688 12.5476 11.3774 12.6049C11.3273 12.5791 11.2772 12.5533 11.227 12.529C10.9707 12.3987 10.7287 12.277 10.4896 12.1466C10.3263 12.0579 10.1617 12.0135 9.99984 12.0135C9.83803 12.0135 9.66619 12.0607 9.50008 12.1524C9.26523 12.2827 9.02896 12.4058 8.77836 12.5347C8.72108 12.5633 8.6638 12.5934 8.60652 12.6235L8.62943 12.4803C8.67669 12.1867 8.72538 11.8817 8.78266 11.5853C8.84709 11.2502 8.75831 10.961 8.51917 10.7261C8.3144 10.5242 8.10962 10.3209 7.89483 10.1061C7.85044 10.0617 7.80461 10.0159 7.75879 9.97003C7.81607 9.96001 7.86905 9.94998 7.92203 9.94282C8.2428 9.89557 8.52776 9.85547 8.79698 9.81967C9.12633 9.77528 9.36834 9.60487 9.51726 9.31132C9.64757 9.05499 9.77788 8.8001 9.91535 8.53089L9.99984 8.36621C10.0242 8.41347 10.05 8.46072 10.0743 8.50798C10.2017 8.75285 10.3235 8.98339 10.4337 9.21967C10.6084 9.59342 10.8905 9.7939 11.2986 9.83256C11.5521 9.8569 11.807 9.89843 12.0776 9.94139C12.1378 9.95141 12.1979 9.96144 12.2595 9.97003C12.2495 9.98148 12.2395 9.99151 12.2294 10.0001L12.0733 10.1533C11.8872 10.338 11.6939 10.5285 11.5006 10.7118C11.2485 10.9509 11.1554 11.2359 11.2185 11.5824L11.217 11.5867Z" fill="white"/>
</g>
<defs>
<clipPath id="clip0_12832_55601">
<rect width="18" height="15.0301" fill="white" transform="translate(1 2.96484)"/>
</clipPath>
</defs>
</svg>
