<svg width="361" height="105" viewBox="0 0 361 105" fill="none" xmlns="http://www.w3.org/2000/svg">
<path fill-rule="evenodd" clip-rule="evenodd" d="M353 -2.18557e-07C357.418 -9.78513e-08 361 3.58172 361 8L361 97C361 101.418 357.418 105 353 105L120.8 105C119.873 100.436 115.838 97 111 97C108.968 97 107.078 97.6059 105.5 98.647L105.5 9.35304C107.078 10.3941 108.968 11 111 11C116.523 11 121 6.52285 121 1C121 0.662498 120.983 0.328902 120.951 -6.55806e-06L353 -2.18557e-07Z" fill="#191A1D"/>
<path fill-rule="evenodd" clip-rule="evenodd" d="M8 2.18557e-07C3.58172 9.78513e-08 -2.50499e-07 3.58172 -5.59506e-07 8L-6.78401e-06 97C-7.09301e-06 101.418 3.58171 105 7.99999 105L101.2 105C102.062 100.754 105.614 97.4848 110 97.0494L110 10.9506C104.947 10.4489 101 6.18535 101 1C101 0.662501 101.017 0.328908 101.049 2.76063e-06L8 2.18557e-07Z" fill="#191A1D"/>
<path d="M110.5 4L110.5 103" stroke="#0E0F11" stroke-width="2" stroke-dasharray="5 5"/>
</svg>
