<svg width="26" height="26" viewBox="0 0 26 26" fill="none" xmlns="http://www.w3.org/2000/svg">
<g clip-path="url(#clip0_12334_363814)">
<path d="M4.08343 22.2536C4.08343 22.2536 4.06934 22.2536 4.06406 22.2501C4.01826 22.2377 3.97422 22.2254 3.92843 22.2131C3.82803 22.1849 3.72763 22.1585 3.63075 22.1232C2.63203 21.7692 2.00849 20.8321 2.00497 19.6766C2.00145 18.6779 2.00145 17.6633 2.00321 16.6805V15.2678C2.00321 14.8486 2.02787 14.8187 2.42947 14.7147C3.27671 14.4963 3.72587 13.9309 3.72587 13.0819C3.72587 12.2294 3.27847 11.664 2.43299 11.4456L2.38896 11.4332C2.32907 11.4174 2.28327 11.4033 2.241 11.4015C2.07719 11.3962 2.00145 11.3117 2.00321 11.132C2.00497 10.5966 2.00321 10.0523 2.00321 9.52563C2.00145 8.43708 1.99792 7.31154 2.02258 6.20185C2.049 4.93892 3.12346 3.91026 4.41634 3.9085C6.68151 3.9085 8.94668 3.90674 11.2119 3.90674C14.9073 3.90674 18.2998 3.9085 21.5848 3.91202C21.8437 3.91202 22.115 3.95782 22.3721 4.04413C23.3691 4.37703 23.9909 5.31587 23.9944 6.49249C23.9979 7.28688 23.9962 8.09361 23.9962 8.87391V8.94437C23.9962 9.64012 23.9962 10.3588 23.9979 11.0669C23.9979 11.2589 23.9539 11.3716 23.7214 11.4174C23.0644 11.5424 22.6522 11.826 22.4267 12.3104C22.196 12.8071 22.1854 13.332 22.3986 13.7882C22.6117 14.2444 23.0203 14.5721 23.547 14.713L23.5946 14.7271C23.6492 14.7429 23.7073 14.7588 23.7619 14.7605C23.9239 14.7658 23.9962 14.8504 23.9962 15.0336C23.9944 15.6183 23.9944 16.2031 23.9926 16.7879C23.9926 17.8131 23.9909 18.8734 23.9821 19.9144C23.9785 20.4217 23.7918 20.9114 23.4272 21.3711C23.0732 21.8185 22.5835 22.1074 21.93 22.2536H21.9142H4.07991H4.08343ZM20.6759 20.885C20.9842 20.885 21.2396 20.8902 21.4773 20.9008C21.4967 20.9008 21.5161 20.9008 21.5355 20.9008C22.2541 20.9008 22.6434 20.3037 22.6452 19.7418V19.4705C22.6452 18.3221 22.6487 17.1349 22.6399 15.9495C22.6364 15.8949 22.5782 15.8121 22.5131 15.7628C22.4197 15.6923 22.3158 15.6254 22.2242 15.569C22.0956 15.488 21.9653 15.4035 21.849 15.3066C21.1709 14.7359 20.8115 13.7019 20.9348 12.6733C21.0564 11.6657 21.6218 10.8414 22.4849 10.4151L22.5166 10.3993C22.617 10.3517 22.6504 10.3306 22.6504 10.2337C22.6469 9.59081 22.6469 8.93732 22.6469 8.30498V8.26446C22.6469 7.65149 22.6469 7.01739 22.6434 6.39561C22.6399 5.84605 22.2541 5.26126 21.5425 5.26126C21.5214 5.26126 21.4985 5.26126 21.4773 5.26126C21.2836 5.27183 21.074 5.27535 20.8203 5.27535C20.6601 5.27535 20.498 5.27359 20.3412 5.27183H20.2937C20.1211 5.26831 19.9432 5.26655 19.767 5.26655H19.4447V5.51314C19.4447 5.77383 19.4447 6.02043 19.4429 6.26703C19.4412 6.39737 19.4359 6.52243 19.3989 6.63868C19.3143 6.89937 19.0554 7.08256 18.7683 7.08256C18.7401 7.08256 18.7119 7.08256 18.6855 7.07727C18.3526 7.03324 18.106 6.76022 18.099 6.42731C18.0919 6.14725 18.0937 5.87247 18.0954 5.58184V5.28064H7.91626V5.35109C7.91273 5.69281 7.91097 6.03804 7.91097 6.378C7.91097 6.63868 7.8 6.84653 7.5904 6.97687C7.48119 7.04557 7.35613 7.08256 7.23107 7.08256C6.87526 7.08256 6.58463 6.79721 6.56702 6.4326C6.55469 6.1543 6.55821 5.87952 6.55997 5.58888L6.5635 5.26302H6.49304C6.31337 5.26302 6.13723 5.26655 5.96462 5.26831C5.7462 5.27007 5.53836 5.27359 5.32875 5.27359C5.01698 5.27359 4.76333 5.26831 4.52731 5.25774C4.50617 5.25774 4.48679 5.25774 4.46742 5.25774C3.74876 5.25774 3.35949 5.85486 3.35949 6.41675V7.0579C3.35949 8.08832 3.35949 9.15574 3.36654 10.2073C3.37182 10.2601 3.42819 10.3429 3.49336 10.394C3.59024 10.4697 3.69416 10.5384 3.79456 10.6036C3.9478 10.7058 4.10457 10.8097 4.24372 10.9365C4.88311 11.5248 5.20193 12.5553 5.05749 13.561C4.91658 14.5474 4.36878 15.3242 3.51802 15.7469L3.48807 15.761C3.38767 15.8086 3.35421 15.8297 3.35421 15.9266C3.35773 16.6012 3.35773 17.2864 3.35773 17.9505V17.991C3.35773 18.5722 3.35773 19.1746 3.35949 19.7665C3.36301 20.5468 4.00593 20.8991 4.46213 20.8991C4.48327 20.8991 4.50617 20.8991 4.52731 20.8991C4.72987 20.8885 4.94828 20.885 5.21249 20.885C5.37631 20.885 5.54364 20.8867 5.70569 20.8885H5.78319C5.95581 20.892 6.13547 20.8938 6.30985 20.8938H6.55821V20.6366C6.55645 20.3971 6.55469 20.1276 6.56173 19.8669C6.56526 19.7559 6.57583 19.5903 6.63747 19.4494C6.73611 19.2257 6.97566 19.076 7.23635 19.076C7.28391 19.076 7.32971 19.0813 7.37374 19.0901C7.68551 19.1605 7.9004 19.4177 7.90569 19.733C7.91097 20.0113 7.91097 20.2826 7.90921 20.5697V20.8762H18.0937V20.4199C18.0937 20.2086 18.0919 19.9919 18.0954 19.777C18.1025 19.3719 18.3861 19.0778 18.7683 19.076C19.1417 19.076 19.4253 19.3596 19.4412 19.7489C19.4482 19.9268 19.4482 20.1064 19.4464 20.2808C19.4464 20.3583 19.4464 20.8797 19.4464 20.8797L19.5116 20.892C19.6789 20.892 19.8375 20.892 19.9942 20.8885H20.1052C20.2954 20.885 20.491 20.8832 20.6812 20.8832L20.6759 20.885Z" fill="white"/>
<path d="M14.8701 17.0293C14.6746 17.0293 14.4685 16.9747 14.2572 16.8655L14.0705 16.7704C13.7781 16.6206 13.4769 16.4656 13.1862 16.2983C13.1175 16.2578 13.0594 16.2402 13.003 16.2402C12.9467 16.2402 12.8815 16.2613 12.804 16.3054C12.457 16.5044 12.0889 16.6982 11.7102 16.8813C11.5235 16.9712 11.3332 17.017 11.1448 17.017C10.8524 17.017 10.5811 16.906 10.3803 16.7034C10.1531 16.4745 10.0298 16.1433 10.0316 15.7681L10.0862 15.4423C10.1372 15.1375 10.1936 14.7976 10.2588 14.4612C10.2922 14.2921 10.2623 14.1952 10.146 14.0913C9.93291 13.901 9.72859 13.6967 9.52955 13.4994C9.445 13.4149 9.36926 13.3391 9.29176 13.2652C8.9113 12.8935 8.79504 12.4778 8.943 12.0304C9.09272 11.583 9.43444 11.3276 9.98928 11.2536C10.3803 11.2008 10.796 11.1427 11.2047 11.0687C11.2645 11.0581 11.3438 10.9982 11.3737 10.9419C11.5534 10.6054 11.7331 10.2479 11.9233 9.84451C12.14 9.38478 12.5116 9.13995 12.9942 9.13818C13.4804 9.13818 13.8538 9.3795 14.0705 9.83746C14.2149 10.1422 14.4069 10.542 14.62 10.9331C14.6517 10.9912 14.7398 11.0546 14.8085 11.0669C15.0938 11.118 15.3862 11.1603 15.6681 11.2008C15.7966 11.2184 15.9217 11.2378 16.0468 11.2554C16.5769 11.3347 16.9187 11.6006 17.0578 12.0445C17.197 12.4849 17.0807 12.8935 16.7108 13.2581L16.5699 13.3973C16.3286 13.6368 16.0785 13.8834 15.8231 14.1177C15.7315 14.2022 15.7051 14.2797 15.7297 14.4066C15.7878 14.7148 15.8424 15.0266 15.8935 15.3295L15.9393 15.5955C16.0309 16.1239 15.8882 16.5308 15.5131 16.8056C15.3123 16.9518 15.0956 17.0275 14.8666 17.0275L14.8701 17.0293ZM12.834 10.6548C12.6613 10.9912 12.5028 11.303 12.3443 11.6147C12.1717 11.9529 11.8916 12.1502 11.5111 12.2013C11.18 12.2453 10.8277 12.2946 10.4332 12.3545C10.368 12.3651 10.301 12.3757 10.2306 12.3897L10.0985 12.4144L10.3609 12.6769C10.6322 12.9481 10.8806 13.1947 11.1289 13.4395C11.4037 13.7108 11.5076 14.0455 11.4336 14.433C11.3632 14.7994 11.3033 15.171 11.2469 15.5321L11.1958 15.8492L11.5305 15.6748C11.8229 15.5233 12.1259 15.3665 12.42 15.2027C12.6138 15.0953 12.8093 15.0407 12.9995 15.0407C13.1898 15.0407 13.3782 15.0935 13.5685 15.1957C13.8609 15.3542 14.1568 15.5039 14.4685 15.6624L14.7627 15.8104V15.6924L14.7328 15.4757C14.6782 15.1129 14.6271 14.7712 14.5654 14.4312C14.4932 14.0296 14.6006 13.6985 14.8913 13.4237C15.1291 13.1982 15.3669 12.964 15.5976 12.735L15.7896 12.5465C15.8019 12.5342 15.9182 12.4109 15.9182 12.4109L15.5641 12.3545C15.2312 12.2999 14.9177 12.2488 14.6024 12.2189C14.1268 12.1731 13.7974 11.9406 13.5949 11.5055C13.4575 11.2114 13.3095 10.9278 13.1528 10.6283L12.9995 10.3342L12.834 10.6583V10.6548Z" fill="white"/>
</g>
<defs>
<clipPath id="clip0_12334_363814">
<rect width="22" height="18.3468" fill="white" transform="translate(2 3.90674)"/>
</clipPath>
</defs>
</svg>
