<svg width="32" height="32" viewBox="0 0 32 32" fill="none" xmlns="http://www.w3.org/2000/svg">
<rect width="32" height="32" rx="16" fill="#191A1D"/>
<g opacity="0.3">
<path d="M23 20.8086C23 20.5325 22.7762 20.3086 22.5 20.3086H10.2456C9.96946 20.3086 9.74561 20.5325 9.74561 20.8086V21.4336C9.74561 21.7097 9.96946 21.9336 10.2456 21.9336H22.5C22.7762 21.9336 23 21.7097 23 21.4336V20.8086Z" fill="white"/>
<path d="M23 9.43359C23 9.15745 22.7762 8.93359 22.5 8.93359H10.2456C9.96946 8.93359 9.74561 9.15745 9.74561 9.43359V10.0586C9.74561 10.3347 9.96946 10.5586 10.2456 10.5586H22.5C22.7762 10.5586 23 10.3347 23 10.0586V9.43359Z" fill="white"/>
<path d="M22.9998 13.2524C22.9998 12.9763 22.7759 12.7524 22.4998 12.7524H17.3696C17.0935 12.7524 16.8696 12.9763 16.8696 13.2524V13.8774C16.8696 14.1536 17.0935 14.3774 17.3696 14.3774H22.4998C22.7759 14.3774 22.9998 14.1536 22.9998 13.8774V13.2524Z" fill="white"/>
<path d="M22.9998 16.9902C22.9998 16.7141 22.7759 16.4902 22.4998 16.4902H17.3696C17.0935 16.4902 16.8696 16.7141 16.8696 16.9902V17.6152C16.8696 17.8914 17.0935 18.1152 17.3696 18.1152H22.4998C22.7759 18.1152 22.9998 17.8914 22.9998 17.6152V16.9902Z" fill="white"/>
<path fill-rule="evenodd" clip-rule="evenodd" d="M14.0533 13.0873C14.0533 12.6943 13.6206 12.4549 13.2876 12.6637L9.66701 14.9341C9.35663 15.1287 9.35404 15.58 9.66217 15.7782L13.2828 18.1068C13.6155 18.3208 14.0533 18.0819 14.0533 17.6863V13.0873Z" fill="white"/>
</g>
</svg>
