<svg width="32" height="32" viewBox="0 0 32 32" fill="none" xmlns="http://www.w3.org/2000/svg">
<rect width="32" height="32" rx="16" fill="#393939"/>
<g clip-path="url(#clip0_2174_116864)">
<path d="M23 21.2085C23 20.9324 22.7762 20.7085 22.5 20.7085H10.2456C9.96946 20.7085 9.74561 20.9324 9.74561 21.2085V21.8335C9.74561 22.1096 9.96946 22.3335 10.2456 22.3335H22.5C22.7762 22.3335 23 22.1096 23 21.8335V21.2085Z" fill="white"/>
<path d="M23 9.8335C23 9.55735 22.7762 9.3335 22.5 9.3335H10.2456C9.96946 9.3335 9.74561 9.55735 9.74561 9.8335V10.4585C9.74561 10.7346 9.96946 10.9585 10.2456 10.9585H22.5C22.7762 10.9585 23 10.7346 23 10.4585V9.8335Z" fill="white"/>
<path d="M22.9998 13.6523C22.9998 13.3762 22.7759 13.1523 22.4998 13.1523H17.3696C17.0935 13.1523 16.8696 13.3762 16.8696 13.6523V14.2773C16.8696 14.5535 17.0935 14.7773 17.3696 14.7773H22.4998C22.7759 14.7773 22.9998 14.5535 22.9998 14.2773V13.6523Z" fill="white"/>
<path d="M22.9998 17.3896C22.9998 17.1135 22.7759 16.8896 22.4998 16.8896H17.3696C17.0935 16.8896 16.8696 17.1135 16.8696 17.3896V18.0146C16.8696 18.2908 17.0935 18.5146 17.3696 18.5146H22.4998C22.7759 18.5146 22.9998 18.2908 22.9998 18.0146V17.3896Z" fill="white"/>
<path fill-rule="evenodd" clip-rule="evenodd" d="M14.0533 13.4872C14.0533 13.0942 13.6206 12.8548 13.2876 13.0636L9.66701 15.334C9.35663 15.5286 9.35404 15.9799 9.66217 16.1781L13.2828 18.5067C13.6155 18.7207 14.0533 18.4818 14.0533 18.0862V13.4872Z" fill="white"/>
</g>
<defs>
<clipPath id="clip0_2174_116864">
<rect width="19.2" height="20" fill="white" transform="translate(6.3999 25.6001) rotate(-90)"/>
</clipPath>
</defs>
</svg>
