<svg width="67" height="59" viewBox="0 0 67 59" fill="none" xmlns="http://www.w3.org/2000/svg">
<path d="M63.3233 27.5028C64.1454 25.8138 64.6484 24.0306 65.1024 22.2188C65.7077 19.8059 65.0983 17.4624 63.3069 16.3623C62.2109 15.6915 60.9021 15.6506 59.6588 15.6384C56.5669 15.6097 53.5036 15.9451 50.4976 16.8489C52.1376 16.7549 53.7777 16.6976 55.4136 16.5545C56.1825 16.489 56.5628 16.7344 56.7837 17.4788C57.7325 20.722 58.1579 24.0102 57.9738 27.3924C57.8102 30.427 57.0086 33.2735 55.7899 36.0382C54.7142 38.4757 53.4014 40.7374 51.5732 42.6964C48.9926 46.0173 45.3567 48.8515 41.4878 50.4138C38.2036 51.6858 33.5167 52.8554 29.9994 50.512C28.8257 49.3382 29.9994 46.9948 29.9994 44.6513C28.8257 48.1685 26.4822 52.8554 31.1732 56.3727C33.5167 57.5464 35.8602 56.3727 37.0339 54.0292C35.8602 56.3727 33.5167 58.7161 31.1732 58.7161C21.7953 54.0292 24.1428 41.1341 25.9751 32.5619C26.4413 29.8954 27.0098 27.2206 27.5783 24.5377C27.975 22.7587 28.6989 21.0369 29.3287 19.3233C29.7827 18.0881 31.3695 17.8796 32.4901 17.5892C34.5064 17.0657 36.4 16.2232 38.3958 15.6506C44.6042 13.8757 50.8044 12.207 57.3317 12.207C59.4625 12.207 61.4911 12.6774 63.3887 13.5485C65.5114 14.5259 66.4111 16.3704 66.4357 18.6812C66.4684 21.998 65.0574 24.7995 63.3233 27.4947V27.5028Z" fill="#DE173E"/>
<path d="M1.3244 25.9798C3.6147 23.3992 6.17084 21.203 9.23003 19.1622C8.15031 18.9699 7.80677 19.8901 7.11559 19.7838C7.74542 13.8618 13.2462 6.36521 20.1744 3.04021C27.258 -0.362492 34.3456 -0.419749 41.6828 1.77647C41.4824 2.23861 40.9916 2.25906 40.6358 2.47173C40.2922 2.68031 39.7278 2.35722 39.4497 3.06066C40.2391 3.167 40.9752 3.21607 41.7114 3.04839C45.928 2.08729 50.1814 2.33268 54.3039 3.26924C57.7271 4.0463 60.7986 5.81309 63.412 8.90497C62.6554 8.54507 62.2178 8.36921 61.8047 8.13609C58.7782 6.44701 55.5554 5.73947 52.0709 5.70675C46.7214 5.65768 41.6214 6.62287 36.5214 8.21789C31.7772 9.70248 27.1639 11.4897 22.661 13.5346C20.4975 14.5162 18.3626 15.6613 16.2686 16.8392C12.87 18.7491 9.45088 20.614 6.1872 22.7489C4.55945 23.8163 2.93988 24.9001 1.32031 25.9757L1.3244 25.9798Z" fill="#DE173E"/>
<path d="M20.9276 22.3789C19.4185 28.1946 18.2979 33.9039 18.4451 39.4742C18.5187 42.2594 18.9113 45.0118 19.7293 47.7274C20.6209 50.5207 22.9644 52.8642 24.1381 55.2076C17.1077 49.347 12.4167 41.1429 8.09785 33.9203C7.84019 33.2537 7.8361 32.767 8.57636 32.3457C9.22664 31.9776 9.75423 31.401 10.3391 30.9143C10.2818 30.7875 10.2246 30.6607 10.1673 30.5339C6.77684 31.8549 3.39046 33.1719 0 34.497C3.27595 32.1371 6.61733 29.9123 10.0855 27.8715C13.5537 25.8348 17.1486 23.9821 20.9276 22.383V22.3789Z" fill="#DE173E"/>
</svg>
