<svg width="94" height="30" viewBox="0 0 94 30" fill="none" xmlns="http://www.w3.org/2000/svg">
<path d="M29.4222 0.65625H18.6251C11.1203 0.668519 6.68689 3.27371 5.32498 8.46775L0.298592 27.5343C0.257694 27.7061 0.233156 27.9065 0.216797 28.1355C0.216797 28.3646 0.331306 28.6304 0.556247 28.9371C0.781187 29.2316 1.15745 29.3788 1.67686 29.3788H5.62354C6.14294 29.3788 6.63782 29.2071 7.10405 28.8594C7.57029 28.4995 7.87294 28.0456 8.00381 27.4975L9.34528 22.4507H23.586V27.4975C23.586 28.0456 23.7578 28.4995 24.1054 28.8594C24.4653 29.2071 24.9193 29.3788 25.4674 29.3788H29.2341C29.7535 29.3788 30.2034 29.2071 30.5755 28.8594C30.9477 28.4995 31.1358 28.0578 31.1358 27.5384V2.52119C31.1358 2.02633 30.9682 1.59281 30.6369 1.22064C30.3179 0.848471 29.9089 0.660339 29.414 0.660339L29.4222 0.65625ZM23.5942 16.7823H10.834L12.5967 10.3531C12.932 9.1262 13.5701 8.14874 14.5189 7.42894C15.48 6.69278 16.6006 6.32879 17.8848 6.32879H23.5942V16.7864V16.7823Z" fill="white"/>
<path d="M64.0329 1.61735C64.0329 0.975253 63.6935 0.65625 63.0105 0.65625H59.1865C57.6896 0.65625 56.5281 1.29017 55.702 2.558L49.2319 12.5534L42.7413 2.558C41.9274 1.29017 40.7659 0.65625 39.2568 0.65625H35.4492C34.7539 0.65625 34.4062 0.975253 34.4062 1.61735C34.4062 1.91181 34.5208 2.22673 34.7457 2.558L45.4406 19.1216V27.5343C45.4406 28.0537 45.6287 28.4954 46.0009 28.8553C46.3731 29.203 46.823 29.3747 47.3424 29.3747H51.1091C51.6285 29.3747 52.0702 29.203 52.4301 28.8553C52.8023 28.4954 52.9904 28.0537 52.9904 27.5343V19.1216L63.7057 2.558C63.9184 2.22264 64.0247 1.91181 64.0247 1.61735H64.0329Z" fill="white"/>
<path d="M93.5005 1.21655C93.1774 0.84438 92.7725 0.65625 92.2777 0.65625H81.4806C73.9757 0.668519 69.5424 3.27371 68.1805 8.46775L63.1541 27.5343C63.1132 27.7061 63.0886 27.9065 63.0723 28.1355C63.0723 28.3646 63.1868 28.6304 63.4117 28.9371C63.6408 29.2316 64.0129 29.3788 64.5323 29.3788H68.479C68.9984 29.3788 69.4933 29.2071 69.9595 28.8594C70.4258 28.4995 70.7284 28.0456 70.8593 27.4975L72.2007 22.4507H86.4415V27.4975C86.4415 28.0456 86.6133 28.4995 86.9609 28.8594C87.3208 29.2071 87.7748 29.3788 88.3228 29.3788H92.0896C92.609 29.3788 93.0588 29.2071 93.431 28.8594C93.8032 28.4995 93.9913 28.0578 93.9913 27.5384V2.52119C93.9913 2.02633 93.8236 1.59281 93.4924 1.22064L93.5005 1.21655ZM86.4497 16.7782H73.6894L75.4522 10.3491C75.7875 9.12211 76.4255 8.14465 77.3744 7.42485C78.3355 6.68869 79.4561 6.3247 80.7403 6.3247H86.4497V16.7823V16.7782Z" fill="white"/>
</svg>
