<svg width="159" height="59" viewBox="0 0 159 59" fill="none" xmlns="http://www.w3.org/2000/svg">
<g id="Logo" clip-path="url(#clip0_2261_118358)">
<g id="Group 48098119">
<path id="Vector" d="M94.4222 15.6562H83.6251C76.1203 15.6685 71.6869 18.2737 70.325 23.4677L65.2986 42.5343C65.2577 42.7061 65.2332 42.9065 65.2168 43.1355C65.2168 43.3646 65.3313 43.6304 65.5562 43.9371C65.7812 44.2316 66.1575 44.3788 66.6769 44.3788H70.6235C71.1429 44.3788 71.6378 44.2071 72.1041 43.8594C72.5703 43.4995 72.8729 43.0456 73.0038 42.4975L74.3453 37.4507H88.586V42.4975C88.586 43.0456 88.7578 43.4995 89.1054 43.8594C89.4653 44.2071 89.9193 44.3788 90.4674 44.3788H94.2341C94.7535 44.3788 95.2034 44.2071 95.5755 43.8594C95.9477 43.4995 96.1358 43.0578 96.1358 42.5384V17.5212C96.1358 17.0263 95.9682 16.5928 95.6369 16.2206C95.3179 15.8485 94.9089 15.6603 94.414 15.6603L94.4222 15.6562ZM88.5942 31.7823H75.834L77.5967 25.3531C77.932 24.1262 78.5701 23.1487 79.5189 22.4289C80.48 21.6928 81.6006 21.3288 82.8848 21.3288H88.5942V31.7864V31.7823Z" fill="white"/>
<path id="Vector_2" d="M129.033 16.6173C129.033 15.9753 128.693 15.6562 128.01 15.6562H124.186C122.69 15.6562 121.528 16.2902 120.702 17.558L114.232 27.5534L107.741 17.558C106.927 16.2902 105.766 15.6562 104.257 15.6562H100.449C99.7539 15.6562 99.4062 15.9753 99.4062 16.6173C99.4062 16.9118 99.5208 17.2267 99.7457 17.558L110.441 34.1216V42.5343C110.441 43.0537 110.629 43.4954 111.001 43.8553C111.373 44.203 111.823 44.3747 112.342 44.3747H116.109C116.628 44.3747 117.07 44.203 117.43 43.8553C117.802 43.4954 117.99 43.0537 117.99 42.5343V34.1216L128.706 17.558C128.918 17.2226 129.025 16.9118 129.025 16.6173H129.033Z" fill="white"/>
<path id="Vector_3" d="M158.501 16.2166C158.177 15.8444 157.773 15.6562 157.278 15.6562H146.481C138.976 15.6685 134.542 18.2737 133.18 23.4677L128.154 42.5343C128.113 42.7061 128.089 42.9065 128.072 43.1355C128.072 43.3646 128.187 43.6304 128.412 43.9371C128.641 44.2316 129.013 44.3788 129.532 44.3788H133.479C133.998 44.3788 134.493 44.2071 134.96 43.8594C135.426 43.4995 135.728 43.0456 135.859 42.4975L137.201 37.4507H151.442V42.4975C151.442 43.0456 151.613 43.4995 151.961 43.8594C152.321 44.2071 152.775 44.3788 153.323 44.3788H157.09C157.609 44.3788 158.059 44.2071 158.431 43.8594C158.803 43.4995 158.991 43.0578 158.991 42.5384V17.5212C158.991 17.0263 158.824 16.5928 158.492 16.2206L158.501 16.2166ZM151.45 31.7782H138.689L140.452 25.3491C140.788 24.1221 141.426 23.1447 142.374 22.4249C143.335 21.6887 144.456 21.3247 145.74 21.3247H151.45V31.7823V31.7782Z" fill="white"/>
</g>
<g id="Group 48098118">
<path id="Vector_4" d="M63.3233 27.5028C64.1454 25.8138 64.6484 24.0306 65.1024 22.2188C65.7077 19.8059 65.0983 17.4624 63.3069 16.3623C62.2109 15.6915 60.9021 15.6506 59.6588 15.6384C56.5669 15.6097 53.5036 15.9451 50.4976 16.8489C52.1376 16.7549 53.7777 16.6976 55.4136 16.5545C56.1825 16.489 56.5628 16.7344 56.7837 17.4788C57.7325 20.722 58.1579 24.0102 57.9738 27.3924C57.8102 30.427 57.0086 33.2735 55.7899 36.0382C54.7142 38.4757 53.4014 40.7374 51.5732 42.6964C48.9926 46.0173 45.3567 48.8515 41.4878 50.4138C38.2036 51.6858 33.5167 52.8554 29.9994 50.512C28.8257 49.3382 29.9994 46.9948 29.9994 44.6513C28.8257 48.1685 26.4822 52.8554 31.1732 56.3727C33.5167 57.5464 35.8602 56.3727 37.0339 54.0292C35.8602 56.3727 33.5167 58.7161 31.1732 58.7161C21.7953 54.0292 24.1428 41.1341 25.9751 32.5619C26.4413 29.8954 27.0098 27.2206 27.5783 24.5377C27.975 22.7587 28.6989 21.0369 29.3287 19.3233C29.7827 18.0881 31.3695 17.8796 32.4901 17.5892C34.5064 17.0657 36.4 16.2232 38.3958 15.6506C44.6042 13.8757 50.8044 12.207 57.3317 12.207C59.4625 12.207 61.4911 12.6774 63.3887 13.5485C65.5114 14.5259 66.4111 16.3704 66.4357 18.6812C66.4684 21.998 65.0574 24.7995 63.3233 27.4947V27.5028Z" fill="#DE173E"/>
<path id="Vector_5" d="M1.3244 25.9798C3.6147 23.3992 6.17084 21.203 9.23003 19.1622C8.15031 18.9699 7.80677 19.8901 7.11559 19.7838C7.74542 13.8618 13.2462 6.36521 20.1744 3.04021C27.258 -0.362492 34.3456 -0.419749 41.6828 1.77647C41.4824 2.23861 40.9916 2.25906 40.6358 2.47173C40.2922 2.68031 39.7278 2.35722 39.4497 3.06066C40.2391 3.167 40.9752 3.21607 41.7114 3.04839C45.928 2.08729 50.1814 2.33268 54.3039 3.26924C57.7271 4.0463 60.7986 5.81309 63.412 8.90497C62.6554 8.54507 62.2178 8.36921 61.8047 8.13609C58.7782 6.44701 55.5554 5.73947 52.0709 5.70676C46.7214 5.65768 41.6214 6.62287 36.5214 8.21789C31.7772 9.70248 27.1639 11.4897 22.661 13.5346C20.4975 14.5162 18.3626 15.6613 16.2686 16.8392C12.87 18.7491 9.45088 20.614 6.1872 22.7489C4.55945 23.8163 2.93988 24.9001 1.32031 25.9757L1.3244 25.9798Z" fill="#DE173E"/>
<path id="Vector_6" d="M20.9276 22.3789C19.4185 28.1946 18.2979 33.9039 18.4451 39.4742C18.5187 42.2594 18.9113 45.0118 19.7293 47.7274C20.6209 50.5207 22.9643 52.8642 24.1381 55.2076C17.1077 49.347 12.4167 41.1429 8.09785 33.9203C7.84019 33.2537 7.8361 32.767 8.57636 32.3457C9.22664 31.9776 9.75423 31.401 10.3391 30.9143C10.2818 30.7875 10.2246 30.6607 10.1673 30.5339C6.77683 31.8549 3.39046 33.1719 0 34.497C3.27595 32.1371 6.61733 29.9123 10.0855 27.8715C13.5537 25.8348 17.1486 23.9821 20.9276 22.383V22.3789Z" fill="#DE173E"/>
</g>
</g>
<defs>
<clipPath id="clip0_2261_118358">
<rect width="159" height="58.439" fill="white" transform="translate(0 0.280273)"/>
</clipPath>
</defs>
</svg>
