<svg width="60" height="60" viewBox="0 0 60 60" fill="none" xmlns="http://www.w3.org/2000/svg">
<g id="Frame">
<g id="Group">
<path id="Vector" d="M37.6492 43.2264C37.3507 43.5249 36.9963 43.7617 36.6063 43.9233C36.2163 44.0848 35.7982 44.168 35.3761 44.168C34.9539 44.168 34.5359 44.0848 34.1459 43.9233C33.7559 43.7617 33.4015 43.5249 33.103 43.2264L21.4376 31.5587C21.1391 31.2602 20.9023 30.9059 20.7408 30.5158C20.5792 30.1258 20.4961 29.7078 20.4961 29.2857C20.4961 28.8635 20.5792 28.4455 20.7408 28.0555C20.9023 27.6655 21.1391 27.3111 21.4376 27.0126L21.463 26.9872L33.1053 15.3449C33.7082 14.742 34.5258 14.4034 35.3784 14.4034C36.231 14.4034 37.0486 14.742 37.6515 15.3449C38.2543 15.9477 38.593 16.7654 38.593 17.618C38.593 18.4705 38.2543 19.2882 37.6515 19.891L28.2546 29.2857L37.6492 38.6803C37.9477 38.9788 38.1845 39.3332 38.346 39.7232C38.5076 40.1132 38.5907 40.5312 38.5907 40.9534C38.5907 41.3755 38.5076 41.7935 38.346 42.1835C38.1845 42.5735 37.9477 42.9279 37.6492 43.2264Z" fill="white"/>
</g>
</g>
</svg>
