<svg width="54" height="54" viewBox="0 0 54 54" fill="none" xmlns="http://www.w3.org/2000/svg">
<g id="Glyph">
<path id="Vector" d="M27.0039 0.128906C21.6885 0.128906 16.4925 1.7051 12.073 4.65816C7.6534 7.61122 4.20876 11.8085 2.17466 16.7193C0.140551 21.6301 -0.391664 27.0337 0.645314 32.247C1.68229 37.4602 4.24189 42.2489 8.00042 46.0074C11.759 49.7659 16.5476 52.3255 21.7609 53.3625C26.9741 54.3995 32.3778 53.8673 37.2885 51.8332C42.1993 49.7991 46.3966 46.3544 49.3497 41.9349C52.3027 37.5153 53.8789 32.3193 53.8789 27.0039C53.8723 19.8782 51.0387 13.0463 46.0001 8.00772C40.9615 2.96912 34.1296 0.135526 27.0039 0.128906ZM35.8289 33.1789C36.18 33.5305 36.3773 34.007 36.3773 34.5039C36.3773 35.0008 36.18 35.4773 35.8289 35.8289C35.4774 36.18 35.0008 36.3773 34.5039 36.3773C34.007 36.3773 33.5305 36.18 33.1789 35.8289L27.0039 29.6539L20.8289 35.8289C20.4774 36.18 20.0008 36.3773 19.5039 36.3773C19.007 36.3773 18.5305 36.18 18.1789 35.8289C17.8278 35.4773 17.6306 35.0008 17.6306 34.5039C17.6306 34.007 17.8278 33.5305 18.1789 33.1789L24.3539 27.0039L18.1789 20.8289C17.8477 20.4735 17.6674 20.0034 17.676 19.5176C17.6845 19.0318 17.8813 18.5684 18.2249 18.2249C18.5684 17.8813 19.0319 17.6845 19.5176 17.676C20.0034 17.6674 20.4735 17.8477 20.8289 18.1789L27.0039 24.3539L33.1789 18.1789C33.5344 17.8477 34.0045 17.6674 34.4902 17.676C34.976 17.6845 35.4394 17.8813 35.783 18.2249C36.1265 18.5684 36.3233 19.0318 36.3319 19.5176C36.3404 20.0034 36.1601 20.4735 35.8289 20.8289L29.6539 27.0039L35.8289 33.1789Z" fill="white" fill-opacity="0.2"/>
</g>
</svg>
