<svg width="28" height="28" viewBox="0 0 28 28" fill="none" xmlns="http://www.w3.org/2000/svg">
<path id="&#244;&#128;&#138;&#151;" d="M14.0013 27.3346C21.2994 27.3346 27.3346 21.2994 27.3346 14.0013C27.3346 6.6899 21.2994 0.667969 13.988 0.667969C6.6899 0.667969 0.667969 6.6899 0.667969 14.0013C0.667969 21.2994 6.7032 27.3346 14.0013 27.3346ZM14.0013 25.6065C7.56727 25.6065 2.39612 20.422 2.39612 14.0013C2.39612 7.56727 7.56727 2.38282 13.988 2.38282C20.422 2.38282 25.6198 7.56727 25.6198 14.0013C25.6198 20.422 20.4353 25.6065 14.0013 25.6065ZM10.3057 19.106H11.6351C12.2466 19.106 12.5257 18.7737 12.5257 18.2818V9.69422C12.5257 9.21566 12.2466 8.88332 11.6351 8.88332H10.3057C9.70752 8.88332 9.41506 9.21566 9.41506 9.69422V18.2818C9.41506 18.7737 9.70752 19.106 10.3057 19.106ZM16.3675 19.106H17.6836C18.2818 19.106 18.5743 18.7737 18.5743 18.2818V9.69422C18.5743 9.21566 18.2818 8.88332 17.6836 8.88332H16.3675C15.756 8.88332 15.4769 9.21566 15.4769 9.69422V18.2818C15.4769 18.7737 15.756 19.106 16.3675 19.106Z" fill="white"/>
</svg>
