<svg width="20" height="20" viewBox="0 0 20 20" fill="none" xmlns="http://www.w3.org/2000/svg">
<path id="&#244;&#128;&#138;&#149;" d="M10 20C15.4736 20 20 15.4736 20 10C20 4.51645 15.4736 0 9.99003 0C4.51645 0 0 4.51645 0 10C0 15.4736 4.52642 20 10 20ZM10 18.7039C5.17448 18.7039 1.29611 14.8156 1.29611 10C1.29611 5.17448 5.17448 1.28614 9.99003 1.28614C14.8156 1.28614 18.7139 5.17448 18.7139 10C18.7139 14.8156 14.8255 18.7039 10 18.7039ZM8.10568 13.8983L13.7986 10.5085C14.1874 10.2692 14.1775 9.75075 13.7986 9.52144L8.10568 6.1017C7.71685 5.87238 7.20837 6.06181 7.20837 6.49053V13.5194C7.20837 13.9482 7.68694 14.1476 8.10568 13.8983Z" fill="white"/>
</svg>
