<svg width="28" height="28" viewBox="0 0 28 28" fill="none" xmlns="http://www.w3.org/2000/svg">
<path id="&#244;&#128;&#154;&#129;" d="M14.0013 27.3346C21.2994 27.3346 27.3346 21.2994 27.3346 14.0013C27.3346 6.6899 21.2994 0.667969 13.988 0.667969C6.6899 0.667969 0.667969 6.6899 0.667969 14.0013C0.667969 21.2994 6.70319 27.3346 14.0013 27.3346ZM14.0013 25.6065C7.56726 25.6065 2.39612 20.422 2.39612 14.0013C2.39612 7.56726 7.56726 2.38282 13.988 2.38282C20.422 2.38282 25.6198 7.56726 25.6198 14.0013C25.6198 20.422 20.4353 25.6065 14.0013 25.6065ZM8.17876 14.6128C8.17876 17.8697 10.771 20.4619 13.988 20.4619C17.2316 20.4619 19.7972 17.8697 19.7972 14.6394C19.7972 14.2539 19.4649 13.9215 19.0794 13.9215C18.6806 13.9215 18.3482 14.2539 18.3482 14.6394C18.3482 17.0721 16.4207 19.0129 13.988 19.0129C11.5553 19.0129 9.62775 17.0721 9.62775 14.6394C9.62775 12.2067 11.5553 10.2924 13.988 10.2924C14.3336 10.2924 14.6527 10.319 14.9052 10.3722L13.2037 12.0604C13.0442 12.22 12.9777 12.3928 12.9777 12.5922C12.9777 12.9644 13.2702 13.2702 13.6557 13.2702C13.8285 13.2702 14.0146 13.1771 14.1209 13.0707L16.8062 10.3456C17.0721 10.0797 17.0721 9.58787 16.8062 9.3087L14.1741 6.61014C14.0279 6.46391 13.8551 6.37085 13.6557 6.37085C13.2702 6.37085 12.9777 6.66331 12.9777 7.04882C12.9777 7.23493 13.0309 7.42104 13.1638 7.55397L14.533 8.93649C14.3336 8.9099 14.0678 8.88332 13.8285 8.88332C10.7976 8.88332 8.17876 11.3958 8.17876 14.6128Z" fill="white"/>
</svg>
