<svg width="27" height="20" viewBox="0 0 27 20" fill="none" xmlns="http://www.w3.org/2000/svg">
<g id="Video 1">
<g id="Vector">
<path fill-rule="evenodd" clip-rule="evenodd" d="M11.901 6.45285C11.1299 5.97823 10.5002 5.5907 9.98102 5.33547C9.45931 5.07901 8.91609 4.88557 8.34435 4.94963C7.51799 5.04221 6.78434 5.50235 6.31527 6.19055C5.99693 6.65761 5.88551 7.22449 5.83362 7.82733C5.7819 8.42837 5.7819 9.1987 5.78191 10.1528V10.2323C5.7819 11.1865 5.7819 11.9568 5.83362 12.5578C5.88551 13.1607 5.99693 13.7275 6.31527 14.1946C6.78434 14.8828 7.51799 15.3429 8.34435 15.4355C8.91609 15.4996 9.45932 15.3061 9.98102 15.0497C10.5002 14.7945 11.1299 14.4069 11.9011 13.9323L11.974 13.8874C12.746 13.4123 13.3755 13.0249 13.8418 12.6738C14.3151 12.3172 14.7255 11.9235 14.9459 11.396C15.2663 10.6289 15.2663 9.75625 14.9459 8.98913C14.7255 8.46166 14.3151 8.06792 13.8418 7.7114C13.3755 7.36024 12.746 6.97285 11.9741 6.49779L11.901 6.45285ZM8.52913 6.59888C8.61597 6.58915 8.80333 6.60579 9.24886 6.82481C9.68865 7.04101 10.251 7.38607 11.0682 7.88896C11.8849 8.39161 12.447 8.73854 12.8434 9.03708C13.2399 9.33571 13.3655 9.51136 13.4145 9.62875C13.564 9.98659 13.564 10.3986 13.4145 10.7564C13.3655 10.8738 13.2399 11.0494 12.8434 11.3481C12.447 11.6466 11.8849 11.9935 11.0682 12.4962C10.251 12.9991 9.68865 13.3441 9.24886 13.5603C8.80333 13.7794 8.61597 13.796 8.52913 13.7863C8.2066 13.7501 7.89656 13.568 7.6866 13.2599C7.61571 13.1559 7.53251 12.9433 7.48709 12.4155C7.44222 11.8942 7.44149 11.1958 7.44149 10.1926C7.44149 9.18935 7.44222 8.49091 7.48709 7.96964C7.53251 7.44183 7.61571 7.22925 7.6866 7.12523C7.89656 6.8172 8.2066 6.63502 8.52913 6.59888Z" fill="white"/>
<path fill-rule="evenodd" clip-rule="evenodd" d="M13.6318 0.589843C12.6755 0.51171 11.4856 0.511714 9.96798 0.511719H9.89372C8.37607 0.511714 7.18623 0.51171 6.22993 0.589843C5.25616 0.669403 4.45169 0.834095 3.72355 1.2051C2.52652 1.81502 1.5533 2.78824 0.943384 3.98527C0.572376 4.71342 0.407684 5.51788 0.328124 6.49165C0.249991 7.44795 0.249995 8.6378 0.25 10.1554V10.2297C0.249995 11.7474 0.249991 12.9372 0.328124 13.8935C0.407684 14.8673 0.572376 15.6717 0.943384 16.3999C1.5533 17.5969 2.52652 18.5701 3.72355 19.18C4.45169 19.5511 5.25616 19.7157 6.22993 19.7953C7.18621 19.8734 8.37603 19.8734 9.89365 19.8734H9.968C11.4856 19.8734 12.6755 19.8734 13.6318 19.7953C14.6055 19.7157 15.41 19.5511 16.1382 19.18C17.3352 18.5701 18.3084 17.5969 18.9183 16.3999C18.9737 16.2913 19.0244 16.1809 19.071 16.0685C20.3618 16.6324 21.4189 17.0902 22.2769 17.323C23.1896 17.5706 24.0786 17.6216 24.8734 17.1015C25.6681 16.5815 25.9773 15.7464 26.1159 14.811C26.2501 13.9052 26.25 12.7104 26.25 11.2438V9.14132C26.25 7.67473 26.2501 6.47995 26.1159 5.57416C25.9773 4.63874 25.6681 3.80365 24.8734 3.28362C24.0786 2.76359 23.1896 2.81459 22.2769 3.06218C21.4189 3.29495 20.3618 3.75273 19.071 4.31668C19.0244 4.20426 18.9737 4.0939 18.9183 3.98527C18.3084 2.78824 17.3352 1.81502 16.1382 1.2051C15.41 0.834095 14.6055 0.669403 13.6318 0.589843ZM19.5549 14.4688L19.4773 14.4349C19.6118 13.3792 19.6118 12.0552 19.6117 10.3097V10.0755C19.6118 8.33011 19.6118 7.00592 19.4773 5.95026L19.5549 5.91633C20.9785 5.29429 21.9605 4.86758 22.7114 4.66386C23.4475 4.46419 23.7582 4.53724 23.9647 4.67232C24.1711 4.80741 24.3625 5.06291 24.4742 5.81732C24.5882 6.58701 24.5904 7.65773 24.5904 9.21126V11.1739C24.5904 12.7274 24.5882 13.7981 24.4742 14.5678C24.3625 15.3222 24.1711 15.5777 23.9647 15.7128C23.7582 15.8479 23.4475 15.921 22.7114 15.7213C21.9605 15.5176 20.9785 15.0909 19.5549 14.4688ZM4.47698 2.6838C4.93218 2.45186 5.49393 2.31508 6.36507 2.24391C7.2459 2.17194 8.36808 2.17129 9.93085 2.17129C11.4936 2.17129 12.6158 2.17194 13.4966 2.24391C14.3678 2.31508 14.9295 2.45186 15.3847 2.6838C16.2695 3.13461 16.9888 3.85394 17.4396 4.7387C17.5677 4.99013 17.6665 5.27363 17.7412 5.62153C17.9475 6.58228 17.9521 7.90503 17.9521 10.1926C17.9521 12.4795 17.9475 13.8021 17.7413 14.7629C17.6666 15.1111 17.5678 15.3948 17.4396 15.6465C16.9888 16.5312 16.2695 17.2505 15.3847 17.7014C14.9295 17.9333 14.3678 18.0701 13.4966 18.1412C12.6158 18.2132 11.4936 18.2139 9.93085 18.2139C8.36808 18.2139 7.2459 18.2132 6.36507 18.1412C5.49393 18.0701 4.93218 17.9333 4.47698 17.7014C3.59222 17.2505 2.87288 16.5312 2.42208 15.6465C2.19014 15.1913 2.05336 14.6295 1.98219 13.7584C1.91022 12.8775 1.90957 11.7554 1.90957 10.1926C1.90957 8.6298 1.91022 7.50763 1.98219 6.62679C2.05336 5.75565 2.19014 5.1939 2.42208 4.7387C2.87288 3.85394 3.59222 3.13461 4.47698 2.6838Z" fill="white"/>
</g>
</g>
</svg>
