<svg width="30" height="30" viewBox="0 0 30 30" fill="none" xmlns="http://www.w3.org/2000/svg">
<g id="Property 1=Default">
<path id="&#244;&#128;&#138;&#162;" d="M19.7932 17.2512V6.9919C19.7932 6.44733 19.3997 6 18.8247 6C18.4111 6 18.1387 6.20421 17.7251 6.55429L12.9735 10.6677L13.8108 11.4846L18.2295 7.59481C18.3001 7.54619 18.3506 7.49757 18.4313 7.49757C18.5221 7.49757 18.5826 7.54619 18.5826 7.65316V16.0843L19.7932 17.2512ZM22.971 23.825C23.203 24.0583 23.5864 24.0583 23.8184 23.825C24.0605 23.5916 24.0605 23.2318 23.8184 23.0081L7.03153 6.8363C6.80958 6.61264 6.41614 6.60292 6.17402 6.8363C5.94199 7.05024 5.94199 7.4295 6.17402 7.65316L22.971 23.825ZM9.75536 18.1653H12.7415C12.8625 18.1653 12.9634 18.1945 13.0441 18.2723L17.7251 22.2982C18.1084 22.6191 18.4313 22.8039 18.8348 22.8039C19.1475 22.8039 19.3997 22.6775 19.5813 22.4441L18.5725 21.5008L13.6898 17.2901C13.4779 17.1053 13.3165 17.0665 13.034 17.0665H9.8058C9.372 17.0665 9.2005 16.8914 9.2005 16.4733V12.4279L8.23203 11.4943C8.07062 11.7374 7.97982 12.0681 7.97982 12.4862V16.3857C7.97982 17.6013 8.56494 18.1653 9.75536 18.1653Z" fill="white"/>
</g>
</svg>
