<svg width="11" height="8" viewBox="0 0 11 8" fill="none" xmlns="http://www.w3.org/2000/svg">
<g id="Capa_1" clip-path="url(#clip0_2837_144184)">
<path id="Vector" d="M5.49978 0.5C7.60167 0.5 9.50757 1.72752 10.9139 3.72135C11.0287 3.88469 11.0287 4.1129 10.9139 4.27625C9.50757 6.27248 7.60167 7.5 5.5 7.5C3.39833 7.5 1.49243 6.27248 0.0860701 4.27865C-0.0286894 4.11531 -0.0286894 3.8871 0.0860701 3.72375C1.49243 1.72752 3.39811 0.5 5.49978 0.5ZM5.34901 6.46465C6.74412 6.55834 7.89622 5.33082 7.80846 3.83905C7.73645 2.60913 6.80263 1.61222 5.65054 1.53535C4.25543 1.44166 3.10333 2.66918 3.19109 4.16095C3.26535 5.38847 4.19917 6.38538 5.34901 6.46465ZM5.41877 5.32601C6.17033 5.37646 6.79138 4.71585 6.74187 3.91352C6.70362 3.25051 6.19958 2.71482 5.57853 2.67159C4.82697 2.62114 4.20592 3.28174 4.25543 4.08408C4.29593 4.74949 4.79997 5.28517 5.41877 5.32601Z" fill="white"/>
</g>
<defs>
<clipPath id="clip0_2837_144184">
<rect width="11" height="7" fill="white" transform="matrix(-1 0 0 1 11 0.5)"/>
</clipPath>
</defs>
</svg>
