<svg width="30" height="30" viewBox="0 0 30 30" fill="none" xmlns="http://www.w3.org/2000/svg">
<g id="Property 1=Variant2">
<path id="&#244;&#128;&#138;&#164;" d="M8.61468 18.5833H11.3303C11.4404 18.5833 11.5321 18.6111 11.6055 18.6852L15.8624 22.5185C16.2018 22.8333 16.4954 23 16.8624 23C17.3853 23 17.7339 22.6204 17.7339 22.1019V7.94444C17.7339 7.42593 17.3853 7 16.8532 7C16.4862 7 16.2294 7.19444 15.8624 7.52778L11.6055 11.3796C11.5321 11.4537 11.4404 11.4722 11.3303 11.4722H8.61468C7.52294 11.4722 7 12.0278 7 13.1759V16.8889C7 18.0463 7.53211 18.5833 8.61468 18.5833ZM8.66055 17.537C8.26606 17.537 8.10092 17.3704 8.10092 16.9722V13.1019C8.10092 12.6944 8.26606 12.5278 8.66055 12.5278H11.578C11.8257 12.5278 12.0092 12.4907 12.2294 12.287L16.3211 8.51852C16.3761 8.47222 16.4312 8.42593 16.5046 8.42593C16.578 8.42593 16.6422 8.47222 16.6422 8.57407V21.4259C16.6422 21.5278 16.578 21.5833 16.5138 21.5833C16.4495 21.5833 16.4037 21.5556 16.3303 21.4907L12.2294 17.7778C12.0183 17.5833 11.8257 17.537 11.578 17.537H8.66055ZM21.0826 18.8981C21.3303 19.0648 21.6514 19.0093 21.844 18.7407C22.5505 17.8148 23 16.463 23 15.0093C23 13.5463 22.5505 12.2037 21.844 11.2685C21.6514 11 21.3303 10.9444 21.0826 11.1204C20.7982 11.3148 20.7523 11.6667 20.9725 11.963C21.5872 12.8056 21.8991 13.8333 21.8991 15.0093C21.8991 16.1759 21.578 17.1944 20.9725 18.0463C20.7615 18.3519 20.7982 18.6944 21.0826 18.8981Z" fill="white"/>
</g>
</svg>
