<svg width="30" height="30" viewBox="0 0 30 30" fill="none" xmlns="http://www.w3.org/2000/svg">
<g id="Property 1=Variant3">
<path id="&#244;&#128;&#138;&#166;" d="M6.5913 18.5833H9.26757C9.37607 18.5833 9.46648 18.6111 9.53882 18.6852L13.7341 22.5185C14.0776 22.8333 14.367 23 14.7286 23C15.2349 23 15.5876 22.6204 15.5876 22.1019V7.94444C15.5876 7.42593 15.2349 7 14.7196 7C14.3489 7 14.1048 7.19444 13.7341 7.52778L9.53882 11.3796C9.46648 11.4537 9.37607 11.4722 9.26757 11.4722H6.5913C5.5244 11.4722 5 12.0278 5 13.1759V16.8889C5 18.0463 5.5244 18.5833 6.5913 18.5833ZM6.63651 17.537C6.24772 17.537 6.09402 17.3704 6.09402 16.9722V13.1019C6.09402 12.6944 6.24772 12.5278 6.63651 12.5278H9.51169C9.76485 12.5278 9.94568 12.4907 10.1536 12.287L14.1861 8.51852C14.2494 8.47222 14.2946 8.42593 14.367 8.42593C14.4483 8.42593 14.5026 8.47222 14.5026 8.57407V21.4259C14.5026 21.5278 14.4483 21.5833 14.376 21.5833C14.3217 21.5833 14.2675 21.5556 14.1952 21.4907L10.1536 17.7778C9.94568 17.5833 9.76485 17.537 9.51169 17.537H6.63651ZM22.0612 21.3148C22.3144 21.5 22.6309 21.4352 22.8207 21.1667C23.978 19.5741 24.6923 17.3056 24.6923 15C24.6923 12.6852 23.9871 10.4074 22.8207 8.83333C22.6309 8.55556 22.3144 8.5 22.0612 8.67593C21.799 8.86111 21.7538 9.19444 21.9618 9.49074C23.0106 10.9722 23.6073 12.9352 23.6073 15C23.6073 17.0648 23.0016 19.0185 21.9618 20.5093C21.7629 20.8056 21.799 21.1389 22.0612 21.3148ZM18.8877 18.8889C19.1228 19.0556 19.4483 19.0093 19.6381 18.7315C20.3343 17.8056 20.7774 16.463 20.7774 15C20.7774 13.537 20.3343 12.1944 19.6381 11.2685C19.4483 10.9907 19.1228 10.9352 18.8877 11.1111C18.6074 11.3148 18.5622 11.6574 18.7792 11.9537C19.385 12.7963 19.6924 13.8241 19.6924 15C19.6924 16.1759 19.3759 17.1944 18.7792 18.037C18.5712 18.3426 18.6074 18.6852 18.8877 18.8889Z" fill="white"/>
</g>
</svg>
