<svg width="24" height="24" viewBox="0 0 24 24" fill="none" xmlns="http://www.w3.org/2000/svg">
<g id="uil:android">
<path id="Vector" d="M14.5611 4.37947L15.3873 2.90996C15.3978 2.89113 15.4045 2.87043 15.407 2.84905C15.4094 2.82766 15.4076 2.80601 15.4016 2.78533C15.3955 2.76465 15.3854 2.74534 15.3718 2.72851C15.3582 2.71168 15.3414 2.69766 15.3223 2.68724C15.3032 2.67682 15.2822 2.67022 15.2605 2.6678C15.2388 2.66538 15.2169 2.6672 15.1959 2.67314C15.1749 2.67909 15.1553 2.68906 15.1382 2.70247C15.1212 2.71587 15.107 2.73247 15.0964 2.7513L14.2616 4.23608C13.549 3.92805 12.7794 3.76902 12.0013 3.76902C11.2232 3.76902 10.4536 3.92805 9.74096 4.23608L8.9062 2.7513C8.88486 2.71304 8.84898 2.68472 8.80645 2.67254C8.76392 2.66037 8.71823 2.66535 8.67943 2.68639C8.64063 2.70743 8.6119 2.74281 8.59955 2.78473C8.5872 2.82666 8.59226 2.8717 8.6136 2.90996L9.43976 4.37947C8.65369 4.76168 7.98956 5.34992 7.52018 6.07967C7.0508 6.80942 6.79431 7.65251 6.77883 8.51649H17.2238C17.2081 7.65233 16.9514 6.80912 16.4817 6.07935C16.012 5.34958 15.3475 4.76145 14.5611 4.37947ZM9.59122 6.63209C9.50489 6.63209 9.4205 6.60684 9.34873 6.55953C9.27696 6.51223 9.22103 6.445 9.18804 6.36635C9.15504 6.28769 9.14645 6.20116 9.16335 6.11769C9.18026 6.03423 9.2219 5.95758 9.28301 5.89746C9.34411 5.83733 9.42194 5.79643 9.50663 5.77993C9.59132 5.76342 9.67908 5.77206 9.75879 5.80475C9.8385 5.83744 9.90659 5.89271 9.95442 5.96356C10.0023 6.03441 10.0277 6.11766 10.0275 6.20278C10.0273 6.31671 9.98124 6.42591 9.89944 6.5064C9.81764 6.58688 9.70679 6.63209 9.59122 6.63209ZM14.4122 6.63209C14.3259 6.63209 14.2415 6.60684 14.1697 6.55953C14.098 6.51223 14.042 6.445 14.009 6.36635C13.976 6.28769 13.9674 6.20116 13.9844 6.11769C14.0013 6.03423 14.0429 5.95758 14.104 5.89746C14.1651 5.83733 14.2429 5.79643 14.3276 5.77993C14.4123 5.76342 14.5001 5.77206 14.5798 5.80475C14.6595 5.83744 14.7276 5.89271 14.7754 5.96356C14.8233 6.03441 14.8487 6.11766 14.8485 6.20278C14.8483 6.31671 14.8022 6.42591 14.7204 6.5064C14.6386 6.58688 14.5278 6.63209 14.4122 6.63209ZM6.77711 16.3867C6.77688 16.5505 6.80945 16.7127 6.87296 16.8641C6.93647 17.0155 7.02965 17.153 7.14718 17.2688C7.26471 17.3846 7.40427 17.4764 7.55785 17.5389C7.71143 17.6014 7.87602 17.6334 8.04217 17.633H8.87952V20.1784C8.87952 20.4845 9.00287 20.7781 9.22245 20.9946C9.44202 21.2111 9.73982 21.3327 10.0503 21.3327C10.3609 21.3327 10.6587 21.2111 10.8782 20.9946C11.0978 20.7781 11.2212 20.4845 11.2212 20.1784V17.633H12.7823V20.1784C12.7823 20.4844 12.9056 20.7779 13.1251 20.9943C13.3446 21.2107 13.6423 21.3323 13.9527 21.3323C14.2631 21.3323 14.5608 21.2107 14.7803 20.9943C14.9998 20.7779 15.1231 20.4844 15.1231 20.1784V17.633H15.9613C16.1272 17.6331 16.2915 17.601 16.4449 17.5385C16.5982 17.4759 16.7375 17.3842 16.8548 17.2685C16.9722 17.1528 17.0652 17.0155 17.1287 16.8643C17.1921 16.7131 17.2247 16.5511 17.2246 16.3875V8.92374H6.77711V16.3867ZM5.1704 8.7252C4.85998 8.72565 4.56242 8.84748 4.343 9.06396C4.12358 9.28045 4.00023 9.5739 4 9.87994V14.6898C4 14.8413 4.03027 14.9914 4.08909 15.1313C4.14791 15.2713 4.23412 15.3985 4.3428 15.5057C4.45148 15.6128 4.58051 15.6978 4.7225 15.7558C4.8645 15.8138 5.0167 15.8437 5.1704 15.8437C5.32409 15.8437 5.47629 15.8138 5.61829 15.7558C5.76029 15.6978 5.88931 15.6128 5.99799 15.5057C6.10667 15.3985 6.19288 15.2713 6.2517 15.1313C6.31052 14.9914 6.34079 14.8413 6.34079 14.6898V9.87994C6.34034 9.57405 6.21688 9.28081 5.99749 9.06451C5.77809 8.84822 5.48066 8.7265 5.1704 8.72605V8.7252ZM18.8296 8.7252C18.5192 8.72565 18.2216 8.84748 18.0022 9.06396C17.7828 9.28045 17.6594 9.5739 17.6592 9.87994V14.6898C17.6592 14.8413 17.6895 14.9914 17.7483 15.1313C17.8071 15.2713 17.8933 15.3985 18.002 15.5057C18.1107 15.6128 18.2397 15.6978 18.3817 15.7558C18.5237 15.8138 18.6759 15.8437 18.8296 15.8437C18.9833 15.8437 19.1355 15.8138 19.2775 15.7558C19.4195 15.6978 19.5485 15.6128 19.6572 15.5057C19.7659 15.3985 19.8521 15.2713 19.9109 15.1313C19.9697 14.9914 20 14.8413 20 14.6898V9.87994C19.9995 9.57405 19.8761 9.28081 19.6567 9.06451C19.4373 8.84822 19.1399 8.7265 18.8296 8.72605V8.7252Z" fill="white"/>
</g>
</svg>
