<svg width="24" height="24" viewBox="0 0 24 24" fill="none" xmlns="http://www.w3.org/2000/svg">
<g id="ic:baseline-apple">
<path id="Vector" d="M16.2201 19.3039C15.2725 20.2186 14.2378 20.0742 13.2418 19.6409C12.1877 19.198 11.2207 19.1787 10.1087 19.6409C8.71617 20.2379 7.98124 20.0646 7.14962 19.3039C2.43062 14.4608 3.12687 7.08546 8.48409 6.81586C9.78954 6.88326 10.6985 7.52836 11.4625 7.58613C12.6035 7.35505 13.6963 6.69069 14.9147 6.77735C16.3749 6.89289 17.4772 7.47059 18.2025 8.51046C15.1854 10.311 15.901 14.2683 18.6667 15.3755C18.1155 16.8198 17.3999 18.2544 16.2105 19.3135L16.2201 19.3039ZM11.3658 6.75809C11.2207 4.61096 12.971 2.83933 14.9824 2.66602C15.2628 5.15015 12.7196 6.9988 11.3658 6.75809Z" fill="white"/>
</g>
</svg>
