<svg width="80" height="80" viewBox="0 0 80 80" fill="none" xmlns="http://www.w3.org/2000/svg">
<path d="M56.6673 25.832C58.048 25.832 59.1673 24.7127 59.1673 23.332C59.1673 21.9513 58.048 20.832 56.6673 20.832V25.832ZM23.334 20.832C21.9533 20.832 20.834 21.9513 20.834 23.332C20.834 24.7127 21.9533 25.832 23.334 25.832V20.832ZM56.6673 20.832H23.334V25.832H56.6673V20.832Z" fill="#6F7076"/>
<path d="M56.6673 39.166C58.048 39.166 59.1673 38.0467 59.1673 36.666C59.1673 35.2853 58.048 34.166 56.6673 34.166V39.166ZM23.334 34.166C21.9533 34.166 20.834 35.2853 20.834 36.666C20.834 38.0467 21.9533 39.166 23.334 39.166V34.166ZM56.6673 34.166H23.334V39.166H56.6673V34.166Z" fill="#6F7076"/>
<path d="M40.0007 52.5C41.3813 52.5 42.5007 51.3807 42.5007 50C42.5007 48.6193 41.3813 47.5 40.0007 47.5V52.5ZM23.334 47.5C21.9533 47.5 20.834 48.6193 20.834 50C20.834 51.3807 21.9533 52.5 23.334 52.5V47.5ZM40.0007 47.5H23.334V52.5H40.0007V47.5Z" fill="#6F7076"/>
<path d="M16.6667 9.16602H63.3333V4.16602H16.6667V9.16602ZM67.5 13.3327V63.847H72.5V13.3327H67.5ZM61.922 67.7677L56.716 65.8933L55.0227 70.598L60.2283 72.472L61.922 67.7677ZM49.8497 66.159L41.71 69.8217L43.7617 74.3813L51.9013 70.7187L49.8497 66.159ZM38.29 69.8217L30.1505 66.159L28.0987 70.7187L36.2383 74.3813L38.29 69.8217ZM23.2839 65.8933L18.078 67.7677L19.7716 72.472L24.9775 70.598L23.2839 65.8933ZM12.5 63.847V13.3327H7.5V63.847H12.5ZM18.078 67.7677C15.3627 68.745 12.5 66.733 12.5 63.847H7.5C7.5 70.196 13.798 74.6223 19.7716 72.472L18.078 67.7677ZM30.1505 66.159C27.9826 65.1833 25.5206 65.0883 23.2839 65.8933L24.9775 70.598C25.9942 70.2317 27.1133 70.275 28.0987 70.7187L30.1505 66.159ZM41.71 69.8217C40.6223 70.311 39.3777 70.311 38.29 69.8217L36.2383 74.3813C38.6307 75.458 41.3693 75.458 43.7617 74.3813L41.71 69.8217ZM56.716 65.8933C54.4793 65.0883 52.0173 65.1833 49.8497 66.159L51.9013 70.7187C52.8867 70.275 54.0057 70.2317 55.0227 70.598L56.716 65.8933ZM67.5 63.847C67.5 66.733 64.6373 68.745 61.922 67.7677L60.2283 72.472C66.202 74.6223 72.5 70.196 72.5 63.847H67.5ZM63.3333 9.16602C65.6347 9.16602 67.5 11.0315 67.5 13.3327H72.5C72.5 8.27008 68.396 4.16602 63.3333 4.16602V9.16602ZM16.6667 4.16602C11.6041 4.16602 7.5 8.27008 7.5 13.3327H12.5C12.5 11.0315 14.3655 9.16602 16.6667 9.16602V4.16602Z" fill="#6F7076"/>
</svg>
