<svg width="22" height="22" viewBox="0 0 22 22" fill="none" xmlns="http://www.w3.org/2000/svg">
<g id="fi_2211008">
<path id="XMLID_952_" d="M4.8125 18.5625C4.8125 19.6996 5.73787 20.625 6.875 20.625C8.01213 20.625 8.9375 19.6996 8.9375 18.5625C8.9375 17.4254 8.01213 16.5 6.875 16.5C5.73787 16.5 4.8125 17.4254 4.8125 18.5625ZM7.5625 18.5625C7.5625 18.9413 7.25381 19.25 6.875 19.25C6.49619 19.25 6.1875 18.9413 6.1875 18.5625C6.1875 18.1837 6.49619 17.875 6.875 17.875C7.25381 17.875 7.5625 18.1837 7.5625 18.5625Z" fill="white"/>
<path id="XMLID_955_" d="M17.1875 18.5625C17.1875 17.4254 16.2621 16.5 15.125 16.5C13.9879 16.5 13.0625 17.4254 13.0625 18.5625C13.0625 19.6996 13.9879 20.625 15.125 20.625C16.2621 20.625 17.1875 19.6996 17.1875 18.5625ZM14.4375 18.5625C14.4375 18.1837 14.7462 17.875 15.125 17.875C15.5038 17.875 15.8125 18.1837 15.8125 18.5625C15.8125 18.9413 15.5038 19.25 15.125 19.25C14.7462 19.25 14.4375 18.9413 14.4375 18.5625Z" fill="white"/>
<path id="Union" fill-rule="evenodd" clip-rule="evenodd" d="M18.7819 13.4943L20.4333 5.78811C20.5206 5.37974 20.4202 4.95967 20.1576 4.63586C19.9123 4.33281 19.5561 4.15028 19.1702 4.12748C19.5558 4.15048 19.9117 4.33296 20.1568 4.63581C20.4194 4.95963 20.5198 5.37969 20.4325 5.78806L18.7811 13.4943C18.5783 14.4389 17.7299 15.125 16.764 15.125H6.05069C6.01347 15.125 5.97647 15.124 5.93972 15.1221C5.97673 15.1241 6.01399 15.125 6.05147 15.125H16.7648C17.7307 15.125 18.5791 14.4389 18.7819 13.4943ZM2.81876 2.06255C2.81875 2.06253 2.81875 2.06252 2.81875 2.0625H1.375C1.36074 2.0625 1.34659 2.06207 1.33255 2.06121C1.34685 2.0621 1.36126 2.06255 1.37578 2.06255H2.81876ZM3.4809 0.688852C3.81347 0.709615 4.08597 0.967388 4.12156 1.3035L4.41856 4.125H4.41934L4.12234 1.30355C4.08673 0.967173 3.81383 0.709259 3.4809 0.688852ZM20.6289 5.82993C20.7288 5.36259 20.6138 4.88081 20.3129 4.50988C20.0124 4.13865 19.5656 3.92505 19.0878 3.92505H4.5994L4.32123 1.28249C4.27335 0.830242 3.8927 0.487549 3.43828 0.487549H1.37578C0.885824 0.487549 0.488281 0.885092 0.488281 1.37505C0.488281 1.86501 0.885824 2.26255 1.37578 2.26255H2.63945L3.32599 8.78562L3.80107 13.2993C3.92246 14.4537 4.8904 15.325 6.05147 15.325H16.7648C17.8251 15.325 18.7549 14.5729 18.9775 13.5362L20.6289 5.82993ZM6.00791 13.7487C5.67387 13.7283 5.40224 13.4711 5.36663 13.1347L4.56294 5.5H19.0871L19.0871 5.50005H4.56372L5.36741 13.1347C5.40299 13.4708 5.67423 13.728 6.00791 13.7487ZM4.78588 5.70005H18.8405L17.2417 13.164C17.1934 13.3872 16.992 13.55 16.7641 13.55H6.05147C5.80048 13.55 5.59266 13.3627 5.56629 13.1137L4.78588 5.70005Z" fill="white"/>
</g>
</svg>
