<svg width="40" height="41" viewBox="0 0 40 41" fill="none" xmlns="http://www.w3.org/2000/svg">
<g clip-path="url(#clip0_14538_87139)">
<path d="M25.2295 5.39422L39.1933 29.5804C39.7054 30.4673 39.9999 31.4956 39.9999 32.5934C39.9999 35.9269 37.2974 38.6296 33.9636 38.6296H19.9999L15.1709 20.5003L19.9999 2.37109C22.2358 2.37109 24.1864 3.58773 25.2295 5.39422Z" fill="#424242"/>
<path d="M14.7704 5.39422L0.806484 29.5804C0.294453 30.4673 0 31.4956 0 32.5934C0 35.9269 2.7025 38.6296 6.03625 38.6296H20V2.37109C17.7641 2.37109 15.8135 3.58773 14.7704 5.39422Z" fill="#3D3D3D"/>
<path d="M37.1023 30.7871L23.1385 6.60117C22.5091 5.51063 21.3534 4.8225 20.1035 4.78711L32.0464 36.2148H33.9635C35.9603 36.2148 37.5852 34.59 37.5852 32.5931C37.5852 31.9589 37.4178 31.3344 37.1023 30.7871Z" fill="#FFB751"/>
<path d="M34.7546 30.7895C35.0275 31.3368 35.1715 31.9613 35.1715 32.5955C35.1715 34.5923 33.7703 36.2173 32.0471 36.2173H6.03676C4.03996 36.2173 2.41504 34.5923 2.41504 32.5955C2.41504 31.9613 2.58246 31.3368 2.89793 30.7895L16.8617 6.60359C17.5088 5.48328 18.7112 4.78711 20.0005 4.78711C20.0351 4.78711 20.0697 4.78789 20.1043 4.78953C21.1771 4.83141 22.1679 5.51789 22.7079 6.60359L34.7546 30.7895Z" fill="#FCC511"/>
<path d="M20 28.166V32.1902C21.1115 32.1902 22.0121 31.2895 22.0121 30.178C22.0121 29.0666 21.1115 28.166 20 28.166Z" fill="#424242"/>
<path d="M20.0004 28.166C20.2225 28.166 20.4028 29.0666 20.4028 30.1781C20.4028 31.2896 20.2225 32.1902 20.0004 32.1902C18.8889 32.1902 17.9883 31.2896 17.9883 30.1781C17.9883 29.0666 18.8889 28.166 20.0004 28.166Z" fill="#3D3D3D"/>
<path d="M20 10.8613V25.7507C21.1115 25.7507 22.0121 24.8493 22.0121 23.7386V12.8734C22.0121 11.762 21.1115 10.8613 20 10.8613Z" fill="#424242"/>
<path d="M20.0004 10.8613C20.2225 10.8613 20.4028 11.762 20.4028 12.8734V23.7386C20.4028 24.8492 20.2225 25.7507 20.0004 25.7507C18.8889 25.7507 17.9883 24.8493 17.9883 23.7386V12.8734C17.9883 11.762 18.8889 10.8613 20.0004 10.8613Z" fill="#3D3D3D"/>
</g>
<defs>
<clipPath id="clip0_14538_87139">
<rect width="40" height="40" fill="white" transform="translate(0 0.5)"/>
</clipPath>
</defs>
</svg>
