<svg width="24" height="24" viewBox="0 0 24 24" fill="none" xmlns="http://www.w3.org/2000/svg">
<g id="fi_2211060">
<path id="Union" fill-rule="evenodd" clip-rule="evenodd" d="M5.59678 2.13769L5.59677 2.13762C5.50724 1.48635 4.95077 1 4.29232 1H2.31674C1.5891 1 1 1.5891 1 2.31673C1 3.04436 1.5891 3.63346 2.31674 3.63346H3.14177L4.60702 15.3785L4.60713 15.3794C4.70611 16.228 5.42523 16.8676 6.27966 16.8676H19.0206C19.7951 16.8676 20.4674 16.3428 20.6551 15.5917L20.4476 15.5398L20.6552 15.5917L22.7211 7.32634C22.8711 6.72736 22.4175 6.14661 21.8005 6.14661H6.1464L5.59678 2.13769ZM6.18804 16.6509C6.21836 16.6528 6.24891 16.6537 6.27966 16.6537H19.0206C19.697 16.6537 20.2837 16.1957 20.4476 15.5398L22.5137 7.27439C22.626 6.82572 22.301 6.39012 21.8472 6.36194C22.3006 6.39061 22.6251 6.82595 22.5128 7.27433L20.4468 15.5398C20.2829 16.1956 19.6961 16.6537 19.0197 16.6537H6.27882C6.24836 16.6537 6.21809 16.6527 6.18804 16.6509ZM3.3298 3.41958L3.32979 3.41952H2.3159C2.2929 3.41952 2.27007 3.41882 2.24742 3.41744C2.27034 3.41886 2.29346 3.41958 2.31674 3.41958H3.3298ZM5.95982 6.36044H5.959L5.38404 2.16669C5.31214 1.64367 4.88072 1.24769 4.3593 1.2159C4.88109 1.24732 5.31294 1.64344 5.38488 2.16674L5.95982 6.36044Z" fill="#FCC511"/>
<path id="XMLID_240_" d="M5.25 20.25C5.25 21.4905 6.2595 22.5 7.5 22.5C8.7405 22.5 9.75 21.4905 9.75 20.25C9.75 19.0095 8.7405 18 7.5 18C6.2595 18 5.25 19.0095 5.25 20.25Z" fill="#FCC511"/>
<path id="XMLID_243_" d="M18.75 20.25C18.75 19.0095 17.7405 18 16.5 18C15.2595 18 14.25 19.0095 14.25 20.25C14.25 21.4905 15.2595 22.5 16.5 22.5C17.7405 22.5 18.75 21.4905 18.75 20.25Z" fill="#FCC511"/>
</g>
</svg>
