<svg width="20" height="20" viewBox="0 0 20 20" fill="none" xmlns="http://www.w3.org/2000/svg">
<g clip-path="url(#clip0_9082_230436)">
<path d="M17.773 13.923L11.9489 3.83758C11.6462 3.31316 11.1038 3 10.4985 3C9.89317 3 9.35076 3.31316 9.0481 3.83758L3.227 13.923C2.92433 14.4474 2.92433 15.0737 3.227 15.5981C3.52967 16.1226 4.07207 16.4357 4.6774 16.4357H16.3241C16.9294 16.4357 17.4718 16.1226 17.7745 15.5981C18.0772 15.0737 18.0772 14.4474 17.7745 13.923H17.773ZM17.0118 15.1576C16.868 15.4064 16.6103 15.5547 16.3241 15.5547H4.67591C4.38822 15.5547 4.13051 15.4064 3.98816 15.1576C3.84582 14.9089 3.84432 14.6122 3.98816 14.362L9.81076 4.2766C9.9546 4.02787 10.2123 3.87953 10.4985 3.87953C10.7847 3.87953 11.0439 4.02787 11.1862 4.2766L17.0088 14.362C17.1527 14.6107 17.1527 14.9074 17.0088 15.1576H17.0118Z" fill="white"/>
<path d="M10.4999 12.624C10.1763 12.624 9.91406 12.8877 9.91406 13.2099C9.91406 13.532 10.1778 13.7957 10.4999 13.7957C10.8221 13.7957 11.0858 13.532 11.0858 13.2099C11.0858 12.8862 10.8221 12.624 10.4999 12.624Z" fill="white"/>
<path d="M10.9381 7.19824H10.0586V11.7427H10.9381V7.19824Z" fill="white"/>
</g>
<defs>
<clipPath id="clip0_9082_230436">
<rect width="15" height="13.4342" fill="white" transform="translate(3 3)"/>
</clipPath>
</defs>
</svg>
