<svg width="34" height="35" viewBox="0 0 34 35" fill="none" xmlns="http://www.w3.org/2000/svg">
<g clip-path="url(#clip0_884_69273)">
<path d="M16.1998 28.145C15.2498 28.055 14.5098 27.385 14.3498 26.465C14.1898 25.525 14.7398 24.595 15.6698 24.255C15.8798 24.165 16.1198 24.125 16.3798 24.125C17.0898 24.125 17.7598 24.495 18.1298 25.085C18.1598 25.135 18.1798 25.165 18.1998 25.195C18.1998 25.195 18.2298 25.185 18.2598 25.175C20.1098 24.835 21.5398 24.095 22.6898 22.905C23.1398 22.455 23.5498 21.905 23.9498 21.235C23.7498 21.235 23.5698 21.195 23.3798 21.145C22.3098 20.875 21.5298 19.975 21.4298 18.905C21.4198 18.775 21.4198 18.655 21.4198 18.525V16.345C21.4298 15.115 22.2598 14.105 23.4698 13.825C23.6698 13.795 23.8498 13.765 24.0298 13.765C24.1798 13.765 24.3298 13.775 24.4798 13.805C24.1198 12.765 23.5698 11.855 22.7898 11.055C21.3798 9.58498 19.6598 8.76498 17.6798 8.60498C17.4298 8.57498 17.1998 8.57498 16.9598 8.57498C12.9798 8.57498 10.3398 11.235 9.48979 13.795C9.63979 13.765 9.78979 13.755 9.94979 13.755C10.4898 13.755 10.9698 13.915 11.4398 14.235C12.1698 14.745 12.5498 15.455 12.5498 16.295V18.645C12.5498 19.985 11.5998 21.045 10.2398 21.235C10.1298 21.265 10.0198 21.265 9.90979 21.265C8.62979 21.265 7.45979 20.265 7.31979 19.045C7.27979 18.625 7.27979 18.205 7.27979 17.785V17.385C7.27979 16.805 7.27979 16.235 7.31979 15.655C7.46979 13.615 8.19979 11.825 9.47979 10.315C10.4198 9.22498 11.4898 8.38498 12.6698 7.82498C13.6798 7.32498 14.7698 7.02498 15.8798 6.92498C16.2898 6.88498 16.6098 6.85498 16.9398 6.85498C18.3598 6.85498 19.6898 7.12498 20.8898 7.67498C22.8498 8.55498 24.3698 9.90498 25.3898 11.675C27.3698 15.115 27.1598 19.745 24.8798 22.975C24.0898 24.095 23.0498 25.025 21.8498 25.695C21.1798 26.075 20.4698 26.375 19.7298 26.595C19.3698 26.705 18.9998 26.775 18.6198 26.845L18.2898 26.895C17.9398 27.655 17.2098 28.135 16.3798 28.135H16.1898L16.1998 28.145ZM9.87979 15.485C9.78979 15.485 9.70979 15.485 9.64979 15.505C9.23979 15.605 8.98979 15.935 8.98979 16.385V18.185C8.98979 18.365 8.98979 18.545 8.99979 18.725C9.03979 19.095 9.22979 19.335 9.60979 19.475C9.68979 19.505 9.77979 19.525 9.88979 19.525C10.3498 19.525 10.7398 19.165 10.7598 18.715V16.835C10.7598 16.675 10.7598 16.505 10.7598 16.345C10.7598 16.325 10.7398 16.305 10.7398 16.285C10.7198 15.835 10.3298 15.485 9.86979 15.485H9.87979ZM23.1198 18.635C23.1298 19.115 23.5198 19.495 23.9898 19.495C24.4898 19.495 24.8898 19.125 24.8898 18.655V16.295C24.8898 15.945 24.6498 15.625 24.2998 15.505C24.2198 15.475 24.1198 15.455 24.0098 15.455C23.5398 15.455 23.1398 15.835 23.1198 16.275V18.635Z" fill="white"/>
</g>
<defs>
<clipPath id="clip0_884_69273">
<rect width="19.5" height="21.29" fill="white" transform="translate(7.25 6.85498)"/>
</clipPath>
</defs>
</svg>
