<svg width="17" height="17" viewBox="0 0 17 17" fill="none" xmlns="http://www.w3.org/2000/svg">
<path id="Icon_plus" d="M15.2559 6.5625H10.1934V1.5C10.1934 0.902344 9.66602 0.375 9.06836 0.375H7.94336C7.31055 0.375 6.81836 0.902344 6.81836 1.5V6.5625H1.75586C1.12305 6.5625 0.630859 7.08984 0.630859 7.6875V8.8125C0.630859 9.44531 1.12305 9.9375 1.75586 9.9375H6.81836V15C6.81836 15.6328 7.31055 16.125 7.94336 16.125H9.06836C9.66602 16.125 10.1934 15.6328 10.1934 15V9.9375H15.2559C15.8535 9.9375 16.3809 9.44531 16.3809 8.8125V7.6875C16.3809 7.08984 15.8535 6.5625 15.2559 6.5625Z" fill="white"/>
</svg>
