<svg width="20" height="20" viewBox="0 0 20 20" fill="none" xmlns="http://www.w3.org/2000/svg">
<path fill-rule="evenodd" clip-rule="evenodd" d="M14.5 2.5C16.1545 2.5 17.5 3.8455 17.5 5.5L17.5 14.5C17.5 16.1545 16.1545 17.5 14.5 17.5L5.5 17.5C3.8455 17.5 2.5 16.1545 2.5 14.5L2.5 5.5C2.5 3.8455 3.8455 2.5 5.5 2.5L14.5 2.5ZM14.5 0.999998L5.5 0.999999C3.0145 0.999999 0.999999 3.0145 0.999999 5.5L1 14.5C1 16.9855 3.0145 19 5.5 19L14.5 19C16.9855 19 19 16.9855 19 14.5L19 5.5C19 3.0145 16.9855 0.999998 14.5 0.999998ZM10.0002 14.5C9.58621 14.5 9.25021 14.1647 9.25021 13.75L9.25021 10.75L6.24996 10.75C5.83521 10.75 5.49996 10.414 5.49996 9.99999C5.49996 9.58599 5.83521 9.24999 6.24996 9.24999L9.25021 9.24999L9.25021 6.24997C9.25021 5.83597 9.58621 5.49997 10.0002 5.49997C10.4142 5.49997 10.7502 5.83597 10.7502 6.24997L10.7502 9.24999L13.75 9.24999C14.164 9.24999 14.5 9.58599 14.5 9.99999C14.5 10.414 14.164 10.75 13.75 10.75L10.7502 10.75L10.7502 13.75C10.7502 14.1647 10.4142 14.5 10.0002 14.5Z" fill="#F0F0F0" fill-opacity="0.5"/>
</svg>
