<svg width="40" height="40" viewBox="0 0 40 40" fill="none" xmlns="http://www.w3.org/2000/svg">
<g id="Subtract">
<path id="Subtract_2" fill-rule="evenodd" clip-rule="evenodd" d="M33.0529 6.94642C40.2626 14.1562 40.2626 25.8456 33.0529 33.0554C25.8432 40.2652 14.154 40.2652 6.94437 33.0554C-0.265311 25.8456 -0.265311 14.1562 6.94437 6.94641C14.154 -0.263389 25.8432 -0.263387 33.0529 6.94642ZM29.889 20.8189C30.1054 20.6025 30.227 20.3089 30.227 20.0029C30.227 19.6968 30.1054 19.4033 29.889 19.1868C29.6726 18.9704 29.379 18.8488 29.073 18.8488H15.7328L19.3836 15.0801C19.4891 14.9713 19.5721 14.8427 19.6279 14.7018C19.6836 14.5608 19.7111 14.4103 19.7087 14.2588C19.7063 14.1072 19.6741 13.9576 19.6139 13.8185C19.5536 13.6795 19.4666 13.5536 19.3578 13.4481C19.2489 13.3427 19.1204 13.2597 18.9794 13.2039C18.8385 13.1481 18.688 13.1207 18.5364 13.1231C18.3849 13.1255 18.2353 13.1577 18.0962 13.2179C17.9571 13.2781 17.8313 13.3651 17.7258 13.474L12.1793 19.2001C11.9709 19.4153 11.8543 19.7032 11.8543 20.0029C11.8543 20.3025 11.9709 20.5905 12.1793 20.8057L17.7258 26.532C17.9388 26.7519 18.2304 26.8781 18.5365 26.883C18.8425 26.8878 19.138 26.7709 19.3578 26.5579C19.5777 26.3449 19.7039 26.0533 19.7087 25.7472C19.7136 25.4411 19.5966 25.1457 19.3836 24.9258L15.7328 21.1569H29.073C29.379 21.1569 29.6726 21.0353 29.889 20.8189Z" fill="white" fill-opacity="0.2"/>
</g>
</svg>
