<svg width="52" height="53" viewBox="0 0 52 53" fill="none" xmlns="http://www.w3.org/2000/svg">
<path fill-rule="evenodd" clip-rule="evenodd" d="M42.9706 9.0306C52.3431 18.4033 52.3431 33.5996 42.9706 42.9723C33.598 52.3451 18.402 52.3451 9.02944 42.9723C-0.343146 33.5996 -0.343146 18.4033 9.02944 9.0306C18.402 -0.342152 33.598 -0.342147 42.9706 9.0306ZM38.856 27.064C39.1374 26.7827 39.2954 26.4011 39.2954 26.0032C39.2954 25.6053 39.1374 25.2237 38.856 24.9423C38.5747 24.661 38.1931 24.5029 37.7952 24.5029H20.453L25.1991 19.6036C25.3362 19.4621 25.4441 19.2949 25.5166 19.1117C25.5891 18.9285 25.6248 18.7328 25.6217 18.5358C25.6185 18.3388 25.5767 18.1444 25.4984 17.9636C25.4201 17.7827 25.307 17.6191 25.1655 17.482C25.024 17.3449 24.8568 17.237 24.6736 17.1645C24.4904 17.092 24.2947 17.0563 24.0977 17.0594C23.9007 17.0625 23.7063 17.1044 23.5255 17.1827C23.3447 17.261 23.181 17.3741 23.0439 17.5156L15.8335 24.9596C15.5625 25.2394 15.411 25.6137 15.411 26.0032C15.411 26.3928 15.5625 26.767 15.8335 27.0469L23.0439 34.4911C23.3208 34.7769 23.6999 34.941 24.0978 34.9473C24.4956 34.9536 24.8797 34.8016 25.1655 34.5247C25.4513 34.2478 25.6154 33.8687 25.6217 33.4708C25.628 33.0729 25.476 32.6888 25.1991 32.403L20.453 27.5034H37.7952C38.1931 27.5034 38.5747 27.3454 38.856 27.064Z" fill="white"/>
</svg>
