<svg width="22" height="22" viewBox="0 0 22 22" fill="none" xmlns="http://www.w3.org/2000/svg">
<path d="M11.4299 18.3326H10.5707C10.5334 18.3245 10.497 18.3116 10.4598 18.3091C9.31255 18.2283 8.2389 17.8998 7.25992 17.3004C5.36022 16.1364 4.1903 14.4578 3.7801 12.2624C3.72912 11.9874 3.70323 11.7083 3.66602 11.4308C3.66602 11.1445 3.66602 10.8581 3.66602 10.5717C3.67492 10.5208 3.68543 10.4706 3.69272 10.4197C3.73883 10.1042 3.76472 9.78385 3.83268 9.47322C4.21538 7.71218 5.11992 6.26986 6.55441 5.18347C8.33923 3.83094 10.349 3.38279 12.5399 3.83984C14.294 4.20547 15.7204 5.12442 16.811 6.54247C17.9891 8.07296 18.4794 9.8162 18.2949 11.735C18.1452 13.2897 17.5416 14.6617 16.506 15.8338C15.3701 17.1184 13.955 17.9184 12.2641 18.2194C11.9882 18.2687 11.7082 18.2962 11.4299 18.3334V18.3326Z" fill="#DE173E"/>
<path d="M9.77205 12.4703C9.81412 12.4307 9.85215 12.3959 9.88855 12.3595C11.2292 11.0199 12.569 9.68032 13.9097 8.34073C14.2025 8.0479 14.5407 7.98804 14.8555 8.16924C15.256 8.39978 15.3514 8.92316 15.0561 9.27828C15.0197 9.32196 14.9793 9.36322 14.9388 9.40366C13.421 10.9099 11.9032 12.4161 10.3853 13.9223C10.0188 14.2855 9.6337 14.292 9.25019 13.9426C8.46297 13.2259 7.67654 12.5083 6.88851 11.7932C6.68543 11.6088 6.57216 11.3896 6.60533 11.1097C6.67167 10.558 7.30599 10.283 7.74127 10.6316C8.04225 10.8727 8.31814 11.1453 8.60374 11.4058C8.96702 11.7366 9.32867 12.0699 9.69114 12.4016C9.71541 12.4234 9.7413 12.4444 9.77124 12.4703H9.77205Z" fill="#1D2023"/>
</svg>
