<svg width="20" height="20" viewBox="0 0 20 20" fill="none" xmlns="http://www.w3.org/2000/svg">
<g clip-path="url(#clip0_7036_181284)">
<path d="M3.29322 5.66658H4.32496V15.5273C4.32786 16.4623 5.13907 17.2194 6.14084 17.2221H13.8789C14.8726 17.2089 15.6716 16.4548 15.6742 15.5273V5.66658H16.7059C16.9909 5.66658 17.2218 5.45111 17.2218 5.18509C17.2218 4.91908 16.9909 4.70361 16.7059 4.70361H3.29322C3.0082 4.70361 2.77734 4.91908 2.77734 5.18509C2.77734 5.45111 3.0082 5.66658 3.29322 5.66658ZM14.6424 5.66658V15.5273C14.6424 15.9315 14.2913 16.2592 13.8583 16.2592H6.1202C5.69525 16.2486 5.35671 15.9242 5.35671 15.5273V5.66658H14.6424Z" fill="white"/>
<path d="M7.93579 3.74079H12.0628C12.3478 3.74079 12.5787 3.52533 12.5787 3.25931C12.5787 2.99329 12.3478 2.77783 12.0628 2.77783H7.93579C7.65078 2.77783 7.41992 2.99329 7.41992 3.25931C7.41992 3.52533 7.65078 3.74079 7.93579 3.74079Z" fill="white"/>
<path d="M8.28638 14.3335C8.5714 14.3335 8.80225 14.1181 8.80225 13.852V8.07425C8.80225 7.80824 8.5714 7.59277 8.28638 7.59277C8.00136 7.59277 7.77051 7.80824 7.77051 8.07425V13.852C7.77051 14.1181 8.00136 14.3335 8.28638 14.3335Z" fill="white"/>
<path d="M11.7122 14.3335C11.9972 14.3335 12.228 14.1181 12.228 13.852V8.07425C12.228 7.80824 11.9972 7.59277 11.7122 7.59277C11.4271 7.59277 11.1963 7.80824 11.1963 8.07425V13.852C11.1963 14.1181 11.4271 14.3335 11.7122 14.3335Z" fill="white"/>
</g>
<defs>
<clipPath id="clip0_7036_181284">
<rect width="14.4444" height="14.4444" fill="white" transform="translate(2.77734 2.77783)"/>
</clipPath>
</defs>
</svg>
