<svg width="20" height="20" viewBox="0 0 20 20" fill="none" xmlns="http://www.w3.org/2000/svg">
<g id="Frame 48099061">
<g id="warning-error">
<path id="Subtract" fill-rule="evenodd" clip-rule="evenodd" d="M8.08265 3.03638C8.86991 1.65454 10.9079 1.65454 11.6951 3.03637L18.5148 15.0066C19.2799 16.3496 18.284 18 16.7085 18H3.06923C1.49374 18 0.49787 16.3496 1.263 15.0066L8.08265 3.03638ZM10.7777 14.4444C10.7777 14.9354 10.3798 15.3333 9.88883 15.3333C9.39792 15.3333 8.99995 14.9354 8.99995 14.4444C8.99995 13.9535 9.39792 13.5556 9.88883 13.5556C10.3798 13.5556 10.7777 13.9535 10.7777 14.4444ZM10.5555 7.33333C10.5555 6.96514 10.257 6.66667 9.88883 6.66667C9.52065 6.66667 9.22217 6.96514 9.22217 7.33333V11.7778C9.22217 12.146 9.52065 12.4444 9.88883 12.4444C10.257 12.4444 10.5555 12.146 10.5555 11.7778V7.33333Z" fill="#EA1616"/>
</g>
</g>
</svg>
