<svg width="30" height="30" viewBox="0 0 30 30" fill="none" xmlns="http://www.w3.org/2000/svg">
<g id="Iconly/Bulk/Wallet">
<g id="Wallet">
<path id="Fill 1" fill-rule="evenodd" clip-rule="evenodd" d="M27.8523 10.1252H22.4077C19.874 10.1297 17.8214 12.131 17.8169 14.6014C17.8134 17.0773 19.8683 19.0875 22.4077 19.0909H27.8569V19.4842C27.8569 23.8032 25.2386 26.3572 20.8077 26.3572H9.19286C4.76086 26.3572 2.14258 23.8032 2.14258 19.4842V10.0773C2.14258 5.7583 4.76086 3.21436 9.19286 3.21436H20.8032C25.234 3.21436 27.8523 5.7583 27.8523 10.0773V10.1252ZM8.23641 10.1152H15.4878H15.4924H15.5016C16.0444 10.1129 16.4833 9.6817 16.481 9.15129C16.4787 8.622 16.0353 8.19411 15.4924 8.19634H8.23641C7.69698 8.19857 7.25927 8.62534 7.25698 9.1524C7.2547 9.6817 7.69356 10.1129 8.23641 10.1152Z" fill="white"/>
<path id="Fill 4" opacity="0.4" d="M20.1907 15.167C20.4595 16.39 21.5318 17.2504 22.7559 17.228H26.9344C27.4437 17.228 27.8569 16.8062 27.8569 16.2848V13.0299C27.8558 12.5096 27.4437 12.0867 26.9344 12.0856H22.6575C21.2651 12.09 20.1404 13.2459 20.1426 14.6702C20.1426 14.8369 20.159 15.0036 20.1907 15.167Z" fill="white"/>
<ellipse id="Oval" cx="22.7144" cy="14.6571" rx="1.28571" ry="1.28571" fill="white"/>
</g>
</g>
</svg>
