<svg width="21" height="20" viewBox="0 0 21 20" fill="none" xmlns="http://www.w3.org/2000/svg">
<g clip-path="url(#clip0_12413_200737)">
<path d="M14.4133 12.7759C15.0452 12.7759 15.5575 12.2643 15.5575 11.6331C15.5575 11.0019 15.0452 10.4902 14.4133 10.4902C13.7813 10.4902 13.269 11.0019 13.269 11.6331C13.269 12.2643 13.7813 12.7759 14.4133 12.7759Z" fill="#DE173E"/>
<path d="M16.8654 4.96816V3.95918C16.8654 2.88857 16.0052 2.01592 14.9333 2H4.71038C1.82692 2 1.53596 4.36082 1.5 5.55265V16.0408C1.5 17.1229 2.3782 18 3.46154 18H16.5385C17.6218 18 18.5 17.1229 18.5 16.0408V6.89796C18.4992 5.94286 17.8086 5.12735 16.8654 4.96816ZM4.71038 3.30612H14.9333C15.2827 3.32204 15.5581 3.6098 15.5577 3.95918V4.93878H2.86654C3.03327 3.75347 3.57596 3.30612 4.71038 3.30612ZM17.1923 16.0408C17.1923 16.4016 16.8997 16.6939 16.5385 16.6939H3.46154C3.10029 16.6939 2.80769 16.4016 2.80769 16.0408V6.2449H16.5385C16.8997 6.2449 17.1923 6.53714 17.1923 6.89796V16.0408Z" fill="#DE173E"/>
</g>
<defs>
<clipPath id="clip0_12413_200737">
<rect width="17" height="16" fill="white" transform="translate(1.5 2)"/>
</clipPath>
</defs>
</svg>
