<svg width="174" height="44" viewBox="0 0 174 44" fill="none" xmlns="http://www.w3.org/2000/svg">
<g clip-path="url(#clip0_13474_273152)">
<g clip-path="url(#clip1_13474_273152)">
<path d="M51.3499 14.2991C52.0208 12.4416 53.2241 11.5156 54.954 11.5156H66.5204L65.5945 15.3692H55.6139C55.5196 15.3692 55.4253 15.4081 55.3255 15.4801C55.2202 15.5578 55.1426 15.6576 55.1037 15.7796L54.5659 18.003H61.3638L60.4766 21.8566H53.6399L53.1409 23.9026C53.1187 24.0634 53.152 24.1965 53.2518 24.313C53.346 24.4294 53.468 24.4848 53.6233 24.4848L63.371 24.4959C63.0938 25.6714 62.7888 26.9523 62.445 28.3385H52.5531C51.3721 28.3385 50.424 27.9004 49.7087 27.0299C48.9823 26.1649 48.7494 25.1613 48.9989 24.0246L51.3444 14.2936L51.3499 14.2991Z" fill="white"/>
<path d="M72.2314 28.294C71.0227 28.2164 70.1133 27.9503 69.4923 27.4845C68.8713 27.0188 68.4055 26.3866 68.0895 25.5882C67.4019 23.8638 67.5516 21.9065 68.5386 19.7107C69.8693 17.2045 72.0429 15.8627 75.0537 15.6797H82.2896L79.2345 28.344L72.237 28.294H72.2314ZM77.072 20.487H77.0609L77.3714 19.1507H75.4363C74.3939 19.1673 73.5622 19.4446 72.9301 19.988C72.3146 20.4815 71.9098 21.0803 71.7213 21.7845C71.1557 23.7252 71.7268 24.7066 73.4457 24.7288H76.0684L77.0775 20.487H77.072Z" fill="white"/>
<path d="M83.488 28.3475L84.3363 24.9042H90.8348C91.5279 24.9597 91.9438 24.749 92.0824 24.2555C92.099 23.7232 91.6998 23.4792 90.8847 23.5291H89.0494C87.7852 23.5069 86.8204 23.0966 86.155 22.3037C85.4841 21.5053 85.2734 20.413 85.534 19.0212C86.2659 16.6092 88.1123 15.4892 91.0732 15.6666H97.9876L97.178 18.9713H90.4522C89.9421 18.9491 89.6538 19.1321 89.5761 19.5203C89.5429 19.8308 89.6482 20.0304 89.8977 20.1302C90.1472 20.23 90.491 20.2688 90.9346 20.2411L92.5703 20.1912C94.1118 20.2411 95.1265 20.6791 95.6255 21.4997C96.1245 22.3148 96.2576 23.4071 96.0247 24.7822C95.5146 27.2441 93.829 28.4307 90.9568 28.3364H83.4824L83.488 28.3475Z" fill="white"/>
<path d="M100.277 24.0335L103.36 11.5078H107.402C106.72 14.1804 106.365 15.561 106.343 15.6498H109.326L108.428 19.3315H105.456C105.24 20.2242 105.062 20.9617 104.918 21.5439C104.774 22.1316 104.647 22.6639 104.53 23.1407C104.414 23.6176 104.342 23.917 104.319 24.0335C104.297 24.2442 104.347 24.4271 104.469 24.5935C104.591 24.7598 104.769 24.843 104.996 24.843H107.092L106.243 28.3473H103.521C102.406 28.3473 101.53 27.9148 100.887 27.0498C100.238 26.1848 100.033 25.1757 100.277 24.0279V24.0335Z" fill="white"/>
<path d="M118.491 22.899H115.908C115.908 22.899 115.847 23.1597 115.747 23.5977C115.63 24.0967 115.492 24.6956 115.325 25.3886C115.159 26.0817 115.009 26.7139 114.876 27.285C114.743 27.8561 114.66 28.1999 114.627 28.3274H110.457L113.862 14.288C114.516 12.4416 115.702 11.5156 117.416 11.5156H125.578C126.736 11.5156 127.668 11.9537 128.383 12.8242C129.099 13.6892 129.337 14.6928 129.093 15.8295C128.849 16.8109 128.649 17.6315 128.494 18.2858C128.333 18.9456 128.189 19.5555 128.056 20.1211C127.845 20.9307 127.413 21.596 126.759 22.1172C126.099 22.6329 125.339 22.8935 124.474 22.8935H122.949L126.193 28.344H121.741L118.486 22.8935L118.491 22.899ZM125.195 15.9514C125.217 15.8017 125.184 15.6687 125.084 15.5522C124.984 15.4247 124.857 15.3637 124.707 15.3637H118.27C118.175 15.3637 118.081 15.4025 117.981 15.4746C117.881 15.5578 117.815 15.6576 117.782 15.774L117.061 18.9955H123.975C124.23 18.9955 124.402 18.8791 124.485 18.6462L125.195 15.9514Z" fill="white"/>
<path d="M130.18 28.3473L133.324 15.5943H137.443L134.349 28.3473H130.18ZM134.36 11.5078H138.464L137.687 14.502H133.584L134.355 11.5078H134.36Z" fill="white"/>
<path d="M144.253 28.294C143.044 28.2164 142.135 27.9503 141.514 27.4845C140.893 27.0188 140.427 26.3866 140.111 25.5882C139.423 23.8638 139.573 21.9065 140.56 19.7107C141.891 17.2045 144.064 15.8627 147.075 15.6797H154.311L153.474 19.1507H147.375C146.377 19.184 145.567 19.4612 144.952 19.988C144.336 20.4815 143.931 21.0803 143.743 21.7845C143.177 23.7252 143.748 24.7066 145.467 24.7288H152.132L151.256 28.3495L144.258 28.2996L144.253 28.294Z" fill="white"/>
<path d="M159.572 11.5078H163.692L162.744 15.6276H166.276C167.418 15.6276 168.316 16.0601 168.971 16.9251C169.631 17.7845 169.83 18.7881 169.581 19.947L167.557 28.3584H163.426L165.461 19.947C165.494 19.7307 165.45 19.5422 165.322 19.3869C165.189 19.2206 165.012 19.1374 164.784 19.1374H161.862L159.667 28.3584H155.547L159.567 11.5134L159.572 11.5078Z" fill="white"/>
<g clip-path="url(#clip2_13474_273152)">
<path d="M20 0C8.95387 0 0 8.95387 0 20C0 31.0461 8.95387 40 20 40C31.0461 40 40 31.0461 40 20C40 8.95387 31.0452 0 20 0ZM20 37.099C10.5562 37.099 2.90103 29.4438 2.90103 20C2.90103 10.5562 10.5562 2.90103 20 2.90103C29.4438 2.90103 37.099 10.5562 37.099 20C37.099 29.4438 29.4438 37.099 20 37.099Z" fill="white"/>
<path d="M12.7539 25.1719L15.9496 28.3622L22.3294 28.3712L19.0934 25.1996L12.7539 25.1719Z" fill="white"/>
<path d="M30.4772 17.0758C30.4772 14.3629 28.2783 12.1641 25.5654 12.1641H9.52148L12.8139 15.555H25.5645C26.4046 15.555 27.0853 16.2357 27.0853 17.0758C27.0853 17.916 26.4046 18.5967 25.5645 18.5967H11.3415L14.4798 21.9876H19.9836L25.8565 28.3504L30.4772 28.3566L24.599 21.9876H25.5654C28.2783 21.9876 30.4772 19.7888 30.4772 17.0758Z" fill="white"/>
</g>
</g>
</g>
<defs>
<clipPath id="clip0_13474_273152">
<rect width="169.681" height="40" fill="white"/>
</clipPath>
<clipPath id="clip1_13474_273152">
<rect width="169.681" height="40" fill="white"/>
</clipPath>
<clipPath id="clip2_13474_273152">
<rect width="40" height="40" fill="white"/>
</clipPath>
</defs>
</svg>
