<svg width="50" height="50" viewBox="0 0 50 50" fill="none" xmlns="http://www.w3.org/2000/svg">
<g clip-path="url(#clip0_13474_155360)">
<path d="M25.0494 0.199219C11.4351 0.199219 0.399414 11.2349 0.399414 24.8492C0.399414 38.4636 11.4351 49.4992 25.0494 49.4992C38.6638 49.4992 49.6994 38.4636 49.6994 24.8492C49.6994 11.2349 38.6627 0.199219 25.0494 0.199219ZM25.0494 45.9237C13.4099 45.9237 3.97493 36.4887 3.97493 24.8492C3.97493 13.2097 13.4099 3.77474 25.0494 3.77474C36.6889 3.77474 46.1239 13.2097 46.1239 24.8492C46.1239 36.4887 36.6889 45.9237 25.0494 45.9237Z" fill="#DC1D3F"/>
<path d="M16.1191 31.2256L20.0578 35.1577L27.9209 35.1687L23.9325 31.2598L16.1191 31.2256Z" fill="#DC1D3F"/>
<path d="M37.9636 21.2422C37.9636 17.8985 35.2535 15.1885 31.9098 15.1885H12.1357L16.1937 19.3678H31.9087C32.9442 19.3678 33.7831 20.2068 33.7831 21.2422C33.7831 22.2777 32.9442 23.1167 31.9087 23.1167H14.3789L18.2469 27.296H25.0304L32.2686 35.1381L37.9636 35.1458L30.7187 27.296H31.9098C35.2535 27.296 37.9636 24.5859 37.9636 21.2422Z" fill="#DC1D3F"/>
</g>
<defs>
<clipPath id="clip0_13474_155360">
<rect width="49.3" height="49.3" fill="white" transform="translate(0.400391 0.199219)"/>
</clipPath>
</defs>
</svg>
