<svg width="40" height="40" viewBox="0 0 40 40" fill="none" xmlns="http://www.w3.org/2000/svg">
<g clip-path="url(#clip0_13474_273172)">
<path d="M20 0C8.95387 0 0 8.95387 0 20C0 31.0461 8.95387 40 20 40C31.0461 40 40 31.0461 40 20C40 8.95387 31.0452 0 20 0ZM20 37.099C10.5562 37.099 2.90103 29.4438 2.90103 20C2.90103 10.5562 10.5562 2.90103 20 2.90103C29.4438 2.90103 37.099 10.5562 37.099 20C37.099 29.4438 29.4438 37.099 20 37.099Z" fill="white"/>
<path d="M12.7539 25.1719L15.9496 28.3622L22.3294 28.3712L19.0934 25.1996L12.7539 25.1719Z" fill="white"/>
<path d="M30.4772 17.0758C30.4772 14.3629 28.2783 12.1641 25.5654 12.1641H9.52148L12.8139 15.555H25.5645C26.4046 15.555 27.0853 16.2357 27.0853 17.0758C27.0853 17.916 26.4046 18.5967 25.5645 18.5967H11.3415L14.4798 21.9876H19.9836L25.8565 28.3504L30.4772 28.3566L24.599 21.9876H25.5654C28.2783 21.9876 30.4772 19.7888 30.4772 17.0758Z" fill="white"/>
</g>
<defs>
<clipPath id="clip0_13474_273172">
<rect width="40" height="40" fill="white"/>
</clipPath>
</defs>
</svg>
