<svg width="225" height="53" viewBox="0 0 225 53" fill="none" xmlns="http://www.w3.org/2000/svg">
<g clip-path="url(#clip0_12302_130385)">
<path d="M68.039 18.9548C68.9279 16.4936 70.5222 15.2667 72.8144 15.2667H88.1399L86.9129 20.3728H73.6887C73.5638 20.3728 73.4389 20.4242 73.3066 20.5197C73.167 20.6226 73.0642 20.7548 73.0127 20.9164L72.3001 23.8625H81.3073L80.1318 28.9686H71.0732L70.412 31.6795C70.3826 31.8926 70.4267 32.0689 70.5589 32.2232C70.6838 32.3775 70.8454 32.4509 71.0511 32.4509L83.9669 32.4656C83.5995 34.0232 83.1955 35.7203 82.74 37.557H69.6332C68.0683 37.557 66.812 36.9766 65.8643 35.8231C64.9019 34.677 64.5933 33.3473 64.9239 31.8412L68.0316 18.9475L68.039 18.9548Z" fill="white"/>
<path d="M95.7074 37.4982C94.1058 37.3954 92.9009 37.0427 92.078 36.4256C91.2552 35.8084 90.6381 34.9709 90.2193 33.913C89.3083 31.6281 89.5066 29.0347 90.8144 26.1253C92.5776 22.8046 95.4576 21.0266 99.4469 20.7842H109.035L104.986 37.5643L95.7147 37.4982H95.7074ZM102.121 27.1539H102.106L102.518 25.3833H99.9538C98.5726 25.4053 97.4706 25.7727 96.6331 26.4927C95.8176 27.1465 95.2813 27.94 95.0315 28.873C94.2821 31.4444 95.0388 32.7448 97.3163 32.7742H100.791L102.128 27.1539H102.121Z" fill="white"/>
<path d="M110.621 37.5643L111.745 33.002H120.355C121.274 33.0754 121.825 32.7963 122.008 32.1424C122.03 31.4371 121.501 31.1138 120.421 31.1799H117.99C116.314 31.1506 115.036 30.6069 114.154 29.5563C113.265 28.4984 112.986 27.051 113.332 25.207C114.301 22.0111 116.748 20.5271 120.671 20.7622H129.833L128.76 25.1409H119.848C119.172 25.1115 118.79 25.3539 118.687 25.8682C118.643 26.2796 118.783 26.5441 119.114 26.6763C119.444 26.8086 119.9 26.86 120.487 26.8233L122.655 26.7572C124.697 26.8233 126.042 27.4037 126.703 28.491C127.364 29.571 127.54 31.0183 127.232 32.8403C126.556 36.1023 124.322 37.6745 120.517 37.5496H110.613L110.621 37.5643Z" fill="white"/>
<path d="M132.867 31.8485L136.952 15.252H142.308C141.404 18.7932 140.934 20.6225 140.905 20.7401H144.857L143.667 25.6184H139.729C139.443 26.8012 139.208 27.7784 139.016 28.5498C138.825 29.3285 138.656 30.0338 138.502 30.6657C138.348 31.2975 138.252 31.6942 138.223 31.8485C138.194 32.1277 138.26 32.3701 138.421 32.5905C138.583 32.8109 138.818 32.9211 139.119 32.9211H141.896L140.772 37.5643H137.165C135.688 37.5643 134.528 36.9913 133.675 35.8452C132.816 34.6991 132.544 33.3619 132.867 31.8411V31.8485Z" fill="white"/>
<path d="M157.002 30.3424H153.578C153.578 30.3424 153.498 30.6877 153.365 31.2681C153.211 31.9293 153.027 32.7228 152.807 33.6412C152.587 34.5595 152.388 35.397 152.212 36.1538C152.036 36.9105 151.925 37.366 151.881 37.535H146.356L150.867 18.9328C151.734 16.4863 153.307 15.2594 155.577 15.2594H166.391C167.927 15.2594 169.161 15.8398 170.109 16.9932C171.056 18.1394 171.372 19.4691 171.049 20.9752C170.726 22.2756 170.461 23.3629 170.256 24.2299C170.043 25.1041 169.852 25.9123 169.675 26.6617C169.396 27.7343 168.823 28.6159 167.956 29.3065C167.082 29.9898 166.075 30.3351 164.929 30.3351H162.909L167.207 37.557H161.307L156.995 30.3351L157.002 30.3424ZM165.884 21.1369C165.914 20.9385 165.87 20.7622 165.737 20.6079C165.605 20.4389 165.436 20.3581 165.238 20.3581H156.708C156.583 20.3581 156.458 20.4095 156.326 20.505C156.194 20.6152 156.106 20.7475 156.062 20.9018L155.107 25.1703H164.268C164.606 25.1703 164.834 25.016 164.944 24.7074L165.884 21.1369Z" fill="white"/>
<path d="M172.488 37.5643L176.654 20.6666H182.113L178.013 37.5643H172.488ZM178.028 15.252H183.464L182.436 19.2193H176.999L178.02 15.252H178.028Z" fill="white"/>
<path d="M191.135 37.4982C189.533 37.3954 188.329 37.0427 187.506 36.4256C186.683 35.8084 186.066 34.9709 185.647 33.913C184.736 31.6281 184.934 29.0347 186.242 26.1253C188.005 22.8046 190.885 21.0266 194.875 20.7842H204.462L203.353 25.3833H195.271C193.949 25.4274 192.876 25.7947 192.061 26.4927C191.245 27.1465 190.709 27.94 190.459 28.873C189.71 31.4444 190.467 32.7448 192.744 32.7742H201.575L200.414 37.5717L191.142 37.5056L191.135 37.4982Z" fill="white"/>
<path d="M211.434 15.252H216.893L215.637 20.7107H220.317C221.83 20.7107 223.02 21.2838 223.887 22.4299C224.762 23.5686 225.026 24.8984 224.695 26.4339L222.014 37.579H216.54L219.237 26.4339C219.281 26.1474 219.222 25.8976 219.053 25.6919C218.877 25.4714 218.642 25.3612 218.34 25.3612H214.469L211.559 37.579H206.101L211.427 15.2594L211.434 15.252Z" fill="white"/>
<path fill-rule="evenodd" clip-rule="evenodd" d="M53 26.5C53 41.1355 41.1355 53 26.5 53C11.8645 53 0 41.1355 0 26.5C0 11.8645 11.8645 0 26.5 0C41.1355 0 53 11.8645 53 26.5ZM49.1575 26.5C49.1575 39.0135 39.0133 49.1576 26.4999 49.1576C13.9864 49.1576 3.84229 39.0135 3.84229 26.5C3.84229 13.9866 13.9864 3.84241 26.4999 3.84241C39.0133 3.84241 49.1575 13.9866 49.1575 26.5Z" fill="white"/>
<path d="M16.8984 33.3546L21.1302 37.579L29.5864 37.5937L25.2959 33.3913L16.8984 33.3546Z" fill="white"/>
<path d="M33.8773 29.1302V24.6339H28.448H23.0555H15.0254L19.1837 29.1302H26.4791L34.2594 37.557L40.3793 37.5643L32.5917 29.1302H33.8773Z" fill="white"/>
<path d="M33.8769 20.6078V16.1116H12.6152L16.9792 20.6078H33.8769Z" fill="white"/>
<path d="M40.3784 22.6209C40.3784 19.0283 37.4617 16.1116 33.8691 16.1116V20.6078C34.9785 20.6078 35.8822 21.5115 35.8822 22.6209C35.8822 23.7302 34.9785 24.6339 33.8691 24.6339V29.1301C37.4617 29.1301 40.3784 26.2135 40.3784 22.6209Z" fill="white"/>
</g>
<defs>
<clipPath id="clip0_12302_130385">
<rect width="224.828" height="53" fill="white"/>
</clipPath>
</defs>
</svg>
