<svg width="641" height="90" viewBox="0 0 641 90" fill="none" xmlns="http://www.w3.org/2000/svg">
<path d="M13.1558 14.8193C16.7117 4.97451 23.0887 0.0668335 32.2576 0.0668335H93.5595L88.6518 20.491H35.7547C35.2551 20.491 34.7555 20.6967 34.2265 21.0788C33.6681 21.4902 33.2567 22.0191 33.051 22.6657L30.2005 34.45H66.2293L61.5273 54.8742H25.2928L22.6479 65.7181C22.5303 66.5703 22.7067 67.2756 23.2357 67.8927C23.7352 68.5099 24.3818 68.8037 25.2046 68.8037L76.8675 68.8625C75.3981 75.0926 73.7818 81.8811 71.9598 89.2279H19.5328C13.2733 89.2279 8.24813 86.9063 4.45716 82.2925C0.607428 77.7081 -0.626835 72.389 0.695593 66.3646L13.1264 14.7899L13.1558 14.8193Z" fill="white"/>
<path d="M123.828 88.9928C117.421 88.5814 112.602 87.1708 109.31 84.7023C106.019 82.2338 103.55 78.8836 101.875 74.6518C98.2312 65.5124 99.0246 55.1387 104.256 43.5013C111.309 30.2182 122.828 23.1065 138.786 22.1367H177.136L160.944 89.2573L123.857 88.9928H123.828ZM149.483 47.6155H149.424L151.07 40.5332H140.813C135.289 40.6213 130.88 42.0907 127.53 44.9707C124.268 47.5861 122.123 50.7599 121.124 54.4921C118.126 64.7777 121.153 69.9792 130.263 70.0968H144.164L149.512 47.6155H149.483Z" fill="white"/>
<path d="M183.484 89.2572L187.981 71.0077H222.423C226.096 71.3016 228.3 70.1849 229.035 67.5694C229.123 64.7482 227.007 63.4552 222.687 63.7197H212.96C206.26 63.6021 201.146 61.4275 197.62 57.2251C194.064 52.9933 192.947 47.204 194.328 39.8278C198.207 27.0443 207.993 21.1081 223.686 22.0485H260.332L256.042 39.5633H220.395C217.691 39.4458 216.163 40.4155 215.752 42.4727C215.575 44.1183 216.134 45.1763 217.456 45.7053C218.779 46.2342 220.601 46.4399 222.952 46.293L231.621 46.0285C239.791 46.293 245.168 48.6146 247.813 52.9639C250.458 57.2839 251.163 63.0732 249.929 70.3612C247.226 83.4092 238.292 89.6981 223.069 89.1985H183.455L183.484 89.2572Z" fill="white"/>
<path d="M272.469 66.394L288.808 0.00805664H310.231C306.617 14.1727 304.736 21.4902 304.618 21.9604H320.429L315.668 41.4735H299.917C298.77 46.2049 297.83 50.1134 297.066 53.1991C296.302 56.3141 295.626 59.1353 295.009 61.6626C294.392 64.1899 294.01 65.7768 293.892 66.394C293.775 67.5107 294.039 68.4805 294.686 69.3621C295.332 70.2437 296.272 70.6845 297.477 70.6845H308.586L304.09 89.2573H289.66C283.753 89.2573 279.11 86.9651 275.701 82.3807C272.263 77.7962 271.176 72.4478 272.469 66.3646V66.394Z" fill="white"/>
<path d="M369.006 60.3696H355.312C355.312 60.3696 354.988 61.7508 354.459 64.0724C353.842 66.7173 353.107 69.8911 352.226 73.5645C351.344 77.2379 350.551 80.5881 349.845 83.615C349.14 86.6419 348.699 88.4639 348.523 89.1398H326.424L344.468 14.7311C347.935 4.94516 354.224 0.0374756 363.305 0.0374756H406.563C412.705 0.0374756 417.642 2.35907 421.433 6.97288C425.224 11.5573 426.488 16.8764 425.195 22.9008C423.902 28.1023 422.844 32.4517 422.021 35.9194C421.168 39.4165 420.404 42.6491 419.699 45.6466C418.582 49.9371 416.29 53.4636 412.822 56.226C409.325 58.959 405.299 60.3402 400.715 60.3402H392.633L409.825 89.2279H386.227L368.977 60.3402L369.006 60.3696ZM404.535 23.5473C404.653 22.7539 404.476 22.0486 403.948 21.4314C403.419 20.7555 402.743 20.4323 401.949 20.4323H367.831C367.331 20.4323 366.831 20.638 366.302 21.02C365.773 21.4608 365.421 21.9898 365.244 22.6069L361.424 39.6809H398.07C399.422 39.6809 400.333 39.0638 400.774 37.8295L404.535 23.5473Z" fill="#DC1D3F"/>
<path d="M430.955 89.2573L447.618 21.6665H469.452L453.054 89.2573H430.955ZM453.113 0.00805664H474.86L470.746 15.8772H448.999L453.084 0.00805664H453.113Z" fill="#DC1D3F"/>
<path d="M505.54 88.9928C499.134 88.5814 494.314 87.1708 491.023 84.7023C487.732 82.2337 485.263 78.8836 483.588 74.6518C479.944 65.5124 480.738 55.1387 485.968 43.5013C493.021 30.2182 504.541 23.1065 520.499 22.1367H558.849L554.411 40.5332H522.085C516.796 40.7095 512.505 42.1789 509.243 44.9707C505.981 47.5861 503.836 50.7599 502.837 54.4921C499.839 64.7777 502.866 69.9792 511.976 70.0968H547.3L542.657 89.2867L505.57 89.0222L505.54 88.9928Z" fill="#DC1D3F"/>
<path d="M586.738 0.00805664H608.572L603.547 21.8428H622.267C628.321 21.8428 633.081 24.135 636.549 28.7195C640.046 33.2745 641.104 38.5936 639.782 44.7355L629.055 89.3161H607.162L617.947 44.7355C618.123 43.5894 617.888 42.5903 617.212 41.7674C616.507 40.8858 615.566 40.445 614.362 40.445H598.875L587.237 89.3161H565.402L586.708 0.0374446L586.738 0.00805664Z" fill="#DC1D3F"/>
</svg>
