<svg width="32" height="23" viewBox="0 0 32 23" fill="none" xmlns="http://www.w3.org/2000/svg">
<g clip-path="url(#clip0_7721_243340)">
<path d="M32 22.068V15.2269C32 14.7211 31.5944 14.3073 31.0856 14.2955C29.5737 14.2588 28.3438 13.0049 28.3438 11.5C28.3438 9.99508 29.5737 8.74181 31.0856 8.70453C31.5944 8.69211 32 8.27891 32 7.7725V0.932029C32 0.417549 31.58 0 31.0625 0H0.9375C0.42 0 0 0.417549 0 0.932029V7.77188C0 8.28636 0.42 8.70391 0.9375 8.70391C2.48812 8.70391 3.75 9.95842 3.75 11.5C3.75 13.0416 2.48812 14.2961 0.9375 14.2961C0.42 14.2961 0 14.7136 0 15.2281V22.068C0 22.5825 0.42 23 0.9375 23H31.0625C31.58 23 32 22.5825 32 22.068Z" fill="#DE173E"/>
<path fill-rule="evenodd" clip-rule="evenodd" d="M24 11.5C24 15.6421 20.6421 19 16.5 19C12.3579 19 9 15.6421 9 11.5C9 7.35786 12.3579 4 16.5 4C20.6421 4 24 7.35786 24 11.5ZM22.9115 11.4999C22.9115 15.0414 20.0405 17.9124 16.499 17.9124C12.9574 17.9124 10.0864 15.0414 10.0864 11.4999C10.0864 7.95833 12.9574 5.08734 16.499 5.08734C20.0405 5.08734 22.9115 7.95833 22.9115 11.4999Z" fill="white"/>
<path d="M13.7812 13.4397L14.9789 14.6353L17.3722 14.6394L16.1579 13.4501L13.7812 13.4397Z" fill="white"/>
<path d="M18.5874 12.2442V10.9717H17.0508H15.5246H13.252L14.4288 12.2442H16.4936L18.6955 14.6292L20.4276 14.6312L18.2235 12.2442H18.5874Z" fill="white"/>
<path d="M18.5878 9.8321V8.55957H12.5703L13.8054 9.8321H18.5878Z" fill="white"/>
<path d="M20.4282 10.4018C20.4282 9.38505 19.6027 8.55957 18.5859 8.55957V9.8321C18.8999 9.8321 19.1557 10.0878 19.1557 10.4018C19.1557 10.7158 18.8999 10.9715 18.5859 10.9715V12.2441C19.6027 12.2441 20.4282 11.4186 20.4282 10.4018Z" fill="white"/>
</g>
<defs>
<clipPath id="clip0_7721_243340">
<rect width="32" height="23" fill="white"/>
</clipPath>
</defs>
</svg>
