<svg width="141" height="39" viewBox="0 0 141 39" fill="none" xmlns="http://www.w3.org/2000/svg">
<path fill-rule="evenodd" clip-rule="evenodd" d="M0.460869 9.76109C-0.145703 16.1892 -0.155108 22.6174 0.442061 29.0455L0.446763 29.0502C0.888761 33.8419 4.66456 37.618 9.45601 38.06C15.8791 38.6525 22.3069 38.6478 28.7347 38.0412C33.3898 37.5991 37.0997 33.889 37.5417 29.2336C38.153 22.7443 38.153 16.2551 37.5417 9.76579C37.0997 5.11044 33.3898 1.40026 28.7347 0.958237C22.2458 0.346929 15.7568 0.346929 9.26793 0.958237C4.61283 1.39556 0.898166 5.11044 0.460869 9.76109ZM13.9923 29.9999C13.9722 30.002 13.9525 30.0039 13.9331 30.0059V29.9965C13.8437 30.0012 13.7544 30.0059 13.6651 30.0012C13.4158 29.9777 13.1666 29.9542 12.9268 29.8931C12.6961 29.8331 12.4608 29.7232 12.2522 29.6258L12.2403 29.6203C12.1604 29.5827 12.0899 29.5451 12.0193 29.4981C11.8124 29.3617 11.6149 29.2159 11.4363 29.0419C11.2982 28.9078 11.1768 28.7407 11.0635 28.5848C11.0417 28.5549 11.0202 28.5253 10.999 28.4965C10.9425 28.4212 10.8908 28.3413 10.8485 28.2519C10.8432 28.2406 10.8379 28.2292 10.8326 28.2179C10.7388 28.0171 10.6428 27.8117 10.5805 27.5936C10.446 27.123 10.4512 26.6125 10.4563 26.118C10.4573 26.0245 10.4582 25.9316 10.4582 25.8396V12.4002C10.4582 12.1275 10.5005 11.8453 10.5523 11.5773C10.5924 11.3684 10.6876 11.1594 10.776 10.9651C10.7911 10.932 10.8059 10.8994 10.8203 10.8672C10.8532 10.792 10.8908 10.7215 10.9331 10.6509C11.0648 10.444 11.22 10.2418 11.3892 10.0631C11.5122 9.92898 11.6706 9.81254 11.8177 9.70446C11.8562 9.67616 11.8939 9.64844 11.93 9.62112C12.1933 9.42362 12.513 9.30135 12.8187 9.1979C13.0138 9.13156 13.238 9.10732 13.4457 9.08487C13.4883 9.08027 13.5302 9.07574 13.571 9.07094C13.6509 9.05683 13.7356 9.05683 13.8155 9.05683H13.8155C14.3939 9.07564 14.9299 9.22141 15.4331 9.50826C15.6874 9.65261 15.9392 9.79947 16.1921 9.947C16.2853 10.0013 16.3786 10.0557 16.4722 10.1102C16.8601 10.3335 17.248 10.558 17.6359 10.7825C18.0238 11.0071 18.4118 11.2317 18.7998 11.455C19.2935 11.7395 19.786 12.024 20.2786 12.3085C20.7711 12.593 21.2637 12.8775 21.7574 13.162C22.7307 13.7263 23.7087 14.2905 24.6867 14.8548L24.6868 14.8549C25.4391 15.2875 26.1867 15.72 26.9343 16.1526L26.9344 16.1527C27.0685 16.2303 27.2013 16.3068 27.3342 16.3832C27.467 16.4596 27.5998 16.536 27.7338 16.6135C27.7714 16.6324 27.8043 16.6512 27.8372 16.6747C27.856 16.6864 27.8737 16.6982 27.8913 16.7099C27.9089 16.7217 27.9266 16.7335 27.9454 16.7452C28.092 16.843 28.228 16.9548 28.3626 17.0655C28.3834 17.0826 28.4042 17.0997 28.425 17.1167C28.4955 17.1778 28.5567 17.239 28.6131 17.3095C28.6279 17.3276 28.6428 17.3458 28.6577 17.3641C28.79 17.5256 28.926 17.6916 29.0316 17.8691C29.1448 18.065 29.2257 18.277 29.3043 18.4828C29.3105 18.4993 29.3168 18.5157 29.3231 18.5321C29.3513 18.6074 29.3748 18.6826 29.3889 18.7578C29.4359 18.9977 29.4736 19.2422 29.483 19.4867C29.4877 19.5619 29.483 19.6419 29.4736 19.7171C29.4718 19.7346 29.47 19.7524 29.4682 19.7703C29.4462 19.9881 29.4215 20.2331 29.3607 20.446C29.1162 21.2924 28.552 21.9931 27.7902 22.4304L27.3529 22.6843C27.0285 22.8701 26.7052 23.057 26.3819 23.2439C26.0587 23.4308 25.7354 23.6177 25.4109 23.8035L22.6038 25.4258C21.5975 26.0042 20.5866 26.5873 19.5803 27.1704C18.9536 27.5354 18.3244 27.8979 17.6963 28.2597C17.4668 28.392 17.2373 28.5242 17.0083 28.6563C16.7661 28.7951 16.5239 28.9349 16.2818 29.0748C16.0396 29.2147 15.7975 29.3546 15.5553 29.4934C15.5365 29.5051 15.5177 29.5157 15.4989 29.5263C15.4801 29.5369 15.4613 29.5474 15.4425 29.5592L15.4424 29.5592C15.4189 29.5733 15.3954 29.5874 15.3672 29.6015C15.1462 29.7144 14.9158 29.8178 14.676 29.8884C14.4607 29.9529 14.2099 29.9781 13.9923 29.9999ZM14.2152 25.3271V25.3365V25.36C14.2152 25.6139 14.4879 25.7738 14.7089 25.6468C14.8171 25.5904 14.9205 25.5293 15.024 25.4681C15.2614 25.3318 15.4989 25.1942 15.7363 25.0567C15.9738 24.9191 16.2113 24.7816 16.4487 24.6452C16.7332 24.4806 17.0165 24.3172 17.2998 24.1538C17.5831 23.9904 17.8664 23.827 18.1509 23.6624C18.4542 23.486 18.7575 23.3109 19.0608 23.1357C19.3641 22.9605 19.6673 22.7854 19.9706 22.6091C20.2715 22.4351 20.5736 22.2611 20.8758 22.0871C21.1779 21.9131 21.48 21.7391 21.7809 21.5652C22.1803 21.331 22.5821 21.0994 22.9828 20.8685C23.1294 20.784 23.2759 20.6997 23.4219 20.6153C23.8732 20.3567 24.3197 20.0982 24.7662 19.8397L24.7667 19.8394C24.7738 19.8347 24.7797 19.8312 24.7856 19.8276C24.7914 19.8241 24.7973 19.8206 24.8044 19.8159C25.0254 19.6889 25.0254 19.3738 24.8044 19.2469C24.6727 19.1669 24.541 19.0917 24.4094 19.0165C23.9352 18.7441 23.4563 18.4671 22.9774 18.1901L22.9752 18.1888C22.6931 18.0266 22.4098 17.8632 22.1265 17.6998C21.8432 17.5364 21.5599 17.373 21.2778 17.2108L19.4628 16.1621C19.1642 15.9905 18.8657 15.8177 18.5671 15.6449C18.2685 15.4721 17.9699 15.2993 17.6713 15.1276C17.3986 14.9701 17.1271 14.8138 16.8557 14.6575C16.584 14.5011 16.3124 14.3447 16.0396 14.1871C15.5976 13.9285 15.1556 13.6746 14.7136 13.4206H14.7089C14.4879 13.2937 14.2152 13.4536 14.2152 13.7075V25.3271Z" fill="#FAC33D"/>
<path d="M51.2085 25.7486C51.4285 25.7641 51.5155 25.8881 51.4644 26.1102C51.3774 26.42 51.275 26.7196 51.1573 27.014C51.0395 27.3084 50.9014 27.5821 50.7478 27.8404C50.9014 27.9075 51.0447 27.954 51.1829 27.9798C51.3211 28.0056 51.4746 28.0366 51.6435 28.0676L51.925 25.3303H48.1887C47.9686 25.3303 47.8048 25.2786 47.7025 25.1753C47.6001 25.072 47.5643 24.8913 47.6001 24.633L48.1887 20.4237C48.2245 20.2326 48.2808 20.1139 48.3678 20.0622C48.4549 20.0106 48.5828 19.9847 48.7517 19.9847H57.8365C58.333 19.9847 58.7322 20.0209 59.0393 20.088C59.3464 20.1552 59.5818 20.2688 59.7456 20.4237C59.9094 20.5787 60.0118 20.7853 60.0527 21.0435C60.0937 21.3017 60.0988 21.622 60.0681 21.999L59.761 24.633C59.7251 24.9068 59.6535 25.0927 59.546 25.1908C59.4385 25.289 59.244 25.3303 58.9728 25.3303H55.6459L55.2365 30.211C55.2211 30.6397 55.0676 30.8979 54.7758 30.9857C54.4841 31.089 54.1207 31.1561 53.6754 31.1923C53.2301 31.2284 52.7644 31.2336 52.2679 31.2181C51.7715 31.2026 51.2852 31.1561 50.8092 31.0735C50.3332 30.996 49.9289 30.8876 49.6064 30.7533C49.3659 30.65 49.2738 30.4537 49.3249 30.1593C49.3608 29.9166 49.412 29.6687 49.4785 29.4104C49.0844 29.7565 48.6442 30.0405 48.1478 30.273C47.6513 30.5054 47.1139 30.681 46.5355 30.8049C46.3973 30.8411 46.295 30.8204 46.2182 30.7533C46.1414 30.6861 46.1107 30.5725 46.1312 30.4176C46.1465 30.2626 46.1721 30.0819 46.208 29.8753C46.2438 29.6687 46.2745 29.4518 46.3103 29.2297C46.3462 29.0076 46.3769 28.7958 46.4127 28.5996C46.4485 28.4033 46.4792 28.2277 46.515 28.0676C46.5304 27.861 46.6174 27.7164 46.771 27.6286C47.1958 27.4065 47.5182 27.1741 47.7332 26.9314C47.9481 26.6886 48.158 26.3632 48.3576 25.95C48.4088 25.8106 48.5367 25.7435 48.7415 25.7435H51.2238L51.2085 25.7486ZM49.2891 8.85981C49.325 8.70487 49.3812 8.57575 49.4683 8.47245C49.5553 8.36916 49.6883 8.31751 49.8777 8.31751H58.9625C59.9503 8.31751 60.6208 8.48795 60.9689 8.83399C61.3169 9.18003 61.4602 9.81529 61.3937 10.745L60.8051 15.7031C60.7897 15.9097 60.7232 16.0595 60.6106 16.1576C60.498 16.2506 60.3496 16.2971 60.1602 16.2971H56.2704C56.3881 16.4365 56.4904 16.607 56.5774 16.8136H61.0047C61.1429 16.8136 61.2401 16.8549 61.3016 16.9427C61.363 17.0305 61.3732 17.1338 61.3425 17.2526C61.3067 17.4953 61.2555 17.7949 61.189 18.1564C61.1224 18.5179 61.0456 18.8536 60.9586 19.1635C60.9074 19.4063 60.7437 19.5251 60.4724 19.5251H49.0332C48.3678 19.5251 47.856 19.3495 47.4978 18.9983C47.1395 18.6471 46.9347 18.0273 46.8836 17.1493C46.8682 16.9272 46.9603 16.8136 47.1651 16.8136H52.4368C52.5238 16.607 52.6262 16.4365 52.7439 16.2971H49.0332C48.6084 16.2971 48.419 16.0802 48.4702 15.6515L49.2891 8.85981ZM51.5923 22.1591L51.4644 23.0371H56.1987L56.3011 22.1591H51.5923ZM57.2735 13.3532H52.4368L52.36 14.0762H57.2223L57.2735 13.3532ZM52.6415 11.4938H57.4527L57.5294 10.8999H52.7183L52.6415 11.4938ZM57.683 26.0069C58.1436 26.0069 58.5531 26.1463 58.9113 26.42C59.2696 26.6938 59.4999 27.0501 59.6023 27.4788C60.2677 27.2206 60.8716 26.952 61.4193 26.6783C61.9669 26.4045 62.4583 26.0843 62.9036 25.7228C63.3488 25.3613 63.7532 24.9274 64.1217 24.4213C64.4902 23.9151 64.828 23.2902 65.13 22.5516C65.1965 22.3812 65.3449 22.2934 65.565 22.2934H68.5336C68.6871 22.2934 68.7946 22.3347 68.8509 22.4225C68.9123 22.5103 68.9226 22.6136 68.8919 22.7324C68.2623 25.041 67.1056 26.9107 65.4217 28.3517C63.7378 29.7926 61.5779 30.7584 58.9369 31.2543C58.7476 31.2904 58.5991 31.2543 58.4865 31.151C58.3739 31.0477 58.3432 30.8824 58.3995 30.6603L58.6554 29.6015C58.3483 29.772 58.0259 29.8598 57.683 29.8598C57.1353 29.8598 56.6747 29.6738 56.3011 29.302C55.9274 28.9301 55.7381 28.4808 55.7381 27.9488C55.7381 27.4168 55.9274 26.9365 56.3011 26.5698C56.6747 26.198 57.1353 26.012 57.683 26.012V26.0069ZM68.9686 14.9026C69.071 14.9026 69.158 14.9387 69.2245 15.0059C69.2911 15.073 69.3115 15.1763 69.2757 15.3158C69.0045 16.4004 68.595 17.3972 68.0474 18.3113C67.4997 19.2255 66.8548 20.0415 66.1178 20.7646C65.3756 21.4877 64.5516 22.1023 63.6457 22.6136C62.7398 23.1197 61.8031 23.5123 60.8307 23.786C60.6771 23.8222 60.5492 23.8015 60.4468 23.7344C60.3444 23.6672 60.3086 23.5381 60.3444 23.347C60.3956 22.9493 60.4724 22.5103 60.5748 22.03C60.6771 21.5497 60.7693 21.1003 60.8563 20.6871C60.9228 20.4134 61.0508 20.2326 61.2401 20.1448C61.839 19.8195 62.3508 19.5096 62.7909 19.2152C63.226 18.9208 63.615 18.5954 63.9528 18.2339C64.2906 17.8723 64.6079 17.4488 64.8894 16.9685C65.1709 16.4882 65.4575 15.8839 65.7442 15.1608C65.8107 14.9904 65.9591 14.9026 66.1792 14.9026H68.9686ZM69.0454 8.03345C69.286 8.03345 69.3883 8.15224 69.3525 8.39498C69.1836 9.41244 68.856 10.3628 68.3698 11.2511C67.8836 12.1394 67.2899 12.94 66.5938 13.6527C65.8926 14.3655 65.1146 14.9852 64.2496 15.5017C63.3898 16.0182 62.4992 16.4159 61.5779 16.6896C61.4244 16.7258 61.2964 16.7051 61.1941 16.6276C61.0917 16.5502 61.0559 16.4159 61.0917 16.2299C61.1429 15.8323 61.2043 15.4087 61.2862 14.9491C61.363 14.4946 61.4449 14.0504 61.5268 13.6166C61.5933 13.3583 61.7059 13.1879 61.8594 13.1001C62.4224 12.7231 62.9036 12.377 63.3079 12.0671C63.7071 11.7572 64.0551 11.4267 64.3418 11.0755C64.6335 10.7243 64.8843 10.3266 65.0993 9.8876C65.3142 9.44859 65.5036 8.91146 65.6725 8.27619C65.7237 8.12125 65.8619 8.04378 66.082 8.04378H69.0505L69.0454 8.03345Z" fill="#FAC33D"/>
<path d="M79.8276 23.4268C79.5947 23.5905 79.4213 23.5608 79.3073 23.3275C79.2082 23.1141 79.1091 22.8908 79.0099 22.6576C78.9108 22.4243 78.7968 22.196 78.663 21.9628L78.1179 30.8709C78.0684 31.1339 77.9098 31.2679 77.6472 31.2679H74.7233C74.3913 31.2679 74.2426 31.119 74.2773 30.8212L74.9463 23.6005C74.535 23.8833 74.1138 24.1315 73.6827 24.3449C73.2515 24.5583 72.8154 24.732 72.3694 24.866C72.2356 24.9007 72.1167 24.8809 72.0126 24.8163C71.9036 24.7518 71.859 24.6278 71.8739 24.4441C71.8887 24.2109 71.9234 23.9578 71.973 23.6749C72.0225 23.392 72.0771 23.1141 72.1365 22.8313C72.196 22.5484 72.2505 22.2804 72.31 22.0273C72.3694 21.7692 72.419 21.5409 72.4735 21.3424C72.5082 21.2581 72.5528 21.1836 72.6073 21.1191C72.6668 21.0546 72.7213 21.005 72.7708 20.9702C73.8958 20.2903 74.8125 19.536 75.5212 18.6973C76.2298 17.8636 76.7502 16.8661 77.0822 15.7048H75.2239C74.6143 15.7048 74.089 15.4567 73.6529 14.9604C73.2168 14.4641 72.9691 13.7594 72.9195 12.8512C72.9195 12.6676 72.9839 12.5783 73.1177 12.5783H79.4609C80.3529 12.5783 80.9129 12.7966 81.1458 13.2383C81.3787 13.675 81.3837 14.2507 81.1706 14.9604C80.789 16.1663 80.2389 17.3772 79.5104 18.5832C79.9069 18.9454 80.2637 19.3176 80.5858 19.6998C80.9079 20.0819 81.1855 20.4343 81.4134 20.7668L82.6523 9.6999C82.687 9.4865 82.7514 9.35251 82.8505 9.30288C82.9496 9.25325 83.0983 9.22844 83.2965 9.22844H91.3246C92.4297 9.22844 93.1631 9.45176 93.515 9.8984C93.8718 10.345 93.9907 11.1143 93.8767 12.2061L93.0838 22.9007C93.0492 23.1489 92.9203 23.2729 92.6874 23.2729H89.8627C89.5802 23.2729 89.4563 23.1389 89.491 22.8759L90.383 13.149C90.4326 12.7867 90.2988 12.6031 89.9866 12.6031H85.8487L84.5354 23C84.4859 23.2332 84.3372 23.3474 84.0894 23.3474H81.463C81.23 23.3474 81.1309 23.2084 81.1656 22.9255L81.2152 22.3548C80.9823 22.5533 80.7543 22.7419 80.5214 22.9255C80.2885 23.1092 80.0605 23.2729 79.8276 23.4218V23.4268ZM78.5639 7.5957C79.1933 7.5957 79.7236 7.8091 80.1596 8.24086C80.5957 8.67261 80.8187 9.19866 80.8187 9.82893C80.8187 10.4592 80.6007 10.9902 80.1596 11.4269C79.7236 11.8636 79.1883 12.087 78.5639 12.087C77.9395 12.087 77.4043 11.8686 76.9682 11.4269C76.5321 10.9902 76.3091 10.4542 76.3091 9.82893C76.3091 9.20362 76.5272 8.67261 76.9682 8.24086C77.4043 7.8091 77.9395 7.5957 78.5639 7.5957ZM86.2947 13.6254C86.3294 13.3922 86.4582 13.278 86.6911 13.278H89.3671C89.6496 13.278 89.7735 13.4021 89.7388 13.6502C89.5753 15.5509 89.4068 17.2482 89.2433 18.737C89.0797 20.2258 88.8319 21.5658 88.4999 22.7568C88.4504 22.9404 88.4008 23.1092 88.3512 23.268C88.3017 23.4268 88.2422 23.5757 88.1778 23.7245H90.3087C90.5565 23.7245 90.6705 23.8486 90.6556 24.0967L90.3583 27.1984C90.7894 27.2332 91.3543 27.1488 92.0531 26.9503C92.7518 26.7518 93.4357 26.4789 94.0948 26.1315C94.179 26.0818 94.2633 26.0818 94.3574 26.1315C94.4466 26.1811 94.4962 26.2704 94.4962 26.4044C94.4962 26.6029 94.4813 26.8312 94.4565 27.0893C94.4318 27.3473 94.3971 27.6103 94.3574 27.8833C94.3178 28.1562 94.2781 28.4143 94.2484 28.6525C94.2137 28.8907 94.184 29.0942 94.1493 29.2629C94.1146 29.3969 94.0799 29.4962 94.0353 29.5607C93.9957 29.6252 93.9164 29.6997 93.8024 29.784C93.5199 29.9676 93.1037 30.1215 92.5486 30.2555C91.9936 30.3895 91.394 30.4838 90.7398 30.5384C90.0857 30.5979 89.4365 30.6128 88.7824 30.588C88.1282 30.5632 87.5584 30.4838 87.0628 30.3498C86.7159 30.2505 86.5672 30.0272 86.6168 29.6798L86.9885 26.2803C86.1956 27.521 85.1945 28.5285 83.9754 29.3076C82.7613 30.0867 81.3093 30.6823 79.6294 31.0942C79.1685 31.2083 78.9753 31.0545 79.0595 30.6227C79.1437 30.191 79.228 29.7443 79.3221 29.2828C79.4113 28.8213 79.5253 28.325 79.6542 27.794C79.7037 27.5607 79.8177 27.4069 80.0011 27.3225C80.6453 27.0099 81.2251 26.7071 81.7454 26.4143C82.2658 26.1265 82.7266 25.8089 83.133 25.4615C83.5394 25.1141 83.8912 24.722 84.1836 24.2804C84.4809 23.8436 84.7287 23.3275 84.9269 22.732C85.259 21.7543 85.5216 20.5434 85.7198 19.0943C85.9181 17.6452 86.1064 15.8239 86.2897 13.6254H86.2947Z" fill="#FAC33D"/>
<path d="M116.274 9.30725C116.492 9.30725 116.568 9.42238 116.509 9.65263L115.303 13.567C115.244 13.7972 115.097 13.9124 114.862 13.9124H109.509L108.332 30.9225C108.291 31.1527 108.144 31.2678 107.891 31.2678H103.126C102.873 31.2678 102.761 31.1239 102.802 30.8361L104.067 13.9124H100.096C99.5845 13.9124 99.1433 13.7972 98.7609 13.567C98.3785 13.3367 98.0549 13.0316 97.7902 12.646C97.5255 12.2603 97.3314 11.817 97.2019 11.3105C97.0725 10.8039 97.0078 10.2686 97.0078 9.7102C97.0078 9.43965 97.1372 9.30725 97.3902 9.30725H116.274Z" fill="#FAC33D"/>
<path d="M124.893 31.2622C124.647 31.2622 124.481 31.1355 124.406 30.8881L119.073 9.85402C118.975 9.49147 119.102 9.30731 119.446 9.30731H124.32C124.704 9.30731 124.934 9.49147 125.008 9.85402L128.277 25.7087H128.334L134.728 9.7677C134.785 9.61232 134.86 9.49722 134.946 9.42241C135.032 9.3476 135.17 9.30731 135.365 9.30731H140.554C140.973 9.30731 141.099 9.52024 140.927 9.94035L132.669 27.9243C132.343 28.6149 132.021 29.1789 131.695 29.622C131.368 30.0651 131.012 30.4047 130.616 30.6464C130.227 30.8881 129.785 31.0492 129.298 31.1355C128.81 31.2219 128.242 31.2679 127.594 31.2679H124.899L124.893 31.2622Z" fill="#FAC33D"/>
</svg>
