<svg width="156" height="50" viewBox="0 0 156 50" fill="none" xmlns="http://www.w3.org/2000/svg">
<g clip-path="url(#clip0_24397_37895)">
<g clip-path="url(#clip1_24397_37895)">
<path d="M32.2245 20.8967C32.2837 20.8749 32.3425 20.8545 32.4027 20.8345C32.322 20.8541 32.2642 20.8764 32.2245 20.8967Z" fill="#0085E0"/>
<path d="M41.1943 21.4404C38.1159 20.2252 32.6441 20.9392 32.0464 21.0911C31.9862 21.1111 31.9275 21.1315 31.8682 21.1533C31.908 21.133 33.0145 20.5239 33.0951 20.5043C37.5288 18.8809 43.2469 20.1811 43.2469 20.1811C43.2469 20.1811 43.3745 20.085 43.4368 20.0342C43.4387 20.0332 43.4406 20.0323 43.4411 20.0308C43.4486 20.027 43.4529 20.0236 43.4576 20.0188C43.579 19.9224 43.6933 19.8236 43.8037 19.7268C43.8632 19.675 43.9199 19.6223 43.9741 19.572C44.0194 19.5298 44.0619 19.4867 44.1062 19.4474C44.2799 19.2778 44.4392 19.1084 44.5872 18.94C44.7351 18.7716 44.8126 18.6545 44.9364 18.4925L45.1683 18.1775C45.2341 18.0867 45.2933 17.997 45.3526 17.9119C45.3793 17.8685 45.4085 17.8274 45.4343 17.7868C45.4606 17.7448 45.4879 17.7046 45.5132 17.6655C45.5376 17.6244 45.5611 17.5862 45.5846 17.548C45.6292 17.474 45.6719 17.401 45.7098 17.3327C45.7675 17.233 45.8177 17.1418 45.8594 17.0621C45.8753 17.0325 45.8922 17.0001 45.9072 16.9734C45.9259 16.9352 45.9418 16.9009 45.9568 16.8694C45.9661 16.8503 45.975 16.8326 45.9816 16.8174C45.982 16.816 45.9835 16.8164 45.9835 16.8164C45.9914 16.8016 45.9952 16.7902 46.0003 16.7792C46.0036 16.774 46.005 16.7697 46.0064 16.7654C46.0073 16.7625 46.0101 16.7587 46.0106 16.7573C46.0129 16.7549 46.012 16.753 46.0124 16.7516L46.0055 16.7193C45.9993 16.7141 45.9898 16.7094 45.9807 16.7033C45.9707 16.6953 45.9592 16.6869 45.9444 16.6789C45.9444 16.6789 34.524 8.0191 19.7997 13.0682L19.7714 13.0433C19.7427 13.0197 19.7022 13.0034 19.6796 12.9708C16.4362 8.61123 9.64929 9.87606 9.64929 9.87606L9.64786 9.8756C9.64786 9.8756 14.7907 13.9042 12.5775 17.4136C12.5014 17.5359 12.1575 17.8018 12.1575 17.8018C12.0839 17.8727 12.0107 17.9421 11.9386 18.0135L11.5772 18.3717C11.5353 18.4134 11.4952 18.4541 11.4542 18.4976C11.3745 18.5824 11.2962 18.6628 11.2189 18.7451C11.1807 18.7849 11.1435 18.8265 11.1067 18.8667C11.0591 18.916 11.0138 18.9677 10.9695 19.0165C10.9144 19.0792 10.8579 19.1414 10.8046 19.2031L10.8032 19.2026C10.7481 19.2653 10.6953 19.3256 10.6454 19.3868L10.4226 19.6494C10.3524 19.7341 10.2841 19.8177 10.2201 19.8981C10.1754 19.9531 10.1344 20.0061 10.0944 20.0563C10.0558 20.107 10.0177 20.1562 9.97959 20.2055C9.90335 20.304 9.83418 20.3953 9.77069 20.4837C9.72224 20.5501 9.67708 20.6113 9.63428 20.67C9.61031 20.7049 9.5868 20.7384 9.56376 20.7704C9.54779 20.7952 9.53132 20.8167 9.51627 20.8387C9.47069 20.9061 9.42931 20.9653 9.39598 21.0193C9.38844 21.0279 9.38187 21.0384 9.37576 21.0474C9.35322 21.0828 9.33299 21.111 9.31563 21.1401C9.2898 21.1807 9.26822 21.2179 9.24989 21.2452C9.2311 21.2738 9.21985 21.2939 9.21092 21.3068C9.20716 21.3134 9.20531 21.3192 9.20341 21.3201L9.20248 21.323C9.11073 21.3817 9.02137 21.4427 8.93298 21.5056C8.85166 21.5614 8.77273 21.6195 8.69381 21.6776C8.68009 21.6858 8.66733 21.6958 8.65411 21.7073C8.5799 21.7607 8.50477 21.8168 8.43106 21.8735C8.42066 21.8812 8.41073 21.8874 8.3994 21.898C8.3994 21.898 2.98278 25.6275 2.69289 32.3896C2.68263 32.4163 2.6752 32.4392 2.66777 32.4621C2.70457 32.4266 2.76735 32.3696 2.86467 32.2938L2.8656 32.2909L2.86607 32.2895C5.59993 29.5655 6.99388 29.6961 8.61556 29.5877C9.39078 29.5362 10.1904 29.0012 10.7166 28.4611C11.2599 27.9029 11.837 26.7394 12.2459 25.7629C12.2459 25.7629 12.4113 28.2596 10.2797 30.2533C10.2797 30.2533 12.3318 33.5084 19.8475 36.4639C20.8466 36.8565 20.5938 38.4857 21.0084 39.3252C21.0089 39.3285 21.0113 39.3308 21.0123 39.3327C21.02 39.3479 21.0277 39.363 21.0354 39.3782C21.1213 39.5467 21.2081 39.7124 21.2958 39.8705C21.3445 39.959 21.3922 40.0456 21.4394 40.1289C21.5863 40.382 21.7311 40.6218 21.8812 40.8507C21.9158 40.9046 21.9523 40.9576 21.9841 41.0106C22.0235 41.0645 22.06 41.1174 22.0936 41.1694C22.172 41.2834 22.2541 41.3954 22.3314 41.5027C22.3852 41.5755 22.4394 41.6468 22.4923 41.7177C22.5402 41.7791 22.5882 41.8405 22.6367 41.9005C22.7211 42.0054 22.8046 42.1084 22.8904 42.2089C22.9595 42.2883 23.0257 42.3666 23.0942 42.4426C23.1589 42.5158 23.2246 42.5861 23.2907 42.655C23.3549 42.7249 23.4219 42.7909 23.4856 42.8574C23.5512 42.923 23.6173 42.9871 23.6805 43.0503C23.7456 43.1125 23.8098 43.1729 23.8748 43.2304C24.004 43.3482 24.1323 43.4594 24.2609 43.5644C24.2647 43.5672 24.2695 43.5719 24.2757 43.5771C24.4617 43.7292 24.6458 43.868 24.8245 43.994C24.8861 44.0378 24.9468 44.0796 25.0075 44.1214C25.0672 44.1614 25.1288 44.2003 25.1875 44.2384C25.4865 44.4272 25.7704 44.5842 26.0371 44.7119C26.4082 44.8926 26.7423 45.0169 27.0214 45.1061C27.1353 45.1399 27.2391 45.1705 27.3324 45.1945C27.391 45.2088 27.4434 45.2226 27.4953 45.2332C27.5367 45.2419 27.5781 45.2506 27.6138 45.2574C27.6195 45.2593 27.6257 45.2597 27.6328 45.2621C27.6952 45.2744 27.7494 45.2826 27.7918 45.2884C27.7946 45.2893 27.7975 45.2903 27.8008 45.2898C27.8213 45.2948 27.8398 45.2961 27.8551 45.2979C27.8684 45.3007 27.8793 45.3011 27.8884 45.3024L27.8926 45.3038C27.9036 45.3042 27.9126 45.3056 27.9193 45.3046C27.9221 45.3055 27.9255 45.305 27.9255 45.305C17.9365 32.945 33.3881 31.7317 33.7006 31.7085C31.9886 31.3165 30.4249 31.1782 29.0336 31.1954C24.5414 31.2481 21.8485 32.9219 21.8485 32.9219L21.557 32.5254C20.9112 31.6487 20.53 30.1375 20.8447 29.0957C20.8711 29.0047 20.9028 28.917 20.9349 28.8327C20.9359 28.8298 20.9363 28.8284 20.9368 28.827C20.9755 28.7273 21.0199 28.6343 21.0658 28.5418C21.0846 28.5084 21.1038 28.4783 21.1226 28.4449C21.1559 28.3862 21.1858 28.328 21.2225 28.2735C21.2474 28.2358 21.2766 28.1994 21.3029 28.1622C21.3335 28.1168 21.3649 28.0685 21.3998 28.0246C21.4294 27.9868 21.4634 27.9504 21.4954 27.915C21.5303 27.8758 21.5632 27.8327 21.5986 27.7968C21.6363 27.7585 21.6708 27.7255 21.7104 27.6909C21.7453 27.6565 21.7821 27.621 21.8185 27.587C21.8596 27.5529 21.9002 27.5203 21.9408 27.4877C21.981 27.4565 22.0183 27.4244 22.0608 27.3955C22.1029 27.3634 22.1488 27.334 22.1913 27.3052C22.2339 27.2764 22.275 27.2471 22.318 27.2215C22.3658 27.1912 22.4122 27.1652 22.4605 27.1382C22.5054 27.1118 22.5499 27.0867 22.5958 27.0621C22.6455 27.0356 22.6962 27.011 22.7468 26.9864C22.7933 26.9651 22.8401 26.9424 22.888 26.9216C22.9405 26.896 22.9946 26.8756 23.049 26.8539C23.0983 26.8335 23.148 26.8118 23.1987 26.7919C23.2556 26.7724 23.3111 26.7525 23.3661 26.7341C23.4192 26.7165 23.4699 26.6967 23.5244 26.6796C23.5822 26.6621 23.6387 26.6441 23.6994 26.6274C23.7534 26.6118 23.8079 26.5948 23.8649 26.5801C23.9223 26.564 25.0441 26.2237 25.1058 26.209C25.1627 26.1943 25.221 26.1801 25.2789 26.1673C25.3387 26.1535 25.4013 26.1407 25.464 26.1279C25.5238 26.1141 25.5859 26.1027 25.6448 26.0918C25.7088 26.0794 25.771 26.068 25.8351 26.0557C25.8982 26.0462 25.9604 26.0348 26.0235 26.0252C26.033 26.0252 26.0387 26.0223 26.0463 26.0232C26.1954 26.07 26.3069 26.111 26.3603 26.1315C29.0915 27.1801 30.9431 29.4472 31.0007 29.5181C31.015 29.4548 31.3512 27.7294 30.5123 25.7835C30.4199 25.5718 30.3171 25.3582 30.1952 25.1448C30.4245 24.9886 31.5466 24.9881 32.4304 24.9719C33.022 24.9603 34.1324 24.7965 34.7458 24.6545C38.0956 23.872 41.2833 21.7743 41.2833 21.7743L41.6611 21.5841L41.1905 21.4375L41.1943 21.4404ZM44.8411 17.21C44.5094 17.5258 43.7698 18.3821 43.7698 18.3821C43.7698 18.3821 36.7425 16.4764 29.3654 17.1892C28.9106 17.6261 27.4423 19.4703 26.8313 22.4353C26.8313 22.4353 26.76 20.8746 26.8011 20.4661C26.8341 20.1165 26.9214 19.2157 27.2376 18.8697L28.3267 17.0935C27.9313 17.221 27.3633 17.3983 27.061 17.5166L25.7815 19.4363C25.6577 19.6521 25.5471 19.929 25.492 20.1766C25.4653 20.2928 25.4023 20.6278 25.3808 20.7377C25.308 21.1076 25.1901 21.7282 25.1901 21.7282L25.0878 20.7105C25.0878 20.7105 24.979 19.5864 25.2161 19.0756L25.9102 17.2311C25.3987 17.3999 24.7885 17.5904 24.4882 17.7314L24.2118 18.6356C24.0924 18.9254 24.0133 19.2806 23.9687 19.5347C23.9468 19.6508 23.9145 19.9737 23.8978 20.0837C23.8429 20.4372 23.8354 20.7571 23.8338 20.7961L23.733 20.4157C23.6694 20.1785 23.5566 19.6552 23.5566 19.6552L23.4618 18.4977C23.4618 18.4977 23.3991 17.6257 23.4467 17.3867C20.6699 17.7723 17.8964 18.8479 15.3453 20.0369C14.1164 20.6094 11.0918 21.8452 11.0918 21.8452C12.1635 20.0302 12.8042 19.4198 13.7466 18.4208C14.6405 17.474 15.716 16.7173 17.0812 16.0121L17.0827 16.0126L18.4969 15.3028C18.0053 15.3469 17.392 15.44 16.9022 15.5226C15.4415 12.4312 11.4655 10.2829 11.4655 10.2829C16.8944 10.4256 18.7797 13.2504 19.3411 14.0759C33.5074 9.39221 45.1262 16.8918 45.1262 16.8918L44.8411 17.21Z" fill="#0085E0"/>
<path d="M37.6066 15.5248C37.4676 15.6171 37.1696 15.4302 37.0219 15.5103C36.9841 15.5343 36.9443 15.5546 36.9027 15.5758C36.7815 15.6375 36.6584 15.6955 36.5323 15.7478C36.3637 15.8147 36.1911 15.874 36.0131 15.9062C35.969 15.9156 35.9239 15.923 35.8802 15.9262C35.8351 15.9289 35.7909 15.9335 35.7448 15.9249C35.702 15.9204 35.6573 15.917 35.6172 15.8992C35.5753 15.8824 35.531 15.8728 35.4928 15.8493C35.1703 15.6845 34.9154 15.4136 34.6738 15.1455C34.4969 14.9411 34.0494 14.5334 33.8957 14.3112C33.8443 14.236 33.7924 14.1623 33.7443 14.0866C33.7633 14.0912 33.7852 14.0967 33.8047 14.0999C34.5455 14.2711 35.7518 14.4782 36.4783 14.7031C36.8436 14.8092 37.1673 15.3789 37.5285 15.4979C37.5556 15.5067 37.5809 15.5165 37.6066 15.5248Z" fill="#0085E0"/>
</g>
</g>
<path d="M134.228 27.2341C133.372 28.0903 132.435 28.9197 131.445 29.7758L130.562 26.8328C133.88 24.0502 136.128 21.3212 137.332 18.6724H131.178V15.9969H134.817C134.415 15.0069 133.987 14.0437 133.506 13.134L136.154 12.3849C136.689 13.6959 137.144 14.8999 137.465 15.9969H140.141V18.3513C139.472 20.2242 138.455 22.0971 137.091 23.9432C138.455 24.7994 139.713 25.7358 140.89 26.806L139.311 29.214C138.509 28.3311 137.733 27.5819 136.984 26.9398V37.3743H134.228V27.2341ZM153.492 13.4551V28.6254H150.656V16.1306H144.208V28.6254H141.425V13.4551H153.492ZM152.582 36.9463H149.907C148.221 36.9463 147.392 36.0366 147.392 34.2172V30.5785C147.124 31.2474 146.856 31.8628 146.562 32.4246C145.251 34.6721 143.164 36.3844 140.275 37.6151L138.75 35.1537C141.559 33.9229 143.459 32.3711 144.449 30.525C145.412 28.5183 145.947 25.9231 146.054 22.7659V17.7359H148.729V22.7659C148.649 24.9331 148.408 26.8595 148.007 28.5451H150.121V33.6286C150.121 34.137 150.308 34.4045 150.736 34.4045H152.074C152.315 34.4045 152.502 34.2707 152.636 34.0032C152.769 33.6821 152.876 32.8259 152.93 31.3812L155.525 32.2106C155.338 34.5115 155.017 35.9028 154.589 36.3309C154.134 36.7322 153.465 36.9463 152.582 36.9463Z" fill="#0085E0"/>
<path d="M105.305 13.4284H117.238V21.0536H112.208L112.502 22.2576H118.442V24.398H103.941V22.2576H109.907L109.613 21.0536H105.305V13.4284ZM114.723 19.261V18.1105H107.794V19.261H114.723ZM107.794 16.5052H114.723V15.3012H107.794V16.5052ZM105.519 25.5218H117.078V31.0601H112.61V34.8594C112.61 36.3577 111.807 37.1336 110.228 37.1336H108.355L107.794 34.7256C108.355 34.8059 108.891 34.8594 109.372 34.8594C109.747 34.8594 109.961 34.6453 109.961 34.244V31.0601H105.519V25.5218ZM114.536 29.1605V27.3946H108.061V29.1605H114.536ZM106.001 31.4882L108.061 32.5049C107.365 34.2172 106.563 35.7155 105.626 36.973L103.646 35.555C104.556 34.4313 105.359 33.0668 106.001 31.4882ZM115.553 31.5417C116.462 32.8795 117.185 34.0567 117.72 35.0734L115.74 36.4379C115.232 35.3142 114.536 34.0835 113.653 32.719L115.553 31.5417ZM125.666 12.6525L127.378 14.6056C125.185 16.7995 122.536 18.5921 119.405 20.0369L118.255 17.6825C121.278 16.3982 123.74 14.7126 125.666 12.6525ZM126.388 19.6891L128.074 21.6423C125.827 24.1305 123.124 26.1907 119.914 27.8227L118.79 25.4683C121.894 23.9967 124.409 22.0703 126.388 19.6891ZM126.576 26.6455L128.716 28.2776C126.522 32.4782 123.258 35.5015 118.951 37.3209L117.827 34.7791C121.706 33.1203 124.623 30.3912 126.576 26.6455Z" fill="#0085E0"/>
<path d="M80.8221 21.1874C80.2335 21.6155 79.6716 22.0168 79.083 22.3914L77.2637 20.2242C80.3138 18.4316 82.9893 15.8898 85.2368 12.5989L88.0996 13.2411C87.725 13.8029 87.3772 14.338 87.0026 14.8196H95.8319V16.9065C95.1362 17.8162 94.4138 18.6456 93.7182 19.368H98.8017V31.5149H80.8221V21.1874ZM90.2132 19.368C90.8821 18.7527 91.551 18.0838 92.2199 17.3346H84.996C84.3538 18.057 83.6849 18.7259 83.0161 19.368H90.2132ZM96.0191 28.8662V26.6455H91.1497V28.8662H96.0191ZM88.3404 28.8662V26.6455H83.6047V28.8662H88.3404ZM83.6047 24.1037H88.3404V21.9901H83.6047V24.1037ZM91.1497 21.9901V24.1037H96.0191V21.9901H91.1497ZM78.2001 33.6286H101.049V36.3577H78.2001V33.6286Z" fill="#0085E0"/>
<path d="M64.1016 12.6792H66.8039V17.9768H64.1016V12.6792ZM53.5065 28.1973C53.0784 28.4381 52.6771 28.6789 52.3025 28.8929L50.4297 26.6187C53.0784 25.388 55.3794 23.6756 57.3593 21.4817L60.1151 22.0971C59.901 22.3646 59.687 22.6322 59.4997 22.8997H68.8908V24.5318C68.3557 25.0134 67.8206 25.4683 67.2855 25.8428H72.6901V33.4146H53.5065V28.1973ZM63.4327 25.8428L65.0381 24.8796H57.7071C57.3593 25.2275 57.0115 25.5485 56.6904 25.8428H63.4327ZM69.961 31.515V30.4983H64.3157V31.515H69.961ZM61.7204 31.515V30.4983H56.2356V31.515H61.7204ZM56.2356 28.7592H61.7204V27.7157H56.2356V28.7592ZM64.3157 27.7157V28.7592H69.961V27.7157H64.3157ZM50.8845 34.458H74.6432V36.8393H50.8845V34.458ZM69.9343 13.4016C71.8607 14.6591 73.466 15.8899 74.777 17.0938L72.8506 19.0202C71.7536 17.7895 70.2286 16.4785 68.2487 15.0604L69.9343 13.4016ZM53.4798 12.4384C54.9246 12.9735 56.2623 13.5889 57.4931 14.3113L56.2623 16.1842C54.9513 15.4083 53.5868 14.7929 52.1688 14.3648L53.4798 12.4384ZM51.4999 15.7561C52.9982 16.1306 54.3894 16.5587 55.6202 17.0938L54.3894 18.94C53.0249 18.4049 51.6069 18.0035 50.1621 17.7092L51.4999 15.7561ZM60.3826 13.3749L62.7371 14.338C61.7739 16.2644 60.5432 17.7627 58.9914 18.8062L57.0382 17.0671C58.5365 16.1306 59.6602 14.8999 60.3826 13.3749ZM69.9878 17.0938L71.0848 18.9667C68.2487 20.8396 64.503 21.776 59.8208 21.776L59.0449 19.5018C63.3525 19.5018 66.9912 18.6992 69.9878 17.0938ZM56.6101 18.7794L57.2255 20.8931C55.8075 21.8563 54.0416 22.7125 51.928 23.4616L50.8845 21.0536C53.1052 20.4115 55.0048 19.6624 56.6101 18.7794Z" fill="#0085E0"/>
<defs>
<clipPath id="clip0_24397_37895">
<rect width="47.7773" height="47.7773" transform="translate(0.474609 1.11133)"/>
</clipPath>
<clipPath id="clip1_24397_37895">
<rect width="36.8388" height="34.0676" transform="translate(11.3594 4.19598) rotate(18)"/>
</clipPath>
</defs>
</svg>
