<svg width="22" height="23" viewBox="0 0 22 23" fill="none" xmlns="http://www.w3.org/2000/svg">
<g id="saba" clip-path="url(#clip0_3021_69459)">
<path id="Vector" d="M10.7556 19.1998C11.4278 19.3221 12.1 19.3526 12.7417 19.3832C14.0556 19.0471 15.3084 18.5276 16.4084 17.8248C11.1528 17.7637 6.50835 15.0748 3.7278 11.0415C3.69724 11.5304 3.66669 11.9887 3.66669 12.4776C3.66669 13.7609 3.81946 15.0137 4.12502 16.2054C6.05002 17.7943 8.31113 18.8026 10.7556 19.1998Z" fill="white"/>
<path id="Vector_2" d="M3.05554 15.7168C3.3611 16.4196 3.72776 17.0918 4.15554 17.7335C4.21665 17.8557 4.30832 17.9474 4.36943 18.039C4.15554 17.489 3.97221 16.939 3.84999 16.389C3.54443 16.2057 3.29999 15.9612 3.05554 15.7168Z" fill="white"/>
<path id="Vector_3" d="M11.4278 19.6584C11.1834 19.6278 10.9389 19.5972 10.725 19.5667C8.37224 19.2 6.17224 18.2222 4.30835 16.7861C4.52224 17.55 4.79724 18.2528 5.13335 18.9556C6.38613 19.4139 7.76113 19.7195 9.19724 19.75C9.93057 19.7806 10.6945 19.75 11.4278 19.6584Z" fill="white"/>
<path id="Vector_4" d="M3.69725 15.8696C3.4528 14.7696 3.33058 13.6696 3.33058 12.5085C3.33058 11.8669 3.36113 11.2558 3.4528 10.6141C2.68891 9.45297 2.10836 8.16964 1.68058 6.8252C1.37502 9.63631 1.74169 12.3863 2.71947 14.8919C3.02502 15.228 3.33058 15.5641 3.69725 15.8696Z" fill="white"/>
<path id="Vector_5" d="M10.2667 11.8057H9.16669V12.814H10.2667C10.4195 12.814 10.5417 12.7529 10.6334 12.6612C10.725 12.5696 10.7861 12.4473 10.7861 12.2946C10.7861 12.1418 10.725 12.0196 10.6334 11.9279C10.5111 11.8668 10.3889 11.8057 10.2667 11.8057Z" fill="white"/>
<path id="Vector_6" d="M11 0.5C4.91944 0.5 0 5.45 0 11.5C0 17.55 4.95 22.5 11 22.5C17.05 22.5 22 17.55 22 11.5C22 5.45 17.0806 0.5 11 0.5ZM11.9778 12.2944C11.9778 12.7833 11.825 13.1806 11.4889 13.5167C11.1528 13.8528 10.7556 14.0361 10.2667 14.0361H7.94444V9.66667H9.16667V10.5833H10.2972C10.45 10.5833 10.5722 10.5222 10.6639 10.4306C10.7556 10.3389 10.8167 10.2167 10.8167 10.0639C10.8167 9.94167 10.725 9.75833 10.6639 9.66667C11.1222 9.54444 11.4889 9.26944 11.7333 9.05556C11.9167 9.33056 12.0389 9.72778 12.0389 10.0639C12.0389 10.4917 11.9167 10.8583 11.6417 11.1944C11.8556 11.5 11.9778 11.8667 11.9778 12.2944ZM8.92222 5.29722C9.01389 5.38889 9.13611 5.45 9.28889 5.45H9.9C10.3889 5.45 10.7861 5.63333 11.1528 5.96944C11.4889 6.30556 11.6722 6.73333 11.6722 7.22222C11.6722 7.71111 11.4889 8.10833 11.1528 8.475C10.8167 8.81111 10.3889 8.99444 9.9 8.99444H7.94444V7.74167H9.9C10.0528 7.74167 10.175 7.68056 10.2667 7.58889C10.3583 7.49722 10.4194 7.375 10.4194 7.22222C10.4194 7.06944 10.3583 6.94722 10.2667 6.85556C10.175 6.76389 10.0528 6.70278 9.9 6.70278H9.28889C8.8 6.70278 8.40278 6.51944 8.03611 6.18333C7.7 5.84722 7.51667 5.41944 7.51667 4.93056C7.51667 4.44167 7.7 4.04444 8.03611 3.67778C8.37222 3.34167 8.8 3.15833 9.28889 3.15833H11.2444V4.41111H9.28889C9.13611 4.41111 9.01389 4.47222 8.92222 4.56389C8.83056 4.65556 8.76944 4.77778 8.76944 4.93056C8.76944 5.05278 8.83056 5.175 8.92222 5.29722ZM13.1083 7.03889L15.2167 3.18889L18.2417 8.68889H16.8667L15.5528 6.24444L13.1083 7.03889ZM14.3 7.375L13.5667 8.71944H12.1917L12.6194 7.89444L14.3 7.375ZM12.5889 13.2111L14.2389 12.6917L13.5056 14.0361H12.1306L12.5889 13.2111ZM13.0472 12.3861L14.1167 10.4306L15.5833 7.77222L19.0972 14.0667H17.7528L16.225 11.2556L13.0472 12.3861ZM1.925 17.2139C2.65833 17.7639 3.48333 18.2528 4.33889 18.65C4.15556 18.4056 4.00278 18.1611 3.85 17.9167C3.26944 17 2.78056 16.0528 2.38333 15.0444C1.83333 14.4333 1.28333 13.7611 0.825 13.0583C0.641667 12.7833 0.458333 12.4778 0.275 12.1722C0.244444 11.9278 0.244444 11.7139 0.244444 11.4694C0.244444 9.45278 0.794445 7.58889 1.77222 5.96944C2.13889 7.40556 2.75 8.78056 3.48333 10.0333C4.03333 6.55 5.71389 3.43333 8.15833 1.08056C8.37222 1.01944 8.61667 0.958333 8.83055 0.927778C6.14167 3.37222 4.27778 6.73333 3.78889 10.5222C6.53889 14.7083 11.275 17.4889 16.6528 17.4889H16.9583C19.4944 15.6861 21.2667 12.9972 21.6639 9.88056C21.7556 10.4 21.7861 10.95 21.7861 11.5C21.7861 13.7 21.1139 15.7778 19.9528 17.4889C19.0056 17.7028 18.0583 17.825 17.05 17.825C16.1333 18.4361 15.1556 18.9556 14.0861 19.3528C16.1333 19.2 18.0889 18.5583 19.8917 17.5806C19.7389 17.7944 19.5861 18.0083 19.4333 18.2222C17.4472 19.2 15.2472 19.75 12.9861 19.75H12.8333C11.825 19.9944 10.7556 20.1167 9.65556 20.1167H9.16667C7.85278 20.0556 6.56944 19.8417 5.37778 19.4444C6.17222 20.3611 7.05833 21.1556 8.00556 21.8278C7.63889 21.7361 7.30278 21.6139 6.96667 21.4611C6.6 21.1861 6.26389 20.85 5.92778 20.5444C6.08056 20.7583 6.20278 21.0028 6.35556 21.2167C4.55278 20.3 2.99444 18.925 1.925 17.2139Z" fill="white"/>
</g>
<defs>
<clipPath id="clip0_3021_69459">
<rect width="22" height="22" fill="white" transform="translate(0 0.5)"/>
</clipPath>
</defs>
</svg>
