<svg width="22" height="22" viewBox="0 0 22 22" fill="none" xmlns="http://www.w3.org/2000/svg">
<g id="_&#229;&#155;&#190;&#229;&#177;&#130;_4" clip-path="url(#clip0_6889_214885)">
<path id="Vector (Stroke)" fill-rule="evenodd" clip-rule="evenodd" d="M1.54399 0.988288C1.23708 0.988288 0.988288 1.23708 0.988288 1.54399V8.08101C0.988288 8.38792 1.23708 8.63671 1.54399 8.63671H8.08101C8.38791 8.63671 8.63671 8.38792 8.63671 8.08101V1.54399C8.63671 1.23708 8.38791 0.988288 8.08101 0.988288H1.54399ZM0 1.54399C0 0.691267 0.691266 0 1.54399 0H8.08101C8.93373 0 9.62499 0.691267 9.62499 1.54399V8.08101C9.62499 8.93373 8.93373 9.625 8.08101 9.625H1.54399C0.691266 9.625 0 8.93373 0 8.08101V1.54399Z" fill="#7B7B7B"/>
<path id="Vector (Stroke)_2" fill-rule="evenodd" clip-rule="evenodd" d="M13.919 13.3633C13.6121 13.3633 13.3633 13.6121 13.3633 13.919V20.456C13.3633 20.7629 13.6121 21.0117 13.919 21.0117H20.456C20.7629 21.0117 21.0117 20.7629 21.0117 20.456V13.919C21.0117 13.6121 20.7629 13.3633 20.456 13.3633H13.919ZM12.375 13.919C12.375 13.0663 13.0663 12.375 13.919 12.375H20.456C21.3087 12.375 22 13.0663 22 13.919V20.456C22 21.3087 21.3087 22 20.456 22H13.919C13.0663 22 12.375 21.3087 12.375 20.456V13.919Z" fill="#7B7B7B"/>
<path id="Vector (Stroke)_3" fill-rule="evenodd" clip-rule="evenodd" d="M1.54399 13.3633C1.23708 13.3633 0.988288 13.6121 0.988288 13.919V20.456C0.988288 20.7629 1.23708 21.0117 1.54399 21.0117H8.08101C8.38791 21.0117 8.63671 20.7629 8.63671 20.456V13.919C8.63671 13.6121 8.38791 13.3633 8.08101 13.3633H1.54399ZM0 13.919C0 13.0663 0.691266 12.375 1.54399 12.375H8.08101C8.93373 12.375 9.62499 13.0663 9.62499 13.919V20.456C9.62499 21.3087 8.93373 22 8.08101 22H1.54399C0.691265 22 0 21.3087 0 20.456V13.919Z" fill="#7B7B7B"/>
<path id="Ellipse 2603 (Stroke)" fill-rule="evenodd" clip-rule="evenodd" d="M17.1875 8.66387C19.3146 8.66387 21.0389 6.93955 21.0389 4.8125C21.0389 2.68545 19.3146 0.961127 17.1875 0.961127C15.0604 0.961127 13.3361 2.68545 13.3361 4.8125C13.3361 6.93955 15.0604 8.66387 17.1875 8.66387ZM17.1875 9.625C19.8454 9.625 22 7.47037 22 4.8125C22 2.15463 19.8454 0 17.1875 0C14.5296 0 12.375 2.15463 12.375 4.8125C12.375 7.47037 14.5296 9.625 17.1875 9.625Z" fill="#7B7B7B"/>
</g>
<defs>
<clipPath id="clip0_6889_214885">
<rect width="22" height="22" fill="white"/>
</clipPath>
</defs>
</svg>
