<svg width="22" height="22" viewBox="0 0 22 22" fill="none" xmlns="http://www.w3.org/2000/svg">
<path d="M18.3333 0H3.66667C1.64162 0 0 1.64162 0 3.66667V18.3333C0 20.3584 1.64162 22 3.66667 22H18.3333C20.3584 22 22 20.3584 22 18.3333V3.66667C22 1.64162 20.3584 0 18.3333 0Z" fill="url(#paint0_linear_15473_100853)"/>
<path d="M11 15.2109C10.1719 15.2109 9.45898 15.0312 8.86133 14.6719C8.26758 14.3086 7.80859 13.7949 7.48438 13.1309C7.16016 12.4668 6.99805 11.6816 6.99805 10.7754V10.7637C6.99805 9.85352 7.16016 9.06836 7.48438 8.4082C7.8125 7.74414 8.27539 7.23242 8.87305 6.87305C9.47461 6.51367 10.1836 6.33398 11 6.33398C11.8203 6.33398 12.5293 6.51367 13.127 6.87305C13.7246 7.23242 14.1855 7.74414 14.5098 8.4082C14.834 9.07227 14.9961 9.85742 14.9961 10.7637V10.7754C14.9961 11.6816 14.834 12.4668 14.5098 13.1309C14.1895 13.7949 13.7305 14.3086 13.1328 14.6719C12.5352 15.0312 11.8242 15.2109 11 15.2109ZM11 13.9043C11.5039 13.9043 11.9395 13.7754 12.3066 13.5176C12.6738 13.2598 12.957 12.8965 13.1562 12.4277C13.3594 11.959 13.4609 11.4082 13.4609 10.7754V10.7637C13.4609 10.127 13.3594 9.57617 13.1562 9.11133C12.957 8.64258 12.6738 8.28125 12.3066 8.02734C11.9395 7.76953 11.5039 7.64062 11 7.64062C10.5 7.64062 10.0645 7.76953 9.69336 8.02734C9.32617 8.28125 9.04102 8.64258 8.83789 9.11133C8.63867 9.57617 8.53906 10.127 8.53906 10.7637V10.7754C8.53906 11.4082 8.63672 11.959 8.83203 12.4277C9.03125 12.8965 9.31445 13.2598 9.68164 13.5176C10.0527 13.7754 10.4922 13.9043 11 13.9043Z" fill="#DE173E"/>
<defs>
<linearGradient id="paint0_linear_15473_100853" x1="1.0725" y1="1.0725" x2="20.9275" y2="20.9275" gradientUnits="userSpaceOnUse">
<stop stop-color="#CBCBD0"/>
<stop offset="1" stop-color="#ECECEF"/>
</linearGradient>
</defs>
</svg>
