<svg width="22" height="22" viewBox="0 0 22 22" fill="none" xmlns="http://www.w3.org/2000/svg">
<g clip-path="url(#clip0_14892_211204)">
<g clip-path="url(#clip1_14892_211204)">
<path d="M18.3333 0H3.66667C1.64162 0 0 1.64162 0 3.66667V18.3333C0 20.3584 1.64162 22 3.66667 22H18.3333C20.3584 22 22 20.3584 22 18.3333V3.66667C22 1.64162 20.3584 0 18.3333 0Z" fill="url(#paint0_linear_14892_211204)"/>
<path d="M5.50033 7.33073C6.51285 7.33073 7.33366 6.50992 7.33366 5.4974C7.33366 4.48487 6.51285 3.66406 5.50033 3.66406C4.4878 3.66406 3.66699 4.48487 3.66699 5.4974C3.66699 6.50992 4.4878 7.33073 5.50033 7.33073Z" fill="url(#paint1_linear_14892_211204)"/>
<path d="M11.0003 12.8307C12.0128 12.8307 12.8337 12.0099 12.8337 10.9974C12.8337 9.98487 12.0128 9.16406 11.0003 9.16406C9.9878 9.16406 9.16699 9.98487 9.16699 10.9974C9.16699 12.0099 9.9878 12.8307 11.0003 12.8307Z" fill="url(#paint2_linear_14892_211204)"/>
<path d="M16.5003 18.3307C17.5128 18.3307 18.3337 17.5099 18.3337 16.4974C18.3337 15.4849 17.5128 14.6641 16.5003 14.6641C15.4878 14.6641 14.667 15.4849 14.667 16.4974C14.667 17.5099 15.4878 18.3307 16.5003 18.3307Z" fill="url(#paint3_linear_14892_211204)"/>
</g>
</g>
<defs>
<linearGradient id="paint0_linear_14892_211204" x1="1.0725" y1="1.0725" x2="20.9275" y2="20.9275" gradientUnits="userSpaceOnUse">
<stop stop-color="#CBCBD0"/>
<stop offset="1" stop-color="#ECECEF"/>
</linearGradient>
<linearGradient id="paint1_linear_14892_211204" x1="4.20324" y1="4.20031" x2="6.79741" y2="6.79448" gradientUnits="userSpaceOnUse">
<stop stop-color="#303030"/>
<stop offset="0.32" stop-color="#343434"/>
<stop offset="0.64" stop-color="#404040"/>
<stop offset="0.98" stop-color="#555555"/>
<stop offset="1" stop-color="#575757"/>
</linearGradient>
<linearGradient id="paint2_linear_14892_211204" x1="9.70324" y1="9.70031" x2="12.2974" y2="12.2945" gradientUnits="userSpaceOnUse">
<stop stop-color="#303030"/>
<stop offset="0.32" stop-color="#343434"/>
<stop offset="0.64" stop-color="#404040"/>
<stop offset="0.98" stop-color="#555555"/>
<stop offset="1" stop-color="#575757"/>
</linearGradient>
<linearGradient id="paint3_linear_14892_211204" x1="15.2032" y1="15.2003" x2="17.7974" y2="17.7945" gradientUnits="userSpaceOnUse">
<stop stop-color="#303030"/>
<stop offset="0.32" stop-color="#343434"/>
<stop offset="0.64" stop-color="#404040"/>
<stop offset="0.98" stop-color="#555555"/>
<stop offset="1" stop-color="#575757"/>
</linearGradient>
<clipPath id="clip0_14892_211204">
<rect width="22" height="22" fill="white"/>
</clipPath>
<clipPath id="clip1_14892_211204">
<rect width="22" height="22" fill="white"/>
</clipPath>
</defs>
</svg>
