<svg width="18" height="22" viewBox="0 0 18 22" fill="none" xmlns="http://www.w3.org/2000/svg">
<g clip-path="url(#clip0_7945_253717)">
<path d="M8.71927 21.9997C6.40826 21.9997 4.21835 21.0712 2.55321 19.396C1.75596 18.5887 1.13028 17.6602 0.686239 16.6208C0.23211 15.551 0 14.4309 0 13.2804C0 10.8584 1.2211 8.1538 2.84587 8.1538C3.00734 8.1538 3.14862 8.22444 3.25963 8.33545C3.36055 8.45656 3.41101 8.60793 3.39083 8.7694C3.26972 9.82903 3.32018 11.7868 3.96606 12.5235C4.14771 12.7254 4.35963 12.8162 4.63211 12.8162C4.82385 12.8162 4.96514 12.7859 5.0156 12.7254C5.04587 12.6951 5.10642 12.574 5.09633 12.2006C5.08624 11.8474 5.0055 11.4134 4.91468 10.9088C4.77339 10.1217 4.62202 9.24371 4.62202 8.285C4.62202 8.19417 4.62202 8.06298 4.62202 7.92169C4.58165 6.64004 4.50092 3.62261 6.36789 1.70518C7.4578 0.584995 9.03211 0.00976562 11.0404 0.00976562C11.2321 0.00976562 11.4138 0.110683 11.5147 0.282243C11.6156 0.453802 11.6156 0.665729 11.5147 0.827197C11.4339 0.978573 9.52661 4.46022 13.5734 6.92261C15.1275 7.87123 17.4385 10.3437 17.4385 13.2905C17.4385 15.6015 16.5303 17.7914 14.8853 19.4465C13.2303 21.1015 11.0404 22.0098 8.71927 22.0098V21.9997ZM2.05872 9.8694C1.9578 10.0107 1.85688 10.1822 1.75596 10.374C1.33211 11.2116 1.1 12.2712 1.1 13.2703C1.1 17.3978 4.59174 20.8896 8.71927 20.8896C12.8468 20.8896 16.3385 17.4685 16.3385 13.2703C16.3385 10.7978 14.2899 8.62811 13.0083 7.84096C10.4248 6.26665 9.88991 4.28866 9.9 2.9061C9.9 2.37123 9.99083 1.81619 10.1523 1.27123L10.1927 1.11986L10.0413 1.14004C8.82018 1.29142 7.84128 1.72536 7.15505 2.44188C5.61101 4.02628 5.68165 6.61986 5.72202 7.86114V8.25472C5.72202 9.11252 5.87339 9.94004 6.00459 10.6767C6.21651 11.8676 6.37798 12.8061 5.8633 13.4116C5.59083 13.7345 5.18716 13.896 4.6422 13.896C4.05688 13.896 3.5422 13.6639 3.15872 13.2299C2.43211 12.4125 2.26055 10.9694 2.25046 9.90977V9.59692L2.06881 9.85931L2.05872 9.8694Z" fill="#7B7B7B"/>
</g>
<defs>
<clipPath id="clip0_7945_253717">
<rect width="17.4385" height="22" fill="white"/>
</clipPath>
</defs>
</svg>
