<svg width="20" height="20" viewBox="0 0 20 20" fill="none" xmlns="http://www.w3.org/2000/svg">
<g id="Frame 1000001394">
<g id="Game">
<path id="Game_2" fill-rule="evenodd" clip-rule="evenodd" d="M12.5889 5.1586C12.8467 5.16214 13.1051 5.16568 13.3644 5.16833C16.1506 5.16833 18.182 7.15467 18.182 9.89771V13.4211C18.182 16.1641 16.1506 18.1505 13.3644 18.1505C12.2484 18.1741 11.1323 18.182 10.0082 18.182C8.88411 18.182 7.75198 18.1741 6.63592 18.1505C3.84976 18.1505 1.81836 16.1641 1.81836 13.4211V9.89771C1.81836 7.15467 3.84976 5.16833 6.64395 5.16833C7.69578 5.15257 8.7717 5.1368 9.86368 5.1368V5.0028C9.86368 4.45893 9.40601 4.01752 8.86002 4.01752H8.06513C7.15782 4.01752 6.41913 3.29235 6.41913 2.40953C6.41913 2.08636 6.69212 1.81836 7.02132 1.81836C7.35855 1.81836 7.62352 2.08636 7.62352 2.40953C7.62352 2.646 7.82425 2.83517 8.06513 2.83517H8.86002C10.0724 2.84306 11.06 3.81258 11.0681 4.99492V5.14469C11.5742 5.14469 12.0804 5.15163 12.5889 5.1586ZM9.06104 12.2466H8.21797V13.0821C8.21797 13.4053 7.94497 13.6733 7.61577 13.6733C7.27854 13.6733 7.01358 13.4053 7.01358 13.0821V12.2466H6.16248C5.83328 12.2466 5.56028 11.9865 5.56028 11.6554C5.56028 11.3323 5.83328 11.0643 6.16248 11.0643H7.01358V10.2366C7.01358 9.91344 7.27854 9.64544 7.61577 9.64544C7.94497 9.64544 8.21797 9.91344 8.21797 10.2366V11.0643H9.06104C9.39024 11.0643 9.66323 11.3323 9.66323 11.6554C9.66323 11.9865 9.39024 12.2466 9.06104 12.2466ZM12.4735 10.9143H12.5538C12.883 10.9143 13.156 10.6542 13.156 10.3231C13.156 9.99993 12.883 9.73193 12.5538 9.73193H12.4735C12.1363 9.73193 11.8713 9.99993 11.8713 10.3231C11.8713 10.6542 12.1363 10.9143 12.4735 10.9143ZM13.8465 13.6256H13.9268C14.256 13.6256 14.529 13.3655 14.529 13.0344C14.529 12.7112 14.256 12.4432 13.9268 12.4432H13.8465C13.5084 12.4432 13.2443 12.7112 13.2443 13.0344C13.2443 13.3655 13.5084 13.6256 13.8465 13.6256Z" fill="white"/>
</g>
</g>
</svg>
