<svg width="20" height="20" viewBox="0 0 20 20" fill="none" xmlns="http://www.w3.org/2000/svg">
<g id="money_8894984 1">
<path id="Vector" d="M3.19027 6.03588C2.98567 5.39848 2.89067 4.78048 2.89987 4.20508L2.60787 4.49688C2.01147 5.09368 1.87007 6.03968 2.11307 7.11348L3.19027 6.03588Z" fill="white"/>
<path id="Vector_2" d="M3.30949 9.68852L4.48069 8.51732C4.12969 8.03152 3.83369 7.53752 3.59649 7.04492L2.46289 8.17812C2.67689 8.67652 2.95889 9.18572 3.30949 9.68852Z" fill="white"/>
<path id="Vector_3" d="M6.73505 9.54665C7.38825 8.89045 8.16925 8.28745 9.04385 7.78305C10.2221 7.10285 11.4623 6.65145 12.6371 6.46645C12.2371 5.79545 11.7209 5.12405 11.0939 4.49725C8.75125 2.15465 5.79645 1.30965 4.49465 2.61165C3.19245 3.91385 4.03725 6.86805 6.37985 9.21145C6.49645 9.32805 6.61545 9.43785 6.73505 9.54665Z" fill="white"/>
<path id="Vector_4" d="M5.49969 11.1012C5.66549 10.8248 5.85949 10.5534 6.07169 10.2866C5.93829 10.1648 5.80269 10.0484 5.67229 9.91784C5.47209 9.71824 5.28509 9.51364 5.10549 9.30664L3.92969 10.4818C4.10829 10.6892 4.29329 10.8958 4.49409 11.0954C4.71669 11.318 4.94609 11.523 5.17769 11.718C5.27109 11.5136 5.37569 11.308 5.49969 11.1012Z" fill="white"/>
<path id="Vector_5" d="M9.54378 8.64985C12.4142 6.99285 15.4864 6.94185 16.4068 8.53665C17.3276 10.131 15.7474 12.766 12.8776 14.4226C10.0078 16.0796 6.93498 16.131 6.01418 14.5358C5.09358 12.9418 6.67438 10.3058 9.54378 8.64985Z" fill="white"/>
<path id="Vector_6" d="M12.5425 17.509L11.7143 16.0742C11.1535 16.2874 10.5997 16.4456 10.0625 16.5468L10.8637 17.9356C11.4009 17.858 11.9661 17.7174 12.5425 17.509Z" fill="white"/>
<path id="Vector_7" d="M16.9257 14.4357L16.1239 13.0469C15.7673 13.4617 15.3533 13.8625 14.8887 14.2411L15.7169 15.6761C16.1857 15.2803 16.5899 14.8613 16.9257 14.4357Z" fill="white"/>
<path id="Vector_8" d="M14.0821 14.8438C13.8545 14.9977 13.6209 15.1465 13.3763 15.2889C13.1315 15.4299 12.8855 15.5577 12.6387 15.6771L13.4701 17.1173C13.7169 16.9989 13.9641 16.8731 14.2097 16.7315C14.4551 16.5897 14.6875 16.4387 14.9135 16.2839L14.0821 14.8438Z" fill="white"/>
<path id="Vector_9" d="M16.7793 12.1815L17.5411 13.5005C18.0539 12.5265 18.1629 11.5769 17.7405 10.8457L17.5343 10.4883C17.3941 11.0463 17.1427 11.6183 16.7793 12.1815Z" fill="white"/>
<path id="Vector_10" d="M8.98443 16.6793C8.31523 16.7127 7.69443 16.6443 7.14062 16.4863L7.34683 16.8439C7.76863 17.5741 8.64603 17.9561 9.74603 17.9987L8.98443 16.6793Z" fill="white"/>
</g>
</svg>
