<svg width="22" height="22" viewBox="0 0 22 22" fill="none" xmlns="http://www.w3.org/2000/svg">
<g id="recent 1">
<path id="Vector" d="M11.6115 20.1672C9.93844 20.1642 8.29834 19.7014 6.87036 18.8296C5.44238 17.9577 4.28144 16.7102 3.51432 15.2233L4.67543 14.6122C5.56084 16.3128 7.03868 17.63 8.82951 18.3148C10.6203 18.9996 12.6 19.0045 14.3942 18.3285C16.1883 17.6525 17.6727 16.3426 18.5664 14.6464C19.4602 12.9502 19.7014 10.9852 19.2446 9.12317C18.7877 7.26111 17.6644 5.63098 16.0871 4.54104C14.5098 3.45109 12.5877 2.97688 10.6844 3.20807C8.78113 3.43927 7.02851 4.35984 5.75799 5.79572C4.48746 7.2316 3.78709 9.08325 3.78932 11.0005C3.78849 11.1517 3.7353 11.2979 3.63881 11.4143C3.54232 11.5307 3.40849 11.61 3.26008 11.6388C3.11168 11.6676 2.95788 11.6441 2.82485 11.5723C2.69182 11.5005 2.58778 11.3849 2.53043 11.245L1.22266 7.97554L2.44488 7.49276L2.8421 8.48887C3.30977 6.84744 4.22642 5.36917 5.48882 4.22054C6.75122 3.0719 8.30924 2.29852 9.98741 1.98749C11.6656 1.67645 13.3973 1.84012 14.9875 2.46005C16.5776 3.07998 17.9632 4.13156 18.988 5.49636C20.0129 6.86116 20.6364 8.48499 20.7882 10.185C20.9401 11.885 20.6143 13.5936 19.8477 15.1184C19.081 16.6433 17.9038 17.9238 16.4486 18.8158C14.9935 19.7078 13.3183 20.1758 11.6115 20.1672Z" fill="white"/>
<path id="Vector_2" d="M14.9004 12.3073H11.0015C10.8281 12.3073 10.6618 12.2384 10.5392 12.1158C10.4165 11.9931 10.3477 11.8268 10.3477 11.6534V7.07617H11.6127V10.9995H14.8821L14.9004 12.3073Z" fill="white"/>
</g>
</svg>
