<svg width="34" height="34" viewBox="0 0 34 34" fill="none" xmlns="http://www.w3.org/2000/svg">
<g clip-path="url(#clip0_1327_78058)">
<path fill-rule="evenodd" clip-rule="evenodd" d="M15.6477 12.9436C14.8748 12.4721 14.2487 12.0779 13.7309 11.8229C13.2053 11.5678 12.6643 11.3746 12.0924 11.4364C11.2654 11.5292 10.5311 11.9929 10.0597 12.6808C9.74278 13.1445 9.62684 13.7164 9.58047 14.3193C9.52637 14.9221 9.52637 15.6873 9.52637 16.6457V16.723C9.52637 17.6736 9.52637 18.4465 9.58047 19.0494C9.63457 19.6522 9.74278 20.2164 10.0597 20.6879C10.5311 21.3758 11.2654 21.8395 12.0924 21.9323C12.6643 21.9941 13.2053 21.8009 13.7309 21.5458C14.2487 21.2908 14.8825 20.9043 15.6477 20.4251L15.7172 20.3787C16.4901 19.9073 17.1161 19.5131 17.5876 19.1653C18.0591 18.8098 18.4687 18.4156 18.6928 17.89C19.0097 17.1249 19.0097 16.2515 18.6928 15.4864C18.4687 14.9608 18.0591 14.5666 17.5876 14.2111C17.1239 13.8633 16.4901 13.4691 15.7172 12.9977L15.6477 12.9513V12.9436ZM12.2779 13.0904C12.3629 13.0827 12.5484 13.0904 12.9966 13.3145C13.4372 13.5309 14.0014 13.8787 14.8129 14.3811C15.6322 14.8835 16.1887 15.2313 16.5906 15.5327C16.9848 15.8342 17.1161 16.0042 17.1625 16.1279C17.3094 16.4834 17.3094 16.9007 17.1625 17.2563C17.1161 17.3722 16.9848 17.55 16.5906 17.8514C16.1964 18.1528 15.6322 18.5006 14.8129 19.003C13.9937 19.5054 13.4372 19.8532 12.9966 20.0696C12.5484 20.286 12.3629 20.3092 12.2779 20.2937C11.9532 20.2551 11.6441 20.0773 11.4354 19.7682C11.3658 19.6677 11.2808 19.4513 11.2345 18.9257C11.1881 18.4079 11.1881 17.7045 11.1881 16.6998C11.1881 15.695 11.1881 14.9994 11.2345 14.4739C11.2808 13.9483 11.3658 13.7319 11.4354 13.6314C11.6441 13.3223 11.9532 13.1445 12.2779 13.1059V13.0904Z" fill="white"/>
<path fill-rule="evenodd" clip-rule="evenodd" d="M17.3787 7.07729C16.4203 7 15.2301 7 13.7152 7H13.6379C12.1231 7 10.9328 7 9.97444 7.07729C9.00059 7.15458 8.19679 7.32461 7.47027 7.6956C6.27229 8.30618 5.29845 9.28002 4.68787 10.478C4.31688 11.2045 4.15458 12.0083 4.06956 12.9822C4 13.9328 4 15.1231 4 16.6457V16.7229C4 18.2378 4 19.4281 4.07729 20.3864C4.15458 21.3603 4.32461 22.1641 4.6956 22.8906C5.30618 24.0886 6.28002 25.0624 7.478 25.673C8.20452 26.044 9.00832 26.2063 9.98216 26.2913C10.9405 26.3686 12.1308 26.3686 13.6457 26.3686H13.7229C15.2378 26.3686 16.4281 26.3686 17.3864 26.2913C18.3603 26.214 19.1641 26.044 19.8906 25.673C21.0886 25.0624 22.0624 24.0886 22.673 22.8906C22.7271 22.7824 22.7812 22.6742 22.8276 22.5583C24.1183 23.1225 25.1772 23.5785 26.0351 23.8103C26.9471 24.0577 27.8359 24.1118 28.632 23.5862C29.4281 23.0684 29.7372 22.2336 29.8763 21.2985C30.0077 20.3942 30.0077 19.1962 30.0077 17.7277V15.6254C30.0077 14.157 30.0077 12.9667 29.8763 12.0547C29.7372 11.1195 29.4281 10.2848 28.632 9.76694C27.8359 9.24911 26.9471 9.29548 26.0351 9.54281C25.1772 9.77467 24.1183 10.2307 22.8276 10.7949C22.7812 10.679 22.7271 10.5707 22.673 10.4625C22.0624 9.26457 21.0886 8.29073 19.8906 7.68014C19.1641 7.30916 18.3603 7.14685 17.3864 7.06183L17.3787 7.07729ZM23.299 20.9584L23.2218 20.9275C23.3532 19.8686 23.3532 18.547 23.3532 16.8002V16.5684C23.3532 14.8216 23.3532 13.5 23.2218 12.4411L23.299 12.4102C24.7212 11.7919 25.7027 11.3591 26.4524 11.1581C27.1867 10.9572 27.4958 11.0345 27.7045 11.1659C27.9132 11.2973 28.0987 11.56 28.2146 12.3097C28.3306 13.0826 28.3306 14.1492 28.3306 15.7027V17.6659C28.3306 19.2194 28.3306 20.2937 28.2146 21.0589C28.1064 21.8163 27.9132 22.0713 27.7045 22.2027C27.4958 22.3341 27.1867 22.4114 26.4524 22.2105C25.7027 22.0095 24.7212 21.5767 23.299 20.9584ZM8.22771 9.17182C8.68371 8.93995 9.24792 8.80083 10.1136 8.73127C10.9946 8.66171 12.1153 8.66171 13.6766 8.66171C15.2378 8.66171 16.3585 8.66171 17.2396 8.73127C18.113 8.80083 18.6694 8.93995 19.1254 9.17182C20.0065 9.62009 20.7331 10.3389 21.1813 11.2277C21.3127 11.4828 21.4055 11.761 21.4828 12.1088C21.6914 13.0672 21.6914 14.3888 21.6914 16.6766C21.6914 18.9643 21.6914 20.286 21.4828 21.2444C21.4055 21.5922 21.3127 21.8781 21.1813 22.1254C20.7331 23.0065 20.0143 23.7331 19.1254 24.1813C18.6694 24.4132 18.1052 24.5523 17.2396 24.6219C16.3585 24.6914 15.2378 24.6914 13.6766 24.6914C12.1153 24.6914 10.9946 24.6914 10.1136 24.6219C9.24019 24.5523 8.68371 24.4132 8.22771 24.1813C7.34661 23.7331 6.6201 23.0143 6.17182 22.1254C5.93995 21.6694 5.80083 21.1052 5.73127 20.2396C5.66171 19.3585 5.66171 18.2378 5.66171 16.6766C5.66171 15.1153 5.66171 13.9946 5.73127 13.1136C5.80083 12.2402 5.93995 11.6837 6.17182 11.2277C6.6201 10.3466 7.33888 9.62009 8.22771 9.17182Z" fill="white"/>
</g>
<defs>
<clipPath id="clip0_1327_78058">
<rect width="26" height="19.3609" fill="white" transform="translate(4 7)"/>
</clipPath>
</defs>
</svg>
