<svg width="34" height="34" viewBox="0 0 34 34" fill="none" xmlns="http://www.w3.org/2000/svg">
<g clip-path="url(#clip0_1327_78060)">
<rect x="7.85156" y="10.8518" width="12.5185" height="12.5185" fill="white"/>
<path fill-rule="evenodd" clip-rule="evenodd" d="M15.6474 12.9435C14.8746 12.4721 14.2485 12.0779 13.7307 11.8228C13.2051 11.5678 12.6641 11.3746 12.0922 11.4364C11.2652 11.5291 10.5309 11.9929 10.0595 12.6807C9.74257 13.1445 9.62664 13.7164 9.58026 14.3193C9.52616 14.9221 9.52616 15.6873 9.52616 16.6457V16.7229C9.52616 17.6736 9.52616 18.4465 9.58026 19.0493C9.63436 19.6522 9.74257 20.2164 10.0595 20.6879C10.5309 21.3757 11.2652 21.8395 12.0922 21.9322C12.6641 21.9941 13.2051 21.8008 13.7307 21.5458C14.2485 21.2907 14.8823 20.9043 15.6474 20.4251L15.717 20.3787C16.4899 19.9073 17.1159 19.5131 17.5874 19.1653C18.0589 18.8098 18.4685 18.4156 18.6926 17.89C19.0095 17.1249 19.0095 16.2515 18.6926 15.4863C18.4685 14.9608 18.0589 14.5666 17.5874 14.2111C17.1237 13.8633 16.4899 13.4691 15.717 12.9976L15.6474 12.9512V12.9435ZM12.2776 13.0904C12.3627 13.0826 12.5482 13.0904 12.9964 13.3145C13.437 13.5309 14.0012 13.8787 14.8127 14.3811C15.632 14.8835 16.1885 15.2313 16.5904 15.5327C16.9845 15.8341 17.1159 16.0042 17.1623 16.1278C17.3092 16.4834 17.3092 16.9007 17.1623 17.2562C17.1159 17.3722 16.9845 17.5499 16.5904 17.8514C16.1962 18.1528 15.632 18.5006 14.8127 19.003C13.9935 19.5054 13.437 19.8532 12.9964 20.0696C12.5482 20.286 12.3627 20.3092 12.2776 20.2937C11.953 20.2551 11.6439 20.0773 11.4352 19.7681C11.3656 19.6677 11.2806 19.4512 11.2342 18.9257C11.1879 18.4078 11.1879 17.7045 11.1879 16.6998C11.1879 15.695 11.1879 14.9994 11.2342 14.4738C11.2806 13.9483 11.3656 13.7319 11.4352 13.6314C11.6439 13.3222 11.953 13.1445 12.2776 13.1058V13.0904ZM17.3787 7.07729C16.4203 7 15.2301 7 13.7152 7H13.6379C12.1231 7 10.9328 7 9.97444 7.07729C9.00059 7.15458 8.19679 7.32461 7.47027 7.6956C6.27229 8.30618 5.29845 9.28002 4.68787 10.478C4.31688 11.2045 4.15458 12.0083 4.06956 12.9822C4 13.9328 4 15.1231 4 16.6457V16.7229C4 18.2378 4 19.4281 4.07729 20.3864C4.15458 21.3603 4.32461 22.1641 4.6956 22.8906C5.30618 24.0886 6.28002 25.0624 7.478 25.673C8.20452 26.044 9.00832 26.2063 9.98216 26.2913C10.9405 26.3686 12.1308 26.3686 13.6457 26.3686H13.7229C15.2378 26.3686 16.4281 26.3686 17.3864 26.2913C18.3603 26.214 19.1641 26.044 19.8906 25.673C21.0886 25.0624 22.0624 24.0886 22.673 22.8906C22.7271 22.7824 22.7812 22.6742 22.8276 22.5583C24.1183 23.1225 25.1772 23.5785 26.0351 23.8103C26.9471 24.0577 27.8359 24.1118 28.632 23.5862C29.4281 23.0684 29.7372 22.2337 29.8763 21.2985C30.0077 20.3942 30.0077 19.1962 30.0077 17.7277V15.6254C30.0077 14.157 30.0077 12.9667 29.8763 12.0547C29.7372 11.1195 29.4281 10.2848 28.632 9.76694C27.8359 9.24911 26.9471 9.29548 26.0351 9.54281C25.1772 9.77467 24.1183 10.2307 22.8276 10.7949C22.7812 10.679 22.7271 10.5707 22.673 10.4625C22.0624 9.26457 21.0886 8.29073 19.8906 7.68014C19.1641 7.30916 18.3603 7.14685 17.3864 7.06183L17.3787 7.07729ZM23.299 20.9584L23.2218 20.9275C23.3532 19.8686 23.3532 18.547 23.3532 16.8002V16.5684C23.3532 14.8216 23.3532 13.5 23.2218 12.4411L23.299 12.4102C24.7212 11.7919 25.7027 11.3591 26.4524 11.1581C27.1867 10.9572 27.4958 11.0345 27.7045 11.1659C27.9132 11.2973 28.0987 11.56 28.2146 12.3098C28.3306 13.0826 28.3306 14.1492 28.3306 15.7027V17.6659C28.3306 19.2194 28.3306 20.2937 28.2146 21.0589C28.1064 21.8163 27.9132 22.0713 27.7045 22.2027C27.4958 22.3341 27.1867 22.4114 26.4524 22.2105C25.7027 22.0095 24.7212 21.5767 23.299 20.9584Z" fill="#DE173E"/>
</g>
<defs>
<clipPath id="clip0_1327_78060">
<rect width="26" height="19.3609" fill="white" transform="translate(4 7)"/>
</clipPath>
</defs>
</svg>
